<?xml version="1.0" encoding="UTF-8"?>
<!DOCTYPE svg PUBLIC "-//W3C//DTD SVG 1.1//EN" "http://www.w3.org/Graphics/SVG/1.1/DTD/svg11.dtd">
<svg xmlns="http://www.w3.org/2000/svg" version="1.1" width="512px" height="512px" style="shape-rendering:geometricPrecision; text-rendering:geometricPrecision; image-rendering:optimizeQuality; fill-rule:evenodd; clip-rule:evenodd" xmlns:xlink="http://www.w3.org/1999/xlink">
<g><path style="opacity:1" fill="#f26321" d="M -0.5,-0.5 C 170.167,-0.5 340.833,-0.5 511.5,-0.5C 511.5,170.167 511.5,340.833 511.5,511.5C 340.833,511.5 170.167,511.5 -0.5,511.5C -0.5,340.833 -0.5,170.167 -0.5,-0.5 Z"/></g>
<g><path style="opacity:1" fill="#fefdfb" d="M 378.5,202.5 C 381.5,202.5 384.5,202.5 387.5,202.5C 396.92,202.938 405.92,205.105 414.5,209C 419.53,212.842 424.53,216.675 429.5,220.5C 429.5,220.833 429.5,221.167 429.5,221.5C 418.015,233.224 404.015,239.558 387.5,240.5C 384.167,240.5 380.833,240.5 377.5,240.5C 362.26,238.713 349.26,232.38 338.5,221.5C 349.212,209.812 362.545,203.479 378.5,202.5 Z"/></g>
<g><path style="opacity:1" fill="#fdebe2" d="M 117.5,113.5 C 149.216,110.935 172.382,123.601 187,151.5C 196.017,177.243 191.851,200.576 174.5,221.5C 190.813,239.759 195.646,260.759 189,284.5C 174.348,320.579 147.848,334.746 109.5,327C 73.0969,312.031 58.9302,285.198 67,246.5C 69.06,241.38 71.3933,236.38 74,231.5C 76.9027,228.268 79.4027,224.768 81.5,221C 65.895,202.405 61.0617,181.239 67,157.5C 76.3145,134.008 93.1478,119.341 117.5,113.5 Z"/></g>
<g><path style="opacity:1" fill="#fefdfb" d="M 133.5,240.5 C 129.833,240.5 126.167,240.5 122.5,240.5C 106.722,239.278 93.7219,232.778 83.5,221C 95.5519,208.398 110.385,202.231 128,202.5C 145.96,202.403 161.126,208.737 173.5,221.5C 162.541,232.645 149.208,238.978 133.5,240.5 Z"/></g>
<g><path style="opacity:1" fill="#f26423" d="M 122.5,151.5 C 144.539,151.036 154.706,161.703 153,183.5C 146.314,199.589 134.48,205.089 117.5,200C 105.828,193.146 101.328,182.979 104,169.5C 107.441,160.557 113.608,154.557 122.5,151.5 Z"/></g>
<g><path style="opacity:1" fill="#fdebe2" d="M 245.5,113.5 C 278.641,110.814 302.141,124.481 316,154.5C 323.707,179.255 319.207,201.422 302.5,221C 320.156,241.622 324.322,264.789 315,290.5C 299.722,320.89 275.222,333.39 241.5,328C 203.765,315.234 187.932,289.067 194,249.5C 197.479,239.04 202.645,229.54 209.5,221C 193.6,202.466 188.767,181.3 195,157.5C 204.323,133.998 221.156,119.332 245.5,113.5 Z"/></g>
<g><path style="opacity:1" fill="#fefdfb" d="M 251.5,202.5 C 254.167,202.5 256.833,202.5 259.5,202.5C 275.815,203.493 289.815,209.659 301.5,221C 290.673,232.58 277.34,239.08 261.5,240.5C 258.167,240.5 254.833,240.5 251.5,240.5C 235.246,239.372 221.579,232.872 210.5,221C 221.725,209.532 235.392,203.365 251.5,202.5 Z"/></g>
<g><path style="opacity:1" fill="#f26423" d="M 259.5,202.5 C 256.833,202.5 254.167,202.5 251.5,202.5C 235.823,197.171 229.323,186.171 232,169.5C 238.81,153.844 250.31,148.677 266.5,154C 282.153,162.971 285.653,175.471 277,191.5C 272.46,197.347 266.626,201.014 259.5,202.5 Z"/></g>
<g><path style="opacity:1" fill="#fdebe2" d="M 429.5,220.5 C 424.53,216.675 419.53,212.842 414.5,209C 405.92,205.105 396.92,202.938 387.5,202.5C 406.098,196.641 412.598,184.308 407,165.5C 396.687,150.833 383.853,148 368.5,157C 359.092,166.266 356.925,177.099 362,189.5C 366.166,195.65 371.666,199.983 378.5,202.5C 362.545,203.479 349.212,209.812 338.5,221.5C 349.26,232.38 362.26,238.713 377.5,240.5C 358.079,249.931 353.912,263.931 365,282.5C 373.387,290.558 383.22,292.724 394.5,289C 407.398,281.7 411.898,270.867 408,256.5C 403.964,247.418 397.13,242.085 387.5,240.5C 404.015,239.558 418.015,233.224 429.5,221.5C 448.713,242.332 452.879,265.998 442,292.5C 422.426,325.915 394.259,336.415 357.5,324C 324.277,305.012 313.444,277.179 325,240.5C 328.577,233.761 332.744,227.427 337.5,221.5C 318.972,199.079 315.472,174.412 327,147.5C 345.392,117.733 371.559,107.566 405.5,117C 442.083,134.342 454.583,162.509 443,201.5C 439.951,208.956 435.451,215.289 429.5,220.5 Z"/></g>
<g><path style="opacity:1" fill="#f26423" d="M 387.5,202.5 C 384.5,202.5 381.5,202.5 378.5,202.5C 371.666,199.983 366.166,195.65 362,189.5C 356.925,177.099 359.092,166.266 368.5,157C 383.853,148 396.687,150.833 407,165.5C 412.598,184.308 406.098,196.641 387.5,202.5 Z"/></g>
<g><path style="opacity:1" fill="#f26322" d="M 122.5,240.5 C 126.167,240.5 129.833,240.5 133.5,240.5C 148.886,245.585 155.386,256.252 153,272.5C 145.069,290.146 132.236,294.979 114.5,287C 103.459,278.004 100.626,266.837 106,253.5C 109.939,247.048 115.439,242.714 122.5,240.5 Z"/></g>
<g><path style="opacity:1" fill="#f26422" d="M 251.5,240.5 C 254.833,240.5 258.167,240.5 261.5,240.5C 280.826,248.173 285.993,261.507 277,280.5C 269.573,289.642 260.073,292.809 248.5,290C 232.435,282.362 227.602,270.195 234,253.5C 238.049,246.599 243.882,242.266 251.5,240.5 Z"/></g>
<g><path style="opacity:1" fill="#f26423" d="M 377.5,240.5 C 380.833,240.5 384.167,240.5 387.5,240.5C 397.13,242.085 403.964,247.418 408,256.5C 411.898,270.867 407.398,281.7 394.5,289C 383.22,292.724 373.387,290.558 365,282.5C 353.912,263.931 358.079,249.931 377.5,240.5 Z"/></g>
<g><path style="opacity:1" fill="#fffbf9" d="M 436.5,370.5 C 432.5,370.5 428.5,370.5 424.5,370.5C 424.175,378.019 424.508,385.352 425.5,392.5C 425.414,393.496 425.748,394.329 426.5,395C 429.817,395.498 433.15,395.665 436.5,395.5C 436.664,398.187 436.497,400.854 436,403.5C 430.576,405.902 425.076,406.068 419.5,404C 416.227,401.681 414.56,398.514 414.5,394.5C 414.5,386.5 414.5,378.5 414.5,370.5C 412.5,370.5 410.5,370.5 408.5,370.5C 408.5,367.167 408.5,363.833 408.5,360.5C 410.5,360.5 412.5,360.5 414.5,360.5C 414.5,356.5 414.5,352.5 414.5,348.5C 417.833,348.5 421.167,348.5 424.5,348.5C 424.5,352.5 424.5,356.5 424.5,360.5C 428.5,360.5 432.5,360.5 436.5,360.5C 436.5,363.833 436.5,367.167 436.5,370.5 Z"/></g>
<g><path style="opacity:1" fill="#fef9f6" d="M 237.5,360.5 C 245.544,359.34 252.877,361.007 259.5,365.5C 258.236,368.125 257.069,370.792 256,373.5C 251.151,369.668 245.818,368.668 240,370.5C 239.08,373.308 239.913,375.475 242.5,377C 250.336,378.859 256.503,383.025 261,389.5C 261.249,399.262 256.416,404.762 246.5,406C 239.552,406.68 233.219,405.013 227.5,401C 226.426,400.261 225.759,399.261 225.5,398C 226.701,395.766 228.035,393.599 229.5,391.5C 235.311,397.053 241.977,398.553 249.5,396C 252.167,394 252.167,392 249.5,390C 243.682,387.59 238.015,384.923 232.5,382C 226.094,372.927 227.761,365.76 237.5,360.5 Z"/></g>
<g><path style="opacity:1" fill="#fefcfa" d="M 280.5,399.5 C 280.44,398.957 280.107,398.624 279.5,398.5C 278.502,406.807 278.169,415.14 278.5,423.5C 275.5,423.5 272.5,423.5 269.5,423.5C 269.5,402.833 269.5,382.167 269.5,361.5C 272.5,361.5 275.5,361.5 278.5,361.5C 278.201,363.604 278.534,365.604 279.5,367.5C 280.107,367.376 280.44,367.043 280.5,366.5C 282.071,363.769 284.405,361.935 287.5,361C 304.28,358.624 313.613,365.791 315.5,382.5C 314.072,399.756 304.739,407.256 287.5,405C 284.405,404.065 282.071,402.231 280.5,399.5 Z"/></g>
<g><path style="opacity:1" fill="#fefaf7" d="M 338.5,360.5 C 363.793,359.761 372.626,371.428 365,395.5C 355.909,406.164 345.076,408.331 332.5,402C 320.521,390.851 319.521,378.851 329.5,366C 332.596,364.128 335.596,362.295 338.5,360.5 Z"/></g>
<g><path style="opacity:1" fill="#fefbf9" d="M 377.5,404.5 C 377.5,390.167 377.5,375.833 377.5,361.5C 380.833,361.5 384.167,361.5 387.5,361.5C 387.337,363.857 387.503,366.19 388,368.5C 391.279,363.061 396.113,360.395 402.5,360.5C 402.5,363.833 402.5,367.167 402.5,370.5C 395.995,370.168 391.162,372.835 388,378.5C 387.5,387.16 387.334,395.827 387.5,404.5C 384.167,404.5 380.833,404.5 377.5,404.5 Z"/></g>
<g><path style="opacity:1" fill="#facab5" d="M 280.5,366.5 C 280.44,367.043 280.107,367.376 279.5,367.5C 278.534,365.604 278.201,363.604 278.5,361.5C 275.5,361.5 272.5,361.5 269.5,361.5C 269.5,382.167 269.5,402.833 269.5,423.5C 268.503,402.673 268.169,381.673 268.5,360.5C 272.167,360.5 275.833,360.5 279.5,360.5C 279.205,362.735 279.539,364.735 280.5,366.5 Z"/></g>
<g><path style="opacity:1" fill="#f8b99c" d="M 387.5,361.5 C 384.167,361.5 380.833,361.5 377.5,361.5C 377.5,375.833 377.5,390.167 377.5,404.5C 376.504,390.01 376.171,375.343 376.5,360.5C 380.371,360.185 384.038,360.518 387.5,361.5 Z"/></g>
<g><path style="opacity:1" fill="#f26424" d="M 287.5,370.5 C 302.19,369.697 307.357,376.363 303,390.5C 298.772,395.087 293.606,396.587 287.5,395C 281.627,391.061 279.46,385.561 281,378.5C 282.305,375.039 284.471,372.372 287.5,370.5 Z"/></g>
<g><path style="opacity:1" fill="#f26424" d="M 340.5,370.5 C 355.19,369.697 360.357,376.363 356,390.5C 348.534,397.436 341.534,397.103 335,389.5C 331.628,381.479 333.461,375.145 340.5,370.5 Z"/></g>
<g><path style="opacity:1" fill="#f4814c" d="M 408.5,370.5 C 410.5,370.5 412.5,370.5 414.5,370.5C 414.5,378.5 414.5,386.5 414.5,394.5C 413.508,387.018 413.175,379.352 413.5,371.5C 411.585,371.784 409.919,371.451 408.5,370.5 Z"/></g>
<g><path style="opacity:1" fill="#f47c46" d="M 436.5,370.5 C 433.038,371.482 429.371,371.815 425.5,371.5C 425.5,378.5 425.5,385.5 425.5,392.5C 424.508,385.352 424.175,378.019 424.5,370.5C 428.5,370.5 432.5,370.5 436.5,370.5 Z"/></g>
<g><path style="opacity:1" fill="#f9c4ac" d="M 280.5,399.5 C 279.833,407.5 279.167,415.5 278.5,423.5C 278.169,415.14 278.502,406.807 279.5,398.5C 280.107,398.624 280.44,398.957 280.5,399.5 Z"/></g>
</svg>
