<?xml version="1.0" encoding="UTF-8"?>
<!DOCTYPE svg PUBLIC "-//W3C//DTD SVG 1.1//EN" "http://www.w3.org/Graphics/SVG/1.1/DTD/svg11.dtd">
<svg xmlns="http://www.w3.org/2000/svg" version="1.1" width="512px" height="512px" style="shape-rendering:geometricPrecision; text-rendering:geometricPrecision; image-rendering:optimizeQuality; fill-rule:evenodd; clip-rule:evenodd" xmlns:xlink="http://www.w3.org/1999/xlink">
<g><path style="opacity:1" fill="#357964" d="M -0.5,-0.5 C 37.8333,-0.5 76.1667,-0.5 114.5,-0.5C 100.096,1.23836 85.7623,4.0717 71.5,8C 50.5026,8.49996 29.5026,8.66662 8.5,8.5C 8.66662,29.5026 8.49996,50.5026 8,71.5C 3.90327,85.7312 1.06994,100.065 -0.5,114.5C -0.5,76.1667 -0.5,37.8333 -0.5,-0.5 Z"/></g>
<g><path style="opacity:1" fill="#126e51" d="M 114.5,-0.5 C 206.5,-0.5 298.5,-0.5 390.5,-0.5C 406.667,0.599839 422.667,3.43317 438.5,8C 459.831,8.49996 481.164,8.66663 502.5,8.5C 502.333,29.5026 502.5,50.5026 503,71.5C 507.097,85.7312 509.93,100.065 511.5,114.5C 511.5,206.5 511.5,298.5 511.5,390.5C 510.4,406.667 507.567,422.667 503,438.5C 502.5,459.831 502.333,481.164 502.5,502.5C 481.164,502.333 459.831,502.5 438.5,503C 422.68,507.637 406.68,510.471 390.5,511.5C 298.5,511.5 206.5,511.5 114.5,511.5C 100.065,509.93 85.7312,507.097 71.5,503C 50.5026,502.5 29.5026,502.333 8.5,502.5C 8.66663,481.164 8.49996,459.831 8,438.5C 3.43317,422.667 0.599839,406.667 -0.5,390.5C -0.5,298.5 -0.5,206.5 -0.5,114.5C 1.06994,100.065 3.90327,85.7312 8,71.5C 8.49996,50.5026 8.66662,29.5026 8.5,8.5C 29.5026,8.66662 50.5026,8.49996 71.5,8C 85.7623,4.0717 100.096,1.23836 114.5,-0.5 Z"/></g>
<g><path style="opacity:1" fill="#357964" d="M 390.5,-0.5 C 430.833,-0.5 471.167,-0.5 511.5,-0.5C 511.5,37.8333 511.5,76.1667 511.5,114.5C 509.93,100.065 507.097,85.7312 503,71.5C 502.5,50.5026 502.333,29.5026 502.5,8.5C 481.164,8.66663 459.831,8.49996 438.5,8C 422.667,3.43317 406.667,0.599839 390.5,-0.5 Z"/></g>
<g><path style="opacity:1" fill="#25fcb9" d="M 252.5,70.5 C 280.165,69.235 299.332,81.235 310,106.5C 312.043,113.012 312.876,119.678 312.5,126.5C 305.835,125.5 299.168,124.5 292.5,123.5C 288.973,98.3926 274.64,87.8926 249.5,92C 235.603,97.9734 228.27,108.473 227.5,123.5C 221.022,123.596 214.688,124.596 208.5,126.5C 207.52,101.969 218.187,84.4685 240.5,74C 244.675,73.0089 248.675,71.8422 252.5,70.5 Z"/></g>
<g><path style="opacity:1" fill="#25feba" d="M 240.5,125.5 C 273.818,123.554 306.152,128.22 337.5,139.5C 341.597,185.405 326.93,223.905 293.5,255C 282.997,263.09 271.664,269.924 259.5,275.5C 207.455,250.782 181.122,209.449 180.5,151.5C 180.515,147.252 180.848,143.085 181.5,139C 200.853,132.5 220.52,128 240.5,125.5 Z"/></g>
<g><path style="opacity:1" fill="#1d4b3c" d="M 292.5,162.5 C 295.975,163.802 298.142,166.135 299,169.5C 283.964,186.199 268.631,202.533 253,218.5C 241.212,208.382 229.712,197.882 218.5,187C 220.727,184.065 223.394,182.065 226.5,181C 234.976,189.398 243.642,197.565 252.5,205.5C 266.064,191.366 279.397,177.033 292.5,162.5 Z"/></g>
<g><path style="opacity:1" fill="#fdfefd" d="M 70.5,330.5 C 78.8333,330.5 87.1667,330.5 95.5,330.5C 95.3335,340.172 95.5002,349.839 96,359.5C 101.711,353.883 108.545,352.05 116.5,354C 124.53,355.695 129.697,360.528 132,368.5C 134.386,378.375 133.719,388.042 130,397.5C 121.724,409.072 111.224,411.572 98.5,405C 96.6411,403.442 95.1411,401.609 94,399.5C 93.5026,402.146 93.3359,404.813 93.5,407.5C 85.8333,407.5 78.1667,407.5 70.5,407.5C 70.5,381.833 70.5,356.167 70.5,330.5 Z"/></g>
<g><path style="opacity:1" fill="#fbdd1c" d="M 266.5,334.5 C 275.219,334.203 283.886,334.703 292.5,336C 306.096,340.036 311.262,348.87 308,362.5C 305.249,367.59 301.083,370.757 295.5,372C 307.177,374.515 312.01,381.682 310,393.5C 306.824,401.509 300.99,406.342 292.5,408C 280.137,410.014 267.804,409.847 255.5,407.5C 255.5,401.833 255.5,396.167 255.5,390.5C 263.356,392.754 271.356,393.587 279.5,393C 284.812,390.295 285.812,386.462 282.5,381.5C 281.5,381 280.5,380.5 279.5,380C 274.511,379.501 269.511,379.334 264.5,379.5C 264.5,374.5 264.5,369.5 264.5,364.5C 269.93,364.839 275.264,364.339 280.5,363C 283.57,360.431 284.237,357.264 282.5,353.5C 281.335,352.416 280.002,351.583 278.5,351C 271.281,350.018 264.281,350.851 257.5,353.5C 256.337,348.198 256.171,342.864 257,337.5C 260.313,336.68 263.479,335.68 266.5,334.5 Z"/></g>
<g><path style="opacity:1" fill="#fbdd1c" d="M 346.5,334.5 C 355.923,334.154 365.257,334.82 374.5,336.5C 374.5,341.833 374.5,347.167 374.5,352.5C 366.264,350.653 357.931,350.153 349.5,351C 343.024,353.473 340.358,357.973 341.5,364.5C 354.989,358.661 366.822,360.995 377,371.5C 384.691,391.283 378.191,403.783 357.5,409C 338.01,412.01 324.51,404.51 317,386.5C 312.704,370.528 315.871,356.362 326.5,344C 332.611,339.442 339.278,336.276 346.5,334.5 Z"/></g>
<g><path style="opacity:1" fill="#fdfdfd" d="M 247.5,369.5 C 243.5,369.5 239.5,369.5 235.5,369.5C 235.177,375.69 235.51,381.69 236.5,387.5C 237.159,391.994 239.825,393.661 244.5,392.5C 246.442,397.056 247.108,402.056 246.5,407.5C 236.594,410.65 226.927,410.15 217.5,406C 214.193,403.222 212.026,399.722 211,395.5C 210.5,387.173 210.334,378.84 210.5,370.5C 207.5,370.5 204.5,370.5 201.5,370.5C 201.5,365.167 201.5,359.833 201.5,354.5C 204.5,354.5 207.5,354.5 210.5,354.5C 210.203,350.233 210.536,346.066 211.5,342C 219.22,339.654 226.887,337.154 234.5,334.5C 235.497,341.134 235.83,347.8 235.5,354.5C 239.5,354.5 243.5,354.5 247.5,354.5C 247.5,359.5 247.5,364.5 247.5,369.5 Z"/></g>
<g><path style="opacity:1" fill="#c5c428" d="M 388.5,336.5 C 388.171,350.01 388.504,363.344 389.5,376.5C 389.44,377.043 389.107,377.376 388.5,377.5C 387.174,363.672 387.174,350.006 388.5,336.5 Z"/></g>
<g><path style="opacity:1" fill="#fdde1b" d="M 388.5,336.5 C 404.833,336.5 421.167,336.5 437.5,336.5C 437.5,342.167 437.5,347.833 437.5,353.5C 428.833,353.5 420.167,353.5 411.5,353.5C 410.518,356.962 410.185,360.629 410.5,364.5C 413.167,364.5 415.833,364.5 418.5,364.5C 435.275,366.443 442.442,375.776 440,392.5C 437.833,400 433,404.833 425.5,407C 412.847,410.3 400.18,410.3 387.5,407C 386.194,401.554 386.194,396.054 387.5,390.5C 394.036,392.436 400.703,392.936 407.5,392C 413.872,389.761 415.705,385.594 413,379.5C 411.2,377.683 409.034,376.516 406.5,376C 400.796,375.313 395.13,375.479 389.5,376.5C 388.504,363.344 388.171,350.01 388.5,336.5 Z"/></g>
<g><path style="opacity:1" fill="#fcfdfc" d="M 197.5,386.5 C 185.814,386.168 174.148,386.501 162.5,387.5C 162.624,388.107 162.957,388.44 163.5,388.5C 164.684,391.849 167.017,394.015 170.5,395C 178.676,395.617 186.676,394.783 194.5,392.5C 194.8,397.099 194.467,401.599 193.5,406C 180.866,409.98 168.199,410.314 155.5,407C 143.653,401.831 137.986,392.665 138.5,379.5C 139.353,365.299 146.686,356.465 160.5,353C 186.362,349.366 198.695,360.533 197.5,386.5 Z"/></g>
<g><path style="opacity:1" fill="#87a536" d="M 411.5,353.5 C 411.5,356.833 411.5,360.167 411.5,363.5C 414.059,363.198 416.393,363.532 418.5,364.5C 415.833,364.5 413.167,364.5 410.5,364.5C 410.185,360.629 410.518,356.962 411.5,353.5 Z"/></g>
<g><path style="opacity:1" fill="#197154" d="M 166.5,365.5 C 173.453,365.676 176.453,369.343 175.5,376.5C 171.167,376.5 166.833,376.5 162.5,376.5C 161.887,372.071 163.22,368.405 166.5,365.5 Z"/></g>
<g><path style="opacity:1" fill="#1a7155" d="M 98.5,369.5 C 102.683,368.846 105.516,370.512 107,374.5C 107.826,379.589 107.492,384.589 106,389.5C 100.896,394.077 97.2297,393.077 95,386.5C 93.4867,380.13 94.6534,374.464 98.5,369.5 Z"/></g>
<g><path style="opacity:1" fill="#649f8c" d="M 247.5,369.5 C 244.038,370.482 240.371,370.815 236.5,370.5C 236.5,376.167 236.5,381.833 236.5,387.5C 235.51,381.69 235.177,375.69 235.5,369.5C 239.5,369.5 243.5,369.5 247.5,369.5 Z"/></g>
<g><path style="opacity:1" fill="#1d714f" d="M 345.5,374.5 C 356.669,375.579 359.503,381.246 354,391.5C 347.493,395.258 343.159,393.592 341,386.5C 339.478,381.241 340.978,377.241 345.5,374.5 Z"/></g>
<g><path style="opacity:1" fill="#4e927d" d="M 197.5,386.5 C 186.167,387.167 174.833,387.833 163.5,388.5C 162.957,388.44 162.624,388.107 162.5,387.5C 174.148,386.501 185.814,386.168 197.5,386.5 Z"/></g>
<g><path style="opacity:1" fill="#a8cabf" d="M 244.5,392.5 C 245.209,391.596 246.209,391.263 247.5,391.5C 247.821,397.026 247.488,402.36 246.5,407.5C 247.108,402.056 246.442,397.056 244.5,392.5 Z"/></g>
<g><path style="opacity:1" fill="#357964" d="M -0.5,390.5 C 0.599839,406.667 3.43317,422.667 8,438.5C 8.49996,459.831 8.66663,481.164 8.5,502.5C 29.5026,502.333 50.5026,502.5 71.5,503C 85.7312,507.097 100.065,509.93 114.5,511.5C 76.1667,511.5 37.8333,511.5 -0.5,511.5C -0.5,471.167 -0.5,430.833 -0.5,390.5 Z"/></g>
<g><path style="opacity:1" fill="#357964" d="M 511.5,390.5 C 511.5,430.833 511.5,471.167 511.5,511.5C 471.167,511.5 430.833,511.5 390.5,511.5C 406.68,510.471 422.68,507.637 438.5,503C 459.831,502.5 481.164,502.333 502.5,502.5C 502.333,481.164 502.5,459.831 503,438.5C 507.567,422.667 510.4,406.667 511.5,390.5 Z"/></g>
</svg>
