<?xml version="1.0" encoding="UTF-8"?>
<!DOCTYPE svg PUBLIC "-//W3C//DTD SVG 1.1//EN" "http://www.w3.org/Graphics/SVG/1.1/DTD/svg11.dtd">
<svg xmlns="http://www.w3.org/2000/svg" version="1.1" width="1200px" height="800px" style="shape-rendering:geometricPrecision; text-rendering:geometricPrecision; image-rendering:optimizeQuality; fill-rule:evenodd; clip-rule:evenodd" xmlns:xlink="http://www.w3.org/1999/xlink">
<g><path style="opacity:1" fill="#000000" d="M -0.5,-0.5 C 399.5,-0.5 799.5,-0.5 1199.5,-0.5C 1199.5,266.167 1199.5,532.833 1199.5,799.5C 799.5,799.5 399.5,799.5 -0.5,799.5C -0.5,532.833 -0.5,266.167 -0.5,-0.5 Z"/></g>
<g><path style="opacity:1" fill="#5a5140" d="M 537.5,190.5 C 517.167,190.5 496.833,190.5 476.5,190.5C 476.5,191.833 476.5,193.167 476.5,194.5C 475.549,193.081 475.216,191.415 475.5,189.5C 496.34,189.169 517.007,189.503 537.5,190.5 Z"/></g>
<g><path style="opacity:1" fill="#635743" d="M 569.5,190.5 C 564.5,190.5 559.5,190.5 554.5,190.5C 553.5,190.5 552.5,190.5 551.5,190.5C 551.5,191.5 551.5,192.5 551.5,193.5C 548.468,190.775 549.135,189.275 553.5,189C 558.167,188.333 562.833,188.333 567.5,189C 568.416,189.278 569.082,189.778 569.5,190.5 Z"/></g>
<g><path style="opacity:1" fill="#4f4535" d="M 733.5,447.5 C 733.833,361.665 733.499,275.998 732.5,190.5C 690.33,190.168 648.33,190.501 606.5,191.5C 605.957,191.44 605.624,191.107 605.5,190.5C 648.495,189.5 691.495,189.167 734.5,189.5C 734.833,275.668 734.499,361.668 733.5,447.5 Z"/></g>
<g><path style="opacity:1" fill="#9a8d71" d="M 537.5,190.5 C 538.167,190.5 538.5,190.833 538.5,191.5C 518.167,191.5 497.833,191.5 477.5,191.5C 477.5,192.5 477.5,193.5 477.5,194.5C 479.099,194.232 480.432,194.566 481.5,195.5C 479.585,195.784 477.919,195.451 476.5,194.5C 476.5,193.167 476.5,191.833 476.5,190.5C 496.833,190.5 517.167,190.5 537.5,190.5 Z"/></g>
<g><path style="opacity:1" fill="#9f9073" d="M 732.5,190.5 C 732.5,190.833 732.5,191.167 732.5,191.5C 731.833,191.5 731.167,191.5 730.5,191.5C 692.165,191.333 653.832,191.5 615.5,192C 614.572,192.388 613.905,193.055 613.5,194C 617.404,195.961 619.737,199.128 620.5,203.5C 615.514,199.845 610.847,195.845 606.5,191.5C 648.33,190.501 690.33,190.168 732.5,190.5 Z"/></g>
<g><path style="opacity:1" fill="#bea771" d="M 533.5,230.5 C 527.828,230.76 522.161,231.093 516.5,231.5C 516.826,227.116 516.492,222.783 515.5,218.5C 514.378,217.37 513.044,216.703 511.5,216.5C 510.559,214.228 509.226,212.228 507.5,210.5C 506.908,207.873 506.575,205.206 506.5,202.5C 505.5,202.5 504.5,202.5 503.5,202.5C 503.649,201.448 503.483,200.448 503,199.5C 500.457,198.793 498.291,197.46 496.5,195.5C 496.709,194.914 497.043,194.414 497.5,194C 511.048,193.283 524.214,192.783 537,192.5C 538.703,194.347 538.536,196.181 536.5,198C 537.563,199.188 538.897,199.688 540.5,199.5C 541.509,202.541 542.176,205.708 542.5,209C 541.178,215.753 540.178,222.587 539.5,229.5C 537.265,229.205 535.265,229.539 533.5,230.5 Z"/></g>
<g><path style="opacity:1" fill="#bea772" d="M 730.5,191.5 C 730.833,192.167 731.167,192.833 731.5,193.5C 730.167,193.5 728.833,193.5 727.5,193.5C 727.52,277.908 727.52,362.242 727.5,446.5C 688.161,446.833 648.828,446.5 609.5,445.5C 610.193,444.482 610.859,443.482 611.5,442.5C 612.5,440.833 613.833,439.5 615.5,438.5C 619.438,435.902 623.105,432.902 626.5,429.5C 626.092,432.198 624.926,434.531 623,436.5C 621.853,435.542 620.853,435.875 620,437.5C 618.887,438.76 618.72,439.927 619.5,441C 618.095,442.269 616.429,442.769 614.5,442.5C 614.5,443.5 614.5,444.5 614.5,445.5C 651.156,444.726 687.822,444.226 724.5,444C 696.167,443.667 667.833,443.333 639.5,443C 636.899,442.08 634.232,441.413 631.5,441C 632.766,440.691 633.933,440.191 635,439.5C 635.822,436.883 636.322,434.216 636.5,431.5C 637.5,431.5 638.5,431.5 639.5,431.5C 639.5,433.167 639.5,434.833 639.5,436.5C 666.182,436.241 692.848,436.574 719.5,437.5C 719.338,435.473 719.505,433.473 720,431.5C 720.236,433.764 720.736,435.931 721.5,438C 721.167,438.333 720.833,438.667 720.5,439C 721.448,439.483 722.448,439.649 723.5,439.5C 723.473,359.351 723.473,279.351 723.5,199.5C 722.5,199.5 721.5,199.5 720.5,199.5C 720.26,202.579 720.593,205.579 721.5,208.5C 720.67,280.126 720.17,351.793 720,423.5C 719.5,352.834 719.333,282.167 719.5,211.5C 715.774,211.823 712.107,211.489 708.5,210.5C 708.167,209.833 707.833,209.167 707.5,208.5C 709.396,207.534 711.396,207.201 713.5,207.5C 713.719,206.325 713.386,205.325 712.5,204.5C 711.051,205.617 709.384,206.284 707.5,206.5C 704.833,205.833 702.167,205.167 699.5,204.5C 695.558,205.493 691.558,206.16 687.5,206.5C 678.259,204.523 668.926,203.19 659.5,202.5C 655.5,202.667 651.5,202.833 647.5,203C 646.034,203.635 644.7,204.469 643.5,205.5C 640.065,203.163 638.732,199.83 639.5,195.5C 667.835,195.667 696.169,195.5 724.5,195C 723.128,194.598 721.795,194.098 720.5,193.5C 692.744,193.511 664.744,193.678 636.5,194C 635.5,194.333 634.5,194.667 633.5,195C 634.672,195.419 635.672,196.085 636.5,197C 633.5,197.333 630.5,197.667 627.5,198C 626.692,198.308 626.025,198.808 625.5,199.5C 627.393,201.952 628.726,204.619 629.5,207.5C 627.098,205.128 624.098,203.795 620.5,203.5C 619.737,199.128 617.404,195.961 613.5,194C 613.905,193.055 614.572,192.388 615.5,192C 653.832,191.5 692.165,191.333 730.5,191.5 Z"/></g>
<g><path style="opacity:1" fill="#bda86d" d="M 731.5,193.5 C 731.5,277.833 731.5,362.167 731.5,446.5C 730.167,446.5 728.833,446.5 727.5,446.5C 727.52,362.242 727.52,277.908 727.5,193.5C 728.833,193.5 730.167,193.5 731.5,193.5 Z"/></g>
<g><path style="opacity:1" fill="#b09e73" d="M 538.5,191.5 C 545.926,201.745 547.592,213.078 543.5,225.5C 541.858,230.028 538.525,231.694 533.5,230.5C 535.265,229.539 537.265,229.205 539.5,229.5C 540.178,222.587 541.178,215.753 542.5,209C 542.176,205.708 541.509,202.541 540.5,199.5C 538.897,199.688 537.563,199.188 536.5,198C 538.536,196.181 538.703,194.347 537,192.5C 524.214,192.783 511.048,193.283 497.5,194C 497.043,194.414 496.709,194.914 496.5,195.5C 498.291,197.46 500.457,198.793 503,199.5C 503.483,200.448 503.649,201.448 503.5,202.5C 504.5,202.5 505.5,202.5 506.5,202.5C 506.575,205.206 506.908,207.873 507.5,210.5C 505.037,208.539 502.703,206.372 500.5,204C 497.671,202.644 495.004,201.144 492.5,199.5C 489.808,196.819 486.475,195.486 482.5,195.5C 482.167,195.5 481.833,195.5 481.5,195.5C 480.432,194.566 479.099,194.232 477.5,194.5C 477.5,193.5 477.5,192.5 477.5,191.5C 497.833,191.5 518.167,191.5 538.5,191.5 Z"/></g>
<g><path style="opacity:1" fill="#6d664b" d="M 482.5,195.5 C 486.475,195.486 489.808,196.819 492.5,199.5C 488.873,198.679 485.54,197.346 482.5,195.5 Z"/></g>
<g><path style="opacity:1" fill="#baa673" d="M 554.5,190.5 C 559.5,190.5 564.5,190.5 569.5,190.5C 574.465,192.264 579.132,194.764 583.5,198C 584.71,199.039 585.71,200.206 586.5,201.5C 586.577,202.75 587.244,203.583 588.5,204C 583.899,204.149 579.566,204.982 575.5,206.5C 569.653,208.178 564.32,210.845 559.5,214.5C 558.5,214.5 557.5,214.5 556.5,214.5C 557.218,207.162 556.218,200.162 553.5,193.5C 553.685,192.416 554.018,191.416 554.5,190.5 Z"/></g>
<g><path style="opacity:1" fill="#baa67a" d="M 730.5,191.5 C 731.167,191.5 731.833,191.5 732.5,191.5C 732.833,276.668 732.499,361.668 731.5,446.5C 731.5,362.167 731.5,277.833 731.5,193.5C 731.167,192.833 730.833,192.167 730.5,191.5 Z"/></g>
<g><path style="opacity:1" fill="#958664" d="M 554.5,190.5 C 554.018,191.416 553.685,192.416 553.5,193.5C 556.218,200.162 557.218,207.162 556.5,214.5C 557.5,214.5 558.5,214.5 559.5,214.5C 558.432,215.434 557.099,215.768 555.5,215.5C 555.666,211.486 555.499,207.486 555,203.5C 554.76,201.148 553.927,199.148 552.5,197.5C 552.768,195.901 552.434,194.568 551.5,193.5C 551.5,192.5 551.5,191.5 551.5,190.5C 552.5,190.5 553.5,190.5 554.5,190.5 Z"/></g>
<g><path style="opacity:1" fill="#bda76e" d="M 626.5,429.5 C 627.6,428.395 628.267,427.062 628.5,425.5C 630.142,423.919 632.142,423.253 634.5,423.5C 638.343,417.971 641.343,411.971 643.5,405.5C 644.833,405.5 646.167,405.5 647.5,405.5C 649.5,400.833 651.5,396.167 653.5,391.5C 654.5,391.5 655.5,391.5 656.5,391.5C 657.244,387.881 657.577,384.215 657.5,380.5C 657.402,378.447 658.069,376.78 659.5,375.5C 660.794,374.71 661.961,373.71 663,372.5C 663.483,373.448 663.649,374.448 663.5,375.5C 665.167,375.5 666.833,375.5 668.5,375.5C 668.5,378.167 668.5,380.833 668.5,383.5C 670.5,383.5 672.5,383.5 674.5,383.5C 673.937,380.626 672.937,377.96 671.5,375.5C 672.552,375.649 673.552,375.483 674.5,375C 672.824,373.823 671.491,372.323 670.5,370.5C 669.914,370.709 669.414,371.043 669,371.5C 668.748,369.069 669.248,366.735 670.5,364.5C 668.435,363.037 667.435,361.037 667.5,358.5C 669.425,353.371 669.758,348.204 668.5,343C 669.99,342.255 670.99,341.088 671.5,339.5C 672.134,334.99 672.801,330.49 673.5,326C 672.322,318.29 672.322,310.623 673.5,303C 671.962,301.068 670.795,298.901 670,296.5C 669.758,292.57 668.925,288.903 667.5,285.5C 667.248,279.575 666.081,273.908 664,268.5C 663.667,268.833 663.333,269.167 663,269.5C 662.663,266.139 662.163,262.806 661.5,259.5C 659.08,257.09 657.913,254.09 658,250.5C 657.424,247.876 656.09,247.209 654,248.5C 652.056,244.065 650.723,239.398 650,234.5C 648.415,233.624 647.415,232.291 647,230.5C 646.667,231.167 646.333,231.833 646,232.5C 644.63,228.755 642.963,225.088 641,221.5C 639.829,220.107 638.329,219.273 636.5,219C 635.063,216.275 633.063,214.108 630.5,212.5C 629.378,210.956 629.711,209.623 631.5,208.5C 631.043,207.702 630.376,207.369 629.5,207.5C 628.726,204.619 627.393,201.952 625.5,199.5C 626.025,198.808 626.692,198.308 627.5,198C 630.5,197.667 633.5,197.333 636.5,197C 635.672,196.085 634.672,195.419 633.5,195C 634.5,194.667 635.5,194.333 636.5,194C 664.744,193.678 692.744,193.511 720.5,193.5C 721.795,194.098 723.128,194.598 724.5,195C 696.169,195.5 667.835,195.667 639.5,195.5C 638.732,199.83 640.065,203.163 643.5,205.5C 644.7,204.469 646.034,203.635 647.5,203C 651.5,202.833 655.5,202.667 659.5,202.5C 668.926,203.19 678.259,204.523 687.5,206.5C 691.558,206.16 695.558,205.493 699.5,204.5C 702.167,205.167 704.833,205.833 707.5,206.5C 709.384,206.284 711.051,205.617 712.5,204.5C 713.386,205.325 713.719,206.325 713.5,207.5C 711.396,207.201 709.396,207.534 707.5,208.5C 707.833,209.167 708.167,209.833 708.5,210.5C 712.107,211.489 715.774,211.823 719.5,211.5C 719.333,282.167 719.5,352.834 720,423.5C 720.17,351.793 720.67,280.126 721.5,208.5C 720.593,205.579 720.26,202.579 720.5,199.5C 721.5,199.5 722.5,199.5 723.5,199.5C 723.473,279.351 723.473,359.351 723.5,439.5C 722.448,439.649 721.448,439.483 720.5,439C 720.833,438.667 721.167,438.333 721.5,438C 720.736,435.931 720.236,433.764 720,431.5C 719.505,433.473 719.338,435.473 719.5,437.5C 692.848,436.574 666.182,436.241 639.5,436.5C 639.5,434.833 639.5,433.167 639.5,431.5C 638.5,431.5 637.5,431.5 636.5,431.5C 636.322,434.216 635.822,436.883 635,439.5C 633.933,440.191 632.766,440.691 631.5,441C 634.232,441.413 636.899,442.08 639.5,443C 667.833,443.333 696.167,443.667 724.5,444C 687.822,444.226 651.156,444.726 614.5,445.5C 614.5,444.5 614.5,443.5 614.5,442.5C 616.429,442.769 618.095,442.269 619.5,441C 618.72,439.927 618.887,438.76 620,437.5C 620.853,435.875 621.853,435.542 623,436.5C 624.926,434.531 626.092,432.198 626.5,429.5 Z"/></g>
<g><path style="opacity:1" fill="#a4946f" d="M 481.5,202.5 C 486.809,204.489 491.476,207.489 495.5,211.5C 492.421,209.98 489.088,209.147 485.5,209C 484.096,207.663 482.596,206.497 481,205.5C 480.228,205.645 479.561,205.978 479,206.5C 478.837,208.387 479.671,209.887 481.5,211C 480.333,211.5 479.5,212.333 479,213.5C 478.667,212.167 478.333,210.833 478,209.5C 477.5,219.494 477.334,229.494 477.5,239.5C 476.505,227.011 476.171,214.344 476.5,201.5C 478.216,201.629 479.883,201.962 481.5,202.5 Z"/></g>
<g><path style="opacity:1" fill="#877d68" d="M 586.5,201.5 C 588.517,202.529 590.517,203.529 592.5,204.5C 587.265,206.45 581.598,207.117 575.5,206.5C 579.566,204.982 583.899,204.149 588.5,204C 587.244,203.583 586.577,202.75 586.5,201.5 Z"/></g>
<g><path style="opacity:1" fill="#322a1d" d="M 481.5,202.5 C 479.883,201.962 478.216,201.629 476.5,201.5C 476.171,214.344 476.505,227.011 477.5,239.5C 477.842,240.338 478.508,240.672 479.5,240.5C 479.5,240.833 479.5,241.167 479.5,241.5C 478.178,241.67 477.011,241.337 476,240.5C 475.5,227.171 475.333,213.837 475.5,200.5C 478.01,200.054 480.01,200.72 481.5,202.5 Z"/></g>
<g><path style="opacity:1" fill="#0f0b07" d="M 552.5,197.5 C 553.927,199.148 554.76,201.148 555,203.5C 555.499,207.486 555.666,211.486 555.5,215.5C 557.099,215.768 558.432,215.434 559.5,214.5C 564.32,210.845 569.653,208.178 575.5,206.5C 581.598,207.117 587.265,206.45 592.5,204.5C 594.124,204.64 595.29,203.973 596,202.5C 597.148,206.547 595.648,208.547 591.5,208.5C 591.281,209.675 591.614,210.675 592.5,211.5C 596.061,212.761 599.728,213.594 603.5,214C 600.937,214.763 600.937,215.263 603.5,215.5C 604.554,215.32 605.554,214.987 606.5,214.5C 607.696,214.846 607.696,215.346 606.5,216C 607.833,216.667 609.167,217.333 610.5,218C 610.167,218.333 609.833,218.667 609.5,219C 611.808,220.867 614.475,221.867 617.5,222C 618.651,224.464 619.651,226.964 620.5,229.5C 616.223,225.688 611.557,222.355 606.5,219.5C 603.947,217.416 600.947,216.083 597.5,215.5C 595.435,215.483 593.435,215.15 591.5,214.5C 587.354,213.353 583.02,213.186 578.5,214C 576.148,214.24 574.148,215.073 572.5,216.5C 568.195,216.982 564.861,218.982 562.5,222.5C 559.569,224.091 556.902,226.091 554.5,228.5C 553.965,225.762 554.965,223.928 557.5,223C 556.289,221.887 556.289,220.72 557.5,219.5C 555.149,218.988 553.149,217.988 551.5,216.5C 552.593,212.892 552.76,209.225 552,205.5C 551.195,207.901 550.362,207.734 549.5,205C 550.642,202.55 551.642,200.05 552.5,197.5 Z"/></g>
<g><path style="opacity:1" fill="#5c543c" d="M 591.5,214.5 C 585.044,214.232 578.711,214.899 572.5,216.5C 574.148,215.073 576.148,214.24 578.5,214C 583.02,213.186 587.354,213.353 591.5,214.5 Z"/></g>
<g><path style="opacity:1" fill="#5f563f" d="M 597.5,215.5 C 600.947,216.083 603.947,217.416 606.5,219.5C 602.979,218.901 599.979,217.568 597.5,215.5 Z"/></g>
<g><path style="opacity:1" fill="#9d8f6c" d="M 511.5,216.5 C 513.044,216.703 514.378,217.37 515.5,218.5C 516.492,222.783 516.826,227.116 516.5,231.5C 522.161,231.093 527.828,230.76 533.5,230.5C 533.5,230.833 533.5,231.167 533.5,231.5C 530.455,231.508 527.455,231.841 524.5,232.5C 521.167,232.5 517.833,232.5 514.5,232.5C 514.802,229.941 514.468,227.607 513.5,225.5C 513.3,222.37 512.634,219.37 511.5,216.5 Z"/></g>
<g><path style="opacity:1" fill="#bda870" d="M 495.5,211.5 C 500.061,218.103 501.561,225.437 500,233.5C 494.892,240.657 488.059,242.991 479.5,240.5C 478.508,240.672 477.842,240.338 477.5,239.5C 477.334,229.494 477.5,219.494 478,209.5C 478.333,210.833 478.667,212.167 479,213.5C 479.5,212.333 480.333,211.5 481.5,211C 479.671,209.887 478.837,208.387 479,206.5C 479.561,205.978 480.228,205.645 481,205.5C 482.596,206.497 484.096,207.663 485.5,209C 489.088,209.147 492.421,209.98 495.5,211.5 Z"/></g>
<g><path style="opacity:1" fill="#bea86f" d="M 639.5,255.5 C 639.755,257.967 640.755,259.967 642.5,261.5C 642.002,264.681 642.835,267.347 645,269.5C 646.656,275.669 648.489,281.669 650.5,287.5C 650.505,291.534 650.838,295.534 651.5,299.5C 651.667,312.837 651.5,326.171 651,339.5C 650,340.5 649,341.5 648,342.5C 648.165,353.339 646.165,363.673 642,373.5C 641.25,374.126 640.416,374.626 639.5,375C 640.013,377.718 640.013,380.551 639.5,383.5C 638.974,385.23 637.974,386.564 636.5,387.5C 634.879,387.213 633.879,386.213 633.5,384.5C 635.987,377.267 636.821,369.934 636,362.5C 638.91,358.395 639.076,354.229 636.5,350C 637.672,341.963 637.672,334.13 636.5,326.5C 635.066,325.77 633.9,324.77 633,323.5C 632.791,321.311 633.125,319.311 634,317.5C 632.491,315.081 630.325,314.081 627.5,314.5C 626.589,311.039 626.256,307.706 626.5,304.5C 627.736,303.643 629.069,302.977 630.5,302.5C 631.141,300.704 632.141,299.204 633.5,298C 631.112,297.697 628.945,296.863 627,295.5C 625.383,296.536 625.216,297.703 626.5,299C 624.597,302.014 622.263,302.68 619.5,301C 618.859,296.548 618.192,292.048 617.5,287.5C 615.894,285.488 614.727,283.155 614,280.5C 611.973,280.014 609.807,280.014 607.5,280.5C 606.417,278.29 606.417,276.123 607.5,274C 607.327,271.979 606.66,270.146 605.5,268.5C 602.5,267.833 599.5,267.167 596.5,266.5C 595.914,266.709 595.414,267.043 595,267.5C 593.956,265.285 593.29,262.952 593,260.5C 592.333,259.833 591.667,259.167 591,258.5C 587.606,259.456 584.106,259.789 580.5,259.5C 580.81,256.287 580.477,253.287 579.5,250.5C 579.291,249.078 578.791,247.745 578,246.5C 574.365,241.88 570.532,237.547 566.5,233.5C 565.833,234.167 565.167,234.833 564.5,235.5C 562.745,233.023 561.912,230.356 562,227.5C 563.399,226.773 564.899,226.273 566.5,226C 569.241,223.299 572.074,220.799 575,218.5C 581.41,218.683 587.91,218.849 594.5,219C 597.482,220.713 600.482,221.38 603.5,221C 606.924,224.264 610.924,226.431 615.5,227.5C 617.016,229.391 618.35,231.391 619.5,233.5C 625.545,235.212 628.545,239.212 628.5,245.5C 632.199,248.849 635.866,252.182 639.5,255.5 Z"/></g>
<g><path style="opacity:1" fill="#796e4f" d="M 572.5,216.5 C 569.758,219.421 566.425,221.421 562.5,222.5C 564.861,218.982 568.195,216.982 572.5,216.5 Z"/></g>
<g><path style="opacity:1" fill="#71684a" d="M 562.5,222.5 C 559.856,225.48 557.189,228.48 554.5,231.5C 557.122,232.459 559.122,234.125 560.5,236.5C 558.372,235.043 556.038,234.043 553.5,233.5C 553.366,231.708 553.699,230.042 554.5,228.5C 556.902,226.091 559.569,224.091 562.5,222.5 Z"/></g>
<g><path style="opacity:1" fill="#423727" d="M 543.5,225.5 C 543.643,227.262 543.309,228.929 542.5,230.5C 539.572,231.484 536.572,231.817 533.5,231.5C 533.5,231.167 533.5,230.833 533.5,230.5C 538.525,231.694 541.858,230.028 543.5,225.5 Z"/></g>
<g><path style="opacity:1" fill="#b1a073" d="M 591.5,214.5 C 593.435,215.15 595.435,215.483 597.5,215.5C 599.979,217.568 602.979,218.901 606.5,219.5C 611.557,222.355 616.223,225.688 620.5,229.5C 628.798,236.777 635.132,245.444 639.5,255.5C 635.866,252.182 632.199,248.849 628.5,245.5C 628.545,239.212 625.545,235.212 619.5,233.5C 618.35,231.391 617.016,229.391 615.5,227.5C 610.924,226.431 606.924,224.264 603.5,221C 600.482,221.38 597.482,220.713 594.5,219C 587.91,218.849 581.41,218.683 575,218.5C 572.074,220.799 569.241,223.299 566.5,226C 564.899,226.273 563.399,226.773 562,227.5C 561.912,230.356 562.745,233.023 564.5,235.5C 565.167,234.833 565.833,234.167 566.5,233.5C 570.532,237.547 574.365,241.88 578,246.5C 578.791,247.745 579.291,249.078 579.5,250.5C 572.98,246.075 566.647,241.408 560.5,236.5C 559.122,234.125 557.122,232.459 554.5,231.5C 557.189,228.48 559.856,225.48 562.5,222.5C 566.425,221.421 569.758,219.421 572.5,216.5C 578.711,214.899 585.044,214.232 591.5,214.5 Z"/></g>
<g><path style="opacity:1" fill="#443b29" d="M 513.5,225.5 C 514.468,227.607 514.802,229.941 514.5,232.5C 517.833,232.5 521.167,232.5 524.5,232.5C 521.038,233.482 517.371,233.815 513.5,233.5C 513.5,230.833 513.5,228.167 513.5,225.5 Z"/></g>
<g><path style="opacity:1" fill="#a19274" d="M 495.5,211.5 C 503.441,217.775 505.607,225.775 502,235.5C 495.904,242.386 488.404,244.386 479.5,241.5C 479.5,241.167 479.5,240.833 479.5,240.5C 488.059,242.991 494.892,240.657 500,233.5C 501.561,225.437 500.061,218.103 495.5,211.5 Z"/></g>
<g><path style="opacity:1" fill="#ad9d74" d="M 620.5,203.5 C 624.098,203.795 627.098,205.128 629.5,207.5C 630.376,207.369 631.043,207.702 631.5,208.5C 629.711,209.623 629.378,210.956 630.5,212.5C 633.063,214.108 635.063,216.275 636.5,219C 638.329,219.273 639.829,220.107 641,221.5C 642.963,225.088 644.63,228.755 646,232.5C 646.333,231.833 646.667,231.167 647,230.5C 647.415,232.291 648.415,233.624 650,234.5C 650.723,239.398 652.056,244.065 654,248.5C 656.09,247.209 657.424,247.876 658,250.5C 657.913,254.09 659.08,257.09 661.5,259.5C 662.163,262.806 662.663,266.139 663,269.5C 663.333,269.167 663.667,268.833 664,268.5C 666.081,273.908 667.248,279.575 667.5,285.5C 669.583,301.28 669.916,316.946 668.5,332.5C 668.5,331.5 668.5,330.5 668.5,329.5C 668.826,321.316 668.492,313.316 667.5,305.5C 667.813,301.958 667.479,298.625 666.5,295.5C 666.012,286.71 664.012,278.376 660.5,270.5C 660.59,267.848 659.924,265.515 658.5,263.5C 658.693,260.189 657.693,257.522 655.5,255.5C 655.539,252.911 654.539,250.911 652.5,249.5C 644.616,232.274 633.95,216.941 620.5,203.5 Z"/></g>
<g><path style="opacity:1" fill="#5c5335" d="M 652.5,249.5 C 654.539,250.911 655.539,252.911 655.5,255.5C 653.992,253.819 652.992,251.819 652.5,249.5 Z"/></g>
<g><path style="opacity:1" fill="#979171" d="M 575.5,257.5 C 574.791,258.404 573.791,258.737 572.5,258.5C 567.757,257.347 565.09,254.347 564.5,249.5C 569.749,250.022 573.415,252.689 575.5,257.5 Z"/></g>
<g><path style="opacity:1" fill="#4f4838" d="M 575.5,257.5 C 576.391,258.11 577.391,258.443 578.5,258.5C 579.448,259.978 580.781,260.978 582.5,261.5C 578.742,261.605 575.408,260.605 572.5,258.5C 573.791,258.737 574.791,258.404 575.5,257.5 Z"/></g>
<g><path style="opacity:1" fill="#242118" d="M 525.5,265.5 C 520.564,263.006 515.564,263.006 510.5,265.5C 511.058,264.21 512.058,263.377 513.5,263C 516.167,262.667 518.833,262.333 521.5,262C 519.5,261.667 517.5,261.333 515.5,261C 518.964,260.183 522.298,260.517 525.5,262C 524.833,262.333 524.167,262.667 523.5,263C 524.756,263.417 525.423,264.25 525.5,265.5 Z"/></g>
<g><path style="opacity:1" fill="#716649" d="M 639.5,255.5 C 641.245,257.033 642.245,259.033 642.5,261.5C 640.755,259.967 639.755,257.967 639.5,255.5 Z"/></g>
<g><path style="opacity:1" fill="#71674d" d="M 655.5,255.5 C 657.693,257.522 658.693,260.189 658.5,263.5C 657.129,261.064 656.129,258.397 655.5,255.5 Z"/></g>
<g><path style="opacity:1" fill="#7e7154" d="M 589.5,263.5 C 591.512,264.341 592.845,265.841 593.5,268C 595.5,268.333 597.5,268.667 599.5,269C 600.756,269.417 601.423,270.25 601.5,271.5C 595.206,271.971 591.206,269.304 589.5,263.5 Z"/></g>
<g><path style="opacity:1" fill="#b4a372" d="M 525.5,265.5 C 527.434,267.297 529.767,268.297 532.5,268.5C 533.141,269.482 533.807,270.482 534.5,271.5C 533.398,272.176 532.398,272.842 531.5,273.5C 527.236,273.344 523.236,274.011 519.5,275.5C 515.981,275.259 513.315,276.593 511.5,279.5C 510.508,279.328 509.842,279.662 509.5,280.5C 506.918,280.975 504.918,280.308 503.5,278.5C 503.5,277.167 504.167,276.5 505.5,276.5C 506.404,275.791 506.737,274.791 506.5,273.5C 504.801,273.66 503.134,273.494 501.5,273C 502.381,272.292 503.047,271.458 503.5,270.5C 504.992,267.677 507.326,266.01 510.5,265.5C 515.564,263.006 520.564,263.006 525.5,265.5 Z"/></g>
<g><path style="opacity:1" fill="#8e8161" d="M 642.5,261.5 C 647.621,269.291 650.287,277.958 650.5,287.5C 648.489,281.669 646.656,275.669 645,269.5C 642.835,267.347 642.002,264.681 642.5,261.5 Z"/></g>
<g><path style="opacity:1" fill="#7a7462" d="M 532.5,268.5 C 535.04,268.967 537.373,269.967 539.5,271.5C 542.806,272.163 546.139,272.663 549.5,273C 551.863,273.589 552.863,275.089 552.5,277.5C 545.9,274.565 538.9,273.231 531.5,273.5C 532.398,272.842 533.398,272.176 534.5,271.5C 533.807,270.482 533.141,269.482 532.5,268.5 Z"/></g>
<g><path style="opacity:1" fill="#7d7360" d="M 503.5,270.5 C 503.047,271.458 502.381,272.292 501.5,273C 503.134,273.494 504.801,273.66 506.5,273.5C 506.737,274.791 506.404,275.791 505.5,276.5C 502.34,273.67 499.674,274.337 497.5,278.5C 499.516,279.694 501.516,279.694 503.5,278.5C 504.918,280.308 506.918,280.975 509.5,280.5C 506.854,281.164 504.021,281.498 501,281.5C 496.867,281.714 493.034,281.048 489.5,279.5C 490.448,278.022 491.781,277.022 493.5,276.5C 496.709,274.316 500.042,272.316 503.5,270.5 Z"/></g>
<g><path style="opacity:1" fill="#221913" d="M 505.5,276.5 C 504.167,276.5 503.5,277.167 503.5,278.5C 501.516,279.694 499.516,279.694 497.5,278.5C 499.674,274.337 502.34,273.67 505.5,276.5 Z"/></g>
<g><path style="opacity:1" fill="#49452f" d="M 519.5,275.5 C 516.965,277.017 514.298,278.35 511.5,279.5C 513.315,276.593 515.981,275.259 519.5,275.5 Z"/></g>
<g><path style="opacity:1" fill="#44433a" d="M 493.5,276.5 C 491.781,277.022 490.448,278.022 489.5,279.5C 487.952,279.179 487.285,278.179 487.5,276.5C 489.5,276.5 491.5,276.5 493.5,276.5 Z"/></g>
<g><path style="opacity:1" fill="#373122" d="M 660.5,270.5 C 664.012,278.376 666.012,286.71 666.5,295.5C 664.585,290.086 663.085,284.42 662,278.5C 661.346,279.696 660.846,279.696 660.5,278.5C 661.213,275.904 661.213,273.237 660.5,270.5 Z"/></g>
<g><path style="opacity:1" fill="#676150" d="M 595.5,282.5 C 589.923,282.856 584.59,283.856 579.5,285.5C 577.284,285.725 575.617,284.892 574.5,283C 581.492,282.5 588.492,282.334 595.5,282.5 Z"/></g>
<g><path style="opacity:1" fill="#aa9874" d="M 601.5,271.5 C 602.15,271.804 602.817,272.137 603.5,272.5C 604.043,275.745 605.043,278.745 606.5,281.5C 604.957,286.204 602.123,289.871 598,292.5C 596.167,292.481 594.667,291.815 593.5,290.5C 588.795,288.758 584.128,287.091 579.5,285.5C 584.59,283.856 589.923,282.856 595.5,282.5C 602.935,281.459 604.935,277.793 601.5,271.5 Z"/></g>
<g><path style="opacity:1" fill="#75674d" d="M 612.5,284.5 C 613.966,285.347 614.8,286.68 615,288.5C 615.498,291.817 615.665,295.15 615.5,298.5C 614.883,298.389 614.383,298.056 614,297.5C 613.631,293.137 613.131,288.804 612.5,284.5 Z"/></g>
<g><path style="opacity:1" fill="#b7a375" d="M 579.5,250.5 C 580.477,253.287 580.81,256.287 580.5,259.5C 584.106,259.789 587.606,259.456 591,258.5C 591.667,259.167 592.333,259.833 593,260.5C 593.29,262.952 593.956,265.285 595,267.5C 595.414,267.043 595.914,266.709 596.5,266.5C 599.5,267.167 602.5,267.833 605.5,268.5C 606.66,270.146 607.327,271.979 607.5,274C 606.417,276.123 606.417,278.29 607.5,280.5C 609.807,280.014 611.973,280.014 614,280.5C 614.727,283.155 615.894,285.488 617.5,287.5C 618.192,292.048 618.859,296.548 619.5,301C 622.263,302.68 624.597,302.014 626.5,299C 625.216,297.703 625.383,296.536 627,295.5C 628.945,296.863 631.112,297.697 633.5,298C 632.141,299.204 631.141,300.704 630.5,302.5C 629.069,302.977 627.736,303.643 626.5,304.5C 626.256,307.706 626.589,311.039 627.5,314.5C 630.325,314.081 632.491,315.081 634,317.5C 633.125,319.311 632.791,321.311 633,323.5C 633.9,324.77 635.066,325.77 636.5,326.5C 637.672,334.13 637.672,341.963 636.5,350C 639.076,354.229 638.91,358.395 636,362.5C 636.821,369.934 635.987,377.267 633.5,384.5C 633.879,386.213 634.879,387.213 636.5,387.5C 635.758,389.98 634.758,392.313 633.5,394.5C 633.167,394.5 632.833,394.5 632.5,394.5C 631.37,392.685 630.704,390.685 630.5,388.5C 630.5,387.167 630.5,385.833 630.5,384.5C 631.234,383.292 631.567,381.959 631.5,380.5C 632.776,378.438 633.61,376.104 634,373.5C 636.04,360.642 635.874,347.976 633.5,335.5C 632.003,330.179 630.17,324.846 628,319.5C 623.811,312.445 619.644,305.445 615.5,298.5C 615.665,295.15 615.498,291.817 615,288.5C 614.8,286.68 613.966,285.347 612.5,284.5C 610.672,283.206 608.672,282.206 606.5,281.5C 605.043,278.745 604.043,275.745 603.5,272.5C 602.817,272.137 602.15,271.804 601.5,271.5C 601.423,270.25 600.756,269.417 599.5,269C 597.5,268.667 595.5,268.333 593.5,268C 592.845,265.841 591.512,264.341 589.5,263.5C 587.106,262.985 584.772,262.319 582.5,261.5C 580.781,260.978 579.448,259.978 578.5,258.5C 579.473,256.052 579.806,253.385 579.5,250.5 Z"/></g>
<g><path style="opacity:1" fill="#786f53" d="M 495.5,299.5 C 493.883,298.962 492.216,298.629 490.5,298.5C 490.5,306.167 490.5,313.833 490.5,321.5C 489.233,313.362 488.566,305.029 488.5,296.5C 491.461,296.464 493.794,297.464 495.5,299.5 Z"/></g>
<g><path style="opacity:1" fill="#585146" d="M 505.5,301.5 C 513.325,302.811 521.158,302.811 529,301.5C 530.167,301.833 531.333,302.167 532.5,302.5C 530.681,303.32 529.014,304.32 527.5,305.5C 520.306,304.054 512.972,302.721 505.5,301.5 Z"/></g>
<g><path style="opacity:1" fill="#ae9c75" d="M 495.5,299.5 C 498.865,300.04 502.198,300.706 505.5,301.5C 512.972,302.721 520.306,304.054 527.5,305.5C 524.891,306.443 522.891,308.11 521.5,310.5C 519.938,310.733 518.605,311.4 517.5,312.5C 518.449,310.263 519.116,307.929 519.5,305.5C 513.491,305.666 507.491,305.499 501.5,305C 498.321,303.429 494.987,302.262 491.5,301.5C 491.933,312.891 492.933,324.225 494.5,335.5C 493.167,330.833 491.833,326.167 490.5,321.5C 490.5,313.833 490.5,306.167 490.5,298.5C 492.216,298.629 493.883,298.962 495.5,299.5 Z"/></g>
<g><path style="opacity:1" fill="#605641" d="M 650.5,287.5 C 652.068,289.811 652.902,292.478 653,295.5C 653.828,310.672 653.661,325.672 652.5,340.5C 652.829,326.656 652.496,312.99 651.5,299.5C 650.838,295.534 650.505,291.534 650.5,287.5 Z"/></g>
<g><path style="opacity:1" fill="#120d09" d="M 606.5,281.5 C 608.672,282.206 610.672,283.206 612.5,284.5C 613.131,288.804 613.631,293.137 614,297.5C 614.383,298.056 614.883,298.389 615.5,298.5C 619.644,305.445 623.811,312.445 628,319.5C 630.17,324.846 632.003,330.179 633.5,335.5C 633.949,350.57 633.283,365.57 631.5,380.5C 631.567,381.959 631.234,383.292 630.5,384.5C 629.076,386.515 628.41,388.848 628.5,391.5C 627.916,394.003 627.249,396.503 626.5,399C 626.57,399.765 626.903,400.265 627.5,400.5C 627.217,403.315 626.217,403.815 624.5,402C 625.459,399.88 625.626,397.713 625,395.5C 624.8,397.32 623.966,398.653 622.5,399.5C 622.796,397.597 623.463,395.93 624.5,394.5C 626.58,389.145 627.58,383.478 627.5,377.5C 627.5,377.167 627.5,376.833 627.5,376.5C 630.125,364.836 630.125,353.169 627.5,341.5C 626.833,339.5 626.167,337.5 625.5,335.5C 625.59,332.848 624.924,330.515 623.5,328.5C 622.592,325.013 620.926,322.013 618.5,319.5C 616.57,315.9 613.903,312.9 610.5,310.5C 606.608,308.647 602.275,307.647 597.5,307.5C 597.917,306.876 598.584,306.543 599.5,306.5C 604.061,306.782 608.395,307.782 612.5,309.5C 614.306,308.141 615.806,308.475 617,310.5C 618.18,306.194 616.68,303.194 612.5,301.5C 610.97,297.331 610.636,293.164 611.5,289C 609.415,287.959 607.748,286.459 606.5,284.5C 606.868,289.373 604.702,293.04 600,295.5C 598.806,293.475 597.306,293.141 595.5,294.5C 594.5,294 593.5,293.5 592.5,293C 593.252,292.329 593.586,291.496 593.5,290.5C 594.667,291.815 596.167,292.481 598,292.5C 602.123,289.871 604.957,286.204 606.5,281.5 Z"/></g>
<g><path style="opacity:1" fill="#bea771" d="M 517.5,312.5 C 517.5,313.167 517.167,313.5 516.5,313.5C 512.71,312.953 510.71,314.62 510.5,318.5C 508.5,319.167 506.5,319.833 504.5,320.5C 503.726,324.779 503.226,329.113 503,333.5C 501.331,335.169 500.498,337.169 500.5,339.5C 499.167,339.5 497.833,339.5 496.5,339.5C 496.771,337.62 496.104,336.287 494.5,335.5C 492.933,324.225 491.933,312.891 491.5,301.5C 494.987,302.262 498.321,303.429 501.5,305C 507.491,305.499 513.491,305.666 519.5,305.5C 519.116,307.929 518.449,310.263 517.5,312.5 Z"/></g>
<g><path style="opacity:1" fill="#877f65" d="M 597.5,307.5 C 602.275,307.647 606.608,308.647 610.5,310.5C 606.76,310.759 603.094,310.426 599.5,309.5C 598.069,309.977 596.736,310.643 595.5,311.5C 597.969,312.168 600.302,312.835 602.5,313.5C 598.727,313.263 595.06,313.763 591.5,315C 587.049,317.783 582.883,320.95 579,324.5C 578.501,328.486 578.334,332.486 578.5,336.5C 577.833,336.5 577.5,336.167 577.5,335.5C 577.666,331.486 577.499,327.486 577,323.5C 576.329,324.252 575.496,324.586 574.5,324.5C 575.648,322.245 577.314,320.412 579.5,319C 586.073,315.891 592.073,312.058 597.5,307.5 Z"/></g>
<g><path style="opacity:1" fill="#453b27" d="M 521.5,310.5 C 518.833,313.833 515.833,316.833 512.5,319.5C 513.415,317.246 514.748,315.246 516.5,313.5C 517.167,313.5 517.5,313.167 517.5,312.5C 518.605,311.4 519.938,310.733 521.5,310.5 Z"/></g>
<g><path style="opacity:1" fill="#3b2f1e" d="M 602.5,313.5 C 605.167,316.833 605.167,320.167 602.5,323.5C 602.5,320.167 602.5,316.833 602.5,313.5 Z"/></g>
<g><path style="opacity:1" fill="#5b5039" d="M 595.5,320.5 C 596.601,319.402 597.934,319.235 599.5,320C 599.974,321.729 600.974,322.895 602.5,323.5C 602.631,324.376 602.298,325.043 601.5,325.5C 600.05,324.345 599.05,322.845 598.5,321C 597.552,320.517 596.552,320.351 595.5,320.5 Z"/></g>
<g><path style="opacity:1" fill="#baa674" d="M 610.5,310.5 C 613.903,312.9 616.57,315.9 618.5,319.5C 618.738,323.524 619.738,327.19 621.5,330.5C 620.288,329.77 619.288,328.77 618.5,327.5C 614.345,330.361 609.678,331.195 604.5,330C 600.913,328.602 597.413,327.102 594,325.5C 588.102,325.694 585.602,328.694 586.5,334.5C 587.978,334.238 589.311,334.571 590.5,335.5C 589.626,337.747 589.292,340.08 589.5,342.5C 585.732,342.719 583.398,341.053 582.5,337.5C 583.013,334.088 583.847,330.755 585,327.5C 588.154,324.488 591.654,322.155 595.5,320.5C 596.552,320.351 597.552,320.517 598.5,321C 599.05,322.845 600.05,324.345 601.5,325.5C 602.298,325.043 602.631,324.376 602.5,323.5C 605.167,320.167 605.167,316.833 602.5,313.5C 600.302,312.835 597.969,312.168 595.5,311.5C 596.736,310.643 598.069,309.977 599.5,309.5C 603.094,310.426 606.76,310.759 610.5,310.5 Z"/></g>
<g><path style="opacity:1" fill="#17100b" d="M 602.5,313.5 C 602.5,316.833 602.5,320.167 602.5,323.5C 600.974,322.895 599.974,321.729 599.5,320C 597.934,319.235 596.601,319.402 595.5,320.5C 586.768,321.732 581.935,326.732 581,335.5C 580.329,336.252 579.496,336.586 578.5,336.5C 578.334,332.486 578.501,328.486 579,324.5C 582.883,320.95 587.049,317.783 591.5,315C 595.06,313.763 598.727,313.263 602.5,313.5 Z"/></g>
<g><path style="opacity:1" fill="#7f6f54" d="M 595.5,320.5 C 591.654,322.155 588.154,324.488 585,327.5C 583.847,330.755 583.013,334.088 582.5,337.5C 582.083,338.124 581.416,338.457 580.5,338.5C 579.287,338.253 578.62,337.586 578.5,336.5C 579.496,336.586 580.329,336.252 581,335.5C 581.935,326.732 586.768,321.732 595.5,320.5 Z"/></g>
<g><path style="opacity:1" fill="#483d29" d="M 667.5,305.5 C 668.492,313.316 668.826,321.316 668.5,329.5C 667.833,332.5 667.167,335.5 666.5,338.5C 667.166,327.513 667.499,316.513 667.5,305.5 Z"/></g>
<g><path style="opacity:1" fill="#7a6e52" d="M 549.5,318.5 C 549.782,319.778 550.449,320.778 551.5,321.5C 549.876,321.64 548.71,320.973 548,319.5C 545.97,323.009 543.804,326.342 541.5,329.5C 541.575,326.593 542.409,323.927 544,321.5C 545.264,319.393 547.097,318.393 549.5,318.5 Z"/></g>
<g><path style="opacity:1" fill="#9c8d69" d="M 551.5,321.5 C 555.168,322.556 558.835,323.722 562.5,325C 566.554,325.694 570.554,325.527 574.5,324.5C 575.496,324.586 576.329,324.252 577,323.5C 577.499,327.486 577.666,331.486 577.5,335.5C 576.681,332.695 576.181,329.695 576,326.5C 574.262,327.127 572.429,327.46 570.5,327.5C 564.159,326.832 557.825,326.166 551.5,325.5C 551.5,324.167 551.5,322.833 551.5,321.5 Z"/></g>
<g><path style="opacity:1" fill="#b3a276" d="M 516.5,313.5 C 514.748,315.246 513.415,317.246 512.5,319.5C 510.738,320.262 509.738,321.596 509.5,323.5C 507.755,325.033 506.755,327.033 506.5,329.5C 506.5,330.167 506.5,330.833 506.5,331.5C 504.692,332.918 504.025,334.918 504.5,337.5C 503.673,342.651 503.173,347.984 503,353.5C 502.617,352.944 502.117,352.611 501.5,352.5C 498.118,347.354 495.785,341.688 494.5,335.5C 496.104,336.287 496.771,337.62 496.5,339.5C 497.833,339.5 499.167,339.5 500.5,339.5C 500.498,337.169 501.331,335.169 503,333.5C 503.226,329.113 503.726,324.779 504.5,320.5C 506.5,319.833 508.5,319.167 510.5,318.5C 510.71,314.62 512.71,312.953 516.5,313.5 Z"/></g>
<g><path style="opacity:1" fill="#534936" d="M 509.5,323.5 C 509.245,325.967 508.245,327.967 506.5,329.5C 506.755,327.033 507.755,325.033 509.5,323.5 Z"/></g>
<g><path style="opacity:1" fill="#625944" d="M 623.5,328.5 C 624.924,330.515 625.59,332.848 625.5,335.5C 624.076,333.485 623.41,331.152 623.5,328.5 Z"/></g>
<g><path style="opacity:1" fill="#7d755f" d="M 546.5,310.5 C 542.54,314.397 539.04,318.731 536,323.5C 534.057,329.036 531.89,334.369 529.5,339.5C 529.662,337.473 529.495,335.473 529,333.5C 527.406,335.526 525.906,337.526 524.5,339.5C 529.413,327.239 536.746,316.573 546.5,307.5C 547.562,308.425 547.562,309.425 546.5,310.5 Z"/></g>
<g><path style="opacity:1" fill="#423a2e" d="M 506.5,331.5 C 505.891,339.808 505.225,348.141 504.5,356.5C 503.893,356.376 503.56,356.043 503.5,355.5C 504.49,349.69 504.823,343.69 504.5,337.5C 504.025,334.918 504.692,332.918 506.5,331.5 Z"/></g>
<g><path style="opacity:1" fill="#413b2a" d="M 540.5,331.5 C 539.882,338.817 539.549,346.151 539.5,353.5C 538.836,351.022 538.503,348.355 538.5,345.5C 538.421,340.588 539.088,335.921 540.5,331.5 Z"/></g>
<g><path style="opacity:1" fill="#b7a274" d="M 603.5,379.5 C 604.122,378.373 604.955,377.373 606,376.5C 606.78,374.613 606.613,372.946 605.5,371.5C 605.167,370.5 604.5,369.833 603.5,369.5C 601.156,369.06 599.156,368.06 597.5,366.5C 599.173,365.657 600.34,364.324 601,362.5C 601.498,359.518 601.665,356.518 601.5,353.5C 598.899,354.28 596.899,355.946 595.5,358.5C 592.312,359.13 589.312,360.13 586.5,361.5C 587.623,356.981 590.623,354.981 595.5,355.5C 596.231,350.246 593.898,348.079 588.5,349C 586.1,347.156 586.433,345.656 589.5,344.5C 594.016,345.232 598.349,346.399 602.5,348C 607.04,352.868 608.04,358.368 605.5,364.5C 607.145,369.368 607.811,374.368 607.5,379.5C 606.167,379.5 604.833,379.5 603.5,379.5 Z"/></g>
<g><path style="opacity:1" fill="#ab9b71" d="M 651.5,299.5 C 652.496,312.99 652.829,326.656 652.5,340.5C 651.313,343.946 650.646,347.613 650.5,351.5C 648.498,355.833 647.498,360.5 647.5,365.5C 645.195,371.632 642.529,377.632 639.5,383.5C 640.013,380.551 640.013,377.718 639.5,375C 640.416,374.626 641.25,374.126 642,373.5C 646.165,363.673 648.165,353.339 648,342.5C 649,341.5 650,340.5 651,339.5C 651.5,326.171 651.667,312.837 651.5,299.5 Z"/></g>
<g><path style="opacity:1" fill="#4c4131" d="M 524.5,340.5 C 524.59,343.152 523.924,345.485 522.5,347.5C 522.41,344.848 523.076,342.515 524.5,340.5 Z"/></g>
<g><path style="opacity:1" fill="#756f59" d="M 504.5,337.5 C 504.823,343.69 504.49,349.69 503.5,355.5C 502.094,355.027 501.427,354.027 501.5,352.5C 502.117,352.611 502.617,352.944 503,353.5C 503.173,347.984 503.673,342.651 504.5,337.5 Z"/></g>
<g><path style="opacity:1" fill="#0a0705" d="M 546.5,310.5 C 547.605,312.713 547.605,314.88 546.5,317C 547.737,317.232 548.737,317.732 549.5,318.5C 547.097,318.393 545.264,319.393 544,321.5C 542.409,323.927 541.575,326.593 541.5,329.5C 540.662,329.842 540.328,330.508 540.5,331.5C 539.088,335.921 538.421,340.588 538.5,345.5C 538.503,348.355 538.836,351.022 539.5,353.5C 544.159,361.823 550.826,368.156 559.5,372.5C 562.247,375.944 565.914,377.278 570.5,376.5C 581.748,375.191 592.748,372.858 603.5,369.5C 604.5,369.833 605.167,370.5 605.5,371.5C 605.657,372.873 605.49,374.207 605,375.5C 602.546,377.441 600.713,379.775 599.5,382.5C 597.77,383.026 596.436,384.026 595.5,385.5C 586.699,389.876 577.366,392.21 567.5,392.5C 567.858,395.267 568.525,397.933 569.5,400.5C 570.032,406.152 570.365,411.819 570.5,417.5C 569.216,421.985 568.216,426.651 567.5,431.5C 567.167,431.5 566.833,431.5 566.5,431.5C 565.624,431.369 564.957,431.702 564.5,432.5C 563.965,434.661 563.132,436.661 562,438.5C 560.277,436.333 560.11,434 561.5,431.5C 562.15,429.565 562.483,427.565 562.5,425.5C 563.648,421.019 563.815,416.352 563,411.5C 562.722,410.584 562.222,409.918 561.5,409.5C 560.153,406.807 558.82,404.14 557.5,401.5C 555.052,395.603 551.385,390.603 546.5,386.5C 543.981,380.002 540.314,374.336 535.5,369.5C 533.998,365.418 532.332,361.418 530.5,357.5C 529.693,351.536 529.36,345.536 529.5,339.5C 531.89,334.369 534.057,329.036 536,323.5C 539.04,318.731 542.54,314.397 546.5,310.5 Z"/></g>
<g><path style="opacity:1" fill="#a49670" d="M 618.5,319.5 C 620.926,322.013 622.592,325.013 623.5,328.5C 623.41,331.152 624.076,333.485 625.5,335.5C 626.167,337.5 626.833,339.5 627.5,341.5C 627.5,353.167 627.5,364.833 627.5,376.5C 627.5,376.833 627.5,377.167 627.5,377.5C 626.833,379.5 626.167,381.5 625.5,383.5C 626.444,370.178 626.611,356.845 626,343.5C 624.044,339.353 622.544,335.02 621.5,330.5C 619.738,327.19 618.738,323.524 618.5,319.5 Z"/></g>
<g><path style="opacity:1" fill="#5d5339" d="M 483.5,351.5 C 485.587,352.585 486.92,354.251 487.5,356.5C 485.413,355.415 484.08,353.749 483.5,351.5 Z"/></g>
<g><path style="opacity:1" fill="#594e36" d="M 529.5,339.5 C 529.36,345.536 529.693,351.536 530.5,357.5C 530.167,357.5 529.833,357.5 529.5,357.5C 528.234,351.37 528.234,345.37 529.5,339.5 Z"/></g>
<g><path style="opacity:1" fill="#4f4737" d="M 627.5,341.5 C 630.125,353.169 630.125,364.836 627.5,376.5C 627.5,364.833 627.5,353.167 627.5,341.5 Z"/></g>
<g><path style="opacity:1" fill="#7a6f55" d="M 668.5,329.5 C 668.5,330.5 668.5,331.5 668.5,332.5C 668.305,341.575 666.638,350.241 663.5,358.5C 664.315,351.794 665.315,345.127 666.5,338.5C 667.167,335.5 667.833,332.5 668.5,329.5 Z"/></g>
<g><path style="opacity:1" fill="#a39570" d="M 541.5,329.5 C 541.065,337.211 541.065,344.877 541.5,352.5C 542.528,354.361 544.028,355.695 546,356.5C 546.346,358.218 546.846,359.885 547.5,361.5C 551.555,364.429 555.888,366.595 560.5,368C 562.439,368.908 563.439,370.408 563.5,372.5C 562.167,372.5 560.833,372.5 559.5,372.5C 550.826,368.156 544.159,361.823 539.5,353.5C 539.549,346.151 539.882,338.817 540.5,331.5C 540.328,330.508 540.662,329.842 541.5,329.5 Z"/></g>
<g><path style="opacity:1" fill="#8c7d61" d="M 529.5,357.5 C 529.833,357.5 530.167,357.5 530.5,357.5C 532.332,361.418 533.998,365.418 535.5,369.5C 534.504,369.586 533.671,369.252 533,368.5C 531.268,365.031 530.102,361.364 529.5,357.5 Z"/></g>
<g><path style="opacity:1" fill="#bba675" d="M 481.5,349.5 C 482.5,349.833 483.167,350.5 483.5,351.5C 484.08,353.749 485.413,355.415 487.5,356.5C 491.321,360.806 494.655,365.473 497.5,370.5C 491.5,371.833 489.167,369.5 490.5,363.5C 489.5,363.5 488.5,363.5 487.5,363.5C 487.546,384.856 487.213,406.356 486.5,428C 487.18,432.477 487.68,436.977 488,441.5C 490.167,439.17 491.834,436.503 493,433.5C 493.684,436.38 493.517,439.213 492.5,442C 492.818,444.375 494.151,445.542 496.5,445.5C 490.355,446.49 484.022,446.823 477.5,446.5C 477.5,414.167 477.5,381.833 477.5,349.5C 478.833,349.5 480.167,349.5 481.5,349.5 Z"/></g>
<g><path style="opacity:1" fill="#bba675" d="M 667.5,285.5 C 668.925,288.903 669.758,292.57 670,296.5C 670.795,298.901 671.962,301.068 673.5,303C 672.322,310.623 672.322,318.29 673.5,326C 672.801,330.49 672.134,334.99 671.5,339.5C 670.99,341.088 669.99,342.255 668.5,343C 669.758,348.204 669.425,353.371 667.5,358.5C 667.435,361.037 668.435,363.037 670.5,364.5C 669.248,366.735 668.748,369.069 669,371.5C 669.414,371.043 669.914,370.709 670.5,370.5C 671.491,372.323 672.824,373.823 674.5,375C 673.552,375.483 672.552,375.649 671.5,375.5C 672.937,377.96 673.937,380.626 674.5,383.5C 672.5,383.5 670.5,383.5 668.5,383.5C 668.5,380.833 668.5,378.167 668.5,375.5C 666.833,375.5 665.167,375.5 663.5,375.5C 663.649,374.448 663.483,373.448 663,372.5C 661.961,373.71 660.794,374.71 659.5,375.5C 660.15,373.565 660.483,371.565 660.5,369.5C 661.143,365.729 662.143,362.062 663.5,358.5C 666.638,350.241 668.305,341.575 668.5,332.5C 669.916,316.946 669.583,301.28 667.5,285.5 Z"/></g>
<g><path style="opacity:1" fill="#5c513a" d="M 650.5,351.5 C 650.13,356.422 649.13,361.089 647.5,365.5C 647.498,360.5 648.498,355.833 650.5,351.5 Z"/></g>
<g><path style="opacity:1" fill="#635c3e" d="M 633.5,335.5 C 635.874,347.976 636.04,360.642 634,373.5C 633.61,376.104 632.776,378.438 631.5,380.5C 633.283,365.57 633.949,350.57 633.5,335.5 Z"/></g>
<g><path style="opacity:1" fill="#5d523c" d="M 477.5,343.5 C 476.502,377.996 476.168,412.663 476.5,447.5C 475.17,412.664 475.17,377.664 476.5,342.5C 477.107,342.624 477.44,342.957 477.5,343.5 Z"/></g>
<g><path style="opacity:1" fill="#908666" d="M 575.5,362.5 C 574.603,361.402 573.77,361.402 573,362.5C 572.502,365.817 572.335,369.15 572.5,372.5C 580.938,370.867 589.272,368.867 597.5,366.5C 599.156,368.06 601.156,369.06 603.5,369.5C 592.748,372.858 581.748,375.191 570.5,376.5C 565.914,377.278 562.247,375.944 559.5,372.5C 560.833,372.5 562.167,372.5 563.5,372.5C 565.03,375.021 567.364,376.021 570.5,375.5C 570.191,370.733 570.691,366.066 572,361.5C 573.756,360.015 574.923,360.348 575.5,362.5 Z"/></g>
<g><path style="opacity:1" fill="#70664d" d="M 660.5,369.5 C 660.483,371.565 660.15,373.565 659.5,375.5C 658.069,376.78 657.402,378.447 657.5,380.5C 657.167,380.5 656.833,380.5 656.5,380.5C 656.667,376.327 658,372.66 660.5,369.5 Z"/></g>
<g><path style="opacity:1" fill="#bda770" d="M 551.5,321.5 C 551.5,322.833 551.5,324.167 551.5,325.5C 557.825,326.166 564.159,326.832 570.5,327.5C 572.429,327.46 574.262,327.127 576,326.5C 576.181,329.695 576.681,332.695 577.5,335.5C 577.5,336.167 577.833,336.5 578.5,336.5C 578.62,337.586 579.287,338.253 580.5,338.5C 581.416,338.457 582.083,338.124 582.5,337.5C 583.398,341.053 585.732,342.719 589.5,342.5C 589.292,340.08 589.626,337.747 590.5,335.5C 589.311,334.571 587.978,334.238 586.5,334.5C 585.602,328.694 588.102,325.694 594,325.5C 597.413,327.102 600.913,328.602 604.5,330C 609.678,331.195 614.345,330.361 618.5,327.5C 619.288,328.77 620.288,329.77 621.5,330.5C 622.544,335.02 624.044,339.353 626,343.5C 626.611,356.845 626.444,370.178 625.5,383.5C 624.886,387.135 624.552,390.802 624.5,394.5C 623.463,395.93 622.796,397.597 622.5,399.5C 622.167,400.167 621.833,400.833 621.5,401.5C 620.599,402.29 619.932,403.29 619.5,404.5C 617.915,405.474 616.915,406.974 616.5,409C 615.551,409.617 614.718,409.451 614,408.5C 613.383,409.449 613.549,410.282 614.5,411C 611.355,414.311 608.021,417.477 604.5,420.5C 603.571,421.689 603.238,423.022 603.5,424.5C 602.167,424.5 600.833,424.5 599.5,424.5C 598.167,427.167 596.833,429.833 595.5,432.5C 594.833,432.833 594.167,433.167 593.5,433.5C 585.79,435.449 578.124,437.782 570.5,440.5C 569.5,440.167 568.5,439.833 567.5,439.5C 567.782,437.013 567.782,434.347 567.5,431.5C 568.586,431.38 569.253,430.713 569.5,429.5C 570.384,425.527 571.051,421.527 571.5,417.5C 571.625,411.797 571.292,406.13 570.5,400.5C 570.5,398.5 570.5,396.5 570.5,394.5C 578.972,394.142 586.972,392.142 594.5,388.5C 595.127,387.583 595.461,386.583 595.5,385.5C 596.436,384.026 597.77,383.026 599.5,382.5C 600.833,381.5 602.167,380.5 603.5,379.5C 604.833,379.5 606.167,379.5 607.5,379.5C 607.811,374.368 607.145,369.368 605.5,364.5C 608.04,358.368 607.04,352.868 602.5,348C 598.349,346.399 594.016,345.232 589.5,344.5C 586.433,345.656 586.1,347.156 588.5,349C 593.898,348.079 596.231,350.246 595.5,355.5C 590.623,354.981 587.623,356.981 586.5,361.5C 585.71,362.401 584.71,363.068 583.5,363.5C 580.763,363.599 578.096,363.265 575.5,362.5C 574.923,360.348 573.756,360.015 572,361.5C 570.691,366.066 570.191,370.733 570.5,375.5C 567.364,376.021 565.03,375.021 563.5,372.5C 563.439,370.408 562.439,368.908 560.5,368C 555.888,366.595 551.555,364.429 547.5,361.5C 546.846,359.885 546.346,358.218 546,356.5C 544.028,355.695 542.528,354.361 541.5,352.5C 541.065,344.877 541.065,337.211 541.5,329.5C 543.804,326.342 545.97,323.009 548,319.5C 548.71,320.973 549.876,321.64 551.5,321.5 Z"/></g>
<g><path style="opacity:1" fill="#110c08" d="M 597.5,366.5 C 589.272,368.867 580.938,370.867 572.5,372.5C 572.335,369.15 572.502,365.817 573,362.5C 573.77,361.402 574.603,361.402 575.5,362.5C 577.776,366.07 580.442,366.403 583.5,363.5C 584.71,363.068 585.71,362.401 586.5,361.5C 589.312,360.13 592.312,359.13 595.5,358.5C 596.899,355.946 598.899,354.28 601.5,353.5C 601.665,356.518 601.498,359.518 601,362.5C 600.34,364.324 599.173,365.657 597.5,366.5 Z"/></g>
<g><path style="opacity:1" fill="#665e46" d="M 575.5,362.5 C 578.096,363.265 580.763,363.599 583.5,363.5C 580.442,366.403 577.776,366.07 575.5,362.5 Z"/></g>
<g><path style="opacity:1" fill="#71674c" d="M 605.5,371.5 C 606.613,372.946 606.78,374.613 606,376.5C 604.955,377.373 604.122,378.373 603.5,379.5C 602.167,380.5 600.833,381.5 599.5,382.5C 600.713,379.775 602.546,377.441 605,375.5C 605.49,374.207 605.657,372.873 605.5,371.5 Z"/></g>
<g><path style="opacity:1" fill="#4e4330" d="M 630.5,384.5 C 630.5,385.833 630.5,387.167 630.5,388.5C 629.833,389.5 629.167,390.5 628.5,391.5C 628.41,388.848 629.076,386.515 630.5,384.5 Z"/></g>
<g><path style="opacity:1" fill="#bda66f" d="M 529.5,339.5 C 528.234,345.37 528.234,351.37 529.5,357.5C 530.102,361.364 531.268,365.031 533,368.5C 533.671,369.252 534.504,369.586 535.5,369.5C 535.788,372.866 535.954,376.2 536,379.5C 534.701,379.034 533.201,379.034 531.5,379.5C 531.5,380.833 531.5,382.167 531.5,383.5C 533.833,383.5 536.167,383.5 538.5,383.5C 538.491,385.308 538.991,386.975 540,388.5C 542.86,388.973 545.193,390.306 547,392.5C 548.546,396.505 550.38,399.838 552.5,402.5C 551.674,403.451 551.508,404.451 552,405.5C 553.562,405.259 555.062,405.759 556.5,407C 556.043,407.414 555.709,407.914 555.5,408.5C 559.641,419.449 559.141,430.116 554,440.5C 551.909,439.5 550.243,440.167 549,442.5C 548.517,443.448 548.351,444.448 548.5,445.5C 538.117,445.178 527.784,445.178 517.5,445.5C 517.558,442.336 518.224,439.336 519.5,436.5C 519.552,432.802 519.886,429.135 520.5,425.5C 520.833,422.833 521.167,420.167 521.5,417.5C 521.5,416.833 521.5,416.167 521.5,415.5C 522.497,393.34 522.831,371.006 522.5,348.5C 522.5,348.167 522.5,347.833 522.5,347.5C 523.924,345.485 524.59,343.152 524.5,340.5C 524.5,340.167 524.5,339.833 524.5,339.5C 525.906,337.526 527.406,335.526 529,333.5C 529.495,335.473 529.662,337.473 529.5,339.5 Z"/></g>
<g><path style="opacity:1" fill="#473e2b" d="M 509.5,388.5 C 512.852,393.21 514.852,398.543 515.5,404.5C 515.815,408.371 515.482,412.038 514.5,415.5C 514.666,410.821 514.499,406.155 514,401.5C 512.486,397.146 510.986,392.812 509.5,388.5 Z"/></g>
<g><path style="opacity:1" fill="#9c8f6e" d="M 595.5,385.5 C 595.461,386.583 595.127,387.583 594.5,388.5C 586.972,392.142 578.972,394.142 570.5,394.5C 570.5,396.5 570.5,398.5 570.5,400.5C 570.167,400.5 569.833,400.5 569.5,400.5C 568.525,397.933 567.858,395.267 567.5,392.5C 577.366,392.21 586.699,389.876 595.5,385.5 Z"/></g>
<g><path style="opacity:1" fill="#584f35" d="M 627.5,377.5 C 627.58,383.478 626.58,389.145 624.5,394.5C 624.552,390.802 624.886,387.135 625.5,383.5C 626.167,381.5 626.833,379.5 627.5,377.5 Z"/></g>
<g><path style="opacity:1" fill="#a0906c" d="M 506.5,383.5 C 507.935,384.913 508.935,386.58 509.5,388.5C 510.986,392.812 512.486,397.146 514,401.5C 514.499,406.155 514.666,410.821 514.5,415.5C 514.664,418.187 514.497,420.854 514,423.5C 513.722,424.416 513.222,425.082 512.5,425.5C 514.384,415.289 513.718,405.289 510.5,395.5C 507.075,392.319 505.741,388.319 506.5,383.5 Z"/></g>
<g><path style="opacity:1" fill="#a08f6f" d="M 546.5,386.5 C 551.385,390.603 555.052,395.603 557.5,401.5C 551.175,398.501 547.508,393.501 546.5,386.5 Z"/></g>
<g><path style="opacity:1" fill="#49422e" d="M 522.5,348.5 C 522.831,371.006 522.497,393.34 521.5,415.5C 521.552,400.326 521.219,385.159 520.5,370C 520.364,362.609 521.031,355.443 522.5,348.5 Z"/></g>
<g><path style="opacity:1" fill="#a5967b" d="M 630.5,388.5 C 630.704,390.685 631.37,392.685 632.5,394.5C 631.075,395.922 630.075,397.589 629.5,399.5C 628.833,399.833 628.167,400.167 627.5,400.5C 626.903,400.265 626.57,399.765 626.5,399C 627.249,396.503 627.916,394.003 628.5,391.5C 629.167,390.5 629.833,389.5 630.5,388.5 Z"/></g>
<g><path style="opacity:1" fill="#bda770" d="M 497.5,370.5 C 499.074,370.937 500.241,371.937 501,373.5C 502.689,376.994 504.522,380.328 506.5,383.5C 505.741,388.319 507.075,392.319 510.5,395.5C 513.718,405.289 514.384,415.289 512.5,425.5C 512.34,427.153 511.674,428.486 510.5,429.5C 508.158,432.193 506.158,435.193 504.5,438.5C 503.264,439.246 501.93,439.579 500.5,439.5C 500.167,441.5 499.833,443.5 499.5,445.5C 498.5,445.5 497.5,445.5 496.5,445.5C 494.151,445.542 492.818,444.375 492.5,442C 493.517,439.213 493.684,436.38 493,433.5C 491.834,436.503 490.167,439.17 488,441.5C 487.68,436.977 487.18,432.477 486.5,428C 487.213,406.356 487.546,384.856 487.5,363.5C 488.5,363.5 489.5,363.5 490.5,363.5C 489.167,369.5 491.5,371.833 497.5,370.5 Z"/></g>
<g><path style="opacity:1" fill="#b6a375" d="M 535.5,369.5 C 540.314,374.336 543.981,380.002 546.5,386.5C 547.508,393.501 551.175,398.501 557.5,401.5C 558.82,404.14 560.153,406.807 561.5,409.5C 562.275,414.797 562.608,420.13 562.5,425.5C 562.483,427.565 562.15,429.565 561.5,431.5C 558.286,436.418 554.952,441.418 551.5,446.5C 551.167,446.5 550.833,446.5 550.5,446.5C 537.816,446.832 525.149,446.499 512.5,445.5C 513.127,444.583 513.461,443.583 513.5,442.5C 515.5,440.5 517.5,438.5 519.5,436.5C 518.224,439.336 517.558,442.336 517.5,445.5C 527.784,445.178 538.117,445.178 548.5,445.5C 548.351,444.448 548.517,443.448 549,442.5C 550.243,440.167 551.909,439.5 554,440.5C 559.141,430.116 559.641,419.449 555.5,408.5C 555.709,407.914 556.043,407.414 556.5,407C 555.062,405.759 553.562,405.259 552,405.5C 551.508,404.451 551.674,403.451 552.5,402.5C 550.38,399.838 548.546,396.505 547,392.5C 545.193,390.306 542.86,388.973 540,388.5C 538.991,386.975 538.491,385.308 538.5,383.5C 536.167,383.5 533.833,383.5 531.5,383.5C 531.5,382.167 531.5,380.833 531.5,379.5C 533.201,379.034 534.701,379.034 536,379.5C 535.954,376.2 535.788,372.866 535.5,369.5 Z"/></g>
<g><path style="opacity:1" fill="#443b29" d="M 632.5,394.5 C 632.833,394.5 633.167,394.5 633.5,394.5C 632.92,396.749 631.587,398.415 629.5,399.5C 630.075,397.589 631.075,395.922 632.5,394.5 Z"/></g>
<g><path style="opacity:1" fill="#aa9b77" d="M 656.5,380.5 C 656.833,380.5 657.167,380.5 657.5,380.5C 657.577,384.215 657.244,387.881 656.5,391.5C 655.5,391.5 654.5,391.5 653.5,391.5C 651.5,396.167 649.5,400.833 647.5,405.5C 646.167,405.5 644.833,405.5 643.5,405.5C 648.107,397.285 652.441,388.951 656.5,380.5 Z"/></g>
<g><path style="opacity:1" fill="#bca96d" d="M 481.5,357.5 C 485.512,356.887 487.512,358.554 487.5,362.5C 484.757,362.077 483.424,363.244 483.5,366C 483.461,392.173 483.461,418.34 483.5,444.5C 482.277,445.614 480.944,445.781 479.5,445C 478.339,418.239 478.172,391.405 479,364.5C 479.168,361.823 480.001,359.49 481.5,357.5 Z"/></g>
<g><path style="opacity:1" fill="#5a4f3b" d="M 569.5,400.5 C 569.833,400.5 570.167,400.5 570.5,400.5C 571.292,406.13 571.625,411.797 571.5,417.5C 571.167,417.5 570.833,417.5 570.5,417.5C 570.365,411.819 570.032,406.152 569.5,400.5 Z"/></g>
<g><path style="opacity:1" fill="#252017" d="M 621.5,401.5 C 620.503,405.492 619.503,409.492 618.5,413.5C 617.271,414.281 615.938,414.781 614.5,415C 613.002,417.664 611.002,419.83 608.5,421.5C 610.927,417.015 614.093,413.015 618,409.5C 618.352,407.753 618.852,406.086 619.5,404.5C 619.932,403.29 620.599,402.29 621.5,401.5 Z"/></g>
<g><path style="opacity:1" fill="#8d825f" d="M 643.5,405.5 C 641.343,411.971 638.343,417.971 634.5,423.5C 632.142,423.253 630.142,423.919 628.5,425.5C 633.503,418.825 638.503,412.158 643.5,405.5 Z"/></g>
<g><path style="opacity:1" fill="#a79771" d="M 619.5,404.5 C 618.852,406.086 618.352,407.753 618,409.5C 614.093,413.015 610.927,417.015 608.5,421.5C 603.981,424.929 599.648,428.596 595.5,432.5C 596.833,429.833 598.167,427.167 599.5,424.5C 600.833,424.5 602.167,424.5 603.5,424.5C 603.238,423.022 603.571,421.689 604.5,420.5C 608.021,417.477 611.355,414.311 614.5,411C 613.549,410.282 613.383,409.449 614,408.5C 614.718,409.451 615.551,409.617 616.5,409C 616.915,406.974 617.915,405.474 619.5,404.5 Z"/></g>
<g><path style="opacity:1" fill="#645e48" d="M 561.5,409.5 C 562.222,409.918 562.722,410.584 563,411.5C 563.815,416.352 563.648,421.019 562.5,425.5C 562.608,420.13 562.275,414.797 561.5,409.5 Z"/></g>
<g><path style="opacity:1" fill="#9e906e" d="M 477.5,343.5 C 479.326,345.147 480.66,347.147 481.5,349.5C 480.167,349.5 478.833,349.5 477.5,349.5C 477.5,381.833 477.5,414.167 477.5,446.5C 484.022,446.823 490.355,446.49 496.5,445.5C 497.5,445.5 498.5,445.5 499.5,445.5C 499.833,443.5 500.167,441.5 500.5,439.5C 501.93,439.579 503.264,439.246 504.5,438.5C 506.158,435.193 508.158,432.193 510.5,429.5C 510.371,431.216 510.038,432.883 509.5,434.5C 508.11,435.899 507.11,437.566 506.5,439.5C 503.757,441.239 501.757,443.573 500.5,446.5C 492.586,447.467 484.586,447.801 476.5,447.5C 476.168,412.663 476.502,377.996 477.5,343.5 Z"/></g>
<g><path style="opacity:1" fill="#82795a" d="M 570.5,417.5 C 570.833,417.5 571.167,417.5 571.5,417.5C 571.051,421.527 570.384,425.527 569.5,429.5C 569.253,430.713 568.586,431.38 567.5,431.5C 568.216,426.651 569.216,421.985 570.5,417.5 Z"/></g>
<g><path style="opacity:1" fill="#7c7054" d="M 628.5,425.5 C 628.267,427.062 627.6,428.395 626.5,429.5C 623.105,432.902 619.438,435.902 615.5,438.5C 619.5,433.833 623.833,429.5 628.5,425.5 Z"/></g>
<g><path style="opacity:1" fill="#7f7459" d="M 520.5,425.5 C 519.886,429.135 519.552,432.802 519.5,436.5C 517.5,438.5 515.5,440.5 513.5,442.5C 516.043,436.86 518.376,431.194 520.5,425.5 Z"/></g>
<g><path style="opacity:1" fill="#14100a" d="M 515.5,404.5 C 516.328,410.319 516.828,416.319 517,422.5C 517.333,422.833 517.667,423.167 518,423.5C 519.459,421.568 520.625,419.568 521.5,417.5C 521.167,420.167 520.833,422.833 520.5,425.5C 518.376,431.194 516.043,436.86 513.5,442.5C 512.272,443.306 511.272,444.306 510.5,445.5C 510.34,443.801 510.506,442.134 511,440.5C 511.333,440.833 511.667,441.167 512,441.5C 513.525,438.28 514.192,434.947 514,431.5C 513.683,433.301 513.016,433.634 512,432.5C 511.292,433.381 510.458,434.047 509.5,434.5C 510.038,432.883 510.371,431.216 510.5,429.5C 511.674,428.486 512.34,427.153 512.5,425.5C 513.222,425.082 513.722,424.416 514,423.5C 514.497,420.854 514.664,418.187 514.5,415.5C 515.482,412.038 515.815,408.371 515.5,404.5 Z"/></g>
<g><path style="opacity:1" fill="#1d1912" d="M 561.5,431.5 C 560.11,434 560.277,436.333 562,438.5C 563.132,436.661 563.965,434.661 564.5,432.5C 564.957,431.702 565.624,431.369 566.5,431.5C 565.033,437.088 563.033,442.422 560.5,447.5C 563.5,447.5 566.5,447.5 569.5,447.5C 565.981,448.808 562.315,448.808 558.5,447.5C 557.974,445.77 556.974,444.436 555.5,443.5C 554.333,445.079 553,446.412 551.5,447.5C 551.5,447.167 551.5,446.833 551.5,446.5C 554.952,441.418 558.286,436.418 561.5,431.5 Z"/></g>
<g><path style="opacity:1" fill="#ac9c6e" d="M 566.5,431.5 C 566.833,431.5 567.167,431.5 567.5,431.5C 567.782,434.347 567.782,437.013 567.5,439.5C 568.5,439.833 569.5,440.167 570.5,440.5C 578.124,437.782 585.79,435.449 593.5,433.5C 585.836,438.668 577.836,443.335 569.5,447.5C 566.5,447.5 563.5,447.5 560.5,447.5C 563.033,442.422 565.033,437.088 566.5,431.5 Z"/></g>
<g><path style="opacity:1" fill="#433a29" d="M 506.5,439.5 C 505.243,442.427 503.243,444.761 500.5,446.5C 501.757,443.573 503.757,441.239 506.5,439.5 Z"/></g>
<g><path style="opacity:1" fill="#8e7f5a" d="M 513.5,442.5 C 513.461,443.583 513.127,444.583 512.5,445.5C 525.149,446.499 537.816,446.832 550.5,446.5C 537.677,447.495 524.677,447.829 511.5,447.5C 510.662,447.158 510.328,446.492 510.5,445.5C 511.272,444.306 512.272,443.306 513.5,442.5 Z"/></g>
<g><path style="opacity:1" fill="#978463" d="M 732.5,190.5 C 733.499,275.998 733.833,361.665 733.5,447.5C 691.165,447.667 648.832,447.5 606.5,447C 607.056,446.617 607.389,446.117 607.5,445.5C 608.035,443.554 609.368,442.554 611.5,442.5C 610.859,443.482 610.193,444.482 609.5,445.5C 648.828,446.5 688.161,446.833 727.5,446.5C 728.833,446.5 730.167,446.5 731.5,446.5C 732.499,361.668 732.833,276.668 732.5,191.5C 732.5,191.167 732.5,190.833 732.5,190.5 Z"/></g>
<g><path style="opacity:1" fill="#363327" d="M 550.5,446.5 C 550.833,446.5 551.167,446.5 551.5,446.5C 551.5,446.833 551.5,447.167 551.5,447.5C 538.167,448.833 524.833,448.833 511.5,447.5C 524.677,447.829 537.677,447.495 550.5,446.5 Z"/></g>
<g><path style="opacity:1" fill="#3e372d" d="M 607.5,445.5 C 607.389,446.117 607.056,446.617 606.5,447C 648.832,447.5 691.165,447.667 733.5,447.5C 690.67,448.499 647.67,448.832 604.5,448.5C 604.5,447.5 604.5,446.5 604.5,445.5C 605.5,445.5 606.5,445.5 607.5,445.5 Z"/></g>
<g><path style="opacity:1" fill="#1a1a1a" d="M 767.5,505.5 C 764.214,504.793 760.881,504.46 757.5,504.5C 750.324,503.397 742.991,503.397 735.5,504.5C 735.5,503.5 735.5,502.5 735.5,501.5C 737.591,501.682 739.591,501.348 741.5,500.5C 750.119,501.305 758.785,501.805 767.5,502C 765.069,503.092 765.069,504.259 767.5,505.5 Z"/></g>
<g><path style="opacity:1" fill="#b8b8b8" d="M 757.5,504.5 C 760.881,504.46 764.214,504.793 767.5,505.5C 771.099,506.699 774.765,507.699 778.5,508.5C 778.5,508.833 778.5,509.167 778.5,509.5C 771.356,507.963 764.356,506.296 757.5,504.5 Z"/></g>
<g><path style="opacity:1" fill="#959595" d="M 278.5,506.5 C 278.5,506.167 278.5,505.833 278.5,505.5C 296.836,505.333 315.17,505.5 333.5,506C 335.058,506.21 336.391,506.71 337.5,507.5C 317.856,506.562 298.19,506.229 278.5,506.5 Z"/></g>
<g><path style="opacity:1" fill="#8e8e8e" d="M 451.5,515.5 C 451.167,515.5 450.833,515.5 450.5,515.5C 450.5,512.5 450.5,509.5 450.5,506.5C 427.167,506.5 403.833,506.5 380.5,506.5C 380.5,540.5 380.5,574.5 380.5,608.5C 380.5,608.833 380.5,609.167 380.5,609.5C 379.502,575.004 379.168,540.337 379.5,505.5C 403.5,505.5 427.5,505.5 451.5,505.5C 451.5,508.833 451.5,512.167 451.5,515.5 Z"/></g>
<g><path style="opacity:1" fill="#909090" d="M 463.5,506.5 C 477.163,505.833 490.996,505.5 505,505.5C 519.183,505.501 533.017,506.167 546.5,507.5C 546.167,507.5 545.833,507.5 545.5,507.5C 518.338,506.502 491.005,506.169 463.5,506.5 Z"/></g>
<g><path style="opacity:1" fill="#b1b1b1" d="M 757.5,504.5 C 748.422,504.372 739.422,505.038 730.5,506.5C 732.028,505.691 733.694,505.024 735.5,504.5C 742.991,503.397 750.324,503.397 757.5,504.5 Z"/></g>
<g><path style="opacity:1" fill="#fafafa" d="M 757.5,504.5 C 764.356,506.296 771.356,507.963 778.5,509.5C 782.833,512.167 787.167,514.833 791.5,517.5C 792.81,519.148 794.143,520.814 795.5,522.5C 791.173,526.161 787.173,530.161 783.5,534.5C 781.226,535.597 779.059,536.93 777,538.5C 775.699,538.361 774.866,537.695 774.5,536.5C 772.784,533.81 770.451,531.81 767.5,530.5C 765.929,529.691 764.262,529.357 762.5,529.5C 760.901,529.768 759.568,529.434 758.5,528.5C 754.019,527.352 749.352,527.185 744.5,528C 742.148,528.24 740.148,529.073 738.5,530.5C 733.163,532.814 729.163,536.481 726.5,541.5C 725.312,542.684 724.145,542.684 723,541.5C 721.175,550.523 721.175,559.523 723,568.5C 723.902,570.431 725.069,572.097 726.5,573.5C 727.338,573.842 727.672,574.508 727.5,575.5C 728.5,578.5 730.5,580.5 733.5,581.5C 736.407,583.805 739.741,585.138 743.5,585.5C 745.462,587.017 747.795,587.684 750.5,587.5C 752.369,587.493 754.036,587.16 755.5,586.5C 756.833,586.5 758.167,586.5 759.5,586.5C 762.811,586.693 765.478,585.693 767.5,583.5C 768.493,574.682 768.827,565.682 768.5,556.5C 776.5,556.5 784.5,556.5 792.5,556.5C 792.816,570.912 792.482,585.245 791.5,599.5C 789.973,599.427 788.973,600.094 788.5,601.5C 786.249,602.695 783.915,603.695 781.5,604.5C 778.458,604.733 775.792,605.733 773.5,607.5C 771.302,607.875 769.302,608.542 767.5,609.5C 763.846,609.942 760.179,610.276 756.5,610.5C 748.821,610.404 741.154,610.07 733.5,609.5C 731.485,608.076 729.152,607.41 726.5,607.5C 725.393,605.031 723.393,604.031 720.5,604.5C 720.027,603.094 719.027,602.427 717.5,602.5C 716.508,602.672 715.842,602.338 715.5,601.5C 714.089,599.086 712.089,597.419 709.5,596.5C 700.873,588.684 695.373,579.018 693,567.5C 692.179,560.321 692.345,553.321 693.5,546.5C 694.924,544.485 695.59,542.152 695.5,539.5C 695.66,537.847 696.326,536.514 697.5,535.5C 699.245,533.967 700.245,531.967 700.5,529.5C 700.427,527.973 701.094,526.973 702.5,526.5C 704.262,525.738 705.262,524.404 705.5,522.5C 709.146,520.518 712.146,517.851 714.5,514.5C 716.027,514.573 717.027,513.906 717.5,512.5C 717.842,511.662 718.508,511.328 719.5,511.5C 721.967,511.245 723.967,510.245 725.5,508.5C 727.403,508.204 729.07,507.537 730.5,506.5C 739.422,505.038 748.422,504.372 757.5,504.5 Z"/></g>
<g><path style="opacity:1" fill="#e4e4e4" d="M 450.5,515.5 C 430.833,515.5 411.167,515.5 391.5,515.5C 392.263,514.732 393.263,514.232 394.5,514C 412.83,513.5 431.164,513.333 449.5,513.5C 449.5,511.5 449.5,509.5 449.5,507.5C 426.833,507.5 404.167,507.5 381.5,507.5C 381.5,540.833 381.5,574.167 381.5,607.5C 405.241,607.823 428.908,607.489 452.5,606.5C 428.857,608.49 404.857,609.157 380.5,608.5C 380.5,574.5 380.5,540.5 380.5,506.5C 403.833,506.5 427.167,506.5 450.5,506.5C 450.5,509.5 450.5,512.5 450.5,515.5 Z"/></g>
<g><path style="opacity:1" fill="#f4f4f4" d="M 278.5,506.5 C 298.19,506.229 317.856,506.562 337.5,507.5C 341.674,508.889 345.674,510.722 349.5,513C 351.79,514.777 353.457,516.944 354.5,519.5C 354.427,521.027 355.094,522.027 356.5,522.5C 357.275,527.797 357.608,533.13 357.5,538.5C 356.908,541.691 355.741,544.691 354,547.5C 350.966,550.275 347.799,552.942 344.5,555.5C 349.681,557.359 354.014,560.359 357.5,564.5C 359.172,567.213 360.838,569.88 362.5,572.5C 366.158,585.678 362.492,596.011 351.5,603.5C 349.973,603.427 348.973,604.094 348.5,605.5C 347.167,605.833 345.833,606.167 344.5,606.5C 341.873,607.105 339.207,607.605 336.5,608C 316.836,608.5 297.169,608.667 277.5,608.5C 277.168,574.329 277.502,540.329 278.5,506.5 Z"/></g>
<g><path style="opacity:1" fill="#f8f8f8" d="M 391.5,515.5 C 390.17,521.295 389.504,527.462 389.5,534C 389.51,540.411 389.843,546.744 390.5,553C 408.164,553.5 425.83,553.667 443.5,553.5C 443.5,555.833 443.5,558.167 443.5,560.5C 425.992,560.17 408.659,560.503 391.5,561.5C 391.5,574.167 391.5,586.833 391.5,599.5C 412.007,599.17 432.34,599.503 452.5,600.5C 452.5,602.5 452.5,604.5 452.5,606.5C 428.908,607.489 405.241,607.823 381.5,607.5C 381.5,574.167 381.5,540.833 381.5,507.5C 404.167,507.5 426.833,507.5 449.5,507.5C 449.5,509.5 449.5,511.5 449.5,513.5C 431.164,513.333 412.83,513.5 394.5,514C 393.263,514.232 392.263,514.732 391.5,515.5 Z"/></g>
<g><path style="opacity:1" fill="#f8f8f8" d="M 463.5,506.5 C 491.005,506.169 518.338,506.502 545.5,507.5C 545.5,509.833 545.5,512.167 545.5,514.5C 533.655,514.172 521.988,514.505 510.5,515.5C 509.502,546.329 509.169,577.329 509.5,608.5C 506.167,608.5 502.833,608.5 499.5,608.5C 499.5,577.5 499.5,546.5 499.5,515.5C 487.678,514.505 475.678,514.172 463.5,514.5C 463.5,511.833 463.5,509.167 463.5,506.5 Z"/></g>
<g><path style="opacity:1" fill="#fbfbfb" d="M 581.5,506.5 C 581.738,508.404 582.738,509.738 584.5,510.5C 585.674,511.514 586.34,512.847 586.5,514.5C 586.536,518.2 588.203,520.867 591.5,522.5C 591.427,524.027 592.094,525.027 593.5,525.5C 593.67,526.822 593.337,527.989 592.5,529C 593.901,529.41 595.234,529.91 596.5,530.5C 599.752,535.334 602.752,540.334 605.5,545.5C 605.201,547.604 605.534,549.604 606.5,551.5C 607.417,552.127 608.417,552.461 609.5,552.5C 609.427,554.027 610.094,555.027 611.5,555.5C 611.427,557.027 612.094,558.027 613.5,558.5C 614.737,559.965 615.737,561.632 616.5,563.5C 616.791,564.649 617.624,565.316 619,565.5C 621.304,565.682 621.804,565.016 620.5,563.5C 621.456,561.925 622.123,560.258 622.5,558.5C 624.642,552.883 627.308,547.55 630.5,542.5C 633.905,538.705 636.571,534.372 638.5,529.5C 638.833,528.5 639.5,527.833 640.5,527.5C 642.931,525.954 644.264,523.621 644.5,520.5C 647.717,517.939 649.717,514.605 650.5,510.5C 651.812,509.855 652.812,508.855 653.5,507.5C 661.138,506.503 668.804,506.169 676.5,506.5C 676.5,540.5 676.5,574.5 676.5,608.5C 668.167,608.5 659.833,608.5 651.5,608.5C 651.5,590.833 651.5,573.167 651.5,555.5C 650.209,555.263 649.209,555.596 648.5,556.5C 648.5,556.833 648.5,557.167 648.5,557.5C 646.395,560.2 644.729,563.2 643.5,566.5C 642.599,567.29 641.932,568.29 641.5,569.5C 640.094,569.973 639.427,570.973 639.5,572.5C 638.094,572.973 637.427,573.973 637.5,575.5C 637.5,575.833 637.5,576.167 637.5,576.5C 636.094,576.973 635.427,577.973 635.5,579.5C 634.094,579.973 633.427,580.973 633.5,582.5C 631.75,583.659 630.75,585.326 630.5,587.5C 629.833,588.833 629.167,590.167 628.5,591.5C 626.204,592.733 624.87,594.733 624.5,597.5C 624.5,598.167 624.167,598.5 623.5,598.5C 618.737,598.774 614.07,598.441 609.5,597.5C 603.5,587.5 597.5,577.5 591.5,567.5C 591.25,565.326 590.25,563.659 588.5,562.5C 587.833,562.5 587.5,562.167 587.5,561.5C 587.672,560.508 587.338,559.842 586.5,559.5C 586.179,557.952 585.179,557.285 583.5,557.5C 583.5,574.5 583.5,591.5 583.5,608.5C 575.167,608.5 566.833,608.5 558.5,608.5C 557.502,574.671 557.168,540.671 557.5,506.5C 565.5,506.5 573.5,506.5 581.5,506.5 Z"/></g>
<g><path style="opacity:1" fill="#797979" d="M 730.5,506.5 C 729.07,507.537 727.403,508.204 725.5,508.5C 726.635,506.787 728.302,506.12 730.5,506.5 Z"/></g>
<g><path style="opacity:1" fill="#fbfbfb" d="M 836.5,506.5 C 838.083,508.663 839.416,510.996 840.5,513.5C 840.427,515.027 841.094,516.027 842.5,516.5C 842.427,518.027 843.094,519.027 844.5,519.5C 851.334,529.828 857.667,540.495 863.5,551.5C 864.605,553.713 864.605,555.88 863.5,558C 864.449,558.617 865.282,558.451 866,557.5C 866.708,558.381 867.542,559.047 868.5,559.5C 868.427,561.027 869.094,562.027 870.5,562.5C 870.694,564.912 872.027,565.912 874.5,565.5C 874.629,563.784 874.962,562.117 875.5,560.5C 878.08,554.332 881.414,548.665 885.5,543.5C 887.408,542.514 888.408,540.848 888.5,538.5C 890.931,536.954 892.264,534.621 892.5,531.5C 894.931,529.954 896.264,527.621 896.5,524.5C 898.408,523.514 899.408,521.848 899.5,519.5C 901.369,517.966 902.702,515.966 903.5,513.5C 905.421,511.999 907.087,510.165 908.5,508C 915.826,507.5 923.159,507.334 930.5,507.5C 930.5,540.833 930.5,574.167 930.5,607.5C 922.5,607.5 914.5,607.5 906.5,607.5C 906.83,589.992 906.497,572.659 905.5,555.5C 904.167,555.5 903.5,556.167 903.5,557.5C 903.167,557.5 902.833,557.5 902.5,557.5C 900.44,560.24 898.774,563.24 897.5,566.5C 895.992,568.181 894.992,570.181 894.5,572.5C 890.535,579.144 886.535,585.811 882.5,592.5C 880.366,593.703 879.032,595.537 878.5,598C 873.845,598.499 869.179,598.666 864.5,598.5C 864.167,597.833 863.833,597.167 863.5,596.5C 863.573,594.973 862.906,593.973 861.5,593.5C 858.752,588.334 855.752,583.334 852.5,578.5C 852.408,576.152 851.408,574.486 849.5,573.5C 849.573,571.973 848.906,570.973 847.5,570.5C 845.178,566.528 842.845,562.528 840.5,558.5C 840.44,557.957 840.107,557.624 839.5,557.5C 838.501,574.487 838.167,591.487 838.5,608.5C 829.833,608.5 821.167,608.5 812.5,608.5C 812.5,574.5 812.5,540.5 812.5,506.5C 820.5,506.5 828.5,506.5 836.5,506.5 Z"/></g>
<g><path style="opacity:1" fill="#898989" d="M 581.5,506.5 C 583.262,507.262 584.262,508.596 584.5,510.5C 582.738,509.738 581.738,508.404 581.5,506.5 Z"/></g>
<g><path style="opacity:1" fill="#232323" d="M 791.5,517.5 C 787.167,514.833 782.833,512.167 778.5,509.5C 778.5,509.167 778.5,508.833 778.5,508.5C 778.56,507.957 778.893,507.624 779.5,507.5C 781.115,508.154 782.782,508.654 784.5,509C 785.833,509.667 785.833,510.333 784.5,511C 787.581,512.295 789.914,514.461 791.5,517.5 Z"/></g>
<g><path style="opacity:1" fill="#a8a8a8" d="M 836.5,506.5 C 828.5,506.5 820.5,506.5 812.5,506.5C 812.5,540.5 812.5,574.5 812.5,608.5C 821.167,608.5 829.833,608.5 838.5,608.5C 838.5,608.833 838.5,609.167 838.5,609.5C 829.5,609.5 820.5,609.5 811.5,609.5C 811.5,574.833 811.5,540.167 811.5,505.5C 820.017,505.174 828.35,505.507 836.5,506.5 Z"/></g>
<g><path style="opacity:1" fill="#797979" d="M 581.5,506.5 C 573.5,506.5 565.5,506.5 557.5,506.5C 557.168,540.671 557.502,574.671 558.5,608.5C 558.5,608.833 558.5,609.167 558.5,609.5C 558.167,609.5 557.833,609.5 557.5,609.5C 556.502,575.004 556.168,540.337 556.5,505.5C 565.017,505.174 573.35,505.507 581.5,506.5 Z"/></g>
<g><path style="opacity:1" fill="#ababab" d="M 725.5,508.5 C 723.967,510.245 721.967,511.245 719.5,511.5C 721.033,509.755 723.033,508.755 725.5,508.5 Z"/></g>
<g><path style="opacity:1" fill="#9b9b9b" d="M 717.5,512.5 C 717.027,513.906 716.027,514.573 714.5,514.5C 714.973,513.094 715.973,512.427 717.5,512.5 Z"/></g>
<g><path style="opacity:1" fill="#b7b7b7" d="M 463.5,506.5 C 463.5,509.167 463.5,511.833 463.5,514.5C 475.678,514.172 487.678,514.505 499.5,515.5C 487.167,515.5 474.833,515.5 462.5,515.5C 462.19,512.287 462.523,509.287 463.5,506.5 Z"/></g>
<g><path style="opacity:1" fill="#bbbbbb" d="M 545.5,507.5 C 545.833,507.5 546.167,507.5 546.5,507.5C 546.5,510.167 546.5,512.833 546.5,515.5C 534.5,515.5 522.5,515.5 510.5,515.5C 521.988,514.505 533.655,514.172 545.5,514.5C 545.5,512.167 545.5,509.833 545.5,507.5 Z"/></g>
<g><path style="opacity:1" fill="#b1b1b1" d="M 650.5,510.5 C 649.717,514.605 647.717,517.939 644.5,520.5C 646.142,516.879 648.142,513.546 650.5,510.5 Z"/></g>
<g><path style="opacity:1" fill="#8b8b8b" d="M 840.5,513.5 C 841.906,513.973 842.573,514.973 842.5,516.5C 841.094,516.027 840.427,515.027 840.5,513.5 Z"/></g>
<g><path style="opacity:1" fill="#dfdfdf" d="M 335.5,516.5 C 331.865,515.886 328.198,515.552 324.5,515.5C 312.345,514.505 300.011,514.171 287.5,514.5C 287.171,527.344 287.505,540.011 288.5,552.5C 302.167,552.5 315.833,552.5 329.5,552.5C 315.343,553.496 301.01,553.829 286.5,553.5C 286.5,540.167 286.5,526.833 286.5,513.5C 300.504,513.333 314.504,513.5 328.5,514C 331.191,514.156 333.524,514.989 335.5,516.5 Z"/></g>
<g><path style="opacity:1" fill="#030303" d="M 289.5,515.5 C 301.167,515.5 312.833,515.5 324.5,515.5C 328.198,515.552 331.865,515.886 335.5,516.5C 339.064,518.462 342.064,521.129 344.5,524.5C 344.796,526.403 345.463,528.07 346.5,529.5C 346.779,534.327 346.113,538.993 344.5,543.5C 342.833,544.5 341.5,545.833 340.5,547.5C 337.982,548.264 335.649,549.264 333.5,550.5C 318.853,551.373 304.186,551.707 289.5,551.5C 300.659,550.669 311.993,550.169 323.5,550C 312.172,549.5 300.838,549.333 289.5,549.5C 289.5,538.167 289.5,526.833 289.5,515.5 Z"/></g>
<g><path style="opacity:1" fill="#434343" d="M 391.5,515.5 C 411.167,515.5 430.833,515.5 450.5,515.5C 450.833,515.5 451.167,515.5 451.5,515.5C 432.007,516.497 412.34,516.83 392.5,516.5C 392.5,528.167 392.5,539.833 392.5,551.5C 392.167,551.5 391.833,551.5 391.5,551.5C 391.5,539.5 391.5,527.5 391.5,515.5 Z"/></g>
<g><path style="opacity:1" fill="#8c8c8c" d="M 510.5,515.5 C 510.5,546.833 510.5,578.167 510.5,609.5C 506.833,609.5 503.167,609.5 499.5,609.5C 499.5,609.167 499.5,608.833 499.5,608.5C 502.833,608.5 506.167,608.5 509.5,608.5C 509.169,577.329 509.502,546.329 510.5,515.5 Z"/></g>
<g><path style="opacity:1" fill="#303030" d="M 510.5,515.5 C 522.5,515.5 534.5,515.5 546.5,515.5C 546.5,515.833 546.5,516.167 546.5,516.5C 534.833,516.5 523.167,516.5 511.5,516.5C 511.5,547.5 511.5,578.5 511.5,609.5C 511.167,609.5 510.833,609.5 510.5,609.5C 510.5,578.167 510.5,546.833 510.5,515.5 Z"/></g>
<g><path style="opacity:1" fill="#b6b6b6" d="M 714.5,514.5 C 712.146,517.851 709.146,520.518 705.5,522.5C 707.88,519.119 710.88,516.453 714.5,514.5 Z"/></g>
<g><path style="opacity:1" fill="#777777" d="M 842.5,516.5 C 843.906,516.973 844.573,517.973 844.5,519.5C 843.094,519.027 842.427,518.027 842.5,516.5 Z"/></g>
<g><path style="opacity:1" fill="#aaaaaa" d="M 903.5,513.5 C 902.702,515.966 901.369,517.966 899.5,519.5C 899.845,516.802 901.178,514.802 903.5,513.5 Z"/></g>
<g><path style="opacity:1" fill="#767676" d="M 278.5,505.5 C 278.5,505.833 278.5,506.167 278.5,506.5C 277.502,540.329 277.168,574.329 277.5,608.5C 276.502,574.671 276.168,540.671 276.5,506.5C 276.842,505.662 277.508,505.328 278.5,505.5 Z"/></g>
<g><path style="opacity:1" fill="#848484" d="M 324.5,515.5 C 312.833,515.5 301.167,515.5 289.5,515.5C 288.505,527.322 288.172,539.322 288.5,551.5C 288.5,551.833 288.5,552.167 288.5,552.5C 287.505,540.011 287.171,527.344 287.5,514.5C 300.011,514.171 312.345,514.505 324.5,515.5 Z"/></g>
<g><path style="opacity:1" fill="#bababa" d="M 586.5,514.5 C 588.664,516.822 590.331,519.489 591.5,522.5C 588.203,520.867 586.536,518.2 586.5,514.5 Z"/></g>
<g><path style="opacity:1" fill="#8f8f8f" d="M 354.5,519.5 C 355.906,519.973 356.573,520.973 356.5,522.5C 355.094,522.027 354.427,521.027 354.5,519.5 Z"/></g>
<g><path style="opacity:1" fill="#0f0f0f" d="M 546.5,516.5 C 535.884,518.477 524.884,519.144 513.5,518.5C 513.667,548.502 513.5,578.502 513,608.5C 512.617,609.056 512.117,609.389 511.5,609.5C 511.5,578.5 511.5,547.5 511.5,516.5C 523.167,516.5 534.833,516.5 546.5,516.5 Z"/></g>
<g><path style="opacity:1" fill="#9a9a9a" d="M 705.5,522.5 C 705.262,524.404 704.262,525.738 702.5,526.5C 702.738,524.596 703.738,523.262 705.5,522.5 Z"/></g>
<g><path style="opacity:1" fill="#9a9a9a" d="M 899.5,519.5 C 899.408,521.848 898.408,523.514 896.5,524.5C 896.75,522.326 897.75,520.659 899.5,519.5 Z"/></g>
<g><path style="opacity:1" fill="#7c7c7c" d="M 591.5,522.5 C 592.906,522.973 593.573,523.973 593.5,525.5C 592.094,525.027 591.427,524.027 591.5,522.5 Z"/></g>
<g><path style="opacity:1" fill="#b6b6b6" d="M 644.5,520.5 C 644.264,523.621 642.931,525.954 640.5,527.5C 641.079,524.669 642.412,522.336 644.5,520.5 Z"/></g>
<g><path style="opacity:1" fill="#727272" d="M 344.5,524.5 C 346.213,525.635 346.88,527.302 346.5,529.5C 345.463,528.07 344.796,526.403 344.5,524.5 Z"/></g>
<g><path style="opacity:1" fill="#696969" d="M 462.5,515.5 C 474.833,515.5 487.167,515.5 499.5,515.5C 499.5,546.5 499.5,577.5 499.5,608.5C 499.5,608.833 499.5,609.167 499.5,609.5C 498.502,578.671 498.169,547.671 498.5,516.5C 486.322,516.828 474.322,516.495 462.5,515.5 Z"/></g>
<g><path style="opacity:1" fill="#b6b6b6" d="M 593.5,525.5 C 594.89,526.899 595.89,528.566 596.5,530.5C 595.234,529.91 593.901,529.41 592.5,529C 593.337,527.989 593.67,526.822 593.5,525.5 Z"/></g>
<g><path style="opacity:1" fill="#a6a6a6" d="M 896.5,524.5 C 896.264,527.621 894.931,529.954 892.5,531.5C 893.079,528.669 894.412,526.336 896.5,524.5 Z"/></g>
<g><path style="opacity:1" fill="#1f1f1f" d="M 638.5,529.5 C 636.571,534.372 633.905,538.705 630.5,542.5C 629.944,538.807 631.278,536.14 634.5,534.5C 633.948,532.997 633.948,531.331 634.5,529.5C 635.833,529.5 637.167,529.5 638.5,529.5 Z"/></g>
<g><path style="opacity:1" fill="#9e9e9e" d="M 758.5,528.5 C 753.968,528.182 749.634,528.515 745.5,529.5C 743.139,529.674 740.806,530.007 738.5,530.5C 740.148,529.073 742.148,528.24 744.5,528C 749.352,527.185 754.019,527.352 758.5,528.5 Z"/></g>
<g><path style="opacity:1" fill="#0f0f0f" d="M 932.5,506.5 C 933.496,506.414 934.329,506.748 935,507.5C 935.667,541.833 935.667,576.167 935,610.5C 934.667,595.167 934.333,579.833 934,564.5C 933.831,579.672 933.331,594.672 932.5,609.5C 932.5,575.167 932.5,540.833 932.5,506.5 Z"/></g>
<g><path style="opacity:1" fill="#8c8c8c" d="M 356.5,522.5 C 358.006,525.356 358.672,528.523 358.5,532C 358.496,534.361 358.163,536.527 357.5,538.5C 357.608,533.13 357.275,527.797 356.5,522.5 Z"/></g>
<g><path style="opacity:1" fill="#a7a7a7" d="M 762.5,529.5 C 764.262,529.357 765.929,529.691 767.5,530.5C 770.451,531.81 772.784,533.81 774.5,536.5C 770.268,534.537 766.268,532.203 762.5,529.5 Z"/></g>
<g><path style="opacity:1" fill="#aeaeae" d="M 700.5,529.5 C 700.245,531.967 699.245,533.967 697.5,535.5C 697.461,532.911 698.461,530.911 700.5,529.5 Z"/></g>
<g><path style="opacity:1" fill="#b6b6b6" d="M 892.5,531.5 C 892.264,534.621 890.931,536.954 888.5,538.5C 889.079,535.669 890.412,533.336 892.5,531.5 Z"/></g>
<g><path style="opacity:1" fill="#191919" d="M 745.5,529.5 C 749.634,528.515 753.968,528.182 758.5,528.5C 759.568,529.434 760.901,529.768 762.5,529.5C 766.268,532.203 770.268,534.537 774.5,536.5C 774.866,537.695 775.699,538.361 777,538.5C 779.059,536.93 781.226,535.597 783.5,534.5C 783.311,538.904 780.811,541.904 776,543.5C 775.683,541.699 775.016,541.366 774,542.5C 773.5,542 773,541.5 772.5,541C 773.956,540.577 774.456,539.744 774,538.5C 773.282,539.451 772.449,539.617 771.5,539C 769.111,535.526 765.777,533.526 761.5,533C 761.833,532.667 762.167,532.333 762.5,532C 756.74,531.595 751.074,530.762 745.5,529.5 Z"/></g>
<g><path style="opacity:1" fill="#9c9c9c" d="M 346.5,529.5 C 347.643,532.976 347.81,536.642 347,540.5C 346.764,542.119 345.931,543.119 344.5,543.5C 345.931,543.119 346.764,542.119 347,540.5C 347.81,536.642 347.643,532.976 346.5,529.5 Z"/></g>
<g><path style="opacity:1" fill="#b7b7b7" d="M 888.5,538.5 C 888.408,540.848 887.408,542.514 885.5,543.5C 885.75,541.326 886.75,539.659 888.5,538.5 Z"/></g>
<g><path style="opacity:1" fill="#828282" d="M 695.5,539.5 C 695.59,542.152 694.924,544.485 693.5,546.5C 693.41,543.848 694.076,541.515 695.5,539.5 Z"/></g>
<g><path style="opacity:1" fill="#c6c6c6" d="M 605.5,545.5 C 607.588,547.336 608.921,549.669 609.5,552.5C 608.417,552.461 607.417,552.127 606.5,551.5C 605.534,549.604 605.201,547.604 605.5,545.5 Z"/></g>
<g><path style="opacity:1" fill="#1c1c1c" d="M 289.5,515.5 C 289.5,526.833 289.5,538.167 289.5,549.5C 300.838,549.333 312.172,549.5 323.5,550C 311.993,550.169 300.659,550.669 289.5,551.5C 289.167,551.5 288.833,551.5 288.5,551.5C 288.172,539.322 288.505,527.322 289.5,515.5 Z"/></g>
<g><path style="opacity:1" fill="#979797" d="M 340.5,547.5 C 338.91,549.821 336.577,550.821 333.5,550.5C 335.649,549.264 337.982,548.264 340.5,547.5 Z"/></g>
<g><path style="opacity:1" fill="#565656" d="M 333.5,550.5 C 332.167,551.167 330.833,551.833 329.5,552.5C 315.833,552.5 302.167,552.5 288.5,552.5C 288.5,552.167 288.5,551.833 288.5,551.5C 288.833,551.5 289.167,551.5 289.5,551.5C 304.186,551.707 318.853,551.373 333.5,550.5 Z"/></g>
<g><path style="opacity:1" fill="#707070" d="M 391.5,551.5 C 391.833,551.5 392.167,551.5 392.5,551.5C 410.167,551.5 427.833,551.5 445.5,551.5C 445.813,555.042 445.479,558.375 444.5,561.5C 444.5,558.5 444.5,555.5 444.5,552.5C 426.659,552.83 408.992,552.497 391.5,551.5 Z"/></g>
<g><path style="opacity:1" fill="#181818" d="M 725.5,544.5 C 725.773,552.546 725.773,560.546 725.5,568.5C 722.038,561.588 721.538,554.255 724,546.5C 724.278,545.584 724.778,544.918 725.5,544.5 Z"/></g>
<g><path style="opacity:1" fill="#c5c5c5" d="M 391.5,515.5 C 391.5,527.5 391.5,539.5 391.5,551.5C 408.992,552.497 426.659,552.83 444.5,552.5C 444.5,555.5 444.5,558.5 444.5,561.5C 426.833,561.5 409.167,561.5 391.5,561.5C 408.659,560.503 425.992,560.17 443.5,560.5C 443.5,558.167 443.5,555.833 443.5,553.5C 425.83,553.667 408.164,553.5 390.5,553C 389.843,546.744 389.51,540.411 389.5,534C 389.504,527.462 390.17,521.295 391.5,515.5 Z"/></g>
<g><path style="opacity:1" fill="#bcbcbc" d="M 726.5,541.5 C 726.443,542.609 726.11,543.609 725.5,544.5C 724.778,544.918 724.278,545.584 724,546.5C 721.538,554.255 722.038,561.588 725.5,568.5C 725.629,570.216 725.962,571.883 726.5,573.5C 725.069,572.097 723.902,570.431 723,568.5C 721.175,559.523 721.175,550.523 723,541.5C 724.145,542.684 725.312,542.684 726.5,541.5 Z"/></g>
<g><path style="opacity:1" fill="#989898" d="M 609.5,552.5 C 610.906,552.973 611.573,553.973 611.5,555.5C 610.094,555.027 609.427,554.027 609.5,552.5 Z"/></g>
<g><path style="opacity:1" fill="#c2c2c2" d="M 863.5,551.5 C 865.664,553.822 867.331,556.489 868.5,559.5C 867.542,559.047 866.708,558.381 866,557.5C 865.282,558.451 864.449,558.617 863.5,558C 864.605,555.88 864.605,553.713 863.5,551.5 Z"/></g>
<g><path style="opacity:1" fill="#8b8b8b" d="M 611.5,555.5 C 612.906,555.973 613.573,556.973 613.5,558.5C 612.094,558.027 611.427,557.027 611.5,555.5 Z"/></g>
<g><path style="opacity:1" fill="#909090" d="M 902.5,557.5 C 902.396,559.703 901.73,561.703 900.5,563.5C 899.728,564.694 898.728,565.694 897.5,566.5C 898.774,563.24 900.44,560.24 902.5,557.5 Z"/></g>
<g><path style="opacity:1" fill="#878787" d="M 868.5,559.5 C 869.906,559.973 870.573,560.973 870.5,562.5C 869.094,562.027 868.427,561.027 868.5,559.5 Z"/></g>
<g><path style="opacity:1" fill="#020202" d="M 333.5,562.5 C 337.286,562.32 340.619,563.32 343.5,565.5C 344.953,566.825 344.619,567.658 342.5,568C 345.355,569.849 347.521,572.349 349,575.5C 349.435,580.184 349.935,584.851 350.5,589.5C 347.434,594.21 343.101,597.21 337.5,598.5C 321.519,599.386 305.519,599.719 289.5,599.5C 289.5,587.167 289.5,574.833 289.5,562.5C 304.167,562.5 318.833,562.5 333.5,562.5 Z"/></g>
<g><path style="opacity:1" fill="#757575" d="M 840.5,558.5 C 839.833,575.5 839.167,592.5 838.5,609.5C 838.5,609.167 838.5,608.833 838.5,608.5C 838.167,591.487 838.501,574.487 839.5,557.5C 840.107,557.624 840.44,557.957 840.5,558.5 Z"/></g>
<g><path style="opacity:1" fill="#c9c9c9" d="M 622.5,558.5 C 622.123,560.258 621.456,561.925 620.5,563.5C 621.804,565.016 621.304,565.682 619,565.5C 617.624,565.316 616.791,564.649 616.5,563.5C 618.709,562.08 620.709,560.413 622.5,558.5 Z"/></g>
<g><path style="opacity:1" fill="#303030" d="M 288.5,561.5 C 303.676,561.171 318.676,561.504 333.5,562.5C 318.833,562.5 304.167,562.5 289.5,562.5C 289.5,574.833 289.5,587.167 289.5,599.5C 288.505,587.011 288.171,574.344 288.5,561.5 Z"/></g>
<g><path style="opacity:1" fill="#939393" d="M 588.5,562.5 C 590.25,563.659 591.25,565.326 591.5,567.5C 589.75,566.341 588.75,564.674 588.5,562.5 Z"/></g>
<g><path style="opacity:1" fill="#a6a6a6" d="M 651.5,609.5 C 651.5,609.167 651.5,608.833 651.5,608.5C 659.833,608.5 668.167,608.5 676.5,608.5C 676.5,574.5 676.5,540.5 676.5,506.5C 668.804,506.169 661.138,506.503 653.5,507.5C 652.812,508.855 651.812,509.855 650.5,510.5C 650.703,508.956 651.37,507.622 652.5,506.5C 660.807,505.502 669.14,505.169 677.5,505.5C 677.5,540.167 677.5,574.833 677.5,609.5C 668.833,609.5 660.167,609.5 651.5,609.5 Z"/></g>
<g><path style="opacity:1" fill="#b0b0b0" d="M 875.5,560.5 C 874.962,562.117 874.629,563.784 874.5,565.5C 872.027,565.912 870.694,564.912 870.5,562.5C 871.15,562.804 871.817,563.137 872.5,563.5C 873.288,562.23 874.288,561.23 875.5,560.5 Z"/></g>
<g><path style="opacity:1" fill="#a3a3a3" d="M 357.5,564.5 C 360.632,566.203 362.299,568.87 362.5,572.5C 360.838,569.88 359.172,567.213 357.5,564.5 Z"/></g>
<g><path style="opacity:1" fill="#9e9e9e" d="M 586.5,559.5 C 585.883,559.389 585.383,559.056 585,558.5C 584.5,575.497 584.333,592.497 584.5,609.5C 575.833,609.5 567.167,609.5 558.5,609.5C 558.5,609.167 558.5,608.833 558.5,608.5C 566.833,608.5 575.167,608.5 583.5,608.5C 583.5,591.5 583.5,574.5 583.5,557.5C 585.179,557.285 586.179,557.952 586.5,559.5 Z"/></g>
<g><path style="opacity:1" fill="#8a8a8a" d="M 907.5,506.5 C 915.833,505.167 924.167,505.167 932.5,506.5C 932.5,540.833 932.5,575.167 932.5,609.5C 923.167,609.5 913.833,609.5 904.5,609.5C 904.83,591.992 904.497,574.659 903.5,557.5C 903.5,556.167 904.167,555.5 905.5,555.5C 905.5,573.167 905.5,590.833 905.5,608.5C 914.167,608.5 922.833,608.5 931.5,608.5C 931.5,574.5 931.5,540.5 931.5,506.5C 923.5,506.5 915.5,506.5 907.5,506.5 Z"/></g>
<g><path style="opacity:1" fill="#1f1f1f" d="M 276.5,506.5 C 276.168,540.671 276.502,574.671 277.5,608.5C 277.5,608.833 277.5,609.167 277.5,609.5C 276.167,592.68 275.5,575.513 275.5,558C 275.5,540.663 275.833,523.497 276.5,506.5 Z"/></g>
<g><path style="opacity:1" fill="#343434" d="M 586.5,559.5 C 587.338,559.842 587.672,560.508 587.5,561.5C 586.883,561.389 586.383,561.056 586,560.5C 585.5,577.163 585.333,593.83 585.5,610.5C 575.985,610.827 566.652,610.494 557.5,609.5C 557.833,609.5 558.167,609.5 558.5,609.5C 567.167,609.5 575.833,609.5 584.5,609.5C 584.333,592.497 584.5,575.497 585,558.5C 585.383,559.056 585.883,559.389 586.5,559.5 Z"/></g>
<g><path style="opacity:1" fill="#d8d8d8" d="M 767.5,555.5 C 776.017,555.174 784.35,555.507 792.5,556.5C 784.5,556.5 776.5,556.5 768.5,556.5C 768.827,565.682 768.493,574.682 767.5,583.5C 767.5,574.167 767.5,564.833 767.5,555.5 Z"/></g>
<g><path style="opacity:1" fill="#939393" d="M 767.5,555.5 C 775.984,554.507 784.651,554.174 793.5,554.5C 794.15,569.871 793.484,584.871 791.5,599.5C 792.482,585.245 792.816,570.912 792.5,556.5C 784.35,555.507 776.017,555.174 767.5,555.5 Z"/></g>
<g><path style="opacity:1" fill="#7a7a7a" d="M 641.5,569.5 C 641.573,571.027 640.906,572.027 639.5,572.5C 639.427,570.973 640.094,569.973 641.5,569.5 Z"/></g>
<g><path style="opacity:1" fill="#434343" d="M 897.5,566.5 C 897.614,569.216 896.614,571.216 894.5,572.5C 894.992,570.181 895.992,568.181 897.5,566.5 Z"/></g>
<g><path style="opacity:1" fill="#1c1c1c" d="M 343.5,565.5 C 346.089,566.419 348.089,568.086 349.5,570.5C 349.796,572.403 350.463,574.07 351.5,575.5C 352.891,580.262 352.558,584.928 350.5,589.5C 349.935,584.851 349.435,580.184 349,575.5C 347.521,572.349 345.355,569.849 342.5,568C 344.619,567.658 344.953,566.825 343.5,565.5 Z"/></g>
<g><path style="opacity:1" fill="#606060" d="M 349.5,570.5 C 351.213,571.635 351.88,573.302 351.5,575.5C 350.463,574.07 349.796,572.403 349.5,570.5 Z"/></g>
<g><path style="opacity:1" fill="#717171" d="M 847.5,570.5 C 848.906,570.973 849.573,571.973 849.5,573.5C 848.094,573.027 847.427,572.027 847.5,570.5 Z"/></g>
<g><path style="opacity:1" fill="#929292" d="M 639.5,572.5 C 639.573,574.027 638.906,575.027 637.5,575.5C 637.427,573.973 638.094,572.973 639.5,572.5 Z"/></g>
<g><path style="opacity:1" fill="#1b1b1b" d="M 648.5,557.5 C 649.404,558.209 649.737,559.209 649.5,560.5C 648.005,560.415 647.005,561.081 646.5,562.5C 646.846,563.696 647.346,563.696 648,562.5C 648.667,577.833 648.667,593.167 648,608.5C 647.667,594.167 647.333,579.833 647,565.5C 646.333,568.167 645.667,568.167 645,565.5C 644.617,566.056 644.117,566.389 643.5,566.5C 644.729,563.2 646.395,560.2 648.5,557.5 Z"/></g>
<g><path style="opacity:1" fill="#e4e4e4" d="M 907.5,506.5 C 915.5,506.5 923.5,506.5 931.5,506.5C 931.5,540.5 931.5,574.5 931.5,608.5C 922.833,608.5 914.167,608.5 905.5,608.5C 905.5,590.833 905.5,573.167 905.5,555.5C 906.497,572.659 906.83,589.992 906.5,607.5C 914.5,607.5 922.5,607.5 930.5,607.5C 930.5,574.167 930.5,540.833 930.5,507.5C 923.159,507.334 915.826,507.5 908.5,508C 907.087,510.165 905.421,511.999 903.5,513.5C 904.079,510.669 905.412,508.336 907.5,506.5 Z"/></g>
<g><path style="opacity:1" fill="#989898" d="M 727.5,575.5 C 729.833,577.167 731.833,579.167 733.5,581.5C 730.5,580.5 728.5,578.5 727.5,575.5 Z"/></g>
<g><path style="opacity:1" fill="#767676" d="M 849.5,573.5 C 851.408,574.486 852.408,576.152 852.5,578.5C 850.75,577.341 849.75,575.674 849.5,573.5 Z"/></g>
<g><path style="opacity:1" fill="#666666" d="M 637.5,576.5 C 637.573,578.027 636.906,579.027 635.5,579.5C 635.427,577.973 636.094,576.973 637.5,576.5 Z"/></g>
<g><path style="opacity:1" fill="#868686" d="M 635.5,579.5 C 635.573,581.027 634.906,582.027 633.5,582.5C 633.427,580.973 634.094,579.973 635.5,579.5 Z"/></g>
<g><path style="opacity:1" fill="#878787" d="M 767.5,555.5 C 767.5,564.833 767.5,574.167 767.5,583.5C 765.478,585.693 762.811,586.693 759.5,586.5C 761.515,585.076 763.848,584.41 766.5,584.5C 766.173,574.652 766.506,564.986 767.5,555.5 Z"/></g>
<g><path style="opacity:1" fill="#636363" d="M 633.5,582.5 C 633.408,584.848 632.408,586.514 630.5,587.5C 630.75,585.326 631.75,583.659 633.5,582.5 Z"/></g>
<g><path style="opacity:1" fill="#808080" d="M 743.5,585.5 C 747.452,586.272 751.452,586.605 755.5,586.5C 754.036,587.16 752.369,587.493 750.5,587.5C 747.795,587.684 745.462,587.017 743.5,585.5 Z"/></g>
<g><path style="opacity:1" fill="#161616" d="M 902.5,557.5 C 902.833,557.5 903.167,557.5 903.5,557.5C 904.497,574.659 904.83,591.992 904.5,609.5C 903.5,609.5 902.5,609.5 901.5,609.5C 901.83,593.991 901.496,578.658 900.5,563.5C 901.73,561.703 902.396,559.703 902.5,557.5 Z"/></g>
<g><path style="opacity:1" fill="#656565" d="M 648.5,557.5 C 648.5,557.167 648.5,556.833 648.5,556.5C 650.162,573.643 651.162,590.976 651.5,608.5C 651.5,608.833 651.5,609.167 651.5,609.5C 649.515,593.534 648.848,577.201 649.5,560.5C 649.737,559.209 649.404,558.209 648.5,557.5 Z"/></g>
<g><path style="opacity:1" fill="#c5c5c5" d="M 648.5,556.5 C 649.209,555.596 650.209,555.263 651.5,555.5C 651.5,573.167 651.5,590.833 651.5,608.5C 651.162,590.976 650.162,573.643 648.5,556.5 Z"/></g>
<g><path style="opacity:1" fill="#999999" d="M 628.5,591.5 C 627.649,593.882 626.316,595.882 624.5,597.5C 624.87,594.733 626.204,592.733 628.5,591.5 Z"/></g>
<g><path style="opacity:1" fill="#5e5e5e" d="M 861.5,593.5 C 862.906,593.973 863.573,594.973 863.5,596.5C 862.094,596.027 861.427,595.027 861.5,593.5 Z"/></g>
<g><path style="opacity:1" fill="#404040" d="M 391.5,561.5 C 409.167,561.5 426.833,561.5 444.5,561.5C 427.341,562.497 410.008,562.83 392.5,562.5C 392.5,574.5 392.5,586.5 392.5,598.5C 413.194,597.845 433.527,598.512 453.5,600.5C 453.167,600.5 452.833,600.5 452.5,600.5C 432.34,599.503 412.007,599.17 391.5,599.5C 391.5,586.833 391.5,574.167 391.5,561.5 Z"/></g>
<g><path style="opacity:1" fill="#898989" d="M 609.5,597.5 C 614.07,598.441 618.737,598.774 623.5,598.5C 621.359,599.163 619.025,599.497 616.5,599.5C 613.731,599.471 611.397,598.805 609.5,597.5 Z"/></g>
<g><path style="opacity:1" fill="#6f6f6f" d="M 882.5,592.5 C 881.412,594.583 880.412,596.749 879.5,599C 874.316,599.816 869.316,599.65 864.5,598.5C 869.179,598.666 873.845,598.499 878.5,598C 879.032,595.537 880.366,593.703 882.5,592.5 Z"/></g>
<g><path style="opacity:1" fill="#6b6b6b" d="M 288.5,561.5 C 288.171,574.344 288.505,587.011 289.5,599.5C 305.519,599.719 321.519,599.386 337.5,598.5C 335.708,599.309 333.708,599.809 331.5,600C 316.837,600.5 302.17,600.667 287.5,600.5C 287.171,587.323 287.505,574.323 288.5,561.5 Z"/></g>
<g><path style="opacity:1" fill="#929292" d="M 709.5,596.5 C 712.089,597.419 714.089,599.086 715.5,601.5C 712.911,600.581 710.911,598.914 709.5,596.5 Z"/></g>
<g><path style="opacity:1" fill="#616161" d="M 791.5,599.5 C 791.027,600.906 790.027,601.573 788.5,601.5C 788.973,600.094 789.973,599.427 791.5,599.5 Z"/></g>
<g><path style="opacity:1" fill="#909090" d="M 717.5,602.5 C 719.027,602.427 720.027,603.094 720.5,604.5C 718.973,604.573 717.973,603.906 717.5,602.5 Z"/></g>
<g><path style="opacity:1" fill="#686868" d="M 351.5,603.5 C 351.027,604.906 350.027,605.573 348.5,605.5C 348.973,604.094 349.973,603.427 351.5,603.5 Z"/></g>
<g><path style="opacity:1" fill="#ababab" d="M 720.5,604.5 C 723.393,604.031 725.393,605.031 726.5,607.5C 724.181,607.008 722.181,606.008 720.5,604.5 Z"/></g>
<g><path style="opacity:1" fill="#aeaeae" d="M 781.5,604.5 C 779.208,606.267 776.542,607.267 773.5,607.5C 775.792,605.733 778.458,604.733 781.5,604.5 Z"/></g>
<g><path style="opacity:1" fill="#828282" d="M 726.5,607.5 C 729.152,607.41 731.485,608.076 733.5,609.5C 730.848,609.59 728.515,608.924 726.5,607.5 Z"/></g>
<g><path style="opacity:1" fill="#828282" d="M 344.5,606.5 C 344.389,607.117 344.056,607.617 343.5,608C 341.5,608.333 339.5,608.667 337.5,609C 317.503,609.5 297.503,609.667 277.5,609.5C 277.5,609.167 277.5,608.833 277.5,608.5C 297.169,608.667 316.836,608.5 336.5,608C 339.207,607.605 341.873,607.105 344.5,606.5 Z"/></g>
<g><path style="opacity:1" fill="#9e9e9e" d="M 452.5,600.5 C 452.833,600.5 453.167,600.5 453.5,600.5C 453.5,603.5 453.5,606.5 453.5,609.5C 429.167,609.5 404.833,609.5 380.5,609.5C 380.5,609.167 380.5,608.833 380.5,608.5C 404.857,609.157 428.857,608.49 452.5,606.5C 452.5,604.5 452.5,602.5 452.5,600.5 Z"/></g>
<g><path style="opacity:1" fill="#9d9d9d" d="M 733.5,609.5 C 741.154,610.07 748.821,610.404 756.5,610.5C 752.03,611.486 747.363,611.819 742.5,611.5C 739.311,611.142 736.311,610.475 733.5,609.5 Z"/></g>
<g><path style="opacity:1" fill="#252525" d="M 767.5,609.5 C 765.069,610.741 765.069,611.908 767.5,613C 758.992,613.197 750.658,612.697 742.5,611.5C 747.363,611.819 752.03,611.486 756.5,610.5C 760.179,610.276 763.846,609.942 767.5,609.5 Z"/></g>
</svg>
