<?xml version="1.0" encoding="UTF-8"?>
<!DOCTYPE svg PUBLIC "-//W3C//DTD SVG 1.1//EN" "http://www.w3.org/Graphics/SVG/1.1/DTD/svg11.dtd">
<svg xmlns="http://www.w3.org/2000/svg" version="1.1" width="512px" height="512px" style="shape-rendering:geometricPrecision; text-rendering:geometricPrecision; image-rendering:optimizeQuality; fill-rule:evenodd; clip-rule:evenodd" xmlns:xlink="http://www.w3.org/1999/xlink">
<g><path style="opacity:1" fill="#fcb51b" d="M -0.5,-0.5 C 170.167,-0.5 340.833,-0.5 511.5,-0.5C 511.5,170.167 511.5,340.833 511.5,511.5C 340.833,511.5 170.167,511.5 -0.5,511.5C -0.5,340.833 -0.5,170.167 -0.5,-0.5 Z"/></g>
<g><path style="opacity:1" fill="#162b52" d="M 158.5,175.5 C 168.172,175.334 177.839,175.5 187.5,176C 192.898,176.466 197.898,178.133 202.5,181C 208.679,190.474 206.679,197.807 196.5,203C 210.016,208.629 212.016,216.962 202.5,228C 199.326,229.725 195.993,231.058 192.5,232C 181.172,232.5 169.838,232.667 158.5,232.5C 158.5,213.5 158.5,194.5 158.5,175.5 Z"/></g>
<g><path style="opacity:1" fill="#162b52" d="M 213.5,175.5 C 228.833,175.5 244.167,175.5 259.5,175.5C 259.5,179.833 259.5,184.167 259.5,188.5C 249.167,188.5 238.833,188.5 228.5,188.5C 228.5,191.5 228.5,194.5 228.5,197.5C 237.833,197.5 247.167,197.5 256.5,197.5C 256.5,201.833 256.5,206.167 256.5,210.5C 247.167,210.5 237.833,210.5 228.5,210.5C 228.5,213.5 228.5,216.5 228.5,219.5C 238.833,219.5 249.167,219.5 259.5,219.5C 259.5,223.833 259.5,228.167 259.5,232.5C 244.167,232.5 228.833,232.5 213.5,232.5C 213.5,213.5 213.5,194.5 213.5,175.5 Z"/></g>
<g><path style="opacity:1" fill="#152a52" d="M 265.5,175.5 C 282.5,175.5 299.5,175.5 316.5,175.5C 316.5,179.833 316.5,184.167 316.5,188.5C 310.575,188.192 304.741,188.525 299,189.5C 298.5,203.829 298.333,218.163 298.5,232.5C 293.5,232.5 288.5,232.5 283.5,232.5C 283.667,218.163 283.5,203.829 283,189.5C 277.259,188.525 271.425,188.192 265.5,188.5C 265.5,184.167 265.5,179.833 265.5,175.5 Z"/></g>
<g><path style="opacity:1" fill="#e6a729" d="M 171.5,188.5 C 177.509,188.334 183.509,188.501 189.5,189C 192.167,191.667 192.167,194.333 189.5,197C 183.509,197.499 177.509,197.666 171.5,197.5C 171.5,194.5 171.5,191.5 171.5,188.5 Z"/></g>
<g><path style="opacity:1" fill="#f6b11e" d="M 171.5,210.5 C 177.509,210.334 183.509,210.501 189.5,211C 192.167,213.333 192.167,215.667 189.5,218C 183.509,218.499 177.509,218.666 171.5,218.5C 171.5,215.833 171.5,213.167 171.5,210.5 Z"/></g>
<g><path style="opacity:1" fill="#162b52" d="M 82.5,312.5 C 74.6841,313.492 66.6841,313.826 58.5,313.5C 54.5021,293.249 54.6688,272.916 59,252.5C 67.1274,228.052 84.1274,215.385 110,214.5C 122.932,214.14 133.932,218.473 143,227.5C 151.239,239.197 151.573,251.197 144,263.5C 137.231,271.303 128.731,276.136 118.5,278C 124.695,280.095 130.695,282.761 136.5,286C 145.883,293.717 155.549,301.051 165.5,308C 183.517,317.79 202.184,319.123 221.5,312C 231.532,307.125 239.865,300.292 246.5,291.5C 251.211,295.798 253.044,301.131 252,307.5C 247.616,319.553 239.449,328.053 227.5,333C 195.961,343.823 167.294,338.823 141.5,318C 131.772,307.646 120.772,298.979 108.5,292C 100.002,287.877 92.1684,288.71 85,294.5C 81.6273,289.053 81.9606,283.72 86,278.5C 94.5499,269.971 104.717,264.138 116.5,261C 125.141,255.748 127.307,248.581 123,239.5C 105.442,231.101 92.4417,235.768 84,253.5C 80.9353,261.721 79.4353,270.221 79.5,279C 80.0499,290.215 81.0499,301.382 82.5,312.5 Z"/></g>
<g><path style="opacity:1" fill="#172b52" d="M 444.5,248.5 C 444.822,254.358 444.489,260.025 443.5,265.5C 433.715,260.744 423.382,258.911 412.5,260C 406.457,262.142 406.124,264.808 411.5,268C 418.464,269.824 425.464,271.491 432.5,273C 447.127,278.091 451.627,287.925 446,302.5C 442.936,307.789 438.436,311.289 432.5,313C 418.305,316.701 404.305,316.034 390.5,311C 389.357,304.582 389.19,298.082 390,291.5C 401.98,298.696 414.646,300.363 428,296.5C 428.667,295.167 428.667,293.833 428,292.5C 420.481,289.328 412.648,287.161 404.5,286C 389.112,279.503 384.945,268.67 392,253.5C 396.981,248.092 403.148,244.926 410.5,244C 422.374,242.446 433.707,243.946 444.5,248.5 Z"/></g>
<g><path style="opacity:1" fill="#162b52" d="M 157.5,244.5 C 163.5,244.5 169.5,244.5 175.5,244.5C 175.667,264.169 175.5,283.836 175,303.5C 168.983,299.992 163.316,295.992 158,291.5C 157.5,275.837 157.333,260.17 157.5,244.5 Z"/></g>
<g><path style="opacity:1" fill="#182b52" d="M 181.5,244.5 C 188.422,244.188 195.256,244.521 202,245.5C 207.147,259.944 212.48,274.277 218,288.5C 223.913,274.432 229.247,260.099 234,245.5C 240.744,244.521 247.578,244.188 254.5,244.5C 248.97,259.25 243.137,273.917 237,288.5C 229.236,299.332 218.902,305.332 206,306.5C 197.729,285.849 189.562,265.182 181.5,244.5 Z"/></g>
<g><path style="opacity:1" fill="#162b52" d="M 315.5,244.5 C 315.5,249.833 315.5,255.167 315.5,260.5C 303.167,260.5 290.833,260.5 278.5,260.5C 278.187,264.042 278.521,267.375 279.5,270.5C 290.5,270.5 301.5,270.5 312.5,270.5C 312.5,275.833 312.5,281.167 312.5,286.5C 301.167,286.5 289.833,286.5 278.5,286.5C 278.5,290.5 278.5,294.5 278.5,298.5C 291.167,298.5 303.833,298.5 316.5,298.5C 316.5,303.5 316.5,308.5 316.5,313.5C 298.007,314.497 279.341,314.83 260.5,314.5C 260.5,291.167 260.5,267.833 260.5,244.5C 278.833,244.5 297.167,244.5 315.5,244.5 Z"/></g>
<g><path style="opacity:1" fill="#152a52" d="M 385.5,312.5 C 378.352,313.492 371.019,313.825 363.5,313.5C 359.364,306.5 355.364,299.333 351.5,292C 347.848,291.501 344.182,291.335 340.5,291.5C 340.5,299.167 340.5,306.833 340.5,314.5C 334.5,314.5 328.5,314.5 322.5,314.5C 322.5,291.167 322.5,267.833 322.5,244.5C 334.171,244.333 345.838,244.5 357.5,245C 381.229,247.971 388.062,260.138 378,281.5C 375.374,283.557 372.874,285.723 370.5,288C 375.379,296.262 380.379,304.428 385.5,312.5 Z"/></g>
<g><path style="opacity:1" fill="#5d5248" d="M 444.5,248.5 C 445.817,254.346 445.817,260.346 444.5,266.5C 443.893,266.376 443.56,266.043 443.5,265.5C 444.489,260.025 444.822,254.358 444.5,248.5 Z"/></g>
<g><path style="opacity:1" fill="#b08439" d="M 315.5,244.5 C 316.489,249.975 316.822,255.642 316.5,261.5C 304.167,261.5 291.833,261.5 279.5,261.5C 279.5,264.5 279.5,267.5 279.5,270.5C 278.521,267.375 278.187,264.042 278.5,260.5C 290.833,260.5 303.167,260.5 315.5,260.5C 315.5,255.167 315.5,249.833 315.5,244.5 Z"/></g>
<g><path style="opacity:1" fill="#c08e33" d="M 360.5,262.5 C 354.167,262.5 347.833,262.5 341.5,262.5C 341.5,266.5 341.5,270.5 341.5,274.5C 347.5,274.5 353.5,274.5 359.5,274.5C 353.355,275.49 347.022,275.823 340.5,275.5C 340.5,270.833 340.5,266.167 340.5,261.5C 347.354,261.176 354.021,261.509 360.5,262.5 Z"/></g>
<g><path style="opacity:1" fill="#f9b31d" d="M 360.5,262.5 C 364.678,264.867 365.511,268.2 363,272.5C 362.184,273.823 361.017,274.489 359.5,274.5C 353.5,274.5 347.5,274.5 341.5,274.5C 341.5,270.5 341.5,266.5 341.5,262.5C 347.833,262.5 354.167,262.5 360.5,262.5 Z"/></g>
<g><path style="opacity:1" fill="#a87e3e" d="M 312.5,286.5 C 301.679,287.495 290.679,287.828 279.5,287.5C 279.5,290.833 279.5,294.167 279.5,297.5C 292.167,297.5 304.833,297.5 317.5,297.5C 317.821,303.026 317.488,308.36 316.5,313.5C 316.5,308.5 316.5,303.5 316.5,298.5C 303.833,298.5 291.167,298.5 278.5,298.5C 278.5,294.5 278.5,290.5 278.5,286.5C 289.833,286.5 301.167,286.5 312.5,286.5 Z"/></g>
<g><path style="opacity:1" fill="#c18f33" d="M 450.5,306.5 C 455.262,307.092 456.596,309.592 454.5,314C 448.202,314.495 446.868,311.995 450.5,306.5 Z"/></g>
<g><path style="opacity:1" fill="#6f5b45" d="M 82.5,312.5 C 83.0431,312.56 83.3764,312.893 83.5,313.5C 75.0091,314.821 66.6758,314.821 58.5,313.5C 66.6841,313.826 74.6841,313.492 82.5,312.5 Z"/></g>
<g><path style="opacity:1" fill="#6e5b46" d="M 385.5,312.5 C 386.043,312.56 386.376,312.893 386.5,313.5C 378.677,314.82 371.01,314.82 363.5,313.5C 371.019,313.825 378.352,313.492 385.5,312.5 Z"/></g>
</svg>
