<?xml version="1.0" encoding="UTF-8"?>
<!DOCTYPE svg PUBLIC "-//W3C//DTD SVG 1.1//EN" "http://www.w3.org/Graphics/SVG/1.1/DTD/svg11.dtd">
<svg xmlns="http://www.w3.org/2000/svg" version="1.1" width="350px" height="233px" style="shape-rendering:geometricPrecision; text-rendering:geometricPrecision; image-rendering:optimizeQuality; fill-rule:evenodd; clip-rule:evenodd" xmlns:xlink="http://www.w3.org/1999/xlink">
<g><path style="opacity:1" fill="#003b36" d="M -0.5,-0.5 C 116.167,-0.5 232.833,-0.5 349.5,-0.5C 349.5,77.1667 349.5,154.833 349.5,232.5C 232.833,232.5 116.167,232.5 -0.5,232.5C -0.5,154.833 -0.5,77.1667 -0.5,-0.5 Z"/></g>
<g><path style="opacity:1" fill="#e3d798" d="M 95.5,63.5 C 95.5,63.8333 95.5,64.1667 95.5,64.5C 72.0059,65.4976 48.3392,65.8309 24.5,65.5C 25.6085,64.71 26.9419,64.21 28.5,64C 50.8308,63.5 73.1642,63.3334 95.5,63.5 Z"/></g>
<g><path style="opacity:1" fill="#cad09b" d="M 95.5,64.5 C 100.559,65.2403 104.892,67.4069 108.5,71C 110.726,73.9535 112.559,77.1202 114,80.5C 114.83,103.337 114.663,126.004 113.5,148.5C 113.667,126.164 113.5,103.831 113,81.5C 112.283,82.0442 111.783,82.7109 111.5,83.5C 108.061,74.2391 101.395,68.7391 91.5,67C 71.5,66.3333 51.5,66.3333 31.5,67C 23.6329,68.0817 18.2995,72.2483 15.5,79.5C 14.71,80.6085 14.21,81.9419 14,83.5C 13.1707,104.671 13.3373,125.671 14.5,146.5C 14.4957,152.162 16.829,156.495 21.5,159.5C 23.8633,161.68 26.53,163.347 29.5,164.5C 28.596,165.209 28.2627,166.209 28.5,167.5C 23.1465,166.478 18.8132,163.811 15.5,159.5C 14.4884,158.128 13.4884,156.795 12.5,155.5C 11.5178,152.237 10.8511,148.903 10.5,145.5C 11.2679,146.263 11.7679,147.263 12,148.5C 12.833,130.824 12.6663,113.157 11.5,95.5C 10.5006,111.486 10.1672,127.486 10.5,143.5C 9.20622,122.313 9.20622,100.98 10.5,79.5C 13.0016,75.1806 16.0016,71.1806 19.5,67.5C 21.1667,66.8333 22.8333,66.1667 24.5,65.5C 48.3392,65.8309 72.0059,65.4976 95.5,64.5 Z"/></g>
<g><path style="opacity:1" fill="#d5ebe9" d="M 136.5,67.5 C 139.187,67.3359 141.854,67.5026 144.5,68C 147.817,69.0852 148.151,70.5852 145.5,72.5C 140.008,70.0848 136.342,71.5848 134.5,77C 134.703,79.4059 135.703,81.4059 137.5,83C 141.092,83.6714 144.426,83.338 147.5,82C 148.412,84.4882 147.412,86.1548 144.5,87C 134.667,87.8333 130.167,83.3333 131,73.5C 132.36,70.9774 134.193,68.9774 136.5,67.5 Z"/></g>
<g><path style="opacity:1" fill="#d4e9e8" d="M 242.5,67.5 C 244.527,67.3379 246.527,67.5045 248.5,68C 249.973,68.7096 250.64,69.8762 250.5,71.5C 248.167,71.5 245.833,71.5 243.5,71.5C 243.281,72.675 243.614,73.675 244.5,74.5C 250.194,75.6721 252.36,79.0055 251,84.5C 246.796,88.455 242.629,88.455 238.5,84.5C 238.887,83.2801 239.72,82.6135 241,82.5C 243.099,83.2865 245.266,83.6199 247.5,83.5C 247.657,82.1266 247.49,80.7932 247,79.5C 239.09,77.5449 237.59,73.5449 242.5,67.5 Z"/></g>
<g><path style="opacity:1" fill="#173e27" d="M 19.5,67.5 C 16.0016,71.1806 13.0016,75.1806 10.5,79.5C 10.2475,76.6802 10.7475,74.0135 12,71.5C 13.0113,70.6634 14.1779,70.33 15.5,70.5C 15.5,69.5 15.5,68.5 15.5,67.5C 16.8333,67.5 18.1667,67.5 19.5,67.5 Z"/></g>
<g><path style="opacity:1" fill="#aeccc8" d="M 175.5,71.5 C 177.698,70.8347 180.031,70.1681 182.5,69.5C 179.232,68.513 175.898,68.1796 172.5,68.5C 172.5,74.5 172.5,80.5 172.5,86.5C 176.167,86.5 179.833,86.5 183.5,86.5C 179.702,87.4834 175.702,87.8168 171.5,87.5C 171.5,80.8333 171.5,74.1667 171.5,67.5C 175.5,67.5 179.5,67.5 183.5,67.5C 183.5,68.8333 183.5,70.1667 183.5,71.5C 180.833,71.5 178.167,71.5 175.5,71.5 Z"/></g>
<g><path style="opacity:1" fill="#013b36" d="M 103.5,159.5 C 101.206,161.388 98.5395,162.722 95.5,163.5C 74.1641,163.667 52.8307,163.5 31.5,163C 28.2561,161.53 24.9228,160.363 21.5,159.5C 16.829,156.495 14.4957,152.162 14.5,146.5C 14.2839,124.153 14.6172,101.82 15.5,79.5C 16.5,79.5 17.5,79.5 18.5,79.5C 18.3505,78.448 18.5172,77.448 19,76.5C 20.9764,75.1783 22.4764,73.5116 23.5,71.5C 23.5,72.5 23.5,73.5 23.5,74.5C 26.8784,75.1089 28.8784,73.7756 29.5,70.5C 35.8044,70.2173 41.8044,71.2173 47.5,73.5C 47.5,72.1667 47.5,70.8333 47.5,69.5C 63.5,70.6659 79.5,70.8326 95.5,70C 98.0082,70.115 100.008,71.115 101.5,73C 101.167,73.5 100.833,74 100.5,74.5C 98.9291,73.6906 97.2624,73.3573 95.5,73.5C 95.5,74.5 95.5,75.5 95.5,76.5C 99.2912,76.8025 102.958,77.3025 106.5,78C 107.191,79.0674 107.691,80.2341 108,81.5C 108.667,104.5 108.667,127.5 108,150.5C 106.192,153.438 104.692,156.438 103.5,159.5 Z"/></g>
<g><path style="opacity:1" fill="#1d4732" d="M 111.5,83.5 C 111.667,103.503 111.5,123.503 111,143.5C 110.878,150.071 108.378,155.404 103.5,159.5C 104.692,156.438 106.192,153.438 108,150.5C 108.667,127.5 108.667,104.5 108,81.5C 107.691,80.2341 107.191,79.0674 106.5,78C 102.958,77.3025 99.2912,76.8025 95.5,76.5C 95.5,75.5 95.5,74.5 95.5,73.5C 97.2624,73.3573 98.9291,73.6906 100.5,74.5C 100.833,74 101.167,73.5 101.5,73C 100.008,71.115 98.0082,70.115 95.5,70C 79.5,70.8326 63.5,70.6659 47.5,69.5C 47.5,70.8333 47.5,72.1667 47.5,73.5C 41.8044,71.2173 35.8044,70.2173 29.5,70.5C 27.3792,70.3253 25.3792,70.6586 23.5,71.5C 22.4764,73.5116 20.9764,75.1783 19,76.5C 18.5172,77.448 18.3505,78.448 18.5,79.5C 17.5,79.5 16.5,79.5 15.5,79.5C 18.2995,72.2483 23.6329,68.0817 31.5,67C 51.5,66.3333 71.5,66.3333 91.5,67C 101.395,68.7391 108.061,74.2391 111.5,83.5 Z"/></g>
<g><path style="opacity:1" fill="#073449" d="M 29.5,70.5 C 28.8784,73.7756 26.8784,75.1089 23.5,74.5C 23.5,73.5 23.5,72.5 23.5,71.5C 25.3792,70.6586 27.3792,70.3253 29.5,70.5 Z"/></g>
<g><path style="opacity:1" fill="#d6e9e8" d="M 158.5,67.5 C 159.822,67.33 160.989,67.6634 162,68.5C 164.776,74.3853 167.276,80.3853 169.5,86.5C 167.124,87.8166 165.457,87.1499 164.5,84.5C 163,84.1667 161.5,83.8333 160,83.5C 156.666,84.5876 153.499,85.9209 150.5,87.5C 152.609,80.6142 155.276,73.9475 158.5,67.5 Z"/></g>
<g><path style="opacity:1" fill="#def1f0" d="M 221.5,67.5 C 224.85,67.335 228.183,67.5017 231.5,68C 235.446,71.4598 235.446,74.9598 231.5,78.5C 233.115,81.4495 235.115,84.1162 237.5,86.5C 235.833,87.8333 234.167,87.8333 232.5,86.5C 230.573,83.65 228.406,80.9833 226,78.5C 225.601,78.7284 225.435,79.0618 225.5,79.5C 224.532,81.6074 224.198,83.9407 224.5,86.5C 223.5,86.5 222.5,86.5 221.5,86.5C 221.5,80.1667 221.5,73.8333 221.5,67.5 Z"/></g>
<g><path style="opacity:1" fill="#2c453e" d="M 225.5,71.5 C 227.167,71.5 228.833,71.5 230.5,71.5C 230.5,72.8333 230.5,74.1667 230.5,75.5C 228.833,75.5 227.167,75.5 225.5,75.5C 225.5,74.1667 225.5,72.8333 225.5,71.5 Z"/></g>
<g><path style="opacity:1" fill="#364840" d="M 159.5,74.5 C 160.931,75.7804 161.598,77.4471 161.5,79.5C 160.5,79.5 159.5,79.5 158.5,79.5C 158.366,77.7085 158.699,76.0418 159.5,74.5 Z"/></g>
<g><path style="opacity:1" fill="#d7eae8" d="M 197.5,68.5 C 197.5,69.5 197.5,70.5 197.5,71.5C 194.603,71.1253 191.937,71.6253 189.5,73C 192.744,74.6357 195.578,76.8023 198,79.5C 198.721,83.0537 197.554,85.7204 194.5,87.5C 190.92,88.0772 187.92,87.0772 185.5,84.5C 185.887,83.2801 186.72,82.6135 188,82.5C 190.099,83.2865 192.266,83.6199 194.5,83.5C 194.762,82.0222 194.429,80.6888 193.5,79.5C 187.555,78.6081 185.388,75.2747 187,69.5C 190.303,67.2559 193.803,66.9226 197.5,68.5 Z"/></g>
<g><path style="opacity:1" fill="#0e3e34" d="M 221.5,67.5 C 221.5,73.8333 221.5,80.1667 221.5,86.5C 221.5,86.8333 221.5,87.1667 221.5,87.5C 221.953,88.4584 222.619,89.2917 223.5,90C 227.535,90.6965 231.535,90.5299 235.5,89.5C 237.552,90.5122 239.719,91.1789 242,91.5C 246.467,90.4253 250.967,89.4253 255.5,88.5C 255.5,89.8333 255.5,91.1667 255.5,92.5C 261.093,92.1934 266.593,92.5268 272,93.5C 278.252,90.583 284.752,89.9163 291.5,91.5C 292.362,92.7658 293.029,94.0992 293.5,95.5C 293.167,95.5 292.833,95.5 292.5,95.5C 292.167,95.5 291.833,95.5 291.5,95.5C 287.5,94.1667 283.5,94.1667 279.5,95.5C 278.833,95.5 278.5,95.8333 278.5,96.5C 277.342,105.657 277.176,114.991 278,124.5C 278.759,126.063 279.926,127.063 281.5,127.5C 281.33,128.822 281.663,129.989 282.5,131C 281.484,131.519 280.818,132.353 280.5,133.5C 281.548,135.41 281.548,137.244 280.5,139C 281,139.5 281.5,140 282,140.5C 282.831,146.859 282.664,153.193 281.5,159.5C 280.85,161.184 279.85,162.517 278.5,163.5C 277.922,156.287 278.588,149.287 280.5,142.5C 279.5,139.167 278.5,135.833 277.5,132.5C 273.96,129.72 269.96,128.887 265.5,130C 264.058,130.377 263.058,131.21 262.5,132.5C 261.5,133.167 260.5,133.833 259.5,134.5C 258.041,134.567 256.708,134.234 255.5,133.5C 255.5,133.167 255.5,132.833 255.5,132.5C 255.5,132.167 255.5,131.833 255.5,131.5C 257.111,129.905 259.111,128.739 261.5,128C 265.486,127.501 269.486,127.334 273.5,127.5C 273.821,121.974 273.488,116.64 272.5,111.5C 273.744,106.702 273.744,102.035 272.5,97.5C 272.027,96.0937 271.027,95.427 269.5,95.5C 265.03,94.5139 260.363,94.1805 255.5,94.5C 255.5,103.5 255.5,112.5 255.5,121.5C 254.5,121.5 253.5,121.5 252.5,121.5C 252.795,119.265 252.461,117.265 251.5,115.5C 250.488,114.128 249.488,112.795 248.5,111.5C 248.649,110.448 248.483,109.448 248,108.5C 245.965,106.76 244.131,104.926 242.5,103C 242.667,102.5 242.833,102 243,101.5C 243.671,102.252 244.504,102.586 245.5,102.5C 246.918,104.308 248.918,104.975 251.5,104.5C 251.664,101.813 251.497,99.146 251,96.5C 250.617,95.944 250.117,95.6107 249.5,95.5C 245.265,94.564 240.931,94.2307 236.5,94.5C 236.389,93.8826 236.056,93.3826 235.5,93C 232,92.8333 228.5,92.6667 225,92.5C 220.342,92.9437 215.842,92.9437 211.5,92.5C 209.962,92.4534 208.962,93.1201 208.5,94.5C 204.833,94.5 201.167,94.5 197.5,94.5C 196.344,92.1761 195.344,89.8428 194.5,87.5C 197.554,85.7204 198.721,83.0537 198,79.5C 195.578,76.8023 192.744,74.6357 189.5,73C 191.937,71.6253 194.603,71.1253 197.5,71.5C 197.5,70.5 197.5,69.5 197.5,68.5C 198.117,68.6107 198.617,68.944 199,69.5C 200.333,67.5 202,65.8333 204,64.5C 204.667,65.1667 205.333,65.8333 206,66.5C 206.745,65.0096 207.912,64.0096 209.5,63.5C 211.519,64.4804 213.353,65.8138 215,67.5C 216.441,66.7402 217.941,66.0736 219.5,65.5C 220.696,65.8457 220.696,66.3457 219.5,67C 220.094,67.4643 220.761,67.631 221.5,67.5 Z"/></g>
<g><path style="opacity:1" fill="#eaf7f5" d="M 175.5,71.5 C 175.5,72.5 175.5,73.5 175.5,74.5C 177.5,74.5 179.5,74.5 181.5,74.5C 181.5,75.8333 181.5,77.1667 181.5,78.5C 179.5,78.5 177.5,78.5 175.5,78.5C 175.5,80.1667 175.5,81.8333 175.5,83.5C 178.167,83.5 180.833,83.5 183.5,83.5C 183.5,84.5 183.5,85.5 183.5,86.5C 179.833,86.5 176.167,86.5 172.5,86.5C 172.5,80.5 172.5,74.5 172.5,68.5C 175.898,68.1796 179.232,68.513 182.5,69.5C 180.031,70.1681 177.698,70.8347 175.5,71.5 Z"/></g>
<g><path style="opacity:1" fill="#e0eeed" d="M 207.5,67.5 C 208.978,67.238 210.311,67.5713 211.5,68.5C 214.449,74.6888 216.783,81.0221 218.5,87.5C 215.679,87.6841 214.012,86.3507 213.5,83.5C 210.833,82.1667 208.167,82.1667 205.5,83.5C 204.754,84.7362 204.421,86.0695 204.5,87.5C 203.167,87.5 201.833,87.5 200.5,87.5C 202.844,80.8002 205.177,74.1335 207.5,67.5 Z"/></g>
<g><path style="opacity:1" fill="#3e5c56" d="M 209.5,74.5 C 210.931,75.7804 211.598,77.4471 211.5,79.5C 210.022,79.762 208.689,79.4287 207.5,78.5C 208.18,77.1401 208.847,75.8068 209.5,74.5 Z"/></g>
<g><path style="opacity:1" fill="#8fb3ae" d="M 225.5,79.5 C 225.5,82.1667 225.5,84.8333 225.5,87.5C 224.167,87.5 222.833,87.5 221.5,87.5C 221.5,87.1667 221.5,86.8333 221.5,86.5C 222.5,86.5 223.5,86.5 224.5,86.5C 224.198,83.9407 224.532,81.6074 225.5,79.5 Z"/></g>
<g><path style="opacity:1" fill="#7bb1b0" d="M 253.5,83.5 C 255.912,83.6941 256.912,85.0274 256.5,87.5C 255.167,87.5 253.833,87.5 252.5,87.5C 252.433,86.0413 252.766,84.7079 253.5,83.5 Z"/></g>
<g><path style="opacity:1" fill="#1a402c" d="M 79.5,104.5 C 79.3653,102.446 80.032,100.779 81.5,99.5C 81.7678,97.901 81.4345,96.5676 80.5,95.5C 80.8333,94.8333 81.1667,94.1667 81.5,93.5C 81.5,92.5 81.5,91.5 81.5,90.5C 68.8333,90.5 56.1667,90.5 43.5,90.5C 43.5,91.5 43.5,92.5 43.5,93.5C 44.1667,94.1667 44.8333,94.8333 45.5,95.5C 43.7483,95.4176 42.7483,96.2509 42.5,98C 42.7483,99.7491 43.7483,100.582 45.5,100.5C 45.5,100.833 45.5,101.167 45.5,101.5C 45.2852,103.179 45.9519,104.179 47.5,104.5C 47.5,105.167 47.5,105.833 47.5,106.5C 48.4408,108.05 49.1075,109.716 49.5,111.5C 48.0689,111.119 47.2355,110.119 47,108.5C 46.6667,109.167 46.3333,109.833 46,110.5C 44.1115,105.908 41.9449,101.408 39.5,97C 40.5652,92.8791 40.5652,88.5458 39.5,84C 40.6667,83.5 41.5,82.6667 42,81.5C 51.7954,82.3063 61.6287,83.3063 71.5,84.5C 76.5472,84.8414 80.8805,83.3414 84.5,80C 85.5,79.3333 86.5,79.3333 87.5,80C 86.113,84.6775 84.4463,89.5108 82.5,94.5C 83.7308,97.5384 83.5641,100.538 82,103.5C 81.3292,104.252 80.4959,104.586 79.5,104.5 Z"/></g>
<g><path style="opacity:1" fill="#798559" d="M 81.5,85.5 C 82.4345,86.5676 82.7678,87.901 82.5,89.5C 78.5,89.5 74.5,89.5 70.5,89.5C 70.5,89.1667 70.5,88.8333 70.5,88.5C 74.1667,88.5 77.8333,88.5 81.5,88.5C 81.5,87.5 81.5,86.5 81.5,85.5 Z"/></g>
<g><path style="opacity:1" fill="#848e6d" d="M 43.5,85.5 C 43.5,86.5 43.5,87.5 43.5,88.5C 51.5,88.5 59.5,88.5 67.5,88.5C 68.5,88.5 69.5,88.5 70.5,88.5C 70.5,88.8333 70.5,89.1667 70.5,89.5C 61.1667,89.5 51.8333,89.5 42.5,89.5C 42.2322,87.901 42.5655,86.5676 43.5,85.5 Z"/></g>
<g><path style="opacity:1" fill="#d4c98f" d="M 71.5,85.5 C 74.8333,85.5 78.1667,85.5 81.5,85.5C 81.5,86.5 81.5,87.5 81.5,88.5C 77.8333,88.5 74.1667,88.5 70.5,88.5C 69.5,88.5 68.5,88.5 67.5,88.5C 67.3893,87.8826 67.056,87.3826 66.5,87C 68.3817,86.8019 70.0484,86.3019 71.5,85.5 Z"/></g>
<g><path style="opacity:1" fill="#e4ddb8" d="M 43.5,85.5 C 52.8333,85.5 62.1667,85.5 71.5,85.5C 70.0484,86.3019 68.3817,86.8019 66.5,87C 67.056,87.3826 67.3893,87.8826 67.5,88.5C 59.5,88.5 51.5,88.5 43.5,88.5C 43.5,87.5 43.5,86.5 43.5,85.5 Z"/></g>
<g><path style="opacity:1" fill="#b3c19a" d="M 81.5,93.5 C 80.8333,93.5 80.1667,93.5 79.5,93.5C 72.2395,91.5349 64.5729,90.8682 56.5,91.5C 52.9878,90.9455 49.9878,91.6122 47.5,93.5C 46.1667,93.5 44.8333,93.5 43.5,93.5C 43.5,92.5 43.5,91.5 43.5,90.5C 56.1667,90.5 68.8333,90.5 81.5,90.5C 81.5,91.5 81.5,92.5 81.5,93.5 Z"/></g>
<g><path style="opacity:1" fill="#d8cc89" d="M 56.5,91.5 C 59.2583,92.9665 58.925,93.6332 55.5,93.5C 52.6717,94.4967 50.005,94.4967 47.5,93.5C 49.9878,91.6122 52.9878,90.9455 56.5,91.5 Z"/></g>
<g><path style="opacity:1" fill="#163e2b" d="M 172.5,99.5 C 172.334,107.84 172.5,116.173 173,124.5C 173.5,125 174,125.5 174.5,126C 178.821,126.499 183.154,126.666 187.5,126.5C 187.5,127.167 187.167,127.5 186.5,127.5C 182.818,127.335 179.152,127.501 175.5,128C 176.263,128.944 177.263,129.444 178.5,129.5C 180.135,128.954 181.801,128.62 183.5,128.5C 183.5,129.5 183.5,130.5 183.5,131.5C 178.031,130.52 172.697,130.854 167.5,132.5C 166.5,132.833 165.833,133.5 165.5,134.5C 164.523,137.287 164.19,140.287 164.5,143.5C 164.167,143.5 163.833,143.5 163.5,143.5C 163.724,139.046 163.724,134.712 163.5,130.5C 165.22,130.254 167.22,130.254 169.5,130.5C 171.575,125.322 171.575,119.989 169.5,114.5C 166.444,116.289 163.111,116.956 159.5,116.5C 159.955,118.367 160.622,120.2 161.5,122C 160.622,123.8 159.955,125.633 159.5,127.5C 151.519,126.456 143.519,126.789 135.5,128.5C 139.167,129.167 142.833,129.833 146.5,130.5C 149.151,132.65 151.651,134.983 154,137.5C 158.623,135.322 160.623,136.656 160,141.5C 156.433,139.854 153.266,140.354 150.5,143C 151.766,143.309 152.933,143.809 154,144.5C 154.333,144.167 154.667,143.833 155,143.5C 155.5,144.667 156.333,145.5 157.5,146C 156.833,148.667 156.167,151.333 155.5,154C 159.737,158.969 159.403,163.636 154.5,168C 152.4,166.824 150.066,165.657 147.5,164.5C 145.315,164.852 143.481,165.852 142,167.5C 137.951,166.898 133.951,166.231 130,165.5C 129.17,159.472 129.336,153.472 130.5,147.5C 131.518,146.807 132.518,146.141 133.5,145.5C 134.043,145.56 134.376,145.893 134.5,146.5C 133.452,147.548 132.452,148.548 131.5,149.5C 130.838,151.304 130.505,153.304 130.5,155.5C 130.32,158.58 130.986,161.413 132.5,164C 138.593,165.567 143.926,164.4 148.5,160.5C 150.167,161.833 151.833,163.167 153.5,164.5C 155.046,163.788 156.046,162.622 156.5,161C 154.339,159.004 152.339,156.838 150.5,154.5C 151.833,151.833 153.167,149.167 154.5,146.5C 152.604,145.534 150.604,145.201 148.5,145.5C 146.509,145.682 144.509,145.182 142.5,144C 144.708,143.809 146.708,143.309 148.5,142.5C 148.5,142.167 148.5,141.833 148.5,141.5C 148.98,138.315 148.314,135.481 146.5,133C 141.98,132.186 137.646,132.353 133.5,133.5C 132.883,133.611 132.383,133.944 132,134.5C 131.502,137.482 131.335,140.482 131.5,143.5C 129.871,139.687 129.537,135.687 130.5,131.5C 129.99,129.912 128.99,128.745 127.5,128C 131.07,127.411 131.404,126.077 128.5,124C 129.185,121.205 129.685,118.372 130,115.5C 131.011,114.663 132.178,114.33 133.5,114.5C 133.657,113.127 133.49,111.793 133,110.5C 130.093,107.88 128.926,104.546 129.5,100.5C 129.64,97.9568 130.306,95.6234 131.5,93.5C 130.975,92.8076 130.308,92.3076 129.5,92C 129.833,91.6667 130.167,91.3333 130.5,91C 133.195,90.7457 135.695,90.579 138,90.5C 141.424,92.089 144.924,92.4223 148.5,91.5C 152.103,93.7149 155.603,93.3815 159,90.5C 162.325,91.9436 165.825,92.9436 169.5,93.5C 170.213,95.7759 170.713,98.1093 171,100.5C 171.383,99.944 171.883,99.6107 172.5,99.5 Z"/></g>
<g><path style="opacity:1" fill="#18412c" d="M 338.5,94.5 C 336.265,94.2053 334.265,94.5386 332.5,95.5C 330.006,99.1555 328.006,103.155 326.5,107.5C 325.532,105.393 325.198,103.059 325.5,100.5C 325.5,98.5 325.5,96.5 325.5,94.5C 323.5,94.5 321.5,94.5 319.5,94.5C 319.5,104.833 319.5,115.167 319.5,125.5C 313.72,127.23 307.72,127.897 301.5,127.5C 301.5,127.167 301.5,126.833 301.5,126.5C 305.514,126.666 309.514,126.499 313.5,126C 314,125.5 314.5,125 315,124.5C 315.824,114.991 315.658,105.657 314.5,96.5C 312.193,94.9532 309.527,94.2865 306.5,94.5C 303.514,94.2893 300.847,94.956 298.5,96.5C 298.36,94.8762 299.027,93.7096 300.5,93C 307.37,92.7791 314.203,92.2791 321,91.5C 325.564,93.5485 330.231,93.8818 335,92.5C 336.681,92.6083 337.848,93.2749 338.5,94.5 Z"/></g>
<g><path style="opacity:1" fill="#103b27" d="M 236.5,94.5 C 234.513,97.8585 234.013,101.525 235,105.5C 237.964,109.466 241.297,113.133 245,116.5C 245.494,118.134 245.66,119.801 245.5,121.5C 244.167,121.5 242.833,121.5 241.5,121.5C 240.833,121.5 240.5,121.167 240.5,120.5C 240.241,116.932 238.241,115.599 234.5,116.5C 234.318,114.409 234.652,112.409 235.5,110.5C 233.336,107.394 232.003,104.061 231.5,100.5C 231.5,98.5 231.5,96.5 231.5,94.5C 225.642,94.1778 219.975,94.5111 214.5,95.5C 214.077,97.7812 214.744,99.4479 216.5,100.5C 216.326,102.861 215.993,105.194 215.5,107.5C 214.041,107.433 212.708,107.766 211.5,108.5C 211.666,104.486 211.499,100.486 211,96.5C 210.329,95.7476 209.496,95.4142 208.5,95.5C 208.5,95.1667 208.5,94.8333 208.5,94.5C 208.962,93.1201 209.962,92.4534 211.5,92.5C 215.842,92.9437 220.342,92.9437 225,92.5C 228.5,92.6667 232,92.8333 235.5,93C 236.056,93.3826 236.389,93.8826 236.5,94.5 Z"/></g>
<g><path style="opacity:1" fill="#86a88b" d="M 214.5,95.5 C 219.975,94.5111 225.642,94.1778 231.5,94.5C 231.5,96.5 231.5,98.5 231.5,100.5C 231.167,100.5 230.833,100.5 230.5,100.5C 228.833,100.5 227.167,100.5 225.5,100.5C 226.919,99.5489 228.585,99.2155 230.5,99.5C 230.5,98.1667 230.5,96.8333 230.5,95.5C 225.167,95.5 219.833,95.5 214.5,95.5 Z"/></g>
<g><path style="opacity:1" fill="#073a2e" d="M 10.5,79.5 C 9.20622,100.98 9.20622,122.313 10.5,143.5C 10.5,144.167 10.5,144.833 10.5,145.5C 10.8511,148.903 11.5178,152.237 12.5,155.5C 10.3379,155.897 9.00459,157.231 8.5,159.5C 7.67472,155.878 7.17472,152.211 7,148.5C 6,149.833 5,149.833 4,148.5C 3.66667,146.833 3.33333,145.167 3,143.5C 2.50007,127.503 2.33341,111.503 2.5,95.5C 3.5,95.5 4.5,95.5 5.5,95.5C 5.16724,111.514 5.50058,127.514 6.5,143.5C 7.33299,125.509 7.83299,107.509 8,89.5C 8.33333,86.5 8.66667,83.5 9,80.5C 9.38258,79.944 9.88258,79.6107 10.5,79.5 Z"/></g>
<g><path style="opacity:1" fill="#eede9a" d="M 10.5,145.5 C 10.5,144.833 10.5,144.167 10.5,143.5C 10.1672,127.486 10.5006,111.486 11.5,95.5C 12.6663,113.157 12.833,130.824 12,148.5C 11.7679,147.263 11.2679,146.263 10.5,145.5 Z"/></g>
<g><path style="opacity:1" fill="#9ec094" d="M 332.5,95.5 C 334.265,94.5386 336.265,94.2053 338.5,94.5C 338.008,96.8185 337.008,98.8185 335.5,100.5C 335.5,98.8333 335.5,97.1667 335.5,95.5C 334.5,95.5 333.5,95.5 332.5,95.5 Z"/></g>
<g><path style="opacity:1" fill="#b4b686" d="M 45.5,95.5 C 48.1667,97.1667 48.1667,98.8333 45.5,100.5C 43.7483,100.582 42.7483,99.7491 42.5,98C 42.7483,96.2509 43.7483,95.4176 45.5,95.5 Z"/></g>
<g><path style="opacity:1" fill="#596a44" d="M 43.5,93.5 C 44.8333,93.5 46.1667,93.5 47.5,93.5C 50.005,94.4967 52.6717,94.4967 55.5,93.5C 59.2017,101.132 57.2017,103.132 49.5,99.5C 48.3777,100.63 47.0443,101.297 45.5,101.5C 45.5,101.167 45.5,100.833 45.5,100.5C 48.1667,98.8333 48.1667,97.1667 45.5,95.5C 44.8333,94.8333 44.1667,94.1667 43.5,93.5 Z"/></g>
<g><path style="opacity:1" fill="#c9cd9e" d="M 51.5,95.5 C 52.8333,95.5 54.1667,95.5 55.5,95.5C 55.5,96.8333 55.5,98.1667 55.5,99.5C 54.1667,99.5 52.8333,99.5 51.5,99.5C 51.5,98.1667 51.5,96.8333 51.5,95.5 Z"/></g>
<g><path style="opacity:1" fill="#bdbf94" d="M 80.5,95.5 C 81.4345,96.5676 81.7678,97.901 81.5,99.5C 80.1667,99.5 78.8333,99.5 77.5,99.5C 77.5,98.1667 77.5,96.8333 77.5,95.5C 78.5,95.5 79.5,95.5 80.5,95.5 Z"/></g>
<g><path style="opacity:1" fill="#ddcd8a" d="M 208.5,95.5 C 209.496,95.4142 210.329,95.7476 211,96.5C 211.499,100.486 211.666,104.486 211.5,108.5C 210.977,111.028 209.977,113.361 208.5,115.5C 209.71,119.128 210.71,122.794 211.5,126.5C 209.5,126.5 207.5,126.5 205.5,126.5C 205.279,123.933 204.612,121.599 203.5,119.5C 203.5,117.833 203.5,116.167 203.5,114.5C 202.5,114.5 201.5,114.5 200.5,114.5C 200.44,113.957 200.107,113.624 199.5,113.5C 198.833,117.167 198.167,120.833 197.5,124.5C 196.808,123.975 196.308,123.308 196,122.5C 195.252,113.465 195.419,104.465 196.5,95.5C 200.5,95.5 204.5,95.5 208.5,95.5 Z"/></g>
<g><path style="opacity:1" fill="#e9d692" d="M 214.5,95.5 C 219.833,95.5 225.167,95.5 230.5,95.5C 230.5,96.8333 230.5,98.1667 230.5,99.5C 228.585,99.2155 226.919,99.5489 225.5,100.5C 225.5,109.167 225.5,117.833 225.5,126.5C 223.833,126.5 222.167,126.5 220.5,126.5C 220.826,117.651 220.493,108.984 219.5,100.5C 218.5,100.5 217.5,100.5 216.5,100.5C 214.744,99.4479 214.077,97.7812 214.5,95.5 Z"/></g>
<g><path style="opacity:1" fill="#698563" d="M 167.5,95.5 C 162.833,95.5 158.167,95.5 153.5,95.5C 152.506,105.653 152.172,115.986 152.5,126.5C 151.506,116.013 151.172,105.346 151.5,94.5C 157.026,94.1786 162.36,94.5119 167.5,95.5 Z"/></g>
<g><path style="opacity:1" fill="#cfc78b" d="M 175.5,94.5 C 179.702,94.1832 183.702,94.5166 187.5,95.5C 186.5,95.5 185.5,95.5 184.5,95.5C 185.759,104.308 185.759,112.975 184.5,121.5C 184.5,122.5 184.5,123.5 184.5,124.5C 185.833,124.5 187.167,124.5 188.5,124.5C 188.5,114.833 188.5,105.167 188.5,95.5C 189.117,95.6107 189.617,95.944 190,96.5C 190.667,105.833 190.667,115.167 190,124.5C 189.292,125.381 188.458,126.047 187.5,126.5C 183.154,126.666 178.821,126.499 174.5,126C 174,125.5 173.5,125 173,124.5C 172.5,116.173 172.334,107.84 172.5,99.5C 172.75,97.326 173.75,95.6594 175.5,94.5 Z"/></g>
<g><path style="opacity:1" fill="#ded290" d="M 236.5,94.5 C 240.931,94.2307 245.265,94.564 249.5,95.5C 250.265,98.0961 250.599,100.763 250.5,103.5C 249.167,103.5 247.833,103.5 246.5,103.5C 246.737,102.209 246.404,101.209 245.5,100.5C 244.054,99.3871 242.387,99.2204 240.5,100C 239.941,100.725 239.608,101.558 239.5,102.5C 242.161,105.827 245.161,108.827 248.5,111.5C 249.488,112.795 250.488,114.128 251.5,115.5C 251.665,118.518 251.498,121.518 251,124.5C 250.5,125 250,125.5 249.5,126C 245.167,126.667 240.833,126.667 236.5,126C 235.944,125.617 235.611,125.117 235.5,124.5C 237.262,124.357 238.929,124.691 240.5,125.5C 241.429,124.311 241.762,122.978 241.5,121.5C 242.833,121.5 244.167,121.5 245.5,121.5C 245.66,119.801 245.494,118.134 245,116.5C 241.297,113.133 237.964,109.466 235,105.5C 234.013,101.525 234.513,97.8585 236.5,94.5 Z"/></g>
<g><path style="opacity:1" fill="#f0d187" d="M 187.5,95.5 C 187.833,95.5 188.167,95.5 188.5,95.5C 188.5,105.167 188.5,114.833 188.5,124.5C 187.167,124.5 185.833,124.5 184.5,124.5C 184.5,123.5 184.5,122.5 184.5,121.5C 185.759,112.975 185.759,104.308 184.5,95.5C 185.5,95.5 186.5,95.5 187.5,95.5 Z"/></g>
<g><path style="opacity:1" fill="#f1d08a" d="M 279.5,95.5 C 282.167,95.5 284.833,95.5 287.5,95.5C 287.5,96.5 287.5,97.5 287.5,98.5C 285.5,98.5 283.5,98.5 281.5,98.5C 281.175,106.352 281.508,114.018 282.5,121.5C 282.5,122.5 282.5,123.5 282.5,124.5C 281.178,124.67 280.011,124.337 279,123.5C 278.5,114.506 278.334,105.506 278.5,96.5C 278.5,95.8333 278.833,95.5 279.5,95.5 Z"/></g>
<g><path style="opacity:1" fill="#254726" d="M 245.5,100.5 C 245.5,101.167 245.5,101.833 245.5,102.5C 244.504,102.586 243.671,102.252 243,101.5C 242.833,102 242.667,102.5 242.5,103C 244.131,104.926 245.965,106.76 248,108.5C 248.483,109.448 248.649,110.448 248.5,111.5C 245.161,108.827 242.161,105.827 239.5,102.5C 239.608,101.558 239.941,100.725 240.5,100C 242.387,99.2204 244.054,99.3871 245.5,100.5 Z"/></g>
<g><path style="opacity:1" fill="#d2d2a9" d="M 56.5,91.5 C 64.5729,90.8682 72.2395,91.5349 79.5,93.5C 76.9504,93.8844 75.6171,95.3844 75.5,98C 76.5225,100.17 77.5225,102.336 78.5,104.5C 68.1667,104.5 57.8333,104.5 47.5,104.5C 45.9519,104.179 45.2852,103.179 45.5,101.5C 47.0443,101.297 48.3777,100.63 49.5,99.5C 57.2017,103.132 59.2017,101.132 55.5,93.5C 58.925,93.6332 59.2583,92.9665 56.5,91.5 Z"/></g>
<g><path style="opacity:1" fill="#475f43" d="M 59.5,94.5 C 62.1569,94.162 64.4902,94.8287 66.5,96.5C 72.042,92.8731 74.542,94.2064 74,100.5C 71.2886,101.926 68.7886,101.592 66.5,99.5C 59.9571,103.286 57.6237,101.62 59.5,94.5 Z"/></g>
<g><path style="opacity:1" fill="#d7e5d2" d="M 60.5,95.5 C 64.1612,95.3501 65.1612,96.8501 63.5,100C 60.2414,99.9181 59.2414,98.4181 60.5,95.5 Z"/></g>
<g><path style="opacity:1" fill="#bfcaa0" d="M 69.5,95.5 C 72.694,95.1756 73.694,96.3422 72.5,99C 71.2068,99.49 69.8734,99.6567 68.5,99.5C 68.4326,98.0413 68.7659,96.7079 69.5,95.5 Z"/></g>
<g><path style="opacity:1" fill="#9ba16d" d="M 269.5,95.5 C 269.167,95.5 268.833,95.5 268.5,95.5C 264.833,95.5 261.167,95.5 257.5,95.5C 256.833,105.5 256.167,115.5 255.5,125.5C 255.5,124.167 255.5,122.833 255.5,121.5C 255.5,112.5 255.5,103.5 255.5,94.5C 260.363,94.1805 265.03,94.5139 269.5,95.5 Z"/></g>
<g><path style="opacity:1" fill="#a6b68e" d="M 249.5,95.5 C 250.117,95.6107 250.617,95.944 251,96.5C 251.497,99.146 251.664,101.813 251.5,104.5C 248.918,104.975 246.918,104.308 245.5,102.5C 245.5,101.833 245.5,101.167 245.5,100.5C 246.404,101.209 246.737,102.209 246.5,103.5C 247.833,103.5 249.167,103.5 250.5,103.5C 250.599,100.763 250.265,98.0961 249.5,95.5 Z"/></g>
<g><path style="opacity:1" fill="#cbc68b" d="M 292.5,95.5 C 292.833,95.5 293.167,95.5 293.5,95.5C 294.234,96.7079 294.567,98.0413 294.5,99.5C 294.775,108.221 294.442,116.887 293.5,125.5C 289.742,127.254 285.742,127.921 281.5,127.5C 279.926,127.063 278.759,126.063 278,124.5C 277.176,114.991 277.342,105.657 278.5,96.5C 278.334,105.506 278.5,114.506 279,123.5C 280.011,124.337 281.178,124.67 282.5,124.5C 282.5,123.5 282.5,122.5 282.5,121.5C 282.833,121.5 283.167,121.5 283.5,121.5C 285.415,121.784 287.081,121.451 288.5,120.5C 288.833,120.5 289.167,120.5 289.5,120.5C 287.814,123.537 288.814,124.87 292.5,124.5C 292.5,114.833 292.5,105.167 292.5,95.5 Z"/></g>
<g><path style="opacity:1" fill="#e8d08b" d="M 153.5,95.5 C 158.167,95.5 162.833,95.5 167.5,95.5C 168.117,95.6107 168.617,95.944 169,96.5C 169.667,101.5 169.667,106.5 169,111.5C 165.673,114.154 161.839,115.154 157.5,114.5C 156.521,117.625 156.187,120.958 156.5,124.5C 155.5,124.5 154.5,124.5 153.5,124.5C 153.5,114.833 153.5,105.167 153.5,95.5 Z"/></g>
<g><path style="opacity:1" fill="#11351f" d="M 163.5,100.5 C 163.5,103.167 163.5,105.833 163.5,108.5C 161.833,108.5 160.167,108.5 158.5,108.5C 158.5,105.833 158.5,103.167 158.5,100.5C 160.167,100.5 161.833,100.5 163.5,100.5 Z"/></g>
<g><path style="opacity:1" fill="#d9d29a" d="M 158.5,109.5 C 160.415,109.784 162.081,109.451 163.5,108.5C 163.5,105.833 163.5,103.167 163.5,100.5C 161.735,99.5386 159.735,99.2053 157.5,99.5C 157.5,102.167 157.5,104.833 157.5,107.5C 156.523,104.713 156.19,101.713 156.5,98.5C 158.591,98.6816 160.591,98.3482 162.5,97.5C 163.478,97.9767 164.311,98.6433 165,99.5C 165.837,103.295 165.504,106.961 164,110.5C 162.333,110.833 160.667,111.167 159,111.5C 158.536,110.906 158.369,110.239 158.5,109.5 Z"/></g>
<g><path style="opacity:1" fill="#657e4f" d="M 272.5,97.5 C 273.744,102.035 273.744,106.702 272.5,111.5C 271.596,110.791 271.263,109.791 271.5,108.5C 272.482,105.038 272.815,101.371 272.5,97.5 Z"/></g>
<g><path style="opacity:1" fill="#143b2a" d="M 298.5,97.5 C 298.173,106.682 298.507,115.682 299.5,124.5C 299.833,125.5 300.5,126.167 301.5,126.5C 301.5,126.833 301.5,127.167 301.5,127.5C 299.328,127.163 297.495,126.163 296,124.5C 295.098,124.743 294.265,125.077 293.5,125.5C 294.442,116.887 294.775,108.221 294.5,99.5C 296.199,99.4729 297.533,98.8062 298.5,97.5 Z"/></g>
<g><path style="opacity:1" fill="#d9cc8d" d="M 314.5,96.5 C 314.971,105.616 314.305,114.616 312.5,123.5C 311.675,124.386 310.675,124.719 309.5,124.5C 309.5,123.5 309.5,122.5 309.5,121.5C 309.5,114.5 309.5,107.5 309.5,100.5C 307.833,100.5 306.167,100.5 304.5,100.5C 304.5,107.5 304.5,114.5 304.5,121.5C 305.684,122.688 305.684,123.855 304.5,125C 302.803,125.384 301.137,125.218 299.5,124.5C 298.507,115.682 298.173,106.682 298.5,97.5C 298.5,97.1667 298.5,96.8333 298.5,96.5C 300.847,94.956 303.514,94.2893 306.5,94.5C 309.527,94.2865 312.193,94.9532 314.5,96.5 Z"/></g>
<g><path style="opacity:1" fill="#123926" d="M 309.5,121.5 C 307.833,121.5 306.167,121.5 304.5,121.5C 304.5,114.5 304.5,107.5 304.5,100.5C 306.167,100.5 307.833,100.5 309.5,100.5C 309.5,107.5 309.5,114.5 309.5,121.5 Z"/></g>
<g><path style="opacity:1" fill="#47623a" d="M 79.5,93.5 C 80.1667,93.5 80.8333,93.5 81.5,93.5C 81.1667,94.1667 80.8333,94.8333 80.5,95.5C 79.5,95.5 78.5,95.5 77.5,95.5C 77.5,96.8333 77.5,98.1667 77.5,99.5C 78.8333,99.5 80.1667,99.5 81.5,99.5C 80.032,100.779 79.3653,102.446 79.5,104.5C 79.1898,106.144 78.1898,107.144 76.5,107.5C 69.6866,106.509 62.6866,106.175 55.5,106.5C 52.8333,106.5 50.1667,106.5 47.5,106.5C 47.5,105.833 47.5,105.167 47.5,104.5C 57.8333,104.5 68.1667,104.5 78.5,104.5C 77.5225,102.336 76.5225,100.17 75.5,98C 75.6171,95.3844 76.9504,93.8844 79.5,93.5 Z"/></g>
<g><path style="opacity:1" fill="#c6c895" d="M 194.5,94.5 C 195.5,94.5 196.5,94.5 197.5,94.5C 201.167,94.5 204.833,94.5 208.5,94.5C 208.5,94.8333 208.5,95.1667 208.5,95.5C 204.5,95.5 200.5,95.5 196.5,95.5C 195.419,104.465 195.252,113.465 196,122.5C 196.308,123.308 196.808,123.975 197.5,124.5C 198.167,120.833 198.833,117.167 199.5,113.5C 200.107,113.624 200.44,113.957 200.5,114.5C 200.5,118.5 200.5,122.5 200.5,126.5C 198.5,126.5 196.5,126.5 194.5,126.5C 194.5,115.833 194.5,105.167 194.5,94.5 Z"/></g>
<g><path style="opacity:1" fill="#0e3323" d="M 200.5,100.5 C 202.167,100.5 203.833,100.5 205.5,100.5C 205.5,103.167 205.5,105.833 205.5,108.5C 203.833,108.5 202.167,108.5 200.5,108.5C 200.5,105.833 200.5,103.167 200.5,100.5 Z"/></g>
<g><path style="opacity:1" fill="#ebe1bc" d="M 55.5,106.5 C 62.6866,106.175 69.6866,106.509 76.5,107.5C 74.3672,112.821 70.7005,116.487 65.5,118.5C 63.5,118.5 61.5,118.5 59.5,118.5C 58.8333,118.167 58.1667,117.833 57.5,117.5C 56.6057,115.423 55.6057,113.423 54.5,111.5C 55.4345,110.432 55.7678,109.099 55.5,107.5C 55.5,107.167 55.5,106.833 55.5,106.5 Z"/></g>
<g><path style="opacity:1" fill="#768054" d="M 163.5,100.5 C 161.833,100.5 160.167,100.5 158.5,100.5C 158.5,103.167 158.5,105.833 158.5,108.5C 160.167,108.5 161.833,108.5 163.5,108.5C 162.081,109.451 160.415,109.784 158.5,109.5C 157.662,109.158 157.328,108.492 157.5,107.5C 157.5,104.833 157.5,102.167 157.5,99.5C 159.735,99.2053 161.735,99.5386 163.5,100.5 Z"/></g>
<g><path style="opacity:1" fill="#e9cc8c" d="M 55.5,107.5 C 55.7678,109.099 55.4345,110.432 54.5,111.5C 53.5,111.5 52.5,111.5 51.5,111.5C 51.1667,108.5 52.5,107.167 55.5,107.5 Z"/></g>
<g><path style="opacity:1" fill="#4a5e3a" d="M 184.5,121.5 C 184.167,121.5 183.833,121.5 183.5,121.5C 183.5,114.5 183.5,107.5 183.5,100.5C 182.167,100.5 180.833,100.5 179.5,100.5C 179.5,107.5 179.5,114.5 179.5,121.5C 178.508,114.352 178.175,107.019 178.5,99.5C 180.5,99.5 182.5,99.5 184.5,99.5C 184.5,106.833 184.5,114.167 184.5,121.5 Z"/></g>
<g><path style="opacity:1" fill="#ead18a" d="M 271.5,108.5 C 271.263,109.791 271.596,110.791 272.5,111.5C 272.818,116.032 272.485,120.366 271.5,124.5C 266.801,125.501 262.134,125.168 257.5,123.5C 259.44,122.472 261.44,122.472 263.5,123.5C 265.038,123.547 266.038,122.88 266.5,121.5C 267.477,118.713 267.81,115.713 267.5,112.5C 263.701,111.039 263.701,109.372 267.5,107.5C 269.062,105.628 270.062,103.295 270.5,100.5C 271.48,103.086 271.813,105.753 271.5,108.5 Z"/></g>
<g><path style="opacity:1" fill="#224428" d="M 15.5,79.5 C 14.6172,101.82 14.2839,124.153 14.5,146.5C 13.3373,125.671 13.1707,104.671 14,83.5C 14.21,81.9419 14.71,80.6085 15.5,79.5 Z"/></g>
<g><path style="opacity:1" fill="#c0c599" d="M 47.5,106.5 C 50.1667,106.5 52.8333,106.5 55.5,106.5C 55.5,106.833 55.5,107.167 55.5,107.5C 52.5,107.167 51.1667,108.5 51.5,111.5C 52.5,111.5 53.5,111.5 54.5,111.5C 55.6057,113.423 56.6057,115.423 57.5,117.5C 54.5691,115.909 51.9024,113.909 49.5,111.5C 49.1075,109.716 48.4408,108.05 47.5,106.5 Z"/></g>
<g><path style="opacity:1" fill="#0c3a25" d="M 288.5,100.5 C 288.5,107.167 288.5,113.833 288.5,120.5C 287.081,121.451 285.415,121.784 283.5,121.5C 283.5,114.5 283.5,107.5 283.5,100.5C 285.167,100.5 286.833,100.5 288.5,100.5 Z"/></g>
<g><path style="opacity:1" fill="#5c7754" d="M 288.5,100.5 C 286.833,100.5 285.167,100.5 283.5,100.5C 283.5,107.5 283.5,114.5 283.5,121.5C 283.167,121.5 282.833,121.5 282.5,121.5C 282.5,114.167 282.5,106.833 282.5,99.5C 284.735,99.2053 286.735,99.5386 288.5,100.5 Z"/></g>
<g><path style="opacity:1" fill="#dbce92" d="M 324.5,100.5 C 323.883,100.389 323.383,100.056 323,99.5C 322.228,103.89 322.394,108.223 323.5,112.5C 321.534,115.549 321.034,118.882 322,122.5C 322.667,123.833 323.333,123.833 324,122.5C 324.333,120.167 324.667,117.833 325,115.5C 326.356,114.62 327.856,114.286 329.5,114.5C 329.5,112.833 329.5,111.167 329.5,109.5C 327.821,109.715 326.821,109.048 326.5,107.5C 328.006,103.155 330.006,99.1555 332.5,95.5C 333.5,95.5 334.5,95.5 335.5,95.5C 335.5,97.1667 335.5,98.8333 335.5,100.5C 334.044,103.247 332.711,106.08 331.5,109C 333.455,112.366 335.122,115.866 336.5,119.5C 337.566,121.701 338.233,124.035 338.5,126.5C 336.5,126.5 334.5,126.5 332.5,126.5C 329.001,111.943 326.668,111.943 325.5,126.5C 323.833,126.5 322.167,126.5 320.5,126.5C 320.5,116.167 320.5,105.833 320.5,95.5C 321.833,95.5 323.167,95.5 324.5,95.5C 324.5,97.1667 324.5,98.8333 324.5,100.5 Z"/></g>
<g><path style="opacity:1" fill="#08352c" d="M 183.5,121.5 C 182.167,121.5 180.833,121.5 179.5,121.5C 179.5,114.5 179.5,107.5 179.5,100.5C 180.833,100.5 182.167,100.5 183.5,100.5C 183.5,107.5 183.5,114.5 183.5,121.5 Z"/></g>
<g><path style="opacity:1" fill="#b2ac7f" d="M 325.5,100.5 C 325.167,100.5 324.833,100.5 324.5,100.5C 324.5,98.8333 324.5,97.1667 324.5,95.5C 323.167,95.5 321.833,95.5 320.5,95.5C 320.5,105.833 320.5,116.167 320.5,126.5C 320.167,126.5 319.833,126.5 319.5,126.5C 319.5,126.167 319.5,125.833 319.5,125.5C 319.5,115.167 319.5,104.833 319.5,94.5C 321.5,94.5 323.5,94.5 325.5,94.5C 325.5,96.5 325.5,98.5 325.5,100.5 Z"/></g>
<g><path style="opacity:1" fill="#ead187" d="M 324.5,100.5 C 324.833,100.5 325.167,100.5 325.5,100.5C 325.198,103.059 325.532,105.393 326.5,107.5C 326.821,109.048 327.821,109.715 329.5,109.5C 329.5,111.167 329.5,112.833 329.5,114.5C 327.856,114.286 326.356,114.62 325,115.5C 324.667,117.833 324.333,120.167 324,122.5C 323.333,123.833 322.667,123.833 322,122.5C 321.034,118.882 321.534,115.549 323.5,112.5C 322.394,108.223 322.228,103.89 323,99.5C 323.383,100.056 323.883,100.389 324.5,100.5 Z"/></g>
<g><path style="opacity:1" fill="#ccd0a1" d="M 279.5,95.5 C 283.5,94.1667 287.5,94.1667 291.5,95.5C 289.532,103.433 288.865,111.766 289.5,120.5C 289.167,120.5 288.833,120.5 288.5,120.5C 288.5,113.833 288.5,107.167 288.5,100.5C 286.735,99.5386 284.735,99.2053 282.5,99.5C 282.5,106.833 282.5,114.167 282.5,121.5C 281.508,114.018 281.175,106.352 281.5,98.5C 283.5,98.5 285.5,98.5 287.5,98.5C 287.5,97.5 287.5,96.5 287.5,95.5C 284.833,95.5 282.167,95.5 279.5,95.5 Z"/></g>
<g><path style="opacity:1" fill="#707d69" d="M 59.5,118.5 C 61.5,118.5 63.5,118.5 65.5,118.5C 65.5,120.167 65.5,121.833 65.5,123.5C 65.1667,123.5 64.8333,123.5 64.5,123.5C 64.5,122.5 64.5,121.5 64.5,120.5C 62.5853,120.216 60.9187,120.549 59.5,121.5C 58.375,120.652 58.375,119.652 59.5,118.5 Z"/></g>
<g><path style="opacity:1" fill="#043739" d="M 230.5,100.5 C 230.833,100.5 231.167,100.5 231.5,100.5C 232.003,104.061 233.336,107.394 235.5,110.5C 234.652,112.409 234.318,114.409 234.5,116.5C 234.5,116.833 234.5,117.167 234.5,117.5C 233.007,118.312 232.34,119.645 232.5,121.5C 232.761,123.95 233.428,126.283 234.5,128.5C 231.462,129.854 229.128,129.02 227.5,126C 230.754,123.476 231.42,120.309 229.5,116.5C 229.875,114.084 230.541,111.75 231.5,109.5C 231.012,106.149 229.845,105.816 228,108.5C 227.505,106.527 227.338,104.527 227.5,102.5C 229.179,102.715 230.179,102.048 230.5,100.5 Z"/></g>
<g><path style="opacity:1" fill="#ddd397" d="M 257.5,95.5 C 257.5,103.167 257.5,110.833 257.5,118.5C 258.5,118.5 259.5,118.5 260.5,118.5C 260.334,111.825 260.5,105.158 261,98.5C 263.94,98.1537 266.44,97.1537 268.5,95.5C 268.833,95.5 269.167,95.5 269.5,95.5C 271.027,95.427 272.027,96.0937 272.5,97.5C 272.815,101.371 272.482,105.038 271.5,108.5C 271.813,105.753 271.48,103.086 270.5,100.5C 270.062,103.295 269.062,105.628 267.5,107.5C 263.701,109.372 263.701,111.039 267.5,112.5C 265.5,112.5 263.5,112.5 261.5,112.5C 261.5,115.5 261.5,118.5 261.5,121.5C 263.167,121.5 264.833,121.5 266.5,121.5C 266.038,122.88 265.038,123.547 263.5,123.5C 261.44,122.472 259.44,122.472 257.5,123.5C 262.134,125.168 266.801,125.501 271.5,124.5C 271.389,125.117 271.056,125.617 270.5,126C 265.316,126.816 260.316,126.65 255.5,125.5C 256.167,115.5 256.833,105.5 257.5,95.5 Z"/></g>
<g><path style="opacity:1" fill="#405432" d="M 267.5,107.5 C 265.5,107.5 263.5,107.5 261.5,107.5C 261.5,104.833 261.5,102.167 261.5,99.5C 263.5,99.5 265.5,99.5 267.5,99.5C 267.5,102.167 267.5,104.833 267.5,107.5 Z"/></g>
<g><path style="opacity:1" fill="#07392f" d="M 262.5,100.5 C 263.833,100.5 265.167,100.5 266.5,100.5C 266.5,102.5 266.5,104.5 266.5,106.5C 265.167,106.5 263.833,106.5 262.5,106.5C 262.5,104.5 262.5,102.5 262.5,100.5 Z"/></g>
<g><path style="opacity:1" fill="#ebd188" d="M 257.5,95.5 C 261.167,95.5 264.833,95.5 268.5,95.5C 266.44,97.1537 263.94,98.1537 261,98.5C 260.5,105.158 260.334,111.825 260.5,118.5C 259.5,118.5 258.5,118.5 257.5,118.5C 257.5,110.833 257.5,103.167 257.5,95.5 Z"/></g>
<g><path style="opacity:1" fill="#88956a" d="M 136.5,117.5 C 134.833,117.5 133.167,117.5 131.5,117.5C 131.5,119.5 131.5,121.5 131.5,123.5C 130.532,121.393 130.198,119.059 130.5,116.5C 132.735,116.205 134.735,116.539 136.5,117.5 Z"/></g>
<g><path style="opacity:1" fill="#7b8a65" d="M 219.5,100.5 C 220.493,108.984 220.826,117.651 220.5,126.5C 222.167,126.5 223.833,126.5 225.5,126.5C 223.735,127.461 221.735,127.795 219.5,127.5C 219.5,118.5 219.5,109.5 219.5,100.5 Z"/></g>
<g><path style="opacity:1" fill="#f0d487" d="M 291.5,95.5 C 291.833,95.5 292.167,95.5 292.5,95.5C 292.5,105.167 292.5,114.833 292.5,124.5C 288.814,124.87 287.814,123.537 289.5,120.5C 288.865,111.766 289.532,103.433 291.5,95.5 Z"/></g>
<g><path style="opacity:1" fill="#d1d098" d="M 314.5,96.5 C 315.658,105.657 315.824,114.991 315,124.5C 314.5,125 314,125.5 313.5,126C 309.514,126.499 305.514,126.666 301.5,126.5C 300.5,126.167 299.833,125.5 299.5,124.5C 301.137,125.218 302.803,125.384 304.5,125C 305.684,123.855 305.684,122.688 304.5,121.5C 306.167,121.5 307.833,121.5 309.5,121.5C 309.5,122.5 309.5,123.5 309.5,124.5C 310.675,124.719 311.675,124.386 312.5,123.5C 314.305,114.616 314.971,105.616 314.5,96.5 Z"/></g>
<g><path style="opacity:1" fill="#d4e3cc" d="M 64.5,123.5 C 63.7961,125.344 62.4628,125.844 60.5,125C 59.7476,124.329 59.4142,123.496 59.5,122.5C 59.5,122.167 59.5,121.833 59.5,121.5C 60.9187,120.549 62.5853,120.216 64.5,120.5C 64.5,121.5 64.5,122.5 64.5,123.5 Z"/></g>
<g><path style="opacity:1" fill="#dcd396" d="M 142.5,102.5 C 142.5,101.5 142.5,100.5 142.5,99.5C 140.265,99.2053 138.265,99.5386 136.5,100.5C 136.238,101.978 136.571,103.311 137.5,104.5C 141.159,107.327 144.326,110.66 147,114.5C 147.667,118.167 147.667,121.833 147,125.5C 141.928,126.471 136.762,126.805 131.5,126.5C 131.5,125.5 131.5,124.5 131.5,123.5C 131.5,121.5 131.5,119.5 131.5,117.5C 133.167,117.5 134.833,117.5 136.5,117.5C 136.5,118.833 136.5,120.167 136.5,121.5C 138.5,121.5 140.5,121.5 142.5,121.5C 142.66,119.801 142.494,118.134 142,116.5C 137.965,112.8 134.298,108.8 131,104.5C 128.512,96.9908 131.179,93.6575 139,94.5C 141.865,94.6843 144.698,95.0177 147.5,95.5C 147.5,98.5 147.5,101.5 147.5,104.5C 145.219,104.923 143.552,104.256 142.5,102.5 Z"/></g>
<g><path style="opacity:1" fill="#7c885c" d="M 136.5,100.5 C 138.265,99.5386 140.265,99.2053 142.5,99.5C 142.5,100.5 142.5,101.5 142.5,102.5C 140.886,100.925 138.886,100.259 136.5,100.5 Z"/></g>
<g><path style="opacity:1" fill="#28472b" d="M 332.5,126.5 C 329.325,125.818 327.825,123.818 328,120.5C 326.212,122.333 326.046,124.333 327.5,126.5C 324.691,127.8 322.024,127.8 319.5,126.5C 319.833,126.5 320.167,126.5 320.5,126.5C 322.167,126.5 323.833,126.5 325.5,126.5C 326.668,111.943 329.001,111.943 332.5,126.5 Z"/></g>
<g><path style="opacity:1" fill="#2b4925" d="M 336.5,119.5 C 337.5,119.5 338.5,119.5 339.5,119.5C 339.5,122.167 339.5,124.833 339.5,127.5C 336.941,127.802 334.607,127.468 332.5,126.5C 334.5,126.5 336.5,126.5 338.5,126.5C 338.233,124.035 337.566,121.701 336.5,119.5 Z"/></g>
<g><path style="opacity:1" fill="#d8d7a1" d="M 153.5,95.5 C 153.5,105.167 153.5,114.833 153.5,124.5C 154.5,124.5 155.5,124.5 156.5,124.5C 156.187,120.958 156.521,117.625 157.5,114.5C 157.5,118.5 157.5,122.5 157.5,126.5C 155.833,126.5 154.167,126.5 152.5,126.5C 152.172,115.986 152.506,105.653 153.5,95.5 Z"/></g>
<g><path style="opacity:1" fill="#0e3b31" d="M 216.5,100.5 C 217.5,100.5 218.5,100.5 219.5,100.5C 219.5,109.5 219.5,118.5 219.5,127.5C 218.227,128.077 218.227,128.743 219.5,129.5C 220.736,128.754 222.07,128.421 223.5,128.5C 223.5,130.167 223.5,131.833 223.5,133.5C 218.079,131.874 212.912,132.207 208,134.5C 207.333,137.167 207.333,139.833 208,142.5C 210.964,146.466 214.297,150.133 218,153.5C 218.495,155.473 218.662,157.473 218.5,159.5C 216.833,159.5 215.167,159.5 213.5,159.5C 213.5,157.833 213.5,156.167 213.5,154.5C 211.5,154.5 209.5,154.5 207.5,154.5C 206.142,152.127 204.642,149.794 203,147.5C 202.178,139.515 201.678,131.682 201.5,124C 201.569,122.014 202.235,120.514 203.5,119.5C 204.612,121.599 205.279,123.933 205.5,126.5C 207.5,126.5 209.5,126.5 211.5,126.5C 210.71,122.794 209.71,119.128 208.5,115.5C 209.977,113.361 210.977,111.028 211.5,108.5C 212.708,107.766 214.041,107.433 215.5,107.5C 215.993,105.194 216.326,102.861 216.5,100.5 Z"/></g>
<g><path style="opacity:1" fill="#153e2c" d="M 194.5,94.5 C 194.5,105.167 194.5,115.833 194.5,126.5C 196.5,126.5 198.5,126.5 200.5,126.5C 200.5,122.5 200.5,118.5 200.5,114.5C 201.5,114.5 202.5,114.5 203.5,114.5C 203.5,116.167 203.5,117.833 203.5,119.5C 202.235,120.514 201.569,122.014 201.5,124C 201.678,131.682 202.178,139.515 203,147.5C 204.642,149.794 206.142,152.127 207.5,154.5C 207.5,156.167 207.5,157.833 207.5,159.5C 206.1,160.1 205.1,161.1 204.5,162.5C 203.945,158.603 202.945,154.937 201.5,151.5C 201.5,150.833 201.5,150.167 201.5,149.5C 200.822,143.765 199.822,138.098 198.5,132.5C 195.833,132.5 193.167,132.5 190.5,132.5C 188.262,135.862 186.929,139.528 186.5,143.5C 186.5,138.167 186.5,132.833 186.5,127.5C 187.167,127.5 187.5,127.167 187.5,126.5C 188.458,126.047 189.292,125.381 190,124.5C 190.667,115.167 190.667,105.833 190,96.5C 189.617,95.944 189.117,95.6107 188.5,95.5C 188.167,95.5 187.833,95.5 187.5,95.5C 183.702,94.5166 179.702,94.1832 175.5,94.5C 175.5,93.5 175.5,92.5 175.5,91.5C 182.178,90.9109 188.512,91.9109 194.5,94.5 Z"/></g>
<g><path style="opacity:1" fill="#cdd29c" d="M 133.5,133.5 C 137.646,132.353 141.98,132.186 146.5,133C 148.314,135.481 148.98,138.315 148.5,141.5C 146.585,141.784 144.919,141.451 143.5,140.5C 144.496,140.586 145.329,140.252 146,139.5C 146.743,137.559 146.576,135.726 145.5,134C 141.514,133.501 137.514,133.334 133.5,133.5 Z"/></g>
<g><path style="opacity:1" fill="#c8cb98" d="M 167.5,132.5 C 171.514,132.334 175.514,132.501 179.5,133C 181.34,135.826 182.006,138.993 181.5,142.5C 177.062,143.575 175.062,141.908 175.5,137.5C 176.708,138.234 178.041,138.567 179.5,138.5C 179.5,137.167 179.5,135.833 179.5,134.5C 174.809,133.327 170.142,133.327 165.5,134.5C 165.833,133.5 166.5,132.833 167.5,132.5 Z"/></g>
<g><path style="opacity:1" fill="#b6c594" d="M 241.5,132.5 C 241.217,133.289 240.717,133.956 240,134.5C 239.5,143.827 239.334,153.161 239.5,162.5C 240.822,162.67 241.989,162.337 243,161.5C 243.172,156.798 243.672,152.132 244.5,147.5C 245.107,147.624 245.44,147.957 245.5,148.5C 244.514,152.97 244.181,157.637 244.5,162.5C 244.5,163.167 244.5,163.833 244.5,164.5C 242.5,164.5 240.5,164.5 238.5,164.5C 238.5,153.833 238.5,143.167 238.5,132.5C 239.5,132.5 240.5,132.5 241.5,132.5 Z"/></g>
<g><path style="opacity:1" fill="#778557" d="M 255.5,131.5 C 255.5,131.833 255.5,132.167 255.5,132.5C 253.833,132.5 252.167,132.5 250.5,132.5C 250.666,137.511 250.499,142.511 250,147.5C 248.812,146.437 248.312,145.103 248.5,143.5C 249.483,139.702 249.817,135.702 249.5,131.5C 251.5,131.5 253.5,131.5 255.5,131.5 Z"/></g>
<g><path style="opacity:1" fill="#123e2f" d="M 59.5,122.5 C 59.4142,123.496 59.7476,124.329 60.5,125C 62.4628,125.844 63.7961,125.344 64.5,123.5C 64.8333,123.5 65.1667,123.5 65.5,123.5C 68.6792,126.566 68.6792,129.399 65.5,132C 69.3567,133.554 71.3567,136.387 71.5,140.5C 78.1579,139.164 80.8246,141.83 79.5,148.5C 71.2146,148.976 63.0479,148.976 55,148.5C 51.969,149.039 48.969,149.706 46,150.5C 44.9412,150.37 44.1079,149.87 43.5,149C 43.8541,147.374 43.8541,145.541 43.5,143.5C 44.5,143.5 45.5,143.5 46.5,143.5C 46.5,144.5 46.5,145.5 46.5,146.5C 57.1874,146.832 67.8541,146.499 78.5,145.5C 78.2907,144.914 77.9574,144.414 77.5,144C 67.5056,143.5 57.5056,143.334 47.5,143.5C 47.9081,142.357 48.5748,141.357 49.5,140.5C 51.9343,139.09 54.2676,137.59 56.5,136C 56.4192,132.565 56.0859,129.232 55.5,126C 57.3502,125.31 58.6836,124.144 59.5,122.5 Z"/></g>
<g><path style="opacity:1" fill="#cbe0cb" d="M 59.5,126.5 C 63.2407,125.599 65.2407,126.932 65.5,130.5C 63.4727,130.662 61.4727,130.495 59.5,130C 58.3157,128.855 58.3157,127.688 59.5,126.5 Z"/></g>
<g><path style="opacity:1" fill="#dee1c4" d="M 71.5,140.5 C 71.6107,141.117 71.944,141.617 72.5,142C 65.8333,142.667 59.1667,142.667 52.5,142C 55.8881,139.469 58.2214,136.302 59.5,132.5C 63.7303,131.563 66.2303,133.229 67,137.5C 68.129,139.141 69.629,140.141 71.5,140.5 Z"/></g>
<g><path style="opacity:1" fill="#17402c" d="M 225.5,100.5 C 227.167,100.5 228.833,100.5 230.5,100.5C 230.179,102.048 229.179,102.715 227.5,102.5C 227.338,104.527 227.505,106.527 228,108.5C 229.845,105.816 231.012,106.149 231.5,109.5C 230.541,111.75 229.875,114.084 229.5,116.5C 231.42,120.309 230.754,123.476 227.5,126C 229.128,129.02 231.462,129.854 234.5,128.5C 233.428,126.283 232.761,123.95 232.5,121.5C 232.34,119.645 233.007,118.312 234.5,117.5C 234.198,120.059 234.532,122.393 235.5,124.5C 235.611,125.117 235.944,125.617 236.5,126C 240.833,126.667 245.167,126.667 249.5,126C 250,125.5 250.5,125 251,124.5C 251.498,121.518 251.665,118.518 251.5,115.5C 252.461,117.265 252.795,119.265 252.5,121.5C 253.5,121.5 254.5,121.5 255.5,121.5C 255.5,122.833 255.5,124.167 255.5,125.5C 260.316,126.65 265.316,126.816 270.5,126C 271.056,125.617 271.389,125.117 271.5,124.5C 272.485,120.366 272.818,116.032 272.5,111.5C 273.488,116.64 273.821,121.974 273.5,127.5C 269.486,127.334 265.486,127.501 261.5,128C 259.111,128.739 257.111,129.905 255.5,131.5C 253.5,131.5 251.5,131.5 249.5,131.5C 249.817,135.702 249.483,139.702 248.5,143.5C 247.035,139.976 246.035,136.309 245.5,132.5C 244.167,132.5 242.833,132.5 241.5,132.5C 240.5,132.5 239.5,132.5 238.5,132.5C 238.5,143.167 238.5,153.833 238.5,164.5C 240.5,164.5 242.5,164.5 244.5,164.5C 244.5,165.833 244.5,167.167 244.5,168.5C 242.633,168.045 240.8,167.378 239,166.5C 236.771,167.369 234.438,167.369 232,166.5C 229.745,166.61 228.078,167.61 227,169.5C 226.1,168.23 224.934,167.23 223.5,166.5C 218.208,165.505 212.875,165.172 207.5,165.5C 207.5,164.5 207.5,163.5 207.5,162.5C 212.937,165.149 218.437,165.149 224,162.5C 224.667,158.833 224.667,155.167 224,151.5C 220,148.833 216.667,145.5 214,141.5C 213.51,140.207 213.343,138.873 213.5,137.5C 215.167,137.5 216.833,137.5 218.5,137.5C 218.5,139.167 218.5,140.833 218.5,142.5C 220.735,142.795 222.735,142.461 224.5,141.5C 224.721,138.721 224.388,136.054 223.5,133.5C 223.5,131.833 223.5,130.167 223.5,128.5C 222.07,128.421 220.736,128.754 219.5,129.5C 218.227,128.743 218.227,128.077 219.5,127.5C 221.735,127.795 223.735,127.461 225.5,126.5C 225.5,117.833 225.5,109.167 225.5,100.5 Z"/></g>
<g><path style="opacity:1" fill="#f0d48b" d="M 240.5,120.5 C 240.5,121.167 240.833,121.5 241.5,121.5C 241.762,122.978 241.429,124.311 240.5,125.5C 238.929,124.691 237.262,124.357 235.5,124.5C 234.661,118.964 236.328,117.63 240.5,120.5 Z"/></g>
<g><path style="opacity:1" fill="#a8bb86" d="M 234.5,116.5 C 238.241,115.599 240.241,116.932 240.5,120.5C 236.328,117.63 234.661,118.964 235.5,124.5C 234.532,122.393 234.198,120.059 234.5,117.5C 234.5,117.167 234.5,116.833 234.5,116.5 Z"/></g>
<g><path style="opacity:1" fill="#1d4026" d="M 267.5,112.5 C 267.81,115.713 267.477,118.713 266.5,121.5C 264.833,121.5 263.167,121.5 261.5,121.5C 261.5,118.5 261.5,115.5 261.5,112.5C 263.5,112.5 265.5,112.5 267.5,112.5 Z"/></g>
<g><path style="opacity:1" fill="#e3cf8e" d="M 133.5,133.5 C 137.514,133.334 141.514,133.501 145.5,134C 146.576,135.726 146.743,137.559 146,139.5C 145.329,140.252 144.496,140.586 143.5,140.5C 143.737,139.209 143.404,138.209 142.5,137.5C 140.833,137.5 139.167,137.5 137.5,137.5C 137.34,139.199 137.506,140.866 138,142.5C 140.692,143.752 142.525,145.752 143.5,148.5C 139.789,149.866 140.122,151.199 144.5,152.5C 145.442,152.392 146.275,152.059 147,151.5C 147.081,154.81 148.581,157.143 151.5,158.5C 149.955,159.452 148.288,159.785 146.5,159.5C 146.598,156.752 145.598,156.086 143.5,157.5C 143.057,154.376 141.39,152.043 138.5,150.5C 137.914,150.709 137.414,151.043 137,151.5C 136.503,153.81 136.337,156.143 136.5,158.5C 138.607,159.468 140.941,159.802 143.5,159.5C 145.379,159.393 145.712,159.893 144.5,161C 140.459,161.827 136.459,161.66 132.5,160.5C 131.574,156.906 131.241,153.24 131.5,149.5C 132.452,148.548 133.452,147.548 134.5,146.5C 134.376,145.893 134.043,145.56 133.5,145.5C 133.167,144.5 132.5,143.833 131.5,143.5C 131.335,140.482 131.502,137.482 132,134.5C 132.383,133.944 132.883,133.611 133.5,133.5 Z"/></g>
<g><path style="opacity:1" fill="#68886d" d="M 142.5,137.5 C 143.404,138.209 143.737,139.209 143.5,140.5C 144.919,141.451 146.585,141.784 148.5,141.5C 148.5,141.833 148.5,142.167 148.5,142.5C 146.5,142.5 144.5,142.5 142.5,142.5C 142.5,140.833 142.5,139.167 142.5,137.5 Z"/></g>
<g><path style="opacity:1" fill="#7d9268" d="M 218.5,137.5 C 219.434,138.568 219.768,139.901 219.5,141.5C 221.167,141.5 222.833,141.5 224.5,141.5C 222.735,142.461 220.735,142.795 218.5,142.5C 218.5,140.833 218.5,139.167 218.5,137.5 Z"/></g>
<g><path style="opacity:1" fill="#9aac8e" d="M 46.5,143.5 C 46.8333,143.5 47.1667,143.5 47.5,143.5C 57.5056,143.334 67.5056,143.5 77.5,144C 77.9574,144.414 78.2907,144.914 78.5,145.5C 67.8541,146.499 57.1874,146.832 46.5,146.5C 46.5,145.5 46.5,144.5 46.5,143.5 Z"/></g>
<g><path style="opacity:1" fill="#023a36" d="M 186.5,127.5 C 186.5,132.833 186.5,138.167 186.5,143.5C 185.707,147.702 184.874,152.035 184,156.5C 183.667,156.833 183.333,157.167 183,157.5C 182.768,156.263 182.268,155.263 181.5,154.5C 179.292,152.065 176.792,152.065 174,154.5C 172.585,151.042 172.085,147.375 172.5,143.5C 176.167,143.5 179.833,143.5 183.5,143.5C 183.5,139.5 183.5,135.5 183.5,131.5C 183.5,130.5 183.5,129.5 183.5,128.5C 181.801,128.62 180.135,128.954 178.5,129.5C 177.263,129.444 176.263,128.944 175.5,128C 179.152,127.501 182.818,127.335 186.5,127.5 Z"/></g>
<g><path style="opacity:1" fill="#18412a" d="M 183.5,131.5 C 183.5,135.5 183.5,139.5 183.5,143.5C 179.833,143.5 176.167,143.5 172.5,143.5C 172.085,147.375 172.585,151.042 174,154.5C 176.792,152.065 179.292,152.065 181.5,154.5C 179.5,154.5 177.5,154.5 175.5,154.5C 175.5,156.167 175.5,157.833 175.5,159.5C 173.833,159.5 172.167,159.5 170.5,159.5C 170.5,152.167 170.5,144.833 170.5,137.5C 172.167,137.5 173.833,137.5 175.5,137.5C 175.062,141.908 177.062,143.575 181.5,142.5C 182.006,138.993 181.34,135.826 179.5,133C 175.514,132.501 171.514,132.334 167.5,132.5C 172.697,130.854 178.031,130.52 183.5,131.5 Z"/></g>
<g><path style="opacity:1" fill="#e6d291" d="M 241.5,132.5 C 242.833,132.5 244.167,132.5 245.5,132.5C 246.035,136.309 247.035,139.976 248.5,143.5C 248.312,145.103 248.812,146.437 250,147.5C 250.499,142.511 250.666,137.511 250.5,132.5C 252.167,132.5 253.833,132.5 255.5,132.5C 255.5,132.833 255.5,133.167 255.5,133.5C 255.5,143.5 255.5,153.5 255.5,163.5C 253.114,163.741 251.114,163.075 249.5,161.5C 249.672,160.508 249.338,159.842 248.5,159.5C 247.699,155.765 246.699,152.099 245.5,148.5C 245.44,147.957 245.107,147.624 244.5,147.5C 243.672,152.132 243.172,156.798 243,161.5C 241.989,162.337 240.822,162.67 239.5,162.5C 239.334,153.161 239.5,143.827 240,134.5C 240.717,133.956 241.217,133.289 241.5,132.5 Z"/></g>
<g><path style="opacity:1" fill="#183b21" d="M 142.5,137.5 C 142.5,139.167 142.5,140.833 142.5,142.5C 144.5,142.5 146.5,142.5 148.5,142.5C 146.708,143.309 144.708,143.809 142.5,144C 144.509,145.182 146.509,145.682 148.5,145.5C 148.143,148.965 146.477,149.965 143.5,148.5C 142.525,145.752 140.692,143.752 138,142.5C 137.506,140.866 137.34,139.199 137.5,137.5C 139.167,137.5 140.833,137.5 142.5,137.5 Z"/></g>
<g><path style="opacity:1" fill="#d0c88f" d="M 190.5,132.5 C 193.167,132.5 195.833,132.5 198.5,132.5C 199.822,138.098 200.822,143.765 201.5,149.5C 200.5,149.5 199.5,149.5 198.5,149.5C 197.949,152.807 197.616,156.14 197.5,159.5C 196.167,159.5 194.833,159.5 193.5,159.5C 191.948,155.057 191.115,150.391 191,145.5C 189.205,148.099 187.705,150.766 186.5,153.5C 187.94,146.529 189.273,139.529 190.5,132.5 Z"/></g>
<g><path style="opacity:1" fill="#edcd7e" d="M 191.5,135.5 C 196.815,135.497 198.815,138.164 197.5,143.5C 196.167,143.5 194.833,143.5 193.5,143.5C 192.36,140.975 191.693,138.308 191.5,135.5 Z"/></g>
<g><path style="opacity:1" fill="#9dad86" d="M 262.5,132.5 C 262.833,132.5 263.167,132.5 263.5,132.5C 263.167,133.167 262.833,133.833 262.5,134.5C 261.833,134.5 261.5,134.833 261.5,135.5C 260.507,143.984 260.174,152.651 260.5,161.5C 259.507,152.682 259.173,143.682 259.5,134.5C 260.5,133.833 261.5,133.167 262.5,132.5 Z"/></g>
<g><path style="opacity:1" fill="#2c471b" d="M 193.5,145.5 C 194.75,145.577 195.583,146.244 196,147.5C 196.497,149.81 196.663,152.143 196.5,154.5C 195.167,154.5 193.833,154.5 192.5,154.5C 193.159,151.545 193.492,148.545 193.5,145.5 Z"/></g>
<g><path style="opacity:1" fill="#acb685" d="M 229.5,132.5 C 229.5,142.833 229.5,153.167 229.5,163.5C 230.833,163.5 232.167,163.5 233.5,163.5C 233.5,153.167 233.5,142.833 233.5,132.5C 234.494,142.987 234.828,153.654 234.5,164.5C 232.5,164.5 230.5,164.5 228.5,164.5C 228.172,153.654 228.506,142.987 229.5,132.5 Z"/></g>
<g><path style="opacity:1" fill="#ebd890" d="M 229.5,132.5 C 230.833,132.5 232.167,132.5 233.5,132.5C 233.5,142.833 233.5,153.167 233.5,163.5C 232.167,163.5 230.833,163.5 229.5,163.5C 229.5,153.167 229.5,142.833 229.5,132.5 Z"/></g>
<g><path style="opacity:1" fill="#e6d38c" d="M 175.5,137.5 C 173.833,137.5 172.167,137.5 170.5,137.5C 170.5,144.833 170.5,152.167 170.5,159.5C 172.167,159.5 173.833,159.5 175.5,159.5C 176.434,158.432 176.768,157.099 176.5,155.5C 178.167,155.5 179.833,155.5 181.5,155.5C 181.702,157.95 181.369,160.283 180.5,162.5C 175.901,162.8 171.401,162.467 167,161.5C 165.557,152.608 165.057,143.608 165.5,134.5C 170.142,133.327 174.809,133.327 179.5,134.5C 179.5,135.833 179.5,137.167 179.5,138.5C 178.041,138.567 176.708,138.234 175.5,137.5 Z"/></g>
<g><path style="opacity:1" fill="#e0d290" d="M 223.5,133.5 C 224.388,136.054 224.721,138.721 224.5,141.5C 222.833,141.5 221.167,141.5 219.5,141.5C 219.768,139.901 219.434,138.568 218.5,137.5C 216.833,137.5 215.167,137.5 213.5,137.5C 213.343,138.873 213.51,140.207 214,141.5C 216.667,145.5 220,148.833 224,151.5C 224.667,155.167 224.667,158.833 224,162.5C 218.437,165.149 212.937,165.149 207.5,162.5C 207.5,161.5 207.5,160.5 207.5,159.5C 207.5,157.833 207.5,156.167 207.5,154.5C 209.5,154.5 211.5,154.5 213.5,154.5C 213.5,156.167 213.5,157.833 213.5,159.5C 215.167,159.5 216.833,159.5 218.5,159.5C 218.662,157.473 218.495,155.473 218,153.5C 214.297,150.133 210.964,146.466 208,142.5C 207.333,139.833 207.333,137.167 208,134.5C 212.912,132.207 218.079,131.874 223.5,133.5 Z"/></g>
<g><path style="opacity:1" fill="#ecd288" d="M 193.5,159.5 C 192.833,159.5 192.167,159.5 191.5,159.5C 189.952,159.821 189.285,160.821 189.5,162.5C 188.5,162.5 187.5,162.5 186.5,162.5C 186.5,159.833 186.5,157.167 186.5,154.5C 186.5,154.167 186.5,153.833 186.5,153.5C 187.705,150.766 189.205,148.099 191,145.5C 191.115,150.391 191.948,155.057 193.5,159.5 Z"/></g>
<g><path style="opacity:1" fill="#20462c" d="M 95.5,64.5 C 95.5,64.1667 95.5,63.8333 95.5,63.5C 99.6938,63.5498 103.694,64.3831 107.5,66C 109.241,69.7436 111.741,72.9102 115,75.5C 115.333,76.8333 115.667,78.1667 116,79.5C 116.833,105.173 116.666,130.84 115.5,156.5C 113.38,157.872 112.38,157.205 112.5,154.5C 112.833,152.5 113.167,150.5 113.5,148.5C 114.663,126.004 114.83,103.337 114,80.5C 112.559,77.1202 110.726,73.9535 108.5,71C 104.892,67.4069 100.559,65.2403 95.5,64.5 Z"/></g>
<g><path style="opacity:1" fill="#d5cd94" d="M 148.5,145.5 C 150.604,145.201 152.604,145.534 154.5,146.5C 153.167,149.167 151.833,151.833 150.5,154.5C 152.339,156.838 154.339,159.004 156.5,161C 156.046,162.622 155.046,163.788 153.5,164.5C 151.833,163.167 150.167,161.833 148.5,160.5C 143.926,164.4 138.593,165.567 132.5,164C 130.986,161.413 130.32,158.58 130.5,155.5C 130.505,153.304 130.838,151.304 131.5,149.5C 131.241,153.24 131.574,156.906 132.5,160.5C 136.459,161.66 140.459,161.827 144.5,161C 145.712,159.893 145.379,159.393 143.5,159.5C 143.5,158.833 143.5,158.167 143.5,157.5C 145.598,156.086 146.598,156.752 146.5,159.5C 148.288,159.785 149.955,159.452 151.5,158.5C 148.581,157.143 147.081,154.81 147,151.5C 146.275,152.059 145.442,152.392 144.5,152.5C 140.122,151.199 139.789,149.866 143.5,148.5C 146.477,149.965 148.143,148.965 148.5,145.5 Z"/></g>
<g><path style="opacity:1" fill="#1f3f17" d="M 245.5,148.5 C 246.699,152.099 247.699,155.765 248.5,159.5C 247.5,159.5 246.5,159.5 245.5,159.5C 245.737,160.791 245.404,161.791 244.5,162.5C 244.181,157.637 244.514,152.97 245.5,148.5 Z"/></g>
<g><path style="opacity:1" fill="#153d23" d="M 143.5,157.5 C 141.283,158.369 138.95,158.702 136.5,158.5C 136.337,156.143 136.503,153.81 137,151.5C 137.414,151.043 137.914,150.709 138.5,150.5C 141.39,152.043 143.057,154.376 143.5,157.5 Z"/></g>
<g><path style="opacity:1" fill="#eed389" d="M 201.5,149.5 C 201.5,150.167 201.5,150.833 201.5,151.5C 201.26,154.579 201.593,157.579 202.5,160.5C 202,160.833 201.5,161.167 201,161.5C 199.989,160.944 199.156,160.278 198.5,159.5C 198.167,159.5 197.833,159.5 197.5,159.5C 197.616,156.14 197.949,152.807 198.5,149.5C 199.5,149.5 200.5,149.5 201.5,149.5 Z"/></g>
<g><path style="opacity:1" fill="#75906f" d="M 143.5,157.5 C 143.5,158.167 143.5,158.833 143.5,159.5C 140.941,159.802 138.607,159.468 136.5,158.5C 138.95,158.702 141.283,158.369 143.5,157.5 Z"/></g>
<g><path style="opacity:1" fill="#cdcd97" d="M 201.5,151.5 C 202.945,154.937 203.945,158.603 204.5,162.5C 203.082,164.308 201.082,164.975 198.5,164.5C 198.5,162.833 198.5,161.167 198.5,159.5C 199.156,160.278 199.989,160.944 201,161.5C 201.5,161.167 202,160.833 202.5,160.5C 201.593,157.579 201.26,154.579 201.5,151.5 Z"/></g>
<g><path style="opacity:1" fill="#d7d29a" d="M 263.5,132.5 C 267.571,132.234 271.571,132.567 275.5,133.5C 276.833,143.5 276.833,153.5 275.5,163.5C 270.889,164.61 266.222,164.777 261.5,164C 260.748,163.329 260.414,162.496 260.5,161.5C 260.174,152.651 260.507,143.984 261.5,135.5C 261.334,143.84 261.5,152.173 262,160.5C 264.075,161.134 266.241,161.468 268.5,161.5C 270.964,161.41 273.13,160.743 275,159.5C 275.458,151.157 275.291,142.824 274.5,134.5C 272.774,134.185 271.107,134.019 269.5,134C 268.829,134.986 268.829,136.153 269.5,137.5C 268.167,137.5 266.833,137.5 265.5,137.5C 265.5,136.5 265.5,135.5 265.5,134.5C 264.5,134.5 263.5,134.5 262.5,134.5C 262.833,133.833 263.167,133.167 263.5,132.5 Z"/></g>
<g><path style="opacity:1" fill="#c4ca98" d="M 165.5,134.5 C 165.057,143.608 165.557,152.608 167,161.5C 171.401,162.467 175.901,162.8 180.5,162.5C 178.366,164.033 175.866,164.7 173,164.5C 170.207,164.695 167.707,164.029 165.5,162.5C 164.54,156.227 164.207,149.893 164.5,143.5C 164.19,140.287 164.523,137.287 165.5,134.5 Z"/></g>
<g><path style="opacity:1" fill="#c0c693" d="M 186.5,154.5 C 186.5,157.167 186.5,159.833 186.5,162.5C 187.5,162.5 188.5,162.5 189.5,162.5C 189.285,160.821 189.952,159.821 191.5,159.5C 190.699,161.042 190.366,162.708 190.5,164.5C 188.5,164.5 186.5,164.5 184.5,164.5C 184.549,160.922 185.215,157.589 186.5,154.5 Z"/></g>
<g><path style="opacity:1" fill="#264325" d="M 21.5,159.5 C 24.9228,160.363 28.2561,161.53 31.5,163C 52.8307,163.5 74.1641,163.667 95.5,163.5C 73.673,164.497 51.673,164.831 29.5,164.5C 26.53,163.347 23.8633,161.68 21.5,159.5 Z"/></g>
<g><path style="opacity:1" fill="#85996f" d="M 249.5,161.5 C 251.114,163.075 253.114,163.741 255.5,163.5C 255.5,163.833 255.5,164.167 255.5,164.5C 253.5,164.5 251.5,164.5 249.5,164.5C 249.5,163.5 249.5,162.5 249.5,161.5 Z"/></g>
<g><path style="opacity:1" fill="#1d432e" d="M 278.5,163.5 C 276.562,165.163 274.228,165.829 271.5,165.5C 271.649,166.552 271.483,167.552 271,168.5C 267.963,167.291 264.796,166.457 261.5,166C 259.718,165.186 258.218,164.019 257,162.5C 256.722,163.416 256.222,164.082 255.5,164.5C 255.5,164.167 255.5,163.833 255.5,163.5C 255.5,153.5 255.5,143.5 255.5,133.5C 256.708,134.234 258.041,134.567 259.5,134.5C 259.173,143.682 259.507,152.682 260.5,161.5C 260.414,162.496 260.748,163.329 261.5,164C 266.222,164.777 270.889,164.61 275.5,163.5C 276.833,153.5 276.833,143.5 275.5,133.5C 271.571,132.567 267.571,132.234 263.5,132.5C 263.167,132.5 262.833,132.5 262.5,132.5C 263.058,131.21 264.058,130.377 265.5,130C 269.96,128.887 273.96,129.72 277.5,132.5C 278.5,135.833 279.5,139.167 280.5,142.5C 278.588,149.287 277.922,156.287 278.5,163.5 Z"/></g>
<g><path style="opacity:1" fill="#ead086" d="M 261.5,135.5 C 261.5,134.833 261.833,134.5 262.5,134.5C 263.5,134.5 264.5,134.5 265.5,134.5C 265.5,135.5 265.5,136.5 265.5,137.5C 265.5,144.5 265.5,151.5 265.5,158.5C 267.265,159.461 269.265,159.795 271.5,159.5C 271.825,151.981 271.492,144.648 270.5,137.5C 270.167,137.5 269.833,137.5 269.5,137.5C 268.829,136.153 268.829,134.986 269.5,134C 271.107,134.019 272.774,134.185 274.5,134.5C 275.291,142.824 275.458,151.157 275,159.5C 273.13,160.743 270.964,161.41 268.5,161.5C 266.241,161.468 264.075,161.134 262,160.5C 261.5,152.173 261.334,143.84 261.5,135.5 Z"/></g>
<g><path style="opacity:1" fill="#1a3d24" d="M 265.5,137.5 C 266.833,137.5 268.167,137.5 269.5,137.5C 269.833,137.5 270.167,137.5 270.5,137.5C 270.825,144.687 270.491,151.687 269.5,158.5C 269.5,152.167 269.5,145.833 269.5,139.5C 268.5,139.5 267.5,139.5 266.5,139.5C 266.5,145.833 266.5,152.167 266.5,158.5C 266.167,158.5 265.833,158.5 265.5,158.5C 265.5,151.5 265.5,144.5 265.5,137.5 Z"/></g>
<g><path style="opacity:1" fill="#4e6a4d" d="M 270.5,137.5 C 271.492,144.648 271.825,151.981 271.5,159.5C 269.265,159.795 267.265,159.461 265.5,158.5C 265.833,158.5 266.167,158.5 266.5,158.5C 267.5,158.5 268.5,158.5 269.5,158.5C 270.491,151.687 270.825,144.687 270.5,137.5 Z"/></g>
<g><path style="opacity:1" fill="#023935" d="M 269.5,158.5 C 268.5,158.5 267.5,158.5 266.5,158.5C 266.5,152.167 266.5,145.833 266.5,139.5C 267.5,139.5 268.5,139.5 269.5,139.5C 269.5,145.833 269.5,152.167 269.5,158.5 Z"/></g>
<g><path style="opacity:1" fill="#1e4027" d="M 190.5,132.5 C 189.273,139.529 187.94,146.529 186.5,153.5C 186.5,153.833 186.5,154.167 186.5,154.5C 185.215,157.589 184.549,160.922 184.5,164.5C 182.694,161.662 181.694,161.995 181.5,165.5C 175.794,165.829 170.128,165.495 164.5,164.5C 164.192,163.692 163.692,163.025 163,162.5C 162.18,155.986 162.347,149.653 163.5,143.5C 163.833,143.5 164.167,143.5 164.5,143.5C 164.207,149.893 164.54,156.227 165.5,162.5C 167.707,164.029 170.207,164.695 173,164.5C 175.866,164.7 178.366,164.033 180.5,162.5C 181.369,160.283 181.702,157.95 181.5,155.5C 181.5,155.167 181.5,154.833 181.5,154.5C 182.268,155.263 182.768,156.263 183,157.5C 183.333,157.167 183.667,156.833 184,156.5C 184.874,152.035 185.707,147.702 186.5,143.5C 186.929,139.528 188.262,135.862 190.5,132.5 Z"/></g>
<g><path style="opacity:1" fill="#8c9d70" d="M 181.5,154.5 C 181.5,154.833 181.5,155.167 181.5,155.5C 179.833,155.5 178.167,155.5 176.5,155.5C 176.768,157.099 176.434,158.432 175.5,159.5C 175.5,157.833 175.5,156.167 175.5,154.5C 177.5,154.5 179.5,154.5 181.5,154.5 Z"/></g>
<g><path style="opacity:1" fill="#d4cf94" d="M 113.5,148.5 C 113.167,150.5 112.833,152.5 112.5,154.5C 109.473,159.858 105.14,163.858 99.5,166.5C 97.1992,167.06 94.8659,167.56 92.5,168C 71.136,168.8 49.8026,168.633 28.5,167.5C 28.2627,166.209 28.596,165.209 29.5,164.5C 51.673,164.831 73.673,164.497 95.5,163.5C 98.5395,162.722 101.206,161.388 103.5,159.5C 108.378,155.404 110.878,150.071 111,143.5C 111.5,123.503 111.667,103.503 111.5,83.5C 111.783,82.7109 112.283,82.0442 113,81.5C 113.5,103.831 113.667,126.164 113.5,148.5 Z"/></g>
<g><path style="opacity:1" fill="#133921" d="M 15.5,159.5 C 18.8132,163.811 23.1465,166.478 28.5,167.5C 49.8026,168.633 71.136,168.8 92.5,168C 94.8659,167.56 97.1992,167.06 99.5,166.5C 99.5858,167.496 99.2524,168.329 98.5,169C 74.5,169.667 50.5,169.667 26.5,169C 23.9865,167.748 21.3198,167.248 18.5,167.5C 17.9366,164.626 16.9366,161.96 15.5,159.5 Z"/></g>
</svg>
