<?xml version="1.0" encoding="UTF-8"?>
<svg version="1.1" xmlns="http://www.w3.org/2000/svg" width="512" height="512">
<path d="M0 0 C168.96 0 337.92 0 512 0 C512 168.96 512 337.92 512 512 C343.04 512 174.08 512 0 512 C0 343.04 0 174.08 0 0 Z " fill="#FAFAFB" transform="translate(0,0)"/>
<path d="M0 0 C0.68636536 0.00215515 1.37273071 0.0043103 2.07989502 0.00653076 C12.29161315 0.05801341 21.94373437 0.43683319 31.8125 3.3125 C32.48313477 3.50585938 33.15376953 3.69921875 33.84472656 3.8984375 C49.56682188 8.56537189 63.73855875 16.14613018 75.8125 27.3125 C76.42625488 27.87855957 77.04000977 28.44461914 77.67236328 29.02783203 C87.2083525 37.91809526 95.3323703 46.97151065 101.8125 58.3125 C102.15104004 58.90272949 102.48958008 59.49295898 102.83837891 60.10107422 C107.5616257 68.51472024 110.53196099 76.96862488 112.8125 86.3125 C113.1115625 87.33988281 113.410625 88.36726563 113.71875 89.42578125 C120.96189669 116.8893791 114.95692147 148.42033803 100.984375 172.76953125 C88.40491417 193.72582111 68.74985308 212.40349909 45.8125 221.3125 C44.79929687 221.74046875 43.78609375 222.1684375 42.7421875 222.609375 C29.05075817 228.21791232 16.17445544 229.87604663 1.5625 229.75 C0.40596924 229.74444092 0.40596924 229.74444092 -0.77392578 229.73876953 C-34.1822191 229.51018283 -60.39160141 216.53105529 -83.97998047 192.95874023 C-105.85043895 170.302679 -114.65971338 141.80595813 -114.41992188 110.85620117 C-113.71840407 78.74422364 -99.86415679 52.19515466 -77.32226562 29.90795898 C-63.21886182 16.47463396 -45.2306516 6.51656188 -26.1875 2.3125 C-25.03374878 2.0486853 -25.03374878 2.0486853 -23.85668945 1.77954102 C-15.91467443 0.12645524 -8.08876826 -0.04563033 0 0 Z " fill="#014BCE" transform="translate(255.1875,82.6875)"/>
<path d="M0 0 C4.31169705 3.34255414 8.1673986 7.12741617 12 11 C12.60714844 11.58523437 13.21429688 12.17046875 13.83984375 12.7734375 C23.43089917 22.79698083 27.37347782 36.42696862 27.25 49.9375 C27.26160156 51.20110352 27.26160156 51.20110352 27.2734375 52.49023438 C27.22302034 68.86320626 20.50834193 83.45554655 9.25 95.25 C-4.96833319 108.78104216 -20.62822844 112.54299501 -39.6796875 112.27734375 C-46.27312765 112.04393736 -51.95905711 110.65070259 -58 108 C-58.92683594 107.59910156 -59.85367188 107.19820313 -60.80859375 106.78515625 C-75.8518534 99.4235611 -86.28785377 86.71281032 -91.95703125 71.17578125 C-92.47330078 69.60376953 -92.47330078 69.60376953 -93 68 C-93.36867187 66.89398438 -93.73734375 65.78796875 -94.1171875 64.6484375 C-98.13366469 48.04936804 -93.64525794 31.30244615 -85 17 C-75.42188033 4.13439955 -62.54130553 -5.2311868 -46.7578125 -8.49609375 C-30.25453744 -10.70911088 -14.28922991 -9.13846099 0 0 Z " fill="#004ACE" transform="translate(290,146)"/>
<path d="M0 0 C1.27576904 0.00563965 2.55153809 0.0112793 3.8659668 0.01708984 C34.85188518 0.41452178 62.45988753 12.89592658 84.8125 34.3125 C85.57175781 35.00859375 86.33101562 35.7046875 87.11328125 36.421875 C95.74425978 44.59074587 104.67092605 56.0762298 108.8125 67.3125 C108.57482926 71.72741397 106.43514666 75.25366687 104.25 79 C103.89357422 79.61576904 103.53714844 80.23153809 103.16992188 80.8659668 C99.86805364 86.44040823 96.04589732 91.40979085 91.8125 96.3125 C91.22210938 97.04726562 90.63171875 97.78203125 90.0234375 98.5390625 C72.06535799 120.16517527 43.34815198 133.85312042 15.72314453 137.04882812 C-18.65998494 140.16355551 -49.22687447 131.97874287 -76.1875 110.3125 C-77.59128906 109.25289062 -77.59128906 109.25289062 -79.0234375 108.171875 C-79.73757812 107.55828125 -80.45171875 106.9446875 -81.1875 106.3125 C-81.1875 105.6525 -81.1875 104.9925 -81.1875 104.3125 C-81.8475 104.3125 -82.5075 104.3125 -83.1875 104.3125 C-83.1875 103.6525 -83.1875 102.9925 -83.1875 102.3125 C-84.01701172 102.00699219 -84.01701172 102.00699219 -84.86328125 101.6953125 C-88.08348956 99.77942386 -90.11401719 97.10893621 -92.375 94.1875 C-93.0870459 93.27109741 -93.0870459 93.27109741 -93.81347656 92.33618164 C-97.35087309 87.66311328 -100.50273592 82.82154538 -103.4375 77.75 C-103.83219482 77.08403809 -104.22688965 76.41807617 -104.63354492 75.73193359 C-106.14799228 73.00862469 -107.19854179 70.91335716 -107.140625 67.76171875 C-103.09826454 57.37417774 -96.42183054 48.6565628 -89.1875 40.3125 C-88.40375 39.28125 -87.62 38.25 -86.8125 37.1875 C-82.70784904 32.6919299 -77.98261303 29.04556545 -73.1875 25.3125 C-72.31867188 24.62800781 -71.44984375 23.94351563 -70.5546875 23.23828125 C-60.0171526 15.23290026 -48.99116315 9.6626164 -36.5 5.4375 C-35.65775879 5.15124756 -34.81551758 4.86499512 -33.94775391 4.57006836 C-22.7183892 0.9534085 -11.7589526 -0.05454421 0 0 Z M-47.15625 30.4296875 C-58.23125334 43.69054676 -61.40026254 59.18528086 -60.43017578 75.99316406 C-58.75081287 92.04341323 -49.86165992 105.60929036 -38.1875 116.3125 C-23.09931348 128.40668606 -7.87737571 130.29964132 10.8125 129.3125 C27.57397134 127.18119222 40.31732357 117.4859946 50.75 104.75 C61.27635319 90.42389006 63.06541578 74.60833733 61.8125 57.3125 C59.12366137 41.6654029 49.6840563 28.47332585 37.14404297 19.06005859 C9.31910046 -0.38260987 -24.83997221 6.43083321 -47.15625 30.4296875 Z " fill="#F8F9FB" transform="translate(255.1875,128.6875)"/>
<path d="M0 0 C14 0 14 0 17.75 3.1875 C18.8632282 4.77106711 19.94325725 6.37819342 21 8 C22.15452585 9.50529325 23.30993022 11.01000151 24.48071289 12.50268555 C25.77144505 14.15240957 27.04159895 15.8163688 28.30859375 17.484375 C31.53812143 21.72052418 34.842899 25.89690724 38.15722656 30.06689453 C41.24290643 33.96978112 44.09956289 37.93938805 47 42 C47.33 28.14 47.66 14.28 48 0 C52.95 0 57.9 0 63 0 C63 23.1 63 46.2 63 70 C49 70 49 70 45.359375 67.17578125 C44.44357215 65.92032533 43.57444141 64.62975502 42.75 63.3125 C42.26805176 62.63203613 41.78610352 61.95157227 41.28955078 61.25048828 C40.30277865 59.85615751 39.33327798 58.4494356 38.38183594 57.03076172 C36.76924285 54.66087668 35.04376131 52.40499048 33.27001953 50.15454102 C31.15462977 47.4560678 29.08282157 44.72368975 27 42 C23.7 37.71 20.4 33.42 17 29 C16.67 42.53 16.34 56.06 16 70 C10.72 70 5.44 70 0 70 C0 46.9 0 23.8 0 0 Z " fill="#054ECF" transform="translate(169,350)"/>
<path d="M0 0 C5.94 0 11.88 0 18 0 C18.80836304 2.08513916 18.80836304 2.08513916 19.63305664 4.21240234 C21.66632812 9.45706785 23.69972408 14.70168509 25.7331543 19.94628906 C26.60688524 22.19985699 27.48058411 24.45343735 28.35424805 26.70703125 C29.20304384 28.89646664 30.05195071 31.08585897 30.90097046 33.27520752 C31.73837644 35.43540281 32.57515127 37.59584287 33.4112854 39.75653076 C35.31851235 44.6820311 37.23431298 49.60347567 39.18310547 54.51269531 C39.51289902 55.34733307 39.84269257 56.18197083 40.18247986 57.04190063 C40.78967007 58.57645438 41.4008665 60.10943159 42.01686096 61.64047241 C43.17893055 64.58451776 44 66.80345284 44 70 C38.72 70 33.44 70 28 70 C27.175 67.73125 26.35 65.4625 25.5 63.125 C25.23896484 62.41230957 24.97792969 61.69961914 24.70898438 60.96533203 C23 56.22222222 23 56.22222222 23 54 C13.76 54 4.52 54 -5 54 C-5.33 55.65 -5.66 57.3 -6 59 C-7.24417401 62.70254193 -8.63299094 66.33994347 -10 70 C-15.28 70 -20.56 70 -26 70 C-25.2951032 65.77061923 -24.80863286 63.10885658 -23.22265625 59.3671875 C-21.70279622 55.70120033 -20.22526629 52.02757487 -18.80859375 48.3203125 C-18.42622559 47.32177246 -18.04385742 46.32323242 -17.64990234 45.29443359 C-17.24980957 44.24852051 -16.8497168 43.20260742 -16.4375 42.125 C-11.04073171 28.05067204 -5.52918559 14.02268741 0 0 Z " fill="#034CCE" transform="translate(310,350)"/>
<path d="M0 0 C5.94 0 11.88 0 18 0 C18.80836304 2.08513916 18.80836304 2.08513916 19.63305664 4.21240234 C21.66632812 9.45706785 23.69972408 14.70168509 25.7331543 19.94628906 C26.60688524 22.19985699 27.48058411 24.45343735 28.35424805 26.70703125 C29.20304384 28.89646664 30.05195071 31.08585897 30.90097046 33.27520752 C31.73837644 35.43540281 32.57515127 37.59584287 33.4112854 39.75653076 C35.31851235 44.6820311 37.23431298 49.60347567 39.18310547 54.51269531 C39.51289902 55.34733307 39.84269257 56.18197083 40.18247986 57.04190063 C40.78967007 58.57645438 41.4008665 60.10943159 42.01686096 61.64047241 C43.17893055 64.58451776 44 66.80345284 44 70 C38.72 70 33.44 70 28 70 C27.175 67.73125 26.35 65.4625 25.5 63.125 C25.23896484 62.41230957 24.97792969 61.69961914 24.70898438 60.96533203 C23 56.22222222 23 56.22222222 23 54 C13.76 54 4.52 54 -5 54 C-5.33 55.65 -5.66 57.3 -6 59 C-7.24417401 62.70254193 -8.63299094 66.33994347 -10 70 C-15.28 70 -20.56 70 -26 70 C-25.2951032 65.77061923 -24.80863286 63.10885658 -23.22265625 59.3671875 C-21.70279622 55.70120033 -20.22526629 52.02757487 -18.80859375 48.3203125 C-18.42622559 47.32177246 -18.04385742 46.32323242 -17.64990234 45.29443359 C-17.24980957 44.24852051 -16.8497168 43.20260742 -16.4375 42.125 C-11.04073171 28.05067204 -5.52918559 14.02268741 0 0 Z " fill="#034CCE" transform="translate(120,350)"/>
<path d="M0 0 C4.02496674 2.21373171 4.86456975 2.97913951 7 7.25 C4.03 10.22 1.06 13.19 -2 16.25 C-3.299375 15.425 -4.59875 14.6 -5.9375 13.75 C-10.70727927 11.10596488 -14.61164945 10.24945522 -20 11.25 C-22.97984167 12.58170309 -22.97984167 12.58170309 -25 14.25 C-25.0140032 17.65042401 -25.0140032 17.65042401 -24 21.25 C-21.18051192 23.26728369 -21.18051192 23.26728369 -17.5625 24.4375 C-16.61612671 24.80282837 -16.61612671 24.80282837 -15.65063477 25.17553711 C-13.77742104 25.89454124 -11.88876335 26.57289616 -10 27.25 C0.94749911 31.24396949 0.94749911 31.24396949 5 36.25 C6.1446875 37.5803125 6.1446875 37.5803125 7.3125 38.9375 C10.07566096 44.36148262 9.91884256 49.11023648 8.22265625 54.90625 C5.23197063 61.97320818 0.78152895 64.99726664 -6 68.25 C-6.99 68.745 -6.99 68.745 -8 69.25 C-22.28942039 70.84288845 -32.51058051 69.10642753 -44 60.25 C-43.41604794 56.73850159 -42.16720355 54.95968242 -39.6875 52.4375 C-39.09324219 51.81230469 -38.49898438 51.18710937 -37.88671875 50.54296875 C-36 49.25 -36 49.25 -33.99609375 49.390625 C-31.86313611 50.30892379 -30.23345506 51.42458995 -28.375 52.8125 C-23.66381189 55.84488787 -19.47292984 56.12566877 -14 55.25 C-10.4952235 53.92014431 -10.4952235 53.92014431 -8 52.25 C-7.66619186 48.87563814 -7.66619186 48.87563814 -8 45.25 C-11.22331606 41.98557022 -15.51132333 40.84287429 -19.75 39.375 C-27.8070337 36.45926797 -35.10309637 33.69329352 -40 26.25 C-41.94927594 20.40217219 -41.99381511 13.66214194 -39.5625 7.9375 C-32.05210699 -5.19217986 -12.2916705 -5.92927484 0 0 Z " fill="#054DCE" transform="translate(400,351.75)"/>
<path d="M0 0 C17.16 0 34.32 0 52 0 C52 4.62 52 9.24 52 14 C39.79 14 27.58 14 15 14 C15 19.28 15 24.56 15 30 C24.57 30 34.14 30 44 30 C44 34.95 44 39.9 44 45 C34.43 45 24.86 45 15 45 C15 53.25 15 61.5 15 70 C10.05 70 5.1 70 0 70 C0 46.9 0 23.8 0 0 Z " fill="#054DCE" transform="translate(48,350)"/>
<path d="M0 0 C5.94 0 11.88 0 18 0 C20.11831346 3.80837583 22.23636919 7.61689258 24.35375977 11.42578125 C25.07430976 12.72176484 25.79501207 14.01766375 26.51586914 15.31347656 C27.55134392 17.17490817 28.58627248 19.03664253 29.62109375 20.8984375 C30.2442749 22.01911621 30.86745605 23.13979492 31.50952148 24.29443359 C32.36583046 25.84883426 33.20634687 27.41269373 34 29 C34.51385254 28.0553186 34.51385254 28.0553186 35.03808594 27.09155273 C36.60796833 24.20645659 38.17897536 21.3219743 39.75 18.4375 C40.28882813 17.44685547 40.82765625 16.45621094 41.3828125 15.43554688 C41.91132813 14.46552734 42.43984375 13.49550781 42.984375 12.49609375 C43.46616211 11.61107178 43.94794922 10.7260498 44.44433594 9.81420898 C46.26300462 6.5242225 48.13491568 3.26389756 50 0 C55.94 0 61.88 0 68 0 C62.61817243 10.3496684 56.8747333 20.39360897 50.83203125 30.37109375 C50.12590698 31.55421143 50.12590698 31.55421143 49.40551758 32.76123047 C48 35 48 35 46.5534668 36.88330078 C41.93794948 43.09836914 42.22325486 49.47558789 42.1875 57 C42.16236328 58.25167969 42.13722656 59.50335938 42.11132812 60.79296875 C42.05276561 63.86164476 42.02344486 66.93085478 42 70 C36.72 70 31.44 70 26 70 C26.03222656 68.22496094 26.06445312 66.44992187 26.09765625 64.62109375 C26.12732055 51.07120901 25.88494597 41.28463221 17.625 30.31152344 C14.2953879 25.57523027 11.46394177 20.50347054 8.54251099 15.50854492 C7.44758255 13.6421862 6.34260842 11.78216635 5.23413086 9.92382812 C4.55057247 8.77476696 3.86705813 7.62567959 3.18359375 6.4765625 C2.57056396 5.44611816 1.95753418 4.41567383 1.32592773 3.35400391 C0 1 0 1 0 0 Z " fill="#064ECF" transform="translate(408,350)"/>
<path d="M0 0 C18.15 0 36.3 0 55 0 C55 4.62 55 9.24 55 14 C48.4 14 41.8 14 35 14 C35 32.48 35 50.96 35 70 C30.05 70 25.1 70 20 70 C20 51.52 20 33.04 20 14 C13.4 14 6.8 14 0 14 C0 9.38 0 4.76 0 0 Z " fill="#004ACE" transform="translate(237,350)"/>
<path d="M0 0 C0.66 0 1.32 0 2 0 C3.1773496 3.07935966 4.33997891 6.16407516 5.5 9.25 C5.83386719 10.12269531 6.16773438 10.99539063 6.51171875 11.89453125 C6.98544922 13.16103516 6.98544922 13.16103516 7.46875 14.453125 C7.76201172 15.22817383 8.05527344 16.00322266 8.35742188 16.80175781 C9 19 9 19 9 23 C3.72 23 -1.56 23 -7 23 C-5.48526781 15.01323028 -2.83197448 7.59877122 0 0 Z " fill="#E6EBF5" transform="translate(128,368)"/>
<path d="M0 0 C0.66 0 1.32 0 2 0 C3.1773496 3.07935966 4.33997891 6.16407516 5.5 9.25 C5.83386719 10.12269531 6.16773438 10.99539063 6.51171875 11.89453125 C6.98544922 13.16103516 6.98544922 13.16103516 7.46875 14.453125 C7.76201172 15.22817383 8.05527344 16.00322266 8.35742188 16.80175781 C9 19 9 19 9 23 C3.72 23 -1.56 23 -7 23 C-5.48526781 15.01323028 -2.83197448 7.59877122 0 0 Z " fill="#E6ECF5" transform="translate(318,368)"/>
</svg>
