<?xml version="1.0" encoding="UTF-8"?>
<!DOCTYPE svg PUBLIC "-//W3C//DTD SVG 1.1//EN" "http://www.w3.org/Graphics/SVG/1.1/DTD/svg11.dtd">
<svg xmlns="http://www.w3.org/2000/svg" version="1.1" width="339px" height="149px" style="shape-rendering:geometricPrecision; text-rendering:geometricPrecision; image-rendering:optimizeQuality; fill-rule:evenodd; clip-rule:evenodd" xmlns:xlink="http://www.w3.org/1999/xlink">
<g><path style="opacity:1" fill="#fdfcfc" d="M -0.5,-0.5 C 112.5,-0.5 225.5,-0.5 338.5,-0.5C 338.5,49.1667 338.5,98.8333 338.5,148.5C 225.5,148.5 112.5,148.5 -0.5,148.5C -0.5,98.8333 -0.5,49.1667 -0.5,-0.5 Z"/></g>
<g><path style="opacity:1" fill="#38559a" d="M 192.5,32.5 C 192.67,33.8221 192.337,34.9887 191.5,36C 192.448,36.4828 193.448,36.6495 194.5,36.5C 194.349,39.7181 193.516,40.0515 192,37.5C 191.667,38.5 191.333,39.5 191,40.5C 189.821,36.3291 187.321,34.9958 183.5,36.5C 183.631,35.6236 183.298,34.9569 182.5,34.5C 179.004,35.4777 178.67,34.6444 181.5,32C 179.687,32.0464 178.021,31.8797 176.5,31.5C 179.167,27.5 178.5,26.8333 174.5,29.5C 172.164,28.4061 172.164,27.0728 174.5,25.5C 174.167,25.1667 173.833,24.8333 173.5,24.5C 172.5,25.1667 171.5,25.8333 170.5,26.5C 162.28,21.0537 153.28,17.887 143.5,17C 151.371,19.2707 158.704,22.604 165.5,27C 168.044,28.7748 168.044,30.6082 165.5,32.5C 167.329,33.2824 168.829,32.6157 170,30.5C 171.827,32.2399 171.66,33.9065 169.5,35.5C 169.833,35.8333 170.167,36.1667 170.5,36.5C 171.5,35.8333 172.5,35.1667 173.5,34.5C 174.622,36.0436 174.289,37.377 172.5,38.5C 172.957,39.2975 173.624,39.6309 174.5,39.5C 173.903,40.1386 173.07,40.472 172,40.5C 168.888,39.5169 165.722,38.8503 162.5,38.5C 162.753,36.1727 162.086,34.1727 160.5,32.5C 154.5,33.8333 148.5,33.8333 142.5,32.5C 141.141,33.6243 140.141,34.9577 139.5,36.5C 135.065,29.5644 129.732,23.3978 123.5,18C 140.382,8.76757 157.716,8.1009 175.5,16C 182.332,20.3325 187.999,25.8325 192.5,32.5 Z"/></g>
<g><path style="opacity:1" fill="#e3b1ac" d="M 261.5,24.5 C 275.657,23.5041 289.99,23.1707 304.5,23.5C 304.825,31.3516 304.492,39.0182 303.5,46.5C 303.5,40.1667 303.5,33.8333 303.5,27.5C 303.5,26.5 303.5,25.5 303.5,24.5C 289.5,24.5 275.5,24.5 261.5,24.5 Z"/></g>
<g><path style="opacity:1" fill="#cd1a1f" d="M 261.5,24.5 C 275.5,24.5 289.5,24.5 303.5,24.5C 303.5,25.5 303.5,26.5 303.5,27.5C 289.5,27.5 275.5,27.5 261.5,27.5C 261.5,26.5 261.5,25.5 261.5,24.5 Z"/></g>
<g><path style="opacity:1" fill="#ce171e" d="M 252.5,39.5 C 251.677,36.023 251.177,32.3563 251,28.5C 250.612,27.572 249.945,26.9054 249,26.5C 239.176,27.2358 229.343,27.9025 219.5,28.5C 219.649,29.552 219.483,30.552 219,31.5C 218.764,29.8807 217.931,28.8807 216.5,28.5C 216.5,27.1667 216.5,25.8333 216.5,24.5C 228.5,24.5 240.5,24.5 252.5,24.5C 252.5,29.5 252.5,34.5 252.5,39.5 Z"/></g>
<g><path style="opacity:1" fill="#be1d21" d="M 71.5,29.5 C 68.7974,30.963 65.7974,31.7963 62.5,32C 61.8095,33.0674 61.3095,34.2341 61,35.5C 60.434,44.8469 60.6007,54.1802 61.5,63.5C 60.6981,62.0484 60.1981,60.3817 60,58.5C 59.921,60.7364 59.421,62.0697 58.5,62.5C 58.6664,53.8269 58.4998,45.1603 58,36.5C 57.3292,35.7476 56.4959,35.4142 55.5,35.5C 54.5,34.1667 53.5,34.1667 52.5,35.5C 51.71,34.3915 51.21,33.0581 51,31.5C 50.6667,33.1667 50.3333,34.8333 50,36.5C 49.8008,34.5975 48.9675,33.0975 47.5,32C 43.46,31.6121 39.96,30.7788 37,29.5C 37.0773,30.7376 36.9106,31.7376 36.5,32.5C 35.8165,32.1373 35.1499,31.8039 34.5,31.5C 34.5,29.1667 34.5,26.8333 34.5,24.5C 45.5637,24.0939 56.5637,24.5939 67.5,26C 69.0931,26.9487 70.4264,28.1154 71.5,29.5 Z"/></g>
<g><path style="opacity:1" fill="#b81f23" d="M 261.5,27.5 C 275.5,27.5 289.5,27.5 303.5,27.5C 303.5,33.8333 303.5,40.1667 303.5,46.5C 299.833,46.5 296.167,46.5 292.5,46.5C 292.815,42.6286 292.482,38.9619 291.5,35.5C 291.44,34.9569 291.107,34.6236 290.5,34.5C 289.548,36.0453 289.215,37.712 289.5,39.5C 286.328,38.2037 282.995,37.2037 279.5,36.5C 278.846,34.8849 278.346,33.2182 278,31.5C 277.51,32.7932 277.343,34.1266 277.5,35.5C 276.5,35.5 275.5,35.5 274.5,35.5C 272.586,38.6843 271.92,42.351 272.5,46.5C 268.833,46.5 265.167,46.5 261.5,46.5C 261.5,40.1667 261.5,33.8333 261.5,27.5 Z"/></g>
<g><path style="opacity:1" fill="#bd2026" d="M 252.5,39.5 C 248.627,41.4302 244.294,42.0969 239.5,41.5C 240.212,36.2485 238.212,34.2485 233.5,35.5C 229.546,36.7646 225.546,36.7646 221.5,35.5C 222.428,34.2322 222.595,32.8989 222,31.5C 220.441,33.2166 219.608,35.2166 219.5,37.5C 219.167,37.5 218.833,37.5 218.5,37.5C 217.08,34.7387 216.413,31.7387 216.5,28.5C 217.931,28.8807 218.764,29.8807 219,31.5C 219.483,30.552 219.649,29.552 219.5,28.5C 229.343,27.9025 239.176,27.2358 249,26.5C 249.945,26.9054 250.612,27.572 251,28.5C 251.177,32.3563 251.677,36.023 252.5,39.5 Z"/></g>
<g><path style="opacity:1" fill="#bf1f25" d="M 119.5,33.5 C 117.012,35.3878 114.012,36.0545 110.5,35.5C 110.664,38.1873 110.497,40.854 110,43.5C 108.924,40.6405 108.091,37.6405 107.5,34.5C 106.686,36.7662 106.186,39.0995 106,41.5C 105.722,40.5842 105.222,39.9175 104.5,39.5C 104.192,35.9909 102.192,34.3243 98.5,34.5C 98.5,37.8333 98.5,41.1667 98.5,44.5C 97.425,42.2601 97.0917,37.9268 97.5,31.5C 94.1667,31.5 90.8333,31.5 87.5,31.5C 87.5086,33.3084 87.0086,34.9751 86,36.5C 85.1618,35.001 84.3285,34.6676 83.5,35.5C 82.8826,35.3893 82.3826,35.056 82,34.5C 81.5017,31.1832 81.335,27.8499 81.5,24.5C 91.5056,24.3335 101.506,24.5002 111.5,25C 115.785,26.4475 118.452,29.2808 119.5,33.5 Z"/></g>
<g><path style="opacity:1" fill="#dee2ea" d="M 183.5,36.5 C 182.224,37.3864 182.224,38.3864 183.5,39.5C 184.451,38.6744 185.451,38.5078 186.5,39C 184.993,39.8373 184.493,41.0039 185,42.5C 186.135,42.727 187.302,43.0604 188.5,43.5C 187.737,47.7063 188.57,51.7063 191,55.5C 191.74,58.1757 192.073,60.8424 192,63.5C 190.503,58.5014 188.336,53.8348 185.5,49.5C 183.833,49.5 182.167,49.5 180.5,49.5C 181.313,48.1861 182.313,47.0195 183.5,46C 183,45.5 182.5,45 182,44.5C 180.89,46.0368 179.39,46.7035 177.5,46.5C 178.476,45.1851 179.476,43.8518 180.5,42.5C 178.939,41.6527 177.439,41.9861 176,43.5C 176.783,41.6546 177.116,39.6546 177,37.5C 176.292,38.3805 175.458,39.0472 174.5,39.5C 173.624,39.6309 172.957,39.2975 172.5,38.5C 174.289,37.377 174.622,36.0436 173.5,34.5C 172.5,35.1667 171.5,35.8333 170.5,36.5C 170.167,36.1667 169.833,35.8333 169.5,35.5C 171.66,33.9065 171.827,32.2399 170,30.5C 168.829,32.6157 167.329,33.2824 165.5,32.5C 168.044,30.6082 168.044,28.7748 165.5,27C 158.704,22.604 151.371,19.2707 143.5,17C 153.28,17.887 162.28,21.0537 170.5,26.5C 171.5,25.8333 172.5,25.1667 173.5,24.5C 173.833,24.8333 174.167,25.1667 174.5,25.5C 172.164,27.0728 172.164,28.4061 174.5,29.5C 178.5,26.8333 179.167,27.5 176.5,31.5C 178.021,31.8797 179.687,32.0464 181.5,32C 178.67,34.6444 179.004,35.4777 182.5,34.5C 183.298,34.9569 183.631,35.6236 183.5,36.5 Z"/></g>
<g><path style="opacity:1" fill="#faf6f4" d="M 55.5,35.5 C 56.4959,35.4142 57.3292,35.7476 58,36.5C 58.4998,45.1603 58.6664,53.8269 58.5,62.5C 56.9582,63.3007 55.2915,63.634 53.5,63.5C 52.8611,53.7734 53.5278,44.4401 55.5,35.5 Z"/></g>
<g><path style="opacity:1" fill="#e9d0c2" d="M 55.5,35.5 C 53.5278,44.4401 52.8611,53.7734 53.5,63.5C 53.1667,63.5 52.8333,63.5 52.5,63.5C 52.5,54.1667 52.5,44.8333 52.5,35.5C 53.5,34.1667 54.5,34.1667 55.5,35.5 Z"/></g>
<g><path style="opacity:1" fill="#ae1e23" d="M 52.5,35.5 C 52.5,44.8333 52.5,54.1667 52.5,63.5C 51.0074,55.7173 50.1741,47.7173 50,39.5C 49.6667,47.5 49.3333,55.5 49,63.5C 48.6667,60.8333 48.3333,58.1667 48,55.5C 45.544,57.3213 42.7107,57.988 39.5,57.5C 39.7989,59.604 39.4656,61.604 38.5,63.5C 37.8333,54.3423 37.1666,45.3423 36.5,36.5C 35.8333,34.8333 35.1667,33.1667 34.5,31.5C 35.1499,31.8039 35.8165,32.1373 36.5,32.5C 36.9106,31.7376 37.0773,30.7376 37,29.5C 39.96,30.7788 43.46,31.6121 47.5,32C 48.9675,33.0975 49.8008,34.5975 50,36.5C 50.3333,34.8333 50.6667,33.1667 51,31.5C 51.21,33.0581 51.71,34.3915 52.5,35.5 Z"/></g>
<g><path style="opacity:1" fill="#ac1f25" d="M 71.5,29.5 C 72.9265,31.1484 73.7599,33.1484 74,35.5C 74.6667,44.8333 74.6667,54.1667 74,63.5C 73.7216,64.4158 73.2216,65.0825 72.5,65.5C 71.8444,64.7222 71.0111,64.0556 70,63.5C 66.2487,65.4906 63.9154,64.4906 63,60.5C 62.7679,61.7375 62.2679,62.7375 61.5,63.5C 60.6007,54.1802 60.434,44.8469 61,35.5C 61.3095,34.2341 61.8095,33.0674 62.5,32C 65.7974,31.7963 68.7974,30.963 71.5,29.5 Z"/></g>
<g><path style="opacity:1" fill="#a62324" d="M 98.5,44.5 C 102.938,45.5749 104.938,43.9083 104.5,39.5C 105.222,39.9175 105.722,40.5842 106,41.5C 106.186,39.0995 106.686,36.7662 107.5,34.5C 108.091,37.6405 108.924,40.6405 110,43.5C 110.497,40.854 110.664,38.1873 110.5,35.5C 114.012,36.0545 117.012,35.3878 119.5,33.5C 121.556,39.9332 119.889,45.2665 114.5,49.5C 116.709,50.063 118.209,51.3964 119,53.5C 120.153,60.4752 120.987,67.4752 121.5,74.5C 115.833,74.5 110.167,74.5 104.5,74.5C 103.958,68.1697 103.291,61.8364 102.5,55.5C 101.264,54.7542 99.9305,54.4208 98.5,54.5C 99.1667,61.1667 99.8333,67.8333 100.5,74.5C 94.1667,74.5 87.8333,74.5 81.5,74.5C 83.2337,61.6746 83.9004,48.6746 83.5,35.5C 84.3285,34.6676 85.1618,35.001 86,36.5C 87.0086,34.9751 87.5086,33.3084 87.5,31.5C 90.8333,31.5 94.1667,31.5 97.5,31.5C 97.0917,37.9268 97.425,42.2601 98.5,44.5 Z"/></g>
<g><path style="opacity:1" fill="#f8f0ec" d="M 104.5,39.5 C 104.938,43.9083 102.938,45.5749 98.5,44.5C 98.5,41.1667 98.5,37.8333 98.5,34.5C 102.192,34.3243 104.192,35.9909 104.5,39.5 Z"/></g>
<g><path style="opacity:1" fill="#ac1d23" d="M 233.5,35.5 C 233.5,38.5 233.5,41.5 233.5,44.5C 236.833,44.5 240.167,44.5 243.5,44.5C 243.5,47.5 243.5,50.5 243.5,53.5C 240.167,53.5 236.833,53.5 233.5,53.5C 233.5,56.8333 233.5,60.1667 233.5,63.5C 232.527,61.0521 232.194,58.3854 232.5,55.5C 229.167,55.5 225.833,55.5 222.5,55.5C 221.998,34.177 221.164,34.177 220,55.5C 219.501,49.5092 219.334,43.5092 219.5,37.5C 219.608,35.2166 220.441,33.2166 222,31.5C 222.595,32.8989 222.428,34.2322 221.5,35.5C 225.546,36.7646 229.546,36.7646 233.5,35.5 Z"/></g>
<g><path style="opacity:1" fill="#a72124" d="M 289.5,39.5 C 289.174,47.6841 289.508,55.6841 290.5,63.5C 291.117,63.6107 291.617,63.944 292,64.5C 292.498,67.4816 292.665,70.4816 292.5,73.5C 286.167,73.5 279.833,73.5 273.5,73.5C 274.293,60.8497 274.626,48.183 274.5,35.5C 275.5,35.5 276.5,35.5 277.5,35.5C 277.343,34.1266 277.51,32.7932 278,31.5C 278.346,33.2182 278.846,34.8849 279.5,36.5C 282.995,37.2037 286.328,38.2037 289.5,39.5 Z"/></g>
<g><path style="opacity:1" fill="#b45259" d="M 291.5,35.5 C 290.506,44.6517 290.173,53.985 290.5,63.5C 289.508,55.6841 289.174,47.6841 289.5,39.5C 289.215,37.712 289.548,36.0453 290.5,34.5C 291.107,34.6236 291.44,34.9569 291.5,35.5 Z"/></g>
<g><path style="opacity:1" fill="#2e4b8d" d="M 174.5,39.5 C 175.458,39.0472 176.292,38.3805 177,37.5C 177.116,39.6546 176.783,41.6546 176,43.5C 177.439,41.9861 178.939,41.6527 180.5,42.5C 179.476,43.8518 178.476,45.1851 177.5,46.5C 176.503,46.4701 175.836,46.9701 175.5,48C 176.083,50.4993 177.416,52.4993 179.5,54C 178.975,54.6924 178.308,55.1924 177.5,55.5C 169.013,55.4294 160.347,55.4294 151.5,55.5C 151.167,52.8333 150.833,50.1667 150.5,47.5C 148.876,47.3601 147.71,48.0267 147,49.5C 146.667,48.1667 146.333,46.8333 146,45.5C 145.329,44.7476 144.496,44.4142 143.5,44.5C 142.601,41.605 141.267,38.9384 139.5,36.5C 140.141,34.9577 141.141,33.6243 142.5,32.5C 148.5,33.8333 154.5,33.8333 160.5,32.5C 162.086,34.1727 162.753,36.1727 162.5,38.5C 165.722,38.8503 168.888,39.5169 172,40.5C 173.07,40.472 173.903,40.1386 174.5,39.5 Z"/></g>
<g><path style="opacity:1" fill="#9e2122" d="M 218.5,37.5 C 218.833,37.5 219.167,37.5 219.5,37.5C 219.334,43.5092 219.501,49.5092 220,55.5C 221.164,34.177 221.998,34.177 222.5,55.5C 225.833,55.5 229.167,55.5 232.5,55.5C 232.194,58.3854 232.527,61.0521 233.5,63.5C 233.833,63.5 234.167,63.5 234.5,63.5C 235.414,66.728 235.747,70.0613 235.5,73.5C 229.167,73.5 222.833,73.5 216.5,73.5C 218.239,61.6781 218.905,49.6781 218.5,37.5 Z"/></g>
<g><path style="opacity:1" fill="#d9a9a6" d="M 243.5,53.5 C 240.713,54.4767 237.713,54.81 234.5,54.5C 234.5,57.5 234.5,60.5 234.5,63.5C 234.167,63.5 233.833,63.5 233.5,63.5C 233.5,60.1667 233.5,56.8333 233.5,53.5C 236.833,53.5 240.167,53.5 243.5,53.5 Z"/></g>
<g><path style="opacity:1" fill="#2a4483" d="M 192.5,32.5 C 201.14,45.0431 205.14,59.0431 204.5,74.5C 183.833,74.5 163.167,74.5 142.5,74.5C 144.757,68.8925 146.09,63.0592 146.5,57C 146.823,52.4788 145.823,48.3121 143.5,44.5C 144.496,44.4142 145.329,44.7476 146,45.5C 146.333,46.8333 146.667,48.1667 147,49.5C 147.71,48.0267 148.876,47.3601 150.5,47.5C 150.833,50.1667 151.167,52.8333 151.5,55.5C 160.347,55.4294 169.013,55.4294 177.5,55.5C 178.308,55.1924 178.975,54.6924 179.5,54C 177.416,52.4993 176.083,50.4993 175.5,48C 175.836,46.9701 176.503,46.4701 177.5,46.5C 179.39,46.7035 180.89,46.0368 182,44.5C 182.5,45 183,45.5 183.5,46C 182.313,47.0195 181.313,48.1861 180.5,49.5C 182.167,49.5 183.833,49.5 185.5,49.5C 188.336,53.8348 190.503,58.5014 192,63.5C 192.073,60.8424 191.74,58.1757 191,55.5C 188.57,51.7063 187.737,47.7063 188.5,43.5C 187.302,43.0604 186.135,42.727 185,42.5C 184.493,41.0039 184.993,39.8373 186.5,39C 185.451,38.5078 184.451,38.6744 183.5,39.5C 182.224,38.3864 182.224,37.3864 183.5,36.5C 187.321,34.9958 189.821,36.3291 191,40.5C 191.333,39.5 191.667,38.5 192,37.5C 193.516,40.0515 194.349,39.7181 194.5,36.5C 193.448,36.6495 192.448,36.4828 191.5,36C 192.337,34.9887 192.67,33.8221 192.5,32.5 Z"/></g>
<g><path style="opacity:1" fill="#9b2422" d="M 36.5,36.5 C 37.1666,45.3423 37.8333,54.3423 38.5,63.5C 39.4656,61.604 39.7989,59.604 39.5,57.5C 42.7107,57.988 45.544,57.3213 48,55.5C 48.3333,58.1667 48.6667,60.8333 49,63.5C 49.3333,55.5 49.6667,47.5 50,39.5C 50.1741,47.7173 51.0074,55.7173 52.5,63.5C 52.8333,63.5 53.1667,63.5 53.5,63.5C 55.2915,63.634 56.9582,63.3007 58.5,62.5C 59.421,62.0697 59.921,60.7364 60,58.5C 60.1981,60.3817 60.6981,62.0484 61.5,63.5C 62.2679,62.7375 62.7679,61.7375 63,60.5C 63.9154,64.4906 66.2487,65.4906 70,63.5C 71.0111,64.0556 71.8444,64.7222 72.5,65.5C 71.6438,69.8544 68.9772,72.3544 64.5,73C 54.5056,73.4998 44.5056,73.6665 34.5,73.5C 36.2485,61.3443 36.9152,49.011 36.5,36.5 Z"/></g>
<g><path style="opacity:1" fill="#c51f26" d="M 210.5,103.5 C 208.777,101.22 208.111,98.5533 208.5,95.5C 204.489,95.3558 200.489,95.0225 196.5,94.5C 193.795,94.3161 191.462,94.9827 189.5,96.5C 189.5,96.8333 189.5,97.1667 189.5,97.5C 188.837,99.0419 188.17,100.709 187.5,102.5C 187.026,100.138 186.692,97.805 186.5,95.5C 185.702,97.0777 185.202,98.7444 185,100.5C 184.261,98.7795 183.427,97.1128 182.5,95.5C 181.201,96.09 180.368,97.09 180,98.5C 178.814,96.3234 176.981,95.3234 174.5,95.5C 173.523,92.7131 173.19,89.7131 173.5,86.5C 183.889,86.1302 194.223,86.6302 204.5,88C 207,89.1667 208.833,91 210,93.5C 210.498,96.8168 210.665,100.15 210.5,103.5 Z"/></g>
<g><path style="opacity:1" fill="#bd1f24" d="M 68.5,90.5 C 68.5,94.1667 68.5,97.8333 68.5,101.5C 64.1667,101.5 59.8333,101.5 55.5,101.5C 55.7373,100.209 55.404,99.209 54.5,98.5C 54.6716,97.5084 54.3382,96.8417 53.5,96.5C 53.9175,95.7784 54.5842,95.2784 55.5,95C 50.4382,94.9596 45.4382,94.793 40.5,94.5C 39.8333,94.8333 39.1667,95.1667 38.5,95.5C 37.6816,98.1071 37.1816,100.774 37,103.5C 36.7515,100.081 36.2515,96.7473 35.5,93.5C 36.6799,90.1554 39.0132,87.9887 42.5,87C 51.594,85.6044 60.2607,86.7711 68.5,90.5 Z"/></g>
<g><path style="opacity:1" fill="#c32027" d="M 252.5,103.5 C 251.153,102.972 249.819,102.805 248.5,103C 249.455,106.312 249.121,106.312 247.5,103C 248.112,100.942 249.112,99.109 250.5,97.5C 250.167,97.1667 249.833,96.8333 249.5,96.5C 248.184,99.028 247.017,99.028 246,96.5C 245.667,97.5 245.333,98.5 245,99.5C 244.392,97.9336 243.558,96.6002 242.5,95.5C 242.5,92.5 242.5,89.5 242.5,86.5C 247.833,86.5 253.167,86.5 258.5,86.5C 258.665,89.5184 258.498,92.5184 258,95.5C 255.91,98.0217 254.076,100.688 252.5,103.5 Z"/></g>
<g><path style="opacity:1" fill="#bb2226" d="M 300.5,90.5 C 300.5,94.1667 300.5,97.8333 300.5,101.5C 296.167,101.5 291.833,101.5 287.5,101.5C 287.737,100.209 287.404,99.209 286.5,98.5C 284.833,95.8333 283.167,95.8333 281.5,98.5C 280.733,99.172 280.066,100.005 279.5,101C 276.854,101.497 274.187,101.664 271.5,101.5C 271.657,100.127 271.49,98.7932 271,97.5C 270.853,100.11 270.019,102.444 268.5,104.5C 270.147,106.488 269.814,107.821 267.5,108.5C 262.6,94.2824 267.6,86.9491 282.5,86.5C 288.957,86.1894 294.957,87.5228 300.5,90.5 Z"/></g>
<g><path style="opacity:1" fill="#b92026" d="M 158.5,103.5 C 157.685,104.429 156.852,105.429 156,106.5C 155.667,104.167 155.333,101.833 155,99.5C 154.767,101.78 153.934,103.78 152.5,105.5C 151.808,104.975 151.308,104.308 151,103.5C 150.956,106.475 151.123,109.475 151.5,112.5C 147.944,112.725 147.61,111.892 150.5,110C 149.392,106.147 148.225,102.314 147,98.5C 146.56,100.866 146.06,103.199 145.5,105.5C 144.539,103.735 144.205,101.735 144.5,99.5C 143.791,98.596 142.791,98.2627 141.5,98.5C 141.66,100.199 141.494,101.866 141,103.5C 139.556,100.945 138.389,98.2787 137.5,95.5C 136.288,97.836 136.621,100.003 138.5,102C 137.704,103.092 137.037,104.259 136.5,105.5C 137.156,107.453 137.489,109.453 137.5,111.5C 140.375,112.623 143.375,113.456 146.5,114C 142.71,114.855 139.044,116.022 135.5,117.5C 138.099,118.031 140.765,118.198 143.5,118C 141.776,118.448 141.109,119.282 141.5,120.5C 139.837,119.125 138.503,119.458 137.5,121.5C 136.808,120.975 136.308,120.308 136,119.5C 135.581,120.672 134.915,121.672 134,122.5C 133.667,120.167 133.333,117.833 133,115.5C 132.51,116.793 132.343,118.127 132.5,119.5C 131.167,119.5 129.833,119.5 128.5,119.5C 130.247,108.526 131.914,97.526 133.5,86.5C 140.833,86.5 148.167,86.5 155.5,86.5C 156.394,92.1965 157.394,97.8632 158.5,103.5 Z"/></g>
<g><path style="opacity:1" fill="#be2428" d="M 236.5,103.5 C 235.732,104.263 235.232,105.263 235,106.5C 234.178,104.212 233.511,101.878 233,99.5C 232.667,101.5 232.333,103.5 232,105.5C 229.196,103.656 226.03,102.989 222.5,103.5C 222.784,101.585 222.451,99.9187 221.5,98.5C 219.987,94.682 219.32,90.682 219.5,86.5C 225.5,86.5 231.5,86.5 237.5,86.5C 237.24,92.172 236.907,97.8387 236.5,103.5 Z"/></g>
<g><path style="opacity:1" fill="#c22227" d="M 94.5,103.5 C 93.2374,100.831 91.7374,98.831 90,97.5C 89.5034,104.503 88.8368,104.837 88,98.5C 85.2809,99.4438 82.4475,99.7771 79.5,99.5C 78.1245,95.3025 77.4579,90.9691 77.5,86.5C 83.5,86.5 89.5,86.5 95.5,86.5C 95.2401,92.172 94.9068,97.8387 94.5,103.5 Z"/></g>
<g><path style="opacity:1" fill="#cb737a" d="M 68.5,90.5 C 69.4834,94.2984 69.8168,98.2984 69.5,102.5C 64.5,102.5 59.5,102.5 54.5,102.5C 54.5,101.167 54.5,99.8333 54.5,98.5C 55.404,99.209 55.7373,100.209 55.5,101.5C 59.8333,101.5 64.1667,101.5 68.5,101.5C 68.5,97.8333 68.5,94.1667 68.5,90.5 Z"/></g>
<g><path style="opacity:1" fill="#d28282" d="M 99.5,95.5 C 100.473,97.9479 100.806,100.615 100.5,103.5C 100.03,104.693 99.0296,105.36 97.5,105.5C 96.2739,105.48 95.2739,105.147 94.5,104.5C 96.1667,104.5 97.8333,104.5 99.5,104.5C 99.5,101.5 99.5,98.5 99.5,95.5 Z"/></g>
<g><path style="opacity:1" fill="#cf747c" d="M 300.5,90.5 C 301.483,94.2984 301.817,98.2984 301.5,102.5C 296.5,102.5 291.5,102.5 286.5,102.5C 286.5,101.167 286.5,99.8333 286.5,98.5C 287.404,99.209 287.737,100.209 287.5,101.5C 291.833,101.5 296.167,101.5 300.5,101.5C 300.5,97.8333 300.5,94.1667 300.5,90.5 Z"/></g>
<g><path style="opacity:1" fill="#ab2124" d="M 35.5,93.5 C 36.2515,96.7473 36.7515,100.081 37,103.5C 37.1816,100.774 37.6816,98.1071 38.5,95.5C 39.1667,95.1667 39.8333,94.8333 40.5,94.5C 45.4382,94.793 50.4382,94.9596 55.5,95C 54.5842,95.2784 53.9175,95.7784 53.5,96.5C 49.081,97.3229 48.4144,99.4895 51.5,103C 55.7755,104.486 60.1089,105.819 64.5,107C 68.8729,109.918 70.8729,114.084 70.5,119.5C 70.5512,122.697 69.8846,125.697 68.5,128.5C 65.9805,128.847 63.8138,129.514 62,130.5C 53.7433,128.99 54.2433,128.323 63.5,128.5C 63.6567,127.127 63.49,125.793 63,124.5C 61.2699,125.74 59.4366,126.74 57.5,127.5C 56.0445,126.61 54.7112,126.61 53.5,127.5C 52.4376,126.575 52.4376,125.575 53.5,124.5C 56.1402,122.121 56.1402,119.621 53.5,117C 47.0797,115.776 41.2464,113.276 36,109.5C 34.2524,104.099 34.0858,98.7661 35.5,93.5 Z"/></g>
<g><path style="opacity:1" fill="#aa1f24" d="M 94.5,103.5 C 94.5,103.833 94.5,104.167 94.5,104.5C 95.2739,105.147 96.2739,105.48 97.5,105.5C 99.0296,105.36 100.03,104.693 100.5,103.5C 101.29,102.391 101.79,101.058 102,99.5C 102.758,101.769 102.591,103.936 101.5,106C 103.061,106.188 103.728,105.355 103.5,103.5C 106.5,103.5 109.5,103.5 112.5,103.5C 112.5,108.833 112.5,114.167 112.5,119.5C 112.66,121.199 112.494,122.866 112,124.5C 110.647,123.296 108.981,122.629 107,122.5C 103.869,122.284 101.869,123.617 101,126.5C 100.536,125.906 100.369,125.239 100.5,124.5C 100.5,120.833 100.5,117.167 100.5,113.5C 98.5,113.5 96.5,113.5 94.5,113.5C 94.5,116.833 94.5,120.167 94.5,123.5C 93.0337,122.653 92.2004,121.32 92,119.5C 91.6667,121.5 91.3333,123.5 91,125.5C 90.6667,125.167 90.3333,124.833 90,124.5C 89.6667,125.5 89.3333,126.5 89,127.5C 88.5065,125.866 88.3398,124.199 88.5,122.5C 85.5,122.5 82.5,122.5 79.5,122.5C 79.5,114.833 79.5,107.167 79.5,99.5C 82.4475,99.7771 85.2809,99.4438 88,98.5C 88.8368,104.837 89.5034,104.503 90,97.5C 91.7374,98.831 93.2374,100.831 94.5,103.5 Z"/></g>
<g><path style="opacity:1" fill="#a52123" d="M 242.5,95.5 C 243.558,96.6002 244.392,97.9336 245,99.5C 245.333,98.5 245.667,97.5 246,96.5C 247.017,99.028 248.184,99.028 249.5,96.5C 249.833,96.8333 250.167,97.1667 250.5,97.5C 249.112,99.109 248.112,100.942 247.5,103C 249.121,106.312 249.455,106.312 248.5,103C 249.819,102.805 251.153,102.972 252.5,103.5C 251.763,105.305 250.763,106.971 249.5,108.5C 252.412,114.658 255.579,120.658 259,126.5C 259.497,129.146 259.664,131.813 259.5,134.5C 253.833,134.5 248.167,134.5 242.5,134.5C 243.182,127.385 241.349,121.052 237,115.5C 237.013,121.818 237.179,128.151 237.5,134.5C 231.833,134.5 226.167,134.5 220.5,134.5C 220.342,131.098 220.676,127.764 221.5,124.5C 221.5,115.833 221.5,107.167 221.5,98.5C 222.451,99.9187 222.784,101.585 222.5,103.5C 226.03,102.989 229.196,103.656 232,105.5C 232.333,103.5 232.667,101.5 233,99.5C 233.511,101.878 234.178,104.212 235,106.5C 235.232,105.263 235.732,104.263 236.5,103.5C 237.329,104.332 238.162,103.999 239,102.5C 240.705,100.423 241.872,98.09 242.5,95.5 Z"/></g>
<g><path style="opacity:1" fill="#ab2125" d="M 281.5,98.5 C 281.297,100.39 281.963,101.89 283.5,103C 287.776,104.486 292.109,105.819 296.5,107C 302.799,112.852 304.132,119.685 300.5,127.5C 299.745,121.014 298.245,121.014 296,127.5C 293.504,125.166 290.671,123.5 287.5,122.5C 287.737,121.209 287.404,120.209 286.5,119.5C 283.773,116.136 280.106,114.302 275.5,114C 272.244,112.884 269.578,111.051 267.5,108.5C 269.814,107.821 270.147,106.488 268.5,104.5C 270.019,102.444 270.853,100.11 271,97.5C 271.49,98.7932 271.657,100.127 271.5,101.5C 274.187,101.664 276.854,101.497 279.5,101C 280.066,100.005 280.733,99.172 281.5,98.5 Z"/></g>
<g><path style="opacity:1" fill="#b81e24" d="M 115.5,123.5 C 115.631,124.239 115.464,124.906 115,125.5C 114.998,122.949 114.164,120.949 112.5,119.5C 112.5,114.167 112.5,108.833 112.5,103.5C 109.5,103.5 106.5,103.5 103.5,103.5C 103.728,105.355 103.061,106.188 101.5,106C 102.591,103.936 102.758,101.769 102,99.5C 101.79,101.058 101.29,102.391 100.5,103.5C 100.806,100.615 100.473,97.9479 99.5,95.5C 98.5233,92.7131 98.19,89.7131 98.5,86.5C 104.833,86.5 111.167,86.5 117.5,86.5C 115.934,98.7682 115.267,111.102 115.5,123.5 Z"/></g>
<g><path style="opacity:1" fill="#a22222" d="M 144.5,99.5 C 143.883,99.6107 143.383,99.944 143,100.5C 142.172,104.466 141.672,108.466 141.5,112.5C 142.833,112.5 144.167,112.5 145.5,112.5C 145.5,110.167 145.5,107.833 145.5,105.5C 146.06,103.199 146.56,100.866 147,98.5C 148.225,102.314 149.392,106.147 150.5,110C 147.61,111.892 147.944,112.725 151.5,112.5C 151.123,109.475 150.956,106.475 151,103.5C 151.308,104.308 151.808,104.975 152.5,105.5C 153.934,103.78 154.767,101.78 155,99.5C 155.333,101.833 155.667,104.167 156,106.5C 156.852,105.429 157.685,104.429 158.5,103.5C 159.975,110.79 161.808,118.123 164,125.5C 164.498,128.482 164.665,131.482 164.5,134.5C 158.167,134.5 151.833,134.5 145.5,134.5C 145.458,130.031 146.125,125.698 147.5,121.5C 145.167,121.5 142.833,121.5 140.5,121.5C 141.2,125.798 141.533,130.131 141.5,134.5C 136.167,134.5 130.833,134.5 125.5,134.5C 124.982,129.061 125.982,124.061 128.5,119.5C 129.833,119.5 131.167,119.5 132.5,119.5C 132.343,118.127 132.51,116.793 133,115.5C 133.333,117.833 133.667,120.167 134,122.5C 134.915,121.672 135.581,120.672 136,119.5C 136.308,120.308 136.808,120.975 137.5,121.5C 138.503,119.458 139.837,119.125 141.5,120.5C 141.109,119.282 141.776,118.448 143.5,118C 140.765,118.198 138.099,118.031 135.5,117.5C 139.044,116.022 142.71,114.855 146.5,114C 143.375,113.456 140.375,112.623 137.5,111.5C 137.489,109.453 137.156,107.453 136.5,105.5C 137.037,104.259 137.704,103.092 138.5,102C 136.621,100.003 136.288,97.836 137.5,95.5C 138.389,98.2787 139.556,100.945 141,103.5C 141.494,101.866 141.66,100.199 141.5,98.5C 142.791,98.2627 143.791,98.596 144.5,99.5 Z"/></g>
<g><path style="opacity:1" fill="#f4e3d9" d="M 144.5,99.5 C 144.205,101.735 144.539,103.735 145.5,105.5C 145.5,107.833 145.5,110.167 145.5,112.5C 144.167,112.5 142.833,112.5 141.5,112.5C 141.672,108.466 142.172,104.466 143,100.5C 143.383,99.944 143.883,99.6107 144.5,99.5 Z"/></g>
<g><path style="opacity:1" fill="#a92325" d="M 210.5,103.5 C 209.658,106.866 207.658,109.199 204.5,110.5C 206.709,111.063 208.209,112.396 209,114.5C 209.675,121.27 210.508,127.936 211.5,134.5C 206.167,134.5 200.833,134.5 195.5,134.5C 194.812,128.866 194.312,123.199 194,117.5C 190.685,114.393 189.185,115.226 189.5,120C 189.338,122.502 190.005,124.669 191.5,126.5C 190.842,127.398 190.176,128.398 189.5,129.5C 189.687,128.183 189.02,126.85 187.5,125.5C 186.833,126.167 186.167,126.833 185.5,127.5C 184.193,119.606 183.527,119.606 183.5,127.5C 180.833,127.5 178.167,127.5 175.5,127.5C 175.737,126.209 175.404,125.209 174.5,124.5C 174.5,114.833 174.5,105.167 174.5,95.5C 176.981,95.3234 178.814,96.3234 180,98.5C 180.368,97.09 181.201,96.09 182.5,95.5C 183.427,97.1128 184.261,98.7795 185,100.5C 185.202,98.7444 185.702,97.0777 186.5,95.5C 186.692,97.805 187.026,100.138 187.5,102.5C 188.17,100.709 188.837,99.0419 189.5,97.5C 189.5,100.5 189.5,103.5 189.5,106.5C 195.263,106.217 196.93,103.384 194.5,98C 192.975,96.9914 191.308,96.4914 189.5,96.5C 191.462,94.9827 193.795,94.3161 196.5,94.5C 200.489,95.0225 204.489,95.3558 208.5,95.5C 208.111,98.5533 208.777,101.22 210.5,103.5 Z"/></g>
<g><path style="opacity:1" fill="#f7efed" d="M 189.5,96.5 C 191.308,96.4914 192.975,96.9914 194.5,98C 196.93,103.384 195.263,106.217 189.5,106.5C 189.5,103.5 189.5,100.5 189.5,97.5C 189.5,97.1667 189.5,96.8333 189.5,96.5 Z"/></g>
<g><path style="opacity:1" fill="#d4ab9e" d="M 100.5,124.5 C 100.167,124.5 99.8333,124.5 99.5,124.5C 99.5,121.167 99.5,117.833 99.5,114.5C 98.1667,114.5 96.8333,114.5 95.5,114.5C 95.5,117.833 95.5,121.167 95.5,124.5C 94.8333,124.5 94.5,124.167 94.5,123.5C 94.5,120.167 94.5,116.833 94.5,113.5C 96.5,113.5 98.5,113.5 100.5,113.5C 100.5,117.167 100.5,120.833 100.5,124.5 Z"/></g>
<g><path style="opacity:1" fill="#98221f" d="M 53.5,124.5 C 52.4376,125.575 52.4376,126.575 53.5,127.5C 54.7112,126.61 56.0445,126.61 57.5,127.5C 59.4366,126.74 61.2699,125.74 63,124.5C 63.49,125.793 63.6567,127.127 63.5,128.5C 54.2433,128.323 53.7433,128.99 62,130.5C 63.8138,129.514 65.9805,128.847 68.5,128.5C 65.4167,132.88 61.0834,135.046 55.5,135C 47.9853,136.298 41.1519,134.798 35,130.5C 34.501,126.179 34.3343,121.846 34.5,117.5C 39.5,117.5 44.5,117.5 49.5,117.5C 49.3379,119.527 49.5045,121.527 50,123.5C 51.0113,124.337 52.1779,124.67 53.5,124.5 Z"/></g>
<g><path style="opacity:1" fill="#982320" d="M 94.5,123.5 C 94.5,124.167 94.8333,124.5 95.5,124.5C 96.4137,127.728 96.7471,131.061 96.5,134.5C 90.5,134.5 84.5,134.5 78.5,134.5C 78.307,130.434 78.6403,126.434 79.5,122.5C 82.5,122.5 85.5,122.5 88.5,122.5C 88.3398,124.199 88.5065,125.866 89,127.5C 89.3333,126.5 89.6667,125.5 90,124.5C 90.3333,124.833 90.6667,125.167 91,125.5C 91.3333,123.5 91.6667,121.5 92,119.5C 92.2004,121.32 93.0337,122.653 94.5,123.5 Z"/></g>
<g><path style="opacity:1" fill="#992622" d="M 112.5,119.5 C 114.164,120.949 114.998,122.949 115,125.5C 115.464,124.906 115.631,124.239 115.5,123.5C 116.222,123.918 116.722,124.584 117,125.5C 117.498,128.482 117.665,131.482 117.5,134.5C 111.167,134.5 104.833,134.5 98.5,134.5C 98.2529,131.061 98.5863,127.728 99.5,124.5C 99.8333,124.5 100.167,124.5 100.5,124.5C 100.369,125.239 100.536,125.906 101,126.5C 101.869,123.617 103.869,122.284 107,122.5C 108.981,122.629 110.647,123.296 112,124.5C 112.494,122.866 112.66,121.199 112.5,119.5 Z"/></g>
<g><path style="opacity:1" fill="#9c2321" d="M 286.5,119.5 C 287.404,120.209 287.737,121.209 287.5,122.5C 290.671,123.5 293.504,125.166 296,127.5C 298.245,121.014 299.745,121.014 300.5,127.5C 298.622,132.43 294.956,134.93 289.5,135C 281.325,136.534 273.825,135.034 267,130.5C 266.501,126.179 266.334,121.846 266.5,117.5C 271.5,117.5 276.5,117.5 281.5,117.5C 281.338,119.527 281.505,121.527 282,123.5C 283.356,124.38 284.856,124.714 286.5,124.5C 286.5,122.833 286.5,121.167 286.5,119.5 Z"/></g>
<g><path style="opacity:1" fill="#b57674" d="M 221.5,124.5 C 220.676,127.764 220.342,131.098 220.5,134.5C 219.362,131.696 219.195,128.696 220,125.5C 220.383,124.944 220.883,124.611 221.5,124.5 Z"/></g>
<g><path style="opacity:1" fill="#911a18" d="M 191.5,126.5 C 191.5,129.167 191.5,131.833 191.5,134.5C 185.5,134.5 179.5,134.5 173.5,134.5C 173.253,131.061 173.586,127.728 174.5,124.5C 175.404,125.209 175.737,126.209 175.5,127.5C 178.167,127.5 180.833,127.5 183.5,127.5C 183.527,119.606 184.193,119.606 185.5,127.5C 186.167,126.833 186.833,126.167 187.5,125.5C 189.02,126.85 189.687,128.183 189.5,129.5C 190.176,128.398 190.842,127.398 191.5,126.5 Z"/></g>
</svg>
