<?xml version="1.0" encoding="UTF-8"?>
<!DOCTYPE svg PUBLIC "-//W3C//DTD SVG 1.1//EN" "http://www.w3.org/Graphics/SVG/1.1/DTD/svg11.dtd">
<svg xmlns="http://www.w3.org/2000/svg" version="1.1" width="266px" height="190px" style="shape-rendering:geometricPrecision; text-rendering:geometricPrecision; image-rendering:optimizeQuality; fill-rule:evenodd; clip-rule:evenodd" xmlns:xlink="http://www.w3.org/1999/xlink">
<g><path style="opacity:1" fill="#fefefd" d="M -0.5,-0.5 C 88.1667,-0.5 176.833,-0.5 265.5,-0.5C 265.5,62.8333 265.5,126.167 265.5,189.5C 176.833,189.5 88.1667,189.5 -0.5,189.5C -0.5,126.167 -0.5,62.8333 -0.5,-0.5 Z"/></g>
<g><path style="opacity:1" fill="#f77612" d="M 75.5,69.5 C 76.4614,67.7354 76.7947,65.7354 76.5,63.5C 74.8333,63.5 73.1667,63.5 71.5,63.5C 70.7611,63.631 70.0944,63.4643 69.5,63C 71.0175,61.3149 72.6841,59.8149 74.5,58.5C 73.2203,56.2984 73.2203,54.1317 74.5,52C 77.8929,52.5406 79.5596,54.7072 79.5,58.5C 87.0436,58.4489 87.3769,60.1156 80.5,63.5C 82.8824,69.7049 86.8824,71.3716 92.5,68.5C 96.4543,71.3475 99.7877,70.6808 102.5,66.5C 98.0338,62.4126 98.7005,61.0792 104.5,62.5C 105.228,60.8068 106.228,59.3068 107.5,58C 108.332,57.3123 108.998,57.479 109.5,58.5C 105.915,66.5077 103.415,74.841 102,83.5C 101.667,83.8333 101.333,84.1667 101,84.5C 100.801,82.5975 99.9675,81.0975 98.5,80C 88.6482,79.4621 79.3149,81.4621 70.5,86C 67.3159,87.8064 66.9825,89.8064 69.5,92C 68.5,92.6667 67.5,92.6667 66.5,92C 61.3546,84.3544 55.0212,77.8544 47.5,72.5C 50.1157,71.6136 52.4491,72.2802 54.5,74.5C 55.8333,73.5 57.1667,72.5 58.5,71.5C 59.8485,73.6114 59.5152,75.4447 57.5,77C 59.0344,77.923 60.701,78.423 62.5,78.5C 65.6025,75.9943 69.2692,74.4943 73.5,74C 74.5822,72.6703 75.2488,71.1703 75.5,69.5 Z"/></g>
<g><path style="opacity:1" fill="#fabd9a" d="M 71.5,63.5 C 73.1667,63.5 74.8333,63.5 76.5,63.5C 76.7947,65.7354 76.4614,67.7354 75.5,69.5C 75.5,67.8333 75.5,66.1667 75.5,64.5C 73.901,64.7678 72.5676,64.4345 71.5,63.5 Z"/></g>
<g><path style="opacity:1" fill="#64b61b" d="M 89.5,81.5 C 95.3084,80.6519 99.1417,82.9852 101,88.5C 102.765,108.399 93.5988,117.232 73.5,115C 68.6856,113.853 64.8523,111.353 62,107.5C 60.3178,102.567 61.8178,99.2337 66.5,97.5C 72.8735,98.7868 73.8735,101.62 69.5,106C 70.1007,107.605 71.1007,108.938 72.5,110C 91.2784,111.897 96.9451,104.23 89.5,87C 87.6547,85.872 85.6547,85.372 83.5,85.5C 82.8921,92.948 83.5587,100.115 85.5,107C 81.0752,108.871 76.7419,108.871 72.5,107C 74.276,100.443 75.1093,93.6093 75,86.5C 79.7467,84.2804 84.58,82.6137 89.5,81.5 Z"/></g>
<g><path style="opacity:1" fill="#b9dc9f" d="M 217.5,84.5 C 218.634,86.9664 218.801,89.633 218,92.5C 217.283,91.9558 216.783,91.2891 216.5,90.5C 217.461,88.7354 217.795,86.7354 217.5,84.5 Z"/></g>
<g><path style="opacity:1" fill="#61b516" d="M 105.5,85.5 C 112.736,84.0961 120.069,84.2628 127.5,86C 130.434,90.1109 129.767,93.6109 125.5,96.5C 127.245,100.408 129.578,103.908 132.5,107C 129.5,107.667 126.5,107.667 123.5,107C 121.033,103.884 118.699,100.718 116.5,97.5C 115.213,100.709 115.213,103.875 116.5,107C 112.833,107.667 109.167,107.667 105.5,107C 106.126,106.25 106.626,105.416 107,104.5C 107.667,98.8333 107.667,93.1667 107,87.5C 106.722,86.5842 106.222,85.9175 105.5,85.5 Z"/></g>
<g><path style="opacity:1" fill="#61b516" d="M 163.5,106.5 C 159.167,107.833 154.833,107.833 150.5,106.5C 151.461,104.735 151.795,102.735 151.5,100.5C 148.813,100.336 146.146,100.503 143.5,101C 142.233,102.796 142.233,104.629 143.5,106.5C 140.554,107.655 137.554,107.821 134.5,107C 138.261,101.061 141.261,94.7281 143.5,88C 143.241,86.7387 142.574,85.7387 141.5,85C 145.871,84.1725 150.205,84.3391 154.5,85.5C 156.568,91.5381 158.735,97.5381 161,103.5C 161.377,104.942 162.21,105.942 163.5,106.5 Z"/></g>
<g><path style="opacity:1" fill="#60b413" d="M 186.5,88.5 C 183.375,87.5206 180.042,87.1872 176.5,87.5C 176.5,89.8333 176.5,92.1667 176.5,94.5C 178.099,94.7678 179.432,94.4345 180.5,93.5C 181.496,93.5858 182.329,93.2524 183,92.5C 183.808,94.5787 183.641,96.5787 182.5,98.5C 181.583,97.8728 180.583,97.5394 179.5,97.5C 178.791,96.596 177.791,96.2627 176.5,96.5C 176.194,99.3854 176.527,102.052 177.5,104.5C 177.328,105.492 177.662,106.158 178.5,106.5C 174.702,107.483 170.702,107.817 166.5,107.5C 166.783,106.711 167.283,106.044 168,105.5C 168.667,99.1667 168.667,92.8333 168,86.5C 167.5,86 167,85.5 166.5,85C 174.493,84.5003 182.493,84.3336 190.5,84.5C 190.662,86.5273 190.495,88.5273 190,90.5C 189.184,89.1772 188.017,88.5106 186.5,88.5 Z"/></g>
<g><path style="opacity:1" fill="#61b516" d="M 217.5,84.5 C 217.795,86.7354 217.461,88.7354 216.5,90.5C 214.562,88.8372 212.228,88.1706 209.5,88.5C 209.334,94.1764 209.501,99.8431 210,105.5C 210.5,106 211,106.5 211.5,107C 207.5,107.667 203.5,107.667 199.5,107C 200.126,106.25 200.626,105.416 201,104.5C 201.499,98.8431 201.666,93.1764 201.5,87.5C 198.061,87.5887 195.228,88.9221 193,91.5C 192.503,89.1902 192.337,86.8568 192.5,84.5C 200.833,84.5 209.167,84.5 217.5,84.5 Z"/></g>
<g><path style="opacity:1" fill="#f0f7ea" d="M 114.5,87.5 C 119.895,86.5548 121.561,88.5548 119.5,93.5C 117.929,94.3094 116.262,94.6427 114.5,94.5C 114.5,92.1667 114.5,89.8333 114.5,87.5 Z"/></g>
<g><path style="opacity:1" fill="#c0e0a9" d="M 186.5,88.5 C 183.5,88.5 180.5,88.5 177.5,88.5C 177.5,90.1667 177.5,91.8333 177.5,93.5C 178.5,93.5 179.5,93.5 180.5,93.5C 179.432,94.4345 178.099,94.7678 176.5,94.5C 176.5,92.1667 176.5,89.8333 176.5,87.5C 180.042,87.1872 183.375,87.5206 186.5,88.5 Z"/></g>
<g><path style="opacity:1" fill="#f2f8ed" d="M 146.5,90.5 C 147.864,92.22 148.864,94.22 149.5,96.5C 147.833,97.8333 146.167,97.8333 144.5,96.5C 145.372,94.5504 146.039,92.5504 146.5,90.5 Z"/></g>
<g><path style="opacity:1" fill="#aed790" d="M 179.5,97.5 C 177.656,99.2789 176.99,101.612 177.5,104.5C 176.527,102.052 176.194,99.3854 176.5,96.5C 177.791,96.2627 178.791,96.596 179.5,97.5 Z"/></g>
<g><path style="opacity:1" fill="#daebd0" d="M 150.5,106.5 C 154.833,107.833 159.167,107.833 163.5,106.5C 164.391,107.11 165.391,107.443 166.5,107.5C 170.702,107.817 174.702,107.483 178.5,106.5C 179.043,106.56 179.376,106.893 179.5,107.5C 169.183,108.666 158.849,108.832 148.5,108C 149.044,107.283 149.711,106.783 150.5,106.5 Z"/></g>
<g><path style="opacity:1" fill="#0a0a0a" d="M 112.5,135.5 C 109.375,136.479 106.042,136.813 102.5,136.5C 98.8105,133.809 95.8105,130.476 93.5,126.5C 89.9963,129.344 89.663,132.511 92.5,136C 88.8333,136.667 85.1667,136.667 81.5,136C 82.4764,129.924 82.8097,123.758 82.5,117.5C 84.8056,117.007 87.139,116.674 89.5,116.5C 90.1646,118.369 90.8313,120.369 91.5,122.5C 92.1067,122.376 92.44,122.043 92.5,121.5C 94.8327,118.997 96.9993,116.331 99,113.5C 99.4828,112.552 99.6495,111.552 99.5,110.5C 102.518,110.335 105.518,110.502 108.5,111C 104.363,112.637 101.363,115.47 99.5,119.5C 102.433,126.087 106.766,131.421 112.5,135.5 Z"/></g>
<g><path style="opacity:1" fill="#4a4a4a" d="M 124.5,115.5 C 121.5,114.167 118.5,114.167 115.5,115.5C 114.711,115.217 114.044,114.717 113.5,114C 117.833,113.333 122.167,113.333 126.5,114C 125.956,114.717 125.289,115.217 124.5,115.5 Z"/></g>
<g><path style="opacity:1" fill="#080808" d="M 177.5,126.5 C 180.167,125.167 182.833,125.167 185.5,126.5C 185.5,126.833 185.5,127.167 185.5,127.5C 184.833,130.167 184.167,132.833 183.5,135.5C 179.618,135.849 175.785,136.515 172,137.5C 162.322,135.833 158.988,130.167 162,120.5C 163.5,117.667 165.667,115.5 168.5,114C 174.073,114.227 179.573,114.06 185,113.5C 185.667,116.167 185.667,118.833 185,121.5C 180.821,117.02 176.154,116.02 171,118.5C 168.939,123.242 169.106,127.908 171.5,132.5C 172.869,134.124 174.536,134.624 176.5,134C 177.435,131.619 177.768,129.119 177.5,126.5 Z"/></g>
<g><path style="opacity:1" fill="#090909" d="M 191.5,136.5 C 190.167,134.167 190.167,131.833 191.5,129.5C 194.747,132.955 198.747,134.455 203.5,134C 205.007,133.163 205.507,131.996 205,130.5C 201.555,129.209 198.055,128.043 194.5,127C 189.049,122.246 189.383,117.913 195.5,114C 200.226,114.016 204.893,113.849 209.5,113.5C 210.647,115.765 210.814,118.098 210,120.5C 206.006,116.018 201.84,115.518 197.5,119C 197.759,120.261 198.426,121.261 199.5,122C 203.435,122.084 207.102,123.084 210.5,125C 214.106,130.75 212.773,134.75 206.5,137C 201.499,137.251 196.499,137.084 191.5,136.5 Z"/></g>
<g><path style="opacity:1" fill="#000000" d="M 124.5,115.5 C 122.919,122.624 123.253,129.624 125.5,136.5C 121.958,136.813 118.625,136.479 115.5,135.5C 116.833,128.833 116.833,122.167 115.5,115.5C 118.5,114.167 121.5,114.167 124.5,115.5 Z"/></g>
<g><path style="opacity:1" fill="#0a0a0a" d="M 157.5,135.5 C 154.375,136.479 151.042,136.813 147.5,136.5C 144.109,132.072 140.942,127.406 138,122.5C 137.201,127.087 137.368,131.587 138.5,136C 136.167,136.667 133.833,136.667 131.5,136C 132.645,129.248 132.811,122.414 132,115.5C 131.5,115 131,114.5 130.5,114C 134.167,113.333 137.833,113.333 141.5,114C 145.371,118.907 148.871,124.074 152,129.5C 152.667,125.167 152.667,120.833 152,116.5C 151.626,115.584 151.126,114.75 150.5,114C 153.167,113.333 155.833,113.333 158.5,114C 157.874,114.75 157.374,115.584 157,116.5C 156.21,122.915 156.376,129.248 157.5,135.5 Z"/></g>
<g><path style="opacity:1" fill="#838383" d="M 89.5,116.5 C 89.56,115.957 89.8933,115.624 90.5,115.5C 91.1687,117.631 91.8354,119.631 92.5,121.5C 92.44,122.043 92.1067,122.376 91.5,122.5C 90.8313,120.369 90.1646,118.369 89.5,116.5 Z"/></g>
<g><path style="opacity:1" fill="#5c5c5c" d="M 185.5,126.5 C 182.833,125.167 180.167,125.167 177.5,126.5C 176.711,126.217 176.044,125.717 175.5,125C 179.5,124.333 183.5,124.333 187.5,125C 186.956,125.717 186.289,126.217 185.5,126.5 Z"/></g>
<g><path style="opacity:1" fill="#595959" d="M 185.5,127.5 C 185.817,130.572 185.484,133.572 184.5,136.5C 183.893,136.376 183.56,136.043 183.5,135.5C 184.167,132.833 184.833,130.167 185.5,127.5 Z"/></g>
<g><path style="opacity:1" fill="#6c6c6c" d="M 191.5,129.5 C 190.167,131.833 190.167,134.167 191.5,136.5C 191.44,137.043 191.107,137.376 190.5,137.5C 189.167,134.5 189.167,131.5 190.5,128.5C 191.107,128.624 191.44,128.957 191.5,129.5 Z"/></g>
<g><path style="opacity:1" fill="#818181" d="M 112.5,135.5 C 113.5,136.833 114.5,136.833 115.5,135.5C 118.625,136.479 121.958,136.813 125.5,136.5C 118.406,137.815 110.74,137.815 102.5,136.5C 106.042,136.813 109.375,136.479 112.5,135.5 Z"/></g>
<g><path style="opacity:1" fill="#838383" d="M 157.5,135.5 C 158.289,135.783 158.956,136.283 159.5,137C 155.311,137.812 151.311,137.645 147.5,136.5C 151.042,136.813 154.375,136.479 157.5,135.5 Z"/></g>
</svg>
