<?xml version="1.0" encoding="UTF-8"?>
<svg version="1.1" xmlns="http://www.w3.org/2000/svg" width="600" height="600">
<path d="M0 0 C198 0 396 0 600 0 C600 198 600 396 600 600 C402 600 204 600 0 600 C0 402 0 204 0 0 Z " fill="#FEFEFE" transform="translate(0,0)"/>
<path d="M0 0 C0.99068356 -0.0026096 0.99068356 -0.0026096 2.00138092 -0.00527191 C32.95367244 -0.07670413 63.439691 2.36572213 94.125 6.3125 C96.105 17.6975 96.105 17.6975 98.125 29.3125 C100.39890625 29.7971875 102.6728125 30.281875 105.015625 30.78125 C123.33302195 34.72395419 141.38476729 39.06267221 159.33129883 44.47802734 C162.58829208 45.45088437 165.85523978 46.38349017 169.125 47.3125 C169.96466999 51.58021564 170.80071071 55.84862222 171.63354492 60.11767578 C171.91675289 61.56675926 172.20091357 63.01565691 172.48608398 64.46435547 C172.898243 66.55907605 173.30685349 68.65446397 173.71484375 70.75 C173.96097412 72.00683594 174.20710449 73.26367188 174.46069336 74.55859375 C175.15336471 78.4727851 175.66409992 82.36520638 176.125 86.3125 C177.11604736 86.4983667 178.10709473 86.6842334 179.12817383 86.87573242 C225.82169419 95.66084709 225.82169419 95.66084709 233.125 99.3125 C233.95863791 101.86937154 234.67209952 104.38168198 235.33203125 106.984375 C235.5377626 107.7699881 235.74349396 108.5556012 235.95545959 109.36502075 C236.62432438 111.92880018 237.28118102 114.49548287 237.9375 117.0625 C238.3922776 118.81799118 238.84751881 120.57336232 239.30322266 122.32861328 C241.98351559 132.68843378 244.59332424 143.06318037 246.9921875 153.4921875 C247.7774495 156.89199802 248.61521347 160.27662785 249.47012329 163.65957642 C252.21140297 174.50955975 254.70752942 185.41191915 257.19775391 196.32177734 C257.76595517 198.80856766 258.33566094 201.29500653 258.90625 203.78125 C259.09058594 204.58602783 259.27492188 205.39080566 259.46484375 206.2199707 C260.97050294 212.74824917 262.61064616 219.23656929 264.31054688 225.71679688 C265.1884501 229.59262381 265.6921615 233.36475188 266.125 237.3125 C265.65940674 237.6528125 265.19381348 237.993125 264.71411133 238.34375 C252.53867142 247.25354765 240.41526281 256.23608723 228.50976562 265.50512695 C226.93847075 266.69598444 225.3323647 267.84243559 223.69335938 268.93823242 C217.10221398 273.50138559 214.7061302 278.37147043 211.875 285.75 C210.94422605 288.0007326 210.00518632 290.24806186 209.05859375 292.4921875 C208.57890137 293.63010742 208.09920898 294.76802734 207.60498047 295.94042969 C197.63354946 318.65989605 183.41299546 339.84485073 168.125 359.3125 C167.25823634 360.44464066 166.39240522 361.57749568 165.52734375 362.7109375 C160.18426065 369.66575749 154.59053931 376.26165276 148.59375 382.66015625 C146.62505394 384.7752585 144.73633948 386.91703352 142.875 389.125 C134.60730105 398.62490408 125.53186328 407.50686232 115.63671875 415.29296875 C113.18508219 417.2641913 110.9146998 419.34429296 108.625 421.5 C80.55497013 446.98990034 32.2788961 480.41942353 -5.875 485.3125 C-7.92944336 484.8503418 -7.92944336 484.8503418 -9.96484375 484.01171875 C-10.73739502 483.69952393 -11.50994629 483.3873291 -12.3059082 483.06567383 C-13.1330835 482.71400146 -13.96025879 482.3623291 -14.8125 482 C-15.6893042 481.63608154 -16.5661084 481.27216309 -17.46948242 480.8972168 C-20.27924904 479.72011542 -23.07776722 478.51905457 -25.875 477.3125 C-27.21836426 476.74063965 -27.21836426 476.74063965 -28.58886719 476.15722656 C-43.27148016 469.87078223 -57.15484392 462.47637597 -70.875 454.3125 C-71.70628418 453.82023926 -72.53756836 453.32797852 -73.39404297 452.82080078 C-91.42419633 442.0537547 -108.16656929 429.23551431 -123.875 415.3125 C-124.59373291 414.67989258 -125.31246582 414.04728516 -126.05297852 413.39550781 C-132.21293847 407.92134493 -138.13687405 402.23689514 -143.96166992 396.41113281 C-145.43455972 394.9404359 -146.91530265 393.47796466 -148.39648438 392.015625 C-154.66606829 385.78301497 -160.37784946 379.24061851 -165.875 372.3125 C-166.97145555 370.98383011 -168.071344 369.65798017 -169.17578125 368.3359375 C-181.44716439 353.52014667 -192.1742573 337.92074743 -201.875 321.3125 C-202.30022949 320.58450195 -202.72545898 319.85650391 -203.16357422 319.10644531 C-209.18999841 308.70327553 -214.5519112 298.03888076 -219.6484375 287.15234375 C-220.03040283 286.34434326 -220.41236816 285.53634277 -220.8059082 284.70385742 C-221.875 282.3125 -221.875 282.3125 -222.71557617 279.9621582 C-225.27798536 273.06460855 -229.53260105 269.80650539 -235.4375 265.625 C-236.36264404 264.9458252 -237.28778809 264.26665039 -238.2409668 263.56689453 C-240.15917732 262.16117553 -242.08348486 260.76374013 -244.01367188 259.37451172 C-247.61541754 256.77891924 -251.18112035 254.13636437 -254.74780273 251.49291992 C-257.05206228 249.78772635 -259.3626383 248.09155215 -261.67578125 246.3984375 C-262.36752441 245.8837793 -263.05926758 245.36912109 -263.77197266 244.83886719 C-265.22009994 243.78782333 -266.6961362 242.77453211 -268.19287109 241.79394531 C-273.72552994 238.05208563 -273.72552994 238.05208563 -274.4765625 234.3359375 C-273.84289458 231.15113899 -273.14539255 228.0604545 -272.25 224.9375 C-271.87959144 223.60860631 -271.51124841 222.27913584 -271.14453125 220.94921875 C-270.94166504 220.21622559 -270.73879883 219.48323242 -270.52978516 218.72802734 C-269.27101474 214.0843754 -268.10532777 209.41720559 -266.9375 204.75 C-266.680896 203.72511475 -266.42429199 202.70022949 -266.15991211 201.64428711 C-264.2290164 193.87035417 -262.44327919 186.06936732 -260.69946289 178.25170898 C-259.38285821 172.40159727 -257.93497144 166.6021723 -256.375 160.8125 C-254.59303545 154.19732801 -252.98835131 147.56229552 -251.5 140.875 C-249.50649349 131.92447993 -247.35128414 123.02045705 -245.125 114.125 C-244.66601318 112.28820679 -244.66601318 112.28820679 -244.19775391 110.41430664 C-242.01079362 101.71988085 -242.01079362 101.71988085 -240.875 98.3125 C-239.17382812 97.51635742 -239.17382812 97.51635742 -236.90625 96.91796875 C-236.04008057 96.6873877 -235.17391113 96.45680664 -234.28149414 96.21923828 C-232.84277954 95.86321533 -232.84277954 95.86321533 -231.375 95.5 C-230.3842749 95.24718262 -229.3935498 94.99436523 -228.37280273 94.73388672 C-214.02932049 91.20428749 -199.42789631 88.80088124 -184.875 86.3125 C-184.26870297 83.1670736 -183.66529658 80.021099 -183.0625 76.875 C-182.79010498 75.45900513 -182.79010498 75.45900513 -182.51220703 74.0144043 C-181.63367663 69.41737999 -180.77850593 64.82022073 -180.01171875 60.203125 C-179.81703003 59.03994751 -179.81703003 59.03994751 -179.6184082 57.85327148 C-179.37697121 56.39296965 -179.14218568 54.931549 -178.91479492 53.46899414 C-178.0952274 48.5327274 -178.0952274 48.5327274 -175.875 46.3125 C-173.86645508 45.59814453 -173.86645508 45.59814453 -171.39453125 44.9453125 C-170.47607422 44.69910156 -169.55761719 44.45289063 -168.61132812 44.19921875 C-167.1640332 43.82216797 -167.1640332 43.82216797 -165.6875 43.4375 C-164.77291016 43.19386719 -163.85832031 42.95023438 -162.91601562 42.69921875 C-160.97005373 42.18154729 -159.02296477 41.66809968 -157.07495117 41.15820312 C-154.84802652 40.56965754 -152.62442914 39.9684369 -150.40356445 39.35742188 C-140.81151767 36.73347707 -131.17173753 34.5806393 -121.4375 32.5625 C-119.91593729 32.24386343 -118.39445248 31.92485464 -116.87304688 31.60546875 C-113.20791424 30.83687662 -109.54177082 30.0732435 -105.875 29.3125 C-105.78935791 28.72235107 -105.70371582 28.13220215 -105.61547852 27.52416992 C-105.22564401 24.84902607 -104.83161986 22.17451571 -104.4375 19.5 C-104.23543945 18.1068457 -104.23543945 18.1068457 -104.02929688 16.68554688 C-103.89716797 15.79287109 -103.76503906 14.90019531 -103.62890625 13.98046875 C-103.50845947 13.15828857 -103.3880127 12.3361084 -103.26391602 11.48901367 C-102.875 9.3125 -102.875 9.3125 -101.875 6.3125 C-97.21611929 5.75999223 -92.55709781 5.20869147 -87.89794922 4.65844727 C-86.31718203 4.47159421 -84.73645192 4.28442707 -83.15576172 4.09692383 C-80.86696197 3.82548173 -78.5780255 3.55521784 -76.2890625 3.28515625 C-75.25091904 3.1616555 -75.25091904 3.1616555 -74.19180298 3.03565979 C-72.0869 2.78798288 -69.98123418 2.54858062 -67.875 2.3125 C-67.11573212 2.22541275 -66.35646423 2.1383255 -65.57418823 2.04859924 C-58.76297007 1.31084785 -51.96264106 0.99843287 -45.1171875 0.76953125 C-43.90086639 0.72810501 -42.68454529 0.68667877 -41.43136597 0.64399719 C-27.6223781 0.20232829 -13.81559847 0.02840619 0 0 Z " fill="#1E213E" transform="translate(303.875,56.6875)"/>
<path d="M0 0 C0.67740234 0.21317871 1.35480469 0.42635742 2.05273438 0.64599609 C33.83798075 10.92895283 63.08124447 33.96318579 81 62 C81.36947754 62.5779834 81.73895508 63.1559668 82.11962891 63.75146484 C84.47844405 67.46317527 86.74641437 71.22330133 89 75 C89.46792969 75.72316406 89.93585938 76.44632812 90.41796875 77.19140625 C93.05003996 81.35061776 93.05003996 81.35061776 92.828125 84.23046875 C91.74219495 87.86218765 90.05086467 91.03458108 88.1875 94.3125 C87.79224121 95.00891602 87.39698242 95.70533203 86.98974609 96.42285156 C79.55933991 109.17623465 70.20545175 120.39527393 60 131 C59.37222656 131.6909375 58.74445313 132.381875 58.09765625 133.09375 C34.74147381 158.03426867 -1.42803957 173.07627289 -35.1484375 174.47265625 C-51.25779133 174.98260014 -66.54095828 173.89843571 -82 169 C-83.05380859 168.67902344 -83.05380859 168.67902344 -84.12890625 168.3515625 C-107.42098936 161.0812013 -126.53825216 147.65014548 -144 131 C-144.79148438 130.26136719 -145.58296875 129.52273438 -146.3984375 128.76171875 C-157.38089641 118.2224117 -174.04748483 99.48047694 -176.48828125 83.87890625 C-175.78932667 78.32641107 -173.20255462 74.57358789 -170.1875 69.9375 C-169.59291992 69.00647461 -168.99833984 68.07544922 -168.38574219 67.11621094 C-147.36125267 34.62994733 -114.73468318 5.76350298 -76 -3 C-74.94941406 -3.27585937 -73.89882813 -3.55171875 -72.81640625 -3.8359375 C-48.97564801 -9.15557445 -23.09937088 -7.44977718 0 0 Z " fill="#1E213E" transform="translate(342,287)"/>
<path d="M0 0 C5.95122704 0.00573889 11.90240936 0.00237239 17.85363483 -0.00357246 C22.54093245 -0.00722575 27.22821984 -0.00601859 31.91551781 -0.00344467 C34.10818678 -0.00279074 36.30085677 -0.00354815 38.49352455 -0.00592422 C50.04191672 -0.01571805 61.56802537 0.127046 73.10839844 0.58007812 C74.61141872 0.63894605 74.61141872 0.63894605 76.14480305 0.69900322 C84.78203235 1.07060115 93.38171452 1.77912261 101.98657227 2.60302734 C106.82974787 3.05346059 111.67520272 3.42890522 116.52636719 3.78149414 C136.31153165 5.22084327 156.04850571 7.20677557 175.79125977 9.13037109 C175.92177734 9.69320801 176.05229492 10.25604492 176.18676758 10.8359375 C179.01672388 22.99582856 181.90595983 35.09223069 185.70532227 46.99365234 C185.98118164 47.86376953 186.25704102 48.73388672 186.54125977 49.63037109 C186.78360352 50.36255859 187.02594727 51.09474609 187.27563477 51.84912109 C188.4538617 57.06188269 187.91461123 60.66908687 185.22875977 65.25537109 C184.41072876 66.675354 184.41072876 66.675354 183.57617188 68.12402344 C182.98715088 69.11611816 182.39812988 70.10821289 181.79125977 71.13037109 C181.1925708 72.15984863 180.59388184 73.18932617 179.97705078 74.25 C178.78694177 76.29638931 177.59246589 78.3402462 176.39331055 80.38134766 C175.08644279 82.62385465 173.81170906 84.87567867 172.56860352 87.15380859 C167.34803715 96.66388491 161.17835187 105.38254679 154.79125977 114.13037109 C154.38230469 114.69530273 153.97334961 115.26023437 153.55200195 115.84228516 C145.64405387 126.74863542 136.8971642 136.90623856 127.83813477 146.86474609 C125.95603855 148.94798236 124.11963664 151.06256042 122.29125977 153.19287109 C115.9877791 160.41348636 109.07006411 166.91229703 101.79125977 173.13037109 C100.77358921 174.02275312 99.75672755 174.91605807 98.74047852 175.81005859 C72.08687296 199.13389264 42.03887321 217.5346375 9.60375977 231.69287109 C8.80115723 232.05219727 7.99855469 232.41152344 7.17163086 232.78173828 C0.10488655 235.78739414 0.10488655 235.78739414 -4.20874023 234.13037109 C-6.44950243 233.18597816 -8.66970648 232.21096078 -10.87963867 231.19628906 C-12.97705467 230.23640245 -15.0864538 229.33105911 -17.21655273 228.44677734 C-34.42495999 221.17479715 -50.99586641 211.9882642 -66.20874023 201.13037109 C-66.88743164 200.65100098 -67.56612305 200.17163086 -68.26538086 199.67773438 C-80.37674976 191.11490284 -91.92466148 182.23452667 -102.89233398 172.22802734 C-104.8839884 170.42445496 -106.90895881 168.67931014 -108.95874023 166.94287109 C-117.98660203 159.07337038 -126.58251042 150.36309484 -134.20874023 141.13037109 C-135.1774707 139.97794922 -135.1774707 139.97794922 -136.16577148 138.80224609 C-146.17814195 126.75132092 -155.77633315 114.34273022 -164.20874023 101.13037109 C-165.11865245 99.73437867 -166.02882886 98.33855842 -166.93920898 96.94287109 C-172.54839988 88.28080909 -177.91009135 79.47035656 -183.02124023 70.50537109 C-183.55523437 69.6057666 -184.08922852 68.70616211 -184.6394043 67.77929688 C-188.00710794 61.73922267 -188.92477139 57.83393942 -187.20874023 51.13037109 C-186.97952881 50.21562012 -186.75031738 49.30086914 -186.51416016 48.35839844 C-185.69010794 45.26649168 -184.80312658 42.19895507 -183.89624023 39.13037109 C-180.98552451 29.19969393 -178.51334214 19.2153634 -176.20874023 9.13037109 C-155.4136011 6.92404674 -134.60332442 4.89883048 -113.75991821 3.20275879 C-111.70426229 3.03455673 -109.64887812 2.86298515 -107.59384155 2.68737793 C-71.82230445 -0.35200698 -35.87022482 -0.03475981 0 0 Z M-37.20874023 18.13037109 C-37.91095703 18.32872559 -38.61317383 18.52708008 -39.33666992 18.73144531 C-63.01842864 25.60626534 -83.62784462 39.14827983 -101.20874023 56.13037109 C-102.13428711 56.99275391 -103.05983398 57.85513672 -104.01342773 58.74365234 C-114.18591023 68.46946776 -121.88938977 79.78392736 -129.39624023 91.63037109 C-129.87834961 92.3716626 -130.36045898 93.1129541 -130.85717773 93.87670898 C-133.66981263 98.43744596 -135.07610425 101.63290565 -134.20874023 107.13037109 C-133.17193639 109.81891571 -131.81640156 112.22665913 -130.33374023 114.69287109 C-129.92808838 115.38614502 -129.52243652 116.07941895 -129.10449219 116.79370117 C-122.11923561 128.5285576 -114.094364 138.8972828 -104.59448242 148.69775391 C-103.35123405 149.98305719 -102.1263892 151.28610186 -100.90405273 152.59130859 C-81.36652118 172.98763275 -55.43524076 185.71025735 -28.20874023 192.13037109 C-27.45391357 192.32252197 -26.69908691 192.51467285 -25.92138672 192.71264648 C-18.23297916 194.49855213 -10.49981366 194.57135423 -2.64624023 194.56787109 C-1.56317093 194.56897385 -1.56317093 194.56897385 -0.45822144 194.57009888 C19.94180718 194.51589054 39.2462428 190.79017776 57.79125977 182.13037109 C58.50185547 181.80053223 59.21245117 181.47069336 59.94458008 181.13085938 C75.26932661 173.86213665 88.55333575 163.82775076 100.79125977 152.13037109 C101.50024414 151.48455078 102.20922852 150.83873047 102.93969727 150.17333984 C114.72590568 139.04664851 123.99168939 125.26076159 131.79125977 111.13037109 C132.38680664 110.10298828 132.98235352 109.07560547 133.59594727 108.01708984 C135.0095617 104.60316478 135.05509448 103.5688202 133.79125977 100.13037109 C132.44196704 97.38183987 130.92568125 94.75692132 129.35375977 92.13037109 C128.9092749 91.38215088 128.46479004 90.63393066 128.00683594 89.86303711 C123.76694 82.86120298 118.99191235 76.4403779 113.79125977 70.13037109 C112.93661133 69.08042969 112.93661133 69.08042969 112.06469727 68.00927734 C110.36162285 65.99159559 108.59556892 64.05826307 106.79125977 62.13037109 C105.91598633 61.17904297 105.04071289 60.22771484 104.13891602 59.24755859 C84.21493091 38.1449077 58.93135333 23.95558357 30.79125977 17.13037109 C29.81253906 16.87811768 28.83381836 16.62586426 27.82543945 16.3659668 C18.49088131 14.12936838 9.70141419 13.60986039 0.16625977 13.69287109 C-0.57719696 13.69591248 -1.32065369 13.69895386 -2.0866394 13.7020874 C-14.15637411 13.77490876 -25.59103239 14.69944177 -37.20874023 18.13037109 Z " fill="#0EAE48" transform="translate(300.208740234375,266.86962890625)"/>
<path d="M0 0 C3.3 0 6.6 0 10 0 C10 3.96 10 7.92 10 12 C13.96 12 17.92 12 22 12 C22 8.37 22 4.74 22 1 C24.97 1 27.94 1 31 1 C31.33 4.96 31.66 8.92 32 13 C37.445 13.495 37.445 13.495 43 14 C43 10.7 43 7.4 43 4 C58.23578395 4.72551352 72.38776188 10.50273637 86 17 C86.99773437 17.46019531 87.99546875 17.92039062 89.0234375 18.39453125 C97.70107768 22.70848704 104.21262558 29.21262558 111 36 C110.14367415 44.58187433 101.33584088 53.5768134 96 60 C95.34515625 60.79019531 94.6903125 61.58039063 94.015625 62.39453125 C75.16849216 84.23381839 46.9206289 100.0665448 18 103 C-16.92619712 104.96379563 -47.85433047 95.64578663 -74.3125 72.5 C-84.67987701 62.80912394 -94.14414707 51.49534485 -101 39 C-101 35.95700539 -99.97134073 34.96786688 -97.9375 32.6875 C-96.968125 31.800625 -95.99875 30.91375 -95 30 C-94.46632812 29.4740625 -93.93265625 28.948125 -93.3828125 28.40625 C-77.62219339 13.52497874 -53.9287951 6.02584989 -33 3 C-33 6.96 -33 10.92 -33 15 C-30.525 14.505 -30.525 14.505 -28 14 C-25.66698014 13.96175377 -23.33288492 13.95425716 -21 14 C-21 9.71 -21 5.42 -21 1 C-18.03 1 -15.06 1 -12 1 C-12 4.63 -12 8.26 -12 12 C-8.04 12 -4.08 12 0 12 C0 8.04 0 4.08 0 0 Z " fill="#FDFDFD" transform="translate(295,336)"/>
<path d="M0 0 C30.32823631 -0.32445797 59.84453975 1.33053962 89.94219971 5.02282715 C90.61441446 8.77185462 91.27900538 12.52219436 91.94219971 16.27282715 C92.13298096 17.33630371 92.32376221 18.39978027 92.52032471 19.4954834 C92.70079346 20.52028809 92.88126221 21.54509277 93.06719971 22.60095215 C93.23477783 23.5435791 93.40235596 24.48620605 93.57501221 25.45739746 C93.94219971 28.02282715 93.94219971 28.02282715 93.94219971 32.02282715 C95.22610596 31.98802246 96.51001221 31.95321777 97.83282471 31.9173584 C102.93841386 31.92234043 107.70062942 32.69658555 112.69219971 33.71032715 C113.59542969 33.88894287 114.49865967 34.06755859 115.42926025 34.25158691 C130.85251876 37.35705741 146.00886821 41.05913139 160.94219971 46.02282715 C161.31158077 47.54003698 161.66187136 49.06189787 162.00469971 50.58532715 C162.20192627 51.43224121 162.39915283 52.27915527 162.60235596 53.1517334 C163.01133636 56.60691267 162.54548514 59.60983473 161.94219971 63.02282715 C152.01035844 62.62168036 142.18712394 61.768316 132.31719971 60.58532715 C121.30239071 59.27320828 110.29742783 58.14131057 99.23825073 57.28005981 C97.07389417 57.11114762 94.90979701 56.93887105 92.7460022 56.76290894 C68.41062546 54.82690762 44.14368166 54.74714416 19.74389648 54.82720947 C15.58493247 54.83805051 11.42600068 54.83762633 7.26702499 54.83722019 C-21.60878881 54.8377798 -50.31977685 55.22357154 -79.10809326 57.6973877 C-82.24556291 57.96569441 -85.38396249 58.22030223 -88.52264404 58.47399902 C-90.55786728 58.64442488 -92.5930264 58.81561863 -94.62811279 58.9876709 C-95.54690216 59.06170639 -96.46569153 59.13574188 -97.412323 59.21202087 C-102.42806139 59.65263275 -107.19494351 60.42309492 -112.09240723 61.5872345 C-114.50399699 62.12171831 -116.84544127 62.33889235 -119.31170654 62.43688965 C-120.62171631 62.49489746 -120.62171631 62.49489746 -121.95819092 62.55407715 C-122.83668701 62.58501465 -123.71518311 62.61595215 -124.62030029 62.64782715 C-125.53360107 62.68649902 -126.44690186 62.7251709 -127.38787842 62.76501465 C-129.61099954 62.85812967 -131.83413642 62.9439488 -134.05780029 63.02282715 C-135.14098691 58.94004681 -134.89253214 55.8440388 -134.12030029 51.71032715 C-133.92565186 50.64169434 -133.73100342 49.57306152 -133.53045654 48.4720459 C-133.37447998 47.66380371 -133.21850342 46.85556152 -133.05780029 46.02282715 C-117.27785302 39.67538768 -100.24645408 35.7720895 -83.43280029 33.39782715 C-82.07928467 33.1967334 -82.07928467 33.1967334 -80.69842529 32.99157715 C-75.76214714 32.28639455 -71.0434232 31.8725755 -66.05780029 32.02282715 C-66.02041748 31.33060059 -65.98303467 30.63837402 -65.94451904 29.9251709 C-65.53732388 23.86514883 -64.75498118 18.02514469 -63.51483154 12.0892334 C-63.37484741 11.40510376 -63.23486328 10.72097412 -63.09063721 10.01611328 C-62.74947596 8.35104273 -62.40408504 6.68683971 -62.05780029 5.02282715 C-41.34227317 2.22458782 -20.92844927 0.23215898 0 0 Z " fill="#0EAD49" transform="translate(286.05780029296875,77.9771728515625)"/>
<path d="M0 0 C0.99 0.495 0.99 0.495 2 1 C0.38229614 9.89737121 -7.35008688 18.19873904 -13 25 C-13.65484375 25.79019531 -14.3096875 26.58039063 -14.984375 27.39453125 C-33.83150784 49.23381839 -62.0793711 65.0665448 -91 68 C-125.92619712 69.96379563 -156.85433047 60.64578663 -183.3125 37.5 C-192.49766844 28.91419002 -199.9794352 19.37877721 -207 9 C-207.61101562 8.09894531 -208.22203125 7.19789063 -208.8515625 6.26953125 C-209.23054687 5.52058594 -209.60953125 4.77164062 -210 4 C-209.67 3.01 -209.34 2.02 -209 1 C-209 1.66 -209 2.32 -209 3 C-208.40832031 3.26683594 -207.81664062 3.53367187 -207.20703125 3.80859375 C-204.96195625 5.02053689 -203.50944147 6.29081898 -201.6875 8.0625 C-171.31675304 35.10880527 -125.81869899 38.58621061 -87.28759766 36.87988281 C-82.13977268 36.54570521 -77.08153156 35.87891516 -72 35 C-71.12214844 34.84934082 -70.24429688 34.69868164 -69.33984375 34.54345703 C-45.68393648 30.30930994 -17.55873997 21.6036446 -1 3 C-0.67 2.01 -0.34 1.02 0 0 Z " fill="#BEBEBF" transform="translate(404,371)"/>
<path d="M0 0 C8.58 0 17.16 0 26 0 C26.33 1.32 26.66 2.64 27 4 C27.59224365 3.35023193 28.1844873 2.70046387 28.79467773 2.03100586 C33.52710624 -0.96762867 37.79129904 -0.55457557 43.28515625 -0.49609375 C44.37839706 -0.49754898 45.47163788 -0.49900421 46.5980072 -0.50050354 C48.90529042 -0.49884596 51.21258486 -0.48730056 53.51977539 -0.46655273 C57.05337391 -0.43757484 60.58547415 -0.44595227 64.11914062 -0.45898438 C66.36198646 -0.45274755 68.60482757 -0.44435704 70.84765625 -0.43359375 C71.9050148 -0.43652939 72.96237335 -0.43946503 74.05177307 -0.44248962 C75.52866859 -0.42346336 75.52866859 -0.42346336 77.03540039 -0.40405273 C77.89968155 -0.39864975 78.76396271 -0.39324677 79.6544342 -0.38768005 C82.50449313 0.08338369 83.91601451 1.02697272 86 3 C86 3.66 86 4.32 86 5 C86.66 5 87.32 5 88 5 C88.33 3.35 88.66 1.7 89 0 C93.10393012 -0.11591764 97.20744106 -0.18715601 101.3125 -0.25 C102.47974609 -0.28351563 103.64699219 -0.31703125 104.84960938 -0.3515625 C106.52700195 -0.37089844 106.52700195 -0.37089844 108.23828125 -0.390625 C109.26993408 -0.41157227 110.30158691 -0.43251953 111.36450195 -0.45410156 C114 0 114 0 115.92260742 1.64941406 C117 4 117 4 116 10 C109.73 10.33 103.46 10.66 97 11 C96.71180384 15.75610334 96.71180384 15.75610334 96.43188477 20.51269531 C96.22036831 23.83793079 95.81233611 26.75065557 95 30 C91.7 30 88.4 30 85 30 C85 26.04 85 22.08 85 18 C84.505 18.495 84.505 18.495 84 19 C82.65732587 19.08631874 81.31025678 19.10706473 79.96484375 19.09765625 C79.15595703 19.09443359 78.34707031 19.09121094 77.51367188 19.08789062 C76.66353516 19.07951172 75.81339844 19.07113281 74.9375 19.0625 C74.08349609 19.05798828 73.22949219 19.05347656 72.34960938 19.04882812 C70.23304337 19.03700373 68.11651315 19.01906769 66 19 C66.01160156 19.78246094 66.02320313 20.56492187 66.03515625 21.37109375 C66.04417969 22.38300781 66.05320312 23.39492187 66.0625 24.4375 C66.07410156 25.44683594 66.08570313 26.45617187 66.09765625 27.49609375 C66 30 66 30 65 31 C63.31391034 31.07205511 61.62499341 31.08386068 59.9375 31.0625 C59.01839844 31.05347656 58.09929687 31.04445313 57.15234375 31.03515625 C56.44207031 31.02355469 55.73179687 31.01195313 55 31 C54.67 29.35 54.34 27.7 54 26 C53.608125 26.639375 53.21625 27.27875 52.8125 27.9375 C50.53994592 30.52350981 49.35761695 30.53094779 46 31 C44.24645237 31.08824347 42.49014014 31.13058518 40.734375 31.1328125 C39.76242187 31.13410156 38.79046875 31.13539062 37.7890625 31.13671875 C36.78617187 31.13285156 35.78328125 31.12898438 34.75 31.125 C33.73164063 31.12886719 32.71328125 31.13273437 31.6640625 31.13671875 C30.69726562 31.13542969 29.73046875 31.13414063 28.734375 31.1328125 C27.84975586 31.13168457 26.96513672 31.13055664 26.05371094 31.12939453 C24 31 24 31 23 30 C21.07332493 29.91251793 19.14348139 29.89302666 17.21484375 29.90234375 C16.04501953 29.90556641 14.87519531 29.90878906 13.66992188 29.91210938 C12.43822266 29.92048828 11.20652344 29.92886719 9.9375 29.9375 C8.70193359 29.94201172 7.46636719 29.94652344 6.19335938 29.95117188 C3.12885883 29.96300392 0.06445279 29.97948827 -3 30 C-2.88638398 27.20743781 -2.7596411 24.41655882 -2.625 21.625 C-2.5940625 20.8309375 -2.563125 20.036875 -2.53125 19.21875 C-2.2265625 13.2265625 -2.2265625 13.2265625 0 11 C-0.144375 10.443125 -0.28875 9.88625 -0.4375 9.3125 C-1 7 -1 7 0 0 Z " fill="#2CB95F" transform="translate(243,90)"/>
<path d="M0 0 C4.0639346 -0.20179537 7.6682704 -0.27405792 11.26953125 1.796875 C14.34466076 4.86316793 13.97033308 8.46442929 14.01953125 12.609375 C13.8969383 16.25744412 13.65876034 19.76462898 13.0703125 23.3671875 C12.63363145 26.82570144 12.48945873 30.09771671 12.44140625 33.578125 C12.42207031 34.74214844 12.40273437 35.90617187 12.3828125 37.10546875 C12.34896069 39.52457142 12.33072924 41.94394314 12.328125 44.36328125 C12.17511315 51.63537079 11.73803965 55.92934902 6.58203125 61.234375 C3.63100916 63.02846668 1.15211674 63.56750514 -2.26953125 63.8671875 C-3.20410156 63.95097656 -4.13867188 64.03476563 -5.1015625 64.12109375 C-6.55755859 64.23904297 -6.55755859 64.23904297 -8.04296875 64.359375 C-8.99042969 64.44574219 -9.93789062 64.53210938 -10.9140625 64.62109375 C-13.74737291 64.86527782 -16.57973149 65.05741768 -19.41796875 65.234375 C-20.33030273 65.31010742 -21.24263672 65.38583984 -22.18261719 65.46386719 C-26.66002602 65.69794752 -28.72421884 65.71089009 -32.51171875 63.109375 C-39.68864482 52.28515863 -32.84502881 28.47094853 -31.41796875 16.234375 C-31.33893311 15.4710083 -31.25989746 14.7076416 -31.1784668 13.92114258 C-30.58368117 8.75704384 -29.03072294 6.84712919 -25.41796875 3.234375 C-21.61971249 0.60830788 -17.31488076 0.78315415 -12.85546875 0.609375 C-12.05206055 0.57505371 -11.24865234 0.54073242 -10.42089844 0.50537109 C-8.81901894 0.43999483 -7.21695973 0.37886467 -5.61474609 0.32226562 C-3.74158239 0.24732242 -1.87027042 0.12824711 0 0 Z " fill="#F7F7F8" transform="translate(223.41796875,189.765625)"/>
<path d="M0 0 C2.14569579 -0.09697226 4.28976897 -0.15826655 6.43701172 -0.20947266 C7.12327637 -0.23928223 7.80954102 -0.2690918 8.51660156 -0.29980469 C11.76643305 -0.33749087 13.72115843 -0.07682494 16.47216797 1.70068359 C18.57901238 5.01451816 18.3241068 6.94165661 17.99951172 10.85302734 C17.94263184 11.55459961 17.88575195 12.25617188 17.82714844 12.97900391 C17.58669154 15.69153618 17.29564788 18.39598442 16.99951172 21.10302734 C16.86448242 22.37275391 16.72945312 23.64248047 16.59033203 24.95068359 C16.20544012 28.5273518 15.79938596 32.1011817 15.37988281 35.6739502 C15.21024805 37.12144073 15.04355917 38.56927967 14.87988281 40.01745605 C14.64319937 42.08416732 14.39009337 44.1482272 14.13232422 46.21240234 C13.98682129 47.41864258 13.84131836 48.62488281 13.69140625 49.86767578 C12.44858787 55.67918926 9.75425679 58.68936422 4.99951172 62.10302734 C2.8135465 63.19600995 1.27339247 63.3848302 -1.14892578 63.63818359 C-1.98423828 63.72567871 -2.81955078 63.81317383 -3.68017578 63.90332031 C-27.57662037 66.22802878 -27.57662037 66.22802878 -31.28955078 63.29443359 C-33.85094338 60.01374582 -33.4239387 57.04485258 -33.00048828 53.10302734 C-32.29314642 47.43721906 -31.47154918 41.87643307 -30.00439453 36.35302734 C-28.97769926 32.37196406 -28.54301654 28.41930628 -28.11450195 24.33666992 C-26.44448437 9.19562787 -26.44448437 9.19562787 -20.80908203 4.27490234 C-14.54842205 0.2183192 -7.26181402 0.3739914 0 0 Z " fill="#F9F9FA" transform="translate(158.00048828125,194.89697265625)"/>
<path d="M0 0 C5.65125 -0.103125 11.3025 -0.20625 17.125 -0.3125 C18.89762207 -0.35802002 20.67024414 -0.40354004 22.49658203 -0.45043945 C23.91697299 -0.46505578 25.33738505 -0.47779375 26.7578125 -0.48828125 C27.48282959 -0.51386108 28.20784668 -0.53944092 28.95483398 -0.5657959 C32.91233761 -0.56916456 35.41600182 -0.0528531 38.45263672 2.40551758 C43.12205086 7.16130291 42.18348564 11.62519703 42.1875 18 C42.19974609 19.02351563 42.21199219 20.04703125 42.22460938 21.1015625 C42.22654297 22.07867187 42.22847656 23.05578125 42.23046875 24.0625 C42.23457764 24.96097656 42.23868652 25.85945313 42.24291992 26.78515625 C42 29 42 29 40 31 C40.64904297 31.5465625 41.29808594 32.093125 41.96679688 32.65625 C44.43814172 35.5050625 44.51376076 36.78228707 44.53125 40.5 C44.53898437 42.0778125 44.53898437 42.0778125 44.546875 43.6875 C44.53140625 44.780625 44.5159375 45.87375 44.5 47 C44.51546875 48.093125 44.5309375 49.18625 44.546875 50.3125 C44.54171875 51.364375 44.5365625 52.41625 44.53125 53.5 C44.52673828 54.4590625 44.52222656 55.418125 44.51757812 56.40625 C43.8533693 59.73481347 42.62247954 60.90772258 40 63 C36.15318813 64.28227062 32.6099044 64.01513375 28.61328125 63.87890625 C27.88894897 63.85824097 27.1646167 63.83757568 26.41833496 63.81628418 C23.71621129 63.73760349 21.01436901 63.64948745 18.3125 63.5625 C12.269375 63.376875 6.22625 63.19125 0 63 C0 42.21 0 21.42 0 0 Z " fill="#FBFBFB" transform="translate(310,188)"/>
<path d="M0 0 C4.7090211 3.91199957 9.38945085 7.88639763 13.60400391 12.33251953 C13.60400391 12.99251953 13.60400391 13.65251953 13.60400391 14.33251953 C10.07141975 13.2142502 6.62758799 11.9592749 3.19775391 10.56298828 C-9.46481989 5.45447139 -22.0138256 2.00125535 -35.39599609 -0.66748047 C-35.39599609 -3.63748047 -35.39599609 -6.60748047 -35.39599609 -9.66748047 C-39.02599609 -9.66748047 -42.65599609 -9.66748047 -46.39599609 -9.66748047 C-46.39599609 -7.35748047 -46.39599609 -5.04748047 -46.39599609 -2.66748047 C-49.69599609 -2.66748047 -52.99599609 -2.66748047 -56.39599609 -2.66748047 C-56.39599609 -5.63748047 -56.39599609 -8.60748047 -56.39599609 -11.66748047 C-60.35599609 -11.66748047 -64.31599609 -11.66748047 -68.39599609 -11.66748047 C-68.39599609 -9.02748047 -68.39599609 -6.38748047 -68.39599609 -3.66748047 C-71.69599609 -3.66748047 -74.99599609 -3.66748047 -78.39599609 -3.66748047 C-78.39599609 -6.30748047 -78.39599609 -8.94748047 -78.39599609 -11.66748047 C-82.35599609 -11.66748047 -86.31599609 -11.66748047 -90.39599609 -11.66748047 C-90.39599609 -8.69748047 -90.39599609 -5.72748047 -90.39599609 -2.66748047 C-93.69599609 -2.66748047 -96.99599609 -2.66748047 -100.39599609 -2.66748047 C-100.39599609 -4.97748047 -100.39599609 -7.28748047 -100.39599609 -9.66748047 C-104.02599609 -9.33748047 -107.65599609 -9.00748047 -111.39599609 -8.66748047 C-111.39599609 -6.02748047 -111.39599609 -3.38748047 -111.39599609 -0.66748047 C-112.55873047 -0.44833984 -113.72146484 -0.22919922 -114.91943359 -0.00341797 C-129.33442971 2.81218883 -143.69449107 6.29939696 -156.64599609 13.44970703 C-158.39599609 14.33251953 -158.39599609 14.33251953 -160.39599609 14.33251953 C-154.11611314 -0.99881482 -130.37268231 -12.04382162 -115.82568359 -18.17138672 C-77.01844912 -32.71324751 -32.47365587 -26.13831698 0 0 Z " fill="#F6F6F7" transform="translate(373.39599609375,328.66748046875)"/>
<path d="M0 0 C2.53833008 0.02286784 5.07666016 0.04573568 7.61499023 0.06860352 C8.67919189 0.07819092 9.74339355 0.08777832 10.83984375 0.09765625 C15.22158356 9.39681291 19.28069479 18.791061 23.21484375 28.28515625 C27.22087148 37.92383624 31.25880882 47.53958382 35.65576172 57.00854492 C36.9786784 59.90120192 37.83984375 61.87418552 37.83984375 65.09765625 C32.88984375 65.09765625 27.93984375 65.09765625 22.83984375 65.09765625 C18.83984375 54.47265625 18.83984375 54.47265625 18.83984375 51.09765625 C11.90984375 50.76765625 4.97984375 50.43765625 -2.16015625 50.09765625 C-2.49015625 52.40765625 -2.82015625 54.71765625 -3.16015625 57.09765625 C-3.65515625 59.57265625 -3.65515625 59.57265625 -4.16015625 62.09765625 C-9.11015625 62.09765625 -14.06015625 62.09765625 -19.16015625 62.09765625 C-18.57303789 56.1589878 -17.33308077 50.79579417 -15.59765625 45.09765625 C-12.3040997 33.9851243 -9.5298354 22.75849557 -6.78881836 11.5 C-6.62154236 10.81834778 -6.45426636 10.13669556 -6.28192139 9.43438721 C-5.82265155 7.56211279 -5.36762019 5.68880015 -4.9128418 3.81542969 C-3.88944848 0.12019309 -3.88944848 0.12019309 0 0 Z " fill="#F8F8F9" transform="translate(387.16015625,190.90234375)"/>
<path d="M0 0 C-0.66 4.29 -1.32 8.58 -2 13 C-10.58 13.99 -19.16 14.98 -28 16 C-28.66 19.96 -29.32 23.92 -30 28 C-28.92621094 27.7834375 -27.85242188 27.566875 -26.74609375 27.34375 C-25.30996328 27.06215579 -23.87376149 26.78092516 -22.4375 26.5 C-21.38079102 26.28537109 -21.38079102 26.28537109 -20.30273438 26.06640625 C-15.78109762 25.19125075 -11.60512972 24.85476595 -7 25 C-7.33 28.96 -7.66 32.92 -8 37 C-16.04265768 40.1747333 -24.46866291 40.13760221 -33 40 C-33.13019531 41.11632812 -33.26039062 42.23265625 -33.39453125 43.3828125 C-34.00838616 48.24437197 -34.78632783 53.05877693 -35.6875 57.875 C-35.82349609 58.72835937 -35.95949219 59.58171875 -36.09960938 60.4609375 C-36.54912614 62.79916462 -37.0035781 64.8368227 -38 67 C-42.59224845 69.49918283 -46.90956348 69.17553229 -52 69 C-52.39845739 62.34006929 -50.89724153 56.33309335 -49.375 49.875 C-47.60292343 42.21880202 -45.88335977 34.56605377 -44.40625 26.84765625 C-44.14678139 25.51250646 -43.88718008 24.17738244 -43.62744141 22.84228516 C-43.13182858 20.27030867 -42.64938673 17.69575375 -42.18115234 15.11865234 C-41.95379395 13.95414551 -41.72643555 12.78963867 -41.4921875 11.58984375 C-41.29995605 10.55722412 -41.10772461 9.52460449 -40.90966797 8.46069336 C-40 6 -40 6 -38.328125 4.7175293 C-35.31561241 3.7890714 -32.38484402 3.33986586 -29.2578125 2.9296875 C-28.61182098 2.84373322 -27.96582947 2.75777893 -27.30026245 2.66921997 C-25.93743964 2.48942777 -24.57415093 2.31313644 -23.21044922 2.14013672 C-21.13779543 1.87662677 -19.0669652 1.60135225 -16.99609375 1.32421875 C-11.27534167 0.575942 -5.79076125 0 0 0 Z " fill="#F7F7F8" transform="translate(121,200)"/>
<path d="M0 0 C0 4.29 0 8.58 0 13 C-5.28 13 -10.56 13 -16 13 C-15.98839844 14.51464844 -15.97679687 16.02929688 -15.96484375 17.58984375 C-15.8867324 32.75443074 -16.27811186 47.85323987 -17 63 C-21.62 63 -26.24 63 -31 63 C-31.02512449 58.29012419 -31.04305588 53.58028921 -31.05493164 48.87036133 C-31.05989369 47.27530231 -31.06666548 45.68024768 -31.07543945 44.08520508 C-31.13123364 33.66482067 -30.81211295 23.39120898 -30 13 C-35.28 13 -40.56 13 -46 13 C-46 9.04 -46 5.08 -46 1 C-30.6744609 -0.24201185 -15.36560961 -0.09401121 0 0 Z " fill="#F9F9FA" transform="translate(296,188)"/>
<path d="M0 0 C6.93 0.495 6.93 0.495 14 1 C14.28875 3.26875 14.5775 5.5375 14.875 7.875 C15.45927308 12.3717208 16.10779102 16.81383344 17.0625 21.25 C17.98655679 25.57659147 18.37158279 29.85159002 18.71484375 34.2578125 C19.08401614 37.80793605 19.80126089 41.23470083 20.59765625 44.7109375 C21.0319009 47.18149443 21.06634494 49.49658422 21 52 C22.7015625 51.9690625 22.7015625 51.9690625 24.4375 51.9375 C29.01373431 51.9375 33.46600358 52.41851692 38 53 C38.77472656 53.09539062 39.54945313 53.19078125 40.34765625 53.2890625 C42.23230746 53.52173549 44.11623622 53.76024825 46 54 C48.24828052 58.49656104 48.16682272 62.07872966 48 67 C46.97003906 66.93941406 45.94007813 66.87882812 44.87890625 66.81640625 C44.19876465 66.77652588 43.51862305 66.73664551 42.81787109 66.69555664 C41.29860438 66.60592681 39.77939923 66.51524821 38.26025391 66.42358398 C34.28497414 66.18519804 30.31032597 65.9631149 26.33203125 65.78125 C25.58429443 65.74443115 24.83655762 65.7076123 24.06616211 65.66967773 C22.64410497 65.60011973 21.22172587 65.5367624 19.79907227 65.48071289 C15.27371428 65.24970857 11.32657272 64.29486337 7 63 C6.88930176 61.90123535 6.77860352 60.8024707 6.66455078 59.67041016 C6.24822799 55.55108665 5.8254721 51.43244341 5.40087891 47.31396484 C5.21881457 45.53940147 5.03844033 43.76466379 4.85986328 41.98974609 C3.62764245 29.44633571 3.62764245 29.44633571 1.41064453 17.04931641 C0.29118466 11.46266592 0.30913086 5.66739901 0 0 Z " fill="#F5F5F7" transform="translate(431,194)"/>
<path d="M0 0 C2.12577907 0.0868276 4.25069581 0.1949951 6.375 0.3125 C7.55835938 0.37050781 8.74171875 0.42851562 9.9609375 0.48828125 C10.96382813 0.65714844 11.96671875 0.82601562 13 1 C14.86425003 3.79637505 15.37216738 5.02916148 15.96142578 8.19262695 C16.20144821 9.45457634 16.20144821 9.45457634 16.44631958 10.74201965 C16.61098724 11.64828598 16.77565491 12.55455231 16.9453125 13.48828125 C17.12005096 14.4242363 17.29478943 15.36019135 17.474823 16.32450867 C17.84286937 18.30515243 18.20745654 20.28644165 18.56884766 22.26831055 C19.1212551 25.29200167 19.68672351 28.31303408 20.25390625 31.33398438 C20.61016122 33.26027143 20.96565488 35.18669946 21.3203125 37.11328125 C21.48902863 38.01347488 21.65774475 38.91366852 21.83157349 39.84114075 C22.63537051 44.28998851 23.20025149 48.45615394 23 53 C23.62003906 53.04898438 24.24007813 53.09796875 24.87890625 53.1484375 C32.9613224 53.83079578 40.96797454 54.88353762 49 56 C51.24828052 60.49656104 51.16682272 64.07872966 51 69 C37.58237211 67.78670386 24.30401181 66.12298061 11 64 C10.86424561 63.21052979 10.72849121 62.42105957 10.58862305 61.60766602 C9.26846616 53.93310184 7.94575822 46.25898354 6.61962891 38.58544922 C6.25178254 36.45692607 5.88417601 34.32836141 5.51708984 32.19970703 C4.00200651 23.4273206 2.37013496 14.69080027 0.55078125 5.9765625 C0 3 0 3 0 0 Z " fill="#F6F7F8" transform="translate(483,200)"/>
<path d="M0 0 C4.10393012 -0.11591764 8.20744106 -0.18715601 12.3125 -0.25 C13.47974609 -0.28351563 14.64699219 -0.31703125 15.84960938 -0.3515625 C17.52700195 -0.37089844 17.52700195 -0.37089844 19.23828125 -0.390625 C20.26993408 -0.41157227 21.30158691 -0.43251953 22.36450195 -0.45410156 C25 0 25 0 26.92260742 1.64941406 C28 4 28 4 27 10 C20.73 10.33 14.46 10.66 8 11 C7.71180384 15.75610334 7.71180384 15.75610334 7.43188477 20.51269531 C7.22036831 23.83793079 6.81233611 26.75065557 6 30 C2.7 30 -0.6 30 -4 30 C-4 26.04 -4 22.08 -4 18 C-4.495 18.495 -4.495 18.495 -5 19 C-6.34267413 19.08631874 -7.68974322 19.10706473 -9.03515625 19.09765625 C-9.84404297 19.09443359 -10.65292969 19.09121094 -11.48632812 19.08789062 C-12.33646484 19.07951172 -13.18660156 19.07113281 -14.0625 19.0625 C-14.91650391 19.05798828 -15.77050781 19.05347656 -16.65039062 19.04882812 C-18.76695663 19.03700373 -20.88348685 19.01906769 -23 19 C-22.98839844 19.78246094 -22.97679687 20.56492187 -22.96484375 21.37109375 C-22.95582031 22.38300781 -22.94679688 23.39492187 -22.9375 24.4375 C-22.92589844 25.44683594 -22.91429687 26.45617187 -22.90234375 27.49609375 C-23 30 -23 30 -24 31 C-25.68608966 31.07205511 -27.37500659 31.08386068 -29.0625 31.0625 C-29.98160156 31.05347656 -30.90070313 31.04445313 -31.84765625 31.03515625 C-32.55792969 31.02355469 -33.26820313 31.01195313 -34 31 C-34.81864067 26.19048609 -35.02745893 21.79275404 -34.7421875 16.91796875 C-34.82726562 16.28503906 -34.91234375 15.65210937 -35 15 C-38.38805161 12.74129892 -39.77350741 12.70740587 -43.76171875 12.5859375 C-44.87998047 12.54726562 -45.99824219 12.50859375 -47.15039062 12.46875 C-48.31763672 12.4378125 -49.48488281 12.406875 -50.6875 12.375 C-51.86634766 12.33632812 -53.04519531 12.29765625 -54.25976562 12.2578125 C-57.17301977 12.16345609 -60.08626607 12.07786839 -63 12 C-63 13.98 -63 15.96 -63 18 C-63.33 18 -63.66 18 -64 18 C-64.09765625 11.84765625 -64.09765625 11.84765625 -64 10 C-63 9 -63 9 -60.60191345 8.87974548 C-59.53824051 8.88196609 -58.47456757 8.88418671 -57.37866211 8.88647461 C-55.57690773 8.88658791 -55.57690773 8.88658791 -53.73875427 8.88670349 C-52.4314888 8.89186478 -51.12422333 8.89702606 -49.77734375 8.90234375 C-48.43355868 8.90420802 -47.08977293 8.90563188 -45.74598694 8.90663147 C-42.20317723 8.91045598 -38.6604083 8.92028568 -35.11761475 8.93133545 C-31.50484773 8.94155101 -27.89207416 8.9461294 -24.27929688 8.95117188 C-17.1861812 8.96190802 -10.09309326 8.97898364 -3 9 C-3 7.68 -3 6.36 -3 5 C-2.34 5 -1.68 5 -1 5 C-0.67 3.35 -0.34 1.7 0 0 Z " fill="#24B75A" transform="translate(332,90)"/>
<path d="M0 0 C2.97 0 5.94 0 9 0 C11.97 5.94 14.94 11.88 18 18 C18.66 12.06 19.32 6.12 20 0 C22.31 0 24.62 0 27 0 C27.0292427 4.33331896 27.04688017 8.66661221 27.0625 13 C27.07087891 14.22074219 27.07925781 15.44148437 27.08789062 16.69921875 C27.10464844 22.89960932 26.97272146 28.8726207 26 35 C23.36 35 20.72 35 18 35 C16.7069894 32.75076296 15.41555023 30.50064815 14.125 28.25 C13.76019531 27.61578125 13.39539063 26.9815625 13.01953125 26.328125 C11.2603169 23.25749632 9.53126626 20.19148125 8 17 C7.0672582 21.099361 6.71174738 25.12043288 6.4375 29.3125 C6.35371094 30.56675781 6.26992187 31.82101563 6.18359375 33.11328125 C6.12300781 34.06589844 6.06242188 35.01851562 6 36 C3.36 36 0.72 36 -2 36 C-1.01 18.18 -1.01 18.18 0 0 Z " fill="#B9B9BA" transform="translate(249,143)"/>
<path d="M0 0 C1.38294718 0.01329757 2.76582404 0.03715018 4.1484375 0.0703125 C4.85484375 0.07933594 5.56125 0.08835938 6.2890625 0.09765625 C8.03399848 0.12123647 9.77876045 0.15710789 11.5234375 0.1953125 C10.93172821 8.86054439 9.83332531 17.37152574 8.4609375 25.9453125 C8.27466797 27.13125 8.08839844 28.3171875 7.89648438 29.5390625 C7.44263416 32.4250844 6.98358605 35.31028811 6.5234375 38.1953125 C-1.8915625 38.6903125 -1.8915625 38.6903125 -10.4765625 39.1953125 C-9.85813724 30.7413755 -8.87900821 22.43874665 -7.5390625 14.0703125 C-7.28479492 12.38808594 -7.28479492 12.38808594 -7.02539062 10.671875 C-6.77112305 9.07085937 -6.77112305 9.07085937 -6.51171875 7.4375 C-6.360979 6.4769873 -6.21023926 5.51647461 -6.05493164 4.52685547 C-5.0796272 0.59517229 -4.00560866 0.22503419 0 0 Z " fill="#242542" transform="translate(150.4765625,207.8046875)"/>
<path d="M0 0 C2.97 0 5.94 0 9 0 C9.51046875 1.29357422 9.51046875 1.29357422 10.03125 2.61328125 C13.3890878 11.0703887 16.85711367 19.4708903 20.45898438 27.82739258 C20.78962891 28.60236084 21.12027344 29.3773291 21.4609375 30.17578125 C21.75790527 30.86583252 22.05487305 31.55588379 22.36083984 32.2668457 C23 34 23 34 23 36 C20.36 36 17.72 36 15 36 C12 30.25 12 30.25 12 28 C8.04 28 4.08 28 0 28 C-0.33 30.31 -0.66 32.62 -1 35 C-3.64 35 -6.28 35 -9 35 C-8.46469127 28.40446777 -7.16750257 22.63448007 -5.0625 16.375 C-4.53170894 14.75808904 -4.00174689 13.14090567 -3.47265625 11.5234375 C-3.2214502 10.7612793 -2.97024414 9.99912109 -2.71142578 9.21386719 C-1.73077651 6.16221051 -0.85698924 3.08847329 0 0 Z " fill="#B7B7B9" transform="translate(338,143)"/>
<path d="M0 0 C1.01416992 0.00483398 1.01416992 0.00483398 2.04882812 0.00976562 C4.02302734 -0.01537109 4.02302734 -0.01537109 6.03710938 -0.04101562 C9.88311449 0.33668076 11.71700199 0.97390085 14.73632812 3.32226562 C16.88827182 6.55018117 16.93719255 7.60627372 16.73632812 11.32226562 C14.09632813 11.32226562 11.45632813 11.32226562 8.73632812 11.32226562 C8.73632812 10.33226562 8.73632812 9.34226563 8.73632812 8.32226562 C6.42632812 8.32226562 4.11632812 8.32226562 1.73632812 8.32226562 C2.06632812 9.97226563 2.39632813 11.62226563 2.73632812 13.32226562 C3.63996094 13.57621094 4.54359375 13.83015625 5.47460938 14.09179688 C6.65410156 14.43597656 7.83359375 14.78015625 9.04882812 15.13476562 C10.80646484 15.63943359 10.80646484 15.63943359 12.59960938 16.15429688 C15.51927621 17.24144555 16.91979286 17.85606671 18.73632812 20.32226562 C20.02868664 25.2567254 19.83760705 30.25831913 19.73632812 35.32226562 C16.36396309 37.00844814 12.62870837 36.67523256 8.92382812 36.75976562 C8.11623047 36.80552734 7.30863281 36.85128906 6.4765625 36.8984375 C0.64584092 37.00827091 0.64584092 37.00827091 -1.94165039 35.05664062 C-4.11208635 32.56250602 -5.21694717 30.75213289 -5.57617188 27.44726562 C-5.47304688 26.74601562 -5.36992187 26.04476562 -5.26367188 25.32226562 C-2.62367188 25.32226562 0.01632812 25.32226562 2.73632812 25.32226562 C3.06632812 26.31226563 3.39632813 27.30226562 3.73632812 28.32226562 C6.37632812 28.65226562 9.01632812 28.98226562 11.73632812 29.32226562 C11.78020167 26.88402043 11.78020167 26.88402043 10.73632812 24.32226562 C7.62457244 22.71914575 7.62457244 22.71914575 3.86132812 21.69726562 C-4.15199231 19.24555157 -4.15199231 19.24555157 -6.26367188 16.32226562 C-7.45450323 11.66719759 -7.50227703 7.09436882 -7.26367188 2.32226562 C-4.80782949 -0.13357676 -3.36212682 0.0367994 0 0 Z " fill="#B7B7B9" transform="translate(380.263671875,143.677734375)"/>
<path d="M0 0 C-0.47443712 12.7723467 -1.34653905 25.32346606 -3 38 C-8.28 38 -13.56 38 -19 38 C-19.25415664 25.54632456 -18.27628831 13.3844093 -17 1 C-11.29014022 0.25983299 -5.75813575 -0.10469338 0 0 Z " fill="#222341" transform="translate(223,203)"/>
<path d="M0 0 C1.23556641 0.01740234 1.23556641 0.01740234 2.49609375 0.03515625 C3.32238281 0.04417969 4.14867187 0.05320313 5 0.0625 C5.63808594 0.07410156 6.27617187 0.08570313 6.93359375 0.09765625 C7.79586026 4.11621569 8.65007109 8.13639729 9.49707031 12.15820312 C9.7859121 13.52422448 10.07689552 14.88979491 10.37011719 16.25488281 C10.79283523 18.2246914 11.20704734 20.19631919 11.62109375 22.16796875 C11.87246094 23.35148926 12.12382812 24.53500977 12.3828125 25.75439453 C12.90779784 28.94107413 13.03655923 31.87569469 12.93359375 35.09765625 C10.29359375 35.09765625 7.65359375 35.09765625 4.93359375 35.09765625 C4.60359375 33.11765625 4.27359375 31.13765625 3.93359375 29.09765625 C0.30359375 29.09765625 -3.32640625 29.09765625 -7.06640625 29.09765625 C-9.04640625 32.56265625 -9.04640625 32.56265625 -11.06640625 36.09765625 C-13.37640625 36.09765625 -15.68640625 36.09765625 -18.06640625 36.09765625 C-17.42181465 31.73633294 -15.81650471 28.02985382 -13.94140625 24.08203125 C-13.63444824 23.42559631 -13.32749023 22.76916138 -13.01123047 22.09283447 C-12.3648825 20.71334816 -11.71590671 19.33509038 -11.06445312 17.95800781 C-10.06432451 15.84325445 -9.07253125 13.72474647 -8.08203125 11.60546875 C-7.45230403 10.26409695 -6.82211204 8.92294321 -6.19140625 7.58203125 C-5.89347168 6.94666443 -5.59553711 6.31129761 -5.28857422 5.65667725 C-2.66726964 0.12605244 -2.66726964 0.12605244 0 0 Z " fill="#B8B8B9" transform="translate(217.06640625,144.90234375)"/>
<path d="M0 0 C1.09465576 -0.00145523 2.18931152 -0.00291046 3.31713867 -0.00440979 C5.63039818 -0.00275057 7.9436687 0.00881313 10.25683594 0.02954102 C13.79930473 0.05848593 17.34027643 0.0501515 20.8828125 0.03710938 C23.13021561 0.04334704 25.377614 0.0517382 27.625 0.0625 C28.68549561 0.05956436 29.74599121 0.05662872 30.83862305 0.05360413 C31.82644775 0.0662883 32.81427246 0.07897247 33.83203125 0.09204102 C35.13297729 0.10014549 35.13297729 0.10014549 36.46020508 0.1084137 C39.43438074 0.59858547 40.77418344 1.26341589 42.8125 3.49609375 C42.8125 5.47609375 42.8125 7.45609375 42.8125 9.49609375 C23.3425 9.49609375 3.8725 9.49609375 -16.1875 9.49609375 C-15.1875 4.49609375 -15.1875 4.49609375 -13.82421875 2.21459961 C-9.51355275 -0.59491687 -5.03100507 -0.05329414 0 0 Z " fill="#EEF9F2" transform="translate(286.1875,89.50390625)"/>
<path d="M0 0 C1.18239258 0.00676758 1.18239258 0.00676758 2.38867188 0.01367188 C4.32164761 0.02538688 6.25458393 0.04332002 8.1875 0.0625 C7.8575 2.3725 7.5275 4.6825 7.1875 7.0625 C2.5675 7.3925 -2.0525 7.7225 -6.8125 8.0625 C-7.1425 10.0425 -7.4725 12.0225 -7.8125 14.0625 C-3.8525 14.0625 0.1075 14.0625 4.1875 14.0625 C3.8575 16.3725 3.5275 18.6825 3.1875 21.0625 C-3.2475 21.5575 -3.2475 21.5575 -9.8125 22.0625 C-10.01746094 23.06152344 -10.22242188 24.06054688 -10.43359375 25.08984375 C-10.70300781 26.38019531 -10.97242188 27.67054688 -11.25 29 C-11.51683594 30.28777344 -11.78367188 31.57554687 -12.05859375 32.90234375 C-12.8125 36.0625 -12.8125 36.0625 -13.8125 37.0625 C-16.14547433 37.10342937 -18.47955225 37.10491723 -20.8125 37.0625 C-20.2472976 30.20678727 -19.26027987 23.54835901 -17.875 16.8125 C-17.70548828 15.95398438 -17.53597656 15.09546875 -17.36132812 14.2109375 C-16.44978701 9.70522098 -15.3904783 5.39309515 -13.8125 1.0625 C-9.18790756 -0.11450048 -4.73383538 -0.05158412 0 0 Z " fill="#B7B7B9" transform="translate(184.8125,146.9375)"/>
<path d="M0 0 C4.99297271 -1.05115215 4.99297271 -1.05115215 8 0 C11.49999534 4.29812512 15 9.33683026 15 15 C15.66 15 16.32 15 17 15 C17.09087891 13.84371094 17.09087891 13.84371094 17.18359375 12.6640625 C17.26738281 11.66117188 17.35117187 10.65828125 17.4375 9.625 C17.51871094 8.62726563 17.59992188 7.62953125 17.68359375 6.6015625 C18 4 18 4 19 2 C21.64 2 24.28 2 27 2 C26.88416889 3.54238266 26.75683428 5.08390272 26.625 6.625 C26.55539062 7.48351562 26.48578125 8.34203125 26.4140625 9.2265625 C26 12 26 12 24.96875 14.71875 C23.65844981 19.15686356 23.78498691 23.27740834 23.875 27.875 C23.88402344 28.75414062 23.89304687 29.63328125 23.90234375 30.5390625 C23.92575423 32.6928271 23.9616199 34.84645014 24 37 C21.36 37 18.72 37 16 37 C15.89945312 36.25878906 15.79890625 35.51757812 15.6953125 34.75390625 C13.78756409 24.07835522 8.7425812 16.03815185 3 7 C0 2.24137931 0 2.24137931 0 0 Z " fill="#B6B6B8" transform="translate(409,146)"/>
<path d="M0 0 C3.91652632 -0.08714316 7.83280311 -0.14043985 11.75 -0.1875 C12.86117188 -0.21263672 13.97234375 -0.23777344 15.1171875 -0.26367188 C16.18710937 -0.27333984 17.25703125 -0.28300781 18.359375 -0.29296875 C19.34389648 -0.3086792 20.32841797 -0.32438965 21.34277344 -0.34057617 C24.42687022 0.05471187 25.77258709 0.86642058 28 3 C28.53125 5.05078125 28.53125 5.05078125 28.5 7.3125 C28.5103125 8.05113281 28.520625 8.78976563 28.53125 9.55078125 C27.68386614 13.45747006 26.91489182 15.15431651 24 18 C19.5695899 18.76382335 15.22868126 18.56161172 10.75 18.375 C9.52796875 18.34792969 8.3059375 18.32085937 7.046875 18.29296875 C4.02947259 18.22224838 1.0156243 18.12359116 -2 18 C-1.67 15.36 -1.34 12.72 -1 10 C5.27 10 11.54 10 18 10 C18 9.01 18 8.02 18 7 C16.86820312 7.02320312 15.73640625 7.04640625 14.5703125 7.0703125 C13.08854825 7.08906901 11.60677688 7.10726934 10.125 7.125 C9.37863281 7.14175781 8.63226563 7.15851563 7.86328125 7.17578125 C5.90805539 7.1933959 3.95257979 7.10320189 2 7 C0 5 0 5 -0.125 2.375 C-0.08375 1.59125 -0.0425 0.8075 0 0 Z " fill="#F4FBF7" transform="translate(270,102)"/>
<path d="M0 0 C8.58 0 17.16 0 26 0 C26 2.31 26 4.62 26 7 C25.67 7.33 25.34 7.66 25 8 C22.36 8 19.72 8 17 8 C17 17.24 17 26.48 17 36 C14.36 36 11.72 36 9 36 C9 26.43 9 16.86 9 7 C6.03 7 3.06 7 0 7 C0 4.69 0 2.38 0 0 Z " fill="#B7B7B9" transform="translate(292,142)"/>
<path d="M0 0 C1.5631897 0.00785522 1.5631897 0.00785522 3.15795898 0.01586914 C4.28266602 0.0190918 5.40737305 0.02231445 6.56616211 0.02563477 C7.75016602 0.03401367 8.93416992 0.04239258 10.15405273 0.05102539 C11.34192383 0.05553711 12.52979492 0.06004883 13.75366211 0.06469727 C16.69967499 0.07652864 19.64558954 0.09301252 22.59155273 0.11352539 C22.59155273 2.42352539 22.59155273 4.73352539 22.59155273 7.11352539 C17.31155273 7.11352539 12.03155273 7.11352539 6.59155273 7.11352539 C6.59155273 8.10352539 6.59155273 9.09352539 6.59155273 10.11352539 C11.54155273 10.11352539 16.49155273 10.11352539 21.59155273 10.11352539 C21.59155273 12.75352539 21.59155273 15.39352539 21.59155273 18.11352539 C13.01155273 18.11352539 4.43155273 18.11352539 -4.40844727 18.11352539 C-4.26407227 15.32915039 -4.11969727 12.54477539 -3.97094727 9.67602539 C-3.90629272 8.3584021 -3.90629272 8.3584021 -3.84033203 7.01416016 C-3.4607445 0.16312683 -3.4607445 0.16312683 0 0 Z " fill="#F5FBF7" transform="translate(244.408447265625,101.886474609375)"/>
<path d="M0 0 C-0.645477 7.90709331 -2.86997139 15.39133967 -5 23 C-8.68439835 21.64943824 -11.78201672 19.98327682 -15.046875 17.8125 C-15.97371094 17.19632812 -16.90054688 16.58015625 -17.85546875 15.9453125 C-18.81066406 15.30335938 -19.76585938 14.66140625 -20.75 14 C-21.72066406 13.35804688 -22.69132812 12.71609375 -23.69140625 12.0546875 C-24.61308594 11.43851562 -25.53476563 10.82234375 -26.484375 10.1875 C-27.32709961 9.62417969 -28.16982422 9.06085938 -29.03808594 8.48046875 C-31 7 -31 7 -32 5 C-26.41245708 2.8218053 -20.78185789 2.1356729 -14.875 1.375 C-13.88628906 1.2409375 -12.89757812 1.106875 -11.87890625 0.96875 C-7.86177508 0.43603166 -4.06122751 0 0 0 Z " fill="#B8B8BA" transform="translate(90,281)"/>
<path d="M0 0 C6.47876186 0.689929 12.92740306 1.50062861 19.375 2.4375 C20.26316406 2.55931641 21.15132812 2.68113281 22.06640625 2.80664062 C22.91847656 2.93103516 23.77054688 3.05542969 24.6484375 3.18359375 C25.79578369 3.34686157 25.79578369 3.34686157 26.96630859 3.51342773 C29 4 29 4 32 6 C13.27254265 19.94597888 13.27254265 19.94597888 5 23 C4.16089611 19.73061914 3.32971667 16.45927466 2.5 13.1875 C2.26152344 12.25873047 2.02304687 11.32996094 1.77734375 10.37304688 C1.55175781 9.48037109 1.32617188 8.58769531 1.09375 7.66796875 C0.88427734 6.84578857 0.67480469 6.0236084 0.45898438 5.17651367 C0 3 0 3 0 0 Z " fill="#B9B9BB" transform="translate(510,281)"/>
<path d="M0 0 C9.24 0 18.48 0 28 0 C27 5 27 5 25 7 C22.25514407 7.14507695 19.61519457 7.18652423 16.875 7.125 C16.12089844 7.11597656 15.36679687 7.10695313 14.58984375 7.09765625 C12.72642746 7.0740687 10.86317407 7.03819719 9 7 C9 10.63 9 14.26 9 18 C5.7 18 2.4 18 -1 18 C-1.09896353 11.76529746 -0.701923 6.31730701 0 0 Z " fill="#F1FAF5" transform="translate(300,102)"/>
<path d="M0 0 C0.66 0 1.32 0 2 0 C2.33 2.31 2.66 4.62 3 7 C8.94 6.505 8.94 6.505 15 6 C11.54602565 9.45397435 10.30872286 10.56375905 6 12 C6.66 15.3 7.32 18.6 8 22 C6.948125 21.649375 5.89625 21.29875 4.8125 20.9375 C1.06403739 20.0157469 -0.47074042 19.64259247 -4 21 C-6.08598575 22.57746186 -8.02166866 24.28544618 -10 26 C-10.66 26 -11.32 26 -12 26 C-11.690625 25.0925 -11.38125 24.185 -11.0625 23.25 C-10.2727737 20.83436662 -9.57050703 18.47219715 -9 16 C-10.98 15.01 -12.96 14.02 -15 13 C-12.37044318 11.24696212 -10.97667811 10.66926735 -8.0625 9.875 C-4.44583973 8.60284141 -3.18780318 7.24255162 -1.5 3.8125 C-0.97329707 2.55249945 -0.46376265 1.28450051 0 0 Z " fill="#E9B81D" transform="translate(113,160)"/>
<path d="M0 0 C2.28036609 1.9545995 3.06261469 3.1704511 4.125 6.0625 C5.65741708 9.12780796 5.65741708 9.12780796 8.15625 9.76171875 C9.77508809 10.08190033 11.40390022 10.35586993 13.0390625 10.578125 C13.68617188 10.71734375 14.33328125 10.8565625 15 11 C15.33 11.66 15.66 12.32 16 13 C13.69 13.66 11.38 14.32 9 15 C9.515625 16.093125 10.03125 17.18625 10.5625 18.3125 C12 22 12 22 11 25 C10.01 24.154375 9.02 23.30875 8 22.4375 C5.06942704 20.32296057 3.35050007 19.6649361 -0.25 20.125 C-3.90440544 20.91680921 -3.90440544 20.91680921 -7 22 C-6.7525 21.12988281 -6.7525 21.12988281 -6.5 20.2421875 C-5.95131103 17.64448815 -5.65999326 15.64258404 -6 13 C-8.33736074 10.41239791 -11.04778403 8.80879753 -14 7 C-14 6.67 -14 6.34 -14 6 C-10.04 6.33 -6.08 6.66 -2 7 C-1.34 4.69 -0.68 2.38 0 0 Z " fill="#E9BB16" transform="translate(486,160)"/>
<path d="M0 0 C1.16273438 -0.02900391 2.32546875 -0.05800781 3.5234375 -0.08789062 C4.6371875 -0.09626953 5.7509375 -0.10464844 6.8984375 -0.11328125 C7.92372559 -0.12786377 8.94901367 -0.14244629 10.00537109 -0.1574707 C12.625 0.3125 12.625 0.3125 14.54541016 2.02661133 C15.625 4.3125 15.625 4.3125 14.625 9.3125 C5.385 9.3125 -3.855 9.3125 -13.375 9.3125 C-13.375 -2.62028121 -10.32120956 0.08525228 0 0 Z " fill="#EEF9F2" transform="translate(344.375,89.6875)"/>
<path d="M0 0 C8.58 0 17.16 0 26 0 C25.67 2.97 25.34 5.94 25 9 C16.75 9 8.5 9 0 9 C0 6.03 0 3.06 0 0 Z " fill="#EBF8F0" transform="translate(243,90)"/>
<path d="M0 0 C2.47923801 -0.02685095 4.9581884 -0.04676547 7.4375 -0.0625 C8.14455078 -0.07087891 8.85160156 -0.07925781 9.58007812 -0.08789062 C11.38693559 -0.09653588 13.19387603 -0.05220011 15 0 C16 1 16 1 16.09765625 3.94140625 C16.06510417 7.29427083 16.03255208 10.64713542 16 14 C10.72 14 5.44 14 0 14 C0 9.38 0 4.76 0 0 Z " fill="#252744" transform="translate(324,225)"/>
<path d="M0 0 C4.95 0 9.9 0 15 0 C15 4.29 15 8.58 15 13 C10.05 13 5.1 13 0 13 C0 8.71 0 4.42 0 0 Z " fill="#282A46" transform="translate(324,201)"/>
<path d="M0 0 C3.3 0 6.6 0 10 0 C9.8590651 2.43787385 9.71245458 4.87517853 9.5625 7.3125 C9.50352539 8.34793945 9.50352539 8.34793945 9.44335938 9.40429688 C9.25072585 12.47161535 8.97677283 15.06968152 8 18 C4.7 18 1.4 18 -2 18 C-1.8590651 15.56212615 -1.71245458 13.12482147 -1.5625 10.6875 C-1.52318359 9.99720703 -1.48386719 9.30691406 -1.44335938 8.59570312 C-1.25072585 5.52838465 -0.97677283 2.93031848 0 0 Z " fill="#EEF9F2" transform="translate(349,102)"/>
<path d="M0 0 C3.3 0 6.6 0 10 0 C9.85860519 2.25028329 9.71171997 4.50022206 9.5625 6.75 C9.48128906 8.00296875 9.40007812 9.2559375 9.31640625 10.546875 C9 14 9 14 8 18 C4.7 18 1.4 18 -2 18 C-2.23438667 11.67155983 -1.37470522 6.18617348 0 0 Z " fill="#F2FAF5" transform="translate(330,102)"/>
<path d="M0 0 C3.37478448 2.6919102 4.30155263 6.00447605 5.6875 10 C6.12449219 11.2375 6.56148438 12.475 7.01171875 13.75 C8 17 8 17 8 20 C4.13013042 20.07442057 0.7264085 20.04702186 -3 19 C-2.54240047 12.4491015 -1.7899856 6.3246158 0 0 Z " fill="#363852" transform="translate(392,210)"/>
<path d="M0 0 C0.66 0 1.32 0 2 0 C2 1.32 2 2.64 2 4 C11.24 4 20.48 4 30 4 C30 4.33 30 4.66 30 5 C23.73 5.33 17.46 5.66 11 6 C11 6.33 11 6.66 11 7 C7.7 7 4.4 7 1 7 C1 8.65 1 10.3 1 12 C-0.65 12.66 -2.3 13.32 -4 14 C-3.01 11.69 -2.02 9.38 -1 7 C-9.25 7 -17.5 7 -26 7 C-26 6.67 -26 6.34 -26 6 C-18.08 5.67 -10.16 5.34 -2 5 C-1.34 3.35 -0.68 1.7 0 0 Z " fill="#25B75A" transform="translate(329,95)"/>
<path d="M0 0 C1.04590805 0.00222061 2.0918161 0.00444122 3.16941833 0.00672913 C4.35056717 0.00680466 5.531716 0.00688019 6.74865723 0.00695801 C8.03404892 0.01211929 9.31944061 0.01728058 10.64378357 0.02259827 C12.60601112 0.02472069 12.60601112 0.02472069 14.60787964 0.02688599 C18.09150591 0.03071042 21.57509071 0.04054005 25.05870056 0.05158997 C28.6111444 0.06180569 32.16359491 0.06638395 35.71604919 0.07142639 C42.69067564 0.0821624 49.66527449 0.09923792 56.63987732 0.12025452 C56.63987732 0.45025452 56.63987732 0.78025452 56.63987732 1.12025452 C37.49987732 1.78025452 18.35987732 2.44025452 -1.36012268 3.12025452 C-1.69012268 5.10025452 -2.02012268 7.08025452 -2.36012268 9.12025452 C-2.69012268 9.12025452 -3.02012268 9.12025452 -3.36012268 9.12025452 C-3.45777893 2.96791077 -3.45777893 2.96791077 -3.36012268 1.12025452 C-2.36012268 0.12025452 -2.36012268 0.12025452 0 0 Z " fill="#1AB351" transform="translate(271.36012268066406,98.87974548339844)"/>
<path d="M0 0 C0.66 0 1.32 0 2 0 C2 3.3 2 6.6 2 10 C0.35 10 -1.3 10 -3 10 C-2.69201674 8.51988629 -2.378482 7.04092675 -2.0625 5.5625 C-1.88847656 4.73878906 -1.71445313 3.91507813 -1.53515625 3.06640625 C-1 1 -1 1 0 0 Z " fill="#212341" transform="translate(217,156)"/>
<path d="M0 0 C1.5003479 0.07069702 1.5003479 0.07069702 3.03100586 0.14282227 C4.1105957 0.19116211 5.19018555 0.23950195 6.30249023 0.28930664 C7.43879883 0.34538086 8.57510742 0.40145508 9.74584961 0.45922852 C11.45611328 0.53753906 11.45611328 0.53753906 13.20092773 0.61743164 C16.02864984 0.74757785 18.85605961 0.8825573 21.68334961 1.02172852 C21.68334961 1.35172852 21.68334961 1.68172852 21.68334961 2.02172852 C14.09334961 2.35172852 6.50334961 2.68172852 -1.31665039 3.02172852 C-1.64665039 5.00172852 -1.97665039 6.98172852 -2.31665039 9.02172852 C-2.64665039 9.02172852 -2.97665039 9.02172852 -3.31665039 9.02172852 C-3.41430664 2.86938477 -3.41430664 2.86938477 -3.31665039 1.02172852 C-2.31665039 0.02172852 -2.31665039 0.02172852 0 0 Z " fill="#0AAE46" transform="translate(271.316650390625,98.978271484375)"/>
<path d="M0 0 C0.66 0.33 1.32 0.66 2 1 C2.59355614 3.64860427 2.74209269 6.29197322 3 9 C1.35 9 -0.3 9 -2 9 C-1.125 1.125 -1.125 1.125 0 0 Z " fill="#2F314C" transform="translate(343,155)"/>
<path d="M0 0 C0.66 0.33 1.32 0.66 2 1 C-2 5 -6 9 -10 13 C-9.55212676 8.35026146 -7.97814403 6.62972532 -4.4375 3.6875 C-3.61121094 2.99011719 -2.78492188 2.29273438 -1.93359375 1.57421875 C-1.29550781 1.05472656 -0.65742188 0.53523438 0 0 Z " fill="#DFDFE3" transform="translate(205,361)"/>
<path d="M0 0 C-1.28965176 1.37562854 -2.62689293 2.70766393 -4 4 C-4.66 4 -5.32 4 -6 4 C-6 3.34 -6 2.68 -6 2 C-7.98 2 -9.96 2 -12 2 C-12 1.67 -12 1.34 -12 1 C-7.95858806 0.36605303 -4.0934693 -0.12404452 0 0 Z " fill="#C69F20" transform="translate(128,166)"/>
<path d="M0 0 C0.66 0 1.32 0 2 0 C2 2.64 2 5.28 2 8 C1.34 7.01 0.68 6.02 0 5 C-0.99 5.495 -0.99 5.495 -2 6 C-1.34 4.02 -0.68 2.04 0 0 Z " fill="#4C4D63" transform="translate(217,156)"/>
<path d="M0 0 C0.66 0.33 1.32 0.66 2 1 C1.04882866 2.1725131 0.08882991 3.33787015 -0.875 4.5 C-1.40867188 5.1496875 -1.94234375 5.799375 -2.4921875 6.46875 C-2.98976562 6.9740625 -3.48734375 7.479375 -4 8 C-4.66 8 -5.32 8 -6 8 C-4.55746343 4.63408134 -2.66735273 2.48952921 0 0 Z " fill="#C5C6CD" transform="translate(219,335)"/>
</svg>
