<?xml version="1.0" encoding="UTF-8"?>
<!DOCTYPE svg PUBLIC "-//W3C//DTD SVG 1.1//EN" "http://www.w3.org/Graphics/SVG/1.1/DTD/svg11.dtd">
<svg xmlns="http://www.w3.org/2000/svg" version="1.1" width="6868px" height="2434px" style="shape-rendering:geometricPrecision; text-rendering:geometricPrecision; image-rendering:optimizeQuality; fill-rule:evenodd; clip-rule:evenodd" xmlns:xlink="http://www.w3.org/1999/xlink">
<g><path style="opacity:0.995" fill="#0077ff" d="M 1182.5,607.5 C 1205.84,607.333 1229.17,607.5 1252.5,608C 1260.44,611.514 1262.61,617.348 1259,625.5C 1229.1,686.864 1204.1,750.197 1184,815.5C 1182.57,820.598 1179.4,824.098 1174.5,826C 1057.91,832.118 945.572,857.118 837.5,901C 835.59,901.408 834.59,902.575 834.5,904.5C 842.268,962.235 854.768,1018.9 872,1074.5C 952.335,1037.54 1036.5,1013.87 1124.5,1003.5C 1128.77,1003.88 1131.93,1005.88 1134,1009.5C 1134.67,1013.5 1134.67,1017.5 1134,1021.5C 1123.53,1085.1 1116.86,1149.1 1114,1213.5C 1113.65,1220.04 1110.49,1224.54 1104.5,1227C 1059.71,1235.7 1016.38,1249.03 974.5,1267C 969.027,1268.9 964.027,1271.57 959.5,1275C 1003.99,1352.41 1057.82,1422.91 1121,1486.5C 1123.84,1490.17 1126.17,1494.17 1128,1498.5C 1141.19,1578.13 1159.86,1656.47 1184,1733.5C 1193.41,1761.22 1202.91,1788.89 1212.5,1816.5C 1210.1,1824.81 1204.77,1827.31 1196.5,1824C 971.47,1684.63 806.97,1493.13 703,1249.5C 640.2,1099.17 608.533,942.5 608,779.5C 609.233,772.205 613.066,766.705 619.5,763C 794.809,666.423 982.476,614.589 1182.5,607.5 Z"/></g>
<g><path style="opacity:0.995" fill="#0077ff" d="M 1352.5,615.5 C 1519.2,632.568 1675.53,682.068 1821.5,764C 1827.35,767.526 1830.85,772.693 1832,779.5C 1828.35,1067.51 1737.35,1323.51 1559,1547.5C 1483.45,1640.4 1396.62,1720.57 1298.5,1788C 1293.83,1790 1289.17,1790 1284.5,1788C 1282.95,1786.79 1281.78,1785.29 1281,1783.5C 1256.01,1717.69 1236.17,1650.36 1221.5,1581.5C 1221.83,1575.67 1224.16,1570.84 1228.5,1567C 1389.85,1438.25 1502.68,1275.42 1567,1078.5C 1584.88,1021.62 1597.71,963.622 1605.5,904.5C 1605.41,902.575 1604.41,901.408 1602.5,901C 1496.35,857.879 1386.01,833.213 1271.5,827C 1263.62,823.019 1261.46,816.853 1265,808.5C 1286.92,744.65 1313.26,682.65 1344,622.5C 1346.42,619.577 1349.25,617.243 1352.5,615.5 Z"/></g>
<g><path style="opacity:0.992" fill="#0077ff" d="M 2134.5,901.5 C 2296.17,901.333 2457.83,901.5 2619.5,902C 2625.66,905.126 2627.49,909.96 2625,916.5C 2610.33,956.5 2595.67,996.5 2581,1036.5C 2579.5,1038 2578,1039.5 2576.5,1041C 2476.22,1042.49 2375.89,1042.99 2275.5,1042.5C 2275.5,1084.83 2275.5,1127.17 2275.5,1169.5C 2357.17,1169.33 2438.83,1169.5 2520.5,1170C 2525.9,1170.9 2528.57,1174.06 2528.5,1179.5C 2514.84,1219.65 2500.67,1259.65 2486,1299.5C 2484.07,1304.43 2480.57,1307.59 2475.5,1309C 2408.83,1309.5 2342.17,1309.67 2275.5,1309.5C 2275.67,1382.5 2275.5,1455.5 2275,1528.5C 2274.17,1532 2272,1534.17 2268.5,1535C 2223.5,1535.67 2178.5,1535.67 2133.5,1535C 2131.38,1533.88 2129.54,1532.38 2128,1530.5C 2126.34,1323.56 2126,1116.56 2127,909.5C 2128.35,905.65 2130.85,902.983 2134.5,901.5 Z"/></g>
<g><path style="opacity:0.993" fill="#0077ff" d="M 2780.5,901.5 C 2839.83,901.333 2899.17,901.5 2958.5,902C 2963.57,903.406 2967.07,906.572 2969,911.5C 3043.6,1116.2 3117.77,1321.03 3191.5,1526C 3191.5,1530.33 3189.5,1533.33 3185.5,1535C 3137.83,1535.67 3090.17,1535.67 3042.5,1535C 3037.6,1533.1 3034.43,1529.6 3033,1524.5C 3018.86,1483.91 3005.03,1443.24 2991.5,1402.5C 2909.5,1402.5 2827.5,1402.5 2745.5,1402.5C 2731.64,1444.24 2717.47,1485.91 2703,1527.5C 2701.11,1531.06 2698.27,1533.56 2694.5,1535C 2647.5,1535.67 2600.5,1535.67 2553.5,1535C 2549.5,1533.33 2547.5,1530.33 2547.5,1526C 2620.07,1323.3 2693.23,1120.8 2767,918.5C 2768.43,913.878 2770.43,909.545 2773,905.5C 2775.26,903.501 2777.76,902.168 2780.5,901.5 Z M 2867.5,1048.5 C 2868.5,1048.47 2869.16,1048.97 2869.5,1050C 2893.97,1121.09 2918.64,1192.09 2943.5,1263C 2893.5,1263.67 2843.5,1263.67 2793.5,1263C 2818.67,1191.67 2843.33,1120.17 2867.5,1048.5 Z"/></g>
<g><path style="opacity:0.992" fill="#0077ff" d="M 3259.5,901.5 C 3311.5,901.333 3363.5,901.5 3415.5,902C 3417.95,902.725 3420.28,903.725 3422.5,905C 3497.13,1031.08 3571.63,1157.25 3646,1283.5C 3646.33,1158.17 3646.67,1032.83 3647,907.5C 3648.26,904.572 3650.43,902.739 3653.5,902C 3697.17,901.333 3740.83,901.333 3784.5,902C 3787.2,902.69 3789.36,904.19 3791,906.5C 3792.66,1113.12 3793,1319.79 3792,1526.5C 3791.77,1529.74 3790.27,1532.24 3787.5,1534C 3760.92,1535.16 3734.25,1535.66 3707.5,1535.5C 3681.5,1535.33 3655.5,1535.17 3629.5,1535C 3627.75,1534.53 3626.09,1533.86 3624.5,1533C 3621.28,1529.45 3618.45,1525.61 3616,1521.5C 3543.67,1398.17 3471.33,1274.83 3399,1151.5C 3398.99,1277.88 3398.33,1404.21 3397,1530.5C 3395.46,1532.38 3393.62,1533.88 3391.5,1535C 3347.17,1535.67 3302.83,1535.67 3258.5,1535C 3254.83,1533.33 3252.67,1530.5 3252,1526.5C 3251.33,1321.17 3251.33,1115.83 3252,910.5C 3252.95,906.061 3255.45,903.061 3259.5,901.5 Z"/></g>
<g><path style="opacity:0.994" fill="#0077ff" d="M 3923.5,901.5 C 4010.51,901.044 4097.51,901.544 4184.5,903C 4284.84,912.397 4364.34,957.563 4423,1038.5C 4466.62,1106.23 4483.62,1180.23 4474,1260.5C 4459.5,1363.59 4407.67,1441.42 4318.5,1494C 4272.61,1518.72 4223.61,1532.39 4171.5,1535C 4088.83,1535.67 4006.17,1535.67 3923.5,1535C 3920.43,1534.26 3918.26,1532.43 3917,1529.5C 3916.33,1422.83 3916.33,1316.17 3917,1209.5C 3924.92,1150.92 3957.75,1115.42 4015.5,1103C 4029.46,1101.47 4043.46,1101.13 4057.5,1102C 4061,1102.83 4063.17,1105 4064,1108.5C 4064.5,1203.83 4064.67,1299.17 4064.5,1394.5C 4097.83,1394.67 4131.17,1394.5 4164.5,1394C 4238.1,1387.03 4288.94,1349.53 4317,1281.5C 4335.87,1224.65 4329.87,1170.65 4299,1119.5C 4265.79,1072.63 4220.29,1047.13 4162.5,1043C 4081.75,1042.99 4001.09,1042.33 3920.5,1041C 3919.33,1039.83 3918.17,1038.67 3917,1037.5C 3916.33,994.167 3916.33,950.833 3917,907.5C 3918.44,904.558 3920.6,902.558 3923.5,901.5 Z"/></g>
<g><path style="opacity:0.994" fill="#0077ff" d="M 4574.5,901.5 C 4618.83,901.333 4663.17,901.5 4707.5,902C 4710.2,902.69 4712.36,904.19 4714,906.5C 4715.33,1037.44 4715.99,1168.44 4716,1299.5C 4721.09,1345.57 4744.59,1378.07 4786.5,1397C 4831.71,1413.32 4874.04,1407.98 4913.5,1381C 4940.61,1358.28 4955.11,1329.11 4957,1293.5C 4957,1164.09 4957.67,1034.75 4959,905.5C 4960.58,903.959 4962.41,902.792 4964.5,902C 5009.17,901.333 5053.83,901.333 5098.5,902C 5100.59,902.792 5102.42,903.959 5104,905.5C 5105.66,1040.42 5106,1175.42 5105,1310.5C 5097.74,1398.93 5056.57,1466.09 4981.5,1512C 4922.98,1542.2 4860.98,1553.2 4795.5,1545C 4722.37,1536.75 4662.87,1504.25 4617,1447.5C 4588.65,1408.13 4572.31,1364.13 4568,1315.5C 4566.36,1179.85 4566.02,1044.18 4567,908.5C 4568.77,905.228 4571.27,902.895 4574.5,901.5 Z"/></g>
<g><path style="opacity:0.995" fill="#0077ff" d="M 5237.5,901.5 C 5385.56,901.005 5533.56,901.505 5681.5,903C 5684.18,905.194 5685.68,908.027 5686,911.5C 5686.67,952.167 5686.67,992.833 5686,1033.5C 5685.37,1037.47 5683.2,1040.3 5679.5,1042C 5579.17,1042.5 5478.83,1042.67 5378.5,1042.5C 5378.5,1077.17 5378.5,1111.83 5378.5,1146.5C 5473.17,1146.33 5567.83,1146.5 5662.5,1147C 5665.94,1148.39 5668.11,1150.89 5669,1154.5C 5669.67,1195.5 5669.67,1236.5 5669,1277.5C 5668.11,1281.11 5665.94,1283.61 5662.5,1285C 5567.83,1285.5 5473.17,1285.67 5378.5,1285.5C 5378.5,1321.83 5378.5,1358.17 5378.5,1394.5C 5478.83,1394.33 5579.17,1394.5 5679.5,1395C 5681.62,1396.12 5683.46,1397.62 5685,1399.5C 5686.64,1441.45 5686.98,1483.45 5686,1525.5C 5685.69,1529.97 5683.52,1533.13 5679.5,1535C 5532.17,1535.67 5384.83,1535.67 5237.5,1535C 5235.15,1534.65 5233.32,1533.49 5232,1531.5C 5230.34,1323.58 5230,1115.58 5231,907.5C 5232.49,904.686 5234.66,902.686 5237.5,901.5 Z"/></g>
<g><path style="opacity:0.993" fill="#0077ff" d="M 5816.5,901.5 C 5860.83,901.333 5905.17,901.5 5949.5,902C 5953.33,903.167 5955.83,905.667 5957,909.5C 5957.5,1071.17 5957.67,1232.83 5957.5,1394.5C 6055.83,1394.33 6154.17,1394.5 6252.5,1395C 6256,1395.83 6258.17,1398 6259,1401.5C 6259.67,1443.83 6259.67,1486.17 6259,1528.5C 6258.17,1532 6256,1534.17 6252.5,1535C 6106.83,1535.67 5961.17,1535.67 5815.5,1535C 5812.06,1533.61 5809.89,1531.11 5809,1527.5C 5808.33,1321.5 5808.33,1115.5 5809,909.5C 5810.35,905.65 5812.85,902.983 5816.5,901.5 Z"/></g>
</svg>
