<?xml version="1.0" encoding="UTF-8"?>
<!DOCTYPE svg PUBLIC "-//W3C//DTD SVG 1.1//EN" "http://www.w3.org/Graphics/SVG/1.1/DTD/svg11.dtd">
<svg xmlns="http://www.w3.org/2000/svg" version="1.1" width="337px" height="149px" style="shape-rendering:geometricPrecision; text-rendering:geometricPrecision; image-rendering:optimizeQuality; fill-rule:evenodd; clip-rule:evenodd" xmlns:xlink="http://www.w3.org/1999/xlink">
<g><path style="opacity:1" fill="#fdfeff" d="M -0.5,-0.5 C 111.833,-0.5 224.167,-0.5 336.5,-0.5C 336.5,49.1667 336.5,98.8333 336.5,148.5C 224.167,148.5 111.833,148.5 -0.5,148.5C -0.5,98.8333 -0.5,49.1667 -0.5,-0.5 Z"/></g>
<g><path style="opacity:1" fill="#1378ff" d="M 65.5,36.5 C 69.1667,36.5 72.8333,36.5 76.5,36.5C 75.3305,41.174 73.6639,45.674 71.5,50C 65.704,50.2736 60.0373,51.2736 54.5,53C 52.7774,53.5232 51.444,54.5232 50.5,56C 51.5633,59.1533 52.5633,62.32 53.5,65.5C 58.1251,62.7604 63.1251,61.4271 68.5,61.5C 68.5,65.8333 68.5,70.1667 68.5,74.5C 64.7715,74.576 61.4381,75.7426 58.5,78C 61.6179,82.7861 65.1179,87.2861 69,91.5C 70.0883,97.433 71.5883,103.266 73.5,109C 72.4228,110.543 71.0894,110.543 69.5,109C 47.9171,93.5013 37.5838,72.5013 38.5,46C 47.1642,41.5029 56.1642,38.3362 65.5,36.5 Z"/></g>
<g><path style="opacity:1" fill="#1178ff" d="M 82.5,37.5 C 92.7647,38.4843 102.431,41.4843 111.5,46.5C 111.39,71.2206 101.723,91.3872 82.5,107C 81.2411,107.982 79.9078,108.315 78.5,108C 77.0933,104.214 75.76,100.381 74.5,96.5C 87.4764,85.8321 95.4764,72.1655 98.5,55.5C 91.9703,51.9929 84.9703,50.3262 77.5,50.5C 78.3303,45.8404 79.9969,41.507 82.5,37.5 Z"/></g>
<g><path style="opacity:1" fill="#0875ff" d="M 130.5,47.5 C 137.2,47.17 143.866,47.5033 150.5,48.5C 149.754,49.7362 149.421,51.0695 149.5,52.5C 145.167,52.5 140.833,52.5 136.5,52.5C 136.5,54.5 136.5,56.5 136.5,58.5C 139.898,58.1796 143.232,58.513 146.5,59.5C 145.754,60.7362 145.421,62.0695 145.5,63.5C 142.5,63.5 139.5,63.5 136.5,63.5C 136.5,66.5 136.5,69.5 136.5,72.5C 134.5,72.5 132.5,72.5 130.5,72.5C 130.5,64.1667 130.5,55.8333 130.5,47.5 Z"/></g>
<g><path style="opacity:1" fill="#1878ff" d="M 156.5,47.5 C 159.448,47.2229 162.281,47.5562 165,48.5C 167.735,56.2052 170.568,63.8719 173.5,71.5C 169.231,73.3124 166.898,71.9791 166.5,67.5C 162.818,67.3347 159.152,67.5014 155.5,68C 154.43,72.2057 151.763,73.539 147.5,72C 150.797,63.9417 153.797,55.775 156.5,47.5 Z"/></g>
<g><path style="opacity:1" fill="#1778ff" d="M 176.5,47.5 C 178.857,47.3367 181.19,47.5034 183.5,48C 186.459,52.7512 189.293,57.5845 192,62.5C 192.499,57.5111 192.666,52.5111 192.5,47.5C 194.5,47.5 196.5,47.5 198.5,47.5C 198.5,55.8333 198.5,64.1667 198.5,72.5C 196.143,72.6633 193.81,72.4966 191.5,72C 188.292,67.7529 185.458,63.2529 183,58.5C 182.501,63.1548 182.334,67.8215 182.5,72.5C 180.5,72.5 178.5,72.5 176.5,72.5C 176.5,64.1667 176.5,55.8333 176.5,47.5 Z"/></g>
<g><path style="opacity:1" fill="#0f76ff" d="M 203.5,47.5 C 209.762,46.872 215.762,47.7054 221.5,50C 228.241,57.2579 227.908,64.2579 220.5,71C 214.928,72.3507 209.262,72.8507 203.5,72.5C 203.334,67.4889 203.501,62.4889 204,57.5C 205.444,55.8446 207.278,55.178 209.5,55.5C 209.5,59.5 209.5,63.5 209.5,67.5C 217.164,68.3338 220.664,65.0005 220,57.5C 219.167,55.3333 217.667,53.8333 215.5,53C 211.514,52.5012 207.514,52.3345 203.5,52.5C 203.5,50.8333 203.5,49.1667 203.5,47.5 Z"/></g>
<g><path style="opacity:1" fill="#257aff" d="M 230.5,47.5 C 232.167,47.5 233.833,47.5 235.5,47.5C 235.334,53.1764 235.501,58.8431 236,64.5C 238.706,67.9779 241.706,68.3112 245,65.5C 245.499,59.5092 245.666,53.5092 245.5,47.5C 247.5,47.5 249.5,47.5 251.5,47.5C 251.666,54.175 251.5,60.8417 251,67.5C 246.258,73.7643 240.425,74.931 233.5,71C 232.299,70.0975 231.465,68.9308 231,67.5C 230.5,60.8417 230.334,54.175 230.5,47.5 Z"/></g>
<g><path style="opacity:1" fill="#0075ff" d="M 275.5,52.5 C 271.167,52.5 266.833,52.5 262.5,52.5C 262.5,54.1667 262.5,55.8333 262.5,57.5C 266.5,57.5 270.5,57.5 274.5,57.5C 274.5,59.1667 274.5,60.8333 274.5,62.5C 270.5,62.5 266.5,62.5 262.5,62.5C 262.5,64.1667 262.5,65.8333 262.5,67.5C 266.833,67.5 271.167,67.5 275.5,67.5C 275.5,69.1667 275.5,70.8333 275.5,72.5C 269.5,72.5 263.5,72.5 257.5,72.5C 257.5,64.1667 257.5,55.8333 257.5,47.5C 263.5,47.5 269.5,47.5 275.5,47.5C 275.5,49.1667 275.5,50.8333 275.5,52.5 Z"/></g>
<g><path style="opacity:1" fill="#0d76ff" d="M 280.5,47.5 C 282.5,47.5 284.5,47.5 286.5,47.5C 286.5,54.1667 286.5,60.8333 286.5,67.5C 290.5,67.5 294.5,67.5 298.5,67.5C 298.5,69.1667 298.5,70.8333 298.5,72.5C 292.5,72.5 286.5,72.5 280.5,72.5C 280.5,64.1667 280.5,55.8333 280.5,47.5 Z"/></g>
<g><path style="opacity:1" fill="#f0f4ff" d="M 160.5,53.5 C 161.67,55.6502 162.67,57.9836 163.5,60.5C 161.579,61.641 159.579,61.8077 157.5,61C 158.601,58.5279 159.601,56.0279 160.5,53.5 Z"/></g>
<g><path style="opacity:1" fill="#b5ccff" d="M 275.5,52.5 C 271.702,53.4834 267.702,53.8168 263.5,53.5C 263.5,54.5 263.5,55.5 263.5,56.5C 267.371,56.185 271.038,56.5184 274.5,57.5C 270.5,57.5 266.5,57.5 262.5,57.5C 262.5,55.8333 262.5,54.1667 262.5,52.5C 266.833,52.5 271.167,52.5 275.5,52.5 Z"/></g>
<g><path style="opacity:1" fill="#7eabff" d="M 130.5,82.5 C 135.015,81.1876 139.682,81.1876 144.5,82.5C 144.376,83.1067 144.043,83.44 143.5,83.5C 139.366,82.5151 135.032,82.1818 130.5,82.5 Z"/></g>
<g><path style="opacity:1" fill="#7dabff" d="M 197.5,82.5 C 192.381,81.8969 187.715,82.5636 183.5,84.5C 182.596,83.791 182.263,82.791 182.5,81.5C 187.695,81.1795 192.695,81.5128 197.5,82.5 Z"/></g>
<g><path style="opacity:1" fill="#72a3ff" d="M 179.5,81.5 C 179.5,81.8333 179.5,82.1667 179.5,82.5C 177.926,87.1645 176.926,91.4978 176.5,95.5C 176.5,90.8333 176.5,86.1667 176.5,81.5C 177.5,81.5 178.5,81.5 179.5,81.5 Z"/></g>
<g><path style="opacity:1" fill="#b7ceff" d="M 179.5,81.5 C 180.491,87.979 180.824,94.6457 180.5,101.5C 178.901,101.768 177.568,101.434 176.5,100.5C 177.5,100.5 178.5,100.5 179.5,100.5C 179.5,94.5 179.5,88.5 179.5,82.5C 179.5,82.1667 179.5,81.8333 179.5,81.5 Z"/></g>
<g><path style="opacity:1" fill="#0d70ff" d="M 130.5,82.5 C 135.032,82.1818 139.366,82.5151 143.5,83.5C 140.375,84.4794 137.042,84.8128 133.5,84.5C 133.5,86.1667 133.5,87.8333 133.5,89.5C 135.833,90.1667 138.167,90.8333 140.5,91.5C 138.393,92.4682 136.059,92.8016 133.5,92.5C 133.5,95.5 133.5,98.5 133.5,101.5C 132.5,101.5 131.5,101.5 130.5,101.5C 130.5,95.1667 130.5,88.8333 130.5,82.5 Z"/></g>
<g><path style="opacity:1" fill="#0073ff" d="M 197.5,82.5 C 197.5,83.1667 197.5,83.8333 197.5,84.5C 195.5,84.5 193.5,84.5 191.5,84.5C 191.5,89.8333 191.5,95.1667 191.5,100.5C 189.856,95.4104 188.856,90.077 188.5,84.5C 186.833,84.5 185.167,84.5 183.5,84.5C 187.715,82.5636 192.381,81.8969 197.5,82.5 Z"/></g>
<g><path style="opacity:1" fill="#619bff" d="M 188.5,84.5 C 188.856,90.077 189.856,95.4104 191.5,100.5C 191.5,100.833 191.5,101.167 191.5,101.5C 190.5,101.5 189.5,101.5 188.5,101.5C 188.5,95.8333 188.5,90.1667 188.5,84.5 Z"/></g>
<g><path style="opacity:1" fill="#bed3ff" d="M 197.5,84.5 C 196.081,85.4511 194.415,85.7845 192.5,85.5C 192.821,91.0262 192.488,96.3595 191.5,101.5C 191.5,101.167 191.5,100.833 191.5,100.5C 191.5,95.1667 191.5,89.8333 191.5,84.5C 193.5,84.5 195.5,84.5 197.5,84.5 Z"/></g>
<g><path style="opacity:1" fill="#2378ff" d="M 176.5,95.5 C 176.926,91.4978 177.926,87.1645 179.5,82.5C 179.5,88.5 179.5,94.5 179.5,100.5C 178.5,100.5 177.5,100.5 176.5,100.5C 173.197,96.3488 170.03,92.0155 167,87.5C 166.501,92.1548 166.334,96.8215 166.5,101.5C 165.5,101.5 164.5,101.5 163.5,101.5C 163.5,94.8333 163.5,88.1667 163.5,81.5C 165.144,81.2865 166.644,81.6198 168,82.5C 170.36,87.2404 173.193,91.5737 176.5,95.5 Z"/></g>
<g><path style="opacity:1" fill="#a7c4ff" d="M 133.5,89.5 C 136.247,89.1866 138.914,89.52 141.5,90.5C 141.376,91.1067 141.043,91.44 140.5,91.5C 138.167,90.8333 135.833,90.1667 133.5,89.5 Z"/></g>
<g><path style="opacity:1" fill="#2f7bff" d="M 204.5,81.5 C 205.833,81.5 207.167,81.5 208.5,81.5C 210.233,88.0287 212.566,94.362 215.5,100.5C 214.5,101.833 213.5,101.833 212.5,100.5C 211.833,99.1667 211.167,97.8333 210.5,96.5C 207.572,95.5159 204.572,95.1826 201.5,95.5C 201.509,97.3084 201.009,98.9751 200,100.5C 198.817,101.731 197.651,101.731 196.5,100.5C 199.458,94.256 202.124,87.9227 204.5,81.5 Z"/></g>
<g><path style="opacity:1" fill="#e3eaff" d="M 205.5,85.5 C 207.19,87.5038 208.524,89.8371 209.5,92.5C 207.604,93.4656 205.604,93.7989 203.5,93.5C 203.963,90.779 204.629,88.1123 205.5,85.5 Z"/></g>
<g><path style="opacity:1" fill="#2177ff" d="M 221.5,81.5 C 225.741,80.7498 229.074,82.0831 231.5,85.5C 231,85.8333 230.5,86.1667 230,86.5C 227.439,84.6562 224.606,84.1562 221.5,85C 220.167,86.3333 220.167,87.6667 221.5,89C 225.401,89.6765 228.901,91.1765 232,93.5C 232.896,96.025 232.396,98.1917 230.5,100C 224.94,102.861 220.606,101.694 217.5,96.5C 218,96.1667 218.5,95.8333 219,95.5C 220.853,97.1872 223.019,98.1872 225.5,98.5C 229.166,98.631 230.166,97.131 228.5,94C 224.549,93.4638 221.049,91.9638 218,89.5C 217.279,85.9463 218.446,83.2796 221.5,81.5 Z"/></g>
<g><path style="opacity:1" fill="#2579ff" d="M 244.5,94.5 C 243.835,96.3691 243.169,98.3691 242.5,100.5C 241.831,98.3691 241.165,96.3691 240.5,94.5C 238.963,90.2886 236.963,86.2886 234.5,82.5C 235.651,81.269 236.817,81.269 238,82.5C 239.247,85.3286 240.747,87.9952 242.5,90.5C 244.167,87.8333 245.833,85.1667 247.5,82.5C 248.723,81.3861 250.056,81.2195 251.5,82C 248.762,85.9788 246.429,90.1454 244.5,94.5 Z"/></g>
<g><path style="opacity:1" fill="#2879ff" d="M 149.5,81.5 C 150.978,81.238 152.311,81.5713 153.5,82.5C 156.073,88.725 158.74,94.8916 161.5,101C 160.207,101.49 158.873,101.657 157.5,101.5C 157.701,97.2067 155.701,95.2067 151.5,95.5C 150.167,95.6667 148.833,95.8333 147.5,96C 146.88,98.2123 145.713,100.046 144,101.5C 143.5,101.167 143,100.833 142.5,100.5C 145.037,94.22 147.37,87.8867 149.5,81.5 Z"/></g>
<g><path style="opacity:1" fill="#e1e9ff" d="M 150.5,85.5 C 152.837,87.5066 154.171,90.1733 154.5,93.5C 152.396,93.7989 150.396,93.4656 148.5,92.5C 149.577,90.2706 150.244,87.9372 150.5,85.5 Z"/></g>
<g><path style="opacity:1" fill="#8db3ff" d="M 240.5,94.5 C 241.165,96.3691 241.831,98.3691 242.5,100.5C 243.169,98.3691 243.835,96.3691 244.5,94.5C 244.5,96.8333 244.5,99.1667 244.5,101.5C 243.167,101.5 241.833,101.5 240.5,101.5C 240.5,99.1667 240.5,96.8333 240.5,94.5 Z"/></g>
</svg>
