<?xml version="1.0" encoding="UTF-8"?>
<svg version="1.1" xmlns="http://www.w3.org/2000/svg" width="1200" height="630">
<path d="M0 0 C396 0 792 0 1200 0 C1200 207.9 1200 415.8 1200 630 C804 630 408 630 0 630 C0 422.1 0 214.2 0 0 Z " fill="#05294F" transform="translate(0,0)"/>
<path d="M0 0 C106.26 0 212.52 0 322 0 C321 11 321 11 320 12 C318.28498841 12.09731125 316.56592884 12.12371492 314.84815884 12.12304783 C313.1626922 12.1260344 313.1626922 12.1260344 311.44317573 12.12908131 C310.19320322 12.12616847 308.94323071 12.12325563 307.65538025 12.12025452 C306.33962196 12.12110894 305.02386368 12.12196337 303.66823393 12.12284368 C299.99917565 12.12509113 296.33014628 12.12106397 292.66109169 12.11606562 C288.71083376 12.11176487 284.7605776 12.11320728 280.81031799 12.1139679 C273.9606023 12.11449337 267.11089609 12.11134413 260.26118279 12.10573006 C250.3575313 12.09761822 240.45388442 12.09500016 230.55022997 12.09374207 C214.4839235 12.09155105 198.41762208 12.08488961 182.35131836 12.07543945 C166.74031601 12.06626662 151.12931504 12.05918516 135.51831055 12.05493164 C134.55676069 12.05466892 133.59521084 12.05440619 132.60452311 12.05413551 C127.78092281 12.05283051 122.9573225 12.0515668 118.13372219 12.05032361 C78.08914458 12.03994944 38.04457262 12.02232977 -2 12 C-1.44549838 7.96005961 -0.80044424 4.00222119 0 0 Z " fill="#F3BC00" transform="translate(302,355)"/>
<path d="M0 0 C6.17471146 -0.04949211 12.34930705 -0.08576343 18.52416992 -0.10986328 C20.62412528 -0.11991169 22.72406669 -0.13355266 24.82397461 -0.15087891 C27.8449244 -0.17517801 30.86568895 -0.18649482 33.88671875 -0.1953125 C35.29167854 -0.21079636 35.29167854 -0.21079636 36.72502136 -0.22659302 C42.13168962 -0.22752057 46.24851821 0.03896583 50.78125 3.26953125 C54.23610989 8.17498937 52.43759868 16.2369841 51.54443359 21.87646484 C46.7876111 48.05752161 46.7876111 48.05752161 41.75 53.375 C34.76671703 57.50148539 27.47792501 57.39951608 19.5625 57.625 C18.44939453 57.66367187 17.33628906 57.70234375 16.18945312 57.7421875 C13.45989148 57.83590635 10.72996919 57.91901731 8 58 C6.68 64.93 5.36 71.86 4 79 C-2.27 79 -8.54 79 -15 79 C-13.68763422 70.96853064 -12.26862505 62.96997575 -10.72265625 54.98046875 C-10.51064072 53.87882889 -10.29862518 52.77718903 -10.08018494 51.64216614 C-9.63464168 49.3286106 -9.18838973 47.01519144 -8.74145508 44.7019043 C-8.06629997 41.20716937 -7.39330637 37.71202374 -6.72070312 34.21679688 C-4.52188924 22.80277381 -2.30818603 11.39247102 0 0 Z " fill="#FBFBFB" transform="translate(689,287)"/>
<path d="M0 0 C1.14146484 -0.01224609 2.28292969 -0.02449219 3.45898438 -0.03710938 C18.33475381 -0.0628906 18.33475381 -0.0628906 23.5625 4.25 C27.34789829 11.66307165 24.34923477 21.28895862 22.8125 29.0625 C22.60753906 30.16980469 22.40257812 31.27710938 22.19140625 32.41796875 C18.73958449 50.22100097 18.73958449 50.22100097 13.75 55.75 C5.99276955 59.89921629 -1.74880115 59.52157629 -10.375 59.5 C-11.65955078 59.51611328 -12.94410156 59.53222656 -14.26757812 59.54882812 C-21.1874444 59.55239323 -26.70555625 59.30725799 -32.9375 56.1875 C-36.48230312 52.53192178 -36.16719485 48.84131916 -36.11572266 44.02954102 C-35.80881654 39.13543954 -34.73254142 34.45405362 -33.625 29.6875 C-33.30499023 28.23537109 -33.30499023 28.23537109 -32.97851562 26.75390625 C-28.3668248 6.24220676 -28.3668248 6.24220676 -22.125 1.9375 C-15.05774471 -0.48555896 -7.36775654 0.00414618 0 0 Z " fill="#F9F9F9" transform="translate(815.9375,285.8125)"/>
<path d="M0 0 C0.86066574 0.00007553 1.72133148 0.00015106 2.608078 0.00022888 C3.53316666 0.00539017 4.45825531 0.01055145 5.41137695 0.01586914 C6.36156204 0.01728409 7.31174713 0.01869904 8.29072571 0.02015686 C11.3270685 0.02575664 14.36333768 0.03830907 17.3996582 0.05102539 C19.45759985 0.05604042 21.51554265 0.06060332 23.57348633 0.06469727 C28.61973867 0.07572599 33.66593595 0.09299046 38.7121582 0.11352539 C37.23715026 10.63044203 35.24656211 21.02910027 33.19824219 31.4465332 C32.64403425 34.26714825 32.09483222 37.08870723 31.54614258 39.91040039 C31.1942219 41.70993685 30.84201889 43.50941813 30.48950195 45.30883789 C30.32594711 46.14939728 30.16239227 46.98995667 29.99388123 47.85598755 C29.37107532 51.01253632 28.73076854 54.05769439 27.7121582 57.11352539 C23.0921582 57.11352539 18.4721582 57.11352539 13.7121582 57.11352539 C13.7121582 56.12352539 13.7121582 55.13352539 13.7121582 54.11352539 C9.97728043 54.61150909 7.89978186 54.98844295 4.7121582 57.11352539 C1.7891145 57.53658266 -1.14988324 57.43781779 -4.1003418 57.42602539 C-4.89504883 57.44213867 -5.68975586 57.45825195 -6.50854492 57.47485352 C-11.51600529 57.47899534 -14.94829099 56.87323973 -19.2878418 54.11352539 C-22.74834083 50.07627652 -22.66496399 46.19207071 -22.2878418 41.11352539 C-21.6646567 36.93567814 -20.83287799 32.81136467 -19.9753418 28.67602539 C-19.76200195 27.59514648 -19.54866211 26.51426758 -19.32885742 25.40063477 C-15.64750441 7.27958666 -15.64750441 7.27958666 -10.7878418 3.61352539 C-10.2000293 3.14946289 -9.6122168 2.68540039 -9.0065918 2.20727539 C-6.01084709 0.30089239 -3.45361161 -0.01012789 0 0 Z " fill="#FAFAFA" transform="translate(365.287841796875,286.886474609375)"/>
<path d="M0 0 C0.94735519 0.0028299 1.89471039 0.00565979 2.87077332 0.00857544 C5.88663541 0.01974063 8.90219691 0.04483861 11.91796875 0.0703125 C13.96679258 0.08034703 16.01562107 0.08947205 18.06445312 0.09765625 C23.07824023 0.11966801 28.09180358 0.15417279 33.10546875 0.1953125 C30.87829531 12.54222199 28.6208498 24.88339227 26.3213501 37.21704102 C26.05266699 38.65961195 25.78472128 40.10232042 25.51751709 41.54516602 C25.13876467 43.58909969 24.75724054 45.63249741 24.375 47.67578125 C24.15432861 48.86067139 23.93365723 50.04556152 23.70629883 51.26635742 C23.10546875 54.1953125 23.10546875 54.1953125 22.10546875 57.1953125 C17.15546875 57.1953125 12.20546875 57.1953125 7.10546875 57.1953125 C7.10546875 55.8753125 7.10546875 54.5553125 7.10546875 53.1953125 C6.56921875 53.4840625 6.03296875 53.7728125 5.48046875 54.0703125 C-0.11571755 56.72113759 -5.02894586 57.60460408 -11.14453125 57.6328125 C-12.15386719 57.64731445 -12.15386719 57.64731445 -13.18359375 57.66210938 C-17.78808007 57.58476128 -20.98004783 56.58814213 -24.89453125 54.1953125 C-28.35692407 50.15585421 -28.17848922 46.27403555 -27.89453125 41.1953125 C-27.20961161 36.52215654 -26.23110557 31.91910032 -25.23339844 27.30444336 C-24.77073768 25.13846049 -24.34022009 22.96757885 -23.91015625 20.79492188 C-20.91998975 6.41702198 -20.91998975 6.41702198 -14.89453125 2.1953125 C-10.13913809 -0.44694587 -5.28580122 -0.05964701 0 0 Z " fill="#FAFAFA" transform="translate(533.89453125,286.8046875)"/>
<path d="M0 0 C5.94 0 11.88 0 18 0 C17.21056515 8.78371186 15.54362715 17.40052205 13.9375 26.0625 C13.6527069 27.61127521 13.36819929 29.16010295 13.08398438 30.70898438 C12.39314053 34.47337836 11.69644859 38.23662186 11 42 C15.95 42 20.9 42 26 42 C26.103125 40.84371094 26.20625 39.68742187 26.3125 38.49609375 C27.03572838 31.99595133 28.32598927 25.59922235 29.58398438 19.1862793 C30.00367472 17.0437404 30.41624816 14.89991255 30.828125 12.75585938 C31.09333227 11.39054379 31.35894239 10.02530638 31.625 8.66015625 C31.86476563 7.42918213 32.10453125 6.19820801 32.3515625 4.92993164 C33 2 33 2 34 0 C39.94 0 45.88 0 52 0 C51.3850703 10.2674626 49.26120136 20.09115341 47.125 30.125 C46.41564548 33.48101639 45.71040219 36.83787368 45.0078125 40.1953125 C44.83576294 41.01383194 44.66371338 41.83235138 44.4864502 42.67567444 C43.18343343 48.94148987 42.03524914 55.22653166 41.01052856 61.54385376 C39.90500051 68.16274196 38.66806817 72.98724682 33.10546875 77.18359375 C28.02768074 79.94446756 22.6899223 79.43164243 17.0625 79.25 C15.99708984 79.23195313 14.93167969 79.21390625 13.83398438 79.1953125 C11.22171071 79.14845557 8.61133774 79.08286926 6 79 C6.14230808 77.58297487 6.28900746 76.1663904 6.4375 74.75 C6.51871094 73.96109375 6.59992187 73.1721875 6.68359375 72.359375 C7 70 7 70 8 66 C12.29 66 16.58 66 21 66 C21.66 62.37 22.32 58.74 23 55 C21.33710937 55.04640625 19.67421875 55.0928125 17.9609375 55.140625 C15.765643 55.1781514 13.57032902 55.21455063 11.375 55.25 C9.73337891 55.30027344 9.73337891 55.30027344 8.05859375 55.3515625 C1.77275434 55.42775449 -2.32747541 55.43331685 -7 51 C-10.29662633 41.110121 -6.62828034 29.92094661 -4.5625 20.0625 C-4.23287258 18.44743915 -3.90408989 16.83220566 -3.57617188 15.21679688 C-1.19876677 3.59630031 -1.19876677 3.59630031 0 0 Z " fill="#FAFAFA" transform="translate(629,287)"/>
<path d="M0 0 C6.01394883 -0.0991017 12.02741915 -0.17157916 18.04199219 -0.21972656 C20.0866728 -0.2398042 22.13129627 -0.26707225 24.17578125 -0.30175781 C27.11993537 -0.35044519 30.06332834 -0.37300744 33.0078125 -0.390625 C33.9174173 -0.41127014 34.82702209 -0.43191528 35.76419067 -0.45318604 C41.4858702 -0.45519508 44.62250185 0.22832024 49 4 C53.60371886 13.20743773 47.99807927 28.18572788 46 37.6875 C45.61359597 39.56425011 45.2281709 41.44120205 44.84375 43.31835938 C43.90890081 47.88179348 42.95409081 52.44038296 42 57 C36.06 57 30.12 57 24 57 C24 49.125 24 49.125 24.64257812 45.80883789 C24.85279602 44.69847923 24.85279602 44.69847923 25.06726074 43.56568909 C25.2203772 42.79248825 25.37349365 42.01928741 25.53125 41.22265625 C25.68662231 40.41130722 25.84199463 39.59995819 26.0020752 38.76402283 C26.49534533 36.19564031 26.99752068 33.62909498 27.5 31.0625 C27.83783144 29.31196308 28.175077 27.56131298 28.51171875 25.81054688 C29.33437557 21.5390258 30.16501853 17.26912826 31 13 C26.05 13 21.1 13 16 13 C15.67386719 14.835625 15.34773438 16.67125 15.01171875 18.5625 C12.72980208 31.38594602 10.43124384 44.20397977 8 57 C1.73 57 -4.54 57 -11 57 C-10.39591427 51.56322845 -9.81874782 46.61456794 -8.6953125 41.33984375 C-8.44289795 40.14085449 -8.1904834 38.94186523 -7.93041992 37.70654297 C-7.66463135 36.46275879 -7.39884277 35.21897461 -7.125 33.9375 C-5.15003825 24.56717479 -3.22991314 15.19987829 -1.54296875 5.7734375 C-1 3 -1 3 0 0 Z " fill="#FAFAFA" transform="translate(409,287)"/>
<path d="M0 0 C59.73 0 119.46 0 181 0 C180.34 3.96 179.68 7.92 179 12 C119.6 12 60.2 12 -1 12 C-0.67 8.04 -0.34 4.08 0 0 Z " fill="#F3BC00" transform="translate(706,355)"/>
<path d="M0 0 C0.80993408 0.00424484 1.61986816 0.00848969 2.4543457 0.01286316 C5.01158561 0.02949931 7.56800304 0.06712103 10.125 0.10546875 C11.87108227 0.12053515 13.61717705 0.13422011 15.36328125 0.14648438 C19.61749875 0.17935309 23.8711105 0.23102815 28.125 0.29296875 C27.465 4.58296875 26.805 8.87296875 26.125 13.29296875 C16.555 13.62296875 6.985 13.95296875 -2.875 14.29296875 C-3.535 17.26296875 -4.195 20.23296875 -4.875 23.29296875 C-0.255 23.29296875 4.365 23.29296875 9.125 23.29296875 C8.25 33.04296875 8.25 33.04296875 7.125 35.29296875 C2.175 35.29296875 -2.775 35.29296875 -7.875 35.29296875 C-8.20113281 37.20078125 -8.52726562 39.10859375 -8.86328125 41.07421875 C-11.10713508 54.16551289 -13.37147309 67.24827592 -15.875 80.29296875 C-22.145 80.29296875 -28.415 80.29296875 -34.875 80.29296875 C-34.19042429 70.7474764 -32.23373471 61.52371081 -30.3125 52.16796875 C-29.9793679 50.52743502 -29.64668195 48.88681064 -29.31445312 47.24609375 C-28.50644244 43.26065477 -27.69240234 39.27649166 -26.875 35.29296875 C-28.855 35.29296875 -30.835 35.29296875 -32.875 35.29296875 C-32.73331863 33.85505359 -32.58648957 32.41764505 -32.4375 30.98046875 C-32.35628906 30.17996094 -32.27507812 29.37945312 -32.19140625 28.5546875 C-31.875 26.29296875 -31.875 26.29296875 -30.875 23.29296875 C-28.565 23.29296875 -26.255 23.29296875 -23.875 23.29296875 C-23.74544922 22.1328125 -23.74544922 22.1328125 -23.61328125 20.94921875 C-21.83212688 7.74579917 -21.83212688 7.74579917 -16.875 3.29296875 C-11.01565513 0.6861352 -6.36773204 -0.12837496 0 0 Z " fill="#FAFAFA" transform="translate(339.875,263.70703125)"/>
<path d="M0 0 C1.25456245 0.00424484 1.25456245 0.00424484 2.5344696 0.00857544 C5.19370101 0.0197293 7.85258993 0.04482487 10.51171875 0.0703125 C12.31965658 0.08034851 14.12759971 0.08947327 15.93554688 0.09765625 C20.35690187 0.11965291 24.77800233 0.15414956 29.19921875 0.1953125 C28.71697146 4.32886072 28.21036394 8.15073174 27.19921875 12.1953125 C17.95921875 12.5253125 8.71921875 12.8553125 -0.80078125 13.1953125 C-1.46078125 15.5053125 -2.12078125 17.8153125 -2.80078125 20.1953125 C-1.53363281 20.23269531 -0.26648438 20.27007812 1.0390625 20.30859375 C2.73830806 20.37431043 4.43752555 20.44075573 6.13671875 20.5078125 C6.96751953 20.53037109 7.79832031 20.55292969 8.65429688 20.57617188 C14.41722638 20.82283423 19.99863377 21.53785916 25.19921875 24.1953125 C28.15495613 28.62891857 27.6135206 32.07840029 26.62890625 37.109375 C24.76353099 45.0224932 23.23767805 51.44435247 16.19921875 56.1953125 C13.49297505 57.09739373 11.96070889 57.31758849 9.18676758 57.30883789 C8.38616409 57.30876236 7.58556061 57.30868683 6.76069641 57.30860901 C5.9012291 57.30344772 5.04176178 57.29828644 4.15625 57.29296875 C3.27265305 57.2915538 2.38905609 57.29013885 1.47868347 57.28868103 C-1.34367253 57.28308319 -4.16594922 57.27053111 -6.98828125 57.2578125 C-8.90169156 57.25279722 -10.81510312 57.24823436 -12.72851562 57.24414062 C-17.41930139 57.23311447 -22.11002788 57.21585133 -26.80078125 57.1953125 C-26.65944626 55.42411447 -26.51254917 53.65335963 -26.36328125 51.8828125 C-26.28207031 50.89667969 -26.20085938 49.91054688 -26.1171875 48.89453125 C-25.80078125 46.1953125 -25.80078125 46.1953125 -24.80078125 43.1953125 C-14.24078125 42.8653125 -3.68078125 42.5353125 7.19921875 42.1953125 C7.52921875 39.8853125 7.85921875 37.5753125 8.19921875 35.1953125 C6.90886719 35.15792969 5.61851562 35.12054688 4.2890625 35.08203125 C2.57158726 35.01633548 0.8541406 34.9498894 -0.86328125 34.8828125 C-1.71083984 34.86025391 -2.55839844 34.83769531 -3.43164062 34.81445312 C-9.73654636 34.54667721 -14.48071569 33.57356354 -19.71484375 29.82421875 C-22.52708682 25.60585414 -21.17955895 19.14135155 -20.26171875 14.42578125 C-18.94721188 9.60833025 -17.51767196 5.69356258 -13.80078125 2.1953125 C-9.26188974 -0.22975695 -5.00862734 -0.0641943 0 0 Z " fill="#FAFAFA" transform="translate(866.80078125,286.8046875)"/>
<path d="M0 0 C1.25456245 0.00424484 1.25456245 0.00424484 2.5344696 0.00857544 C5.19370101 0.0197293 7.85258993 0.04482487 10.51171875 0.0703125 C12.31965658 0.08034851 14.12759971 0.08947327 15.93554688 0.09765625 C20.35690187 0.11965291 24.77800233 0.15414956 29.19921875 0.1953125 C29.05753738 1.63322766 28.91070832 3.0706362 28.76171875 4.5078125 C28.68050781 5.30832031 28.59929688 6.10882813 28.515625 6.93359375 C28.19921875 9.1953125 28.19921875 9.1953125 27.19921875 12.1953125 C17.95921875 12.5253125 8.71921875 12.8553125 -0.80078125 13.1953125 C-3.02438805 16.8971701 -3.02438805 16.8971701 -2.80078125 20.1953125 C-1.67800781 20.24429687 -0.55523438 20.29328125 0.6015625 20.34375 C20.18133576 21.28153304 20.18133576 21.28153304 25.76171875 24.8203125 C28.37618859 29.13987136 27.6112263 33.23270896 26.62109375 37.94921875 C24.68962752 45.5004298 22.91967514 51.65900444 16.19921875 56.1953125 C13.49297505 57.09739373 11.96070889 57.31758849 9.18676758 57.30883789 C8.38616409 57.30876236 7.58556061 57.30868683 6.76069641 57.30860901 C5.9012291 57.30344772 5.04176178 57.29828644 4.15625 57.29296875 C3.27265305 57.2915538 2.38905609 57.29013885 1.47868347 57.28868103 C-1.34367253 57.28308319 -4.16594922 57.27053111 -6.98828125 57.2578125 C-8.90169156 57.25279722 -10.81510312 57.24823436 -12.72851562 57.24414062 C-17.41930139 57.23311447 -22.11002788 57.21585133 -26.80078125 57.1953125 C-26.65944626 55.42411447 -26.51254917 53.65335963 -26.36328125 51.8828125 C-26.28207031 50.89667969 -26.20085938 49.91054688 -26.1171875 48.89453125 C-25.80078125 46.1953125 -25.80078125 46.1953125 -24.80078125 43.1953125 C-14.24078125 42.8653125 -3.68078125 42.5353125 7.19921875 42.1953125 C7.52921875 39.8853125 7.85921875 37.5753125 8.19921875 35.1953125 C6.90886719 35.15792969 5.61851562 35.12054688 4.2890625 35.08203125 C2.57158726 35.01633548 0.8541406 34.9498894 -0.86328125 34.8828125 C-1.71083984 34.86025391 -2.55839844 34.83769531 -3.43164062 34.81445312 C-9.73654636 34.54667721 -14.48071569 33.57356354 -19.71484375 29.82421875 C-22.52708682 25.60585414 -21.17955895 19.14135155 -20.26171875 14.42578125 C-18.94721188 9.60833025 -17.51767196 5.69356258 -13.80078125 2.1953125 C-9.26188974 -0.22975695 -5.00862734 -0.0641943 0 0 Z " fill="#FAFAFA" transform="translate(589.80078125,286.8046875)"/>
<path d="M0 0 C5.94 0 11.88 0 18 0 C16.125 11.5 16.125 11.5 15 16 C19.95 16 24.9 16 30 16 C29.125 26.875 29.125 26.875 28 28 C25.47403741 28.23653523 22.96892793 28.42173692 20.4375 28.5625 C19.37112305 28.62727539 19.37112305 28.62727539 18.28320312 28.69335938 C16.52238088 28.79971777 14.7612168 28.90038846 13 29 C12.16214152 33.26995856 11.33048723 37.54110216 10.5 41.8125 C10.14228516 43.63491211 10.14228516 43.63491211 9.77734375 45.49414062 C9.55175781 46.65751953 9.32617188 47.82089844 9.09375 49.01953125 C8.88427734 50.09307861 8.67480469 51.16662598 8.45898438 52.27270508 C7.91702044 55.03212512 7.91702044 55.03212512 8 58 C12.95 58.33 17.9 58.66 23 59 C22.50529188 63.7350634 21.95460923 68.33566379 21 73 C16.95857785 73.11662261 12.91759135 73.1873935 8.875 73.25 C7.73289062 73.28351563 6.59078125 73.31703125 5.4140625 73.3515625 C-1.03312894 73.42652984 -5.12766089 73.41713788 -10 69 C-11.75739551 67.24260449 -11.29852694 64.965519 -11.375 62.5625 C-11.35066223 50.86820081 -8.41536034 39.39073659 -6 28 C-8.64 28 -11.28 28 -14 28 C-13.85831863 26.56208484 -13.71148957 25.1246763 -13.5625 23.6875 C-13.48128906 22.88699219 -13.40007812 22.08648437 -13.31640625 21.26171875 C-13 19 -13 19 -12 16 C-9.03 16 -6.06 16 -3 16 C-2.95101563 15.34773438 -2.90203125 14.69546875 -2.8515625 14.0234375 C-2.77679688 13.14945312 -2.70203125 12.27546875 -2.625 11.375 C-2.55539062 10.51648438 -2.48578125 9.65796875 -2.4140625 8.7734375 C-2 6 -2 6 0 0 Z " fill="#FBFBFB" transform="translate(477,271)"/>
<path d="M0 0 C1.80791016 0.00966797 1.80791016 0.00966797 3.65234375 0.01953125 C5.53373047 0.04466797 5.53373047 0.04466797 7.453125 0.0703125 C8.72285156 0.07933594 9.99257813 0.08835937 11.30078125 0.09765625 C14.43497629 0.12122163 17.56907441 0.15709237 20.703125 0.1953125 C20.043125 4.8153125 19.383125 9.4353125 18.703125 14.1953125 C10.288125 14.6903125 10.288125 14.6903125 1.703125 15.1953125 C-0.936875 29.0553125 -3.576875 42.9153125 -6.296875 57.1953125 C-12.236875 57.1953125 -18.176875 57.1953125 -24.296875 57.1953125 C-24.296875 51.54583627 -24.13603963 47.35869375 -23.08984375 41.984375 C-22.9637825 41.33133392 -22.83772125 40.67829285 -22.70783997 40.00546265 C-22.44155049 38.63510019 -22.17162812 37.265439 -21.89819336 35.89648438 C-21.4870569 33.83376787 -21.08933754 31.76879879 -20.69335938 29.703125 C-16.52737996 8.27385392 -16.52737996 8.27385392 -10.296875 2.1953125 C-6.86951141 -0.02423225 -4.03296666 -0.03804686 0 0 Z " fill="#FAFAFA" transform="translate(765.296875,286.8046875)"/>
<path d="M0 0 C1.47668858 0.0133035 2.95331108 0.03716415 4.4296875 0.0703125 C5.18378906 0.07933594 5.93789063 0.08835937 6.71484375 0.09765625 C8.57826004 0.1212438 10.44151343 0.15711531 12.3046875 0.1953125 C11.73561264 7.15805578 10.71049545 13.91723251 9.3046875 20.7578125 C9.12679687 21.65822266 8.94890625 22.55863281 8.765625 23.48632812 C7.43499438 30.06500562 7.43499438 30.06500562 6.3046875 31.1953125 C3.44201183 31.26856418 0.6039685 31.28769455 -2.2578125 31.2578125 C-3.06412109 31.25330078 -3.87042969 31.24878906 -4.70117188 31.24414062 C-6.69925006 31.23231768 -8.69729033 31.21438164 -10.6953125 31.1953125 C-10.04875068 24.62971049 -9.04766962 18.22627814 -7.7578125 11.7578125 C-7.50354492 10.41299805 -7.50354492 10.41299805 -7.24414062 9.04101562 C-7.07462891 8.18572266 -6.90511719 7.33042969 -6.73046875 6.44921875 C-6.579729 5.67908447 -6.42898926 4.9089502 -6.27368164 4.11547852 C-5.1343154 0.33282108 -3.8666814 0.20437005 0 0 Z " fill="#060606" transform="translate(809.6953125,298.8046875)"/>
<path d="M0 0 C5.94 0 11.88 0 18 0 C16.59141464 10.21224389 14.44245708 19.98592599 12 30 C6.39 30 0.78 30 -5 30 C-4.40631941 19.75900974 -2.22469918 9.98527772 0 0 Z " fill="#080808" transform="translate(705,300)"/>
<path d="M0 0 C1.39456452 0.00667256 2.78911118 0.01863093 4.18359375 0.03515625 C4.89451172 0.03966797 5.60542969 0.04417969 6.33789062 0.04882812 C8.09899388 0.06064761 9.86005411 0.07858362 11.62109375 0.09765625 C11.0024996 3.78626024 10.37506589 7.47330889 9.74609375 11.16015625 C9.48505859 12.71766602 9.48505859 12.71766602 9.21875 14.30664062 C8.29642801 19.68685224 7.2611975 24.88921866 5.62109375 30.09765625 C1.00109375 30.09765625 -3.61890625 30.09765625 -8.37890625 30.09765625 C-9.40072321 26.01038843 -9.2395687 24.29597305 -8.41796875 20.2734375 C-8.19367188 19.16291016 -7.969375 18.05238281 -7.73828125 16.90820312 C-7.4959375 15.75384766 -7.25359375 14.59949219 -7.00390625 13.41015625 C-6.76929688 12.24419922 -6.5346875 11.07824219 -6.29296875 9.87695312 C-4.2935468 0.12409095 -4.2935468 0.12409095 0 0 Z " fill="#070707" transform="translate(371.37890625,299.90234375)"/>
<path d="M0 0 C1.39456452 0.00667256 2.78911118 0.01863093 4.18359375 0.03515625 C4.89451172 0.03966797 5.60542969 0.04417969 6.33789062 0.04882812 C8.09899388 0.06064761 9.86005411 0.07858362 11.62109375 0.09765625 C10.93243321 4.21026871 10.23856633 8.32195769 9.53979492 12.43286133 C9.30267219 13.83235674 9.06699065 15.23209711 8.83276367 16.63208008 C8.4964374 18.64079409 8.15498979 20.64857893 7.8125 22.65625 C7.50614624 24.47080688 7.50614624 24.47080688 7.19360352 26.32202148 C6.62109375 29.09765625 6.62109375 29.09765625 5.62109375 30.09765625 C3.2679582 30.17037366 0.91275707 30.18136493 -1.44140625 30.16015625 C-2.73175781 30.15113281 -4.02210938 30.14210938 -5.3515625 30.1328125 C-6.35058594 30.12121094 -7.34960938 30.10960937 -8.37890625 30.09765625 C-9.59976543 26.53140632 -9.16514728 23.93160738 -8.41796875 20.2734375 C-8.19367187 19.16291016 -7.969375 18.05238281 -7.73828125 16.90820312 C-7.4959375 15.75384766 -7.25359375 14.59949219 -7.00390625 13.41015625 C-6.76929688 12.24419922 -6.5346875 11.07824219 -6.29296875 9.87695312 C-4.2935468 0.12409095 -4.2935468 0.12409095 0 0 Z " fill="#060606" transform="translate(534.37890625,299.90234375)"/>
<path d="M0 0 C0.74886475 0.00523682 1.49772949 0.01047363 2.26928711 0.01586914 C3.07817383 0.0190918 3.88706055 0.02231445 4.72045898 0.02563477 C5.5705957 0.03401367 6.42073242 0.04239258 7.29663086 0.05102539 C8.15063477 0.05553711 9.00463867 0.06004883 9.88452148 0.06469727 C12.00108749 0.07652166 14.11761771 0.0944577 16.23413086 0.11352539 C16.23413086 0.44352539 16.23413086 0.77352539 16.23413086 1.11352539 C14.53643555 1.15219727 14.53643555 1.15219727 12.80444336 1.19165039 C11.32263342 1.24792165 9.84086409 1.30526921 8.35913086 1.36352539 C7.61276367 1.37770508 6.86639648 1.39188477 6.09741211 1.40649414 C3.66274705 1.4733888 3.66274705 1.4733888 0.23413086 2.11352539 C-1.36924314 4.01981321 -1.36924314 4.01981321 -1.76586914 6.11352539 C-2.09586914 6.11352539 -2.42586914 6.11352539 -2.76586914 6.11352539 C-2.80859014 4.44740634 -2.80650746 2.77969654 -2.76586914 1.11352539 C-1.76586914 0.11352539 -1.76586914 0.11352539 0 0 Z " fill="#E1E1E1" transform="translate(478.765869140625,270.886474609375)"/>
</svg>
