<?xml version="1.0" encoding="UTF-8"?>
<!DOCTYPE svg PUBLIC "-//W3C//DTD SVG 1.1//EN" "http://www.w3.org/Graphics/SVG/1.1/DTD/svg11.dtd">
<svg xmlns="http://www.w3.org/2000/svg" version="1.1" width="497px" height="101px" style="shape-rendering:geometricPrecision; text-rendering:geometricPrecision; image-rendering:optimizeQuality; fill-rule:evenodd; clip-rule:evenodd" xmlns:xlink="http://www.w3.org/1999/xlink">
<g><path style="opacity:1" fill="#fdfdfd" d="M -0.5,-0.5 C 165.167,-0.5 330.833,-0.5 496.5,-0.5C 496.5,33.1667 496.5,66.8333 496.5,100.5C 330.833,100.5 165.167,100.5 -0.5,100.5C -0.5,66.8333 -0.5,33.1667 -0.5,-0.5 Z"/></g>
<g><path style="opacity:1" fill="#4ca950" d="M 90.5,64.5 C 67.5607,70.933 44.5607,71.0997 21.5,65C 19.5335,53.419 18.8669,41.5857 19.5,29.5C 32.6378,18.9647 47.6378,15.1314 64.5,18C 73.7287,19.4623 82.062,22.9623 89.5,28.5C 90.499,40.4815 90.8323,52.4815 90.5,64.5 Z"/></g>
<g><path style="opacity:1" fill="#7b7b7b" d="M 202.5,19.5 C 208.979,18.5093 215.646,18.176 222.5,18.5C 222.5,20.5 222.5,22.5 222.5,24.5C 220.167,24.5 217.833,24.5 215.5,24.5C 217.265,23.5386 219.265,23.2053 221.5,23.5C 221.5,22.1667 221.5,20.8333 221.5,19.5C 215.167,19.5 208.833,19.5 202.5,19.5 Z"/></g>
<g><path style="opacity:1" fill="#444444" d="M 254.5,18.5 C 259.05,17.8843 263.05,19.051 266.5,22C 265.315,23.353 263.981,24.5197 262.5,25.5C 259.763,22.6971 257.429,22.8638 255.5,26C 255.645,26.772 255.978,27.4387 256.5,28C 259.417,29.5275 262.417,30.8608 265.5,32C 269.646,36.6253 269.313,40.9586 264.5,45C 257.805,48.0572 252.472,46.5572 248.5,40.5C 249.914,39.376 251.414,38.376 253,37.5C 255.96,40.9711 259.126,41.3044 262.5,38.5C 258.206,35.7732 254.039,32.7732 250,29.5C 248.776,24.626 250.276,20.9593 254.5,18.5 Z"/></g>
<g><path style="opacity:1" fill="#7d7d7d" d="M 307.5,19.5 C 312.975,18.5111 318.642,18.1778 324.5,18.5C 324.784,20.4147 324.451,22.0813 323.5,23.5C 323.5,22.1667 323.5,20.8333 323.5,19.5C 318.167,19.5 312.833,19.5 307.5,19.5 Z"/></g>
<g><path style="opacity:1" fill="#7c7c7c" d="M 407.5,19.5 C 401.167,19.5 394.833,19.5 388.5,19.5C 388.5,20.8333 388.5,22.1667 388.5,23.5C 390.735,23.2053 392.735,23.5386 394.5,24.5C 392.167,24.5 389.833,24.5 387.5,24.5C 387.5,22.5 387.5,20.5 387.5,18.5C 394.354,18.176 401.021,18.5093 407.5,19.5 Z"/></g>
<g><path style="opacity:1" fill="#c9c9c9" d="M 199.5,18.5 C 200.494,27.6517 200.827,36.985 200.5,46.5C 197.941,46.8016 195.607,46.4682 193.5,45.5C 195.5,45.5 197.5,45.5 199.5,45.5C 199.5,36.8333 199.5,28.1667 199.5,19.5C 199.5,19.1667 199.5,18.8333 199.5,18.5 Z"/></g>
<g><path style="opacity:1" fill="#434343" d="M 335.5,18.5 C 351.258,18.4026 356.758,25.736 352,40.5C 346.442,46.9238 339.942,48.0905 332.5,44C 323.738,34.3592 324.738,25.8592 335.5,18.5 Z"/></g>
<g><path style="opacity:1" fill="#434343" d="M 367.5,18.5 C 384.188,18.6596 389.354,26.3263 383,41.5C 376.608,47.3739 369.775,47.8739 362.5,43C 357.804,36.8691 357.304,30.3691 361,23.5C 363.326,21.9343 365.492,20.2676 367.5,18.5 Z"/></g>
<g><path style="opacity:1" fill="#c5c5c5" d="M 410.5,18.5 C 410.5,27.5 410.5,36.5 410.5,45.5C 415.5,45.5 420.5,45.5 425.5,45.5C 420.36,46.4881 415.026,46.8214 409.5,46.5C 409.173,36.985 409.506,27.6517 410.5,18.5 Z"/></g>
<g><path style="opacity:1" fill="#7b7b7b" d="M 134.5,24.5 C 137.625,23.5206 140.958,23.1872 144.5,23.5C 144.5,22.1667 144.5,20.8333 144.5,19.5C 139.5,19.5 134.5,19.5 129.5,19.5C 129.5,28.1667 129.5,36.8333 129.5,45.5C 131.167,45.5 132.833,45.5 134.5,45.5C 132.735,46.4614 130.735,46.7947 128.5,46.5C 128.5,37.1667 128.5,27.8333 128.5,18.5C 134.167,18.5 139.833,18.5 145.5,18.5C 145.5,20.5 145.5,22.5 145.5,24.5C 141.833,24.5 138.167,24.5 134.5,24.5 Z"/></g>
<g><path style="opacity:1" fill="#414141" d="M 134.5,24.5 C 134.5,26.1667 134.5,27.8333 134.5,29.5C 137.5,29.5 140.5,29.5 143.5,29.5C 143.5,31.1667 143.5,32.8333 143.5,34.5C 140.5,34.5 137.5,34.5 134.5,34.5C 134.5,38.1667 134.5,41.8333 134.5,45.5C 132.833,45.5 131.167,45.5 129.5,45.5C 129.5,36.8333 129.5,28.1667 129.5,19.5C 134.5,19.5 139.5,19.5 144.5,19.5C 144.5,20.8333 144.5,22.1667 144.5,23.5C 140.958,23.1872 137.625,23.5206 134.5,24.5 Z"/></g>
<g><path style="opacity:1" fill="#424242" d="M 155.5,18.5 C 157.833,18.5 160.167,18.5 162.5,18.5C 165.094,27.2814 168.094,35.9481 171.5,44.5C 167.3,46.5397 164.633,45.373 163.5,41C 160.167,40.3333 156.833,40.3333 153.5,41C 152.43,45.2057 149.763,46.539 145.5,45C 148.935,36.1937 152.268,27.3604 155.5,18.5 Z"/></g>
<g><path style="opacity:1" fill="#414141" d="M 192.5,35.5 C 192.56,36.0431 192.893,36.3764 193.5,36.5C 194.495,30.8722 194.829,25.2055 194.5,19.5C 196.167,19.5 197.833,19.5 199.5,19.5C 199.5,28.1667 199.5,36.8333 199.5,45.5C 197.5,45.5 195.5,45.5 193.5,45.5C 189.147,40.4734 185.147,35.14 181.5,29.5C 181.44,28.9569 181.107,28.6236 180.5,28.5C 179.505,34.1278 179.171,39.7945 179.5,45.5C 177.833,45.5 176.167,45.5 174.5,45.5C 174.5,36.5 174.5,27.5 174.5,18.5C 176.527,18.3379 178.527,18.5045 180.5,19C 184.718,24.3782 188.718,29.8782 192.5,35.5 Z"/></g>
<g><path style="opacity:1" fill="#7e7e7e" d="M 199.5,18.5 C 199.5,18.8333 199.5,19.1667 199.5,19.5C 197.833,19.5 196.167,19.5 194.5,19.5C 194.829,25.2055 194.495,30.8722 193.5,36.5C 192.893,36.3764 192.56,36.0431 192.5,35.5C 193.489,30.0247 193.822,24.358 193.5,18.5C 195.5,18.5 197.5,18.5 199.5,18.5 Z"/></g>
<g><path style="opacity:1" fill="#424242" d="M 202.5,19.5 C 208.833,19.5 215.167,19.5 221.5,19.5C 221.5,20.8333 221.5,22.1667 221.5,23.5C 219.265,23.2053 217.265,23.5386 215.5,24.5C 215.5,31.5 215.5,38.5 215.5,45.5C 213.5,45.5 211.5,45.5 209.5,45.5C 209.5,38.1667 209.5,30.8333 209.5,23.5C 207.167,23.5 204.833,23.5 202.5,23.5C 202.5,22.1667 202.5,20.8333 202.5,19.5 Z"/></g>
<g><path style="opacity:1" fill="#434343" d="M 231.5,18.5 C 233.833,18.5 236.167,18.5 238.5,18.5C 241.094,27.2814 244.094,35.9481 247.5,44.5C 243.231,46.3124 240.898,44.9791 240.5,40.5C 236.774,40.1774 233.107,40.5108 229.5,41.5C 228.754,42.7362 228.421,44.0695 228.5,45.5C 226.5,45.5 224.5,45.5 222.5,45.5C 224.899,36.3027 227.899,27.3027 231.5,18.5 Z"/></g>
<g><path style="opacity:1" fill="#444444" d="M 268.5,19.5 C 270.628,18.3709 272.961,18.2042 275.5,19C 277.377,21.921 279.377,24.7544 281.5,27.5C 283.623,24.7544 285.623,21.921 287.5,19C 289.579,18.1923 291.579,18.359 293.5,19.5C 290.667,23.8333 287.833,28.1667 285,32.5C 284.501,36.8206 284.334,41.1539 284.5,45.5C 282.5,45.5 280.5,45.5 278.5,45.5C 278.666,41.1539 278.499,36.8206 278,32.5C 274.97,27.9845 271.803,23.6512 268.5,19.5 Z"/></g>
<g><path style="opacity:1" fill="#424242" d="M 307.5,19.5 C 312.833,19.5 318.167,19.5 323.5,19.5C 323.5,20.8333 323.5,22.1667 323.5,23.5C 320.167,23.5 316.833,23.5 313.5,23.5C 313.5,25.5 313.5,27.5 313.5,29.5C 316.5,29.5 319.5,29.5 322.5,29.5C 322.5,31.1667 322.5,32.8333 322.5,34.5C 319.5,34.5 316.5,34.5 313.5,34.5C 313.5,38.1667 313.5,41.8333 313.5,45.5C 311.5,45.5 309.5,45.5 307.5,45.5C 307.5,36.8333 307.5,28.1667 307.5,19.5 Z"/></g>
<g><path style="opacity:1" fill="#444444" d="M 407.5,19.5 C 407.5,20.8333 407.5,22.1667 407.5,23.5C 405.167,23.5 402.833,23.5 400.5,23.5C 400.5,30.8333 400.5,38.1667 400.5,45.5C 398.5,45.5 396.5,45.5 394.5,45.5C 394.5,38.5 394.5,31.5 394.5,24.5C 392.735,23.5386 390.735,23.2053 388.5,23.5C 388.5,22.1667 388.5,20.8333 388.5,19.5C 394.833,19.5 401.167,19.5 407.5,19.5 Z"/></g>
<g><path style="opacity:1" fill="#444444" d="M 410.5,18.5 C 415.179,18.3342 419.845,18.5008 424.5,19C 429.224,21.4353 430.724,25.2686 429,30.5C 427.366,31.9904 427.699,33.3237 430,34.5C 430.667,37.1667 430.667,39.8333 430,42.5C 428.871,44.1412 427.371,45.1412 425.5,45.5C 420.5,45.5 415.5,45.5 410.5,45.5C 410.5,36.5 410.5,27.5 410.5,18.5 Z"/></g>
<g><path style="opacity:1" fill="#424242" d="M 441.5,18.5 C 443.924,18.1924 446.257,18.5258 448.5,19.5C 451.906,28.0519 454.906,36.7186 457.5,45.5C 455.5,45.5 453.5,45.5 451.5,45.5C 451.579,44.0695 451.246,42.7362 450.5,41.5C 446.893,40.5108 443.226,40.1774 439.5,40.5C 439.102,44.9791 436.769,46.3124 432.5,44.5C 435.508,35.8099 438.508,27.1432 441.5,18.5 Z"/></g>
<g><path style="opacity:1" fill="#434343" d="M 460.5,18.5 C 462.5,18.5 464.5,18.5 466.5,18.5C 466.5,25.8333 466.5,33.1667 466.5,40.5C 469.5,40.5 472.5,40.5 475.5,40.5C 475.5,42.1667 475.5,43.8333 475.5,45.5C 470.5,45.5 465.5,45.5 460.5,45.5C 460.5,36.5 460.5,27.5 460.5,18.5 Z"/></g>
<g><path style="opacity:1" fill="#444444" d="M 478.5,18.5 C 480.5,18.5 482.5,18.5 484.5,18.5C 484.5,25.8333 484.5,33.1667 484.5,40.5C 487.5,40.5 490.5,40.5 493.5,40.5C 493.5,42.1667 493.5,43.8333 493.5,45.5C 488.5,45.5 483.5,45.5 478.5,45.5C 478.5,36.5 478.5,27.5 478.5,18.5 Z"/></g>
<g><path style="opacity:1" fill="#cdcdcd" d="M 202.5,23.5 C 204.833,23.5 207.167,23.5 209.5,23.5C 209.5,30.8333 209.5,38.1667 209.5,45.5C 211.5,45.5 213.5,45.5 215.5,45.5C 213.393,46.4682 211.059,46.8016 208.5,46.5C 208.5,39.1667 208.5,31.8333 208.5,24.5C 206.265,24.7947 204.265,24.4614 202.5,23.5 Z"/></g>
<g><path style="opacity:1" fill="#fafafa" d="M 336.5,24.5 C 345.158,23.327 348.992,26.9937 348,35.5C 345.459,40.0685 341.625,41.5685 336.5,40C 331.208,34.8349 331.208,29.6682 336.5,24.5 Z"/></g>
<g><path style="opacity:1" fill="#f8f8f8" d="M 368.5,24.5 C 375.304,23.2214 379.304,25.8881 380.5,32.5C 379.303,39.2732 375.303,41.7732 368.5,40C 361.951,34.7443 361.951,29.5776 368.5,24.5 Z"/></g>
<g><path style="opacity:1" fill="#e2e2e2" d="M 416.5,23.5 C 418.527,23.3379 420.527,23.5045 422.5,24C 425.167,26 425.167,28 422.5,30C 420.527,30.4955 418.527,30.6621 416.5,30.5C 416.5,28.1667 416.5,25.8333 416.5,23.5 Z"/></g>
<g><path style="opacity:1" fill="#c1c1c1" d="M 407.5,23.5 C 405.735,24.4614 403.735,24.7947 401.5,24.5C 401.5,31.8333 401.5,39.1667 401.5,46.5C 398.941,46.8016 396.607,46.4682 394.5,45.5C 396.5,45.5 398.5,45.5 400.5,45.5C 400.5,38.1667 400.5,30.8333 400.5,23.5C 402.833,23.5 405.167,23.5 407.5,23.5 Z"/></g>
<g><path style="opacity:1" fill="#e6e6e6" d="M 444.5,25.5 C 446.601,28.7966 447.935,32.4632 448.5,36.5C 446.076,36.8076 443.743,36.4742 441.5,35.5C 442.813,32.2455 443.813,28.9122 444.5,25.5 Z"/></g>
<g><path style="opacity:1" fill="#e2e2e2" d="M 157.5,25.5 C 158.497,25.4701 159.164,25.9701 159.5,27C 160.118,29.9745 161.118,32.8078 162.5,35.5C 160.257,36.4742 157.924,36.8076 155.5,36.5C 156.167,32.8333 156.833,29.1667 157.5,25.5 Z"/></g>
<g><path style="opacity:1" fill="#e2e2e2" d="M 234.5,25.5 C 236.002,28.6538 237.336,31.9872 238.5,35.5C 236.257,36.4742 233.924,36.8076 231.5,36.5C 231.894,32.6528 232.894,28.9861 234.5,25.5 Z"/></g>
<g><path style="opacity:1" fill="#a4a4a4" d="M 181.5,29.5 C 180.833,34.8333 180.167,40.1667 179.5,45.5C 179.171,39.7945 179.505,34.1278 180.5,28.5C 181.107,28.6236 181.44,28.9569 181.5,29.5 Z"/></g>
<g><path style="opacity:1" fill="#bedcbe" d="M 98.5,36.5 C 97.1667,45.8333 97.1667,55.1667 98.5,64.5C 98.44,65.0431 98.1067,65.3764 97.5,65.5C 96.1667,55.5 96.1667,45.5 97.5,35.5C 98.1067,35.6236 98.44,35.9569 98.5,36.5 Z"/></g>
<g><path style="opacity:1" fill="#f4f4f4" d="M 416.5,34.5 C 418.857,34.3367 421.19,34.5034 423.5,35C 424.406,36.6995 424.739,38.5328 424.5,40.5C 421.833,40.5 419.167,40.5 416.5,40.5C 416.5,38.5 416.5,36.5 416.5,34.5 Z"/></g>
<g><path style="opacity:1" fill="#4fa953" d="M 11.5,35.5 C 12.6583,45.3247 12.8249,55.3247 12,65.5C 7.81914,61.1374 4.65247,56.1374 2.5,50.5C 4.74126,45.0128 7.74126,40.0128 11.5,35.5 Z"/></g>
<g><path style="opacity:1" fill="#fbfdfc" d="M 40.5,38.5 C 42.5,38.5 44.5,38.5 46.5,38.5C 46.5,44.1667 46.5,49.8333 46.5,55.5C 44.5,55.5 42.5,55.5 40.5,55.5C 40.5,49.8333 40.5,44.1667 40.5,38.5 Z"/></g>
<g><path style="opacity:1" fill="#b5dbb6" d="M 63.5,38.5 C 63.5,43.8333 63.5,49.1667 63.5,54.5C 65.5,54.5 67.5,54.5 69.5,54.5C 67.3926,55.4682 65.0593,55.8016 62.5,55.5C 62.1778,49.642 62.5111,43.9753 63.5,38.5 Z"/></g>
<g><path style="opacity:1" fill="#fdfefd" d="M 63.5,38.5 C 65.5,38.5 67.5,38.5 69.5,38.5C 69.5,43.8333 69.5,49.1667 69.5,54.5C 67.5,54.5 65.5,54.5 63.5,54.5C 63.5,49.1667 63.5,43.8333 63.5,38.5 Z"/></g>
<g><path style="opacity:1" fill="#4ba74e" d="M 98.5,36.5 C 102.262,40.6116 105.262,45.2783 107.5,50.5C 104.988,55.5348 101.988,60.2014 98.5,64.5C 97.1667,55.1667 97.1667,45.8333 98.5,36.5 Z"/></g>
<g><path style="opacity:1" fill="#f3f9f3" d="M 28.5,44.5 C 30.8333,44.5 33.1667,44.5 35.5,44.5C 35.5,48.1667 35.5,51.8333 35.5,55.5C 33.1667,55.5 30.8333,55.5 28.5,55.5C 28.5,51.8333 28.5,48.1667 28.5,44.5 Z"/></g>
<g><path style="opacity:1" fill="#fcfdfc" d="M 57.5,44.5 C 57.5,47.8333 57.5,51.1667 57.5,54.5C 55.5,54.5 53.5,54.5 51.5,54.5C 51.5,51.1667 51.5,47.8333 51.5,44.5C 53.5,44.5 55.5,44.5 57.5,44.5 Z"/></g>
<g><path style="opacity:1" fill="#b5dbb7" d="M 57.5,44.5 C 58.4816,47.9619 58.815,51.6286 58.5,55.5C 55.9407,55.8016 53.6074,55.4682 51.5,54.5C 53.5,54.5 55.5,54.5 57.5,54.5C 57.5,51.1667 57.5,47.8333 57.5,44.5 Z"/></g>
<g><path style="opacity:1" fill="#f8fcf8" d="M 74.5,44.5 C 76.5,44.5 78.5,44.5 80.5,44.5C 80.5,48.1667 80.5,51.8333 80.5,55.5C 78.5,55.5 76.5,55.5 74.5,55.5C 74.5,51.8333 74.5,48.1667 74.5,44.5 Z"/></g>
<g><path style="opacity:1" fill="#424242" d="M 136.5,55.5 C 140.936,55.2101 145.27,55.7101 149.5,57C 154.571,59.8546 154.571,62.3546 149.5,64.5C 143.859,58.8622 138.692,59.1955 134,65.5C 132.962,73.4624 136.462,77.2957 144.5,77C 146.698,74.2332 149.365,73.3999 152.5,74.5C 153.583,75.365 153.749,76.365 153,77.5C 146.231,83.5266 139.064,84.0266 131.5,79C 124.912,69.2213 126.579,61.388 136.5,55.5 Z"/></g>
<g><path style="opacity:1" fill="#3f3f3f" d="M 354.5,55.5 C 359.179,55.3342 363.845,55.5008 368.5,56C 373.224,58.4353 374.724,62.2686 373,67.5C 371.649,69.019 370.149,70.3523 368.5,71.5C 370.957,74.914 373.291,78.414 375.5,82C 373.098,82.8141 370.765,82.6474 368.5,81.5C 366.667,78.5 364.833,75.5 363,72.5C 361.989,71.6634 360.822,71.33 359.5,71.5C 359.5,75.1667 359.5,78.8333 359.5,82.5C 357.833,82.5 356.167,82.5 354.5,82.5C 354.5,73.5 354.5,64.5 354.5,55.5 Z"/></g>
<g><path style="opacity:1" fill="#414141" d="M 164.5,55.5 C 167.119,55.2317 169.619,55.565 172,56.5C 174.975,65.094 178.142,73.594 181.5,82C 179.19,82.4966 176.857,82.6633 174.5,82.5C 174.744,78.0512 172.578,76.3846 168,77.5C 163.847,76.9211 161.68,78.5878 161.5,82.5C 159.5,82.5 157.5,82.5 155.5,82.5C 158.298,73.4379 161.298,64.4379 164.5,55.5 Z"/></g>
<g><path style="opacity:1" fill="#3e3e3e" d="M 183.5,55.5 C 185.5,55.5 187.5,55.5 189.5,55.5C 189.5,62.8333 189.5,70.1667 189.5,77.5C 192.5,77.5 195.5,77.5 198.5,77.5C 198.5,79.1667 198.5,80.8333 198.5,82.5C 193.5,82.5 188.5,82.5 183.5,82.5C 183.5,73.5 183.5,64.5 183.5,55.5 Z"/></g>
<g><path style="opacity:1" fill="#424242" d="M 209.5,55.5 C 213.936,55.2101 218.27,55.7101 222.5,57C 227.571,59.8546 227.571,62.3546 222.5,64.5C 216.859,58.8622 211.692,59.1955 207,65.5C 205.962,73.4624 209.462,77.2957 217.5,77C 219.344,75.8179 221.177,74.6512 223,73.5C 225.544,73.8214 226.544,75.1547 226,77.5C 219.656,83.2844 212.823,83.9511 205.5,79.5C 197.828,69.8539 199.161,61.8539 209.5,55.5 Z"/></g>
<g><path style="opacity:1" fill="#474747" d="M 231.5,55.5 C 233.5,55.5 235.5,55.5 237.5,55.5C 237.334,62.175 237.5,68.8417 238,75.5C 241,78.1667 244,78.1667 247,75.5C 247.5,68.8417 247.666,62.175 247.5,55.5C 249.5,55.5 251.5,55.5 253.5,55.5C 253.666,62.8409 253.5,70.1742 253,77.5C 248.86,82.2114 243.694,83.7114 237.5,82C 235.376,80.8783 233.543,79.3783 232,77.5C 231.5,70.1742 231.334,62.8409 231.5,55.5 Z"/></g>
<g><path style="opacity:1" fill="#414141" d="M 259.5,55.5 C 261.5,55.5 263.5,55.5 265.5,55.5C 265.5,62.8333 265.5,70.1667 265.5,77.5C 269.03,76.9889 272.196,77.6556 275,79.5C 277.833,71.8333 280.667,64.1667 283.5,56.5C 285.765,55.3526 288.098,55.1859 290.5,56C 293.833,64.6667 297.167,73.3333 300.5,82C 298.19,82.4966 295.857,82.6633 293.5,82.5C 293.714,80.8561 293.38,79.3561 292.5,78C 288.848,77.5014 285.182,77.3347 281.5,77.5C 281.579,78.9305 281.246,80.2638 280.5,81.5C 273.532,82.497 266.532,82.8303 259.5,82.5C 259.5,73.5 259.5,64.5 259.5,55.5 Z"/></g>
<g><path style="opacity:1" fill="#444444" d="M 299.5,55.5 C 306.167,55.5 312.833,55.5 319.5,55.5C 319.5,57.1667 319.5,58.8333 319.5,60.5C 317.167,60.5 314.833,60.5 312.5,60.5C 312.5,67.8333 312.5,75.1667 312.5,82.5C 310.5,82.5 308.5,82.5 306.5,82.5C 306.5,75.1667 306.5,67.8333 306.5,60.5C 304.167,60.5 301.833,60.5 299.5,60.5C 299.5,58.8333 299.5,57.1667 299.5,55.5 Z"/></g>
<g><path style="opacity:1" fill="#424242" d="M 330.5,55.5 C 345.012,54.1705 350.845,60.5038 348,74.5C 344.345,81.7376 338.512,84.2376 330.5,82C 321.238,77.0781 319.071,69.9114 324,60.5C 325.965,58.4497 328.132,56.783 330.5,55.5 Z"/></g>
<g><path style="opacity:1" fill="#e8e8e8" d="M 359.5,60.5 C 361.857,60.3367 364.19,60.5034 366.5,61C 369.167,63 369.167,65 366.5,67C 364.19,67.4966 361.857,67.6633 359.5,67.5C 359.5,65.1667 359.5,62.8333 359.5,60.5 Z"/></g>
<g><path style="opacity:1" fill="#f7f7f7" d="M 332.5,60.5 C 341.207,60.0367 344.707,64.0367 343,72.5C 337.818,79.0898 332.818,79.0898 328,72.5C 326.309,67.1311 327.809,63.1311 332.5,60.5 Z"/></g>
<g><path style="opacity:1" fill="#efefef" d="M 167.5,62.5 C 169.785,65.335 171.118,68.6684 171.5,72.5C 169.076,72.8076 166.743,72.4742 164.5,71.5C 165.705,68.5504 166.705,65.5504 167.5,62.5 Z"/></g>
<g><path style="opacity:1" fill="#eeeeee" d="M 286.5,62.5 C 288.785,65.335 290.118,68.6684 290.5,72.5C 288.076,72.8076 285.743,72.4742 283.5,71.5C 284.705,68.5504 285.705,65.5504 286.5,62.5 Z"/></g>
<g><path style="opacity:1" fill="#589451" d="M 19.5,29.5 C 18.8669,41.5857 19.5335,53.419 21.5,65C 44.5607,71.0997 67.5607,70.933 90.5,64.5C 91.1856,68.287 90.1856,71.4537 87.5,74C 64.0469,87.4029 41.2136,86.5696 19,71.5C 18.1727,57.3272 18.3393,43.3272 19.5,29.5 Z"/></g>
</svg>
