<?xml version="1.0" encoding="UTF-8"?>
<!DOCTYPE svg PUBLIC "-//W3C//DTD SVG 1.1//EN" "http://www.w3.org/Graphics/SVG/1.1/DTD/svg11.dtd">
<svg xmlns="http://www.w3.org/2000/svg" version="1.1" width="235px" height="129px" style="shape-rendering:geometricPrecision; text-rendering:geometricPrecision; image-rendering:optimizeQuality; fill-rule:evenodd; clip-rule:evenodd" xmlns:xlink="http://www.w3.org/1999/xlink">
<g><path style="opacity:1" fill="#f7f7f8" d="M 161.5,-0.5 C 185.833,-0.5 210.167,-0.5 234.5,-0.5C 234.5,-0.166667 234.5,0.166667 234.5,0.5C 231.091,0.24933 227.758,0.582663 224.5,1.5C 221.311,17.5217 218.311,17.3551 215.5,1C 212.183,0.501655 208.85,0.334989 205.5,0.5C 208.028,9.58415 210.861,18.5841 214,27.5C 214.169,33.8594 214.669,40.1928 215.5,46.5C 218.548,47.3456 221.548,48.3456 224.5,49.5C 225.331,42.1892 225.831,34.8559 226,27.5C 228.388,19.5721 231.222,11.9054 234.5,4.5C 234.5,40.8333 234.5,77.1667 234.5,113.5C 233.5,113.5 232.5,113.5 231.5,113.5C 232.197,108.391 231.197,103.724 228.5,99.5C 223.45,94.6125 218.284,89.9458 213,85.5C 212.252,83.1599 212.752,81.1599 214.5,79.5C 218.544,79.8511 220.878,82.0177 221.5,86C 224.367,86.8007 227.034,86.6341 229.5,85.5C 230.649,85.2089 231.316,84.3756 231.5,83C 229.208,73.5162 223.208,69.5162 213.5,71C 210.568,72.1449 207.568,72.9782 204.5,73.5C 202.5,73.5 200.5,73.5 198.5,73.5C 204.733,72.1312 210.733,69.9646 216.5,67C 214.093,65.7328 211.76,65.2328 209.5,65.5C 218.78,66.6288 226.78,63.9622 233.5,57.5C 230.497,54.3272 226.83,52.1606 222.5,51C 217.598,49.3575 212.598,48.1909 207.5,47.5C 206.432,46.5655 205.099,46.2322 203.5,46.5C 203.5,45.8333 203.167,45.5 202.5,45.5C 201.737,44.7321 200.737,44.2321 199.5,44C 201.119,43.7645 202.119,42.9311 202.5,41.5C 202.665,37.8183 202.499,34.1516 202,30.5C 195.065,23.3339 188.232,16.1672 181.5,9C 183.656,9.69007 185.823,9.5234 188,8.5C 189.459,8.80822 190.626,9.47489 191.5,10.5C 191.33,11.8221 191.663,12.9887 192.5,14C 195.482,14.498 198.482,14.6646 201.5,14.5C 202.259,9.68656 200.925,5.68656 197.5,2.5C 192.017,0.55196 186.35,0.0519597 180.5,1C 178,2.16667 176.167,4 175,6.5C 173.676,12.343 174.676,17.6763 178,22.5C 181.953,24.7163 185.119,27.7163 187.5,31.5C 186.923,33.6516 185.756,33.985 184,32.5C 183.536,33.0944 183.369,33.7611 183.5,34.5C 181.059,33.2437 178.726,33.2437 176.5,34.5C 174.914,34.3068 173.247,33.9734 171.5,33.5C 169.889,30.7802 169.056,27.7802 169,24.5C 168.617,23.944 168.117,23.6107 167.5,23.5C 166.016,15.2543 164.016,7.25427 161.5,-0.5 Z"/></g>
<g><path style="opacity:1" fill="#3b3a88" d="M 197.5,2.5 C 200.925,5.68656 202.259,9.68656 201.5,14.5C 198.482,14.6646 195.482,14.498 192.5,14C 191.663,12.9887 191.33,11.8221 191.5,10.5C 193.845,13.075 196.845,14.075 200.5,13.5C 200.719,12.325 200.386,11.325 199.5,10.5C 198.264,11.2458 196.93,11.5792 195.5,11.5C 196.406,8.56415 197.072,5.56415 197.5,2.5 Z"/></g>
<g><path style="opacity:1" fill="#2f3094" d="M 149.5,3.5 C 149.5,3.16667 149.5,2.83333 149.5,2.5C 152.672,1.87406 155.839,1.20739 159,0.5C 161.942,2.32799 163.109,4.99465 162.5,8.5C 158.256,9.64288 153.923,10.3096 149.5,10.5C 149.5,8.16667 149.5,5.83333 149.5,3.5 Z"/></g>
<g><path style="opacity:1" fill="#2e2e96" d="M 81.5,1.5 C 84.5719,1.18259 87.5719,1.51592 90.5,2.5C 88.0339,3.12349 85.7006,3.95682 83.5,5C 84.4061,6.69946 84.7394,8.5328 84.5,10.5C 85.5,10.5 86.5,10.5 87.5,10.5C 87.2148,8.71199 87.5481,7.04533 88.5,5.5C 90.0709,6.30937 91.7376,6.64271 93.5,6.5C 93.6584,10.2121 93.6584,13.7121 93.5,17C 92.5165,17.5908 91.8499,17.2575 91.5,16C 92.5472,14.4223 92.5472,12.9223 91.5,11.5C 89.5914,12.3482 87.5914,12.6816 85.5,12.5C 85.3367,14.8568 85.5034,17.1902 86,19.5C 87.1855,17.4407 88.3521,17.274 89.5,19C 88.5423,22.3118 86.5423,23.1452 83.5,21.5C 82.8332,15.3465 82.1666,9.34647 81.5,3.5C 81.5,2.83333 81.5,2.16667 81.5,1.5 Z"/></g>
<g><path style="opacity:1" fill="#f6f4f5" d="M 81.5,0.5 C 81.5,0.166667 81.5,-0.166667 81.5,-0.5C 106.833,-0.5 132.167,-0.5 157.5,-0.5C 154.523,-0.0984307 151.857,0.901569 149.5,2.5C 149.5,2.83333 149.5,3.16667 149.5,3.5C 147.805,8.78187 146.472,14.2819 145.5,20C 147.556,23.7377 150.056,27.2377 153,30.5C 153.617,29.5509 153.451,28.7175 152.5,28C 153.886,24.8777 155.22,21.711 156.5,18.5C 158.001,21.4527 158.668,24.6194 158.5,28C 158.47,30.4241 158.137,32.7574 157.5,35C 158.328,35.9147 159.328,36.5814 160.5,37C 163.53,37.2882 166.364,37.4549 169,37.5C 168.836,32.8358 168.336,28.1692 167.5,23.5C 168.117,23.6107 168.617,23.944 169,24.5C 169.056,27.7802 169.889,30.7802 171.5,33.5C 173.247,33.9734 174.914,34.3068 176.5,34.5C 173.581,38.4527 174.748,40.1194 180,39.5C 181.5,39.1667 183,38.8333 184.5,38.5C 183.754,37.2638 183.421,35.9305 183.5,34.5C 183.369,33.7611 183.536,33.0944 184,32.5C 185.756,33.985 186.923,33.6516 187.5,31.5C 189.017,31.5106 190.184,32.1772 191,33.5C 191.43,36.1922 191.263,38.8589 190.5,41.5C 194.559,42.5643 198.559,42.5643 202.5,41.5C 202.119,42.9311 201.119,43.7645 199.5,44C 200.737,44.2321 201.737,44.7321 202.5,45.5C 200.139,45.3259 197.806,44.9926 195.5,44.5C 195.55,46.5901 194.55,47.9234 192.5,48.5C 191.702,48.0431 191.369,47.3764 191.5,46.5C 192.791,45.4583 192.791,44.2917 191.5,43C 185.985,42.2598 180.485,41.4264 175,40.5C 173.158,42.1605 170.991,43.1605 168.5,43.5C 168.5,42.5 168.5,41.5 168.5,40.5C 165.411,39.2154 162.078,38.5488 158.5,38.5C 157.078,37.075 155.411,36.075 153.5,35.5C 147.997,26.4974 140.664,19.3308 131.5,14C 130.207,13.51 128.873,13.3433 127.5,13.5C 127.637,18.4102 128.304,23.2435 129.5,28C 129.475,33.8894 126.808,38.056 121.5,40.5C 122.5,41.1667 123.5,41.8333 124.5,42.5C 123.066,43.2298 121.9,44.2298 121,45.5C 119.274,44.4238 117.441,44.2571 115.5,45C 114.026,46.3161 112.359,47.3161 110.5,48C 111.517,49.0495 111.684,50.2161 111,51.5C 110.29,50.0267 109.124,49.3601 107.5,49.5C 107.5,50.5 107.5,51.5 107.5,52.5C 104.167,52.5 100.833,52.5 97.5,52.5C 97.9189,56.858 99.2523,60.858 101.5,64.5C 99.8997,63.748 98.3997,62.748 97,61.5C 95.85,57.8883 95.0166,54.2217 94.5,50.5C 89.7165,52.2141 85.3831,51.5474 81.5,48.5C 82.8333,48.5 84.1667,48.5 85.5,48.5C 87.1667,48.5 88.8333,48.5 90.5,48.5C 90.2229,45.5525 90.5562,42.7191 91.5,40C 90.5838,39.6258 89.7504,39.1258 89,38.5C 89,39.8333 89,41.1667 89,42.5C 87.295,40.4234 86.1283,38.09 85.5,35.5C 86.5307,36.355 87.6974,37.0217 89,37.5C 90.0299,37.1639 90.5299,36.4972 90.5,35.5C 91.1667,33.5 91.8333,31.5 92.5,29.5C 95.5983,29.4125 95.9316,29.9125 93.5,31C 93.7284,31.3988 94.0618,31.5654 94.5,31.5C 95.8164,36.4554 96.8164,41.4554 97.5,46.5C 99.9201,46.7076 102.253,46.3742 104.5,45.5C 105.429,44.3112 105.762,42.9778 105.5,41.5C 104.041,41.5674 102.708,41.2341 101.5,40.5C 102.167,39.5 102.833,38.5 103.5,37.5C 105.305,38.2371 106.971,39.2371 108.5,40.5C 109.499,27.1833 109.833,13.85 109.5,0.5C 106.287,0.189998 103.287,0.523331 100.5,1.5C 100.144,7.07704 99.1437,12.4104 97.5,17.5C 95.6715,16.2257 95.3381,14.7257 96.5,13C 95.4058,8.70552 93.7391,4.70552 91.5,1C 88.1832,0.501655 84.8499,0.334989 81.5,0.5 Z"/></g>
<g><path style="opacity:1" fill="#555797" d="M 114.5,9.5 C 117.5,9.5 120.5,9.5 123.5,9.5C 123.5,10.5 123.5,11.5 123.5,12.5C 124.5,12.5 125.5,12.5 126.5,12.5C 125.833,13.5 125.167,14.5 124.5,15.5C 123.167,22.1667 123.167,28.8333 124.5,35.5C 124.44,36.0431 124.107,36.3764 123.5,36.5C 122.668,28.1866 122.168,19.8532 122,11.5C 119.393,10.8767 116.893,10.21 114.5,9.5 Z"/></g>
<g><path style="opacity:1" fill="#333290" d="M 126.5,12.5 C 125.5,12.5 124.5,12.5 123.5,12.5C 123.5,11.5 123.5,10.5 123.5,9.5C 120.5,9.5 117.5,9.5 114.5,9.5C 113.523,6.7131 113.19,3.7131 113.5,0.5C 123.167,0.5 132.833,0.5 142.5,0.5C 142.784,3.77659 142.451,6.94325 141.5,10C 138.458,10.1785 135.625,11.0118 133,12.5C 130.784,11.227 128.617,11.227 126.5,12.5 Z"/></g>
<g><path style="opacity:1" fill="#323390" d="M 234.5,0.5 C 234.5,1.83333 234.5,3.16667 234.5,4.5C 231.222,11.9054 228.388,19.5721 226,27.5C 225.831,34.8559 225.331,42.1892 224.5,49.5C 221.548,48.3456 218.548,47.3456 215.5,46.5C 214.669,40.1928 214.169,33.8594 214,27.5C 210.861,18.5841 208.028,9.58415 205.5,0.5C 208.85,0.334989 212.183,0.501655 215.5,1C 218.311,17.3551 221.311,17.5217 224.5,1.5C 227.758,0.582663 231.091,0.24933 234.5,0.5 Z"/></g>
<g><path style="opacity:1" fill="#373690" d="M 157.5,-0.5 C 158.833,-0.5 160.167,-0.5 161.5,-0.5C 164.016,7.25427 166.016,15.2543 167.5,23.5C 168.336,28.1692 168.836,32.8358 169,37.5C 166.364,37.4549 163.53,37.2882 160.5,37C 159.328,36.5814 158.328,35.9147 157.5,35C 158.137,32.7574 158.47,30.4241 158.5,28C 158.668,24.6194 158.001,21.4527 156.5,18.5C 155.22,21.711 153.886,24.8777 152.5,28C 153.451,28.7175 153.617,29.5509 153,30.5C 150.056,27.2377 147.556,23.7377 145.5,20C 146.472,14.2819 147.805,8.78187 149.5,3.5C 149.5,5.83333 149.5,8.16667 149.5,10.5C 153.923,10.3096 158.256,9.64288 162.5,8.5C 163.109,4.99465 161.942,2.32799 159,0.5C 155.839,1.20739 152.672,1.87406 149.5,2.5C 151.857,0.901569 154.523,-0.0984307 157.5,-0.5 Z"/></g>
<g><path style="opacity:1" fill="#313695" d="M 124.5,15.5 C 125.505,19.5067 126.505,23.5067 127.5,27.5C 127.579,30.658 126.579,33.3246 124.5,35.5C 123.167,28.8333 123.167,22.1667 124.5,15.5 Z"/></g>
<g><path style="opacity:1" fill="#f6f6f8" d="M -0.5,-0.5 C 26.8333,-0.5 54.1667,-0.5 81.5,-0.5C 81.5,-0.166667 81.5,0.166667 81.5,0.5C 81.5,0.833333 81.5,1.16667 81.5,1.5C 81.5,2.16667 81.5,2.83333 81.5,3.5C 81.5,11.1667 81.5,18.8333 81.5,26.5C 82.675,26.281 83.675,26.6143 84.5,27.5C 83.6798,29.1112 82.3464,29.7778 80.5,29.5C 80.1712,35.2055 80.5046,40.8722 81.5,46.5C 83.0255,46.9943 84.3588,47.661 85.5,48.5C 84.1667,48.5 82.8333,48.5 81.5,48.5C 79.2362,47.7814 76.9029,47.448 74.5,47.5C 74.3739,49.1998 73.7073,50.6998 72.5,52C 72.9891,53.1385 73.3225,54.3052 73.5,55.5C 69.7054,55.6897 66.3721,56.6897 63.5,58.5C 62.8826,58.6107 62.3826,58.944 62,59.5C 61.79,57.9419 61.29,56.6085 60.5,55.5C 59.8333,55.1667 59.1667,54.8333 58.5,54.5C 55.8987,53.1993 53.232,51.866 50.5,50.5C 34.1408,43.827 17.1408,39.827 -0.5,38.5C -0.5,25.5 -0.5,12.5 -0.5,-0.5 Z"/></g>
<g><path style="opacity:1" fill="#35358c" d="M 44.5,10.5 C 40.8183,10.3347 37.1516,10.5014 33.5,11C 32.2117,13.4665 32.2117,15.9665 33.5,18.5C 36.8363,19.2396 40.1696,19.9062 43.5,20.5C 44.4841,23.4281 44.8174,26.4281 44.5,29.5C 34.1667,27.1667 30.1667,31.1667 32.5,41.5C 29.4466,41.0893 26.4466,40.4226 23.5,39.5C 22.5023,31.5277 22.169,23.5277 22.5,15.5C 23.4907,21.979 23.824,28.6457 23.5,35.5C 24.675,35.719 25.675,35.3857 26.5,34.5C 25.2065,28.1919 25.2065,21.8585 26.5,15.5C 27.1667,20.8333 27.8333,26.1667 28.5,31.5C 30.6018,32.8943 30.9351,34.561 29.5,36.5C 29.8333,37.1667 30.1667,37.8333 30.5,38.5C 30.8333,37.3333 31.1667,36.1667 31.5,35C 30.1919,28.4975 30.1919,21.9975 31.5,15.5C 31.3333,14.5 31.1667,13.5 31,12.5C 30.3333,13.8333 29.6667,13.8333 29,12.5C 28.2172,10.6815 28.7172,9.34815 30.5,8.5C 35.2994,9.11746 39.966,9.78413 44.5,10.5 Z"/></g>
<g><path style="opacity:1" fill="#2f3093" d="M 44.5,10.5 C 39.966,9.78413 35.2994,9.11746 30.5,8.5C 28.7172,9.34815 28.2172,10.6815 29,12.5C 29.6667,13.8333 30.3333,13.8333 31,12.5C 31.1667,13.5 31.3333,14.5 31.5,15.5C 30.1919,21.9975 30.1919,28.4975 31.5,35C 31.1667,36.1667 30.8333,37.3333 30.5,38.5C 30.1667,37.8333 29.8333,37.1667 29.5,36.5C 30.9351,34.561 30.6018,32.8943 28.5,31.5C 27.8333,26.1667 27.1667,20.8333 26.5,15.5C 25.2065,21.8585 25.2065,28.1919 26.5,34.5C 25.675,35.3857 24.675,35.719 23.5,35.5C 23.824,28.6457 23.4907,21.979 22.5,15.5C 21.746,10.5365 21.4126,5.53654 21.5,0.5C 30.1667,0.5 38.8333,0.5 47.5,0.5C 47.6646,3.51838 47.498,6.51838 47,9.5C 46.3292,10.2524 45.4959,10.5858 44.5,10.5 Z"/></g>
<g><path style="opacity:1" fill="#343491" d="M 197.5,2.5 C 197.072,5.56415 196.406,8.56415 195.5,11.5C 196.93,11.5792 198.264,11.2458 199.5,10.5C 200.386,11.325 200.719,12.325 200.5,13.5C 196.845,14.075 193.845,13.075 191.5,10.5C 190.626,9.47489 189.459,8.80822 188,8.5C 185.823,9.5234 183.656,9.69007 181.5,9C 188.232,16.1672 195.065,23.3339 202,30.5C 202.499,34.1516 202.665,37.8183 202.5,41.5C 198.559,42.5643 194.559,42.5643 190.5,41.5C 191.263,38.8589 191.43,36.1922 191,33.5C 190.184,32.1772 189.017,31.5106 187.5,31.5C 185.119,27.7163 181.953,24.7163 178,22.5C 174.676,17.6763 173.676,12.343 175,6.5C 176.167,4 178,2.16667 180.5,1C 186.35,0.0519597 192.017,0.55196 197.5,2.5 Z"/></g>
<g><path style="opacity:1" fill="#3e3a90" d="M 183.5,34.5 C 183.421,35.9305 183.754,37.2638 184.5,38.5C 183,38.8333 181.5,39.1667 180,39.5C 174.748,40.1194 173.581,38.4527 176.5,34.5C 178.726,33.2437 181.059,33.2437 183.5,34.5 Z"/></g>
<g><path style="opacity:1" fill="#fbbbb5" d="M 158.5,38.5 C 162.078,38.5488 165.411,39.2154 168.5,40.5C 167.325,40.281 166.325,40.6143 165.5,41.5C 166.506,42.3957 166.506,43.0623 165.5,43.5C 164.155,42.6533 163.155,41.4866 162.5,40C 160.942,39.79 159.609,39.29 158.5,38.5 Z"/></g>
<g><path style="opacity:1" fill="#3f3b91" d="M 94.5,31.5 C 97.2465,31.9276 98.9132,33.5943 99.5,36.5C 97.3517,38.4813 98.0184,39.8146 101.5,40.5C 102.708,41.2341 104.041,41.5674 105.5,41.5C 105.762,42.9778 105.429,44.3112 104.5,45.5C 102.253,46.3742 99.9201,46.7076 97.5,46.5C 96.8164,41.4554 95.8164,36.4554 94.5,31.5 Z"/></g>
<g><path style="opacity:1" fill="#e9252b" d="M -0.5,38.5 C 17.1408,39.827 34.1408,43.827 50.5,50.5C 51.5463,52.7849 51.5463,55.1183 50.5,57.5C 49.5,57.5 48.5,57.5 47.5,57.5C 47.281,58.675 47.6143,59.675 48.5,60.5C 50.1667,59.5 51.5,58.1667 52.5,56.5C 54.4109,55.5233 56.4109,54.8567 58.5,54.5C 59.1667,54.8333 59.8333,55.1667 60.5,55.5C 59.4937,57.9994 58.8271,60.3328 58.5,62.5C 54.5412,61.5975 50.5412,61.5975 46.5,62.5C 45.0721,59.6967 44.4054,56.6967 44.5,53.5C 41.6354,53.9452 39.1354,53.2785 37,51.5C 36.5172,52.448 36.3505,53.448 36.5,54.5C 36.7031,56.0443 37.3698,57.3777 38.5,58.5C 35.0797,59.7527 33.7464,58.4193 34.5,54.5C 31.0802,55.811 27.7469,55.6443 24.5,54C 20.6515,52.5789 17.3182,50.4122 14.5,47.5C 13.7836,48.311 12.9503,48.9777 12,49.5C 8.36066,46.2627 4.19399,43.9294 -0.5,42.5C -0.5,41.1667 -0.5,39.8333 -0.5,38.5 Z"/></g>
<g><path style="opacity:1" fill="#39388f" d="M 81.5,1.5 C 81.5,1.16667 81.5,0.833333 81.5,0.5C 84.8499,0.334989 88.1832,0.501655 91.5,1C 93.7391,4.70552 95.4058,8.70552 96.5,13C 95.3381,14.7257 95.6715,16.2257 97.5,17.5C 98.8488,18.7965 100.182,18.6298 101.5,17C 100.529,11.9283 100.195,6.76162 100.5,1.5C 103.287,0.523331 106.287,0.189998 109.5,0.5C 109.833,13.85 109.499,27.1833 108.5,40.5C 106.971,39.2371 105.305,38.2371 103.5,37.5C 102.5,37.5 101.5,37.5 100.5,37.5C 100.756,35.2075 100.423,33.0408 99.5,31C 100.551,29.6152 101.884,28.6152 103.5,28C 102.027,27.2904 101.36,26.1238 101.5,24.5C 97.7593,23.5985 95.7593,24.9319 95.5,28.5C 94.5,28.5 93.5,28.5 92.5,28.5C 91.3367,20.9797 90.0034,20.8131 88.5,28C 90.291,30.1062 90.9577,32.6062 90.5,35.5C 90.5299,36.4972 90.0299,37.1639 89,37.5C 87.6974,37.0217 86.5307,36.355 85.5,35.5C 86.1283,38.09 87.295,40.4234 89,42.5C 89,41.1667 89,39.8333 89,38.5C 89.7504,39.1258 90.5838,39.6258 91.5,40C 90.5562,42.7191 90.2229,45.5525 90.5,48.5C 88.8333,48.5 87.1667,48.5 85.5,48.5C 84.3588,47.661 83.0255,46.9943 81.5,46.5C 80.5046,40.8722 80.1712,35.2055 80.5,29.5C 82.3464,29.7778 83.6798,29.1112 84.5,27.5C 83.675,26.6143 82.675,26.281 81.5,26.5C 81.5,18.8333 81.5,11.1667 81.5,3.5C 82.1666,9.34647 82.8332,15.3465 83.5,21.5C 86.5423,23.1452 88.5423,22.3118 89.5,19C 88.3521,17.274 87.1855,17.4407 86,19.5C 85.5034,17.1902 85.3367,14.8568 85.5,12.5C 87.5914,12.6816 89.5914,12.3482 91.5,11.5C 92.5472,12.9223 92.5472,14.4223 91.5,16C 91.8499,17.2575 92.5165,17.5908 93.5,17C 93.6584,13.7121 93.6584,10.2121 93.5,6.5C 91.7376,6.64271 90.0709,6.30937 88.5,5.5C 87.5481,7.04533 87.2148,8.71199 87.5,10.5C 86.5,10.5 85.5,10.5 84.5,10.5C 84.7394,8.5328 84.4061,6.69946 83.5,5C 85.7006,3.95682 88.0339,3.12349 90.5,2.5C 87.5719,1.51592 84.5719,1.18259 81.5,1.5 Z"/></g>
<g><path style="opacity:1" fill="#555599" d="M 103.5,37.5 C 102.833,38.5 102.167,39.5 101.5,40.5C 98.0184,39.8146 97.3517,38.4813 99.5,36.5C 98.9132,33.5943 97.2465,31.9276 94.5,31.5C 94.0618,31.5654 93.7284,31.3988 93.5,31C 95.9316,29.9125 95.5983,29.4125 92.5,29.5C 92.5,29.1667 92.5,28.8333 92.5,28.5C 93.5,28.5 94.5,28.5 95.5,28.5C 95.7593,24.9319 97.7593,23.5985 101.5,24.5C 101.36,26.1238 102.027,27.2904 103.5,28C 101.884,28.6152 100.551,29.6152 99.5,31C 100.423,33.0408 100.756,35.2075 100.5,37.5C 101.5,37.5 102.5,37.5 103.5,37.5 Z"/></g>
<g><path style="opacity:1" fill="#bbbede" d="M 92.5,28.5 C 92.5,28.8333 92.5,29.1667 92.5,29.5C 91.8333,31.5 91.1667,33.5 90.5,35.5C 90.9577,32.6062 90.291,30.1062 88.5,28C 90.0034,20.8131 91.3367,20.9797 92.5,28.5 Z"/></g>
<g><path style="opacity:1" fill="#b7bbeb" d="M 85.5,35.5 C 84.1522,34.4732 83.6522,33.1398 84,31.5C 85.1882,32.5634 85.6882,33.8967 85.5,35.5 Z"/></g>
<g><path style="opacity:1" fill="#a9acda" d="M 100.5,1.5 C 100.195,6.76162 100.529,11.9283 101.5,17C 100.182,18.6298 98.8488,18.7965 97.5,17.5C 99.1437,12.4104 100.144,7.07704 100.5,1.5 Z"/></g>
<g><path style="opacity:1" fill="#353592" d="M 66.5,44.5 C 67.1667,44.5 67.8333,44.5 68.5,44.5C 69.2189,42.9087 70.2189,41.4087 71.5,40C 70.9558,39.2828 70.2891,38.7828 69.5,38.5C 67.4821,37.9528 65.6487,36.9528 64,35.5C 63.3333,36.5 63.3333,37.5 64,38.5C 66.8177,40.3056 66.9843,41.9723 64.5,43.5C 59.9787,41.6311 57.312,43.2977 56.5,48.5C 55.6667,48.8333 54.8333,49.1667 54,49.5C 51.5284,48.6781 49.0284,48.0114 46.5,47.5C 48.8571,34.5457 51.0238,21.5457 53,8.5C 53.4523,5.85064 54.2857,3.35064 55.5,1C 57.6667,0.833333 59.8333,0.666667 62,0.5C 64.6254,0.581151 66.9587,1.24782 69,2.5C 71.1174,16.0861 73.6174,29.5861 76.5,43C 74.296,46.2206 71.296,47.554 67.5,47C 66.7476,46.3292 66.4142,45.4959 66.5,44.5 Z"/></g>
<g><path style="opacity:1" fill="#7c7db9" d="M 69.5,38.5 C 67.4876,40.2082 67.1542,42.2082 68.5,44.5C 67.8333,44.5 67.1667,44.5 66.5,44.5C 65.5084,44.6716 64.8417,44.3382 64.5,43.5C 66.9843,41.9723 66.8177,40.3056 64,38.5C 63.3333,37.5 63.3333,36.5 64,35.5C 65.6487,36.9528 67.4821,37.9528 69.5,38.5 Z"/></g>
<g><path style="opacity:1" fill="#f2f9fd" d="M 69.5,38.5 C 70.2891,38.7828 70.9558,39.2828 71.5,40C 70.2189,41.4087 69.2189,42.9087 68.5,44.5C 67.1542,42.2082 67.4876,40.2082 69.5,38.5 Z"/></g>
<g><path style="opacity:1" fill="#9698ce" d="M 63.5,24.5 C 64.4731,26.9479 64.8064,29.6146 64.5,32.5C 65.5,32.5 66.5,32.5 67.5,32.5C 67.719,33.675 67.3857,34.675 66.5,35.5C 65.4822,34.8075 64.4822,34.1408 63.5,33.5C 63.5,30.5 63.5,27.5 63.5,24.5 Z"/></g>
<g><path style="opacity:1" fill="#8f90c9" d="M 58.5,28.5 C 59.4511,29.9187 59.7845,31.5853 59.5,33.5C 60.8333,33.5 62.1667,33.5 63.5,33.5C 62.0813,34.4511 60.4147,34.7845 58.5,34.5C 58.5,32.5 58.5,30.5 58.5,28.5 Z"/></g>
<g><path style="opacity:1" fill="#f1f3f8" d="M 63.5,24.5 C 63.5,27.5 63.5,30.5 63.5,33.5C 62.1667,33.5 60.8333,33.5 59.5,33.5C 59.7845,31.5853 59.4511,29.9187 58.5,28.5C 59.2276,25.9205 59.7276,23.2538 60,20.5C 60.7096,19.0267 61.8762,18.3601 63.5,18.5C 63.5,20.5 63.5,22.5 63.5,24.5 Z"/></g>
<g><path style="opacity:1" fill="#f8f7f8" d="M -0.5,42.5 C 4.19399,43.9294 8.36066,46.2627 12,49.5C 12.9503,48.9777 13.7836,48.311 14.5,47.5C 17.3182,50.4122 20.6515,52.5789 24.5,54C 27.7469,55.6443 31.0802,55.811 34.5,54.5C 33.7464,58.4193 35.0797,59.7527 38.5,58.5C 37.3698,57.3777 36.7031,56.0443 36.5,54.5C 38.7925,54.2436 40.9592,54.5769 43,55.5C 43.2713,57.807 42.1047,58.9736 39.5,59C 41.4746,61.9539 43.8079,64.4539 46.5,66.5C 45.6409,68.1059 45.4742,69.7725 46,71.5C 44.1492,70.4632 42.9825,71.1299 42.5,73.5C 39.2226,76.1013 37.2226,79.4346 36.5,83.5C 39.6883,83.3822 42.6883,82.5489 45.5,81C 49.375,77.6193 53.375,74.4526 57.5,71.5C 58.2674,70.828 58.9341,69.9947 59.5,69C 57.5794,67.7592 57.246,66.2592 58.5,64.5C 59.3857,65.325 59.719,66.325 59.5,67.5C 61.288,67.7852 62.9547,67.4519 64.5,66.5C 63.4937,65.6043 63.4937,64.9377 64.5,64.5C 66.8676,66.223 69.5342,66.8897 72.5,66.5C 73.2389,66.369 73.9056,66.5357 74.5,67C 72.8333,68 71.1667,69 69.5,70C 70.5,70.3333 71.5,70.6667 72.5,71C 73.642,73.8043 75.4754,75.9709 78,77.5C 81.1185,75.3851 83.9518,72.8851 86.5,70C 89.4816,69.502 92.4816,69.3354 95.5,69.5C 97.045,68.7703 97.8784,67.437 98,65.5C 98.121,67.7271 98.9544,69.5604 100.5,71C 100.272,71.3988 99.9382,71.5654 99.5,71.5C 98.7109,71.7828 98.0442,72.2828 97.5,73C 98.807,74.9435 98.807,76.7768 97.5,78.5C 95.5476,83.873 94.5476,89.5397 94.5,95.5C 92.2291,104.689 90.3957,114.022 89,123.5C 92.4085,124.622 95.9085,124.789 99.5,124C 99.878,120.129 101.878,117.629 105.5,116.5C 106.772,116.57 107.938,116.903 109,117.5C 109.642,119.762 110.475,121.929 111.5,124C 114.453,123.62 117.453,123.62 120.5,124C 121.389,118.552 121.223,113.052 120,107.5C 118.032,101.714 116.698,95.714 116,89.5C 113.901,88.8695 112.068,87.8695 110.5,86.5C 107.04,89.3775 103.873,89.0441 101,85.5C 100.751,86.624 100.251,87.624 99.5,88.5C 99.1667,88.3333 98.8333,88.1667 98.5,88C 98.1727,85.3151 98.1727,82.4818 98.5,79.5C 100.952,78.9346 103.285,78.2679 105.5,77.5C 104.737,76.7321 103.737,76.2321 102.5,76C 103.022,75.4387 103.355,74.772 103.5,74C 101.922,71.0316 101.255,67.8649 101.5,64.5C 103.299,68.1909 105.466,71.8575 108,75.5C 109.145,76.6364 110.312,77.6364 111.5,78.5C 115.081,79.4485 116.914,77.7818 117,73.5C 117.308,74.3081 117.808,74.9747 118.5,75.5C 121.417,74.9338 124.417,74.9338 127.5,75.5C 132.854,75.8126 138.187,76.1459 143.5,76.5C 144.622,77.1558 145.955,77.4892 147.5,77.5C 149.333,77.4146 150.666,76.7479 151.5,75.5C 151.833,74.8333 152.167,74.1667 152.5,73.5C 153.141,75.0423 154.141,76.3757 155.5,77.5C 157.454,74.9404 159.12,72.2738 160.5,69.5C 160.702,71.9496 160.369,74.283 159.5,76.5C 157.657,80.1869 156.99,84.1869 157.5,88.5C 157.726,91.2492 157.393,93.9159 156.5,96.5C 158.24,97.8092 159.573,97.4759 160.5,95.5C 161.778,95.2178 162.778,94.5511 163.5,93.5C 165.179,93.2852 166.179,93.9519 166.5,95.5C 164.571,97.1482 162.571,98.8149 160.5,100.5C 157.15,98.7261 155.484,99.7261 155.5,103.5C 157.019,104.329 158.685,105.162 160.5,106C 169.951,96.7508 177.951,86.4174 184.5,75C 189.156,74.3345 193.823,73.8345 198.5,73.5C 200.5,73.5 202.5,73.5 204.5,73.5C 204.167,74.1667 203.833,74.8333 203.5,75.5C 200.5,79.5081 199.834,83.8414 201.5,88.5C 202.32,90.1401 203.153,91.8068 204,93.5C 209.655,97.823 214.988,102.49 220,107.5C 219.932,109.342 220.099,111.009 220.5,112.5C 218.142,112.253 216.142,112.919 214.5,114.5C 213.833,113.167 212.833,112.167 211.5,111.5C 211.863,109.089 210.863,107.589 208.5,107C 205.571,106.223 202.737,106.39 200,107.5C 199.338,113.172 201.171,117.839 205.5,121.5C 205.216,123.415 205.549,125.081 206.5,126.5C 206.833,127.167 207.167,127.833 207.5,128.5C 206.5,128.5 205.5,128.5 204.5,128.5C 204.5,127.5 204.5,126.5 204.5,125.5C 203.5,125.5 202.5,125.5 201.5,125.5C 201.5,126.5 201.5,127.5 201.5,128.5C 134.167,128.5 66.8333,128.5 -0.5,128.5C -0.5,99.8333 -0.5,71.1667 -0.5,42.5 Z"/></g>
<g><path style="opacity:1" fill="#dc424e" d="M 102.5,47.5 C 103.873,47.3433 105.207,47.51 106.5,48C 103.91,51.4486 100.576,52.2819 96.5,50.5C 98.2818,49.0159 100.282,48.0159 102.5,47.5 Z"/></g>
<g><path style="opacity:1" fill="#e63c40" d="M 203.5,47.5 C 203.5,47.1667 203.5,46.8333 203.5,46.5C 205.099,46.2322 206.432,46.5655 207.5,47.5C 207.5,48.5 207.5,49.5 207.5,50.5C 199.729,51.4196 199.729,52.753 207.5,54.5C 207.5,56.1667 207.5,57.8333 207.5,59.5C 206.209,59.7373 205.209,59.404 204.5,58.5C 206.465,58.0517 206.798,57.0517 205.5,55.5C 204.817,55.8627 204.15,56.1961 203.5,56.5C 202.53,55.3707 201.364,54.3707 200,53.5C 199.5,53.8333 199,54.1667 198.5,54.5C 199.924,56.2913 201.258,58.1246 202.5,60C 201.584,60.3742 200.75,60.8742 200,61.5C 199.869,58.6288 198.703,56.2954 196.5,54.5C 196.694,52.7367 196.694,50.9033 196.5,49C 198.131,47.1644 198.798,47.6644 198.5,50.5C 200.216,50.3713 201.883,50.038 203.5,49.5C 207.5,48.8333 207.5,48.1667 203.5,47.5 Z"/></g>
<g><path style="opacity:1" fill="#f16c65" d="M 152.5,50.5 C 150.421,50.9707 148.421,51.6373 146.5,52.5C 145.12,51.8097 143.786,51.4764 142.5,51.5C 143.842,50.1239 145.175,48.7906 146.5,47.5C 147.167,48.5 147.833,49.5 148.5,50.5C 149.995,49.2947 151.328,49.2947 152.5,50.5 Z"/></g>
<g><path style="opacity:1" fill="#ec1c24" d="M 191.5,46.5 C 190.448,46.3505 189.448,46.5172 188.5,47C 190.955,52.0691 190.288,56.7358 186.5,61C 188.08,63.9153 187.413,64.7486 184.5,63.5C 183.813,61.7256 182.98,60.0589 182,58.5C 180.236,61.6603 178.403,64.6603 176.5,67.5C 175.833,67.5 175.5,67.1667 175.5,66.5C 176.091,65.8485 176.757,65.1818 177.5,64.5C 176.233,62.6293 176.233,60.7959 177.5,59C 176.551,58.3828 175.718,58.5494 175,59.5C 174.517,58.552 174.351,57.552 174.5,56.5C 173.5,56.5 172.5,56.5 171.5,56.5C 171.36,54.8762 172.027,53.7096 173.5,53C 172.101,52.4054 170.768,52.5721 169.5,53.5C 168.5,52.8333 167.5,52.1667 166.5,51.5C 166.289,49.7103 166.289,48.0437 166.5,46.5C 163.146,47.7019 162.146,49.8686 163.5,53C 161.009,57.8085 159.342,57.4751 158.5,52C 159.09,49.8044 159.757,47.6378 160.5,45.5C 165.685,44.9942 170.685,43.9942 175.5,42.5C 177.601,45.0523 180.267,46.219 183.5,46C 180.79,44.3324 180.957,43.499 184,43.5C 187.079,43.5808 189.579,44.5808 191.5,46.5 Z"/></g>
<g><path style="opacity:1" fill="#e96763" d="M 50.5,50.5 C 53.232,51.866 55.8987,53.1993 58.5,54.5C 56.4109,54.8567 54.4109,55.5233 52.5,56.5C 51.5,58.1667 50.1667,59.5 48.5,60.5C 47.6143,59.675 47.281,58.675 47.5,57.5C 48.5,57.5 49.5,57.5 50.5,57.5C 51.5463,55.1183 51.5463,52.7849 50.5,50.5 Z"/></g>
<g><path style="opacity:1" fill="#e92c30" d="M 81.5,48.5 C 85.3831,51.5474 89.7165,52.2141 94.5,50.5C 95.0166,54.2217 95.85,57.8883 97,61.5C 98.3997,62.748 99.8997,63.748 101.5,64.5C 101.255,67.8649 101.922,71.0316 103.5,74C 103.355,74.772 103.022,75.4387 102.5,76C 103.737,76.2321 104.737,76.7321 105.5,77.5C 103.5,77.5 101.5,77.5 99.5,77.5C 99.5,75.5 99.5,73.5 99.5,71.5C 99.9382,71.5654 100.272,71.3988 100.5,71C 98.9544,69.5604 98.121,67.7271 98,65.5C 97.8784,67.437 97.045,68.7703 95.5,69.5C 95.5,68.8333 95.1667,68.5 94.5,68.5C 93.4696,65.8962 93.4696,63.2295 94.5,60.5C 93.1266,60.3433 91.7932,60.51 90.5,61C 91.9928,62.1562 91.8261,62.9896 90,63.5C 88.1739,62.9896 88.0072,62.1562 89.5,61C 87.8659,60.5065 86.1992,60.3398 84.5,60.5C 85.1667,56.5 83.5,54.8333 79.5,55.5C 79.5,56.5 79.5,57.5 79.5,58.5C 77.5168,58.8432 76.1834,58.1765 75.5,56.5C 74.8333,56.1667 74.1667,55.8333 73.5,55.5C 73.3225,54.3052 72.9891,53.1385 72.5,52C 73.7073,50.6998 74.3739,49.1998 74.5,47.5C 76.9029,47.448 79.2362,47.7814 81.5,48.5 Z"/></g>
<g><path style="opacity:1" fill="#f7f1e4" d="M 75.5,56.5 C 75.7496,55.0779 76.583,54.0779 78,53.5C 78.8625,56.543 78.0291,57.543 75.5,56.5 Z"/></g>
<g><path style="opacity:1" fill="#eb2228" d="M 153.5,35.5 C 153.586,36.4959 153.252,37.3292 152.5,38C 153.833,38.3333 155.167,38.6667 156.5,39C 154.699,39.3173 154.366,39.984 155.5,41C 154.5,41.6667 153.5,41.6667 152.5,41C 151.228,38.7391 149.562,38.2391 147.5,39.5C 149.509,41.0105 151.342,42.6771 153,44.5C 153.251,46.433 153.751,48.2663 154.5,50C 153.906,50.4643 153.239,50.631 152.5,50.5C 151.328,49.2947 149.995,49.2947 148.5,50.5C 147.833,49.5 147.167,48.5 146.5,47.5C 145.175,48.7906 143.842,50.1239 142.5,51.5C 143.786,51.4764 145.12,51.8097 146.5,52.5C 146.443,53.609 146.11,54.609 145.5,55.5C 142.384,63.7634 140.884,63.43 141,54.5C 140.035,52.7397 138.868,52.4063 137.5,53.5C 139.286,57.7273 138.619,58.7273 135.5,56.5C 135.167,56.8333 134.833,57.1667 134.5,57.5C 135.311,58.2164 135.978,59.0497 136.5,60C 135.873,62.1351 135.373,64.3018 135,66.5C 133.491,67.0897 131.991,67.7564 130.5,68.5C 131.628,69.2621 132.795,69.9288 134,70.5C 135.752,68.6491 137.252,66.6491 138.5,64.5C 141.146,62.0888 141.812,62.7554 140.5,66.5C 139.28,68.2837 139.28,69.9504 140.5,71.5C 142.234,69.6784 143.234,67.3451 143.5,64.5C 144.5,63.5 145.5,62.5 146.5,61.5C 147.59,62.3914 147.59,63.3914 146.5,64.5C 149.015,65.1997 149.682,66.5331 148.5,68.5C 150.167,69.6664 151.834,69.6664 153.5,68.5C 153.634,70.2915 153.301,71.9582 152.5,73.5C 152.167,74.1667 151.833,74.8333 151.5,75.5C 148.946,76.388 146.279,76.7214 143.5,76.5C 138.187,76.1459 132.854,75.8126 127.5,75.5C 127.389,74.8826 127.056,74.3826 126.5,74C 123.774,73.8184 121.107,73.3184 118.5,72.5C 120.023,70.4143 119.69,68.7476 117.5,67.5C 116.619,70.9297 115.452,74.263 114,77.5C 113.329,78.2524 112.496,78.5858 111.5,78.5C 110.312,77.6364 109.145,76.6364 108,75.5C 105.466,71.8575 103.299,68.1909 101.5,64.5C 99.2523,60.858 97.9189,56.858 97.5,52.5C 100.833,52.5 104.167,52.5 107.5,52.5C 107.5,51.5 107.5,50.5 107.5,49.5C 109.124,49.3601 110.29,50.0267 111,51.5C 111.684,50.2161 111.517,49.0495 110.5,48C 112.359,47.3161 114.026,46.3161 115.5,45C 117.441,44.2571 119.274,44.4238 121,45.5C 121.9,44.2298 123.066,43.2298 124.5,42.5C 123.5,41.8333 122.5,41.1667 121.5,40.5C 126.808,38.056 129.475,33.8894 129.5,28C 128.304,23.2435 127.637,18.4102 127.5,13.5C 128.873,13.3433 130.207,13.51 131.5,14C 140.664,19.3308 147.997,26.4974 153.5,35.5 Z"/></g>
<g><path style="opacity:1" fill="#fce6cd" d="M 117.5,52.5 C 118.5,52.5 119.5,52.5 120.5,52.5C 119.754,56.31 118.754,56.31 117.5,52.5 Z"/></g>
<g><path style="opacity:1" fill="#f4aea5" d="M 152.5,50.5 C 153.11,51.391 153.443,52.391 153.5,53.5C 150.431,52.073 149.431,52.9063 150.5,56C 148.735,56.6397 147.068,56.4731 145.5,55.5C 146.11,54.609 146.443,53.609 146.5,52.5C 148.421,51.6373 150.421,50.9707 152.5,50.5 Z"/></g>
<g><path style="opacity:1" fill="#f11923" d="M 73.5,55.5 C 74.1667,55.8333 74.8333,56.1667 75.5,56.5C 76.1834,58.1765 77.5168,58.8432 79.5,58.5C 79.5,57.5 79.5,56.5 79.5,55.5C 83.5,54.8333 85.1667,56.5 84.5,60.5C 86.1992,60.3398 87.8659,60.5065 89.5,61C 88.0072,62.1562 88.1739,62.9896 90,63.5C 91.8261,62.9896 91.9928,62.1562 90.5,61C 91.7932,60.51 93.1266,60.3433 94.5,60.5C 93.4696,63.2295 93.4696,65.8962 94.5,68.5C 91.7623,68.1489 89.0956,67.4822 86.5,66.5C 83.3886,68.4403 81.222,71.1069 80,74.5C 79.6667,73.8333 79.3333,73.1667 79,72.5C 78.1072,73.7112 77.2739,73.7112 76.5,72.5C 77.4803,71.0186 78.647,69.6853 80,68.5C 80.6667,67.8333 80.6667,67.1667 80,66.5C 78.6439,67.3802 77.1439,67.7135 75.5,67.5C 75.5,66.5 75.5,65.5 75.5,64.5C 76.8734,64.6567 78.2068,64.49 79.5,64C 77.4311,63.6758 77.0977,62.8425 78.5,61.5C 75.1612,60.6004 72.4946,59.6004 70.5,58.5C 71.6935,57.7281 72.6935,56.7281 73.5,55.5 Z"/></g>
<g><path style="opacity:1" fill="#e92b30" d="M 153.5,35.5 C 155.411,36.075 157.078,37.075 158.5,38.5C 159.609,39.29 160.942,39.79 162.5,40C 163.155,41.4866 164.155,42.6533 165.5,43.5C 166.506,43.0623 166.506,42.3957 165.5,41.5C 166.325,40.6143 167.325,40.281 168.5,40.5C 168.5,41.5 168.5,42.5 168.5,43.5C 170.991,43.1605 173.158,42.1605 175,40.5C 180.485,41.4264 185.985,42.2598 191.5,43C 192.791,44.2917 192.791,45.4583 191.5,46.5C 189.579,44.5808 187.079,43.5808 184,43.5C 180.957,43.499 180.79,44.3324 183.5,46C 180.267,46.219 177.601,45.0523 175.5,42.5C 170.685,43.9942 165.685,44.9942 160.5,45.5C 159.757,47.6378 159.09,49.8044 158.5,52C 159.342,57.4751 161.009,57.8085 163.5,53C 162.146,49.8686 163.146,47.7019 166.5,46.5C 166.289,48.0437 166.289,49.7103 166.5,51.5C 167.5,52.1667 168.5,52.8333 169.5,53.5C 170.768,52.5721 172.101,52.4054 173.5,53C 172.027,53.7096 171.36,54.8762 171.5,56.5C 172.5,56.5 173.5,56.5 174.5,56.5C 174.351,57.552 174.517,58.552 175,59.5C 175.718,58.5494 176.551,58.3828 177.5,59C 176.233,60.7959 176.233,62.6293 177.5,64.5C 176.757,65.1818 176.091,65.8485 175.5,66.5C 173.958,65.6993 172.292,65.366 170.5,65.5C 168.965,64.6457 167.632,64.6457 166.5,65.5C 164.61,65.7035 163.11,65.0368 162,63.5C 158.799,65.558 159.299,66.558 163.5,66.5C 163.5,67.5 163.5,68.5 163.5,69.5C 162.833,69.5 162.167,69.5 161.5,69.5C 161.167,69.5 160.833,69.5 160.5,69.5C 159.12,72.2738 157.454,74.9404 155.5,77.5C 154.141,76.3757 153.141,75.0423 152.5,73.5C 153.301,71.9582 153.634,70.2915 153.5,68.5C 153.5,68.1667 153.5,67.8333 153.5,67.5C 153.5,66.8333 153.5,66.1667 153.5,65.5C 152.791,64.596 151.791,64.2627 150.5,64.5C 150.281,63.325 150.614,62.325 151.5,61.5C 154.283,64.3506 156.616,64.0172 158.5,60.5C 157.675,59.6143 156.675,59.281 155.5,59.5C 155.649,58.448 155.483,57.448 155,56.5C 154.703,62.8684 153.536,63.035 151.5,57C 151.862,55.5657 152.528,54.3991 153.5,53.5C 153.443,52.391 153.11,51.391 152.5,50.5C 153.239,50.631 153.906,50.4643 154.5,50C 153.751,48.2663 153.251,46.433 153,44.5C 151.342,42.6771 149.509,41.0105 147.5,39.5C 149.562,38.2391 151.228,38.7391 152.5,41C 153.5,41.6667 154.5,41.6667 155.5,41C 154.366,39.984 154.699,39.3173 156.5,39C 155.167,38.6667 153.833,38.3333 152.5,38C 153.252,37.3292 153.586,36.4959 153.5,35.5 Z"/></g>
<g><path style="opacity:1" fill="#e86663" d="M 46.5,62.5 C 46.5,63.8333 46.5,65.1667 46.5,66.5C 43.8079,64.4539 41.4746,61.9539 39.5,59C 42.1047,58.9736 43.2713,57.807 43,55.5C 40.9592,54.5769 38.7925,54.2436 36.5,54.5C 36.3505,53.448 36.5172,52.448 37,51.5C 39.1354,53.2785 41.6354,53.9452 44.5,53.5C 44.4054,56.6967 45.0721,59.6967 46.5,62.5 Z"/></g>
<g><path style="opacity:1" fill="#ebe4dd" d="M 110.5,62.5 C 112.879,63.5619 112.879,64.8952 110.5,66.5C 109.374,65.1916 109.374,63.8583 110.5,62.5 Z"/></g>
<g><path style="opacity:1" fill="#df4441" d="M 145.5,55.5 C 147.068,56.4731 148.735,56.6397 150.5,56C 149.431,52.9063 150.431,52.073 153.5,53.5C 152.528,54.3991 151.862,55.5657 151.5,57C 153.536,63.035 154.703,62.8684 155,56.5C 155.483,57.448 155.649,58.448 155.5,59.5C 156.675,59.281 157.675,59.6143 158.5,60.5C 156.616,64.0172 154.283,64.3506 151.5,61.5C 150.614,62.325 150.281,63.325 150.5,64.5C 151.791,64.2627 152.791,64.596 153.5,65.5C 149.711,66.5961 149.711,67.2627 153.5,67.5C 153.5,67.8333 153.5,68.1667 153.5,68.5C 151.834,69.6664 150.167,69.6664 148.5,68.5C 149.682,66.5331 149.015,65.1997 146.5,64.5C 147.59,63.3914 147.59,62.3914 146.5,61.5C 145.5,62.5 144.5,63.5 143.5,64.5C 143.234,67.3451 142.234,69.6784 140.5,71.5C 141.494,69.6656 141.494,67.9989 140.5,66.5C 141.812,62.7554 141.146,62.0888 138.5,64.5C 137.252,66.6491 135.752,68.6491 134,70.5C 132.795,69.9288 131.628,69.2621 130.5,68.5C 131.991,67.7564 133.491,67.0897 135,66.5C 135.373,64.3018 135.873,62.1351 136.5,60C 135.978,59.0497 135.311,58.2164 134.5,57.5C 134.833,57.1667 135.167,56.8333 135.5,56.5C 138.619,58.7273 139.286,57.7273 137.5,53.5C 138.868,52.4063 140.035,52.7397 141,54.5C 140.884,63.43 142.384,63.7634 145.5,55.5 Z"/></g>
<g><path style="opacity:1" fill="#fcb0a1" d="M 138.5,64.5 C 137.761,64.631 137.094,64.4643 136.5,64C 137.116,61.8215 138.283,59.9882 140,58.5C 139.405,60.3502 138.905,62.3502 138.5,64.5 Z"/></g>
<g><path style="opacity:1" fill="#f7d8c1" d="M 170.5,65.5 C 169.167,68.1667 167.833,68.1667 166.5,65.5C 167.632,64.6457 168.965,64.6457 170.5,65.5 Z"/></g>
<g><path style="opacity:1" fill="#fdd9c6" d="M 153.5,65.5 C 153.5,66.1667 153.5,66.8333 153.5,67.5C 149.711,67.2627 149.711,66.5961 153.5,65.5 Z"/></g>
<g><path style="opacity:1" fill="#e33f44" d="M 60.5,55.5 C 61.29,56.6085 61.79,57.9419 62,59.5C 62.3826,58.944 62.8826,58.6107 63.5,58.5C 62.5868,60.0861 62.5868,61.5861 63.5,63C 67.0719,63.033 70.0719,64.1997 72.5,66.5C 69.5342,66.8897 66.8676,66.223 64.5,64.5C 63.4937,64.9377 63.4937,65.6043 64.5,66.5C 62.9547,67.4519 61.288,67.7852 59.5,67.5C 59.719,66.325 59.3857,65.325 58.5,64.5C 57.246,66.2592 57.5794,67.7592 59.5,69C 58.9341,69.9947 58.2674,70.828 57.5,71.5C 55.7651,66.2764 52.5984,65.2764 48,68.5C 47.51,69.7932 47.3433,71.1266 47.5,72.5C 45.7839,72.6287 44.1172,72.962 42.5,73.5C 42.9825,71.1299 44.1492,70.4632 46,71.5C 45.4742,69.7725 45.6409,68.1059 46.5,66.5C 46.5,65.1667 46.5,63.8333 46.5,62.5C 50.5412,61.5975 54.5412,61.5975 58.5,62.5C 58.8271,60.3328 59.4937,57.9994 60.5,55.5 Z"/></g>
<g><path style="opacity:1" fill="#ffe8d7" d="M 140.5,66.5 C 141.494,67.9989 141.494,69.6656 140.5,71.5C 139.28,69.9504 139.28,68.2837 140.5,66.5 Z"/></g>
<g><path style="opacity:1" fill="#df4f52" d="M 166.5,65.5 C 167.833,68.1667 169.167,68.1667 170.5,65.5C 172.292,65.366 173.958,65.6993 175.5,66.5C 175.5,67.1667 175.833,67.5 176.5,67.5C 177.278,68.1556 177.944,68.9889 178.5,70C 178.43,70.7648 178.097,71.2648 177.5,71.5C 177.158,70.6618 176.492,70.3284 175.5,70.5C 174.548,69.548 173.548,68.548 172.5,67.5C 170.695,69.9029 168.362,71.5695 165.5,72.5C 166.975,74.0712 168.642,75.4045 170.5,76.5C 169.537,77.3635 169.537,78.0302 170.5,78.5C 171.417,77.8728 172.417,77.5394 173.5,77.5C 172.365,79.2132 170.698,79.8799 168.5,79.5C 168.62,76.7952 167.62,76.1285 165.5,77.5C 164.833,76.1667 164.167,74.8333 163.5,73.5C 162.717,75.2882 161.384,76.2882 159.5,76.5C 160.369,74.283 160.702,71.9496 160.5,69.5C 160.833,69.5 161.167,69.5 161.5,69.5C 162.002,71.0847 163.002,71.5847 164.5,71C 165.554,69.6124 165.72,68.1124 165,66.5C 164.768,67.7375 164.268,68.7375 163.5,69.5C 163.5,68.5 163.5,67.5 163.5,66.5C 159.299,66.558 158.799,65.558 162,63.5C 163.11,65.0368 164.61,65.7035 166.5,65.5 Z"/></g>
<g><path style="opacity:1" fill="#e93134" d="M 73.5,55.5 C 72.6935,56.7281 71.6935,57.7281 70.5,58.5C 72.4946,59.6004 75.1612,60.6004 78.5,61.5C 77.0977,62.8425 77.4311,63.6758 79.5,64C 78.2068,64.49 76.8734,64.6567 75.5,64.5C 75.5,65.5 75.5,66.5 75.5,67.5C 77.1439,67.7135 78.6439,67.3802 80,66.5C 80.6667,67.1667 80.6667,67.8333 80,68.5C 78.647,69.6853 77.4803,71.0186 76.5,72.5C 77.2739,73.7112 78.1072,73.7112 79,72.5C 79.3333,73.1667 79.6667,73.8333 80,74.5C 81.222,71.1069 83.3886,68.4403 86.5,66.5C 89.0956,67.4822 91.7623,68.1489 94.5,68.5C 95.1667,68.5 95.5,68.8333 95.5,69.5C 92.4816,69.3354 89.4816,69.502 86.5,70C 83.9518,72.8851 81.1185,75.3851 78,77.5C 75.4754,75.9709 73.642,73.8043 72.5,71C 71.5,70.6667 70.5,70.3333 69.5,70C 71.1667,69 72.8333,68 74.5,67C 73.9056,66.5357 73.2389,66.369 72.5,66.5C 70.0719,64.1997 67.0719,63.033 63.5,63C 62.5868,61.5861 62.5868,60.0861 63.5,58.5C 66.3721,56.6897 69.7054,55.6897 73.5,55.5 Z"/></g>
<g><path style="opacity:1" fill="#f8bba0" d="M 70.5,58.5 C 71.0906,59.1515 71.7573,59.8182 72.5,60.5C 70.796,61.8229 69.4627,61.4896 68.5,59.5C 68.9569,58.7025 69.6236,58.3691 70.5,58.5 Z"/></g>
<g><path style="opacity:1" fill="#ffe5d5" d="M 161.5,69.5 C 162.167,69.5 162.833,69.5 163.5,69.5C 164.268,68.7375 164.768,67.7375 165,66.5C 165.72,68.1124 165.554,69.6124 164.5,71C 163.002,71.5847 162.002,71.0847 161.5,69.5 Z"/></g>
<g><path style="opacity:1" fill="#524e97" d="M 36.5,76.5 C 34.0752,76.316 34.0752,75.6493 36.5,74.5C 35.6518,72.7172 34.3185,72.2172 32.5,73C 33.7112,73.8928 33.7112,74.7261 32.5,75.5C 31.6143,74.675 31.281,73.675 31.5,72.5C 29.5,72.5 27.5,72.5 25.5,72.5C 25.9175,71.7784 26.5842,71.2784 27.5,71C 31.5,70.3333 35.5,70.3333 39.5,71C 39.8333,71.3333 40.1667,71.6667 40.5,72C 39.2668,73.6667 37.9335,75.1667 36.5,76.5 Z"/></g>
<g><path style="opacity:1" fill="#db474c" d="M 127.5,75.5 C 124.417,74.9338 121.417,74.9338 118.5,75.5C 117.808,74.9747 117.308,74.3081 117,73.5C 116.914,77.7818 115.081,79.4485 111.5,78.5C 112.496,78.5858 113.329,78.2524 114,77.5C 115.452,74.263 116.619,70.9297 117.5,67.5C 119.69,68.7476 120.023,70.4143 118.5,72.5C 121.107,73.3184 123.774,73.8184 126.5,74C 127.056,74.3826 127.389,74.8826 127.5,75.5 Z"/></g>
<g><path style="opacity:1" fill="#eb282f" d="M 175.5,70.5 C 174.581,73.0892 172.914,75.0892 170.5,76.5C 168.642,75.4045 166.975,74.0712 165.5,72.5C 168.362,71.5695 170.695,69.9029 172.5,67.5C 173.548,68.548 174.548,69.548 175.5,70.5 Z"/></g>
<g><path style="opacity:1" fill="#fce4d2" d="M 175.5,70.5 C 176.492,70.3284 177.158,70.6618 177.5,71.5C 176.559,73.7721 175.226,75.7721 173.5,77.5C 172.417,77.5394 171.417,77.8728 170.5,78.5C 169.537,78.0302 169.537,77.3635 170.5,76.5C 172.914,75.0892 174.581,73.0892 175.5,70.5 Z"/></g>
<g><path style="opacity:1" fill="#e8282c" d="M 57.5,71.5 C 53.375,74.4526 49.375,77.6193 45.5,81C 42.6883,82.5489 39.6883,83.3822 36.5,83.5C 37.2226,79.4346 39.2226,76.1013 42.5,73.5C 44.1172,72.962 45.7839,72.6287 47.5,72.5C 47.3433,71.1266 47.51,69.7932 48,68.5C 52.5984,65.2764 55.7651,66.2764 57.5,71.5 Z"/></g>
<g><path style="opacity:1" fill="#fb9498" d="M 151.5,75.5 C 150.666,76.7479 149.333,77.4146 147.5,77.5C 145.955,77.4892 144.622,77.1558 143.5,76.5C 146.279,76.7214 148.946,76.388 151.5,75.5 Z"/></g>
<g><path style="opacity:1" fill="#afa9ea" d="M 54.5,78.5 C 54.5,78.1667 54.5,77.8333 54.5,77.5C 56.5405,76.4808 58.5405,76.4808 60.5,77.5C 58.604,78.4656 56.604,78.7989 54.5,78.5 Z"/></g>
<g><path style="opacity:1" fill="#545895" d="M 191.5,79.5 C 189.236,78.7814 186.903,78.448 184.5,78.5C 184.611,77.8826 184.944,77.3826 185.5,77C 188.167,76.3333 190.833,76.3333 193.5,77C 192.934,77.9947 192.267,78.828 191.5,79.5 Z"/></g>
<g><path style="opacity:1" fill="#343192" d="M 229.5,85.5 C 227.034,86.6341 224.367,86.8007 221.5,86C 220.878,82.0177 218.544,79.8511 214.5,79.5C 211.756,79.0719 209.423,77.9052 207.5,76C 207.833,75.5 208.167,75 208.5,74.5C 210.93,76.571 213.597,76.9044 216.5,75.5C 209.818,73.3602 210.151,72.0269 217.5,71.5C 222.478,72.1529 225.478,74.8196 226.5,79.5C 225.448,79.3505 224.448,79.5172 223.5,80C 227.898,79.4078 229.898,81.2411 229.5,85.5 Z"/></g>
<g><path style="opacity:1" fill="#f7b0b9" d="M 99.5,71.5 C 99.5,73.5 99.5,75.5 99.5,77.5C 101.5,77.5 103.5,77.5 105.5,77.5C 103.285,78.2679 100.952,78.9346 98.5,79.5C 97.8333,79.5 97.5,79.1667 97.5,78.5C 98.807,76.7768 98.807,74.9435 97.5,73C 98.0442,72.2828 98.7109,71.7828 99.5,71.5 Z"/></g>
<g><path style="opacity:1" fill="#ce575b" d="M 104.5,81.5 C 106.966,80.3659 109.633,80.1993 112.5,81C 111.956,81.7172 111.289,82.2172 110.5,82.5C 108.735,81.5386 106.735,81.2053 104.5,81.5 Z"/></g>
<g><path style="opacity:1" fill="#9f96c4" d="M 203.5,75.5 C 203.611,76.1174 203.944,76.6174 204.5,77C 201.846,80.3273 200.846,84.1606 201.5,88.5C 199.834,83.8414 200.5,79.5081 203.5,75.5 Z"/></g>
<g><path style="opacity:1" fill="#e93230" d="M 104.5,81.5 C 106.735,81.2053 108.735,81.5386 110.5,82.5C 108.919,84.0863 106.919,85.0863 104.5,85.5C 102.193,83.7383 102.193,82.405 104.5,81.5 Z"/></g>
<g><path style="opacity:1" fill="#ea2a2f" d="M 202.5,45.5 C 203.167,45.5 203.5,45.8333 203.5,46.5C 203.5,46.8333 203.5,47.1667 203.5,47.5C 203.5,48.1667 203.5,48.8333 203.5,49.5C 201.883,50.038 200.216,50.3713 198.5,50.5C 198.798,47.6644 198.131,47.1644 196.5,49C 196.694,50.9033 196.694,52.7367 196.5,54.5C 198.703,56.2954 199.869,58.6288 200,61.5C 200.75,60.8742 201.584,60.3742 202.5,60C 201.258,58.1246 199.924,56.2913 198.5,54.5C 199,54.1667 199.5,53.8333 200,53.5C 201.364,54.3707 202.53,55.3707 203.5,56.5C 203.328,57.4916 203.662,58.1583 204.5,58.5C 205.209,59.404 206.209,59.7373 207.5,59.5C 207.5,57.8333 207.5,56.1667 207.5,54.5C 199.729,52.753 199.729,51.4196 207.5,50.5C 207.5,49.5 207.5,48.5 207.5,47.5C 212.598,48.1909 217.598,49.3575 222.5,51C 226.83,52.1606 230.497,54.3272 233.5,57.5C 226.78,63.9622 218.78,66.6288 209.5,65.5C 211.76,65.2328 214.093,65.7328 216.5,67C 210.733,69.9646 204.733,72.1312 198.5,73.5C 193.823,73.8345 189.156,74.3345 184.5,75C 177.951,86.4174 169.951,96.7508 160.5,106C 158.685,105.162 157.019,104.329 155.5,103.5C 155.484,99.7261 157.15,98.7261 160.5,100.5C 162.571,98.8149 164.571,97.1482 166.5,95.5C 167.534,94.3129 168.867,93.4796 170.5,93C 167.961,92.2042 165.628,92.3709 163.5,93.5C 162.778,94.5511 161.778,95.2178 160.5,95.5C 158.917,93.4922 157.917,91.1589 157.5,88.5C 156.99,84.1869 157.657,80.1869 159.5,76.5C 161.384,76.2882 162.717,75.2882 163.5,73.5C 164.167,74.8333 164.833,76.1667 165.5,77.5C 167.62,76.1285 168.62,76.7952 168.5,79.5C 170.698,79.8799 172.365,79.2132 173.5,77.5C 175.226,75.7721 176.559,73.7721 177.5,71.5C 178.097,71.2648 178.43,70.7648 178.5,70C 177.944,68.9889 177.278,68.1556 176.5,67.5C 178.403,64.6603 180.236,61.6603 182,58.5C 182.98,60.0589 183.813,61.7256 184.5,63.5C 187.413,64.7486 188.08,63.9153 186.5,61C 190.288,56.7358 190.955,52.0691 188.5,47C 189.448,46.5172 190.448,46.3505 191.5,46.5C 191.369,47.3764 191.702,48.0431 192.5,48.5C 194.55,47.9234 195.55,46.5901 195.5,44.5C 197.806,44.9926 200.139,45.3259 202.5,45.5 Z"/></g>
<g><path style="opacity:1" fill="#ffcdc1" d="M 216.5,57.5 C 217.675,57.281 218.675,57.6143 219.5,58.5C 217.948,59.7979 216.948,59.4646 216.5,57.5 Z"/></g>
<g><path style="opacity:1" fill="#fdefdc" d="M 204.5,58.5 C 203.662,58.1583 203.328,57.4916 203.5,56.5C 204.15,56.1961 204.817,55.8627 205.5,55.5C 206.798,57.0517 206.465,58.0517 204.5,58.5 Z"/></g>
<g><path style="opacity:1" fill="#f7d9cb" d="M 203.5,47.5 C 207.5,48.1667 207.5,48.8333 203.5,49.5C 203.5,48.8333 203.5,48.1667 203.5,47.5 Z"/></g>
<g><path style="opacity:1" fill="#4a418b" d="M 47.5,81.5 C 48.7994,83.1534 48.4661,84.6534 46.5,86C 44.5,86.6667 42.5,86.6667 40.5,86C 43.1867,84.9514 45.52,83.4514 47.5,81.5 Z"/></g>
<g><path style="opacity:1" fill="#787fac" d="M 141.5,78.5 C 136.833,78.5 132.167,78.5 127.5,78.5C 127.337,80.8568 127.503,83.1902 128,85.5C 129.908,82.6677 130.741,83.001 130.5,86.5C 129.5,86.5 128.5,86.5 127.5,86.5C 127.819,91.3633 127.486,96.03 126.5,100.5C 126.5,92.8333 126.5,85.1667 126.5,77.5C 131.695,77.1795 136.695,77.5128 141.5,78.5 Z"/></g>
<g><path style="opacity:1" fill="#eb8385" d="M 157.5,88.5 C 157.917,91.1589 158.917,93.4922 160.5,95.5C 159.573,97.4759 158.24,97.8092 156.5,96.5C 157.393,93.9159 157.726,91.2492 157.5,88.5 Z"/></g>
<g><path style="opacity:1" fill="#f29795" d="M 163.5,93.5 C 165.628,92.3709 167.961,92.2042 170.5,93C 168.867,93.4796 167.534,94.3129 166.5,95.5C 166.179,93.9519 165.179,93.2852 163.5,93.5 Z"/></g>
<g><path style="opacity:1" fill="#3b3a91" d="M 184.5,78.5 C 186.903,78.448 189.236,78.7814 191.5,79.5C 189.622,84.9224 186.956,89.9224 183.5,94.5C 189.278,103.844 193.278,113.844 195.5,124.5C 191.818,124.665 188.152,124.499 184.5,124C 182.525,118.404 180.358,112.904 178,107.5C 176.989,106.663 175.822,106.33 174.5,106.5C 174.808,112.425 174.475,118.259 173.5,124C 169.683,125.023 166.183,124.523 163,122.5C 162.65,118.619 163.15,114.952 164.5,111.5C 164.18,114.898 164.513,118.232 165.5,121.5C 167.884,123.722 170.551,124.056 173.5,122.5C 173.666,116.158 173.5,109.825 173,103.5C 171.055,104.863 168.888,105.697 166.5,106C 165.359,106.741 165.359,107.575 166.5,108.5C 165.757,109.182 165.091,109.849 164.5,110.5C 163.402,109.399 163.235,108.066 164,106.5C 172.065,98.0246 178.898,88.6913 184.5,78.5 Z"/></g>
<g><path style="opacity:1" fill="#343493" d="M 64.5,82.5 C 65.7683,83.787 65.435,84.787 63.5,85.5C 65.2156,86.5487 66.5489,87.882 67.5,89.5C 70.1777,90.9095 72.8443,90.7428 75.5,89C 74.244,88.5831 73.5774,87.7498 73.5,86.5C 73.2011,84.396 73.5344,82.396 74.5,80.5C 75.7678,81.4279 77.1011,81.5946 78.5,81C 80.3333,79.1667 82.1667,77.3333 84,75.5C 84.49,76.7932 84.6567,78.1266 84.5,79.5C 83.7839,81.5563 83.1172,83.723 82.5,86C 83.4885,98.0864 83.8218,110.253 83.5,122.5C 80.5,122.5 77.5,122.5 74.5,122.5C 74.7059,118.102 74.3726,113.768 73.5,109.5C 73.8623,102.996 71.3623,101.329 66,104.5C 65.2086,105.745 64.7086,107.078 64.5,108.5C 64.5,113.167 64.5,117.833 64.5,122.5C 61.5525,122.777 58.7191,122.444 56,121.5C 55.5001,107.504 55.3334,93.504 55.5,79.5C 59.2339,79.982 62.0673,78.6486 64,75.5C 64.4966,77.8098 64.6633,80.1432 64.5,82.5 Z"/></g>
<g><path style="opacity:1" fill="#989ec8" d="M 73.5,86.5 C 73.5774,87.7498 74.244,88.5831 75.5,89C 72.8443,90.7428 70.1777,90.9095 67.5,89.5C 69.1667,89.5 70.8333,89.5 72.5,89.5C 72.2627,88.209 72.596,87.209 73.5,86.5 Z"/></g>
<g><path style="opacity:1" fill="#343591" d="M 141.5,78.5 C 145.881,78.3718 150.215,78.7051 154.5,79.5C 155.011,82.6332 155.344,85.7999 155.5,89C 154.179,94.666 153.346,100.499 153,106.5C 150.258,109.104 147.758,108.771 145.5,105.5C 142.966,102.578 142.966,99.5778 145.5,96.5C 145.167,96.1667 144.833,95.8333 144.5,95.5C 143.502,97.4899 142.502,99.4899 141.5,101.5C 140.675,102.386 139.675,102.719 138.5,102.5C 138.5,105.167 138.5,107.833 138.5,110.5C 138.837,114.308 138.337,117.974 137,121.5C 133.943,122.451 130.777,122.784 127.5,122.5C 126.508,115.352 126.175,108.019 126.5,100.5C 127.486,96.03 127.819,91.3633 127.5,86.5C 128.5,86.5 129.5,86.5 130.5,86.5C 130.741,83.001 129.908,82.6677 128,85.5C 127.503,83.1902 127.337,80.8568 127.5,78.5C 132.167,78.5 136.833,78.5 141.5,78.5 Z"/></g>
<g><path style="opacity:1" fill="#ebebf3" d="M 139.5,80.5 C 146.277,81.3215 148.277,84.9882 145.5,91.5C 143.696,92.7681 141.696,93.4348 139.5,93.5C 138.305,89.12 138.305,84.7867 139.5,80.5 Z"/></g>
<g><path style="opacity:1" fill="#3d3e8c" d="M 97.5,78.5 C 97.5,79.1667 97.8333,79.5 98.5,79.5C 98.1727,82.4818 98.1727,85.3151 98.5,88C 98.8333,88.1667 99.1667,88.3333 99.5,88.5C 100.251,87.624 100.751,86.624 101,85.5C 103.873,89.0441 107.04,89.3775 110.5,86.5C 110.229,88.4305 109.229,89.7638 107.5,90.5C 106.5,90.5 105.5,90.5 104.5,90.5C 103.29,96.0955 102.623,101.762 102.5,107.5C 104.467,107.739 106.301,107.406 108,106.5C 108.499,102.848 108.665,99.1817 108.5,95.5C 109.215,100.949 110.549,106.282 112.5,111.5C 111.448,111.649 110.448,111.483 109.5,111C 110.28,109.927 110.113,108.76 109,107.5C 103.131,110.798 100.631,108.964 101.5,102C 101.483,97.7032 102.149,93.5365 103.5,89.5C 100.365,89.5482 98.6981,91.2148 98.5,94.5C 97.8076,93.9747 97.3076,93.3081 97,92.5C 96.1482,93.5707 95.3149,94.5707 94.5,95.5C 94.5476,89.5397 95.5476,83.873 97.5,78.5 Z"/></g>
<g><path style="opacity:1" fill="#343491" d="M 25.5,72.5 C 27.5,72.5 29.5,72.5 31.5,72.5C 31.281,73.675 31.6143,74.675 32.5,75.5C 33.7112,74.7261 33.7112,73.8928 32.5,73C 34.3185,72.2172 35.6518,72.7172 36.5,74.5C 34.0752,75.6493 34.0752,76.316 36.5,76.5C 35.024,78.5 33.1906,80.1666 31,81.5C 30.3854,84.0451 30.8854,86.3785 32.5,88.5C 38.7635,91.929 43.9301,96.5957 48,102.5C 51.3206,118.514 44.8206,125.681 28.5,124C 19.9848,121.295 16.6515,115.629 18.5,107C 21.1667,106.333 23.8333,106.333 26.5,107C 28.3371,110.17 30.8371,112.67 34,114.5C 37.2026,113.246 38.2026,110.913 37,107.5C 32.2805,101.814 26.9472,96.8137 21,92.5C 18.6261,88.1065 17.9595,83.4398 19,78.5C 20.4055,75.5914 22.5722,73.5914 25.5,72.5 Z"/></g>
<g><path style="opacity:1" fill="#39358f" d="M 229.5,85.5 C 229.898,81.2411 227.898,79.4078 223.5,80C 224.448,79.5172 225.448,79.3505 226.5,79.5C 225.478,74.8196 222.478,72.1529 217.5,71.5C 210.151,72.0269 209.818,73.3602 216.5,75.5C 213.597,76.9044 210.93,76.571 208.5,74.5C 208.167,75 207.833,75.5 207.5,76C 209.423,77.9052 211.756,79.0719 214.5,79.5C 212.752,81.1599 212.252,83.1599 213,85.5C 218.284,89.9458 223.45,94.6125 228.5,99.5C 231.197,103.724 232.197,108.391 231.5,113.5C 230.549,114.919 230.216,116.585 230.5,118.5C 229.5,118.5 228.5,118.5 227.5,118.5C 227.5,116.833 227.5,115.167 227.5,113.5C 226.167,113.5 224.833,113.5 223.5,113.5C 223.5,116.833 223.5,120.167 223.5,123.5C 223.167,123.5 222.833,123.5 222.5,123.5C 222.99,119.513 222.324,115.846 220.5,112.5C 220.099,111.009 219.932,109.342 220,107.5C 214.988,102.49 209.655,97.823 204,93.5C 203.153,91.8068 202.32,90.1401 201.5,88.5C 200.846,84.1606 201.846,80.3273 204.5,77C 203.944,76.6174 203.611,76.1174 203.5,75.5C 203.833,74.8333 204.167,74.1667 204.5,73.5C 207.568,72.9782 210.568,72.1449 213.5,71C 223.208,69.5162 229.208,73.5162 231.5,83C 231.316,84.3756 230.649,85.2089 229.5,85.5 Z"/></g>
<g><path style="opacity:1" fill="#393783" d="M 64.5,82.5 C 64.6633,80.1432 64.4966,77.8098 64,75.5C 62.0673,78.6486 59.2339,79.982 55.5,79.5C 55.3334,93.504 55.5001,107.504 56,121.5C 58.7191,122.444 61.5525,122.777 64.5,122.5C 64.5,117.833 64.5,113.167 64.5,108.5C 65.6497,113.316 65.8163,118.316 65,123.5C 61.6667,124.833 58.3333,124.833 55,123.5C 54.5001,108.504 54.3334,93.5037 54.5,78.5C 56.604,78.7989 58.604,78.4656 60.5,77.5C 58.5405,76.4808 56.5405,76.4808 54.5,77.5C 63.5918,67.3792 66.9251,69.0458 64.5,82.5 Z"/></g>
<g><path style="opacity:1" fill="#3b3891" d="M 211.5,111.5 C 209.973,111.427 208.973,112.094 208.5,113.5C 207.833,113.5 207.5,113.833 207.5,114.5C 205.656,116.279 204.99,118.612 205.5,121.5C 201.171,117.839 199.338,113.172 200,107.5C 202.737,106.39 205.571,106.223 208.5,107C 210.863,107.589 211.863,109.089 211.5,111.5 Z"/></g>
<g><path style="opacity:1" fill="#323291" d="M 110.5,86.5 C 112.068,87.8695 113.901,88.8695 116,89.5C 116.698,95.714 118.032,101.714 120,107.5C 121.223,113.052 121.389,118.552 120.5,124C 117.453,123.62 114.453,123.62 111.5,124C 110.475,121.929 109.642,119.762 109,117.5C 107.938,116.903 106.772,116.57 105.5,116.5C 101.878,117.629 99.878,120.129 99.5,124C 95.9085,124.789 92.4085,124.622 89,123.5C 90.3957,114.022 92.2291,104.689 94.5,95.5C 95.3149,94.5707 96.1482,93.5707 97,92.5C 97.3076,93.3081 97.8076,93.9747 98.5,94.5C 98.6981,91.2148 100.365,89.5482 103.5,89.5C 102.149,93.5365 101.483,97.7032 101.5,102C 100.631,108.964 103.131,110.798 109,107.5C 110.113,108.76 110.28,109.927 109.5,111C 110.448,111.483 111.448,111.649 112.5,111.5C 110.549,106.282 109.215,100.949 108.5,95.5C 107.549,94.0813 107.216,92.4147 107.5,90.5C 109.229,89.7638 110.229,88.4305 110.5,86.5 Z"/></g>
<g><path style="opacity:1" fill="#eaebf4" d="M 107.5,90.5 C 107.216,92.4147 107.549,94.0813 108.5,95.5C 108.665,99.1817 108.499,102.848 108,106.5C 106.301,107.406 104.467,107.739 102.5,107.5C 102.623,101.762 103.29,96.0955 104.5,90.5C 105.5,90.5 106.5,90.5 107.5,90.5 Z"/></g>
<g><path style="opacity:1" fill="#333290" d="M 157.5,115.5 C 156.817,117.176 155.483,117.843 153.5,117.5C 153.5,119.5 153.5,121.5 153.5,123.5C 151.833,123.5 150.167,123.5 148.5,123.5C 146.896,122.713 146.229,121.38 146.5,119.5C 146.338,117.473 146.505,115.473 147,113.5C 148.622,112.901 150.122,112.234 151.5,111.5C 153.282,110.28 155.282,109.614 157.5,109.5C 157.5,111.5 157.5,113.5 157.5,115.5 Z"/></g>
<g><path style="opacity:1" fill="#db3844" d="M 220.5,112.5 C 222.324,115.846 222.99,119.513 222.5,123.5C 222.737,124.791 222.404,125.791 221.5,126.5C 221.665,122.818 221.499,119.152 221,115.5C 220.667,118.833 220.333,122.167 220,125.5C 218.539,126.883 217.706,126.549 217.5,124.5C 218.765,123.486 219.431,121.986 219.5,120C 219.431,118.014 218.765,116.514 217.5,115.5C 217.19,114.262 216.69,114.262 216,115.5C 215.501,119.152 215.335,122.818 215.5,126.5C 213.796,124.241 212.796,124.907 212.5,128.5C 212.167,128.5 211.833,128.5 211.5,128.5C 210.9,127.1 209.9,126.1 208.5,125.5C 209.833,125.5 210.5,124.833 210.5,123.5C 211.542,122.209 212.708,122.209 214,123.5C 214.498,120.518 214.665,117.518 214.5,114.5C 216.142,112.919 218.142,112.253 220.5,112.5 Z"/></g>
<g><path style="opacity:1" fill="#48458b" d="M 84.5,79.5 C 84.5,94.1667 84.5,108.833 84.5,123.5C 81.7814,123.397 79.1147,123.731 76.5,124.5C 74.9707,124.471 73.804,123.804 73,122.5C 72.1864,117.98 72.353,113.646 73.5,109.5C 74.3726,113.768 74.7059,118.102 74.5,122.5C 77.5,122.5 80.5,122.5 83.5,122.5C 83.8218,110.253 83.4885,98.0864 82.5,86C 83.1172,83.723 83.7839,81.5563 84.5,79.5 Z"/></g>
<g><path style="opacity:1" fill="#8b8bc0" d="M 151.5,111.5 C 150.122,112.234 148.622,112.901 147,113.5C 146.505,115.473 146.338,117.473 146.5,119.5C 145.226,115.926 145.393,112.259 147,108.5C 147.908,110.439 149.408,111.439 151.5,111.5 Z"/></g>
<g><path style="opacity:1" fill="#bd385c" d="M 207.5,114.5 C 206.57,118.4 206.237,122.4 206.5,126.5C 205.549,125.081 205.216,123.415 205.5,121.5C 204.99,118.612 205.656,116.279 207.5,114.5 Z"/></g>
<g><path style="opacity:1" fill="#57559f" d="M 157.5,115.5 C 160.25,124.243 157.25,126.91 148.5,123.5C 150.167,123.5 151.833,123.5 153.5,123.5C 153.5,121.5 153.5,119.5 153.5,117.5C 155.483,117.843 156.817,117.176 157.5,115.5 Z"/></g>
<g><path style="opacity:1" fill="#313097" d="M 164.5,111.5 C 164.5,111.167 164.5,110.833 164.5,110.5C 165.091,109.849 165.757,109.182 166.5,108.5C 165.359,107.575 165.359,106.741 166.5,106C 168.888,105.697 171.055,104.863 173,103.5C 173.5,109.825 173.666,116.158 173.5,122.5C 170.551,124.056 167.884,123.722 165.5,121.5C 164.513,118.232 164.18,114.898 164.5,111.5 Z"/></g>
<g><path style="opacity:1" fill="#643075" d="M 211.5,111.5 C 212.833,112.167 213.833,113.167 214.5,114.5C 214.665,117.518 214.498,120.518 214,123.5C 212.708,122.209 211.542,122.209 210.5,123.5C 209.833,123.5 209.167,123.5 208.5,123.5C 208.192,121.076 208.526,118.743 209.5,116.5C 210.524,117.853 211.857,118.52 213.5,118.5C 213.817,114.828 212.151,113.162 208.5,113.5C 208.973,112.094 209.973,111.427 211.5,111.5 Z"/></g>
<g><path style="opacity:1" fill="#4e4d92" d="M 138.5,110.5 C 139.647,114.646 139.814,118.98 139,123.5C 135.591,124.622 132.091,124.789 128.5,124C 127.944,123.617 127.611,123.117 127.5,122.5C 130.777,122.784 133.943,122.451 137,121.5C 138.337,117.974 138.837,114.308 138.5,110.5 Z"/></g>
<g><path style="opacity:1" fill="#ffdeed" d="M 208.5,123.5 C 209.167,123.5 209.833,123.5 210.5,123.5C 210.5,124.833 209.833,125.5 208.5,125.5C 208.5,124.833 208.5,124.167 208.5,123.5 Z"/></g>
<g><path style="opacity:1" fill="#e1373c" d="M 231.5,113.5 C 232.5,113.5 233.5,113.5 234.5,113.5C 234.5,118.5 234.5,123.5 234.5,128.5C 233.5,128.5 232.5,128.5 231.5,128.5C 231.442,122.014 230.776,122.014 229.5,128.5C 227.5,128.5 225.5,128.5 223.5,128.5C 223.5,126.833 223.5,125.167 223.5,123.5C 223.5,120.167 223.5,116.833 223.5,113.5C 224.833,113.5 226.167,113.5 227.5,113.5C 227.5,115.167 227.5,116.833 227.5,118.5C 228.5,118.5 229.5,118.5 230.5,118.5C 230.216,116.585 230.549,114.919 231.5,113.5 Z"/></g>
<g><path style="opacity:1" fill="#ea1c28" d="M 208.5,113.5 C 212.151,113.162 213.817,114.828 213.5,118.5C 211.857,118.52 210.524,117.853 209.5,116.5C 208.526,118.743 208.192,121.076 208.5,123.5C 208.5,124.167 208.5,124.833 208.5,125.5C 209.9,126.1 210.9,127.1 211.5,128.5C 210.167,128.5 208.833,128.5 207.5,128.5C 207.167,127.833 206.833,127.167 206.5,126.5C 206.237,122.4 206.57,118.4 207.5,114.5C 207.5,113.833 207.833,113.5 208.5,113.5 Z"/></g>
<g><path style="opacity:1" fill="#da463d" d="M 204.5,128.5 C 203.5,128.5 202.5,128.5 201.5,128.5C 201.5,127.5 201.5,126.5 201.5,125.5C 202.5,125.5 203.5,125.5 204.5,125.5C 204.5,126.5 204.5,127.5 204.5,128.5 Z"/></g>
<g><path style="opacity:1" fill="#fbd9d8" d="M 215.5,126.5 C 215.5,127.167 215.5,127.833 215.5,128.5C 214.5,128.5 213.5,128.5 212.5,128.5C 212.796,124.907 213.796,124.241 215.5,126.5 Z"/></g>
<g><path style="opacity:1" fill="#f01f21" d="M 217.5,115.5 C 217.5,118.5 217.5,121.5 217.5,124.5C 217.706,126.549 218.539,126.883 220,125.5C 220.333,122.167 220.667,118.833 221,115.5C 221.499,119.152 221.665,122.818 221.5,126.5C 221.167,127.167 220.833,127.833 220.5,128.5C 218.833,128.5 217.167,128.5 215.5,128.5C 215.5,127.833 215.5,127.167 215.5,126.5C 215.335,122.818 215.501,119.152 216,115.5C 216.69,114.262 217.19,114.262 217.5,115.5 Z"/></g>
<g><path style="opacity:1" fill="#502f76" d="M 217.5,115.5 C 218.765,116.514 219.431,118.014 219.5,120C 219.431,121.986 218.765,123.486 217.5,124.5C 217.5,121.5 217.5,118.5 217.5,115.5 Z"/></g>
<g><path style="opacity:1" fill="#f3f1ef" d="M 222.5,123.5 C 222.833,123.5 223.167,123.5 223.5,123.5C 223.5,125.167 223.5,126.833 223.5,128.5C 222.5,128.5 221.5,128.5 220.5,128.5C 220.833,127.833 221.167,127.167 221.5,126.5C 222.404,125.791 222.737,124.791 222.5,123.5 Z"/></g>
<g><path style="opacity:1" fill="#ffd0cc" d="M 231.5,128.5 C 230.833,128.5 230.167,128.5 229.5,128.5C 230.776,122.014 231.442,122.014 231.5,128.5 Z"/></g>
</svg>
