<?xml version="1.0" encoding="UTF-8"?>
<!DOCTYPE svg PUBLIC "-//W3C//DTD SVG 1.1//EN" "http://www.w3.org/Graphics/SVG/1.1/DTD/svg11.dtd">
<svg xmlns="http://www.w3.org/2000/svg" version="1.1" width="292px" height="173px" style="shape-rendering:geometricPrecision; text-rendering:geometricPrecision; image-rendering:optimizeQuality; fill-rule:evenodd; clip-rule:evenodd" xmlns:xlink="http://www.w3.org/1999/xlink">
<g><path style="opacity:1" fill="#fcfdfd" d="M -0.5,-0.5 C 96.8333,-0.5 194.167,-0.5 291.5,-0.5C 291.5,57.1667 291.5,114.833 291.5,172.5C 194.167,172.5 96.8333,172.5 -0.5,172.5C -0.5,114.833 -0.5,57.1667 -0.5,-0.5 Z"/></g>
<g><path style="opacity:1" fill="#36679a" d="M 7.5,149.5 C 22.1542,106.355 48.8208,72.8555 87.5,49C 100.449,42.0173 114.115,37.0173 128.5,34C 132.167,30.3333 135.833,26.6667 139.5,23C 109.068,27.2161 82.4018,39.5494 59.5,60C 40.8725,77.6189 25.7059,97.7856 14,120.5C 31.2969,75.862 61.7969,43.362 105.5,23C 121.467,16.1751 138.133,12.5085 155.5,12C 168.585,5.20407 182.252,3.87074 196.5,8C 207.04,12.2708 217.04,17.6041 226.5,24C 230.369,27.5338 233.869,31.3672 237,35.5C 237.743,38.7829 237.076,41.7829 235,44.5C 205.775,79.0323 172.275,83.8656 134.5,59C 129.564,54.4035 125.064,49.5702 121,44.5C 90.0345,52.98 64.0345,69.3133 43,93.5C 28.8936,110.71 17.0602,129.377 7.5,149.5 Z"/></g>
<g><path style="opacity:1" fill="#fbfcfd" d="M 176.5,8.5 C 177.5,8.5 178.5,8.5 179.5,8.5C 180.167,15.1667 180.833,15.1667 181.5,8.5C 182.5,8.5 183.5,8.5 184.5,8.5C 184.598,14.373 185.598,14.7064 187.5,9.5C 188.744,15.3257 190.411,15.6591 192.5,10.5C 193.429,11.6888 193.762,13.0222 193.5,14.5C 194.5,14.5 195.5,14.5 196.5,14.5C 196.5,13.5 196.5,12.5 196.5,11.5C 210.123,15.5636 221.29,23.2302 230,34.5C 231.301,36.3646 231.635,38.3646 231,40.5C 216.382,65.8917 194.549,76.3917 165.5,72C 149.593,67.5873 137.26,58.4207 128.5,44.5C 130.059,42.8693 132.059,42.036 134.5,42C 149.258,39.7712 163.925,40.2712 178.5,43.5C 184.866,40.6361 190.866,37.1361 196.5,33C 176.155,30.0848 155.822,29.7515 135.5,32C 142.237,24.1387 150.237,17.972 159.5,13.5C 161.712,17.1097 162.712,16.443 162.5,11.5C 163.5,11.5 164.5,11.5 165.5,11.5C 165.238,12.9778 165.571,14.3112 166.5,15.5C 167.167,13.8333 167.833,12.1667 168.5,10.5C 169.429,11.6888 169.762,13.0222 169.5,14.5C 170.5,14.5 171.5,14.5 172.5,14.5C 172.907,7.95141 173.907,7.95141 175.5,14.5C 176.308,14.1924 176.975,13.6924 177.5,13C 176.62,11.6439 176.286,10.1439 176.5,8.5 Z"/></g>
<g><path style="opacity:1" fill="#b0b0b0" d="M 73.5,77.5 C 81.3428,76.1796 89.3428,76.1796 97.5,77.5C 97.3764,78.1067 97.0431,78.44 96.5,78.5C 89.0182,77.508 81.3516,77.1746 73.5,77.5 Z"/></g>
<g><path style="opacity:1" fill="#686868" d="M 73.5,77.5 C 81.3516,77.1746 89.0182,77.508 96.5,78.5C 95.237,83.1263 94.0703,87.793 93,92.5C 89.6064,93.4558 86.1064,93.7892 82.5,93.5C 81.7102,97.8723 80.7102,102.206 79.5,106.5C 82.4281,107.484 85.4281,107.817 88.5,107.5C 87.0087,113.132 85.6753,118.799 84.5,124.5C 81.1667,124.5 77.8333,124.5 74.5,124.5C 71.6208,135.133 68.9541,145.8 66.5,156.5C 61.3054,156.821 56.3054,156.487 51.5,155.5C 58.2672,129.216 65.6005,103.216 73.5,77.5 Z"/></g>
<g><path style="opacity:1" fill="#686868" d="M 110.5,95.5 C 109.503,98.817 108.503,102.15 107.5,105.5C 110.061,107.094 113.061,108.094 116.5,108.5C 114.85,113.769 113.516,119.102 112.5,124.5C 109.167,124.5 105.833,124.5 102.5,124.5C 99.4845,135.237 96.4845,145.904 93.5,156.5C 88.6367,156.819 83.97,156.486 79.5,155.5C 83.8308,138.839 88.1642,122.173 92.5,105.5C 93.7903,102.358 94.7903,99.0248 95.5,95.5C 96.9871,89.905 98.6538,84.2383 100.5,78.5C 108.5,77.1667 116.5,77.1667 124.5,78.5C 122.696,83.3831 121.363,88.3831 120.5,93.5C 116.671,92.931 113.337,93.5977 110.5,95.5 Z"/></g>
<g><path style="opacity:1" fill="#356799" d="M 208.5,77.5 C 213.214,77.1734 217.88,77.5067 222.5,78.5C 215.008,104.803 207.675,131.136 200.5,157.5C 195.489,157.666 190.489,157.499 185.5,157C 186.451,156.282 186.617,155.449 186,154.5C 182.169,158.128 177.669,159.295 172.5,158C 170.147,155.867 169.147,153.2 169.5,150C 173.366,133.678 177.866,117.511 183,101.5C 186.206,95.6478 191.04,93.1478 197.5,94C 199.667,94.8333 201.167,96.3333 202,98.5C 204.472,91.5841 206.639,84.5841 208.5,77.5 Z"/></g>
<g><path style="opacity:1" fill="#356799" d="M 107.5,105.5 C 108.503,102.15 109.503,98.817 110.5,95.5C 115.875,95.8282 121.208,95.4948 126.5,94.5C 128.165,89.1834 129.832,83.8501 131.5,78.5C 136.12,77.5067 140.786,77.1734 145.5,77.5C 144.168,83.4937 142.835,89.4937 141.5,95.5C 144.187,95.3359 146.854,95.5026 149.5,96C 146.6,98.3968 144.267,101.23 142.5,104.5C 141.009,105.244 139.509,105.91 138,106.5C 133.708,120.004 130.208,133.67 127.5,147.5C 128.552,147.351 129.552,147.517 130.5,148C 129.58,150.835 128.58,153.668 127.5,156.5C 114.501,160.634 109.667,156.3 113,143.5C 116.521,131.139 120.021,118.805 123.5,106.5C 118.208,105.505 112.875,105.172 107.5,105.5 Z"/></g>
<g><path style="opacity:1" fill="#356799" d="M 159.5,93.5 C 172.873,92.3711 178.373,98.3711 176,111.5C 172.949,123.708 169.282,135.708 165,147.5C 159.27,156.613 151.103,160.113 140.5,158C 135.439,155.376 133.439,151.21 134.5,145.5C 136.049,134.636 138.549,123.969 142,113.5C 144.552,103.792 150.386,97.1249 159.5,93.5 Z"/></g>
<g><path style="opacity:1" fill="#356799" d="M 228.5,117.5 C 224.066,118.794 219.733,118.794 215.5,117.5C 217.543,98.9212 227.543,91.4212 245.5,95C 248.882,97.0185 250.216,100.019 249.5,104C 245.71,121.661 241.21,139.161 236,156.5C 231.55,157.8 227.05,157.8 222.5,156.5C 223.506,155.604 223.506,154.938 222.5,154.5C 217.427,159.165 212.26,159.498 207,155.5C 206.424,147.543 207.757,139.876 211,132.5C 212.122,130.376 213.622,128.543 215.5,127C 221.458,124.354 227.124,121.188 232.5,117.5C 233.833,113.5 235.167,109.5 236.5,105.5C 235.652,103.717 234.319,103.217 232.5,104C 230.472,108.274 229.139,112.774 228.5,117.5 Z"/></g>
<g><path style="opacity:1" fill="#3b6a9b" d="M 95.5,95.5 C 94.7903,99.0248 93.7903,102.358 92.5,105.5C 89.1016,105.82 85.7683,105.487 82.5,104.5C 83.2728,101.569 84.2728,98.7359 85.5,96C 88.8168,95.5017 92.1501,95.335 95.5,95.5 Z"/></g>
<g><path style="opacity:1" fill="#356799" d="M 262.5,127.5 C 260.708,131.915 259.874,136.581 260,141.5C 261.018,137.751 262.185,134.084 263.5,130.5C 267.162,119.179 270.829,107.846 274.5,96.5C 278.795,95.3391 283.129,95.1725 287.5,96C 279.062,117.977 270.229,139.81 261,161.5C 259.269,163.617 257.102,165.117 254.5,166C 248.843,166.499 243.176,166.666 237.5,166.5C 237.873,163.426 238.539,160.426 239.5,157.5C 244.227,158.273 246.727,156.273 247,151.5C 249.665,132.847 252.165,114.18 254.5,95.5C 259.167,95.5 263.833,95.5 268.5,95.5C 266.284,106.127 264.284,116.794 262.5,127.5 Z"/></g>
<g><path style="opacity:1" fill="#f1f4f7" d="M 159.5,105.5 C 160.5,105.5 161.5,105.5 162.5,105.5C 160.004,119.318 156.337,132.818 151.5,146C 150.552,146.483 149.552,146.649 148.5,146.5C 150.461,132.318 154.128,118.651 159.5,105.5 Z"/></g>
<g><path style="opacity:1" fill="#f0f3f7" d="M 196.5,105.5 C 197.5,105.5 198.5,105.5 199.5,105.5C 196.954,119.304 193.288,132.804 188.5,146C 187.552,146.483 186.552,146.649 185.5,146.5C 185.392,142.753 185.892,139.086 187,135.5C 189.565,125.219 192.731,115.219 196.5,105.5 Z"/></g>
<g><path style="opacity:1" fill="#85a1bf" d="M 215.5,117.5 C 219.733,118.794 224.066,118.794 228.5,117.5C 226.603,118.805 224.269,119.471 221.5,119.5C 219.167,119.167 216.833,118.833 214.5,118.5C 214.624,117.893 214.957,117.56 215.5,117.5 Z"/></g>
<g><path style="opacity:1" fill="#a5b9cf" d="M 11.5,122.5 C 12.5983,123.601 12.765,124.934 12,126.5C 10.7485,128.001 9.74848,129.668 9,131.5C 9.20584,128.394 10.0392,125.394 11.5,122.5 Z"/></g>
<g><path style="opacity:1" fill="#eef1f6" d="M 228.5,128.5 C 229.097,128.735 229.43,129.235 229.5,130C 227.612,135.054 226.112,140.22 225,145.5C 222.786,148.308 221.286,147.975 220.5,144.5C 221.774,141.633 222.607,138.633 223,135.5C 224.666,133.004 226.5,130.671 228.5,128.5 Z"/></g>
<g><path style="opacity:1" fill="#c1cede" d="M 262.5,127.5 C 262.263,128.791 262.596,129.791 263.5,130.5C 262.185,134.084 261.018,137.751 260,141.5C 259.874,136.581 260.708,131.915 262.5,127.5 Z"/></g>
<g><path style="opacity:1" fill="#90a8c4" d="M 7.5,149.5 C 7.17426,152.311 6.34093,154.978 5,157.5C 4.73574,154.461 5.56908,151.794 7.5,149.5 Z"/></g>
<g><path style="opacity:1" fill="#c7c7c7" d="M 51.5,155.5 C 56.3054,156.487 61.3054,156.821 66.5,156.5C 61.3197,157.815 55.9864,157.815 50.5,156.5C 50.6236,155.893 50.9569,155.56 51.5,155.5 Z"/></g>
<g><path style="opacity:1" fill="#c3c3c3" d="M 79.5,155.5 C 83.97,156.486 88.6367,156.819 93.5,156.5C 88.6523,157.814 83.6523,157.814 78.5,156.5C 78.6236,155.893 78.9569,155.56 79.5,155.5 Z"/></g>
</svg>
