<?xml version="1.0" encoding="UTF-8"?>
<svg version="1.1" xmlns="http://www.w3.org/2000/svg" width="1024" height="341">
<path d="M0 0 C337.92 0 675.84 0 1024 0 C1024 112.53 1024 225.06 1024 341 C686.08 341 348.16 341 0 341 C0 228.47 0 115.94 0 0 Z " fill="#FEFEFE" transform="translate(0,0)"/>
<path d="M0 0 C-1.50336986 3.82675963 -3.83522408 5.48440888 -7 8 C-7.33 8.99 -7.66 9.98 -8 11 C-9.55541992 12.51660156 -9.55541992 12.51660156 -11.54296875 14.140625 C-16.14518763 18.04578686 -20.2200484 22.32134133 -24.3125 26.75 C-25.70409438 28.2451014 -27.09600868 29.73990512 -28.48828125 31.234375 C-29.09196533 31.88631836 -29.69564941 32.53826172 -30.31762695 33.20996094 C-31.39547743 34.35679009 -32.5068791 35.47349543 -33.65698242 36.54785156 C-35.25360594 38.07418641 -35.25360594 38.07418641 -36 41 C-37.671875 42.6484375 -37.671875 42.6484375 -39.75 44.375 C-46.039423 49.32869812 -46.039423 49.32869812 -50 56 C-51.671875 57.6484375 -51.671875 57.6484375 -53.75 59.375 C-60.039423 64.32869812 -60.039423 64.32869812 -64 71 C-65.671875 72.6484375 -65.671875 72.6484375 -67.75 74.375 C-74.039423 79.32869812 -74.039423 79.32869812 -78 86 C-79.671875 87.6484375 -79.671875 87.6484375 -81.75 89.375 C-84.19202747 91.42734224 -86.34649817 93.38114799 -88.5 95.75 C-91.77499939 98.69749945 -94.85559056 99.5494567 -99 101 C-99.33 101.66 -99.66 102.32 -100 103 C-102.16382955 103.64761423 -104.3597145 104.18820195 -106.5625 104.6875 C-113.5720899 106.33922186 -120.47203032 108.26211297 -127.375 110.3125 C-137.41113076 113.28814602 -147.4923524 116.05288957 -157.62255859 118.69067383 C-158.65977051 118.96419678 -159.69698242 119.23771973 -160.765625 119.51953125 C-162.13895996 119.87688354 -162.13895996 119.87688354 -163.54003906 120.24145508 C-165.98285206 120.91933845 -165.98285206 120.91933845 -168.05004883 122.03564453 C-170.2037452 123.10076293 -172.06914397 123.50340405 -174.43359375 123.91015625 C-180.73395573 125.09400062 -186.87952736 126.75513136 -193.0625 128.4375 C-194.74182617 128.88706055 -194.74182617 128.88706055 -196.45507812 129.34570312 C-199.64353673 130.20780249 -202.82240895 131.09878314 -206 132 C-206.79962158 132.21213135 -207.59924316 132.4242627 -208.4230957 132.64282227 C-215.06363604 134.57505916 -220.37882428 138.20300762 -226.0625 142.0625 C-228.0981078 143.41924573 -230.13457016 144.77471016 -232.171875 146.12890625 C-233.16251953 146.79035645 -234.15316406 147.45180664 -235.17382812 148.13330078 C-239.64101235 151.08389603 -244.19341094 153.88987457 -248.75366211 156.69335938 C-253.26697396 159.48762601 -257.57470017 162.48961656 -261.7890625 165.72265625 C-264.49761739 167.28749273 -266.91464807 167.64195773 -270 168 C-270.33 168.99 -270.66 169.98 -271 171 C-272.65 171.33 -274.3 171.66 -276 172 C-274.72217784 169.26951538 -273.33406328 166.99594754 -271.41796875 164.671875 C-270.90443848 164.04482666 -270.3909082 163.41777832 -269.86181641 162.77172852 C-269.03302979 161.7709729 -269.03302979 161.7709729 -268.1875 160.75 C-267.0116474 159.31646477 -265.83586829 157.88286926 -264.66015625 156.44921875 C-264.05574707 155.71493652 -263.45133789 154.9806543 -262.82861328 154.22412109 C-259.91500571 150.68033404 -257.01895619 147.12234093 -254.125 143.5625 C-253.57416748 142.88541992 -253.02333496 142.20833984 -252.45581055 141.51074219 C-249.22357245 137.53033271 -246.04896286 133.5128849 -242.921875 129.44921875 C-240.24211051 126.03415303 -237.49396385 122.67606859 -234.75 119.3125 C-230.61726422 114.2456527 -226.52629623 109.15179199 -222.5 104 C-221.60686585 102.86711259 -220.71363539 101.73430109 -219.8203125 100.6015625 C-217.76586194 97.99224967 -215.75041444 95.35594808 -213.7421875 92.7109375 C-212.62040841 91.26514626 -211.49802316 89.81982512 -210.375 88.375 C-209.87291016 87.69953125 -209.37082031 87.0240625 -208.85351562 86.328125 C-205.41540801 81.95637426 -202.25817069 79.83001106 -197.07885742 77.82055664 C-194.85166313 77.01478877 -194.85166313 77.01478877 -192.46484375 75.41015625 C-189.00376237 73.43004472 -185.39117361 72.49196528 -181.5625 71.4375 C-180.08435576 71.02052132 -178.60648564 70.60256959 -177.12890625 70.18359375 C-176.41557129 69.9827417 -175.70223633 69.78188965 -174.96728516 69.57495117 C-173.33846157 69.09891747 -171.72678427 68.56465351 -170.12109375 68.015625 C-166.58401465 66.86463555 -163.01881806 65.95568894 -159.41308594 65.046875 C-145.86089885 61.6304336 -132.60683793 57.4999256 -119.33935547 53.12207031 C-116.7909193 52.28286436 -114.23937567 51.45367578 -111.6875 50.625 C-110.94145508 50.37427734 -110.19541016 50.12355469 -109.42675781 49.86523438 C-104.91642159 48.40451204 -100.67908282 47.67757007 -95.9621582 47.24658203 C-93.60940836 46.95091482 -91.82981552 46.25229497 -89.75 45.125 C-86.10703974 43.36370791 -82.642961 42.35803802 -78.6875 41.5 C-69.11692128 39.40295012 -60.92513 37.12016233 -53.0234375 31.1875 C-48.98647487 28.26670016 -44.7845779 25.64339857 -40.5625 23 C-39.73186035 22.47849365 -38.9012207 21.9569873 -38.04541016 21.41967773 C-36.42715701 20.4039861 -34.80851775 19.38890932 -33.18945312 18.37451172 C-30.38898286 16.61641096 -27.59973603 14.841504 -24.8125 13.0625 C-23.98492188 12.5365625 -23.15734375 12.010625 -22.3046875 11.46875 C-20.74396183 10.47411805 -19.18675773 9.4739423 -17.6328125 8.46875 C-16.90835937 8.0046875 -16.18390625 7.540625 -15.4375 7.0625 C-14.81746094 6.66160156 -14.19742187 6.26070312 -13.55859375 5.84765625 C-12 5 -12 5 -10 5 C-10 4.34 -10 3.68 -10 3 C-9.05125 2.690625 -8.1025 2.38125 -7.125 2.0625 C-1.05882353 0 -1.05882353 0 0 0 Z " fill="#293359" transform="translate(662,8)"/>
<path d="M0 0 C-1.50336986 3.82675963 -3.83522408 5.48440888 -7 8 C-7.33 8.99 -7.66 9.98 -8 11 C-9.55541992 12.51660156 -9.55541992 12.51660156 -11.54296875 14.140625 C-16.14518763 18.04578686 -20.2200484 22.32134133 -24.3125 26.75 C-25.70409438 28.2451014 -27.09600868 29.73990512 -28.48828125 31.234375 C-29.09196533 31.88631836 -29.69564941 32.53826172 -30.31762695 33.20996094 C-31.39547743 34.35679009 -32.5068791 35.47349543 -33.65698242 36.54785156 C-35.25360594 38.07418641 -35.25360594 38.07418641 -36 41 C-37.671875 42.6484375 -37.671875 42.6484375 -39.75 44.375 C-46.039423 49.32869812 -46.039423 49.32869812 -50 56 C-51.671875 57.6484375 -51.671875 57.6484375 -53.75 59.375 C-60.039423 64.32869812 -60.039423 64.32869812 -64 71 C-65.671875 72.6484375 -65.671875 72.6484375 -67.75 74.375 C-74.039423 79.32869812 -74.039423 79.32869812 -78 86 C-79.671875 87.6484375 -79.671875 87.6484375 -81.75 89.375 C-84.19202747 91.42734224 -86.34649817 93.38114799 -88.5 95.75 C-91.77499939 98.69749945 -94.85559056 99.5494567 -99 101 C-99.33 101.66 -99.66 102.32 -100 103 C-102.16382955 103.64761423 -104.3597145 104.18820195 -106.5625 104.6875 C-113.5720899 106.33922186 -120.47203032 108.26211297 -127.375 110.3125 C-137.41113076 113.28814602 -147.4923524 116.05288957 -157.62255859 118.69067383 C-158.65977051 118.96419678 -159.69698242 119.23771973 -160.765625 119.51953125 C-162.13895996 119.87688354 -162.13895996 119.87688354 -163.54003906 120.24145508 C-165.98317364 120.91941816 -165.98317364 120.91941816 -168.05175781 122.03662109 C-170.19871452 123.09826159 -172.04861989 123.49384411 -174.40625 123.89453125 C-182.08663909 125.33389932 -189.55679775 127.57227267 -197.0703125 129.69726562 C-198.19179688 130.00728516 -199.31328125 130.31730469 -200.46875 130.63671875 C-201.48388672 130.92248779 -202.49902344 131.20825684 -203.54492188 131.50268555 C-206 132 -206 132 -208 131 C-196.57142857 121 -196.57142857 121 -191 121 C-191 120.34 -191 119.68 -191 119 C-189.5390625 117.7109375 -189.5390625 117.7109375 -187.625 116.375 C-186.99851562 115.92898437 -186.37203125 115.48296875 -185.7265625 115.0234375 C-184 114 -184 114 -182 114 C-182 113.34 -182 112.68 -182 112 C-178.90155144 109.83108601 -175.51670735 108.27432111 -172.125 106.625 C-167.71209652 104.4547196 -163.95547605 101.90606404 -160 99 C-159.01 98.67 -158.02 98.34 -157 98 C-156.67 97.34 -156.34 96.68 -156 96 C-158.97 95.505 -158.97 95.505 -162 95 C-162 94.34 -162 93.68 -162 93 C-161.14277344 92.97421875 -160.28554688 92.9484375 -159.40234375 92.921875 C-152.50714484 92.57983582 -147.5853905 92.18904288 -142 88 C-141.67 87.34 -141.34 86.68 -141 86 C-143.31 85.67 -145.62 85.34 -148 85 C-144.62124348 82.74749565 -143.16053037 82.72741824 -139.1875 82.5625 C-134.47261187 82.24284657 -131.00578932 81.7066144 -127 79 C-126.67 78.34 -126.34 77.68 -126 77 C-128.64 76.67 -131.28 76.34 -134 76 C-134 75.34 -134 74.68 -134 74 C-132.24236328 73.92265625 -132.24236328 73.92265625 -130.44921875 73.84375 C-119.5366071 73.14455175 -113.47481273 71.1671997 -105 64 C-102.78629239 62.5017799 -100.57346196 61.04658926 -98.3125 59.625 C-97.73693359 59.25810059 -97.16136719 58.89120117 -96.56835938 58.51318359 C-93.26616466 56.41269117 -89.94584099 54.34191042 -86.62109375 52.27734375 C-85.89301514 51.82472168 -85.16493652 51.37209961 -84.41479492 50.90576172 C-82.99621409 50.02552808 -81.57586205 49.14814107 -80.15356445 48.27392578 C-77.54521554 46.65909367 -75.17742544 45.17742544 -73 43 C-70.98559596 42.16066498 -68.94180335 41.48031584 -66.875 40.78125 C-64.80424247 40.05807568 -64.80424247 40.05807568 -63 38 C-62.01 38 -61.02 38 -60 38 C-59.7721582 37.40920654 -59.54431641 36.81841309 -59.30957031 36.2097168 C-57.63298075 33.38070634 -55.85181293 32.34809947 -53.046875 30.64453125 C-51.53867187 29.71713135 -51.53867187 29.71713135 -50 28.77099609 C-48.9275 28.12469238 -47.855 27.47838867 -46.75 26.8125 C-44.55688428 25.46811227 -42.36417396 24.12306297 -40.171875 22.77734375 C-39.10904297 22.12878418 -38.04621094 21.48022461 -36.95117188 20.81201172 C-33.26727019 18.55010584 -29.62583409 16.22848467 -26 13.875 C-24.94296875 13.19308594 -23.8859375 12.51117188 -22.796875 11.80859375 C-21.01480196 10.6562197 -19.233471 9.50269668 -17.453125 8.34765625 C-12.22299169 5 -12.22299169 5 -10 5 C-10 4.34 -10 3.68 -10 3 C-9.05125 2.690625 -8.1025 2.38125 -7.125 2.0625 C-1.05882353 0 -1.05882353 0 0 0 Z " fill="#C23625" transform="translate(662,8)"/>
<path d="M0 0 C5.28 0 10.56 0 16 0 C16.66 5.61 17.32 11.22 18 17 C18.66 17 19.32 17 20 17 C20.09087891 15.66195312 20.09087891 15.66195312 20.18359375 14.296875 C20.26738281 13.12640625 20.35117188 11.9559375 20.4375 10.75 C20.51871094 9.58984375 20.59992188 8.4296875 20.68359375 7.234375 C21 4 21 4 22 0 C27.28 0 32.56 0 38 0 C38 15.51 38 31.02 38 47 C34.7 47 31.4 47 28 47 C28 37.76 28 28.52 28 19 C27.34 19 26.68 19 26 19 C25.86722656 20.26714844 25.73445313 21.53429687 25.59765625 22.83984375 C25.41928506 24.53906399 25.24089884 26.23828266 25.0625 27.9375 C24.97548828 28.76830078 24.88847656 29.59910156 24.79882812 30.45507812 C24.21918883 35.97238544 23.61752271 41.48680174 23 47 C20.36 47 17.72 47 15 47 C14.87153687 45.9627478 14.87153687 45.9627478 14.74047852 44.90454102 C14.35223699 41.78995789 13.95745795 38.67623823 13.5625 35.5625 C13.42779297 34.47388672 13.29308594 33.38527344 13.15429688 32.26367188 C13.02216797 31.22919922 12.89003906 30.19472656 12.75390625 29.12890625 C12.63345947 28.17056885 12.5130127 27.21223145 12.38891602 26.22485352 C12.22559083 24.0339958 12.22559083 24.0339958 11 23 C10.67 30.92 10.34 38.84 10 47 C6.7 47 3.4 47 0 47 C0 31.49 0 15.98 0 0 Z " fill="#28335A" transform="translate(70,204)"/>
<path d="M0 0 C3.96 0 7.92 0 12 0 C12 0.66 12 1.32 12 2 C12.99 1.34 13.98 0.68 15 0 C17.48046875 -0.1953125 17.48046875 -0.1953125 20.1875 -0.125 C21.08855469 -0.10695312 21.98960937 -0.08890625 22.91796875 -0.0703125 C23.60503906 -0.04710937 24.29210937 -0.02390625 25 0 C25.33 0.66 25.66 1.32 26 2 C26.55558594 1.67773438 27.11117187 1.35546875 27.68359375 1.0234375 C30.30097577 -0.13297749 32.21070331 -0.33198648 35.0625 -0.375 C36.34833984 -0.41753906 36.34833984 -0.41753906 37.66015625 -0.4609375 C40 0 40 0 41.62792969 1.51220703 C43.571067 5.03543998 43.37202874 8.35031707 43.29296875 12.265625 C43.28872391 13.05902283 43.28447906 13.85242065 43.28010559 14.66986084 C43.2633504 17.1969232 43.22570506 19.72317983 43.1875 22.25 C43.17244903 23.96613429 43.15876134 25.68228112 43.14648438 27.3984375 C43.11345735 31.59926746 43.06169765 35.79949725 43 40 C39.04 40 35.08 40 31 40 C31 29.11 31 18.22 31 7 C29.68 7 28.36 7 27 7 C27 17.56 27 28.12 27 39 C23.37 39 19.74 39 16 39 C16 28.44 16 17.88 16 7 C14.68 7 13.36 7 12 7 C12 17.89 12 28.78 12 40 C8.04 40 4.08 40 0 40 C0 26.8 0 13.6 0 0 Z " fill="#313B60" transform="translate(911,212)"/>
<path d="M0 0 C0.76183594 0.00386719 1.52367187 0.00773438 2.30859375 0.01171875 C4.75779127 0.3385614 6.42950917 1.09295399 8.5625 2.3125 C8.5625 1.6525 8.5625 0.9925 8.5625 0.3125 C12.1925 0.3125 15.8225 0.3125 19.5625 0.3125 C19.76053736 6.05977273 19.90555146 11.80505423 20.00195312 17.55493164 C20.0421409 19.50971063 20.09670412 21.46424977 20.16601562 23.41821289 C20.2632876 26.23123249 20.30846862 29.04107226 20.34375 31.85546875 C20.38504028 32.72648727 20.42633057 33.5975058 20.46887207 34.49491882 C20.47072172 37.00644595 20.38153095 38.93558068 19.5625 41.3125 C16.19108264 44.61127006 12.71951189 46.11333148 8.11328125 46.90625 C7.04464844 46.8753125 5.97601562 46.844375 4.875 46.8125 C3.79863281 46.8021875 2.72226562 46.791875 1.61328125 46.78125 C-1.77718034 46.2603084 -3.73177793 45.40551327 -6.4375 43.3125 C-7.25 40.125 -7.25 40.125 -7.4375 37.3125 C-3.8075 37.3125 -0.1775 37.3125 3.5625 37.3125 C3.5625 37.9725 3.5625 38.6325 3.5625 39.3125 C4.8825 39.3125 6.2025 39.3125 7.5625 39.3125 C7.5625 37.6625 7.5625 36.0125 7.5625 34.3125 C6.0775 34.8075 6.0775 34.8075 4.5625 35.3125 C-2.36533505 36.03880529 -2.36533505 36.03880529 -5.375 34 C-8.65705466 28.78732495 -7.6620822 22.23484674 -7.6875 16.3125 C-7.7184375 14.51039063 -7.7184375 14.51039063 -7.75 12.671875 C-7.75515625 11.52203125 -7.7603125 10.3721875 -7.765625 9.1875 C-7.7749707 8.13304687 -7.78431641 7.07859375 -7.79394531 5.9921875 C-7.4375 3.3125 -7.4375 3.3125 -6.04956055 1.46801758 C-3.93046253 -0.05094213 -2.58794122 -0.05673396 0 0 Z " fill="#2F3A5E" transform="translate(642.4375,211.6875)"/>
<path d="M0 0 C3.08045275 1.3318129 4.54494502 2.60074173 7 5 C8.02628246 8.07884739 8.12906515 10.2126363 8.1328125 13.4375 C8.13410156 14.49710938 8.13539063 15.55671875 8.13671875 16.6484375 C8.13285156 17.75445312 8.12898437 18.86046875 8.125 20 C8.13080078 21.65902344 8.13080078 21.65902344 8.13671875 23.3515625 C8.13542969 24.41117188 8.13414062 25.47078125 8.1328125 26.5625 C8.13168457 27.53316406 8.13055664 28.50382812 8.12939453 29.50390625 C7.98109098 32.36476577 7.68463542 34.31728771 5.609375 36.38671875 C0.2288846 40.15080132 -4.54137914 40.80415802 -11.05859375 40.5625 C-14.12986174 39.97516588 -15.24677844 39.52361844 -17.25 37.1875 C-20.42611398 31.40243525 -20.18335279 26.56976626 -20.1875 20.125 C-20.19974609 19.13113281 -20.21199219 18.13726562 -20.22460938 17.11328125 C-20.22654297 16.15035156 -20.22847656 15.18742188 -20.23046875 14.1953125 C-20.23457764 13.31891113 -20.23868652 12.44250977 -20.24291992 11.53955078 C-19.84394973 7.36860811 -18.69818532 4.71410884 -15.7734375 1.72265625 C-10.83626332 -1.34395476 -5.60921506 -0.81312946 0 0 Z " fill="#303B5F" transform="translate(881,212)"/>
<path d="M0 0 C4.29 0 8.58 0 13 0 C13 0.66 13 1.32 13 2 C13.99 1.34 14.98 0.68 16 0 C23.07185 -0.67350952 23.07185 -0.67350952 26.1027832 1.52587891 C28.71401663 4.93113428 28.50457251 7.93531522 28.390625 12.046875 C28.38496521 12.81807678 28.37930542 13.58927856 28.37347412 14.3838501 C28.35113589 16.83987279 28.30094763 19.29442055 28.25 21.75 C28.22993154 23.41794763 28.21168137 25.08591821 28.1953125 26.75390625 C28.15127992 30.83650323 28.08227283 34.91800181 28 39 C24.37 39 20.74 39 17 39 C17 28.44 17 17.88 17 7 C15.68 7 14.36 7 13 7 C13 17.89 13 28.78 13 40 C8.71 40 4.42 40 0 40 C0 26.8 0 13.6 0 0 Z " fill="#C64A3A" transform="translate(267,212)"/>
<path d="M0 0 C3.49078914 1.19150552 5.44496346 2.90137097 7.13671875 6.25 C8.66221528 11.10950026 8.11119443 15.94065355 8 21 C3.05 21 -1.9 21 -7 21 C-7 24.96 -7 28.92 -7 33 C-6.01 33 -5.02 33 -4 33 C-4 29.7 -4 26.4 -4 23 C-0.04 23 3.92 23 8 23 C8.63692964 29.79391618 7.92199562 33.0992783 3.703125 38.46875 C0.19539201 41.62249159 -4.31577064 41.28826069 -8.8203125 41.20703125 C-11.98996144 40.9059714 -13.6148156 40.11259189 -16 38 C-20.42213916 31.91237986 -20.61308416 26.83037678 -20.5 19.4375 C-20.51546875 18.42236328 -20.5309375 17.40722656 -20.546875 16.36132812 C-20.51509278 10.27900495 -20.10755223 6.59123139 -16 2 C-11.11591635 -1.25605577 -5.70883511 -0.56807819 0 0 Z " fill="#343E62" transform="translate(754,212)"/>
<path d="M0 0 C1.96247289 1.2470676 3.5616909 2.42153729 5.14755249 4.12773132 C5.79556544 7.21052104 5.98029242 9.21835165 5.83114624 12.27226257 C5.82124161 13.04204941 5.81133698 13.81183624 5.8011322 14.60494995 C5.76209399 17.05202275 5.67431529 19.49452682 5.58505249 21.94023132 C5.54992391 23.60357775 5.51798757 25.26699487 5.48934937 26.9304657 C5.41236969 30.99796821 5.29167971 35.06207669 5.14755249 39.12773132 C1.18755249 39.12773132 -2.77244751 39.12773132 -6.85244751 39.12773132 C-7.18244751 38.46773132 -7.51244751 37.80773132 -7.85244751 37.12773132 C-8.84244751 37.78773132 -9.83244751 38.44773132 -10.85244751 39.12773132 C-12.78994751 39.42851257 -12.78994751 39.42851257 -14.85244751 39.44023132 C-15.53307251 39.45698914 -16.21369751 39.47374695 -16.91494751 39.49101257 C-18.85244751 39.12773132 -18.85244751 39.12773132 -20.57119751 38.07304382 C-22.52282747 35.10989834 -22.36560602 32.1213119 -22.35244751 28.69023132 C-22.38338501 27.37152039 -22.41432251 26.05280945 -22.44619751 24.69413757 C-21.85244751 21.12773132 -21.85244751 21.12773132 -19.65322876 18.73320007 C-16.84089313 17.1211081 -14.72326273 16.38706176 -11.53994751 15.87773132 C-10.6569397 15.72820007 -9.77393188 15.57866882 -8.86416626 15.42460632 C-7.86836548 15.2776532 -7.86836548 15.2776532 -6.85244751 15.12773132 C-6.85244751 12.15773132 -6.85244751 9.18773132 -6.85244751 6.12773132 C-8.17244751 6.12773132 -9.49244751 6.12773132 -10.85244751 6.12773132 C-10.85244751 8.76773132 -10.85244751 11.40773132 -10.85244751 14.12773132 C-14.48244751 14.12773132 -18.11244751 14.12773132 -21.85244751 14.12773132 C-22.56823698 5.1803629 -22.56823698 5.1803629 -19.72744751 1.00273132 C-14.5015868 -2.48949063 -5.5897594 -2.63207028 0 0 Z " fill="#323D61" transform="translate(607.8524475097656,212.8722686767578)"/>
<path d="M0 0 C4.00322907 1.86472038 6.41241007 4.91967837 8 9 C8.26022279 13.01783984 8.08763938 16.9685883 8 21 C3.05 21 -1.9 21 -7 21 C-7 24.96 -7 28.92 -7 33 C-5.515 32.505 -5.515 32.505 -4 32 C-3.67 29.03 -3.34 26.06 -3 23 C0.63 23 4.26 23 8 23 C8.6122449 32.18367347 8.6122449 32.18367347 5.75 36 C0.70781231 39.66704559 -2.68766579 40.54942948 -9 40 C-13.26614543 39.24715081 -14.69773489 38.33128613 -17.64453125 35.1015625 C-20.93796984 30.30578887 -20.66603855 25.57903699 -20.5 19.9375 C-20.50257813 18.97005859 -20.50515625 18.00261719 -20.5078125 17.00585938 C-20.4208691 10.65464364 -19.81699262 5.90310157 -15.2109375 1.15625 C-10.54236495 -1.28526498 -5.0920824 -0.68316136 0 0 Z " fill="#333D61" transform="translate(556,212)"/>
<path d="M0 0 C3.29262003 1.22893565 5.39166754 2.78333509 7 6 C7.08649451 8.48099734 7.11565054 10.93344928 7.09765625 13.4140625 C7.0962413 14.14370209 7.09482635 14.87334167 7.09336853 15.62509155 C7.08776531 17.95843585 7.07521235 20.29168464 7.0625 22.625 C7.05748541 24.20572778 7.05292243 25.78645707 7.04882812 27.3671875 C7.03779484 31.24482854 7.02052811 35.12239807 7 39 C3.37 39 -0.26 39 -4 39 C-4 38.34 -4 37.68 -4 37 C-4.99 37.7734375 -4.99 37.7734375 -6 38.5625 C-10.27077737 40.60891416 -12.40654966 40.11131863 -17 39 C-19.45003682 36.65019196 -19.96650847 35.26300704 -20.3984375 31.87109375 C-20.39070313 30.73800781 -20.38296875 29.60492188 -20.375 28.4375 C-20.38273437 27.30183594 -20.39046875 26.16617188 -20.3984375 24.99609375 C-20 22 -20 22 -18.83203125 20.234375 C-16.43663879 18.62042187 -14.0440226 17.74443124 -11.3125 16.8125 C-10.31863281 16.46832031 -9.32476562 16.12414062 -8.30078125 15.76953125 C-7.54152344 15.51558594 -6.78226562 15.26164063 -6 15 C-5.67 12.36 -5.34 9.72 -5 7 C-6.32 7 -7.64 7 -9 7 C-9 9.64 -9 12.28 -9 15 C-12.63 15 -16.26 15 -20 15 C-20.44070796 6.33274336 -20.44070796 6.33274336 -17 2 C-11.92135056 -1.38576629 -5.92926228 -0.57116747 0 0 Z " fill="#C43A28" transform="translate(374,212)"/>
<path d="M0 0 C1.68222656 -0.05607422 1.68222656 -0.05607422 3.3984375 -0.11328125 C7.27885586 0.39878364 8.86062425 1.60341177 11.625 4.3125 C13.13106515 7.32463029 12.74660331 10.42532622 12.72265625 13.7265625 C12.7212413 14.45620209 12.71982635 15.18584167 12.71836853 15.93759155 C12.71276531 18.27093585 12.70021235 20.60418464 12.6875 22.9375 C12.68248541 24.51822778 12.67792243 26.09895707 12.67382812 27.6796875 C12.66279484 31.55732854 12.64552811 35.43489807 12.625 39.3125 C11.70976562 39.30089844 10.79453125 39.28929687 9.8515625 39.27734375 C8.66304687 39.26832031 7.47453125 39.25929687 6.25 39.25 C5.06664062 39.23839844 3.88328125 39.22679687 2.6640625 39.21484375 C-0.29421521 39.09783407 -0.29421521 39.09783407 -2.375 40.3125 C-9.68944368 40.77690912 -9.68944368 40.77690912 -12.3125 39 C-14.310481 35.82673607 -14.53503841 33.02739083 -14.5625 29.375 C-14.57667969 28.52035156 -14.59085938 27.66570312 -14.60546875 26.78515625 C-14.34575288 23.99871315 -14.04230482 22.56882418 -12.375 20.3125 C-9.5546875 18.828125 -9.5546875 18.828125 -6.25 17.5625 C-5.15429688 17.13453125 -4.05859375 16.7065625 -2.9296875 16.265625 C-2.08664063 15.95109375 -1.24359375 15.6365625 -0.375 15.3125 C-0.045 12.6725 0.285 10.0325 0.625 7.3125 C-0.695 7.3125 -2.015 7.3125 -3.375 7.3125 C-3.375 9.9525 -3.375 12.5925 -3.375 15.3125 C-6.675 15.3125 -9.975 15.3125 -13.375 15.3125 C-13.86486486 6.00506757 -13.86486486 6.00506757 -11.5625 2.75 C-7.74982242 0.24452616 -4.468592 0.0971433 0 0 Z " fill="#C33D2C" transform="translate(232.375,211.6875)"/>
<path d="M0 0 C3.63 0 7.26 0 11 0 C11.33 10.23 11.66 20.46 12 31 C13.32 31.33 14.64 31.66 16 32 C16 21.44 16 10.88 16 0 C19.63 0 23.26 0 27 0 C27 12.54 27 25.08 27 38 C23.37 38 19.74 38 16 38 C16 37.34 16 36.68 16 36 C15.360625 36.515625 14.72125 37.03125 14.0625 37.5625 C10.01918496 39.46038257 6.23852043 39.52386884 2 38 C-0.59023424 34.377084 -0.25621425 30.43784978 -0.1953125 26.171875 C-0.1924826 25.42286926 -0.18965271 24.67386353 -0.18673706 23.90216064 C-0.1755726 21.51794224 -0.15047531 19.13410421 -0.125 16.75 C-0.11496535 15.13021377 -0.10584035 13.51042164 -0.09765625 11.890625 C-0.07564555 7.92693754 -0.04114175 3.96353319 0 0 Z " fill="#293459" transform="translate(685,213)"/>
<path d="M0 0 C3.63 0 7.26 0 11 0 C11.99 7.59 12.98 15.18 14 23 C14.75115321 19.99538715 15.16527775 17.694445 15.31640625 14.671875 C15.35830078 13.87265625 15.40019531 13.0734375 15.44335938 12.25 C15.48267578 11.425 15.52199219 10.6 15.5625 9.75 C15.60568359 8.90953125 15.64886719 8.0690625 15.69335938 7.203125 C15.79908543 5.13559329 15.90001295 3.06781719 16 1 C19.3 1 22.6 1 26 1 C26.02735618 2.70824133 26.04655506 4.41661405 26.0625 6.125 C26.07410156 7.07632813 26.08570313 8.02765625 26.09765625 9.0078125 C25.99691773 12.09444087 25.5116862 14.95641469 25 18 C24.75625971 21.38866711 24.56463884 24.77331433 24.39453125 28.16601562 C24.19091369 31.86272749 23.84391035 35.39228324 23 39 C22.34 39 21.68 39 21 39 C20.566875 39.928125 20.566875 39.928125 20.125 40.875 C19 43 19 43 17 45 C14.41935871 45.14497985 11.95056116 45.18677545 9.375 45.125 C8.66859375 45.11597656 7.9621875 45.10695313 7.234375 45.09765625 C5.48943902 45.07407603 3.74467705 45.03820461 2 45 C2 43.02 2 41.04 2 39 C3.32 39 4.64 39 6 39 C5.80664062 37.93523437 5.61328125 36.87046875 5.4140625 35.7734375 C3.91118064 27.41861354 2.5315527 19.07879296 1.4296875 10.66015625 C1.14141895 8.03378327 1.14141895 8.03378327 0 6 C-0.039992 4.00039988 -0.04346799 1.99952758 0 0 Z " fill="#303B5F" transform="translate(129,212)"/>
<path d="M0 0 C3.63 0 7.26 0 11 0 C11 2.97 11 5.94 11 9 C10.34 9 9.68 9 9 9 C9.01417969 10.08925781 9.02835937 11.17851562 9.04296875 12.30078125 C9.03711669 17.61562281 8.71456685 22.88946872 8.3125 28.1875 C8.25900391 29.15880859 8.20550781 30.13011719 8.15039062 31.13085938 C7.78165475 35.80899539 7.52511947 38.31725902 4.60546875 42.11328125 C0.58833681 45.02223886 -2.35074466 45.11450812 -7.1875 45.0625 C-8.81751953 45.04896484 -8.81751953 45.04896484 -10.48046875 45.03515625 C-11.31191406 45.02355469 -12.14335937 45.01195312 -13 45 C-13 43.02 -13 41.04 -13 39 C-11.515 38.505 -11.515 38.505 -10 38 C-10.61970908 30.24794632 -11.96451164 22.82373406 -13.62695312 15.23632812 C-14.65218418 10.37305261 -15.20851696 5.97077518 -15 1 C-12.03 1 -9.06 1 -6 1 C-5.51460131 2.83169318 -5.03702814 4.66546059 -4.5625 6.5 C-4.16224609 8.03140625 -4.16224609 8.03140625 -3.75390625 9.59375 C-2.92261746 13.34962476 -2.47713304 17.18293564 -2 21 C-1.01 10.605 -1.01 10.605 0 0 Z " fill="#C33A29" transform="translate(464,212)"/>
<path d="M0 0 C3.28390845 1.61210051 5.34264388 3.68528775 7 7 C7.13415472 9.6723621 7.04318541 12.32250488 7 15 C3.37 15 -0.26 15 -4 15 C-4 12.36 -4 9.72 -4 7 C-5.32 7 -6.64 7 -8 7 C-7.67 15.25 -7.34 23.5 -7 32 C-6.01 32.33 -5.02 32.66 -4 33 C-4 29.7 -4 26.4 -4 23 C-0.37 23 3.26 23 7 23 C7.65601863 29.01350408 6.90396775 33.27247141 3.3125 38.25390625 C-0.93667994 41.46232421 -5.4637375 41.00219652 -10.54296875 40.703125 C-13.86073795 40.02832448 -15.21869489 39.70636969 -17.375 37.1875 C-20.40913081 31.23593572 -20.21779508 26.17870036 -20.25 19.625 C-20.270625 18.5834375 -20.29125 17.541875 -20.3125 16.46875 C-20.36195077 6.80112452 -20.36195077 6.80112452 -17 3 C-12.36401641 -1.61573912 -6.10064939 -0.83259483 0 0 Z " fill="#333D61" transform="translate(833,212)"/>
<path d="M0 0 C1.80517447 1.21519062 3.37530539 2.60186789 4.9140625 4.140625 C5.05521411 6.81121351 4.95653357 9.46494738 4.9140625 12.140625 C1.2840625 12.140625 -2.3459375 12.140625 -6.0859375 12.140625 C-6.0859375 10.160625 -6.0859375 8.180625 -6.0859375 6.140625 C-7.4059375 6.140625 -8.7259375 6.140625 -10.0859375 6.140625 C-9.18962373 10.08102325 -8.46196627 11.82999254 -5.30078125 14.44140625 C-4.21925781 15.10527344 -3.13773437 15.76914063 -2.0234375 16.453125 C-0.93933594 17.12988281 0.14476562 17.80664062 1.26171875 18.50390625 C2.13699219 19.04402344 3.01226562 19.58414063 3.9140625 20.140625 C5.70716211 21.93372461 5.21213293 24.46438478 5.2890625 26.890625 C5.26795304 31.32888876 5.25972351 32.67671154 2.5390625 36.328125 C-1.74502763 39.28618723 -4.9661296 39.50104469 -10.0859375 39.140625 C-13.69621908 38.43040567 -16.19485037 37.8879884 -19.0234375 35.515625 C-20.60737075 31.97506833 -20.27887859 28.99944679 -20.0859375 25.140625 C-16.7859375 25.140625 -13.4859375 25.140625 -10.0859375 25.140625 C-10.0859375 27.780625 -10.0859375 30.420625 -10.0859375 33.140625 C-8.4359375 33.140625 -6.7859375 33.140625 -5.0859375 33.140625 C-4.90293637 30.1516066 -4.84060024 28.80182287 -6.0859375 26.140625 C-8.73763483 24.03044122 -11.47265282 22.38401002 -14.421875 20.71875 C-18.66557327 18.20488768 -18.66557327 18.20488768 -20.0859375 16.140625 C-20.484375 13.109375 -20.484375 13.109375 -20.4609375 9.640625 C-20.47253906 7.92359375 -20.47253906 7.92359375 -20.484375 6.171875 C-20.0859375 3.140625 -20.0859375 3.140625 -18.75 1.296875 C-13.87335547 -2.09159162 -5.39514882 -2.22272049 0 0 Z " fill="#C33E2D" transform="translate(423.0859375,212.859375)"/>
<path d="M0 0 C6.93 0 13.86 0 21 0 C21 2.97 21 5.94 21 9 C18.03 9 15.06 9 12 9 C12 12.3 12 15.6 12 19 C14.31 19 16.62 19 19 19 C19 21.64 19 24.28 19 27 C16.69 27 14.38 27 12 27 C12 33.6 12 40.2 12 47 C8.04 47 4.08 47 0 47 C0 31.49 0 15.98 0 0 Z " fill="#C33827" transform="translate(177,204)"/>
<path d="M0 0 C3.96 0 7.92 0 12 0 C12 12.54 12 25.08 12 38 C14.64 38 17.28 38 20 38 C20 40.97 20 43.94 20 47 C13.4 47 6.8 47 0 47 C0 31.49 0 15.98 0 0 Z " fill="#29355B" transform="translate(496,204)"/>
<path d="M0 0 C0.99 0.495 0.99 0.495 2 1 C0.19587357 4.26460973 -0.83394693 5.88929795 -4 8 C-5.12669331 10.02556261 -6.01513079 12.09736387 -6.9375 14.22265625 C-8 16 -8 16 -11 17 C-12.06111079 18.85598214 -12.06111079 18.85598214 -13 21 C-13.90830056 22.29186443 -14.84754453 23.56238618 -15.8125 24.8125 C-17.85521047 27.47300583 -19.80345316 30.16281284 -21.6875 32.9375 C-24 36 -24 36 -27 37 C-27.69937532 38.31647119 -28.36729133 39.65022151 -29 41 C-29.99 41.495 -29.99 41.495 -31 42 C-31.495 42.825 -31.99 43.65 -32.5 44.5 C-34 47 -34 47 -36 48 C-36.98696895 49.71074619 -37.97084246 51.42351405 -38.92578125 53.15234375 C-41.11762724 56.92231885 -43.37752625 59.5850175 -47 62 C-47.68268138 63.32520503 -48.3507041 64.65812182 -49 66 C-49.99 66.495 -49.99 66.495 -51 67 C-51.74918332 68.35317607 -52.45032021 69.73317807 -53.125 71.125 C-55.51719605 75.61573929 -58.37101692 78.44349654 -62.328125 81.58984375 C-64.1218537 82.91423675 -64.1218537 82.91423675 -65 85 C-66.97888961 85.72693904 -68.97954558 86.39816251 -71 87 C-70.46184997 82.95679388 -69.37096108 80.78750228 -66.75 77.6875 C-66.03457031 76.82640625 -65.31914062 75.9653125 -64.58203125 75.078125 C-64.17678223 74.59666016 -63.7715332 74.11519531 -63.35400391 73.61914062 C-60.67966021 70.42111549 -58.06436873 67.1745262 -55.4375 63.9375 C-54.86741211 63.23713623 -54.29732422 62.53677246 -53.70996094 61.81518555 C-50.39130743 57.73428182 -47.12975307 53.61787219 -43.921875 49.44921875 C-41.24211089 46.03415351 -38.49398235 42.67605301 -35.75 39.3125 C-31.53274825 34.14255584 -27.35905832 28.94385008 -23.25 23.6875 C-21.92388319 21.99778207 -20.59709762 20.30859194 -19.27001953 18.61962891 C-18.42771385 17.54545438 -17.58751891 16.46962115 -16.74951172 15.39208984 C-8.77581168 5.16294449 -8.77581168 5.16294449 -3 2 C-2.01 1.34 -1.02 0.68 0 0 Z " fill="#2A2B31" transform="translate(463,88)"/>
<path d="M0 0 C3.63 0 7.26 0 11 0 C11 1.98 11 3.96 11 6 C11.99 6 12.98 6 14 6 C14 7.65 14 9.3 14 11 C13.01 11.495 13.01 11.495 12 12 C11.67 20.25 11.34 28.5 11 37 C12.32 37 13.64 37 15 37 C15 38.98 15 40.96 15 43 C12.70858714 43.05384521 10.41681812 43.09272087 8.125 43.125 C6.84882813 43.14820313 5.57265625 43.17140625 4.2578125 43.1953125 C1 43 1 43 -1 41 C-1.22705078 38.11083984 -1.22705078 38.11083984 -1.1953125 34.4609375 C-1.18886719 33.15898437 -1.18242187 31.85703125 -1.17578125 30.515625 C-1.15906929 29.13541405 -1.14213939 27.75520571 -1.125 26.375 C-1.11497006 24.98698548 -1.10584423 23.59896411 -1.09765625 22.2109375 C-1.07401863 18.80711974 -1.04106867 15.40364494 -1 12 C-1.99 12 -2.98 12 -4 12 C-4 9.69 -4 7.38 -4 5 C-2.68 5 -1.36 5 0 5 C0 3.35 0 1.7 0 0 Z " fill="#C43F2E" transform="translate(319,208)"/>
<path d="M0 0 C2.39652528 -0.08139142 4.79025436 -0.14067009 7.1875 -0.1875 C7.86103516 -0.21263672 8.53457031 -0.23777344 9.22851562 -0.26367188 C13.71415591 -0.32931539 16.40396893 0.31144193 20 3 C20.33 3.33 20.66 3.66 21 4 C20.96777662 5.99784929 20.93190957 7.99620053 20.83984375 9.9921875 C20.86157003 12.31970465 20.86157003 12.31970465 23 15 C22.9375 18.5 22.9375 18.5 22 22 C17.69849234 25.65711838 13.53212956 25.36221966 8.1875 25.1875 C7.39923828 25.17396484 6.61097656 25.16042969 5.79882812 25.14648438 C3.86558831 25.11133456 1.93270318 25.05753361 0 25 C-0.33 23.68 -0.66 22.36 -1 21 C-0.01 20.67 0.98 20.34 2 20 C2 14.72 2 9.44 2 4 C1.01 3.67 0.02 3.34 -1 3 C-0.67 2.01 -0.34 1.02 0 0 Z " fill="#1D1D1D" transform="translate(335,281)"/>
<path d="M0 0 C0.80179688 0.00451172 1.60359375 0.00902344 2.4296875 0.01367188 C4.41149006 0.02546832 6.39325433 0.04340395 8.375 0.0625 C8.705 1.3825 9.035 2.7025 9.375 4.0625 C8.385 4.0625 7.395 4.0625 6.375 4.0625 C6.44460938 5.30386719 6.51421875 6.54523438 6.5859375 7.82421875 C6.64223028 9.46609158 6.69682881 11.10802311 6.75 12.75 C6.82541016 13.97493164 6.82541016 13.97493164 6.90234375 15.22460938 C7.04538155 21.11299894 7.04538155 21.11299894 5.18408203 23.74926758 C2.89580834 25.80973773 0.84308423 26.97303436 -2.1796875 27.55078125 C-2.94539062 27.49277344 -3.71109375 27.43476563 -4.5 27.375 C-5.67175781 27.30732422 -5.67175781 27.30732422 -6.8671875 27.23828125 C-7.44726562 27.18027344 -8.02734375 27.12226563 -8.625 27.0625 C-8.955 25.7425 -9.285 24.4225 -9.625 23.0625 C-6.325 22.7325 -3.025 22.4025 0.375 22.0625 C0.705 20.7425 1.035 19.4225 1.375 18.0625 C0.715 18.3925 0.055 18.7225 -0.625 19.0625 C-5.77934412 19.56948467 -5.77934412 19.56948467 -8.625 19.0625 C-11.5625 16.625 -11.5625 16.625 -13.625 14.0625 C-13.955 13.7325 -14.285 13.4025 -14.625 13.0625 C-15.02538554 8.89849038 -15.06684328 6.73999304 -12.75 3.1875 C-8.86519966 -0.69730034 -5.20409559 -0.05491335 0 0 Z " fill="#191919" transform="translate(608.625,286.9375)"/>
<path d="M0 0 C7.32314924 -0.48820995 7.32314924 -0.48820995 10.109375 1.52148438 C12.71015944 4.93098381 12.50452566 7.93700579 12.390625 12.046875 C12.38496521 12.81807678 12.37930542 13.58927856 12.37347412 14.3838501 C12.35113589 16.83987279 12.30094763 19.29442055 12.25 21.75 C12.22993154 23.41794763 12.21168137 25.08591821 12.1953125 26.75390625 C12.15127992 30.83650323 12.08227283 34.91800181 12 39 C8.37 39 4.74 39 1 39 C0.98018066 38.04633545 0.96036133 37.0926709 0.93994141 36.11010742 C0.86384986 32.57077701 0.77513839 29.03185583 0.68261719 25.49291992 C0.64434202 23.96142661 0.60948651 22.42984385 0.578125 20.89819336 C0.53244193 18.6961267 0.47445463 16.49467504 0.4140625 14.29296875 C0.40251129 13.60849167 0.39096008 12.92401459 0.37905884 12.21879578 C0.26726256 8.61539163 0.05605447 7.0840817 -2 4 C-1.34 2.68 -0.68 1.36 0 0 Z " fill="#C13726" transform="translate(283,212)"/>
<path d="M0 0 C2.31 0 4.62 0 7 0 C7 7.26 7 14.52 7 22 C7.99 22.33 8.98 22.66 10 23 C9.67 24.32 9.34 25.64 9 27 C7.02 27 5.04 27 3 27 C3 26.34 3 25.68 3 25 C2.505 25.33 2.01 25.66 1.5 26 C-2.0092218 27.40368872 -5.31477635 27.74581907 -9 27 C-11.9375 24.5625 -11.9375 24.5625 -14 22 C-14.33 21.67 -14.66 21.34 -15 21 C-15.4225153 16.35233168 -14.80400795 13.73867726 -12 10 C-8.85388747 7.90259164 -8.08811922 7.74671781 -4.5 7.8125 C-3.7265625 7.81894531 -2.953125 7.82539063 -2.15625 7.83203125 C0 8 0 8 3 9 C3 7.35 3 5.7 3 4 C1.68 3.67 0.36 3.34 -1 3 C-0.67 2.01 -0.34 1.02 0 0 Z " fill="#161616" transform="translate(479,279)"/>
<path d="M0 0 C1.25393555 0.03383789 1.25393555 0.03383789 2.53320312 0.06835938 C4.58541149 0.1269939 6.63669202 0.21666785 8.6875 0.3125 C8.6875 1.6325 8.6875 2.9525 8.6875 4.3125 C7.6975 4.3125 6.7075 4.3125 5.6875 4.3125 C5.73390625 5.56546875 5.7803125 6.8184375 5.828125 8.109375 C5.86564813 9.76039281 5.90204771 11.41143642 5.9375 13.0625 C5.98777344 14.3 5.98777344 14.3 6.0390625 15.5625 C6.13793619 21.692669 6.13793619 21.692669 3.859375 24.828125 C0.70652611 26.98294978 -1.77549385 27.43605748 -5.5 27.375 C-7.3871875 27.3440625 -7.3871875 27.3440625 -9.3125 27.3125 C-9.3125 25.9925 -9.3125 24.6725 -9.3125 23.3125 C-8.68601562 23.28671875 -8.05953125 23.2609375 -7.4140625 23.234375 C-6.59679687 23.17765625 -5.77953125 23.1209375 -4.9375 23.0625 C-4.12539063 23.01609375 -3.31328125 22.9696875 -2.4765625 22.921875 C-0.12411073 22.5202908 -0.12411073 22.5202908 0.9765625 20.265625 C1.21117187 19.62109375 1.44578125 18.9765625 1.6875 18.3125 C1.0275 18.6425 0.3675 18.9725 -0.3125 19.3125 C-7.40208838 19.8936138 -7.40208838 19.8936138 -11.25 17.4375 C-14.3929296 14.19933011 -14.50785715 11.94408825 -14.8359375 7.48046875 C-12.9471954 -0.34230637 -6.61569085 -0.33940008 0 0 Z " fill="#131313" transform="translate(816.3125,286.6875)"/>
<path d="M0 0 C-1.50336986 3.82675963 -3.83522408 5.48440888 -7 8 C-7.33 8.99 -7.66 9.98 -8 11 C-9.55541992 12.51660156 -9.55541992 12.51660156 -11.54296875 14.140625 C-16.14518763 18.04578686 -20.2200484 22.32134133 -24.3125 26.75 C-25.70409438 28.2451014 -27.09600868 29.73990512 -28.48828125 31.234375 C-29.39380737 32.21229004 -29.39380737 32.21229004 -30.31762695 33.20996094 C-31.39547743 34.35679009 -32.5068791 35.47349543 -33.65698242 36.54785156 C-35.25360594 38.07418641 -35.25360594 38.07418641 -36 41 C-37.671875 42.6484375 -37.671875 42.6484375 -39.75 44.375 C-46.039423 49.32869812 -46.039423 49.32869812 -50 56 C-51.671875 57.6484375 -51.671875 57.6484375 -53.75 59.375 C-60.039423 64.32869812 -60.039423 64.32869812 -64 71 C-65.671875 72.6484375 -65.671875 72.6484375 -67.75 74.375 C-74.039423 79.32869812 -74.039423 79.32869812 -78 86 C-79.671875 87.6484375 -79.671875 87.6484375 -81.75 89.375 C-84.23791102 91.46821569 -86.4588527 93.49086568 -88.6875 95.875 C-91.20117908 98.18486727 -92.64391448 98.71233553 -96 99 C-91.454828 93.60706081 -86.72249865 88.43430052 -81.875 83.3125 C-81.17246094 82.56677734 -80.46992187 81.82105469 -79.74609375 81.05273438 C-77.83646907 79.02939858 -75.92687127 77.00692163 -74 75 C-73.30535645 74.26031982 -72.61071289 73.52063965 -71.89501953 72.75854492 C-70 71 -70 71 -68 71 C-67.87625 70.360625 -67.7525 69.72125 -67.625 69.0625 C-67.41875 68.381875 -67.2125 67.70125 -67 67 C-66.01 66.505 -66.01 66.505 -65 66 C-64.77054688 65.2884375 -64.54109375 64.576875 -64.3046875 63.84375 C-62.43534519 59.76925539 -59.44948555 57.43363554 -56.125 54.5 C-49.95111834 48.90707608 -44.23173018 43.07796255 -38.6484375 36.90234375 C-35.7992873 33.78004494 -32.83547253 30.81150651 -29.81640625 27.85546875 C-27.20598636 25.1889108 -24.82245341 22.34343203 -22.4453125 19.46875 C-21.96835937 18.9840625 -21.49140625 18.499375 -21 18 C-20.34 18 -19.68 18 -19 18 C-18.73316406 17.42378906 -18.46632813 16.84757812 -18.19140625 16.25390625 C-16.57275071 13.19172839 -14.47323706 10.61994256 -12.33984375 7.90234375 C-10.81914723 5.9370042 -10.81914723 5.9370042 -10 3 C-7.0625 1.875 -7.0625 1.875 -4 1 C-2 0 -2 0 0 0 Z " fill="#857E81" transform="translate(662,8)"/>
<path d="M0 0 C2.31 0 4.62 0 7 0 C8.65 3.3 10.3 6.6 12 10 C14.48724903 6.68366796 16.23109915 3.70626844 18 0 C20.31 0 22.62 0 25 0 C25.33 1.32 25.66 2.64 26 4 C25.34 4 24.68 4 24 4 C24 9.61 24 15.22 24 21 C24.66 21 25.32 21 26 21 C25.67 22.32 25.34 23.64 25 25 C22.03 25 19.06 25 16 25 C15.67 23.68 15.34 22.36 15 21 C16.65 21 18.3 21 20 21 C19.67 17.04 19.34 13.08 19 9 C17.68 11.97 16.36 14.94 15 18 C13.35 18 11.7 18 10 18 C9.01 15.69 8.02 13.38 7 11 C6.67 13.97 6.34 16.94 6 20 C7.32 20.33 8.64 20.66 10 21 C9.67 22.32 9.34 23.64 9 25 C6.03 25 3.06 25 0 25 C-0.33 23.68 -0.66 22.36 -1 21 C-0.67 20.67 -0.34 20.34 0 20 C0.23678716 17.30764224 0.42198025 14.63501844 0.5625 11.9375 C0.60568359 11.17888672 0.64886719 10.42027344 0.69335938 9.63867188 C0.79973633 7.75934562 0.90039934 5.87969756 1 4 C0.34 4 -0.32 4 -1 4 C-0.67 2.68 -0.34 1.36 0 0 Z " fill="#181818" transform="translate(697,281)"/>
<path d="M0 0 C5.46341463 2.92682927 5.46341463 2.92682927 7 6 C7.375 9.3125 7.375 9.3125 7 13 C4.8272578 15.63016161 3.05326212 17.47336894 0 19 C-8.87635575 19.42950108 -8.87635575 19.42950108 -12 17 C-14.11569184 14.27982477 -14.93911153 12.41752096 -15.4375 9 C-14.8943967 5.27586307 -13.59513183 3.67145924 -11 1 C-7.53303962 -0.73348019 -3.79051063 -0.47699379 0 0 Z " fill="#151515" transform="translate(428,287)"/>
<path d="M0 0 C3.60401481 -0.08701039 7.20776012 -0.14039388 10.8125 -0.1875 C12.34874023 -0.22520508 12.34874023 -0.22520508 13.91601562 -0.26367188 C15.39038086 -0.27817383 15.39038086 -0.27817383 16.89453125 -0.29296875 C18.25348511 -0.31653442 18.25348511 -0.31653442 19.63989258 -0.34057617 C22 0 22 0 23.80078125 1.3359375 C25.64198455 3.89083198 25.28723268 6.09578688 25.1875 9.1875 C25.16042969 10.27417969 25.13335938 11.36085938 25.10546875 12.48046875 C25.07066406 13.31191406 25.03585937 14.14335937 25 15 C25.66 15 26.32 15 27 15 C26.67 16.32 26.34 17.64 26 19 C24.02 19 22.04 19 20 19 C20 14.05 20 9.1 20 4 C18.35 4.33 16.7 4.66 15 5 C15 8.3 15 11.6 15 15 C15.99 15 16.98 15 18 15 C17.67 16.32 17.34 17.64 17 19 C15.02 19 13.04 19 11 19 C11 14.05 11 9.1 11 4 C9.68 4.33 8.36 4.66 7 5 C6.67 8.3 6.34 11.6 6 15 C6.99 15 7.98 15 9 15 C8.67 16.32 8.34 17.64 8 19 C5.36 19 2.72 19 0 19 C-0.33 17.68 -0.66 16.36 -1 15 C-0.01 15 0.98 15 2 15 C2 11.37 2 7.74 2 4 C1.01 3.67 0.02 3.34 -1 3 C-0.67 2.01 -0.34 1.02 0 0 Z " fill="#212121" transform="translate(852,287)"/>
<path d="M0 0 C3.57909535 0.04614879 5.97203103 0.2779743 8.875 2.4375 C11.3125 5.375 11.3125 5.375 12.3125 12.375 C3.8975 12.87 3.8975 12.87 -4.6875 13.375 C-3.52472968 14.76656484 -3.52472968 14.76656484 -0.30859375 14.47265625 C1.08597077 14.46598369 2.48051743 14.45402532 3.875 14.4375 C4.58591797 14.43298828 5.29683594 14.42847656 6.02929688 14.42382812 C7.79040013 14.41200864 9.55146036 14.39407263 11.3125 14.375 C11 16.3125 11 16.3125 10.3125 18.375 C5.076666 20.120278 -0.87455559 20.72598531 -5.96484375 18.28125 C-9.3604866 15.67028536 -10.5412745 14.06957114 -11.4375 9.8125 C-10.51787577 5.59755562 -8.96409787 4.09217872 -5.6875 1.375 C-4.05531064 -0.25718936 -2.24806873 0.08736889 0 0 Z " fill="#171717" transform="translate(552.6875,286.625)"/>
<path d="M0 0 C2.98543419 1.30539573 3.8564334 2.34874658 6 5 C6 7.31 6 9.62 6 12 C-1.92 12.495 -1.92 12.495 -10 13 C-8.83722968 14.39156484 -8.83722968 14.39156484 -5.62109375 14.09765625 C-4.22652923 14.09098369 -2.83198257 14.07902532 -1.4375 14.0625 C-0.72658203 14.05798828 -0.01566406 14.05347656 0.71679688 14.04882812 C2.47790013 14.03700864 4.23896036 14.01907263 6 14 C5.6875 15.9375 5.6875 15.9375 5 18 C0.09603966 19.63465345 -4.88874134 19.641494 -10 19 C-12.45088481 17.57673985 -13.32767557 16.36432075 -15 14 C-15.33 13.67 -15.66 13.34 -16 13 C-16.40038554 8.83599038 -16.44184328 6.67749304 -14.125 3.125 C-10.03701651 -0.96298349 -5.53000233 -0.73564251 0 0 Z " fill="#171717" transform="translate(662,287)"/>
<path d="M0 0 C3.63467079 1.62400184 4.77408696 2.66113044 7 6 C7 7.98 7 9.96 7 12 C1.39 12 -4.22 12 -10 12 C-10 12.66 -10 13.32 -10 14 C-4.39 14 1.22 14 7 14 C7 14.99 7 15.98 7 17 C2.02597563 19.982029 -3.38006687 19.64491036 -9 19 C-12.07365786 17.19196596 -13.43019732 16.13960536 -15 13 C-15.34550163 9.98920008 -15.56701736 7.90735371 -15 5 C-10.73850683 -0.24491467 -6.58473396 -1.12985287 0 0 Z " fill="#161616" transform="translate(376,287)"/>
<path d="M0 0 C3.63467079 1.62400184 4.77408696 2.66113044 7 6 C7 7.98 7 9.96 7 12 C1.39 12 -4.22 12 -10 12 C-10 12.66 -10 13.32 -10 14 C-4.39 14 1.22 14 7 14 C7 14.99 7 15.98 7 17 C1.6592155 19.41883356 -3.20895317 19.7304023 -9 19 C-12.00197464 17.19881522 -13.45166366 16.09667268 -15 13 C-15.34550163 9.98920008 -15.56701736 7.90735371 -15 5 C-10.73850683 -0.24491467 -6.58473396 -1.12985287 0 0 Z " fill="#151515" transform="translate(843,287)"/>
<path d="M0 0 C2.9993049 1.27629996 4.45643506 2.22347865 6.3125 4.875 C7 7 7 7 7 12 C-1.415 12.495 -1.415 12.495 -10 13 C-8.83722968 14.39156484 -8.83722968 14.39156484 -5.62109375 14.09765625 C-4.22652923 14.09098369 -2.83198257 14.07902532 -1.4375 14.0625 C-0.72658203 14.05798828 -0.01566406 14.05347656 0.71679688 14.04882812 C2.47790013 14.03700864 4.23896036 14.01907263 6 14 C6.33 14.99 6.66 15.98 7 17 C1.6592155 19.41883356 -3.20895317 19.7304023 -9 19 C-12.00197464 17.19881522 -13.45166366 16.09667268 -15 13 C-15.58394161 5.75912409 -15.58394161 5.75912409 -13.125 2.5625 C-8.87533295 -0.56225519 -5.14971453 -0.49893428 0 0 Z " fill="#131313" transform="translate(895,287)"/>
<path d="M0 0 C1.91541138 -0.10841951 3.83259773 -0.18578079 5.75 -0.25 C7.35101562 -0.31960938 7.35101562 -0.31960938 8.984375 -0.390625 C12 0 12 0 14.375 1.6875 C16.33270801 4.47346909 16.42703824 5.88627353 16.25 9.25 C16.21390625 10.14203125 16.1778125 11.0340625 16.140625 11.953125 C16.07101562 12.96632813 16.07101562 12.96632813 16 14 C16.99 14.33 17.98 14.66 19 15 C18.67 16.32 18.34 17.64 18 19 C14.66666667 19 11.33333333 19 8 19 C6.0509375 19.12375 6.0509375 19.12375 4.0625 19.25 C0.96239647 19.24428025 0.13576675 19.08940737 -2.5625 17.3125 C-4 15 -4 15 -4 12.4375 C-2.78229408 9.46934183 -1.73290871 8.63974522 1 7 C3.578125 6.70703125 3.578125 6.70703125 6.25 6.8125 C7.14203125 6.83957031 8.0340625 6.86664063 8.953125 6.89453125 C9.62859375 6.92933594 10.3040625 6.96414063 11 7 C10.67 6.01 10.34 5.02 10 4 C6.37 4 2.74 4 -1 4 C-0.67 2.68 -0.34 1.36 0 0 Z " fill="#181818" transform="translate(728,287)"/>
<path d="M0 0 C1.60488281 -0.03867187 1.60488281 -0.03867187 3.2421875 -0.078125 C6.125 0.25 6.125 0.25 7.99609375 1.37890625 C9.64045737 4.10433938 9.41413678 6.28675979 9.3125 9.4375 C9.28542969 10.52417969 9.25835938 11.61085938 9.23046875 12.73046875 C9.19566406 13.56191406 9.16085937 14.39335937 9.125 15.25 C10.445 15.25 11.765 15.25 13.125 15.25 C12.795 16.57 12.465 17.89 12.125 19.25 C9.815 19.25 7.505 19.25 5.125 19.25 C5.125 18.59 5.125 17.93 5.125 17.25 C4.609375 17.58 4.09375 17.91 3.5625 18.25 C0.21097404 19.62498501 -2.28465387 19.63467994 -5.875 19.25 C-8.375 17.5625 -8.375 17.5625 -9.875 15.25 C-9.80605901 12.42341921 -9.34104373 10.88551417 -7.671875 8.609375 C-5.13884898 6.69308575 -3.32050648 6.9519233 -0.1875 7.0625 C0.80636719 7.08957031 1.80023437 7.11664063 2.82421875 7.14453125 C3.96310547 7.19673828 3.96310547 7.19673828 5.125 7.25 C5.125 6.26 5.125 5.27 5.125 4.25 C-0.815 4.745 -0.815 4.745 -6.875 5.25 C-6.875 -0.80163781 -5.52437161 0.07948736 0 0 Z " fill="#161616" transform="translate(785.875,286.75)"/>
<path d="M0 0 C1.28197266 -0.03867187 1.28197266 -0.03867187 2.58984375 -0.078125 C5.67665005 0.33149859 6.96436782 0.93964295 9.0625 3.25 C9.453125 6.16796875 9.453125 6.16796875 9.3125 9.4375 C9.27640625 10.52417969 9.2403125 11.61085938 9.203125 12.73046875 C9.13351562 13.97763672 9.13351562 13.97763672 9.0625 15.25 C10.0525 15.25 11.0425 15.25 12.0625 15.25 C12.0625 16.24 12.0625 17.23 12.0625 18.25 C11.43601562 18.23839844 10.80953125 18.22679687 10.1640625 18.21484375 C8.93816406 18.20130859 8.93816406 18.20130859 7.6875 18.1875 C6.46933594 18.17009766 6.46933594 18.17009766 5.2265625 18.15234375 C3.01312858 18.10533666 3.01312858 18.10533666 1.0625 19.25 C-6.05969451 19.70220283 -6.05969451 19.70220283 -9 18.1875 C-10.53737081 15.01026699 -9.7841463 12.57611047 -8.9375 9.25 C-5.51655758 6.96937172 -4.25562778 7.03074993 -0.25 7.125 C1.24080078 7.15207031 1.24080078 7.15207031 2.76171875 7.1796875 C3.52097656 7.20289063 4.28023437 7.22609375 5.0625 7.25 C5.0625 6.26 5.0625 5.27 5.0625 4.25 C0.7725 4.25 -3.5175 4.25 -7.9375 4.25 C-7.9375 3.26 -7.9375 2.27 -7.9375 1.25 C-5.04829306 0.28693102 -3.01502119 0.0544064 0 0 Z " fill="#101010" transform="translate(578.9375,286.75)"/>
<path d="M0 0 C2.64 0 5.28 0 8 0 C8 1.32 8 2.64 8 4 C7.34 4 6.68 4 6 4 C6.66 5.11375 7.32 6.2275 8 7.375 C10 10.75 10 10.75 10 13 C10.66 13 11.32 13 12 13 C12.433125 11.6078125 12.433125 11.6078125 12.875 10.1875 C14 7 14 7 16 4 C15.34 4 14.68 4 14 4 C14.33 2.68 14.66 1.36 15 0 C17.31 0 19.62 0 22 0 C22.6875 1.8125 22.6875 1.8125 23 4 C22.0223462 5.02185765 21.01839016 6.01873475 20 7 C19.20224025 8.23712022 18.44966054 9.50423815 17.73828125 10.79296875 C17.34189453 11.50517578 16.94550781 12.21738281 16.53710938 12.95117188 C16.13298828 13.68916016 15.72886719 14.42714844 15.3125 15.1875 C14.89677734 15.93708984 14.48105469 16.68667969 14.05273438 17.45898438 C13.03062275 19.30348466 12.0147019 21.1514131 11 23 C11.99 23 12.98 23 14 23 C13.67 24.32 13.34 25.64 13 27 C8.71 27 4.42 27 0 27 C-0.33 25.68 -0.66 24.36 -1 23 C1.64 23 4.28 23 7 23 C8.01961806 19.24262297 8.19548931 17.45539488 6.63671875 13.82421875 C5.99347656 12.78910156 5.35023438 11.75398438 4.6875 10.6875 C4.05199219 9.63949219 3.41648437 8.59148437 2.76171875 7.51171875 C1.24334129 4.92356336 1.24334129 4.92356336 -1 4 C-0.67 2.68 -0.34 1.36 0 0 Z " fill="#131313" transform="translate(387,287)"/>
<path d="M0 0 C2.58396679 -0.08112454 5.16537568 -0.14054748 7.75 -0.1875 C8.47960937 -0.21263672 9.20921875 -0.23777344 9.9609375 -0.26367188 C13.11574564 -0.30669199 15.6040978 -0.17815599 18.5 1.125 C20.66268544 3.8283568 20.39665934 5.77767035 20.25 9.1875 C20.21390625 10.27417969 20.1778125 11.36085938 20.140625 12.48046875 C20.07101562 13.72763672 20.07101562 13.72763672 20 15 C20.99 15 21.98 15 23 15 C22.67 16.32 22.34 17.64 22 19 C19.36 19 16.72 19 14 19 C13.67 17.68 13.34 16.36 13 15 C13.99 15 14.98 15 16 15 C15.505 10.05 15.505 10.05 15 5 C13.00045254 4.95745644 10.99958364 4.95919217 9 5 C7.50256881 6.49743119 7.66797307 7.98824239 7.4375 10.0625 C7.293125 11.361875 7.14875 12.66125 7 14 C7.99 14.33 8.98 14.66 10 15 C9.67 16.32 9.34 17.64 9 19 C6.03 19 3.06 19 0 19 C-0.33 17.68 -0.66 16.36 -1 15 C-0.01 14.67 0.98 14.34 2 14 C2 10.7 2 7.4 2 4 C1.34 4 0.68 4 0 4 C0 2.68 0 1.36 0 0 Z " fill="#222222" transform="translate(439,287)"/>
<path d="M0 0 C4.62 0 9.24 0 14 0 C14 1.32 14 2.64 14 4 C12.35 4 10.7 4 9 4 C9 9.61 9 15.22 9 21 C12.3 21 15.6 21 19 21 C19 18.69 19 16.38 19 14 C20.32 14.33 21.64 14.66 23 15 C23 18.3 23 21.6 23 25 C15.41 25 7.82 25 0 25 C-0.33 23.68 -0.66 22.36 -1 21 C-0.67 20.67 -0.34 20.34 0 20 C1.65 20 3.3 20 5 20 C5 14.72 5 9.44 5 4 C3.35 4 1.7 4 0 4 C0 2.68 0 1.36 0 0 Z " fill="#090909" transform="translate(517,281)"/>
<path d="M0 0 C2.58396679 -0.08112454 5.16537568 -0.14054748 7.75 -0.1875 C8.47960937 -0.21263672 9.20921875 -0.23777344 9.9609375 -0.26367188 C13.11574564 -0.30669199 15.6040978 -0.17815599 18.5 1.125 C20.66268544 3.8283568 20.39665934 5.77767035 20.25 9.1875 C20.21390625 10.27417969 20.1778125 11.36085938 20.140625 12.48046875 C20.07101562 13.72763672 20.07101562 13.72763672 20 15 C20.99 15 21.98 15 23 15 C22.67 16.32 22.34 17.64 22 19 C19.36 19 16.72 19 14 19 C13.67 17.68 13.34 16.36 13 15 C13.99 15 14.98 15 16 15 C15.505 10.05 15.505 10.05 15 5 C11.65747276 4.92572162 9.1964086 4.93453047 6 6 C6 8.97 6 11.94 6 15 C6.99 15 7.98 15 9 15 C9 16.32 9 17.64 9 19 C6.03 19 3.06 19 0 19 C-0.33 17.68 -0.66 16.36 -1 15 C-0.01 14.67 0.98 14.34 2 14 C2 10.7 2 7.4 2 4 C1.34 4 0.68 4 0 4 C0 2.68 0 1.36 0 0 Z " fill="#1D1D1D" transform="translate(906,287)"/>
<path d="M0 0 C2.60478883 -0.0809313 5.20706653 -0.14045434 7.8125 -0.1875 C8.55048828 -0.21263672 9.28847656 -0.23777344 10.04882812 -0.26367188 C15.40206186 -0.33634021 15.40206186 -0.33634021 18 1.125 C19.46145498 3.86522809 19.28687083 6.10700412 19.1875 9.1875 C19.16042969 10.27417969 19.13335938 11.36085938 19.10546875 12.48046875 C19.07066406 13.31191406 19.03585937 14.14335937 19 15 C19.99 15 20.98 15 22 15 C21.67 16.32 21.34 17.64 21 19 C18.69 19 16.38 19 14 19 C13.4375 17.0625 13.4375 17.0625 13 15 C13.33 14.67 13.66 14.34 14 14 C14.23287008 12.31816052 14.41264166 10.6287584 14.5625 8.9375 C14.64628906 8.01839844 14.73007812 7.09929687 14.81640625 6.15234375 C14.87699219 5.44207031 14.93757812 4.73179687 15 4 C10.65815798 4.18464366 10.65815798 4.18464366 7 6 C6.76924918 7.34747084 6.58846937 8.70377565 6.4375 10.0625 C6.293125 11.361875 6.14875 12.66125 6 14 C6.99 14.33 7.98 14.66 9 15 C8.67 16.32 8.34 17.64 8 19 C5.36 19 2.72 19 0 19 C-0.33 17.68 -0.66 16.36 -1 15 C-0.01 15 0.98 15 2 15 C2 11.37 2 7.74 2 4 C1.01 4 0.02 4 -1 4 C-0.67 2.68 -0.34 1.36 0 0 Z " fill="#181818" transform="translate(751,287)"/>
<path d="M0 0 C2.31 0 4.62 0 7 0 C7.33 4.62 7.66 9.24 8 14 C12.455 13.505 12.455 13.505 17 13 C17 10.03 17 7.06 17 4 C14.525 3.505 14.525 3.505 12 3 C12.33 2.01 12.66 1.02 13 0 C15.64 0 18.28 0 21 0 C21 4.95 21 9.9 21 15 C21.66 15 22.32 15 23 15 C22.67 16.32 22.34 17.64 22 19 C20.35 19 18.7 19 17 19 C17 18.34 17 17.68 17 17 C16.484375 17.33 15.96875 17.66 15.4375 18 C12.12780596 19.3578232 9.54359483 19.32214498 6 19 C4.296875 17.8671875 4.296875 17.8671875 3 16 C2.70703125 13.08203125 2.70703125 13.08203125 2.8125 9.8125 C2.83957031 8.72582031 2.86664062 7.63914062 2.89453125 6.51953125 C2.92933594 5.68808594 2.96414063 4.85664063 3 4 C1.68 3.67 0.36 3.34 -1 3 C-0.67 2.01 -0.34 1.02 0 0 Z " fill="#161616" transform="translate(620,287)"/>
<path d="M0 0 C1.32 0 2.64 0 4 0 C4 1.98 4 3.96 4 6 C6.97 6 9.94 6 13 6 C13.33 7.32 13.66 8.64 14 10 C10.7 10 7.4 10 4 10 C4 13.63 4 17.26 4 21 C6.10375 20.7834375 6.10375 20.7834375 8.25 20.5625 C9.03890625 20.48128906 9.8278125 20.40007812 10.640625 20.31640625 C12.82364639 20.02365007 14.8773182 19.57935581 17 19 C17 20.32 17 21.64 17 23 C12.59002713 25.27611503 7.87744001 25.8494418 3 25 C1.23828125 23.8671875 1.23828125 23.8671875 0 22 C-0.29296875 19.08203125 -0.29296875 19.08203125 -0.1875 15.8125 C-0.14689453 14.18248047 -0.14689453 14.18248047 -0.10546875 12.51953125 C-0.05326172 11.27236328 -0.05326172 11.27236328 0 10 C-1.65 9.67 -3.3 9.34 -5 9 C-4.67 8.01 -4.34 7.02 -4 6 C-2.68 6 -1.36 6 0 6 C0 4.02 0 2.04 0 0 Z " fill="#121212" transform="translate(938,281)"/>
<path d="M0 0 C0 1.65 0 3.3 0 5 C-1.15628906 5.07347656 -1.15628906 5.07347656 -2.3359375 5.1484375 C-3.33882812 5.22320312 -4.34171875 5.29796875 -5.375 5.375 C-6.37273438 5.44460937 -7.37046875 5.51421875 -8.3984375 5.5859375 C-11.15508879 5.76363964 -11.15508879 5.76363964 -13 8 C-13.40047444 10.32275177 -13.7397104 12.65739357 -14 15 C-21.34918342 15.43230491 -27.90215087 13.81774185 -35 12 C-31.62124348 9.74749565 -30.16053037 9.72741824 -26.1875 9.5625 C-21.47261187 9.24284657 -18.00578932 8.7066144 -14 6 C-13.67 5.34 -13.34 4.68 -13 4 C-15.64 3.67 -18.28 3.34 -21 3 C-21 2.34 -21 1.68 -21 1 C-13.97252688 0.33411422 -7.05985273 -0.11766421 0 0 Z " fill="#A9787C" transform="translate(549,81)"/>
<path d="M0 0 C2 1.1875 2 1.1875 3 3 C3.4375 5.5 3.4375 5.5 3 8 C0.60918389 10.77334669 -0.899597 10.98943126 -4.5625 11.375 C-8 11 -8 11 -9.9375 9.8125 C-11.38718434 7.33950907 -11.42317323 5.82115488 -11 3 C-8.70707783 -1.15592143 -4.18917013 -0.63710296 0 0 Z " fill="#F3F3F3" transform="translate(428,291)"/>
<path d="M0 0 C2.59341352 0.07530783 3.80569388 0.16002137 6.0625 1.5 C7.44573858 4.00711993 7.55565303 5.4944827 7.0625 8.3125 C4.63840382 11.12445157 3.16312868 11.30382511 -0.5625 11.625 C-3.9375 11.3125 -3.9375 11.3125 -5.9375 9.3125 C-6.1875 5.8125 -6.1875 5.8125 -5.9375 2.3125 C-3.9375 0.3125 -3.9375 0.3125 0 0 Z " fill="#F2F2F2" transform="translate(474.9375,290.6875)"/>
<path d="M0 0 C0.66 0 1.32 0 2 0 C2 10.56 2 21.12 2 32 C5.63 32 9.26 32 13 32 C13 21.44 13 10.88 13 0 C13.33 0 13.66 0 14 0 C14.02465288 4.68139254 14.04283739 9.36274759 14.05493164 14.04418945 C14.05997157 15.63794614 14.0668035 17.23169819 14.07543945 18.82543945 C14.08751999 21.11150253 14.09323155 23.39750467 14.09765625 25.68359375 C14.10281754 26.40026718 14.10797882 27.11694061 14.11329651 27.85533142 C14.11349263 29.57063672 14.06192007 31.28581266 14 33 C13 34 13 34 10.3125 34.1328125 C9.219375 34.13023437 8.12625 34.12765625 7 34.125 C5.906875 34.12757813 4.81375 34.13015625 3.6875 34.1328125 C1 34 1 34 0 33 C-0.08843793 30.55169574 -0.11528752 28.13179401 -0.09765625 25.68359375 C-0.0962413 24.95253922 -0.09482635 24.22148468 -0.09336853 23.46827698 C-0.08775408 21.12464368 -0.07519922 18.78110461 -0.0625 16.4375 C-0.05748686 14.85221492 -0.05292363 13.26692834 -0.04882812 11.68164062 C-0.03777997 7.7877239 -0.02050572 3.89387795 0 0 Z " fill="#C2C4CE" transform="translate(925,219)"/>
<path d="M0 0 C2.875 -0.125 2.875 -0.125 6 0 C6.66 0.66 7.32 1.32 8 2 C7.7578125 5.0390625 7.7578125 5.0390625 7.125 8.625 C6.92132812 9.81351562 6.71765625 11.00203125 6.5078125 12.2265625 C6.34023438 13.14179688 6.17265625 14.05703125 6 15 C6.99 15 7.98 15 9 15 C8.67 16.32 8.34 17.64 8 19 C5.36 19 2.72 19 0 19 C-0.33 17.68 -0.66 16.36 -1 15 C-0.01 15 0.98 15 2 15 C2 11.37 2 7.74 2 4 C1.01 3.67 0.02 3.34 -1 3 C-0.67 2.01 -0.34 1.02 0 0 Z " fill="#141414" transform="translate(852,287)"/>
<path d="M0 0 C3.5 0.25 3.5 0.25 5.5 2.25 C5.8125 5.75 5.8125 5.75 5.5 9.25 C2.02957297 11.56361802 0.58165827 11.76020728 -3.5 11.25 C-5.4375 9.5625 -5.4375 9.5625 -6.5 7.25 C-6.14950973 2.34313629 -5.13596028 0.36685431 0 0 Z " fill="#F3F3F3" transform="translate(604.5,290.75)"/>
<path d="M0 0 C3.5625 0.3125 3.5625 0.3125 5.5 1.5 C6.94968434 3.97299093 6.98567323 5.49134512 6.5625 8.3125 C5.4375 10.125 5.4375 10.125 3.5625 11.3125 C0.41325452 11.70615568 -1.55659116 11.84104531 -4.3125 10.1875 C-5.94281294 7.47031176 -5.76765665 5.41597254 -5.4375 2.3125 C-3.4375 0.3125 -3.4375 0.3125 0 0 Z " fill="#F4F4F4" transform="translate(811.4375,290.6875)"/>
<path d="M0 0 C0.33 0 0.66 0 1 0 C1 15.51 1 31.02 1 47 C4.3 47 7.6 47 11 47 C11 38.42 11 29.84 11 21 C14.53930317 24.53930317 14.58330741 25.96346717 15.1875 30.8125 C15.34605469 32.01519531 15.50460938 33.21789062 15.66796875 34.45703125 C15.96876133 37.66666503 16.06411751 40.77932801 16 44 C15.67 44 15.34 44 15 44 C14.34 40.04 13.68 36.08 13 32 C12.67 37.28 12.34 42.56 12 48 C8.04 48 4.08 48 0 48 C0 32.16 0 16.32 0 0 Z " fill="#A0A4B1" transform="translate(69,204)"/>
<path d="M0 0 C4.29 0 8.58 0 13 0 C13 13.2 13 26.4 13 40 C7.39 40 1.78 40 -4 40 C-3.01 39.01 -2.02 38.02 -1 37 C-0.34 37 0.32 37 1 37 C1 37.66 1 38.32 1 39 C4.63 39 8.26 39 12 39 C12 26.46 12 13.92 12 1 C8.37 1 4.74 1 1 1 C1 11.56 1 22.12 1 33 C0.67 33 0.34 33 0 33 C0 22.11 0 11.22 0 0 Z " fill="#969BA8" transform="translate(700,212)"/>
<path d="M0 0 C1.32 0 2.64 0 4 0 C4 8.58 4 17.16 4 26 C2.68 26 1.36 26 0 26 C0 17.42 0 8.84 0 0 Z " fill="#D2D4D9" transform="translate(873,219)"/>
<path d="M0 0 C0.66 0 1.32 0 2 0 C2 9.24 2 18.48 2 28 C5.3 28 8.6 28 12 28 C12 28.33 12 28.66 12 29 C8.04 29 4.08 29 0 29 C-0.33 26.03 -0.66 23.06 -1 20 C-1.33 22.64 -1.66 25.28 -2 28 C-2.33 28 -2.66 28 -3 28 C-3.15856416 21.45262159 -2.61020183 15.38367188 -1.5 8.9375 C-1.35691406 8.07189453 -1.21382813 7.20628906 -1.06640625 6.31445312 C-0.71736324 4.2085603 -0.35960461 2.10411505 0 0 Z " fill="#7B8096" transform="translate(96,223)"/>
<path d="M0 0 C4.29 0 8.58 0 13 0 C13 1.98 13 3.96 13 6 C13.99 6 14.98 6 16 6 C16.04241723 8.33294775 16.04092937 10.66702567 16 13 C15.67 13.33 15.34 13.66 15 14 C14.84259395 15.70563778 14.74906608 17.41727244 14.68359375 19.12890625 C14.64169922 20.16337891 14.59980469 21.19785156 14.55664062 22.26367188 C14.51732422 23.35228516 14.47800781 24.44089844 14.4375 25.5625 C14.39431641 26.65498047 14.35113281 27.74746094 14.30664062 28.87304688 C14.20017932 31.58189564 14.09816484 34.29083992 14 37 C14.66 37.33 15.32 37.66 16 38 C14.68 38 13.36 38 12 38 C12 29.75 12 21.5 12 13 C12.99 12.67 13.98 12.34 15 12 C15 10.35 15 8.7 15 7 C14.01 7 13.02 7 12 7 C12 5.02 12 3.04 12 1 C8.37 1 4.74 1 1 1 C1 2.65 1 4.3 1 6 C0.67 6 0.34 6 0 6 C0 4.02 0 2.04 0 0 Z " fill="#E3B0A9" transform="translate(318,207)"/>
<path d="M0 0 C2.97 0 5.94 0 9 0 C9 2.97 9 5.94 9 9 C6.03 9 3.06 9 0 9 C0 6.03 0 3.06 0 0 Z " fill="#333D60" transform="translate(783,242)"/>
<path d="M0 0 C0.495 1.485 0.495 1.485 1 3 C0.01 3.66 -0.98 4.32 -2 5 C-2.33 5.99 -2.66 6.98 -3 8 C-4.55761719 9.51879883 -4.55761719 9.51879883 -6.546875 11.14453125 C-11.12556153 15.02987965 -15.17951202 19.28038421 -19.25 23.6875 C-20.62969185 25.17105341 -22.00988412 26.65414162 -23.390625 28.13671875 C-23.98907227 28.78342529 -24.58751953 29.43013184 -25.20410156 30.09643555 C-27.09824201 32.10413172 -29.03960082 34.05713329 -31 36 C-31.66 35.67 -32.32 35.34 -33 35 C-31.71416016 33.7315625 -31.71416016 33.7315625 -30.40234375 32.4375 C-24.93558153 27.02190373 -19.52695632 21.63174855 -14.54296875 15.76171875 C-12.38498536 13.29779341 -10.04688368 11.03585411 -7.7109375 8.7421875 C-4.97907984 5.9604329 -2.50131241 2.98937336 0 0 Z " fill="#9F524A" transform="translate(597,71)"/>
<path d="M0 0 C6.27 0 12.54 0 19 0 C19 1.65 19 3.3 19 5 C12.4491015 4.54240047 6.3246158 3.7899856 0 2 C0 1.34 0 0.68 0 0 Z " fill="#C9B7BC" transform="translate(500,101)"/>
<path d="M0 0 C0.33 0 0.66 0 1 0 C1 2.64 1 5.28 1 8 C4.63 8 8.26 8 12 8 C12 5.36 12 2.72 12 0 C13.32 0 14.64 0 16 0 C16 2.97 16 5.94 16 9 C10.12501013 10.53653581 5.93970792 11.26376764 0 10 C0 6.7 0 3.4 0 0 Z " fill="#C7CAD5" transform="translate(585,219)"/>
<path d="M0 0 C0 1.65 0 3.3 0 5 C-4.92947689 5.10150789 -9.56533119 4.74242572 -14.4375 4 C-16.29181641 3.7215625 -16.29181641 3.7215625 -18.18359375 3.4375 C-19.11300781 3.293125 -20.04242187 3.14875 -21 3 C-21 2.34 -21 1.68 -21 1 C-13.97252688 0.33411422 -7.05985273 -0.11766421 0 0 Z " fill="#B8AAB4" transform="translate(549,81)"/>
<path d="M0 0 C4.95 0 9.9 0 15 0 C15 0.66 15 1.32 15 2 C11.37 2 7.74 2 4 2 C4 4.97 4 7.94 4 11 C2.68 11.33 1.36 11.66 0 12 C0 8.04 0 4.08 0 0 Z " fill="#E2E4EB" transform="translate(549,233)"/>
<path d="M0 0 C1.62463842 -0.05395478 3.24978541 -0.09277195 4.875 -0.125 C5.77992188 -0.14820313 6.68484375 -0.17140625 7.6171875 -0.1953125 C10 0 10 0 12 2 C11.67 3.32 11.34 4.64 11 6 C7.37 6 3.74 6 0 6 C0 4.02 0 2.04 0 0 Z " fill="#F7F7F7" transform="translate(342,295)"/>
<path d="M0 0 C-1.50336986 3.82675963 -3.83522408 5.48440888 -7 8 C-7.33 8.99 -7.66 9.98 -8 11 C-9.62890625 12.38671875 -9.62890625 12.38671875 -11.5625 13.6875 C-12.52349609 14.34298828 -12.52349609 14.34298828 -13.50390625 15.01171875 C-13.99761719 15.33785156 -14.49132812 15.66398437 -15 16 C-14.51300086 11.71440757 -13.73940076 9.31010925 -11 6 C-10.67 5.01 -10.34 4.02 -10 3 C-7.0625 1.875 -7.0625 1.875 -4 1 C-2 0 -2 0 0 0 Z " fill="#887D7E" transform="translate(662,8)"/>
<path d="M0 0 C3.63 0 7.26 0 11 0 C11.33 1.65 11.66 3.3 12 5 C12.66 5 13.32 5 14 5 C15.22517308 10.66642551 15.09228867 16.23708518 15 22 C14.34 21.67 13.68 21.34 13 21 C12.35684291 18.19725121 11.82877438 15.45877469 11.375 12.625 C11.2409375 11.84382812 11.106875 11.06265625 10.96875 10.2578125 C10.44078171 7.11155248 10 4.19878067 10 1 C7.03 1 4.06 1 1 1 C1.33 4.63 1.66 8.26 2 12 C-0.80163026 7.7975546 -0.14489712 4.99895065 0 0 Z " fill="#E6BAB2" transform="translate(448,212)"/>
<path d="M0 0 C0.66 0.33 1.32 0.66 2 1 C-1.75264754 5.96387672 -5.45890328 10.73412126 -10 15 C-10 12 -10 12 -9 9 C-10.65 9.33 -12.3 9.66 -14 10 C-11.46357916 7.21423609 -8.59630744 5.28576938 -5.4375 3.25 C-4.46683594 2.61578125 -3.49617187 1.9815625 -2.49609375 1.328125 C-1.67238281 0.88984375 -0.84867188 0.4515625 0 0 Z " fill="#B35145" transform="translate(650,13)"/>
<path d="M0 0 C0.34375 2.13671875 0.34375 2.13671875 0 5 C-1.78663019 7.1491769 -3.46395503 8.93903847 -5.5 10.8125 C-6.02464844 11.31458984 -6.54929687 11.81667969 -7.08984375 12.33398438 C-8.38222532 13.56762133 -9.68969599 14.78541625 -11 16 C-11.99 15.34 -12.98 14.68 -14 14 C-13.01 13.34 -12.02 12.68 -11 12 C-10.773125 11.278125 -10.54625 10.55625 -10.3125 9.8125 C-8.84142869 6.66020434 -3.9067789 0 0 0 Z " fill="#817476" transform="translate(608,62)"/>
<path d="M0 0 C0.66 0 1.32 0 2 0 C0.84826645 2.46800047 -0.04783565 4.04783565 -2 6 C-2.37207354 8.71615864 -2.37207354 8.71615864 -2.4140625 11.8828125 C-2.45273437 13.04941406 -2.49140625 14.21601563 -2.53125 15.41796875 C-2.5621875 16.64128906 -2.593125 17.86460937 -2.625 19.125 C-2.66367187 20.35605469 -2.70234375 21.58710938 -2.7421875 22.85546875 C-2.8366999 25.90349376 -2.92225494 28.95150862 -3 32 C-6.48096403 28.51903597 -5.36922821 23.46555354 -5.375 18.75 C-5.39949219 17.71230469 -5.42398438 16.67460937 -5.44921875 15.60546875 C-5.47296661 9.40727781 -5.1351485 5.7213573 -1 1 C-0.67 0.67 -0.34 0.34 0 0 Z " fill="#636A83" transform="translate(739,213)"/>
<path d="M0 0 C0.99 0 1.98 0 3 0 C3 6.93 3 13.86 3 21 C2.01 21 1.02 21 0 21 C0 14.07 0 7.14 0 0 Z " fill="#E8EAEF" transform="translate(647,219)"/>
<path d="M0 0 C4.95 0 9.9 0 15 0 C15 0.66 15 1.32 15 2 C11.04 2 7.08 2 3 2 C3 5.3 3 8.6 3 12 C2.01 12 1.02 12 0 12 C0 8.04 0 4.08 0 0 Z " fill="#E9EBF1" transform="translate(747,233)"/>
<path d="M0 0 C1.27230469 0.01804688 2.54460937 0.03609375 3.85546875 0.0546875 C5.31919922 0.08949219 5.31919922 0.08949219 6.8125 0.125 C6.8125 0.455 6.8125 0.785 6.8125 1.125 C2.5225 1.125 -1.7675 1.125 -6.1875 1.125 C-6.8475 2.445 -7.5075 3.765 -8.1875 5.125 C-8.703125 5.764375 -9.21875 6.40375 -9.75 7.0625 C-11.39378942 9.42098047 -11.79548393 11.30248429 -12.1875 14.125 C-9.2175 14.125 -6.2475 14.125 -3.1875 14.125 C-3.1875 11.815 -3.1875 9.505 -3.1875 7.125 C-2.8575 7.125 -2.5275 7.125 -2.1875 7.125 C-2.1875 9.765 -2.1875 12.405 -2.1875 15.125 C-5.8175 15.125 -9.4475 15.125 -13.1875 15.125 C-13.62820796 6.45774336 -13.62820796 6.45774336 -10.1875 2.125 C-6.4507157 -0.36618953 -4.44298181 -0.0815226 0 0 Z " fill="#C15B4E" transform="translate(367.1875,211.875)"/>
<path d="M0 0 C1.32 0 2.64 0 4 0 C4 4.29 4 8.58 4 13 C3.01 13.495 3.01 13.495 2 14 C2 13.01 2 12.02 2 11 C1.01 11 0.02 11 -1 11 C-1.02688151 9.35425434 -1.04634123 7.70838587 -1.0625 6.0625 C-1.07410156 5.14597656 -1.08570313 4.22945313 -1.09765625 3.28515625 C-1 1 -1 1 0 0 Z " fill="#EBEBEB" transform="translate(859,291)"/>
<path d="M0 0 C0.66 0.66 1.32 1.32 2 2 C2.99 1.34 3.98 0.68 5 0 C5.02714735 2.22909871 5.04646254 4.45829367 5.0625 6.6875 C5.07410156 7.92886719 5.08570313 9.17023438 5.09765625 10.44921875 C5.01478673 13.46235454 4.70839449 16.08275339 4 19 C3.34 18.67 2.68 18.34 2 18 C1.58935547 16.23413086 1.58935547 16.23413086 1.3671875 13.96484375 C1.28339844 13.15595703 1.19960937 12.34707031 1.11328125 11.51367188 C1.03464844 10.66353516 0.95601562 9.81339844 0.875 8.9375 C0.78863281 8.08349609 0.70226562 7.22949219 0.61328125 6.34960938 C0.40052772 4.23389367 0.19920047 2.11703476 0 0 Z " fill="#BBBFCC" transform="translate(140,217)"/>
<path d="M0 0 C-3.02653181 1.95260117 -6.06521341 3.48319231 -9.375 4.875 C-13.72759397 6.75602051 -17.24127366 9.12097557 -21 12 C-21.66 11.67 -22.32 11.34 -23 11 C-22.030625 10.38125 -21.06125 9.7625 -20.0625 9.125 C-16.97164638 7.34321154 -16.97164638 7.34321154 -16 5 C-16.99 4.67 -17.98 4.34 -19 4 C-16.58732675 3.132758 -14.17095531 2.28103064 -11.75 1.4375 C-11.06808594 1.19064453 -10.38617187 0.94378906 -9.68359375 0.68945312 C-3.41657839 -1.47053761 -3.41657839 -1.47053761 0 0 Z " fill="#433653" transform="translate(602,46)"/>
<path d="M0 0 C0.33 0 0.66 0 1 0 C1 2.64 1 5.28 1 8 C4.3 8 7.6 8 11 8 C11 5.36 11 2.72 11 0 C12.32 0 13.64 0 15 0 C15 2.64 15 5.28 15 8 C10.05183286 10.80396138 5.38317715 9.77350507 0 9 C0 6.03 0 3.06 0 0 Z " fill="#D69E95" transform="translate(218,219)"/>
<path d="M0 0 C1.875 2 1.875 2 2.1875 5.6875 C2.0328125 7.3271875 2.0328125 7.3271875 1.875 9 C0.225 9 -1.425 9 -3.125 9 C-3.125 6.36 -3.125 3.72 -3.125 1 C-6.425 1 -9.725 1 -13.125 1 C-13.125 0.67 -13.125 0.34 -13.125 0 C-4.39618644 -1.40677966 -4.39618644 -1.40677966 0 0 Z " fill="#DD9C92" transform="translate(416.125,237)"/>
<path d="M0 0 C0.66 0.33 1.32 0.66 2 1 C1.01 1.33 0.02 1.66 -1 2 C-2.16953416 4.42383077 -2.16953416 4.42383077 -3 7 C-3.33 7.66 -3.66 8.32 -4 9 C-6.28515625 9.6328125 -6.28515625 9.6328125 -9.0625 10.125 C-9.98160156 10.29257813 -10.90070313 10.46015625 -11.84765625 10.6328125 C-12.91306641 10.81457031 -12.91306641 10.81457031 -14 11 C-10.60169663 5.74807662 -5.60107784 2.59562144 0 0 Z " fill="#AC4039" transform="translate(468,129)"/>
<path d="M0 0 C2.97 0 5.94 0 9 0 C9.33 1.32 9.66 2.64 10 4 C9 5 9 5 6.93359375 5.09765625 C6.10988281 5.08605469 5.28617187 5.07445312 4.4375 5.0625 C3.61121094 5.05347656 2.78492188 5.04445313 1.93359375 5.03515625 C1.29550781 5.02355469 0.65742188 5.01195312 0 5 C0 3.35 0 1.7 0 0 Z " fill="#F1F1F1" transform="translate(342,285)"/>
<path d="M0 0 C0.33 0 0.66 0 1 0 C1 7.92 1 15.84 1 24 C0.67 24 0.34 24 0 24 C-0.33 21.03 -0.66 18.06 -1 15 C-1.33 17.64 -1.66 20.28 -2 23 C-2.33 23 -2.66 23 -3 23 C-3.41467342 14.98298054 -1.85939879 7.78069851 0 0 Z " fill="#B7BBC8" transform="translate(96,228)"/>
<path d="M0 0 C1.32 0 2.64 0 4 0 C4 2.64 4 5.28 4 8 C-0.94816714 10.80396138 -5.61682285 9.77350507 -11 9 C-11 8.67 -11 8.34 -11 8 C-7.37 8 -3.74 8 0 8 C0 5.36 0 2.72 0 0 Z " fill="#E1AAA1" transform="translate(365,219)"/>
<path d="M0 0 C-0.60328125 0.24234375 -1.2065625 0.4846875 -1.828125 0.734375 C-6.29906004 2.60928324 -9.84833717 4.16319307 -13 8 C-13.99 7.67 -14.98 7.34 -16 7 C-17.8948204 7.97229848 -17.8948204 7.97229848 -19.6875 9.4375 C-20.31011719 9.91058594 -20.93273437 10.38367188 -21.57421875 10.87109375 C-22.27998047 11.42990234 -22.27998047 11.42990234 -23 12 C-23 9 -23 9 -21.7421875 7.40625 C-19.88317798 5.9057042 -18.38600684 5.23900613 -16.125 4.5 C-12.79710245 3.33981553 -9.99247669 1.88098535 -7 0 C-3.86650268 -1.04449911 -3.01031744 -0.93423645 0 0 Z " fill="#565C75" transform="translate(479,82)"/>
<path d="M0 0 C0 0.66 0 1.32 0 2 C3.63 2 7.26 2 11 2 C11 2.66 11 3.32 11 4 C7.37506666 4.05787784 3.75025143 4.0935542 0.125 4.125 C-0.90753906 4.14175781 -1.94007813 4.15851563 -3.00390625 4.17578125 C-3.99003906 4.18222656 -4.97617187 4.18867188 -5.9921875 4.1953125 C-7.35899658 4.21102295 -7.35899658 4.21102295 -8.75341797 4.22705078 C-11 4 -11 4 -13 2 C-11.01432292 2.06510417 -9.02864583 2.13020833 -7.04296875 2.1953125 C-4.1877684 1.9223488 -2.88406488 0 0 0 Z " fill="#F0D4CE" transform="translate(370,249)"/>
<path d="M0 0 C2.97 0 5.94 0 9 0 C9.66 1.32 10.32 2.64 11 4 C6.71 4 2.42 4 -2 4 C-1.34 2.68 -0.68 1.36 0 0 Z " fill="#D0D0D0" transform="translate(886,291)"/>
<path d="M0 0 C0 1.32 0 2.64 0 4 C-3.47325181 5.1577506 -6.36067448 5.06866652 -10 5 C-9.625 3.0625 -9.625 3.0625 -9 1 C-6.04335481 -0.4783226 -3.25770263 -0.06032783 0 0 Z " fill="#DBDBDB" transform="translate(583,297)"/>
<path d="M0 0 C0.66 0 1.32 0 2 0 C2 3.96 2 7.92 2 12 C0.68 12 -0.64 12 -2 12 C-2.05395478 10.37536158 -2.09277195 8.75021459 -2.125 7.125 C-2.14820313 6.22007812 -2.17140625 5.31515625 -2.1953125 4.3828125 C-2 2 -2 2 0 0 Z " fill="#EFC3BB" transform="translate(232,233)"/>
<path d="M0 0 C4.95 0 9.9 0 15 0 C15 1.32 15 2.64 15 4 C4.44191344 3.22095672 4.44191344 3.22095672 0 1 C0 0.67 0 0.34 0 0 Z " fill="#F1E3E2" transform="translate(518,92)"/>
<path d="M0 0 C0.33 0 0.66 0 1 0 C1 3.3 1 6.6 1 10 C-6.59 10 -14.18 10 -22 10 C-22.33 8.68 -22.66 7.36 -23 6 C-22 5 -22 5 -19.4375 4.9375 C-18.2309375 4.9684375 -18.2309375 4.9684375 -17 5 C-18.32 6.32 -19.64 7.64 -21 9 C-14.07 9 -7.14 9 0 9 C0 6.03 0 3.06 0 0 Z " fill="#696969" transform="translate(539,296)"/>
<path d="M0 0 C1.8871875 0.061875 1.8871875 0.061875 3.8125 0.125 C4.4725 1.445 5.1325 2.765 5.8125 4.125 C1.5225 4.125 -2.7675 4.125 -7.1875 4.125 C-7.1875 3.465 -7.1875 2.805 -7.1875 2.125 C-4.09861478 0.06574319 -3.47814073 -0.1140374 0 0 Z " fill="#D4D4D4" transform="translate(839.1875,290.875)"/>
<path d="M0 0 C1.258125 -0.04125 2.51625 -0.0825 3.8125 -0.125 C4.52019531 -0.14820313 5.22789062 -0.17140625 5.95703125 -0.1953125 C8 0 8 0 11 2 C11 2.66 11 3.32 11 4 C6.71 4 2.42 4 -2 4 C-1.34 2.68 -0.68 1.36 0 0 Z " fill="#D3D3D3" transform="translate(549,291)"/>
<path d="M0 0 C2.05078125 0.03255208 4.1015625 0.06510417 6.15234375 0.09765625 C5.77734375 2.03515625 5.77734375 2.03515625 5.15234375 4.09765625 C2.19569856 5.57597885 -0.58995362 5.15798408 -3.84765625 5.09765625 C-2.72914438 0.14424653 -2.72914438 0.14424653 0 0 Z " fill="#DFDFDF" transform="translate(732.84765625,296.90234375)"/>
<path d="M0 0 C2.05078125 0.03255208 4.1015625 0.06510417 6.15234375 0.09765625 C5.82234375 1.41765625 5.49234375 2.73765625 5.15234375 4.09765625 C0.69734375 4.59265625 0.69734375 4.59265625 -3.84765625 5.09765625 C-2.6076991 0.13782765 -2.6076991 0.13782765 0 0 Z " fill="#E1E1E1" transform="translate(784.84765625,296.90234375)"/>
<path d="M0 0 C0 3.63 0 7.26 0 11 C-1.32 11 -2.64 11 -4 11 C-4 7.7 -4 4.4 -4 1 C-2 0 -2 0 0 0 Z " fill="#E3E3E3" transform="translate(871,291)"/>
<path d="M0 0 C2.64 0 5.28 0 8 0 C8.66 1.32 9.32 2.64 10 4 C6.04 4 2.08 4 -2 4 C-1.34 2.68 -0.68 1.36 0 0 Z " fill="#DADADA" transform="translate(653,291)"/>
<path d="M0 0 C2.64 0 5.28 0 8 0 C8.66 1.32 9.32 2.64 10 4 C6.04 4 2.08 4 -2 4 C-1.34 2.68 -0.68 1.36 0 0 Z " fill="#DADADA" transform="translate(368,291)"/>
<path d="M0 0 C0.99 0 1.98 0 3 0 C3 3.63 3 7.26 3 11 C1.68 11 0.36 11 -1 11 C-1.0270043 9.54176788 -1.04639787 8.08339325 -1.0625 6.625 C-1.07410156 5.81289062 -1.08570313 5.00078125 -1.09765625 4.1640625 C-1 2 -1 2 0 0 Z " fill="#D1D4DD" transform="translate(598,234)"/>
<path d="M0 0 C0.66 0 1.32 0 2 0 C2 3.63 2 7.26 2 11 C0.68 11 -0.64 11 -2 11 C-2.05399736 9.54207116 -2.09279177 8.08357288 -2.125 6.625 C-2.15980469 5.40683594 -2.15980469 5.40683594 -2.1953125 4.1640625 C-2 2 -2 2 0 0 Z " fill="#F0CFC9" transform="translate(367,234)"/>
<path d="M0 0 C0.33 0 0.66 0 1 0 C3.57526798 12.96147274 3.57526798 12.96147274 2 19 C1.34 19.66 0.68 20.32 0 21 C0 14.07 0 7.14 0 0 Z " fill="#EAECF0" transform="translate(81,231)"/>
<path d="M0 0 C0.33 0 0.66 0 1 0 C1.66 4.62 2.32 9.24 3 14 C3.33 10.04 3.66 6.08 4 2 C4.33 2 4.66 2 5 2 C5.05383848 4.45862401 5.09359038 6.9160755 5.125 9.375 C5.14175781 10.07367188 5.15851563 10.77234375 5.17578125 11.4921875 C5.19344267 13.32897486 5.10303261 15.16601963 5 17 C4.34 17.66 3.68 18.32 3 19 C-0.47493817 13.20843638 -0.11459949 6.53217065 0 0 Z " fill="#CA6C5F" transform="translate(459,219)"/>
<path d="M0 0 C2.08304538 -0.05418326 4.16649768 -0.09287551 6.25 -0.125 C7.99023438 -0.15980469 7.99023438 -0.15980469 9.765625 -0.1953125 C12.82786046 -0.0103949 14.44202751 0.39176977 17 2 C13.60926276 2.9041966 10.30467897 3.14892391 6.8125 3.25 C5.52279297 3.28867187 5.52279297 3.28867187 4.20703125 3.328125 C3.47871094 3.21984375 2.75039063 3.1115625 2 3 C1.34 2.01 0.68 1.02 0 0 Z " fill="#EEEEEE" transform="translate(547,299)"/>
<path d="M0 0 C2.08304538 -0.05418326 4.16649768 -0.09287551 6.25 -0.125 C7.99023438 -0.15980469 7.99023438 -0.15980469 9.765625 -0.1953125 C12.82786046 -0.0103949 14.44202751 0.39176977 17 2 C13.41534863 2.7353131 9.90160836 3.13201588 6.25 3.25 C5.11304688 3.28867187 5.11304688 3.28867187 3.953125 3.328125 C3.30859375 3.21984375 2.6640625 3.1115625 2 3 C1.34 2.01 0.68 1.02 0 0 Z " fill="#EDEDED" transform="translate(884,299)"/>
<path d="M0 0 C2.10388569 -0.05402274 4.20816714 -0.09280256 6.3125 -0.125 C8.07013672 -0.15980469 8.07013672 -0.15980469 9.86328125 -0.1953125 C13 0 13 0 16 2 C12.91844479 2.88863453 10.07956404 3.19260482 6.875 3.25 C5.57175781 3.28867187 5.57175781 3.28867187 4.2421875 3.328125 C3.13230469 3.16570312 3.13230469 3.16570312 2 3 C1.34 2.01 0.68 1.02 0 0 Z " fill="#F0F0F0" transform="translate(651,299)"/>
<path d="M0 0 C1.32 0 2.64 0 4 0 C4 1.98 4 3.96 4 6 C7.63 6 11.26 6 15 6 C15 6.33 15 6.66 15 7 C13.06494977 7.24900646 11.12674066 7.47356242 9.1875 7.6875 C8.10855469 7.81511719 7.02960938 7.94273437 5.91796875 8.07421875 C3 8 3 8 1.125 6.6875 C-0.40160831 4.39758754 -0.21819588 2.69108253 0 0 Z " fill="#F4D6D0" transform="translate(413,219)"/>
<path d="M0 0 C1.91635217 -0.05423638 3.83314925 -0.09289963 5.75 -0.125 C7.35101562 -0.15980469 7.35101562 -0.15980469 8.984375 -0.1953125 C11.92470106 -0.00487687 13.52361878 0.47329896 16 2 C11.17247654 3.24581251 4.59543291 4.29771645 0 2 C0 1.34 0 0.68 0 0 Z " fill="#F1F1F1" transform="translate(833,299)"/>
<path d="M0 0 C1.91635217 -0.05423638 3.83314925 -0.09289963 5.75 -0.125 C7.35101563 -0.15980469 7.35101563 -0.15980469 8.984375 -0.1953125 C11.92470106 -0.00487687 13.52361878 0.47329896 16 2 C11.17247654 3.24581251 4.59543291 4.29771645 0 2 C0 1.34 0 0.68 0 0 Z " fill="#F1F1F1" transform="translate(366,299)"/>
<path d="M0 0 C0.33 0 0.66 0 1 0 C1.05429278 2.70860665 1.09381211 5.41610901 1.125 8.125 C1.15013672 9.26582031 1.15013672 9.26582031 1.17578125 10.4296875 C1.21546246 15.03270731 0.75907577 18.66464004 -1 23 C-1.33 23 -1.66 23 -2 23 C-2.31732638 15.22550376 -1.11855299 7.67007765 0 0 Z " fill="#DDA49B" transform="translate(473,221)"/>
<path d="M0 0 C0 1.65 0 3.3 0 5 C-1.32 5 -2.64 5 -4 5 C-4 4.34 -4 3.68 -4 3 C-7.63 3 -11.26 3 -15 3 C-15 2.67 -15 2.34 -15 2 C-13.06302033 1.66365624 -11.12539514 1.33102835 -9.1875 1 C-7.56908203 0.7215625 -7.56908203 0.7215625 -5.91796875 0.4375 C-3 0 -3 0 0 0 Z " fill="#D3D6DF" transform="translate(650,246)"/>
<path d="M0 0 C0.66 0 1.32 0 2 0 C2 1.65 2 3.3 2 5 C1.67 5 1.34 5 1 5 C0.67 12.92 0.34 20.84 0 29 C-0.33 29 -0.66 29 -1 29 C-1.02465881 25.03069011 -1.04284023 21.06140966 -1.05493164 17.09204102 C-1.05997057 15.74079614 -1.06680177 14.38955674 -1.07543945 13.03833008 C-1.08752419 11.09979566 -1.09269828 9.161222 -1.09765625 7.22265625 C-1.10289307 6.05484619 -1.10812988 4.88703613 -1.11352539 3.68383789 C-1 1 -1 1 0 0 Z " fill="#3A4263" transform="translate(80,222)"/>
<path d="M0 0 C1.37478516 0.01740234 1.37478516 0.01740234 2.77734375 0.03515625 C3.69644531 0.04417969 4.61554687 0.05320313 5.5625 0.0625 C6.27277344 0.07410156 6.98304688 0.08570313 7.71484375 0.09765625 C8.04484375 1.08765625 8.37484375 2.07765625 8.71484375 3.09765625 C8.05484375 3.09765625 7.39484375 3.09765625 6.71484375 3.09765625 C6.71484375 2.43765625 6.71484375 1.77765625 6.71484375 1.09765625 C4.79671875 1.53078125 4.79671875 1.53078125 2.83984375 1.97265625 C2.12054687 2.13507813 1.40125 2.2975 0.66015625 2.46484375 C-1.49235589 3.00240053 -1.49235589 3.00240053 -3.28515625 5.09765625 C-2.62515625 5.75765625 -1.96515625 6.41765625 -1.28515625 7.09765625 C-2.60515625 7.09765625 -3.92515625 7.09765625 -5.28515625 7.09765625 C-5.94515625 5.44765625 -6.60515625 3.79765625 -7.28515625 2.09765625 C-6.64578125 1.95328125 -6.00640625 1.80890625 -5.34765625 1.66015625 C-2.85808426 0.98118207 -2.64077754 0.11285374 0 0 Z " fill="#525974" transform="translate(943.28515625,211.90234375)"/>
<path d="M0 0 C0.33 1.32 0.66 2.64 1 4 C-6.38461538 4.36923077 -6.38461538 4.36923077 -9.5 2.5 C-9.995 2.005 -10.49 1.51 -11 1 C-7.26562152 0.12132271 -3.83225427 -0.08912219 0 0 Z " fill="#B5B5B5" transform="translate(738,290)"/>
<path d="M0 0 C0.33 0.99 0.66 1.98 1 3 C0.67 3.33 0.34 3.66 0 4 C-0.36760731 6.32817964 -0.70241581 8.6618385 -1 11 C1.64 11 4.28 11 7 11 C7 8.69 7 6.38 7 4 C7.33 4 7.66 4 8 4 C8 6.64 8 9.28 8 12 C4.7 12 1.4 12 -2 12 C-2.1953125 4.3828125 -2.1953125 4.3828125 -2 2 C-1.34 1.34 -0.68 0.68 0 0 Z " fill="#B84B3C" transform="translate(221,215)"/>
<path d="M0 0 C1.32 0 2.64 0 4 0 C4 2.64 4 5.28 4 8 C2.68 8 1.36 8 0 8 C0 5.36 0 2.72 0 0 Z " fill="#BEC2CD" transform="translate(746,219)"/>
<path d="M0 0 C0 1.32 0 2.64 0 4 C-3.63 3.67 -7.26 3.34 -11 3 C-11 2.34 -11 1.68 -11 1 C-7.26513121 0.4254048 -3.78706732 0 0 0 Z " fill="#FAEAE8" transform="translate(548,82)"/>
<path d="M0 0 C0.598125 0.226875 1.19625 0.45375 1.8125 0.6875 C1.008125 1.30625 0.20375 1.925 -0.625 2.5625 C-4.33885247 6.18193249 -4.08231263 10.76281881 -4.1875 15.6875 C-4.5175 15.6875 -4.8475 15.6875 -5.1875 15.6875 C-5.2685206 13.58396505 -5.32669907 11.47954048 -5.375 9.375 C-5.40980469 8.20324219 -5.44460938 7.03148437 -5.48046875 5.82421875 C-5.1875 2.6875 -5.1875 2.6875 -3.8125 0.75 C-2.1875 -0.3125 -2.1875 -0.3125 0 0 Z " fill="#C56457" transform="translate(359.1875,231.3125)"/>
<path d="M0 0 C0.33 0.99 0.66 1.98 1 3 C2.98 2.67 4.96 2.34 7 2 C4 4 4 4 1 4 C0.67 4.99 0.34 5.98 0 7 C-1.65 7.33 -3.3 7.66 -5 8 C-3.62845496 5.04590299 -2.01136276 2.55991624 0 0 Z " fill="#767678" transform="translate(391,172)"/>
<path d="M0 0 C3.96 0 7.92 0 12 0 C12 0.99 12 1.98 12 3 C10.56344146 3.08131463 9.1255517 3.13933559 7.6875 3.1875 C6.48673828 3.23970703 6.48673828 3.23970703 5.26171875 3.29296875 C3 3 3 3 0 0 Z " fill="#BEBEBE" transform="translate(572,291)"/>
<path d="M0 0 C1.32 0 2.64 0 4 0 C4 2.31 4 4.62 4 7 C2.68 7 1.36 7 0 7 C0 4.69 0 2.38 0 0 Z " fill="#C9CBD4" transform="translate(548,219)"/>
<path d="M0 0 C-3.55639236 2.30119506 -6.94718288 3.77472971 -11 5 C-11.33 4.01 -11.66 3.02 -12 2 C-10.75579353 1.4654744 -9.50429064 0.94791389 -8.25 0.4375 C-7.55390625 0.14746094 -6.8578125 -0.14257812 -6.140625 -0.44140625 C-3.69987216 -1.07831803 -2.3596345 -0.80248831 0 0 Z " fill="#794B57" transform="translate(602,46)"/>
<path d="M0 0 C0.66 0.33 1.32 0.66 2 1 C0.71034824 2.37562854 -0.62689293 3.70766393 -2 5 C-2.66 5 -3.32 5 -4 5 C-4 5.66 -4 6.32 -4 7 C-7 9 -7 9 -9.1875 8.625 C-9.785625 8.41875 -10.38375 8.2125 -11 8 C-10.28972656 7.50628906 -9.57945312 7.01257812 -8.84765625 6.50390625 C-7.92855469 5.86324219 -7.00945313 5.22257812 -6.0625 4.5625 C-5.14597656 3.92441406 -4.22945312 3.28632812 -3.28515625 2.62890625 C-1.13879294 1.1939118 -1.13879294 1.1939118 0 0 Z " fill="#953537" transform="translate(589,51)"/>
<path d="M0 0 C0.66 0.33 1.32 0.66 2 1 C-0.475 4.465 -0.475 4.465 -3 8 C-3.33 7.34 -3.66 6.68 -4 6 C-6.02463255 5.34786708 -6.02463255 5.34786708 -8 5 C-6.71475739 4.13619741 -5.42157581 3.28419631 -4.125 2.4375 C-3.04605469 1.72400391 -3.04605469 1.72400391 -1.9453125 0.99609375 C-1.30335938 0.66738281 -0.66140625 0.33867187 0 0 Z " fill="#B66960" transform="translate(650,13)"/>
<path d="M0 0 C-0.98093954 2.45234885 -1.68703828 3.7809268 -3.875 5.3125 C-6.35009306 6.1132654 -7.58287634 5.86325845 -10 5 C-10 4.34 -10 3.68 -10 3 C-9.05125 2.690625 -8.1025 2.38125 -7.125 2.0625 C-1.05882353 0 -1.05882353 0 0 0 Z " fill="#ACA4A4" transform="translate(662,8)"/>
<path d="M0 0 C2.97 0 5.94 0 9 0 C9 0.99 9 1.98 9 3 C6.36 3 3.72 3 1 3 C0.67 2.01 0.34 1.02 0 0 Z " fill="#D0D0D0" transform="translate(782,291)"/>
<path d="M0 0 C0.99 0 1.98 0 3 0 C3 1.98 3 3.96 3 6 C-0.96 6 -4.92 6 -9 6 C-9 5.67 -9 5.34 -9 5 C-5.7 5 -2.4 5 1 5 C0.67 3.35 0.34 1.7 0 0 Z " fill="#BE4C3B" transform="translate(331,245)"/>
<path d="M0 0 C0.99 0 1.98 0 3 0 C3 2.64 3 5.28 3 8 C2.01 8 1.02 8 0 8 C0 5.36 0 2.72 0 0 Z " fill="#FBE5DF" transform="translate(230,219)"/>
<path d="M0 0 C0.99 0 1.98 0 3 0 C3 2.64 3 5.28 3 8 C2.01 8 1.02 8 0 8 C0 5.36 0 2.72 0 0 Z " fill="#F4DDD8" transform="translate(366,219)"/>
<path d="M0 0 C0.6875 1.8125 0.6875 1.8125 1 4 C-0.64504011 6.46756016 -1.80299352 6.94960299 -4.6875 7.6875 C-5.8321875 7.8421875 -5.8321875 7.8421875 -7 8 C-6.02133662 6.85373678 -5.04205413 5.70800212 -4.0625 4.5625 C-3.51722656 3.92441406 -2.97195313 3.28632812 -2.41015625 2.62890625 C-1.63204305 1.73008851 -0.84063472 0.84063472 0 0 Z " fill="#837677" transform="translate(573,99)"/>
<path d="M0 0 C0.6875 1.8125 0.6875 1.8125 1 4 C-0.64504011 6.46756016 -1.80299352 6.94960299 -4.6875 7.6875 C-5.8321875 7.8421875 -5.8321875 7.8421875 -7 8 C-6.02133662 6.85373678 -5.04205413 5.70800212 -4.0625 4.5625 C-3.51722656 3.92441406 -2.97195313 3.28632812 -2.41015625 2.62890625 C-1.63204305 1.73008851 -0.84063472 0.84063472 0 0 Z " fill="#827375" transform="translate(586,85)"/>
<path d="M0 0 C0.33 1.32 0.66 2.64 1 4 C0.01 4 -0.98 4 -2 4 C-2 4.66 -2 5.32 -2 6 C-4.375 7.6875 -4.375 7.6875 -7 9 C-7.66 8.67 -8.32 8.34 -9 8 C-6.03 5.36 -3.06 2.72 0 0 Z " fill="#90615E" transform="translate(607,62)"/>
<path d="M0 0 C0 0.66 0 1.32 0 2 C-0.99 2 -1.98 2 -3 2 C-3.33 2.99 -3.66 3.98 -4 5 C-7 7 -7 7 -9.1875 6.625 C-9.785625 6.41875 -10.38375 6.2125 -11 6 C-9.54550599 4.9944239 -8.08627557 3.99569565 -6.625 3 C-5.40683594 2.1646875 -5.40683594 2.1646875 -4.1640625 1.3125 C-2 0 -2 0 0 0 Z " fill="#C9695C" transform="translate(622,32)"/>
<path d="M0 0 C0.99 0 1.98 0 3 0 C2.60196439 2.88575819 2.20990931 3.82189513 -0.0625 5.75 C-0.701875 6.1625 -1.34125 6.575 -2 7 C-2.66 6.34 -3.32 5.68 -4 5 C-2.1875 2.5 -2.1875 2.5 0 0 Z " fill="#867D7F" transform="translate(636,31)"/>
<path d="M0 0 C0 0.66 0 1.32 0 2 C-1.96147874 3.38938077 -3.96166576 4.7260411 -6 6 C-6 5.34 -6 4.68 -6 4 C-6.66 3.67 -7.32 3.34 -8 3 C-5.53387212 -0.1151089 -3.89156016 -0.31553191 0 0 Z " fill="#8E8384" transform="translate(626,47)"/>
<path d="M0 0 C0.66 0.33 1.32 0.66 2 1 C0.71034824 2.37562854 -0.62689293 3.70766393 -2 5 C-2.66 5 -3.32 5 -4 5 C-4.33 5.99 -4.66 6.98 -5 8 C-6.32 7.67 -7.64 7.34 -9 7 C-8.01 6.67 -7.02 6.34 -6 6 C-6 5.34 -6 4.68 -6 4 C-4.36368108 2.95107762 -2.69514137 1.95093297 -1 1 C-0.67 0.67 -0.34 0.34 0 0 Z " fill="#7D323C" transform="translate(486,116)"/>
<path d="M0 0 C0.66 0 1.32 0 2 0 C2 0.66 2 1.32 2 2 C5.63 2 9.26 2 13 2 C13 2.33 13 2.66 13 3 C7.72 3 2.44 3 -3 3 C-2.01 2.01 -1.02 1.02 0 0 Z " fill="#9EA1B2" transform="translate(699,249)"/>
<path d="M0 0 C0.66 0 1.32 0 2 0 C2 0.66 2 1.32 2 2 C5.63 2 9.26 2 13 2 C13 2.33 13 2.66 13 3 C7.72 3 2.44 3 -3 3 C-2.01 2.01 -1.02 1.02 0 0 Z " fill="#DFA49C" transform="translate(368,249)"/>
<path d="M0 0 C0.99 0 1.98 0 3 0 C3 2.31 3 4.62 3 7 C2.01 7 1.02 7 0 7 C0 4.69 0 2.38 0 0 Z " fill="#F9E6E1" transform="translate(414,238)"/>
<path d="M0 0 C0.556875 0.226875 1.11375 0.45375 1.6875 0.6875 C0.800625 1.120625 -0.08625 1.55375 -1 2 C-3.85679455 3.45534817 -6.58646863 5.00377474 -9.3125 6.6875 C-7.70234959 2.442558 -4.80443663 -0.64924819 0 0 Z " fill="#505152" transform="translate(464.3125,87.3125)"/>
<path d="M0 0 C4.29 0.66 8.58 1.32 13 2 C13 2.33 13 2.66 13 3 C9.04 3 5.08 3 1 3 C0.67 2.01 0.34 1.02 0 0 Z " fill="#B55047" transform="translate(521,94)"/>
<path d="M0 0 C0.99 0 1.98 0 3 0 C3 1.32 3 2.64 3 4 C1.35 4.33 -0.3 4.66 -2 5 C-1.34 3.35 -0.68 1.7 0 0 Z " fill="#1E1E1E" transform="translate(952,300)"/>
<path d="M0 0 C0.33 0.99 0.66 1.98 1 3 C-0.75 4.5625 -0.75 4.5625 -3 6 C-5.25 5.6875 -5.25 5.6875 -7 5 C-6.01 5 -5.02 5 -4 5 C-3.71125 4.360625 -3.4225 3.72125 -3.125 3.0625 C-2 1 -2 1 0 0 Z " fill="#343A53" transform="translate(402,168)"/>
<path d="M0 0 C0.33 0.66 0.66 1.32 1 2 C-1.31 4.64 -3.62 7.28 -6 10 C-6 6.41087588 -5.33563446 5.89142971 -3 3.3125 C-2.443125 2.68988281 -1.88625 2.06726563 -1.3125 1.42578125 C-0.879375 0.95527344 -0.44625 0.48476562 0 0 Z " fill="#232944" transform="translate(408,159)"/>
<path d="M0 0 C0.99 0.33 1.98 0.66 3 1 C-0.465 3.97 -0.465 3.97 -4 7 C-3.67 5.35 -3.34 3.7 -3 2 C-2.01 2 -1.02 2 0 2 C0 1.34 0 0.68 0 0 Z " fill="#848084" transform="translate(605,66)"/>
<path d="M0 0 C0.33 1.32 0.66 2.64 1 4 C-0.32 4.99 -1.64 5.98 -3 7 C-3.66 6.34 -4.32 5.68 -5 5 C-3.35 3.35 -1.7 1.7 0 0 Z " fill="#817374" transform="translate(627,41)"/>
<path d="M0 0 C-1.52708963 3.43595166 -3.59927045 6.11912454 -6 9 C-5.38983051 3.50847458 -5.38983051 3.50847458 -3.5625 1.125 C-2 0 -2 0 0 0 Z " fill="#565D77" transform="translate(741,213)"/>
<path d="M0 0 C0.66 0.33 1.32 0.66 2 1 C-0.475 4.465 -0.475 4.465 -3 8 C-3.33 6.68 -3.66 5.36 -4 4 C-2.0625 1.75 -2.0625 1.75 0 0 Z " fill="#646A83" transform="translate(590,213)"/>
<path d="M0 0 C2.97 0 5.94 0 9 0 C9 0.99 9 1.98 9 3 C4.545 2.01 4.545 2.01 0 1 C0 0.67 0 0.34 0 0 Z " fill="#FDFAF8" transform="translate(509,102)"/>
</svg>
