<?xml version="1.0" encoding="UTF-8"?>
<svg version="1.1" xmlns="http://www.w3.org/2000/svg" width="1193" height="1193">
<path d="M0 0 C3.7863707 0.00774709 7.57270738 -0.00222266 11.35907297 -0.00973 C17.96748112 -0.02047119 24.57581549 -0.02029496 31.18422686 -0.01258852 C41.01172194 -0.00115971 50.83915572 -0.00708411 60.66665049 -0.01621344 C78.22641849 -0.03195057 95.78615358 -0.0306656 113.34592465 -0.0219767 C128.71274423 -0.01441083 144.07955179 -0.01246885 159.44637285 -0.01604463 C160.46824047 -0.01627379 161.49010808 -0.01650294 162.54294138 -0.01673904 C166.69169415 -0.01767316 170.8404469 -0.01862837 174.98919965 -0.01961833 C213.85549383 -0.02878184 252.72176713 -0.02049627 291.58805808 -0.00432764 C326.07173036 0.00990874 360.5553694 0.00863282 395.03904139 -0.00571062 C433.83868514 -0.02179559 472.63831047 -0.02813287 511.4379571 -0.01887383 C515.57855938 -0.01791177 519.71916167 -0.01697324 523.85976397 -0.01604463 C524.87918389 -0.0158074 525.89860381 -0.01557017 526.94891524 -0.01532575 C542.3017576 -0.01192213 557.65458658 -0.01588768 573.00742708 -0.02348329 C590.47422707 -0.03208201 607.94098921 -0.02987201 625.40778452 -0.01364106 C635.16743395 -0.0048696 644.9270013 -0.00420273 654.68664851 -0.01557958 C661.22315072 -0.02235497 667.75958775 -0.01803394 674.29608037 -0.00506528 C678.00851075 0.00200329 681.72077927 0.00465554 685.43320399 -0.00628323 C726.29938141 -0.11761274 765.11939635 6.32938201 802.08616053 24.38540266 C802.84702967 24.75359114 803.60789881 25.12177962 804.39182459 25.50112532 C824.46691914 35.32254321 842.13198664 48.09240666 858.60959803 63.13149641 C860.28868258 64.65962226 861.98196876 66.17226124 863.68772303 67.67055891 C868.92681083 72.28443835 873.62822804 77.02061025 878.08616053 82.38540266 C879.19024256 83.65770735 879.19024256 83.65770735 880.31662928 84.95571516 C912.1034728 122.04878853 932.99986404 169.54578634 937.08616053 218.38540266 C937.16837817 219.26282527 937.25059582 220.14024788 937.3353049 221.04425905 C938.39786721 234.16935198 938.23059332 247.31866344 938.22082944 260.47756783 C938.21918275 264.1917254 938.22334843 267.90587749 938.22673862 271.62003325 C938.23187225 278.1186472 938.23331337 284.61725372 938.23228251 291.11586951 C938.23075324 300.78018666 938.23492893 310.44449563 938.24015713 320.10881119 C938.24981425 338.37720767 938.25264077 356.64560134 938.25321419 374.91400008 C938.25367424 389.02576529 938.25573523 403.13752941 938.25891482 417.24929426 C938.2598124 421.31561977 938.26070222 425.38194527 938.26158969 429.44827078 C938.26181074 430.45925731 938.26203179 431.47024384 938.26225954 432.51186632 C938.26841144 460.93883805 938.27236034 489.36580939 938.27191626 517.79278181 C938.27190068 518.86395096 938.2718851 519.9351201 938.27186905 521.03874892 C938.27178595 526.46751471 938.27168691 531.8962805 938.27158434 537.32504628 C938.27155442 538.94221804 938.27155442 538.94221804 938.2715239 540.59205992 C938.27148346 542.7722695 938.27144167 544.95247908 938.27139851 547.13268865 C938.27078592 581.04391662 938.27829021 614.95513459 938.29197108 648.86635969 C938.3073461 686.99239552 938.31593644 725.11842478 938.31500785 763.2444639 C938.31493323 767.31330425 938.31488452 771.38214459 938.31485354 775.45098494 C938.31484188 776.4527871 938.31483023 777.45458927 938.31481822 778.48674907 C938.3147875 794.57772743 938.32116143 810.66869706 938.3297858 826.75967283 C938.3382806 842.9441215 938.33923796 859.12855748 938.33267648 875.31300716 C938.32899299 884.91526023 938.33077712 894.51747464 938.34061882 904.11972358 C938.3466491 910.54914093 938.34528976 916.97853048 938.33814832 923.4079466 C938.33429235 927.06102884 938.33341622 930.71403666 938.34160567 934.36711345 C938.49640826 1008.45912352 916.37988453 1072.50091144 863.89866053 1125.82290266 C857.07428035 1132.65924794 849.85975054 1138.66823666 842.08616053 1144.38540266 C841.51542811 1144.81159895 840.94469568 1145.23779524 840.35666834 1145.67690657 C791.9799375 1181.73435146 737.20625177 1193.56401319 678.00019672 1193.52007158 C674.28692777 1193.51842488 670.5736643 1193.52259057 666.86039715 1193.52598075 C660.36331354 1193.53111439 653.86623737 1193.53255551 647.36915194 1193.53152464 C637.70705688 1193.52999537 628.04497003 1193.53417108 618.38287657 1193.53939927 C600.11835914 1193.54905649 581.85384452 1193.55188291 563.58932483 1193.55245632 C549.47995188 1193.55291639 535.37058004 1193.55497744 521.26120745 1193.55815695 C517.19545922 1193.55905454 513.12971098 1193.55994435 509.06396275 1193.56083183 C508.05311537 1193.56105288 507.04226799 1193.56127392 506.00078888 1193.56150167 C477.57739054 1193.56765364 449.15399258 1193.57160247 420.73059355 1193.57115839 C419.65954962 1193.57114281 418.5885057 1193.57112723 417.4850059 1193.57111118 C412.05688807 1193.57102808 406.62877024 1193.57092904 401.20065242 1193.57082648 C399.58367746 1193.57079656 399.58367746 1193.57079656 397.93403634 1193.57076604 C395.7540917 1193.5707256 393.57414706 1193.5706838 391.39420242 1193.57064064 C357.4896783 1193.5700281 323.5851642 1193.57753146 289.68064295 1193.59121321 C251.56082347 1193.60658977 213.44101056 1193.61517847 175.32118778 1193.61424999 C171.25261035 1193.61417536 167.18403293 1193.61412665 163.1154555 1193.61409567 C161.61285338 1193.61407819 161.61285338 1193.61407819 160.07989567 1193.61406035 C143.99283414 1193.61402964 127.90578134 1193.62040248 111.8187224 1193.62902794 C95.63649684 1193.63752466 79.45428397 1193.6384786 63.27205741 1193.63191861 C53.67223639 1193.62823635 44.07245404 1193.63001554 34.47263716 1193.63986095 C28.04356457 1193.64589445 21.61451976 1193.64452838 15.18544841 1193.63739046 C11.53338328 1193.63353714 7.88139258 1193.63265042 4.22933292 1193.64084781 C-16.82394681 1193.68501358 -38.07708563 1193.48101167 -58.78883947 1189.26040266 C-59.8514298 1189.04794905 -60.91402014 1188.83549544 -62.00881017 1188.61660383 C-104.63624745 1179.68773574 -143.27912352 1160.02389118 -175.40212072 1130.67446516 C-177.09374267 1129.13280037 -178.79989598 1127.60694822 -180.51930822 1126.09634016 C-184.99463891 1122.15588258 -189.20924436 1118.19401627 -193.03883947 1113.61977766 C-194.40069603 1111.9968986 -195.80218517 1110.40702193 -197.22633947 1108.83852766 C-234.34346811 1067.08175794 -255.13077746 1010.22649444 -255.04526724 954.53203104 C-255.04731987 953.27604336 -255.0493725 952.02005568 -255.05148734 950.72600777 C-255.05701388 947.2545837 -255.056389 943.78318449 -255.05470975 940.31175745 C-255.05397502 936.5291726 -255.05901009 932.74659456 -255.06328477 928.96401267 C-255.0708451 921.46816566 -255.07305683 913.97232579 -255.07361382 906.47647537 C-255.07452943 897.4947302 -255.08120287 888.51299157 -255.08796065 879.53124922 C-255.10400399 857.82329511 -255.10992235 836.11534172 -255.11470939 814.40738275 C-255.11704734 804.13135455 -255.12065024 793.85532691 -255.12440477 783.57929915 C-255.13723974 748.38148862 -255.14795823 713.1836784 -255.15140737 677.98586558 C-255.151629 675.77720599 -255.15185079 673.5685464 -255.15207272 671.35988681 C-255.15229336 669.14598235 -255.15251385 666.93207789 -255.15273417 664.71817343 C-255.15317672 660.27692757 -255.15362383 655.83568172 -255.15407385 651.39443587 C-255.15418324 650.29326891 -255.15429263 649.19210196 -255.15440533 648.05756632 C-255.15803387 612.37296397 -255.17394654 576.68838196 -255.19726421 541.00378739 C-255.22188973 503.24844035 -255.23558151 465.49310492 -255.23677529 427.73774962 C-255.23694674 423.58875118 -255.23716216 419.43975274 -255.23740972 415.2907543 C-255.23746549 414.2692043 -255.23752126 413.24765429 -255.23757872 412.19514823 C-255.23872689 395.79211302 -255.24972908 379.38909876 -255.26429678 362.98607061 C-255.27870123 346.48069903 -255.28187657 329.97535416 -255.2738568 313.46997801 C-255.26941888 303.67950611 -255.27318707 293.88912075 -255.28909531 284.09866031 C-255.29891237 277.53981244 -255.29760358 270.98102458 -255.28765908 264.42217713 C-255.28231498 260.69753301 -255.28139878 256.97305391 -255.2941678 253.24842409 C-255.36540001 231.08008648 -254.56535595 208.82297431 -249.22633947 187.19790266 C-248.8461466 185.61138899 -248.8461466 185.61138899 -248.45827307 183.99282454 C-239.02814945 146.04605237 -220.79862922 111.63286903 -194.91383947 82.38540266 C-194.1429801 81.50368391 -193.37212072 80.62196516 -192.57790197 79.71352766 C-184.03681709 70.06360018 -175.04233249 61.35626555 -164.91383947 53.38540266 C-163.97411291 52.61712141 -163.03438635 51.84884016 -162.06618322 51.05727766 C-147.69616772 39.56126526 -131.66826965 29.97781548 -114.91383947 22.38540266 C-114.17987951 22.05201887 -113.44591955 21.71863508 -112.68971838 21.37514876 C-76.48533571 5.12929922 -39.47641992 -0.11643281 0 0 Z " fill="#12CBF0" transform="translate(254.91383947152644,-0.38540266267955303)"/>
<path d="M0 0 C3.37032714 3.09135152 5.70187921 6.50091235 8.0625 10.375 C15.11573289 21.60989802 23.44078236 31.65549838 32.50390625 41.31640625 C34.63059822 43.60284973 36.67072561 45.92987084 38.6875 48.3125 C41.52239101 51.57732709 44.57870692 54.39495651 47.87890625 57.18359375 C49.29077571 58.39265323 50.67444226 59.63545716 52.02734375 60.91015625 C79.38099108 86.62931499 113.81620996 105.50965509 149 118 C149.80228027 118.28810547 150.60456055 118.57621094 151.43115234 118.87304688 C156.58369746 120.70822951 161.76690581 122.40945794 167 124 C167.72509766 124.22139648 168.45019531 124.44279297 169.19726562 124.67089844 C230.55338794 143.01309304 295.61952031 133.52551026 351.5078125 103.5546875 C355.01654296 101.60730419 358.4010449 99.50336344 361.78076172 97.34033203 C362.76116425 96.71369659 363.74156677 96.08706116 364.75167847 95.44143677 C365.49362457 94.96576263 366.23557068 94.4900885 367 94 C367.05143199 155.44303287 367.09912859 216.88606824 367.12702942 278.32911682 C367.12744359 279.23887004 367.12785776 280.14862326 367.12828448 281.08594476 C367.13726375 300.858569 367.14557422 320.63119347 367.15319599 340.40381828 C367.15693791 350.10067382 367.16082759 359.79752931 367.16479492 369.49438477 C367.1651872 370.45932508 367.16557948 371.4242654 367.16598364 372.41844634 C367.17876174 403.6802995 367.20129124 434.94213637 367.22889166 466.20397967 C367.25720922 498.33655273 367.27566092 530.46911679 367.28174497 562.60170212 C367.2826094 567.14291092 367.28358631 571.68411969 367.28463173 576.22532845 C367.284834 577.11908062 367.28503627 578.01283279 367.28524467 578.93366835 C367.28878623 593.30554426 367.30269072 607.67739226 367.3204961 622.0492568 C367.33818574 636.50695409 367.34489695 650.96462378 367.34050413 665.4223315 C367.33822693 674.00599567 367.344265 682.58955859 367.36239263 691.17320443 C367.37369018 696.91652612 367.37395751 702.65978195 367.36549544 708.40310828 C367.36099143 711.66955717 367.36274202 714.9357785 367.37464955 718.20221417 C367.49359849 752.8582334 359.34496684 780.8607904 336 807 C335.18917969 807.91265625 334.37835937 808.8253125 333.54296875 809.765625 C307.51023697 837.26186641 269.82752907 852.24342591 234 862 C233.13681152 862.23928223 232.27362305 862.47856445 231.38427734 862.72509766 C217.00472266 866.64489261 202.51727128 869.13391294 187.8125 871.4375 C170.30306601 874.18111109 153.1469063 877.4673137 136 882 C135.06800781 882.24572754 134.13601563 882.49145508 133.17578125 882.74462891 C90.86575425 894.14240021 47.19838398 916.57174049 19 951 C18.51208984 951.58620117 18.02417969 952.17240234 17.52148438 952.77636719 C15.79937509 954.84552905 14.086032 956.92167092 12.375 959 C11.54863037 959.99700928 11.54863037 959.99700928 10.70556641 961.01416016 C7.07543303 965.46509548 3.92599411 970.05817502 1 975 C-2.19387058 972.09648129 -4.65293227 969.14732257 -7.0625 965.5625 C-24.84155211 939.69857721 -49.51854804 919.74837922 -77 905 C-77.57556641 904.68498535 -78.15113281 904.3699707 -78.74414062 904.04541016 C-111.357332 886.30951529 -147.38499853 878.00460351 -183.6875 872.0625 C-221.8132944 865.81442012 -258.68655298 857.34508756 -293 839 C-293.90806396 838.52095215 -293.90806396 838.52095215 -294.83447266 838.03222656 C-307.97703347 831.0479145 -319.18744725 822.19317575 -330 812 C-330.79792969 811.278125 -331.59585938 810.55625 -332.41796875 809.8125 C-350.9113811 792.40693543 -364.47805107 766.79655656 -366.18472137 741.23314563 C-366.25182123 738.32394767 -366.26119841 735.4207337 -366.24609566 732.51080036 C-366.24840335 731.40235355 -366.25071103 730.29390674 -366.25308865 729.15187064 C-366.25837132 725.44740267 -366.24941883 721.74310948 -366.24050903 718.03865051 C-366.24138145 715.35215701 -366.24304887 712.66567464 -366.24568737 709.97918338 C-366.24982323 704.14347283 -366.24656719 698.30780318 -366.23841095 692.4720974 C-366.2263168 683.79468935 -366.22574158 675.11730696 -366.22749493 666.43989201 C-366.23011997 651.84152535 -366.2234504 637.24317683 -366.21146011 622.64481544 C-366.19962088 608.19328535 -366.19192717 593.7417628 -366.18975449 579.29022789 C-366.18954827 577.9417535 -366.18954827 577.9417535 -366.18933788 576.56603721 C-366.1886612 572.00044661 -366.18805844 567.43485601 -366.18748413 562.8692654 C-366.18328474 530.54198885 -366.16981402 498.21472217 -366.15087891 465.88745117 C-366.13250642 434.48445691 -366.11834096 403.08146535 -366.10986328 371.6784668 C-366.10960023 370.7102713 -366.10933718 369.7420758 -366.10906615 368.74454104 C-366.10642908 359.02141033 -366.10387746 349.2982796 -366.10138843 339.57514884 C-366.09631618 319.76849813 -366.09067368 299.9618476 -366.08468628 280.15519714 C-366.0844117 279.24454502 -366.08413712 278.3338929 -366.08385422 277.39564526 C-366.06545687 216.59709273 -366.03376694 155.79854569 -366 95 C-362.06084553 96.51680799 -358.74112525 98.33498732 -355.1875 100.625 C-347.72173554 105.31175757 -339.98281035 109.27227222 -332 113 C-331.28634277 113.33531738 -330.57268555 113.67063477 -329.83740234 114.01611328 C-285.92421667 134.35044177 -234.19760272 139.45478268 -187 129 C-185.69724121 128.71431152 -185.69724121 128.71431152 -184.36816406 128.42285156 C-136.54331561 117.7088969 -91.35799584 96.1520898 -54.65161133 63.46289062 C-53.4764684 62.42202493 -52.29309792 61.39041644 -51.10424805 60.36523438 C-39.74915432 50.56163965 -29.14313788 39.90333045 -20 28 C-18.78957031 26.48019531 -18.78957031 26.48019531 -17.5546875 24.9296875 C-12.16110875 18.1161476 -7.32221421 11.06963406 -2.71484375 3.703125 C-1 1 -1 1 0 0 Z " fill="#054D8E" transform="translate(596,109)"/>
<path d="M0 0 C0.06849303 52.6049226 0.13217295 105.20984905 0.16937256 157.81480408 C0.1702009 158.98318969 0.1702009 158.98318969 0.17104598 160.17517905 C0.1830184 177.10445142 0.19409902 194.03372425 0.20426132 210.9629978 C0.20925054 219.26545241 0.21443677 227.5679069 0.21972656 235.87036133 C0.2202496 236.69654279 0.22077263 237.52272426 0.22131152 238.37394153 C0.23834823 265.13911537 0.26838698 291.90425536 0.30518888 318.66940871 C0.3429478 346.18062847 0.3675484 373.69182952 0.37565996 401.20307477 C0.37681253 405.09138641 0.37811508 408.979698 0.37950897 412.86800957 C0.37991351 414.0158906 0.37991351 414.0158906 0.38032622 415.18696115 C0.38504785 427.49129727 0.4035859 439.7955754 0.42732814 452.0998879 C0.45091743 464.47845171 0.45986184 476.85695819 0.45400551 489.23554368 C0.45123636 495.93907898 0.45536476 502.64242403 0.4768219 509.34593964 C0.49633917 515.48836825 0.49723613 521.63051347 0.48359558 527.77295535 C0.48191059 529.98990238 0.4869405 532.20686735 0.49953273 534.42377926 C0.6716146 566.60203179 -11.94387148 593.37007383 -34.125 616.5625 C-61.05993654 642.50830045 -96.36796625 657.29666332 -132 667 C-132.86318848 667.23928223 -133.72637695 667.47856445 -134.61572266 667.72509766 C-148.99527734 671.64489261 -163.48272872 674.13391294 -178.1875 676.4375 C-195.69693399 679.18111109 -212.8530937 682.4673137 -230 687 C-230.93199219 687.24572754 -231.86398437 687.49145508 -232.82421875 687.74462891 C-275.13424575 699.14240021 -318.80161602 721.57174049 -347 756 C-347.48791016 756.58620117 -347.97582031 757.17240234 -348.47851562 757.77636719 C-350.20062491 759.84552905 -351.913968 761.92167092 -353.625 764 C-354.45136963 764.99700928 -354.45136963 764.99700928 -355.29443359 766.01416016 C-358.92456697 770.46509548 -362.07400589 775.05817502 -365 780 C-368.19387058 777.09648129 -370.65293227 774.14732257 -373.0625 770.5625 C-390.84155211 744.69857721 -415.51854804 724.74837922 -443 710 C-443.57556641 709.68498535 -444.15113281 709.3699707 -444.74414062 709.04541016 C-477.357332 691.30951529 -513.38499853 683.00460351 -549.6875 677.0625 C-587.8132944 670.81442012 -624.68655298 662.34508756 -659 644 C-659.90806396 643.52095215 -659.90806396 643.52095215 -660.83447266 643.03222656 C-673.97703347 636.0479145 -685.18744725 627.19317575 -696 617 C-696.79792969 616.278125 -697.59585938 615.55625 -698.41796875 614.8125 C-713.90400665 600.23740551 -725.08364982 580.68761214 -730 560 C-730.17660156 559.26942383 -730.35320312 558.53884766 -730.53515625 557.78613281 C-732.24358445 549.79832223 -732.3059004 541.93707122 -732.26074219 533.80859375 C-732.24988975 531.47630594 -732.26076214 529.14476647 -732.2734375 526.8125 C-732.27211801 525.32291497 -732.26955999 523.83333041 -732.265625 522.34375 C-732.26967346 521.65003296 -732.27372192 520.95631592 -732.27789307 520.24157715 C-732.24230319 516.60049417 -732.0789789 515.11846835 -730 512 C-729.34 512 -728.68 512 -728 512 C-728 511.34 -728 510.68 -728 510 C-727.319375 509.773125 -726.63875 509.54625 -725.9375 509.3125 C-722.76728657 507.89602166 -720.2928134 506.12708079 -717.55078125 504.0234375 C-716 503 -716 503 -714 503 C-714 502.34 -714 501.68 -714 501 C-712.3203125 499.7109375 -712.3203125 499.7109375 -710.125 498.375 C-709.40570312 497.92898438 -708.68640625 497.48296875 -707.9453125 497.0234375 C-706 496 -706 496 -704 496 C-704 495.34 -704 494.68 -704 494 C-702.02 493.34 -700.04 492.68 -698 492 C-698 491.34 -698 490.68 -698 490 C-697.34 490 -696.68 490 -696 490 C-696 489.34 -696 488.68 -696 488 C-695.0925 487.7525 -694.185 487.505 -693.25 487.25 C-689.7722903 485.91241935 -688.47669685 484.70888718 -686 482 C-680.72502806 477.28619529 -680.72502806 477.28619529 -677.625 476.0625 C-673.31945083 474.31977772 -668.12359212 471.24718425 -666 467 C-664.68 467 -663.36 467 -662 467 C-662 466.34 -662 465.68 -662 465 C-660.68 464.67 -659.36 464.34 -658 464 C-658 463.34 -658 462.68 -658 462 C-656.4221875 461.13375 -656.4221875 461.13375 -654.8125 460.25 C-651.60888521 458.4184513 -648.86640042 456.33311662 -646 454 C-644.28070591 452.7364553 -642.55058172 451.48757395 -640.8125 450.25 C-639.95269531 449.63640625 -639.09289062 449.0228125 -638.20703125 448.390625 C-636 447 -636 447 -634 447 C-634 446.34 -634 445.68 -634 445 C-632.57885742 443.90258789 -632.57885742 443.90258789 -630.60546875 442.72265625 C-629.89712891 442.29146484 -629.18878906 441.86027344 -628.45898438 441.41601562 C-627.70939453 440.96935547 -626.95980469 440.52269531 -626.1875 440.0625 C-624.72035346 439.18221207 -623.2554235 438.29821701 -621.79296875 437.41015625 C-621.1383667 437.01965088 -620.48376465 436.62914551 -619.80932617 436.22680664 C-617.96464439 434.97602727 -616.5530915 433.59024808 -615 432 C-613.25101201 430.84132977 -611.47747557 429.71928659 -609.6875 428.625 C-606.45505544 426.60952598 -603.38007767 424.62058367 -600.5 422.125 C-598 420 -598 420 -595 419 C-593.9891018 418.01101829 -592.99002568 417.00987581 -592 416 C-590.04825199 414.72154494 -588.04980481 413.55508836 -586.03515625 412.37890625 C-583.9205024 411.04258012 -583.9205024 411.04258012 -582.12890625 409.10546875 C-579.58485294 406.58942336 -576.85508295 404.72695921 -573.875 402.75 C-572.82054687 402.04359375 -571.76609375 401.3371875 -570.6796875 400.609375 C-568 399 -568 399 -566 399 C-566 398.34 -566 397.68 -566 397 C-563.8828125 395.4921875 -563.8828125 395.4921875 -561.125 393.875 C-559.76761719 393.06675781 -559.76761719 393.06675781 -558.3828125 392.2421875 C-556 391 -556 391 -554 391 C-553.67 390.01 -553.34 389.02 -553 388 C-550.04575935 386.33021181 -547.2185509 385.0728503 -544 384 C-544 383.34 -544 382.68 -544 382 C-541.26747954 378.76145723 -538.88221042 377.51500895 -535 376 C-534.154375 375.319375 -533.30875 374.63875 -532.4375 373.9375 C-530.13856875 372.11014439 -528.84877273 371.4220404 -526 371 C-526 370.34 -526 369.68 -526 369 C-523.875 367.484375 -523.875 367.484375 -521 365.75 C-516.72696316 363.11367907 -512.69674956 360.34202067 -508.71875 357.28515625 C-505.96579576 355.22669728 -503.06941586 353.53470793 -500 352 C-499.67 412.06 -499.34 472.12 -499 534 C-488.77517681 526.84262377 -478.55624178 519.68865649 -468.36645508 512.48388672 C-457.62334 504.89767116 -446.804131 497.41967664 -436.00195312 489.91796875 C-420.55493598 479.35509575 -420.55493598 479.35509575 -405.36500549 468.43261719 C-401.86388766 465.85716039 -398.5454202 463.71234105 -394.54272461 462 C-389.35812826 459.54796588 -385.12604133 456.92312499 -382 452 C-379.1797525 441.90451879 -380.01571752 430.95876978 -380.36914062 420.58093262 C-380.48355674 416.67954743 -380.50007121 412.77780033 -380.52539062 408.875 C-380.5890337 401.24639734 -380.75965204 393.62530167 -381 386 C-379.84314194 386.01189865 -378.68628387 386.0237973 -377.49436951 386.03605652 C-366.53532653 386.14150289 -355.57735986 386.18814669 -344.6177969 386.17878246 C-338.98454326 386.17581692 -333.35289023 386.1928036 -327.7199707 386.25708008 C-322.27277532 386.31847506 -316.82788407 386.32524947 -311.3804493 386.29583168 C-309.31341445 386.29394364 -307.24626372 386.31098534 -305.17956352 386.34822655 C-291.32089882 386.58184024 -282.81441297 384.80676798 -272.46278095 375.30495644 C-270.39477395 373.46007389 -268.15295907 371.91114762 -265.86328125 370.35546875 C-265.11216064 369.83130371 -264.36104004 369.30713867 -263.5871582 368.76708984 C-262.836521 368.2458252 -262.08588379 367.72456055 -261.3125 367.1875 C-259.60414166 365.99612961 -257.89580909 364.80472226 -256.1875 363.61328125 C-255.3315625 363.01725098 -254.475625 362.4212207 -253.59375 361.80712891 C-249.32908102 358.83582998 -245.07067312 355.85559751 -240.8125 352.875 C-239.98741943 352.29766113 -239.16233887 351.72032227 -238.31225586 351.12548828 C-232.16573541 346.82225633 -226.03119286 342.50228387 -219.90551758 338.16943359 C-214.61567424 334.4286767 -209.30793761 330.71555633 -204 327 C-203.67 307.2 -203.34 287.4 -203 267 C-261.74 267 -320.48 267 -381 267 C-381 248.19 -381 229.38 -381 210 C-322.59 209.67 -264.18 209.34 -204 209 C-203.67 186.89 -203.34 164.78 -203 142 C-201.68 142 -200.36 142 -199 142 C-198.67 141.01 -198.34 140.02 -198 139 C-197.01 138.67 -196.02 138.34 -195 138 C-194.5771875 137.5771875 -194.154375 137.154375 -193.71875 136.71875 C-190.77497653 133.77497653 -187.18364888 131.63114326 -183.73828125 129.31640625 C-180.89548678 127.38434685 -178.41538219 125.42898997 -176 123 C-174.46112957 122.02419761 -172.89565824 121.08967652 -171.3125 120.1875 C-167.26694726 117.81434461 -163.53446907 115.24766851 -159.8203125 112.390625 C-152.76404494 107 -152.76404494 107 -150 107 C-150 106.34 -150 105.68 -150 105 C-147.35261084 103.5393715 -146.10551666 103 -143 103 C-142.67 102.01 -142.34 101.02 -142 100 C-138.20499678 96.48962202 -134.09930511 93.64251633 -129.77734375 90.8203125 C-127.56957496 89.37330792 -125.37765656 87.90870062 -123.19140625 86.4296875 C-122.18678345 85.75232544 -122.18678345 85.75232544 -121.16186523 85.0612793 C-119.81995864 84.15622016 -118.47958441 83.24888424 -117.14086914 82.33911133 C-114.44636654 80.52915179 -112.09512042 79.03170681 -109 78 C-107.5412312 76.70921589 -107.5412312 76.70921589 -106 75 C-103.5 72.3125 -103.5 72.3125 -101 70 C-100.01 70 -99.02 70 -98 70 C-98 69.34 -98 68.68 -98 68 C-97.236875 67.731875 -96.47375 67.46375 -95.6875 67.1875 C-93.07686496 66.03396359 -91.92614911 65.01370135 -90 63 C-88.515 62.505 -88.515 62.505 -87 62 C-86.484375 61.484375 -85.96875 60.96875 -85.4375 60.4375 C-84.7259375 59.7259375 -84.7259375 59.7259375 -84 59 C-83.34 59 -82.68 59 -82 59 C-82 58.34 -82 57.68 -82 57 C-80.20963542 56.0234375 -78.41927083 55.046875 -76.62890625 54.0703125 C-74.83381685 53.08589976 -74.83381685 53.08589976 -74 51 C-72.68 51 -71.36 51 -70 51 C-70 50.01 -70 49.02 -70 48 C-68.68 48 -67.36 48 -66 48 C-66 47.34 -66 46.68 -66 46 C-64.390625 44.81640625 -64.390625 44.81640625 -62.25 43.5625 C-59.9314627 42.17793179 -57.77528185 40.82850457 -55.625 39.1875 C-54 38 -54 38 -52 38 C-52 37.34 -52 36.68 -52 36 C-50.3203125 34.7109375 -50.3203125 34.7109375 -48.125 33.375 C-47.40570312 32.92898438 -46.68640625 32.48296875 -45.9453125 32.0234375 C-44 31 -44 31 -42 31 C-42 30.34 -42 29.68 -42 29 C-40.20963542 28.0234375 -38.41927083 27.046875 -36.62890625 26.0703125 C-34.83381685 25.08589976 -34.83381685 25.08589976 -34 23 C-32.68 23 -31.36 23 -30 23 C-30 22.34 -30 21.68 -30 21 C-29.401875 20.731875 -28.80375 20.46375 -28.1875 20.1875 C-25.9700287 19.12703272 -25.9700287 19.12703272 -24.5 17.4375 C-22.72539815 15.73683989 -21.38993744 15.41205818 -19 15 C-19 14.34 -19 13.68 -19 13 C-17.171875 11.59765625 -17.171875 11.59765625 -14.75 10.0625 C-12.36876419 8.5411549 -10.05842444 7.04549961 -7.828125 5.30859375 C-6 4 -6 4 -4 4 C-4 3.34 -4 2.68 -4 2 C-1 0 -1 0 0 0 Z " fill="#003368" transform="translate(962,304)"/>
<path d="M0 0 C1.77573451 0.00311164 3.5514831 0.00134395 5.32720947 -0.00486755 C10.0959815 -0.00799299 14.86164055 0.05615924 19.62969589 0.13344598 C24.63162725 0.20273675 29.63364907 0.20871289 34.63598633 0.22172546 C44.08511366 0.25576254 53.53282228 0.34581814 62.98132801 0.45656985 C73.74791914 0.5800017 84.51458206 0.6401216 95.28170586 0.69521964 C117.40864442 0.80985181 139.53431056 1.0030303 161.66015625 1.2487793 C161.68348578 16.61679378 161.70113569 31.98480745 161.71196842 47.35283566 C161.71713126 54.48799671 161.72417373 61.62314678 161.7355957 68.75830078 C161.746603 75.63767667 161.75243242 82.51704111 161.75503349 89.39642525 C161.75688831 92.02759545 161.76050998 94.65876498 161.76588631 97.28993034 C161.7730926 100.96104179 161.77414737 104.63210533 161.77368164 108.30322266 C161.77727692 109.40301453 161.78087219 110.5028064 161.78457642 111.63592529 C161.78320175 112.63017014 161.78182709 113.62441498 161.78041077 114.64878845 C161.78179346 115.95266463 161.78179346 115.95266463 161.78320408 117.28288174 C161.66015625 119.2487793 161.66015625 119.2487793 160.66015625 120.2487793 C158.3819188 120.34587 156.10060202 120.37064534 153.82029724 120.36903381 C152.73483245 120.37031545 152.73483245 120.37031545 151.62743908 120.37162298 C149.18446279 120.37327992 146.74155403 120.36775295 144.29858398 120.36230469 C142.55461631 120.36202284 140.81064851 120.36218051 139.06668091 120.36274719 C134.3168813 120.36303525 129.56710672 120.35713727 124.81731296 120.35017323 C119.85917203 120.34394099 114.90103059 120.343336 109.94288635 120.34214783 C100.54705797 120.33903413 91.15124116 120.33082023 81.75541788 120.32079834 C71.06152476 120.30963839 60.36763109 120.30412705 49.67373359 120.2991029 C27.66919991 120.28863764 5.6646821 120.27029169 -16.33984375 120.2487793 C-16.33984375 139.0587793 -16.33984375 157.8687793 -16.33984375 177.2487793 C42.40015625 177.2487793 101.14015625 177.2487793 161.66015625 177.2487793 C161.66015625 197.0487793 161.66015625 216.8487793 161.66015625 237.2487793 C144.72897992 249.66497527 144.72897992 249.66497527 137.34765625 254.6237793 C130.28369948 259.41163608 123.33924764 264.33802626 116.44360352 269.36450195 C110.23528867 273.87333397 103.92412734 278.21892743 97.5546875 282.49682617 C96.82894531 282.98731445 96.10320312 283.47780273 95.35546875 283.9831543 C94.6368869 284.45674881 93.91830505 284.93034332 93.177948 285.41828918 C90.59589057 287.20298949 90.59589057 287.20298949 88.34841919 289.50553894 C78.81145083 298.24860568 69.09717025 297.41898048 56.70703125 297.12768555 C54.59428638 297.1108713 52.48150609 297.09807346 50.36871338 297.08909607 C44.84406336 297.05495331 39.32158887 296.96674167 33.79779053 296.86676025 C28.14674297 296.77421026 22.49533917 296.73348567 16.84375 296.68823242 C5.78160327 296.59210058 -5.2789384 296.43876983 -16.33984375 296.2487793 C-16.30653458 297.0512056 -16.2732254 297.8536319 -16.23890686 298.68037415 C-15.93693077 306.28469347 -15.70931921 313.88606697 -15.56266117 321.49483967 C-15.48471389 325.40608382 -15.37927967 329.31233471 -15.20825195 333.22070312 C-14.0421522 360.58649196 -14.0421522 360.58649196 -19.4050293 366.56933594 C-22.47835726 369.13413193 -25.79413583 370.86865618 -29.4692688 372.42092896 C-32.071616 373.57263583 -34.2156024 375.17920916 -36.4765625 376.89331055 C-37.99226131 377.95106236 -39.50918924 379.00705509 -41.02734375 380.0612793 C-42.74353058 381.25783509 -44.45967521 382.4544514 -46.17578125 383.65112305 C-47.4611377 384.54613525 -47.4611377 384.54613525 -48.77246094 385.45922852 C-52.08543435 387.76848062 -55.39237923 390.08627369 -58.69921875 392.40429688 C-66.79570643 398.07941259 -74.90751016 403.73212454 -83.02734375 409.3737793 C-89.64876169 413.9747051 -96.25907062 418.58989559 -102.83984375 423.2487793 C-109.82338934 428.18901357 -116.82602972 433.10161105 -123.83984375 437.9987793 C-124.86271484 438.71549805 -125.88558594 439.4322168 -126.93945312 440.1706543 C-127.88626953 440.8306543 -128.83308594 441.4906543 -129.80859375 442.1706543 C-130.65873047 442.76458984 -131.50886719 443.35852539 -132.38476562 443.97045898 C-134.33984375 445.2487793 -134.33984375 445.2487793 -135.33984375 445.2487793 C-135.72907918 399.33676342 -136.02856967 353.42492238 -136.20795435 307.51158141 C-136.22921599 302.08934259 -136.25121951 296.66710702 -136.27368164 291.24487305 C-136.27814092 290.16541822 -136.2826002 289.0859634 -136.2871946 287.97379783 C-136.36113847 270.50237793 -136.49515824 253.03191036 -136.65144128 235.56105515 C-136.81050125 217.63001988 -136.90485994 199.69948281 -136.93934816 181.76777101 C-136.96265885 170.70508296 -137.03623034 159.64508654 -137.17442369 148.58322731 C-137.26439245 140.99429741 -137.29142375 133.40675569 -137.26936717 125.8173314 C-137.25849067 121.43942413 -137.27496475 117.06621248 -137.36633682 112.68914413 C-137.87436046 87.11691171 -137.87436046 87.11691171 -133.66684985 80.69548702 C-129.7841375 76.71233454 -125.44775651 74.24619576 -120.34442127 72.12628222 C-117.58000226 70.91615902 -115.27451049 69.23002473 -112.875 67.41674805 C-111.36349607 66.360451 -109.8517859 65.30444899 -108.33984375 64.2487793 C-106.75512736 63.14082219 -105.1704931 62.0327476 -103.5859375 60.92456055 C-102.80347656 60.37735352 -102.02101563 59.83014648 -101.21484375 59.26635742 C-93.38880991 53.79189625 -85.57372029 48.30256289 -77.77514648 42.7890625 C-71.46098113 38.32779918 -65.12647205 33.89586597 -58.79003906 29.46630859 C-52.76944524 25.25549737 -46.76194343 21.02661036 -40.7734375 16.77026367 C-39.51035606 15.87547019 -38.23849442 14.99297189 -36.95918274 14.12154102 C-34.91419714 12.65942758 -32.98471148 11.15698995 -31.03752136 9.57324505 C-20.68745065 1.44885173 -12.94637277 -0.32291704 0 0 Z " fill="#FEFEFE" transform="translate(597.33984375,393.751220703125)"/>
<path d="M0 0 C0.33 0 0.66 0 1 0 C1.02332953 15.36801449 1.04097944 30.73602816 1.05181217 46.10405636 C1.05697501 53.23921741 1.06401748 60.37436748 1.07543945 67.50952148 C1.08644675 74.38889737 1.09227617 81.26826181 1.09487724 88.14764595 C1.09673206 90.77881615 1.10035373 93.40998569 1.10573006 96.04115105 C1.11293635 99.7122625 1.11399112 103.38332603 1.11352539 107.05444336 C1.11712067 108.15423523 1.12071594 109.2540271 1.12442017 110.387146 C1.1230455 111.38139084 1.12167084 112.37563568 1.12025452 113.40000916 C1.12163721 114.70388533 1.12163721 114.70388533 1.12304783 116.03410244 C1 118 1 118 0 119 C-2.27823745 119.09709071 -4.55955423 119.12186604 -6.83985901 119.12025452 C-7.9253238 119.12153615 -7.9253238 119.12153615 -9.03271717 119.12284368 C-11.47569346 119.12450062 -13.91860222 119.11897365 -16.36157227 119.11352539 C-18.10553994 119.11324354 -19.84950774 119.11340121 -21.59347534 119.1139679 C-26.34327495 119.11425595 -31.09304953 119.10835797 -35.84284329 119.10139394 C-40.80098422 119.09516169 -45.75912566 119.0945567 -50.7172699 119.09336853 C-60.11309828 119.09025483 -69.50891509 119.08204093 -78.90473837 119.07201904 C-89.59863149 119.06085909 -100.29252516 119.05534775 -110.98642266 119.05032361 C-132.99095491 119.03985834 -154.99547673 119.02225816 -177 119 C-176.97557327 119.69633545 -176.95114655 120.3926709 -176.92597961 121.11010742 C-176.70479345 127.69983703 -176.53772533 134.28851969 -176.43006611 140.88113403 C-176.37284779 144.27019603 -176.29539311 147.65617193 -176.17016602 151.04345703 C-176.0362466 154.94645607 -175.97425355 158.84511795 -175.92578125 162.75 C-175.86900711 163.95551514 -175.81223297 165.16103027 -175.7537384 166.40307617 C-175.75000464 171.52878326 -175.75710605 174.69752424 -179.39682007 178.51171875 C-182.18441768 180.55457363 -184.99032882 182.30666795 -188 184 C-189.19507066 184.82243954 -190.38449959 185.65329123 -191.5625 186.5 C-194 188 -194 188 -196 188 C-196 188.66 -196 189.32 -196 190 C-198.19845399 191.6085507 -200.39600095 193.09687398 -202.6875 194.5625 C-204.06833674 195.46388182 -205.44853357 196.36624461 -206.828125 197.26953125 C-207.52744141 197.72537598 -208.22675781 198.1812207 -208.94726562 198.65087891 C-216.32243305 203.49806911 -223.58570111 208.53131416 -230.51171875 214.00390625 C-232 215 -232 215 -234 215 C-234 215.66 -234 216.32 -234 217 C-234.99 217 -235.98 217 -237 217 C-237.25724729 202.12728373 -237.45107414 187.25474012 -237.56993389 172.38027096 C-237.62659721 165.47321537 -237.70380477 158.56754388 -237.82983398 151.66137695 C-237.95141541 144.99574857 -238.0151321 138.33185423 -238.04364967 131.66507149 C-238.06396956 129.12236463 -238.10365235 126.57973619 -238.16303062 124.03764153 C-238.61081813 104.0722624 -238.61081813 104.0722624 -234.64176941 98.96621704 C-231.78069613 97.12646722 -229.21242781 96.07315289 -226 95 C-224.41094991 93.95874349 -222.85010854 92.87131044 -221.33984375 91.71875 C-220.61482666 91.19087891 -219.88980957 90.66300781 -219.14282227 90.11914062 C-218.41506592 89.58482422 -217.68730957 89.05050781 -216.9375 88.5 C-215.3623153 87.35370463 -213.78679789 86.20786629 -212.2109375 85.0625 C-211.47456055 84.52625 -210.73818359 83.99 -209.97949219 83.4375 C-201.97621476 77.62554915 -193.77276741 72.09556707 -185.59790039 66.52929688 C-184.80504639 65.98853516 -184.01219238 65.44777344 -183.1953125 64.890625 C-182.48391113 64.40625977 -181.77250977 63.92189453 -181.03955078 63.42285156 C-178.98914024 62.06326089 -178.98914024 62.06326089 -177.3178215 60.4336195 C-174.08506036 58.43409132 -171.66330365 58.63109605 -167.87530518 58.63923645 C-166.79824613 58.63539154 -166.79824613 58.63539154 -165.69942832 58.63146895 C-163.2932056 58.62652717 -160.88761023 58.64302996 -158.48144531 58.65942383 C-156.75673945 58.66027002 -155.0320325 58.65979512 -153.30732727 58.65809631 C-148.62373474 58.65723462 -143.94037212 58.67488862 -139.25683308 58.69581819 C-134.36278253 58.7145559 -129.46872688 58.71633313 -124.574646 58.71989441 C-115.30636966 58.72922342 -106.03819933 58.75384879 -96.7699697 58.78394288 C-86.21870206 58.81746025 -75.66742939 58.8339662 -65.11612177 58.84902918 C-43.41067552 58.8803976 -21.7053746 58.93542038 0 59 C0 39.53 0 20.06 0 0 Z " fill="#D7DFE7" transform="translate(758,395)"/>
<path d="M0 0 C78.21 0 156.42 0 237 0 C232.50340136 4.49659864 232.50340136 4.49659864 229.70703125 6.375 C228.77515991 7.00716431 228.77515991 7.00716431 227.82446289 7.65209961 C226.82854126 8.3193103 226.82854126 8.3193103 225.8125 9 C224.36914663 9.97951894 222.92645986 10.96002071 221.484375 11.94140625 C220.3715918 12.69768311 220.3715918 12.69768311 219.23632812 13.46923828 C215.65262379 15.92227607 212.10654773 18.42764667 208.5625 20.9375 C207.50313232 21.68700928 207.50313232 21.68700928 206.42236328 22.45166016 C204.99065862 23.46501167 203.55918039 24.47868319 202.12792969 25.49267578 C198.64985444 27.95637892 195.16898321 30.41611588 191.6875 32.875 C191.00059082 33.3604126 190.31368164 33.8458252 189.60595703 34.34594727 C185.66674445 37.12696788 181.71988296 39.89665812 177.765625 42.65625 C176.87915283 43.27516113 175.99268066 43.89407227 175.0793457 44.53173828 C173.37042704 45.72408057 171.66068339 46.91524168 169.94995117 48.10498047 C169.16080322 48.65557129 168.37165527 49.20616211 167.55859375 49.7734375 C166.87079834 50.25216309 166.18300293 50.73088867 165.47436523 51.22412109 C163.08143404 52.87818032 163.08143404 52.87818032 161.34687901 54.46197891 C156.03158027 58.95670213 152.22689243 59.85320697 145.37109375 59.68115234 C143.97945763 59.68246658 143.97945763 59.68246658 142.55970764 59.68380737 C139.51809063 59.67965442 136.47872776 59.63311121 133.4375 59.5859375 C131.31902267 59.57473721 129.20052972 59.56620096 127.08203125 59.56021118 C121.52500984 59.53737868 115.9689398 59.47850288 110.41229248 59.4119873 C104.73462796 59.35044466 99.05680867 59.32317056 93.37890625 59.29296875 C82.25218777 59.22875478 71.12617321 59.12644247 60 59 C60.03330917 59.8024263 60.06661835 60.6048526 60.10093689 61.43159485 C60.40291298 69.03591417 60.63052454 76.63728767 60.77718258 84.24606037 C60.85512986 88.15730453 60.96056408 92.06355541 61.1315918 95.97192383 C62.29769155 123.33771266 62.29769155 123.33771266 56.93481445 129.32055664 C53.86148649 131.88535263 50.54570792 133.61987689 46.87057495 135.17214966 C44.26822775 136.32385653 42.12424135 137.93042987 39.86328125 139.64453125 C38.34761585 140.70233094 36.83069277 141.7583309 35.3125 142.8125 C33.61971102 143.99207178 31.92700536 145.17176313 30.234375 146.3515625 C29.38037109 146.94614258 28.52636719 147.54072266 27.64648438 148.15332031 C24.9109496 150.06213812 22.18131173 151.9791342 19.453125 153.8984375 C18.55037842 154.53289795 17.64763184 155.1673584 16.7175293 155.82104492 C14.98900182 157.03617987 13.26125853 158.25243134 11.53442383 159.4699707 C10.75091553 160.01999756 9.96740723 160.57002441 9.16015625 161.13671875 C8.47574463 161.61842529 7.79133301 162.10013184 7.08618164 162.59643555 C4.77879762 164.14882299 2.38468271 165.56919038 0 167 C0 111.89 0 56.78 0 0 Z " fill="#D8E0E7" transform="translate(521,631)"/>
<path d="M0 0 C0.66 0.66 1.32 1.32 2 2 C-1.625 7.875 -1.625 7.875 -5 9 C-3.7508258 5.54074837 -2.32472205 2.85306797 0 0 Z M-6 9 C-5.67 10.32 -5.34 11.64 -5 13 C-6.9375 15.75 -6.9375 15.75 -9 18 C-9.99 17.67 -10.98 17.34 -12 17 C-10.02 14.36 -8.04 11.72 -6 9 Z " fill="#015B98" transform="translate(596,109)"/>
<path d="M0 0 C0 3 0 3 -1 5 C-1.66 5 -2.32 5 -3 5 C-3.25523437 5.59296875 -3.51046875 6.1859375 -3.7734375 6.796875 C-5.11816498 9.21224538 -6.49214367 10.51211706 -8.625 12.25 C-9.25664063 12.77078125 -9.88828125 13.2915625 -10.5390625 13.828125 C-11.02117188 14.21484375 -11.50328125 14.6015625 -12 15 C-12.66 14.67 -13.32 14.34 -14 14 C-12.42100123 12.22513306 -10.83707231 10.45512408 -9.25 8.6875 C-8.8065625 8.18798828 -8.363125 7.68847656 -7.90625 7.17382812 C-5.453615 4.45068191 -3.02719984 2.07235877 0 0 Z " fill="#1FBCE5" transform="translate(629,1045)"/>
<path d="M0 0 C0 0.66 0 1.32 0 2 C-1.32 2 -2.64 2 -4 2 C-4 2.66 -4 3.32 -4 4 C-4.62648438 4.27714844 -5.25296875 4.55429687 -5.8984375 4.83984375 C-6.71570313 5.20207031 -7.53296875 5.56429687 -8.375 5.9375 C-9.18710937 6.29714844 -9.99921875 6.65679688 -10.8359375 7.02734375 C-12.23683785 7.6569903 -13.62625284 8.31312642 -15 9 C-17.125 8.5625 -17.125 8.5625 -19 8 C-19 7.34 -19 6.68 -19 6 C-16.20964954 4.99619084 -13.41785145 3.9968055 -10.625 3 C-9.43390625 2.57074219 -9.43390625 2.57074219 -8.21875 2.1328125 C-7.45820312 1.86210938 -6.69765625 1.59140625 -5.9140625 1.3125 C-4.8614624 0.93544922 -4.8614624 0.93544922 -3.78759766 0.55078125 C-2 0 -2 0 0 0 Z " fill="#1EB8E0" transform="translate(866,959)"/>
<path d="M0 0 C1.24951378 3.74854134 0.67247498 4.49982033 -1 8 C-2.25393141 10.2663046 -3.5290909 12.47850792 -4.875 14.6875 C-5.21402344 15.26822266 -5.55304687 15.84894531 -5.90234375 16.44726562 C-7.8673685 19.67872267 -9.36735082 21.73753224 -13 23 C-12.56429687 22.34515625 -12.12859375 21.6903125 -11.6796875 21.015625 C-7.25474871 14.23454998 -3.4815963 7.30752629 0 0 Z " fill="#20B8DF" transform="translate(953,883)"/>
<path d="M0 0 C1.09570312 0.10183594 2.19140625 0.20367188 3.3203125 0.30859375 C4.16335938 0.39238281 5.00640625 0.47617187 5.875 0.5625 C2.63472157 2.40744322 -0.32947945 3.09909594 -4 3.6875 C-5.51207031 3.93886719 -5.51207031 3.93886719 -7.0546875 4.1953125 C-10.11061748 4.56077995 -13.05057891 4.62674163 -16.125 4.5625 C-16.125 4.2325 -16.125 3.9025 -16.125 3.5625 C-13.485 3.2325 -10.845 2.9025 -8.125 2.5625 C-8.125 1.9025 -8.125 1.2425 -8.125 0.5625 C-5.28943413 -0.85528293 -3.1341294 -0.30007622 0 0 Z " fill="#01497D" transform="translate(768.125,980.4375)"/>
<path d="M0 0 C0.66 0.66 1.32 1.32 2 2 C-4.28571429 7.42857143 -4.28571429 7.42857143 -8 9 C-8.66 8.34 -9.32 7.68 -10 7 C-6.7 4.69 -3.4 2.38 0 0 Z M-10 9 C-9.34 9 -8.68 9 -8 9 C-8.33 9.66 -8.66 10.32 -9 11 C-9.33 10.34 -9.66 9.68 -10 9 Z " fill="#0C3665" transform="translate(727,653)"/>
<path d="M0 0 C0.33 0.66 0.66 1.32 1 2 C-2.77339973 6.95258714 -6.90789714 10.43679155 -12 14 C-12.66 13.67 -13.32 13.34 -14 13 C-13.07316406 12.14535156 -12.14632812 11.29070313 -11.19140625 10.41015625 C-9.98176077 9.29428174 -8.7721259 8.17839573 -7.5625 7.0625 C-6.64500977 6.21655273 -6.64500977 6.21655273 -5.70898438 5.35351562 C-5.12568359 4.81533203 -4.54238281 4.27714844 -3.94140625 3.72265625 C-3.40201416 3.22515869 -2.86262207 2.72766113 -2.30688477 2.21508789 C-1.52614632 1.48918929 -0.75381738 0.75381738 0 0 Z " fill="#21BFE4" transform="translate(931,916)"/>
<path d="M0 0 C0.99 0.33 1.98 0.66 3 1 C2.19175781 1.62261719 1.38351563 2.24523437 0.55078125 2.88671875 C-3.14802373 6.58552373 -2.77912905 10.84022914 -2.8125 15.8125 C-2.83763672 16.69615234 -2.86277344 17.57980469 -2.88867188 18.49023438 C-2.94730558 20.65968134 -2.97657386 22.82988727 -3 25 C-3.33 25 -3.66 25 -4 25 C-4.0580476 21.72924117 -4.09361165 18.45861476 -4.125 15.1875 C-4.14175781 14.25873047 -4.15851563 13.32996094 -4.17578125 12.37304688 C-4.18222656 11.48037109 -4.18867188 10.58769531 -4.1953125 9.66796875 C-4.20578613 8.84578857 -4.21625977 8.0236084 -4.22705078 7.17651367 C-4 5 -4 5 -2 2 C-1.34 2 -0.68 2 0 2 C0 1.34 0 0.68 0 0 Z " fill="#003C70" transform="translate(234,814)"/>
<path d="M0 0 C0 0.66 0 1.32 0 2 C-6.55276707 4.28584898 -13.10401439 4.60594368 -20 5 C-16.76168874 3.20958752 -13.58584892 2.26249761 -10 1.375 C-8.96875 1.11460937 -7.9375 0.85421875 -6.875 0.5859375 C-4 0 -4 0 0 0 Z " fill="#23B8E2" transform="translate(748,987)"/>
<path d="M0 0 C0.66 0.33 1.32 0.66 2 1 C1.43410156 1.48210937 0.86820313 1.96421875 0.28515625 2.4609375 C-0.44832031 3.09257812 -1.18179688 3.72421875 -1.9375 4.375 C-2.66839844 5.00148438 -3.39929688 5.62796875 -4.15234375 6.2734375 C-6.08380906 7.87747714 -6.08380906 7.87747714 -7 10 C-8.32 9.34 -9.64 8.68 -11 8 C-7.37 5.36 -3.74 2.72 0 0 Z " fill="#DCF2F8" transform="translate(557,410)"/>
<path d="M0 0 C0.33 0.66 0.66 1.32 1 2 C-5.15034169 9.48291572 -5.15034169 9.48291572 -9 12 C-9.66 11.67 -10.32 11.34 -11 11 C-7.37 7.37 -3.74 3.74 0 0 Z " fill="#005B95" transform="translate(556,159)"/>
<path d="M0 0 C0.66 0.33 1.32 0.66 2 1 C2 1.66 2 2.32 2 3 C-0.1171875 4.54296875 -0.1171875 4.54296875 -2.875 6.1875 C-3.77992188 6.73792969 -4.68484375 7.28835937 -5.6171875 7.85546875 C-6.40351562 8.23316406 -7.18984375 8.61085937 -8 9 C-8.66 8.67 -9.32 8.34 -10 8 C-6.7 5.36 -3.4 2.72 0 0 Z " fill="#015B96" transform="translate(531,181)"/>
<path d="M0 0 C0.66 0.33 1.32 0.66 2 1 C-1.3 3.97 -4.6 6.94 -8 10 C-8.66 9.67 -9.32 9.34 -10 9 C-6.7 6.03 -3.4 3.06 0 0 Z " fill="#20B8E0" transform="translate(640,1035)"/>
<path d="M0 0 C7.48291572 6.15034169 7.48291572 6.15034169 10 10 C6.4628562 9.43867066 5.00738321 8.30442253 2.75 5.5625 C1.96882812 4.63630859 1.96882812 4.63630859 1.171875 3.69140625 C0 2 0 2 0 0 Z " fill="#1FBCE1" transform="translate(563,1045)"/>
<path d="M0 0 C0.66 0.33 1.32 0.66 2 1 C-1.08290155 5.22797927 -1.08290155 5.22797927 -3 7 C-5.8125 7.375 -5.8125 7.375 -8 7 C-5.42215154 4.35247996 -3.08351902 2.05567935 0 0 Z " fill="#E5F6FC" transform="translate(543,420)"/>
<path d="M0 0 C2.125 0.375 2.125 0.375 4 1 C0.25 4 0.25 4 -2 4 C-2.33 4.99 -2.66 5.98 -3 7 C-3.99 6.67 -4.98 6.34 -6 6 C-5.34 6 -4.68 6 -4 6 C-3.71125 5.38125 -3.4225 4.7625 -3.125 4.125 C-2 2 -2 2 0 0 Z " fill="#05477F" transform="translate(856,376)"/>
<path d="M0 0 C1.6065676 0.25620684 3.2102483 0.53055871 4.8125 0.8125 C6.15248047 1.03873047 6.15248047 1.03873047 7.51953125 1.26953125 C10.18321256 2.05395393 11.25690322 2.88627799 13 5 C8.15340923 4.40895235 4.39251833 3.02055843 0 1 C0 0.67 0 0.34 0 0 Z " fill="#21BEE9" transform="translate(274,226)"/>
<path d="M0 0 C0.33 0.66 0.66 1.32 1 2 C-2.20336822 4.83374881 -4.78087253 5.5205537 -9 6 C-6.45543849 3.03134491 -3.51005335 1.6380249 0 0 Z " fill="#1DB3D8" transform="translate(679,1010)"/>
<path d="M0 0 C0.33 0.99 0.66 1.98 1 3 C-4.2734375 6.22265625 -4.2734375 6.22265625 -6 7 C-6.66 6.67 -7.32 6.34 -8 6 C-5.36 4.02 -2.72 2.04 0 0 Z " fill="#DCF1F8" transform="translate(510,443)"/>
<path d="M0 0 C2.475 0.99 2.475 0.99 5 2 C5 2.66 5 3.32 5 4 C5.99 4.33 6.98 4.66 8 5 C7.67 5.99 7.34 6.98 7 8 C5.83035398 6.8572081 4.66435444 5.71068285 3.5 4.5625 C2.8503125 3.92441406 2.200625 3.28632813 1.53125 2.62890625 C0 1 0 1 0 0 Z " fill="#22C2EC" transform="translate(641,163)"/>
<path d="M0 0 C3.465 1.485 3.465 1.485 7 3 C5.1875 4.0625 5.1875 4.0625 3 5 C2.01 4.67 1.02 4.34 0 4 C0 2.68 0 1.36 0 0 Z " fill="#035796" transform="translate(692,203)"/>
<path d="M0 0 C2.97 0.495 2.97 0.495 6 1 C6 2.98 6 4.96 6 7 C1.125 2.25 1.125 2.25 0 0 Z " fill="#1EBCE4" transform="translate(618,139)"/>
</svg>
