<?xml version="1.0" encoding="UTF-8"?>
<!DOCTYPE svg PUBLIC "-//W3C//DTD SVG 1.1//EN" "http://www.w3.org/Graphics/SVG/1.1/DTD/svg11.dtd">
<svg xmlns="http://www.w3.org/2000/svg" version="1.1" width="512px" height="512px" style="shape-rendering:geometricPrecision; text-rendering:geometricPrecision; image-rendering:optimizeQuality; fill-rule:evenodd; clip-rule:evenodd" xmlns:xlink="http://www.w3.org/1999/xlink">
<g><path style="opacity:1" fill="#17be58" d="M -0.5,-0.5 C 170.167,-0.5 340.833,-0.5 511.5,-0.5C 511.5,170.167 511.5,340.833 511.5,511.5C 340.833,511.5 170.167,511.5 -0.5,511.5C -0.5,340.833 -0.5,170.167 -0.5,-0.5 Z"/></g>
<g><path style="opacity:1" fill="#23171d" d="M 64.5,192.5 C 191.833,192.5 319.167,192.5 446.5,192.5C 446.5,234.5 446.5,276.5 446.5,318.5C 319.167,318.5 191.833,318.5 64.5,318.5C 191.332,317.5 318.332,317.167 445.5,317.5C 445.5,276.167 445.5,234.833 445.5,193.5C 318.332,193.833 191.332,193.5 64.5,192.5 Z"/></g>
<g><path style="opacity:1" fill="#242121" d="M 64.5,192.5 C 191.332,193.5 318.332,193.833 445.5,193.5C 445.5,234.833 445.5,276.167 445.5,317.5C 318.332,317.167 191.332,317.5 64.5,318.5C 64.1667,318.5 63.8333,318.5 63.5,318.5C 63.168,276.33 63.5013,234.33 64.5,192.5 Z"/></g>
<g><path style="opacity:1" fill="#fbfbfb" d="M 85.5,210.5 C 98.1711,210.333 110.838,210.5 123.5,211C 126.333,213.833 129.167,216.667 132,219.5C 132.833,232.513 132.666,245.513 131.5,258.5C 128.349,261.15 125.349,263.984 122.5,267C 115.842,267.5 109.175,267.666 102.5,267.5C 102.5,278.167 102.5,288.833 102.5,299.5C 96.8333,299.5 91.1667,299.5 85.5,299.5C 85.5,269.833 85.5,240.167 85.5,210.5 Z"/></g>
<g><path style="opacity:1" fill="#fdfdfd" d="M 190.5,298.5 C 184.599,299.806 178.599,299.806 172.5,298.5C 169.94,287.824 166.607,277.491 162.5,267.5C 160.735,266.539 158.735,266.205 156.5,266.5C 156.5,277.5 156.5,288.5 156.5,299.5C 150.833,299.5 145.167,299.5 139.5,299.5C 139.5,269.833 139.5,240.167 139.5,210.5C 152.504,210.333 165.504,210.5 178.5,211C 181,213.5 183.5,216 186,218.5C 186.667,231.167 186.667,243.833 186,256.5C 183.317,259.016 180.817,261.683 178.5,264.5C 183.102,275.642 187.102,286.975 190.5,298.5 Z"/></g>
<g><path style="opacity:1" fill="#fbfbfb" d="M 216.5,226.5 C 215.527,228.948 215.194,231.615 215.5,234.5C 208.833,234.5 202.167,234.5 195.5,234.5C 193.219,224.762 195.886,216.929 203.5,211C 214.5,210.333 225.5,210.333 236.5,211C 244.114,216.929 246.781,224.762 244.5,234.5C 237.5,234.5 230.5,234.5 223.5,234.5C 223.5,231.833 223.5,229.167 223.5,226.5C 221.167,226.5 218.833,226.5 216.5,226.5 Z"/></g>
<g><path style="opacity:1" fill="#fefefe" d="M 271.5,210.5 C 271.5,234.5 271.5,258.5 271.5,282.5C 278.833,282.5 286.167,282.5 293.5,282.5C 293.5,288.167 293.5,293.833 293.5,299.5C 280.167,299.5 266.833,299.5 253.5,299.5C 253.5,269.833 253.5,240.167 253.5,210.5C 259.5,210.5 265.5,210.5 271.5,210.5 Z"/></g>
<g><path style="opacity:1" fill="#fdfdfd" d="M 301.5,210.5 C 307.5,210.5 313.5,210.5 319.5,210.5C 319.5,240.167 319.5,269.833 319.5,299.5C 313.5,299.5 307.5,299.5 301.5,299.5C 301.5,269.833 301.5,240.167 301.5,210.5 Z"/></g>
<g><path style="opacity:1" fill="#fcfcfc" d="M 361.5,210.5 C 367.167,210.5 372.833,210.5 378.5,210.5C 378.5,240.167 378.5,269.833 378.5,299.5C 372.463,299.829 366.463,299.496 360.5,298.5C 355.561,284.182 350.727,269.848 346,255.5C 345.5,270.163 345.333,284.83 345.5,299.5C 339.833,299.5 334.167,299.5 328.5,299.5C 328.5,269.833 328.5,240.167 328.5,210.5C 334.758,210.19 340.924,210.524 347,211.5C 351.512,226.547 356.178,241.547 361,256.5C 361.5,241.17 361.667,225.837 361.5,210.5 Z"/></g>
<g><path style="opacity:1" fill="#fdfdfd" d="M 406.5,264.5 C 405.51,270.31 405.177,276.31 405.5,282.5C 413.5,282.5 421.5,282.5 429.5,282.5C 429.5,288.167 429.5,293.833 429.5,299.5C 415.833,299.5 402.167,299.5 388.5,299.5C 388.5,269.833 388.5,240.167 388.5,210.5C 402.167,210.5 415.833,210.5 429.5,210.5C 429.5,216.167 429.5,221.833 429.5,227.5C 421.5,227.5 413.5,227.5 405.5,227.5C 405.5,233.833 405.5,240.167 405.5,246.5C 411.833,246.5 418.167,246.5 424.5,246.5C 424.5,252.5 424.5,258.5 424.5,264.5C 418.5,264.5 412.5,264.5 406.5,264.5 Z"/></g>
<g><path style="opacity:1" fill="#494646" d="M 271.5,210.5 C 272.498,233.994 272.831,257.661 272.5,281.5C 279.687,281.175 286.687,281.509 293.5,282.5C 286.167,282.5 278.833,282.5 271.5,282.5C 271.5,258.5 271.5,234.5 271.5,210.5 Z"/></g>
<g><path style="opacity:1" fill="#b8b7b7" d="M 361.5,210.5 C 367.31,209.51 373.31,209.177 379.5,209.5C 379.831,239.671 379.498,269.671 378.5,299.5C 378.5,269.833 378.5,240.167 378.5,210.5C 372.833,210.5 367.167,210.5 361.5,210.5 Z"/></g>
<g><path style="opacity:1" fill="#221e1f" d="M 113.5,226.5 C 113.5,233.833 113.5,241.167 113.5,248.5C 109.833,248.5 106.167,248.5 102.5,248.5C 102.5,241.167 102.5,233.833 102.5,226.5C 106.167,226.5 109.833,226.5 113.5,226.5 Z"/></g>
<g><path style="opacity:1" fill="#b3b1b2" d="M 113.5,226.5 C 114.492,233.982 114.825,241.648 114.5,249.5C 110.298,249.817 106.298,249.483 102.5,248.5C 106.167,248.5 109.833,248.5 113.5,248.5C 113.5,241.167 113.5,233.833 113.5,226.5 Z"/></g>
<g><path style="opacity:1" fill="#959394" d="M 167.5,226.5 C 168.492,233.982 168.825,241.648 168.5,249.5C 164.5,249.5 160.5,249.5 156.5,249.5C 156.5,241.5 156.5,233.5 156.5,225.5C 160.371,225.185 164.038,225.518 167.5,226.5 Z"/></g>
<g><path style="opacity:1" fill="#201c1d" d="M 167.5,226.5 C 167.5,233.833 167.5,241.167 167.5,248.5C 164.167,248.5 160.833,248.5 157.5,248.5C 157.5,241.167 157.5,233.833 157.5,226.5C 160.833,226.5 164.167,226.5 167.5,226.5 Z"/></g>
<g><path style="opacity:1" fill="#757273" d="M 216.5,226.5 C 216.5,229.5 216.5,232.5 216.5,235.5C 209.313,235.825 202.313,235.491 195.5,234.5C 202.167,234.5 208.833,234.5 215.5,234.5C 215.194,231.615 215.527,228.948 216.5,226.5 Z"/></g>
<g><path style="opacity:1" fill="#1e6c3b" d="M 195.5,241.5 C 202.313,240.509 209.313,240.175 216.5,240.5C 216.827,250.015 216.494,259.348 215.5,268.5C 215.5,259.5 215.5,250.5 215.5,241.5C 208.833,241.5 202.167,241.5 195.5,241.5 Z"/></g>
<g><path style="opacity:1" fill="#17be58" d="M 195.5,241.5 C 202.167,241.5 208.833,241.5 215.5,241.5C 215.5,250.5 215.5,259.5 215.5,268.5C 208.833,268.5 202.167,268.5 195.5,268.5C 195.5,259.5 195.5,250.5 195.5,241.5 Z"/></g>
<g><path style="opacity:1" fill="#199f4d" d="M 224.5,241.5 C 224.5,250.167 224.5,258.833 224.5,267.5C 230.833,267.5 237.167,267.5 243.5,267.5C 243.5,258.833 243.5,250.167 243.5,241.5C 244.493,250.318 244.827,259.318 244.5,268.5C 237.5,268.5 230.5,268.5 223.5,268.5C 223.173,259.318 223.507,250.318 224.5,241.5 Z"/></g>
<g><path style="opacity:1" fill="#16bf59" d="M 224.5,241.5 C 230.833,241.5 237.167,241.5 243.5,241.5C 243.5,250.167 243.5,258.833 243.5,267.5C 237.167,267.5 230.833,267.5 224.5,267.5C 224.5,258.833 224.5,250.167 224.5,241.5 Z"/></g>
<g><path style="opacity:1" fill="#7c797a" d="M 162.5,267.5 C 160.833,267.5 159.167,267.5 157.5,267.5C 157.5,278.5 157.5,289.5 157.5,300.5C 151.31,300.823 145.31,300.49 139.5,299.5C 145.167,299.5 150.833,299.5 156.5,299.5C 156.5,288.5 156.5,277.5 156.5,266.5C 158.735,266.205 160.735,266.539 162.5,267.5 Z"/></g>
<g><path style="opacity:1" fill="#9a9899" d="M 195.5,275.5 C 202.313,274.509 209.313,274.175 216.5,274.5C 216.5,277.5 216.5,280.5 216.5,283.5C 215.527,281.052 215.194,278.385 215.5,275.5C 208.833,275.5 202.167,275.5 195.5,275.5 Z"/></g>
<g><path style="opacity:1" fill="#a19e9f" d="M 244.5,275.5 C 237.833,275.5 231.167,275.5 224.5,275.5C 224.806,278.385 224.473,281.052 223.5,283.5C 223.5,280.5 223.5,277.5 223.5,274.5C 230.687,274.175 237.687,274.509 244.5,275.5 Z"/></g>
<g><path style="opacity:1" fill="#fcfcfc" d="M 195.5,275.5 C 202.167,275.5 208.833,275.5 215.5,275.5C 215.194,278.385 215.527,281.052 216.5,283.5C 218.833,283.5 221.167,283.5 223.5,283.5C 224.473,281.052 224.806,278.385 224.5,275.5C 231.167,275.5 237.833,275.5 244.5,275.5C 244.807,281.093 244.473,286.593 243.5,292C 240.537,293.961 237.871,296.294 235.5,299C 224.833,299.667 214.167,299.667 203.5,299C 195.886,293.071 193.219,285.238 195.5,275.5 Z"/></g>
<g><path style="opacity:1" fill="#535051" d="M 406.5,264.5 C 406.5,270.167 406.5,275.833 406.5,281.5C 414.352,281.175 422.018,281.508 429.5,282.5C 421.5,282.5 413.5,282.5 405.5,282.5C 405.177,276.31 405.51,270.31 406.5,264.5 Z"/></g>
<g><path style="opacity:1" fill="#5f5c5c" d="M 172.5,298.5 C 178.599,299.806 184.599,299.806 190.5,298.5C 191.043,298.56 191.376,298.893 191.5,299.5C 188.333,299.833 185.167,300.167 182,300.5C 178.424,300.485 175.258,299.818 172.5,298.5 Z"/></g>
<g><path style="opacity:1" fill="#20492f" d="M 446.5,192.5 C 447.499,234.663 447.832,276.997 447.5,319.5C 319.332,319.833 191.332,319.5 63.5,318.5C 63.8333,318.5 64.1667,318.5 64.5,318.5C 191.833,318.5 319.167,318.5 446.5,318.5C 446.5,276.5 446.5,234.5 446.5,192.5 Z"/></g>
</svg>
