<?xml version="1.0"?>
<svg xmlns="http://www.w3.org/2000/svg" viewBox="0 0 1827.03 618.63" width="1200" height="630" style="background-color:#000000"><defs><style>.cls-1{fill:#b62129;}.cls-2{fill:#fff;}.cls-3{fill:#fefefe;}</style></defs><title>power-play-casino</title><g id="&#x421;&#x43B;&#x43E;&#x439;_2" data-name="&#x421;&#x43B;&#x43E;&#x439; 2"><g id="&#x421;&#x43B;&#x43E;&#x439;_1-2" data-name="&#x421;&#x43B;&#x43E;&#x439; 1"><path class="cls-1" d="M1601.38,298.76c3.86,0,4.94-1.9,4.48-5.4-.67-5.11-1.4-10.22-1.77-15.35-1.86-25.79-.94-51.63-1.1-77.45-.08-12.66.24-25.33-1.78-37.89-3.77-23.42-14.53-42.16-35.72-54.16-17.93-10.15-37.55-13.23-57.65-13.6-24.16-.44-48.32-.11-72.49-.11a27.54,27.54,0,0,0-3,0c-3.19.35-4.8,1.73-4,5.32,3.11,13.26,6.19,26.54,9,39.86,1,4.45,3.28,5.83,7.69,5.79,17.66-.17,35.33-.1,53,0a49.62,49.62,0,0,1,19.41,4.06,11.44,11.44,0,0,1,6.92,7.39c1.5,5,1.3,5.32-4,5.44-21.7.47-43.24,2.35-64,9.08-19.51,6.32-37.11,15.65-48.41,33.84-1.16,1.87-2.3,3.75-4.08,6.65v-7.15q0-99.49,0-199c0-6.51-.79-7-6.9-5.4-20.22,5.35-40.48,10.56-60.7,15.92-13.59,3.6-10.94,1-11.05,13.58-.15,17.1,0,34.21,0,51.71-1.95-1.29-2.12-3.05-2.77-4.46-8.61-18.41-22.32-31.65-40.7-40.07-21.58-9.9-44.61-13.2-68-13.54-34.49-.51-69-.12-103.48-.29-4.9,0-6.29,1.85-6.29,6.5q.13,131,.07,262c0,5.86.73,6.57,6.69,6.58q31.75,0,63.49,0c8.89,0,8.95-.05,9-8.93q0-38.24,0-76.49c0-6.1,1-6.94,7.12-6.13a46.05,46.05,0,0,0,6.45.69c27.6-.25,55-2.31,80.43-14.21,20-9.38,37-22.38,45.54-43.91.54-1.36,1.26-2.64,2.5-5.21V152q0,70.74-.09,141.48c0,3.89.83,5.14,4.94,5.1q34.24-.32,68.49,0c4.18,0,5.55-1.13,5.44-5.31-.25-9.27-.08-18.55-.08-27.82l.95-.11c1,1.87,2,3.78,3.14,5.6a57.67,57.67,0,0,0,3.63,5.37c14.09,18,33.55,25.26,55.45,26.26,23.06,1.05,44.78-3.34,62.2-20.24,2.52-2.44,3.88-1.71,4.67,1.44.93,3.71,2,7.38,3,11.08.73,2.85,2.46,4,5.42,4Q1571.88,298.66,1601.38,298.76ZM1224.49,147.59c-12.13,3.82-24.63,3.25-37.1,3.25-3.76,0-4.24-2.28-4.22-5.28.06-9.82,0-19.64,0-29.46,0-10,0-20,0-30,0-2.85.66-5.26,3.9-5.19,13.46.28,27-1.1,40.37.83,9.6,1.39,18.52,4.9,21.9,14.87C1257.24,120,1248.19,140.12,1224.49,147.59Zm296.36,98.12c-7.78,7.38-22.23,10.25-32.16,6.14-6.34-2.62-9.55-7.53-10.44-14.07-1.1-8.11,1.4-15,8.3-19.56,11.72-7.71,25.16-9,38.72-9.36,2-.06,3.32.84,3,3.44a91.21,91.21,0,0,0-.08,9.48C1528.81,230.72,1527.88,239,1520.85,245.72Z"/><path class="cls-2" d="M897.62,299.71c5.26.08,6.13-1.16,4.92-6.32-3.1-13.25-6.26-26.48-9.3-39.74-1.61-7-1.52-6.93-8.75-7.08-18.62-.38-37.32,1.4-55.82-1.9-11-2-21.08-6.06-28.23-15.3-1.18-1.52-3-3.1-1.94-5.26,1-2,3.22-1.37,5-1.38,19-.08,38-.08,57-.21,21.49-.15,43-.4,64.48-.62,2.85,0,5.6.27,6.25-3.87a140.76,140.76,0,0,0-2.3-57.45c-6.67-26.07-21-46.8-45.78-58.37-29.16-13.61-59.56-13.84-90-4.54-29.15,8.92-49.45,28.24-62.71,55.84a8.47,8.47,0,0,1,.1-1.79q7.86-24.31,15.75-48.62c1.8-5.57,1.19-6.37-4.73-6.37-21.16,0-42.33.11-63.49-.1-4.63,0-6.8,1.16-7.74,6-5.57,28.86-11.45,57.66-17.24,86.47-1.64,8.14-3.34,16.26-5,24.39a7.85,7.85,0,0,1-2-3.82Q632,156.21,618,102.7c-.76-2.91-1.56-5.07-5.45-5-17.83.19-35.66.14-53.49,0-3.26,0-4.89,1.39-5.71,4.34-8.75,31.66-19.09,62.87-26.61,94.87-1.23,5.25-2.49,10.49-3.74,15.73a14.46,14.46,0,0,1-1.87-5.39c-6.36-35.44-14.19-70.57-21.62-105.79-.78-3.7-2.22-4.81-5.92-4.79-22.16.16-44.33.08-66.49.08-7.71,0-8.15.6-5.85,8q28.95,93.06,57.84,186.15c1.1,3.56,2.65,5,6.56,4.94,20.83-.2,41.66-.26,62.49,0,4.87.07,6.81-1.81,7.86-6.17,5.65-23.58,11.43-47.13,17.2-70.69,3-12.07,6-24.13,9.06-36.59,1.46,1.8,1.56,3.46,1.93,5,8.07,34.25,16.23,68.49,24.14,102.78,1,4.45,2.94,5.68,7.41,5.63q31.24-.38,62.49,0c4.12,0,5.79-1.48,7-5.24,7.52-23.55,15.26-47,22.95-70.53q7.09-21.66,14.24-43.29c-1.78,10-1.63,19.91-.91,29.9,1.69,23.3,9.05,44.19,25.9,61,20.63,20.53,46.55,28.6,74.75,31C847.29,300.81,872.47,299.31,897.62,299.71ZM795.31,166.89c3.08-13.07,10.44-22.71,23.91-25.95,12.5-3,24.17-1.32,33,9.42,4.37,5.33,6,11.76,6.87,18.38.47,3.52-2,4-4.8,4-9.15,0-18.3,0-27.45,0-8.82,0-17.64-.12-26.45.05C796,172.88,794.43,170.62,795.31,166.89Z"/><path class="cls-2" d="M1,289.23c0,7.57,0,7.57,7.29,7.57h63c6.93,0,7,0,7-6.84q0-39.49,0-79c0-3.64.51-6.49,5-6,14.84,1.44,29.61.6,44.35-1.17,20.13-2.42,39.38-7.61,56.9-18.22,6.85-4.15,13.11-9.13,20.21-15.19-3.66,15.18-3.44,29.2-1.28,43,5.65,36.17,25.57,61.84,59.15,76.28,29.86,12.84,60.77,14.34,92.23,6.4,28.28-7.14,51.37-21.73,66-47.45,12.85-22.52,15.62-47,11.47-72.37-5.52-33.75-24.22-57.54-54.68-72.41-6-2.95-7.91-2.14-9.83,4.23-4.35,14.43-8.32,29-12.82,43.35-1.42,4.56-.7,7.48,2.71,11,16.23,16.61,19.84,38,9.95,56.12-14.05,25.71-48.07,36-74.9,22.28-18.83-9.6-30.16-24.48-29.41-46.36.44-12.81,6.51-23.55,15.58-32.45,3.15-3.09,3.77-6.06,2.47-10.26-4.27-13.79-8.19-27.68-12.2-41.54-2.39-8.29-4.53-9.19-12.44-5.44-12,5.68-22.13,13.88-31.53,23.09a3.51,3.51,0,0,1-.19-.39c-.65-1.6.07-3.21.29-4.78,5.23-37.5-14.58-74.39-52.23-89.06C150.5,24.8,127,22.2,103.13,21.89c-26.16-.34-52.32-.1-78.48-.11-6.67,0-13.33,0-20,0-2.43,0-4.05.4-4,3.55C.91,36.47,1,47.62,1,58.78Q1,174,1,289.23ZM224.57,127.87l.48.05.13-.1.08.12-.2,0-.49.39ZM81.64,78.9c12.81.32,25.63-.71,38.43.6,23.19,2.38,28.06,16.09,26.55,35.33-1.33,17-13.2,26.19-27.93,30.74-11.41,3.52-23.29,3.45-35.12,3.27-4.1-.06-5.36-2.53-5.36-6.18q0-15,0-30c0-9.66,0-19.32,0-29C78.18,81.18,78.25,78.81,81.64,78.9Z"/><path class="cls-1" d="M1819.91,100.14c-22.49,0-45,.12-67.48-.11-4.87,0-6.92.93-8.26,6.28-7.05,28.18-14.74,56.2-22.36,84.24-1.42,5.22-2,10.77-5.15,15.8-.81-2.17-1.55-4-2.16-5.82q-15.74-47.5-31.42-95c-1.18-3.59-2.58-6.06-7.14-6-24.82.19-49.65.06-74.48.14-6.49,0-7.71,2.05-5.1,8q36.75,84,73.57,167.88c8.71,19.79,1.92,36.77-18.13,44.94-9.58,3.9-19.62,5.08-29.76,5.34-13,.34-26,.3-39,0-4.91-.12-6.79,2.1-7.93,6.3q-6.31,23.32-12.87,46.56c-2.16,7.64-1,9.33,6.87,9.34q32,0,64,0c11,0,22-1,32.6-4,25.3-7.12,44.9-22.51,60.67-43.15,18.66-24.4,30.92-52.23,42.65-80.29,20.88-50,37.71-101.43,56.73-152.08C1828.34,101.69,1827.21,100.15,1819.91,100.14Z"/><path class="cls-2" d="M1085,156.46c0-19.16,0-38.33.06-57.49,0-3.81-1.43-5.54-5.29-5.39-28.68,1.06-51.52,12.62-67.19,37.18-.67,1-.83,3-2.54,2.59s-1.1-2.24-1.22-3.41q-1.44-13.9-2.63-27.82c-.23-2.64-.93-4.38-4.12-4.37q-29.49.11-59,0c-3.07,0-4.26,1.34-4,4.26.35,3.64.95,7.28,1,10.93.63,31.43,2.16,62.85,1.86,94.3,0,3.75,0,7.5,0,11.25s0,7.5,0,11.25c0,15.25.05,30.49,0,45.74q0,7.62-.08,15.25c0,4.38,1,6.24,5.86,6.19q33.49-.33,67,0c4.76,0,6.37-1.55,6.34-6.38-.18-29.66-.07-59.32-.11-89,0-9.71,2.93-18.28,9.4-25.57,13.14-14.81,30.23-16.73,48.44-14.63C1083.86,161.91,1085,161.35,1085,156.46Z"/><path class="cls-1" d="M292.12,109.39c5.63,22.89,11.22,45.78,17,68.63,1.39,5.53,4.09,6.91,11,6.75,4.71-.11,7.13-2.32,8.19-7,8.89-39.18,17.94-78.32,26.9-117.48,1.57-6.84-.66-9.53-7.75-9.56q-7.37,0-14.74,0H318l-15.49,0q-7.75,0-15.49,0c-6.18,0-8.45,3-7,8.79Q286,84.48,292.12,109.39Z"/><path class="cls-2" d="M1283.55,394.33c-34.17-25.78-72.7-31.7-113.84-22.47a116.07,116.07,0,0,0-61.86,36.06c-21.71,24.06-32.25,52.63-31.75,85.13a133.18,133.18,0,0,0,7,42.62c8.48,24.42,23,44.32,44.32,59.18,18.11,12.61,38.18,19.6,60,22.06a132.32,132.32,0,0,0,45.64-2.4c42.51-10.1,72.78-35,88.76-76,11-28.12,10.79-57,2-85.58C1316.7,429.25,1303.34,409.26,1283.55,394.33ZM1310,547.89c-12.89,25.41-32.92,43.52-59.67,53.86-15.17,5.87-30.86,9.08-52.32,9.12-26.47-.82-55.13-9.84-78.54-31.82-20.09-18.87-31.59-42.42-35.21-69.77-3.15-23.84-.08-46.83,10.35-68.54,15.48-32.24,41.27-52.37,75.45-61.56,29.61-8,58.68-5.36,86.57,7.53s47.41,34.07,58.18,62.66C1327.35,482.71,1326.17,516,1310,547.89Z"/><path class="cls-2" d="M1017.18,373.28c0-2.74-.64-3.57-3.51-3.7-4.53-.22-3.67,2.68-3.67,5.22q0,111,0,222c0,1.57.7,3.32-.77,4.73-1.65-.44-2.16-2-3-3.08Q930.1,500.12,854.06,401.82c-7.74-10-15.54-19.94-23.14-30-1.93-2.56-4.33-2.33-6.69-1.91-2.19.39-1,2.52-1,3.79q-.1,119.48-.15,239c0,3.86,1.5,4.45,4.66,4.15,3.76-.35,2.26-3.18,2.26-5q.11-110,.06-220,0-3.36,0-6.72l1.26-.36c1.1,1.36,2.23,2.7,3.3,4.08L1004.9,608.61c1.73,2.24,3.48,4.46,5.19,6.71s4,1.55,6,1.25c1.86-.28,1-2.19,1-3.34Q1017.15,493.25,1017.18,373.28Z"/><path class="cls-2" d="M432.94,552.74q-41.57-89.24-83.11-178.49c-1.25-2.7-2.79-3.42-5.65-3.57-4.42-.24-4.6,3.34-5.73,5.75q-52.7,112.85-105.18,225.81c-2.28,4.92-5.09,9.66-6.5,15,4.89,1.56,7.59.38,9.79-4.52,10-22.23,20.49-44.21,30.64-66.35,1.36-3,3.15-3.61,6.14-3.61q71.72.12,143.45,0c3.41,0,4.94,1.13,6.28,4.12,9.81,21.94,20,43.72,29.58,65.74,2.13,4.88,4.73,6.25,9.46,4.78.42-2-.8-3.48-1.55-5.1Q446.78,582.49,432.94,552.74ZM273.34,535.37,345.13,380l71.75,155.4Z"/><path class="cls-2" d="M630.12,508.5c-18.18-9.46-38-13.7-57.53-18.65-15-3.79-29.74-8-43.53-15.15-35.72-18.41-32.31-66.75-3.79-85.2,14.69-9.5,31-12.56,47.82-13.43,25.19-1.3,48.14,6.13,69.29,19.52,2.37,1.5,4,2.25,6-.9,1.89-3,.57-3.95-1.59-5.23-1.14-.67-2.14-1.58-3.26-2.28a117.12,117.12,0,0,0-53.77-17.9c-24.62-1.87-48.31.65-69.83,14.46-33.09,21.24-34,75,2.09,94.8,16.63,9.13,34.83,13.6,53,18.07,14.82,3.64,29.71,7,43.72,13.19,16.22,7.17,28.51,17.62,32.12,36.36,4.15,21.57-5.53,43.15-25.15,53.3-17.59,9.1-36.53,12.06-56.07,11.14-28.45-1.34-54-10.31-75-30.24-1.66-1.58-2.72-2.61-4.84-.57s-2.38,3.74-.26,5.86a88.85,88.85,0,0,0,9.55,8.77c22.34,16.57,48,22.69,76.15,24.21,19.21.1,38.88-2.14,56.57-13,18.09-11.06,28.25-27.07,28.05-48.49C659.69,535.28,650,518.83,630.12,508.5Z"/><path class="cls-2" d="M203.25,583.08C193,591.68,181.8,598.53,169,602.88c-24,8.18-48.35,8.69-72.76,2.87-25.65-6.12-47.2-19.27-63.71-40.07C16.87,545.93,8.68,523.27,7.37,498.17,5.67,465.63,15.1,436.69,37,412.46c22.57-24.93,51.25-37.11,84.69-38.51,17.81-.75,35.21,1.29,51.83,7.94a102.65,102.65,0,0,1,30.62,19.31c1.55,1.4,2.8,2.7,4.77.36,1.82-2.16,1.62-3.67-.55-5.32-2.77-2.12-5.29-4.6-8.17-6.54C166.7,367,130,362.72,91.56,372.6,52.93,382.52,25.49,406.31,9.62,443c-9.84,22.76-11.52,46.51-7.81,70.9,3.44,22.59,12.17,42.81,27,60,25.32,29.39,58.12,42.59,96.48,42.85a113,113,0,0,0,30.24-3.12c19.23-4.32,36.82-12.16,51.62-25.52,1.86-1.68,4.69-3,1.84-6.32S204.77,581.8,203.25,583.08Z"/><path class="cls-2" d="M733.12,493.25q0-59.5,0-119c0-2.42.75-4.7-3.5-4.7s-3.5,2.29-3.5,4.7q0,119,0,238c0,2.42-.75,4.7,3.5,4.7s3.5-2.29,3.5-4.7Q733.12,552.75,733.12,493.25Z"/><path class="cls-3" d="M224.57,127.87v.44l.49-.39Z"/><path class="cls-3" d="M225.17,127.82l-.13.1.2,0Z"/></g></g></svg>
