<?xml version="1.0" encoding="UTF-8"?>
<svg version="1.1" xmlns="http://www.w3.org/2000/svg" width="512" height="512">
<path d="M0 0 C168.96 0 337.92 0 512 0 C512 168.96 512 337.92 512 512 C343.04 512 174.08 512 0 512 C0 343.04 0 174.08 0 0 Z " fill="#1B2C46" transform="translate(0,0)"/>
<path d="M0 0 C10.71523878 2.96489617 18.332753 8.84703306 23.80859375 18.47265625 C27.91674041 27.18731491 28.75362436 37.04091051 25.5625 46.25 C21.99744479 53.93833971 15.53555318 61.06096084 8 65 C5.525 65.495 5.525 65.495 3 66 C3 76.56 3 87.12 3 98 C7.29 98 11.58 98 16 98 C45.28610878 101.18714882 75.30094737 112.3872177 99 130 C99.52352051 130.38510742 100.04704102 130.77021484 100.58642578 131.16699219 C112.09452799 139.66580149 122.28129264 148.58941044 131 160 C132.20462891 161.52173828 132.20462891 161.52173828 133.43359375 163.07421875 C160.69874808 198.4740824 166.41610637 248.07823903 160.82128906 291.28662109 C159.18105362 302.25038293 156.8021265 312.58802282 153 323 C152.44892578 324.72089844 152.44892578 324.72089844 151.88671875 326.4765625 C146.9073808 341.63702099 139.22821878 354.83363149 129 367 C128.29359375 367.87011719 127.5871875 368.74023438 126.859375 369.63671875 C107.31995841 392.6859935 79.38473528 403.62278006 50.125 407.375 C48.34609472 407.6218353 46.56744644 407.87052994 44.7890625 408.12109375 C28.86417724 410.33056857 13.21922815 411.18657778 -2.8527832 411.18530273 C-5.900048 411.18747332 -8.94694026 411.20564289 -11.99414062 411.22460938 C-55.38812354 411.35093701 -100.30231048 406.8237819 -134 377 C-134.68449219 376.39929688 -135.36898437 375.79859375 -136.07421875 375.1796875 C-162.19128447 350.70487134 -174.68364264 311.77215945 -176.22290039 276.77392578 C-176.36195214 272.41166301 -176.38612741 268.05168351 -176.375 263.6875 C-176.37478851 262.91263245 -176.37457703 262.13776489 -176.37435913 261.3394165 C-176.30158265 234.37486657 -171.86440708 208.34137866 -160 184 C-159.443125 182.85660156 -158.88625 181.71320313 -158.3125 180.53515625 C-154.29684155 172.71763598 -149.45505539 165.87207318 -144 159 C-143.31292969 158.08476562 -142.62585938 157.16953125 -141.91796875 156.2265625 C-132.64556273 144.21888272 -120.63474379 135.22261104 -108 127 C-106.97519531 126.32324219 -105.95039063 125.64648438 -104.89453125 124.94921875 C-89.4641879 115.07763263 -69.7257877 104.75029173 -51.5 102.0625 C-47.04315479 101.37177122 -42.70029867 100.4776456 -38.3125 99.4375 C-33.54674253 98.35075886 -29.1214755 97.87621213 -24.26318359 97.79296875 C-17.7432533 97.82497307 -17.7432533 97.82497307 -11.73046875 95.66796875 C-10.11910833 93.86079744 -9.06907923 92.16785511 -8 90 C-7.65453125 89.43410156 -7.3090625 88.86820312 -6.953125 88.28515625 C-3.22428858 81.73100917 -1.27246575 74.15267907 1 67 C0.07316406 66.70867187 -0.85367188 66.41734375 -1.80859375 66.1171875 C-5.36837267 64.87104702 -7.94952196 63.2067288 -11 61 C-11.825 60.46375 -12.65 59.9275 -13.5 59.375 C-17.27159614 55.79198367 -19.57841214 51.57179088 -22 47 C-22.34546875 46.34902344 -22.6909375 45.69804688 -23.046875 45.02734375 C-26.85668178 36.56310321 -25.78928761 26.22266709 -23.10546875 17.56640625 C-21.16079571 13.05174129 -18.33891514 9.56703978 -15 6 C-14.42894531 5.37609375 -13.85789063 4.7521875 -13.26953125 4.109375 C-9.20935489 0.13281783 -5.69393197 -1.18195339 0 0 Z " fill="#15263A" transform="translate(263,48)"/>
<path d="M0 0 C10.71523878 2.96489617 18.332753 8.84703306 23.80859375 18.47265625 C27.91674041 27.18731491 28.75362436 37.04091051 25.5625 46.25 C21.99744479 53.93833971 15.53555318 61.06096084 8 65 C5.525 65.495 5.525 65.495 3 66 C3 76.56 3 87.12 3 98 C7.29 98 11.58 98 16 98 C45.28610878 101.18714882 75.30094737 112.3872177 99 130 C99.52352051 130.38510742 100.04704102 130.77021484 100.58642578 131.16699219 C112.09452799 139.66580149 122.28129264 148.58941044 131 160 C132.20462891 161.52173828 132.20462891 161.52173828 133.43359375 163.07421875 C160.69874808 198.4740824 166.41610637 248.07823903 160.82128906 291.28662109 C159.18105362 302.25038293 156.8021265 312.58802282 153 323 C152.44892578 324.72089844 152.44892578 324.72089844 151.88671875 326.4765625 C146.9073808 341.63702099 139.22821878 354.83363149 129 367 C128.29359375 367.87011719 127.5871875 368.74023438 126.859375 369.63671875 C107.31995841 392.6859935 79.38473528 403.62278006 50.125 407.375 C48.34609472 407.6218353 46.56744644 407.87052994 44.7890625 408.12109375 C27.93479033 410.4592649 11.31927562 411.27168227 -5.6875 411.3125 C-6.73058319 411.31511841 -7.77366638 411.31773682 -8.84835815 411.32043457 C-29.79127036 411.32606433 -50.03715983 409.82366173 -70 403 C-70 402.34 -70 401.68 -70 401 C-70.72832031 400.87882812 -71.45664063 400.75765625 -72.20703125 400.6328125 C-84.19350751 397.9169955 -96.17609241 388.19999493 -105 380 C-105.495 378.515 -105.495 378.515 -106 377 C-106.598125 376.71125 -107.19625 376.4225 -107.8125 376.125 C-110.6872613 374.64655133 -112.04799784 372.53760281 -114 370 C-114.66 369.67 -115.32 369.34 -116 369 C-116 368.34 -116 367.68 -116 367 C-116.66 367 -117.32 367 -118 367 C-118.66 365.35 -119.32 363.7 -120 362 C-120.66 362 -121.32 362 -122 362 C-123.2890625 360.35546875 -123.2890625 360.35546875 -124.625 358.1875 C-125.07101563 357.47980469 -125.51703125 356.77210938 -125.9765625 356.04296875 C-127 354 -127 354 -127 351 C-127.66 351 -128.32 351 -129 351 C-140.28394059 328.01312486 -140.28394059 328.01312486 -142 320 C-141.67 319.34 -141.34 318.68 -141 318 C-140.45472656 319.01578125 -139.90945312 320.0315625 -139.34765625 321.078125 C-130.24460044 337.79935546 -119.55884899 352.90530061 -103 363 C-102.41927734 363.35449219 -101.83855469 363.70898438 -101.24023438 364.07421875 C-74.13022851 380.30145413 -43.35102226 381.54987091 -12.52929688 381.44604492 C-9.68329393 381.43687369 -6.83811324 381.44376376 -3.9921875 381.46655273 C22.12697024 381.67423909 50.96766093 381.47846843 75.0625 370.3125 C75.825625 369.96437256 76.58875 369.61624512 77.375 369.25756836 C101.84633638 357.78791903 119.53939995 337.12930654 129 312 C134.39166958 294.69694692 132.94952533 277.16658877 125.375 260.8125 C116.67881002 244.81151043 103.76948387 232.04623484 86.05908203 226.37890625 C73.36447781 222.68724658 61.17502233 221.83376082 48.02661133 221.86962891 C45.70322063 221.8749639 43.38002526 221.8696716 41.05664062 221.86328125 C34.75219993 221.86054193 28.49901522 221.87604887 22.21875 222.48828125 C14.04897202 223.26735621 5.85756072 223.26054057 -2.34301758 223.29516602 C-4.23046374 223.30666792 -6.11787783 223.32709132 -8.00512695 223.35668945 C-33.21787743 223.74998639 -57.48011681 217.90093643 -77 201 C-77.75152344 200.35546875 -78.50304687 199.7109375 -79.27734375 199.046875 C-89.43323341 189.67220763 -96.12261385 177.21766145 -97.30859375 163.40625 C-97.82329404 148.05882332 -92.37752921 134.6135739 -81.9362793 123.34619141 C-66.77265348 107.8293487 -46.06462435 98.23956437 -24.26977539 97.80175781 C-17.74696251 97.8220183 -17.74696251 97.8220183 -11.73046875 95.66796875 C-10.11910833 93.86079744 -9.06907923 92.16785511 -8 90 C-7.65453125 89.43410156 -7.3090625 88.86820312 -6.953125 88.28515625 C-3.22428858 81.73100917 -1.27246575 74.15267907 1 67 C0.07316406 66.70867187 -0.85367188 66.41734375 -1.80859375 66.1171875 C-5.36837267 64.87104702 -7.94952196 63.2067288 -11 61 C-11.825 60.46375 -12.65 59.9275 -13.5 59.375 C-17.27159614 55.79198367 -19.57841214 51.57179088 -22 47 C-22.34546875 46.34902344 -22.6909375 45.69804688 -23.046875 45.02734375 C-26.85668178 36.56310321 -25.78928761 26.22266709 -23.10546875 17.56640625 C-21.16079571 13.05174129 -18.33891514 9.56703978 -15 6 C-14.42894531 5.37609375 -13.85789063 4.7521875 -13.26953125 4.109375 C-9.20935489 0.13281783 -5.69393197 -1.18195339 0 0 Z " fill="#D0D8E8" transform="translate(263,48)"/>
<path d="M0 0 C-3.03308467 2.45090491 -6.08940025 4.05963152 -9.625 5.6875 C-15.8162408 8.73792886 -20.85360446 12.42930295 -26 17 C-27.04800781 17.88945312 -27.04800781 17.88945312 -28.1171875 18.796875 C-37.45329655 27.29745678 -44.19624561 39.90434908 -45.30859375 52.4921875 C-45.81389686 67.46753434 -41.18817809 80.42019063 -31.55859375 91.9140625 C-19.6277594 104.52219312 -4.65662706 111.74937725 11.93359375 116.10546875 C14.53016559 116.86294003 16.6215311 117.75826391 19 119 C18.42165405 118.99333817 17.84330811 118.98667633 17.24743652 118.97981262 C11.14629767 118.91266901 5.04526622 118.86787725 -1.05615234 118.83520508 C-3.32344842 118.82025693 -5.59071629 118.79989102 -7.85791016 118.77368164 C-32.98986557 118.4907391 -55.62621826 121.06054464 -75.03125 138.875 C-87.9915828 152.86393064 -95.7853633 171.11354473 -95.359375 190.26171875 C-94.74344621 196.66871712 -93.15860682 202.78522052 -91.51269531 208.99414062 C-90.76653513 211.91340351 -90.17639075 214.86300191 -89.5625 217.8125 C-87.40975612 227.14493564 -83.35754852 235.59703081 -78.91796875 244.0390625 C-78 246 -78 246 -78 248 C-77.34 248 -76.68 248 -76 248 C-75.16151196 249.45537568 -74.32936066 250.91440373 -73.5 252.375 C-73.0359375 253.18710937 -72.571875 253.99921875 -72.09375 254.8359375 C-71 257 -71 257 -71 259 C-70.34 259 -69.68 259 -69 259 C-68.34 260.65 -67.68 262.3 -67 264 C-66.34 264 -65.68 264 -65 264 C-65 264.66 -65 265.32 -65 266 C-64.13375 266.3403125 -64.13375 266.3403125 -63.25 266.6875 C-60.40408619 268.34761639 -59.00158079 270.39187957 -57 273 C-53.0849803 277.38956754 -48.52449218 280.63548293 -43.75 284.01953125 C-41.48326584 285.65196622 -39.34400953 287.3542454 -37.1875 289.125 C-31.78829235 293.24515007 -25.2687498 295.51715247 -19 298 C-19 298.66 -19 299.32 -19 300 C-17.9275 300.103125 -16.855 300.20625 -15.75 300.3125 C-12.15974584 300.7549609 -8.74961094 301.52575926 -5.25 302.4375 C0.78313313 304.00734587 6.83898916 305.07147886 13 306 C13 306.33 13 306.66 13 307 C-22.89840155 304.83477536 -55.41534391 298.41350665 -83 274 C-83.68449219 273.39929688 -84.36898437 272.79859375 -85.07421875 272.1796875 C-111.19128447 247.70487134 -123.68364264 208.77215945 -125.22290039 173.77392578 C-125.36195214 169.41166301 -125.38612741 165.05168351 -125.375 160.6875 C-125.37478851 159.91263245 -125.37457703 159.13776489 -125.37435913 158.3394165 C-125.30158265 131.37486657 -120.86440708 105.34137866 -109 81 C-108.443125 79.85660156 -107.88625 78.71320313 -107.3125 77.53515625 C-103.29684155 69.71763598 -98.45505539 62.87207318 -93 56 C-92.31292969 55.08476562 -91.62585938 54.16953125 -90.91796875 53.2265625 C-81.64556273 41.21888272 -69.63474379 32.22261104 -57 24 C-55.97519531 23.32324219 -54.95039063 22.64648438 -53.89453125 21.94921875 C-39.75081006 12.90075116 -17.05952768 -0.81235846 0 0 Z " fill="#475772" transform="translate(212,151)"/>
<path d="M0 0 C0.52352051 0.38510742 1.04704102 0.77021484 1.58642578 1.16699219 C15.75429392 11.63005616 27.05348272 23.04107558 37.375 37.3125 C37.79201172 37.88701904 38.20902344 38.46153809 38.63867188 39.0534668 C41.12858255 42.55731541 43.35086509 46.0230046 45 50 C44.67 50.99 44.34 51.98 44 53 C43.2471875 52.48050781 42.494375 51.96101563 41.71875 51.42578125 C27.04135534 41.78928791 10.64386995 37.56299787 -6.90625 37.875 C-7.91103394 37.88257324 -8.91581787 37.89014648 -9.9510498 37.89794922 C-14.18861299 37.93013033 -18.42576611 37.98607045 -22.66308594 38.04101562 C-74.91470693 38.6582247 -74.91470693 38.6582247 -91.4375 23.125 C-97.16168125 16.90356664 -98.59982875 11.27000643 -98.33984375 2.9296875 C-97.50011132 -4.30938519 -93.89336818 -8.87920638 -88.33203125 -13.3984375 C-59.89841463 -32.9257119 -24.75838257 -18.4000605 0 0 Z " fill="#FEFEFE" transform="translate(362,178)"/>
<path d="M0 0 C10.71523878 2.96489617 18.332753 8.84703306 23.80859375 18.47265625 C27.91674041 27.18731491 28.75362436 37.04091051 25.5625 46.25 C21.99744479 53.93833971 15.53555318 61.06096084 8 65 C5.525 65.495 5.525 65.495 3 66 C2.67 73.26 2.34 80.52 2 88 C1.67 88 1.34 88 1 88 C0.93941406 87.16855469 0.87882812 86.33710938 0.81640625 85.48046875 C0.73261719 84.39378906 0.64882813 83.30710937 0.5625 82.1875 C0.48128906 81.10855469 0.40007812 80.02960938 0.31640625 78.91796875 C0.09787539 75.94010095 0.09787539 75.94010095 -1 73 C-0.0625 69.8125 -0.0625 69.8125 1 67 C-0.299375 66.62875 -0.299375 66.62875 -1.625 66.25 C-5.22840494 64.91540558 -7.89245454 63.24801161 -11 61 C-11.825 60.46375 -12.65 59.9275 -13.5 59.375 C-17.27159614 55.79198367 -19.57841214 51.57179088 -22 47 C-22.34546875 46.34902344 -22.6909375 45.69804688 -23.046875 45.02734375 C-26.85668178 36.56310321 -25.78928761 26.22266709 -23.10546875 17.56640625 C-21.16079571 13.05174129 -18.33891514 9.56703978 -15 6 C-14.42894531 5.37609375 -13.85789063 4.7521875 -13.26953125 4.109375 C-9.20935489 0.13281783 -5.69393197 -1.18195339 0 0 Z " fill="#EBF0F4" transform="translate(263,48)"/>
<path d="M0 0 C1.94956292 3.89912585 -1.02394392 9.48075451 -2.3515625 13.484375 C-7.92814085 29.30629497 -15.92287574 43.67498345 -31.51171875 51.21484375 C-36.60034104 53.4045878 -41.44322156 54.76056969 -47 55 C-47.89332031 55.0515625 -48.78664063 55.103125 -49.70703125 55.15625 C-60.8471366 55.5066596 -71.08286592 53.04825688 -81 48 C-78.4916488 45.18215963 -75.70077062 43.54276277 -72.42578125 41.69921875 C-71.29575684 41.05911865 -70.16573242 40.41901855 -69.00146484 39.75952148 C-68.40082214 39.42217987 -67.80017944 39.08483826 -67.18133545 38.73727417 C-63.98901802 36.94406526 -60.80583354 35.13474566 -57.62109375 33.328125 C-56.97456848 32.96198593 -56.32804321 32.59584686 -55.66192627 32.21861267 C-49.70368307 28.84142808 -43.78432902 25.3995261 -37.875 21.9375 C-29.10093435 16.80249574 -20.30776077 11.7019077 -11.5 6.625 C-10.91812927 6.28959198 -10.33625854 5.95418396 -9.73675537 5.60861206 C-6.49163491 3.73826743 -3.24603296 1.86876046 0 0 Z " fill="#00D0D9" transform="translate(363,319)"/>
<path d="M0 0 C7.26338089 3.94040815 14.49418543 7.93310837 21.6875 12 C22.67298828 12.556875 23.65847656 13.11375 24.67382812 13.6875 C32.81228555 18.29980731 40.8930159 23.00707761 48.96362305 27.73681641 C59.57466201 33.94437438 70.27977538 39.98348568 81 46 C80.67 46.99 80.34 47.98 80 49 C77.69515975 50.01978865 75.51082713 50.85353494 73.125 51.625 C72.48691406 51.8415625 71.84882813 52.058125 71.19140625 52.28125 C69.46464582 52.86524831 67.73253401 53.43335946 66 54 C64.515 54.495 64.515 54.495 63 55 C48.48703531 55.77402478 35.86646487 55.25061089 24 46 C22.989375 45.278125 21.97875 44.55625 20.9375 43.8125 C12.0831316 36.0373344 7.81671995 25.8065118 4 15 C3.58492187 13.83855469 3.16984375 12.67710937 2.7421875 11.48046875 C0 3.55113636 0 3.55113636 0 0 Z " fill="#00D0D9" transform="translate(148,319)"/>
<path d="M0 0 C-0.70125 0.680625 -1.4025 1.36125 -2.125 2.0625 C-3.08833265 3.0367486 -4.04625047 4.01636797 -5 5 C-5.50402344 5.51949219 -6.00804687 6.03898437 -6.52734375 6.57421875 C-14.24350383 14.99720265 -16.43664767 24.28608736 -16.34765625 35.51171875 C-15.55356561 43.47939227 -11.70904419 52.24669965 -6 58 C-1.35651495 61.63553004 3.65457306 64.53287987 9 67 C6.94765638 78.19460155 3.00955832 90.44359625 -6 98 C-6.99 98 -7.98 98 -9 98 C-9 87.44 -9 76.88 -9 66 C-10.65 65.67 -12.3 65.34 -14 65 C-22.99712478 60.47796685 -28.90132369 53.31116227 -32.29296875 43.88671875 C-34.91936784 33.16346501 -33.33680237 24.4194874 -28.046875 15.03515625 C-21.91594866 5.94406891 -11.34102758 -1.26011418 0 0 Z " fill="#61708D" transform="translate(255,48)"/>
<path d="M0 0 C1.4540625 1.2375 1.4540625 1.2375 2.9375 2.5 C3.58332031 3.04914063 4.22914063 3.59828125 4.89453125 4.1640625 C6.29101186 5.38177286 7.6641796 6.62677919 9.01171875 7.8984375 C37.35870877 34.41151874 75.74223343 36.56985142 112.47070312 36.44604492 C115.31670607 36.43687369 118.16188676 36.44376376 121.0078125 36.46655273 C147.32478912 36.67581204 176.20552541 36.41110541 200.4375 25.0625 C201.18708984 24.72798828 201.93667969 24.39347656 202.70898438 24.04882812 C206.12259678 22.49337173 209.3159769 20.8735177 212.41015625 18.74609375 C215 17 215 17 217 17 C215.52654789 21.38132449 212.32201767 22.9209958 208.4375 24.9375 C207.78072266 25.28377441 207.12394531 25.63004883 206.44726562 25.98681641 C199.55240997 29.46829691 192.36061141 31.58086397 184.90405273 33.49926758 C183.06232816 33.98360879 181.23565893 34.52411873 179.41015625 35.06640625 C170.19341375 37.58966107 160.57239159 38.12665452 151.0625 38.55078125 C150.11499374 38.59310883 149.16748749 38.6354364 148.19126892 38.67904663 C137.72936657 39.10666761 127.27131612 39.15098778 116.80200195 39.13037109 C113.54048099 39.12496349 110.27909523 39.13038334 107.01757812 39.13671875 C92.48421925 39.14194791 78.19970083 38.87581196 63.828125 36.46875 C61.46912441 36.07775543 59.12467644 35.77028838 56.75 35.5 C55.8425 35.335 54.935 35.17 54 35 C53.67 34.34 53.34 33.68 53 33 C52.0925 32.896875 51.185 32.79375 50.25 32.6875 C31.65107845 30.41471936 11.7354066 16.02196147 0 2 C0 1.34 0 0.68 0 0 Z " fill="#99A5C4" transform="translate(138,393)"/>
<path d="M0 0 C-1.47345211 4.38132449 -4.67798233 5.9209958 -8.5625 7.9375 C-9.21927734 8.28377441 -9.87605469 8.63004883 -10.55273438 8.98681641 C-17.44824744 12.46862886 -24.64136681 14.5831372 -32.09936523 16.49951172 C-33.92255921 16.97960776 -35.72959735 17.51983478 -37.53515625 18.0625 C-41.16680652 19.04513367 -44.70992748 19.62799033 -48.4375 20.125 C-49.67371094 20.29257812 -50.90992188 20.46015625 -52.18359375 20.6328125 C-53.11300781 20.75398438 -54.04242188 20.87515625 -55 21 C-55.33 20.34 -55.66 19.68 -56 19 C-55.28158936 18.86013672 -54.56317871 18.72027344 -53.82299805 18.57617188 C-36.0116092 15.04201959 -18.94216705 11.12446999 -3.65307617 0.95532227 C-2 0 -2 0 0 0 Z " fill="#A4AFC7" transform="translate(355,410)"/>
<path d="M0 0 C0.33 0.99 0.66 1.98 1 3 C-0.58203125 5.48046875 -0.58203125 5.48046875 -2.8125 8.1875 C-3.54082031 9.08855469 -4.26914062 9.98960937 -5.01953125 10.91796875 C-5.67308594 11.60503906 -6.32664062 12.29210937 -7 13 C-7.66 13 -8.32 13 -9 13 C-9.37705078 13.87591797 -9.37705078 13.87591797 -9.76171875 14.76953125 C-11.15577597 17.28059332 -12.66221244 18.79212225 -14.8125 20.6875 C-15.47894531 21.28949219 -16.14539063 21.89148438 -16.83203125 22.51171875 C-19.24783282 24.17013389 -21.11803815 24.62277986 -24 25 C-21.19408864 22.10640391 -18.33064228 19.41256208 -15.25 16.8125 C-9.53932069 11.87265383 -4.1940057 6.29100855 0 0 Z " fill="#B2BBD0" transform="translate(379,385)"/>
<path d="M0 0 C2.99152183 2.58604447 4.46593694 5.5652362 6.25 9.0625 C9.40613165 15.06520668 12.96008774 20.56023972 17 26 C16.34 26.33 15.68 26.66 15 27 C14.52949219 26.278125 14.05898437 25.55625 13.57421875 24.8125 C12.95160156 23.884375 12.32898438 22.95625 11.6875 22 C11.07261719 21.071875 10.45773438 20.14375 9.82421875 19.1875 C9.22222656 18.465625 8.62023437 17.74375 8 17 C7.01 17 6.02 17 5 17 C4.16301614 14.54285453 3.33027576 12.08441143 2.5 9.625 C2.26152344 8.92632812 2.02304688 8.22765625 1.77734375 7.5078125 C0 2.2265625 0 2.2265625 0 0 Z " fill="#8F9CBC" transform="translate(121,366)"/>
<path d="M0 0 C-4.455 0.495 -4.455 0.495 -9 1 C-9 1.66 -9 2.32 -9 3 C-12.45745022 3.22527296 -15.91587025 3.42733544 -19.375 3.625 C-20.85226562 3.72167969 -20.85226562 3.72167969 -22.359375 3.8203125 C-23.30039062 3.871875 -24.24140625 3.9234375 -25.2109375 3.9765625 C-26.08024902 4.02893066 -26.94956055 4.08129883 -27.84521484 4.13525391 C-30 4 -30 4 -32 2 C-28.08660978 1.54531802 -24.1722739 1.10003719 -20.25683594 0.66333008 C-18.27222407 0.44000088 -16.28844631 0.20929945 -14.3046875 -0.02148438 C-13.05429687 -0.16005859 -11.80390625 -0.29863281 -10.515625 -0.44140625 C-8.78747559 -0.63778687 -8.78747559 -0.63778687 -7.02441406 -0.83813477 C-4 -1 -4 -1 0 0 Z " fill="#97A2BD" transform="translate(308,428)"/>
<path d="M0 0 C1.670625 0.4021875 1.670625 0.4021875 3.375 0.8125 C11.18049033 2.55962263 19.10708367 3.72282907 27 5 C27 5.33 27 5.66 27 6 C18.21392344 5.50610812 9.64998215 4.63177319 1 3 C0.67 2.01 0.34 1.02 0 0 Z " fill="#808EAC" transform="translate(198,452)"/>
<path d="M0 0 C6.75923474 -0.50068405 11.99272183 0.80963379 18 4 C19.79296875 5.63671875 19.79296875 5.63671875 21 7 C18.10568444 6.58652635 16.18329182 6.12052065 13.71875 4.5 C10.5543332 2.75411487 8.2764315 2.50969404 4.6875 2.3125 C3.08455078 2.21388672 3.08455078 2.21388672 1.44921875 2.11328125 C0.64097656 2.07589844 -0.16726562 2.03851563 -1 2 C-0.67 1.34 -0.34 0.68 0 0 Z " fill="#C5CAD5" transform="translate(255,48)"/>
<path d="M0 0 C1.22625047 2.45250093 1.03425355 3.84310435 0.87890625 6.5703125 C0.83056641 7.46621094 0.78222656 8.36210938 0.73242188 9.28515625 C0.67634766 10.22230469 0.62027344 11.15945312 0.5625 12.125 C0.51029297 13.06988281 0.45808594 14.01476562 0.40429688 14.98828125 C0.27443239 17.3258419 0.1394613 19.66299545 0 22 C-0.33 22 -0.66 22 -1 22 C-1.06058594 21.16855469 -1.12117188 20.33710938 -1.18359375 19.48046875 C-1.26738281 18.39378906 -1.35117187 17.30710938 -1.4375 16.1875 C-1.51871094 15.10855469 -1.59992188 14.02960938 -1.68359375 12.91796875 C-1.90212461 9.94010095 -1.90212461 9.94010095 -3 7 C-2.07796291 4.63477442 -1.08301035 2.29598193 0 0 Z " fill="#E1E5EE" transform="translate(265,114)"/>
<path d="M0 0 C2.94695474 2.94695474 4.38513421 5.2050654 6 9 C5.67 9.66 5.34 10.32 5 11 C4.34 11 3.68 11 3 11 C2.01 7.37 1.02 3.74 0 0 Z " fill="#7E8CAA" transform="translate(121,366)"/>
<path d="M0 0 C0 3 0 3 -1.6875 5.125 C-4.20933322 7.16972964 -5.81390075 7.64598897 -9 8 C-6.14723863 5.06799526 -3.34920216 2.35684596 0 0 Z " fill="#ABB4CA" transform="translate(364,402)"/>
<path d="M0 0 C2.875 0.3125 2.875 0.3125 6 1 C6.66 1.99 7.32 2.98 8 4 C5.69 3.67 3.38 3.34 1 3 C0.67 2.01 0.34 1.02 0 0 Z " fill="#6D7C9A" transform="translate(198,452)"/>
</svg>
