<?xml version="1.0" encoding="UTF-8"?>
<!DOCTYPE svg PUBLIC "-//W3C//DTD SVG 1.1//EN" "http://www.w3.org/Graphics/SVG/1.1/DTD/svg11.dtd">
<svg xmlns="http://www.w3.org/2000/svg" version="1.1" width="1667px" height="1667px" style="shape-rendering:geometricPrecision; text-rendering:geometricPrecision; image-rendering:optimizeQuality; fill-rule:evenodd; clip-rule:evenodd" xmlns:xlink="http://www.w3.org/1999/xlink">
<g><path style="opacity:1" fill="#ae2624" d="M -0.5,-0.5 C 555.167,-0.5 1110.83,-0.5 1666.5,-0.5C 1666.5,555.167 1666.5,1110.83 1666.5,1666.5C 1110.83,1666.5 555.167,1666.5 -0.5,1666.5C -0.5,1110.83 -0.5,555.167 -0.5,-0.5 Z"/></g>
<g><path style="opacity:1" fill="#fefefe" d="M 353.5,971.5 C 353.5,959.167 353.5,946.833 353.5,934.5C 449.833,934.5 546.167,934.5 642.5,934.5C 642.333,957.502 642.5,980.502 643,1003.5C 645.571,1020.22 655.405,1027.89 672.5,1026.5C 680.552,1026.86 688.219,1025.36 695.5,1022C 700.442,1016.86 703.275,1010.69 704,1003.5C 704.667,990.167 704.667,976.833 704,963.5C 701.606,947.771 692.773,937.604 677.5,933C 647.719,925.11 617.719,918.11 587.5,912C 543.335,902.417 500.335,889.084 458.5,872C 431.292,860.658 407.458,844.491 387,823.5C 366.281,798.36 355.281,769.36 354,736.5C 341.49,659.525 368.323,601.359 434.5,562C 458.309,548.925 483.309,538.925 509.5,532C 566.446,518.022 624.279,511.855 683,513.5C 738.353,512.686 793.186,517.519 847.5,528C 879.143,534.165 908.476,545.832 935.5,563C 971.832,590.153 990.999,626.653 993,672.5C 993.5,694.831 993.667,717.164 993.5,739.5C 902.5,739.5 811.5,739.5 720.5,739.5C 720.667,713.498 720.5,687.498 720,661.5C 715.245,647.114 705.245,640.447 690,641.5C 666.054,643.127 655.554,655.96 658.5,680C 655.335,704.595 664.335,722.928 685.5,735C 691.053,737.61 696.719,739.943 702.5,742C 743.787,751.791 785.12,761.458 826.5,771C 855.13,778.876 883.13,788.543 910.5,800C 933.678,809.995 954.178,823.829 972,841.5C 990.847,862.875 1001.18,887.875 1003,916.5C 1003.67,939.5 1003.67,962.5 1003,985.5C 1000.19,1054.35 966.688,1100.85 902.5,1125C 873.949,1135.14 844.616,1142.14 814.5,1146C 790.218,1148.62 765.885,1150.62 741.5,1152C 693.82,1152.9 646.153,1152.57 598.5,1151C 562.411,1148.85 526.745,1143.85 491.5,1136C 460.422,1128.76 432.089,1115.76 406.5,1097C 377.231,1071.97 360.398,1040.14 356,1001.5C 354.615,991.544 353.781,981.544 353.5,971.5 Z"/></g>
<g><path style="opacity:1" fill="#daa491" d="M 1312.5,528.5 C 1227.17,528.5 1141.83,528.5 1056.5,528.5C 1056.5,733.5 1056.5,938.5 1056.5,1143.5C 1055.5,938.334 1055.17,733.001 1055.5,527.5C 1141.33,527.167 1227,527.501 1312.5,528.5 Z"/></g>
<g><path style="opacity:1" fill="#fefffe" d="M 1312.5,528.5 C 1312.5,733.5 1312.5,938.5 1312.5,1143.5C 1227.17,1143.5 1141.83,1143.5 1056.5,1143.5C 1056.5,938.5 1056.5,733.5 1056.5,528.5C 1141.83,528.5 1227.17,528.5 1312.5,528.5 Z"/></g>
<g><path style="opacity:1" fill="#d9a08c" d="M 642.5,934.5 C 546.167,934.5 449.833,934.5 353.5,934.5C 353.5,946.833 353.5,959.167 353.5,971.5C 352.505,959.011 352.171,946.344 352.5,933.5C 449.335,933.167 546.001,933.501 642.5,934.5 Z"/></g>
</svg>
