<?xml version="1.0" encoding="UTF-8"?>
<!DOCTYPE svg PUBLIC "-//W3C//DTD SVG 1.1//EN" "http://www.w3.org/Graphics/SVG/1.1/DTD/svg11.dtd">
<svg xmlns="http://www.w3.org/2000/svg" version="1.1" width="400px" height="181px" style="shape-rendering:geometricPrecision; text-rendering:geometricPrecision; image-rendering:optimizeQuality; fill-rule:evenodd; clip-rule:evenodd" xmlns:xlink="http://www.w3.org/1999/xlink">
<g><path style="opacity:1" fill="#fefefe" d="M -0.5,-0.5 C 132.833,-0.5 266.167,-0.5 399.5,-0.5C 399.5,59.8333 399.5,120.167 399.5,180.5C 266.167,180.5 132.833,180.5 -0.5,180.5C -0.5,120.167 -0.5,59.8333 -0.5,-0.5 Z"/></g>
<g><path style="opacity:1" fill="#4cc08f" d="M 71.5,63.5 C 71.5858,64.4959 71.2524,65.3292 70.5,66C 61.9768,67.118 53.6435,68.7846 45.5,71C 43.1743,72.8049 41.5077,74.9716 40.5,77.5C 40.2693,74.2155 41.6026,71.7155 44.5,70C 53.3172,67.0039 62.3172,64.8372 71.5,63.5 Z"/></g>
<g><path style="opacity:1" fill="#1fbf7f" d="M 63.5,84.5 C 62.5837,84.0183 61.5837,83.685 60.5,83.5C 53.1414,85.1871 45.8081,86.8537 38.5,88.5C 38.9309,84.6634 39.5975,80.9968 40.5,77.5C 41.5077,74.9716 43.1743,72.8049 45.5,71C 53.6435,68.7846 61.9768,67.118 70.5,66C 71.2524,65.3292 71.5858,64.4959 71.5,63.5C 74.9664,61.9084 78.6331,61.2417 82.5,61.5C 82.466,67.1639 81.2993,72.4972 79,77.5C 74.7366,80.1445 70.0699,81.8112 65,82.5C 63.9701,82.8361 63.4701,83.5028 63.5,84.5 Z"/></g>
<g><path style="opacity:1" fill="#757479" d="M 253.5,72.5 C 254.919,71.5489 256.585,71.2155 258.5,71.5C 258.737,72.791 258.404,73.791 257.5,74.5C 256.817,72.8235 255.483,72.1568 253.5,72.5 Z"/></g>
<g><path style="opacity:1" fill="#20222c" d="M 253.5,72.5 C 255.483,72.1568 256.817,72.8235 257.5,74.5C 257.714,76.1439 257.38,77.6439 256.5,79C 258.473,79.4955 260.473,79.6621 262.5,79.5C 261.833,82.5 261.167,85.5 260.5,88.5C 258.167,88.5 255.833,88.5 253.5,88.5C 252.841,91.4552 252.508,94.4552 252.5,97.5C 254.167,97.5 255.833,97.5 257.5,97.5C 257.356,107.456 252.689,110.29 243.5,106C 241.119,104.491 240.119,102.325 240.5,99.5C 241.011,95.7928 241.678,92.1262 242.5,88.5C 239.5,88.5 236.5,88.5 233.5,88.5C 233.037,91.4824 232.704,94.4824 232.5,97.5C 234.167,97.5 235.833,97.5 237.5,97.5C 237.234,107.144 232.567,109.977 223.5,106C 221.408,104.147 220.408,101.814 220.5,99C 222.33,91.8531 224.164,84.6865 226,77.5C 229.481,75.433 233.314,74.433 237.5,74.5C 237.5,76.1667 237.5,77.8333 237.5,79.5C 240.167,79.5 242.833,79.5 245.5,79.5C 245.685,74.3992 248.352,72.0659 253.5,72.5 Z"/></g>
<g><path style="opacity:1" fill="#696b71" d="M 139.5,80.5 C 143.733,79.2057 148.066,79.2057 152.5,80.5C 152.217,81.2891 151.717,81.9558 151,82.5C 147.506,80.623 143.673,79.9564 139.5,80.5 Z"/></g>
<g><path style="opacity:1" fill="#666871" d="M 203.5,80.5 C 206.962,79.5184 210.629,79.185 214.5,79.5C 214.263,80.791 214.596,81.791 215.5,82.5C 215.217,83.2891 214.717,83.9558 214,84.5C 213.51,83.2068 213.343,81.8734 213.5,80.5C 210.167,80.5 206.833,80.5 203.5,80.5 Z"/></g>
<g><path style="opacity:1" fill="#696a71" d="M 265.5,80.5 C 268.962,79.5184 272.629,79.185 276.5,79.5C 276.263,80.791 276.596,81.791 277.5,82.5C 277.217,83.2891 276.717,83.9558 276,84.5C 275.51,83.2068 275.343,81.8734 275.5,80.5C 272.167,80.5 268.833,80.5 265.5,80.5 Z"/></g>
<g><path style="opacity:1" fill="#1d1f29" d="M 203.5,80.5 C 206.833,80.5 210.167,80.5 213.5,80.5C 213.343,81.8734 213.51,83.2068 214,84.5C 214.717,83.9558 215.217,83.2891 215.5,82.5C 217.496,80.6668 219.829,80.1668 222.5,81C 221.568,84.0854 220.901,87.2521 220.5,90.5C 217.03,89.8748 214.196,90.8748 212,93.5C 209.43,97.4399 207.93,101.773 207.5,106.5C 203.774,106.823 200.107,106.489 196.5,105.5C 198.394,96.9103 200.727,88.5769 203.5,80.5 Z"/></g>
<g><path style="opacity:1" fill="#1d1f29" d="M 265.5,80.5 C 268.833,80.5 272.167,80.5 275.5,80.5C 275.343,81.8734 275.51,83.2068 276,84.5C 276.717,83.9558 277.217,83.2891 277.5,82.5C 279.496,80.6668 281.829,80.1668 284.5,81C 283.134,83.9973 282.467,87.164 282.5,90.5C 278.406,89.7046 275.239,91.038 273,94.5C 271.21,98.3268 270.044,102.327 269.5,106.5C 265.833,106.5 262.167,106.5 258.5,106.5C 260.231,97.5671 262.565,88.9004 265.5,80.5 Z"/></g>
<g><path style="opacity:1" fill="#1e202a" d="M 371.5,95.5 C 365.463,95.1707 359.463,95.5041 353.5,96.5C 353.624,97.1067 353.957,97.44 354.5,97.5C 357.142,100.034 359.976,100.034 363,97.5C 364.833,99.3333 366.667,101.167 368.5,103C 360.178,109.38 352.345,108.88 345,101.5C 341.77,91.5263 344.937,84.3597 354.5,80C 367.362,77.3642 373.029,82.5309 371.5,95.5 Z"/></g>
<g><path style="opacity:1" fill="#1e202a" d="M 288.5,79.5 C 293.511,79.3341 298.511,79.5007 303.5,80C 309.543,81.6974 311.71,85.5308 310,91.5C 308.045,96.318 306.879,101.318 306.5,106.5C 302.241,106.997 298.241,106.331 294.5,104.5C 289.179,108.934 284.679,108.267 281,102.5C 280.067,97.0618 282.234,93.2284 287.5,91C 291.225,90.2401 294.892,90.4068 298.5,91.5C 299.731,90.3493 299.731,89.1827 298.5,88C 294.848,87.5014 291.182,87.3347 287.5,87.5C 287.567,85.5992 287.233,83.7659 286.5,82C 287.056,80.9889 287.722,80.1556 288.5,79.5 Z"/></g>
<g><path style="opacity:1" fill="#1d1e28" d="M 178.5,79.5 C 193.745,77.569 199.579,83.9023 196,98.5C 191.443,105.581 184.943,108.414 176.5,107C 168.068,101.642 166.235,94.4755 171,85.5C 173.114,82.8792 175.614,80.8792 178.5,79.5 Z"/></g>
<g><path style="opacity:1" fill="#09865b" d="M 63.5,84.5 C 68.6237,87.3767 73.2904,90.71 77.5,94.5C 76.8501,94.1961 76.1835,93.8627 75.5,93.5C 68.4359,96.2068 61.1026,97.8735 53.5,98.5C 48.2911,95.4016 43.2911,92.0683 38.5,88.5C 45.8081,86.8537 53.1414,85.1871 60.5,83.5C 61.5837,83.685 62.5837,84.0183 63.5,84.5 Z"/></g>
<g><path style="opacity:1" fill="#1e1f29" d="M 139.5,80.5 C 143.673,79.9564 147.506,80.623 151,82.5C 151.717,81.9558 152.217,81.2891 152.5,80.5C 161.486,77.4847 166.153,80.6514 166.5,90C 166.442,99.6524 161.776,105.486 152.5,107.5C 149.37,107.352 146.87,106.018 145,103.5C 144.115,107.839 142.282,111.673 139.5,115C 136.518,115.498 133.518,115.665 130.5,115.5C 133.344,103.791 136.344,92.1246 139.5,80.5 Z"/></g>
<g><path style="opacity:1" fill="#e8e8ea" d="M 149.5,88.5 C 155.067,87.7532 156.9,90.0866 155,95.5C 151.16,99.8277 148.326,99.3277 146.5,94C 146.863,91.8077 147.863,89.9744 149.5,88.5 Z"/></g>
<g><path style="opacity:1" fill="#e9e9eb" d="M 181.5,88.5 C 187.375,88.6364 188.875,91.303 186,96.5C 182.187,99.5886 179.687,98.7552 178.5,94C 178.863,91.8077 179.863,89.9744 181.5,88.5 Z"/></g>
<g><path style="opacity:1" fill="#e9ebed" d="M 357.5,86.5 C 359.912,86.244 361.579,87.244 362.5,89.5C 359.894,90.6517 357.227,90.8184 354.5,90C 355.71,88.9609 356.71,87.7942 357.5,86.5 Z"/></g>
<g><path style="opacity:1" fill="#1e202a" d="M 116.5,71.5 C 121.232,71.3776 125.898,71.8776 130.5,73C 132.874,73.8481 134.874,75.1814 136.5,77C 134.704,79.6332 132.704,82.1332 130.5,84.5C 126.978,81.7705 122.978,80.4371 118.5,80.5C 118.281,81.675 118.614,82.675 119.5,83.5C 124.201,84.9323 128.367,87.2657 132,90.5C 134.539,97.5321 132.373,102.699 125.5,106C 117.372,108.594 109.706,107.594 102.5,103C 101.978,102.439 101.645,101.772 101.5,101C 103.327,98.3424 105.327,95.8424 107.5,93.5C 111.345,97.3962 115.845,98.7296 121,97.5C 121.617,96.5509 121.451,95.7175 120.5,95C 115.177,93.9231 110.677,91.4231 107,87.5C 106.183,84.0357 106.517,80.7024 108,77.5C 110.671,75.0976 113.505,73.0976 116.5,71.5 Z"/></g>
<g><path style="opacity:1" fill="#1d1f29" d="M 339.5,69.5 C 342.167,69.5 344.833,69.5 347.5,69.5C 344.343,81.7965 341.343,94.1298 338.5,106.5C 334.327,107.044 330.494,106.377 327,104.5C 317.181,109.877 312.014,106.877 311.5,95.5C 312.164,83.9958 318.164,78.8291 329.5,80C 330.931,80.4652 332.097,81.2986 333,82.5C 333.611,77.2768 335.778,72.9435 339.5,69.5 Z"/></g>
<g><path style="opacity:1" fill="#eeeff0" d="M 324.5,88.5 C 328.198,87.6798 330.531,89.0131 331.5,92.5C 330.549,95.2853 328.716,97.2853 326,98.5C 323.709,97.8759 322.543,96.3759 322.5,94C 322.758,91.9907 323.425,90.1573 324.5,88.5 Z"/></g>
<g><path style="opacity:1" fill="#edeef0" d="M 292.5,95.5 C 294.167,95.5 295.833,95.5 297.5,95.5C 297.349,99.314 295.349,100.981 291.5,100.5C 291.366,98.7085 291.699,97.0418 292.5,95.5 Z"/></g>
<g><path style="opacity:1" fill="#a8a7a9" d="M 371.5,95.5 C 365.833,96.1667 360.167,96.8333 354.5,97.5C 353.957,97.44 353.624,97.1067 353.5,96.5C 359.463,95.5041 365.463,95.1707 371.5,95.5 Z"/></g>
<g><path style="opacity:1" fill="#22bf7f" d="M 77.5,94.5 C 77.6325,100.762 75.9659,106.429 72.5,111.5C 59.7275,115.853 46.7275,119.186 33.5,121.5C 33.4712,116.339 34.3046,111.339 36,106.5C 37.5429,104.622 39.3762,103.122 41.5,102C 45.7085,101.119 49.7085,99.9527 53.5,98.5C 61.1026,97.8735 68.4359,96.2068 75.5,93.5C 76.1835,93.8627 76.8501,94.1961 77.5,94.5 Z"/></g>
</svg>
