<?xml version="1.0" encoding="UTF-8"?>
<!DOCTYPE svg PUBLIC "-//W3C//DTD SVG 1.1//EN" "http://www.w3.org/Graphics/SVG/1.1/DTD/svg11.dtd">
<svg xmlns="http://www.w3.org/2000/svg" version="1.1" width="400px" height="400px" style="shape-rendering:geometricPrecision; text-rendering:geometricPrecision; image-rendering:optimizeQuality; fill-rule:evenodd; clip-rule:evenodd" xmlns:xlink="http://www.w3.org/1999/xlink">
<g><path style="opacity:1" fill="#fecd06" d="M -0.5,-0.5 C 132.833,-0.5 266.167,-0.5 399.5,-0.5C 399.5,132.833 399.5,266.167 399.5,399.5C 266.167,399.5 132.833,399.5 -0.5,399.5C -0.5,266.167 -0.5,132.833 -0.5,-0.5 Z"/></g>
<g><path style="opacity:1" fill="#f3d22d" d="M 191.5,66.5 C 183.426,67.3306 175.426,69.1639 167.5,72C 166.058,72.3768 165.058,73.2101 164.5,74.5C 158.207,75.5151 153.207,78.5151 149.5,83.5C 147.5,84.5 145.5,85.5 143.5,86.5C 143.297,84.6096 143.963,83.1096 145.5,82C 147.42,80.8777 149.42,80.0444 151.5,79.5C 151.33,78.1779 151.663,77.0113 152.5,76C 158.113,73.6861 163.78,71.6861 169.5,70C 170.833,69 172.167,68 173.5,67C 179.491,66.5005 185.491,66.3338 191.5,66.5 Z"/></g>
<g><path style="opacity:1" fill="#fcf9e4" d="M 191.5,66.5 C 202.64,65.8749 213.307,67.2083 223.5,70.5C 218.346,70.7049 213.346,71.7049 208.5,73.5C 207.614,72.675 207.281,71.675 207.5,70.5C 210.572,70.8174 213.572,70.4841 216.5,69.5C 205.181,68.3342 193.848,68.1675 182.5,69C 182.167,69.3333 181.833,69.6667 181.5,70C 184.817,70.4983 188.15,70.665 191.5,70.5C 191.719,71.675 191.386,72.675 190.5,73.5C 186.36,72.272 182.193,72.272 178,73.5C 176.635,73.1557 175.468,72.4891 174.5,71.5C 171.122,72.5908 167.789,73.5908 164.5,74.5C 165.058,73.2101 166.058,72.3768 167.5,72C 175.426,69.1639 183.426,67.3306 191.5,66.5 Z"/></g>
<g><path style="opacity:1" fill="#faf9eb" d="M 149.5,83.5 C 148.524,84.8149 147.524,86.1482 146.5,87.5C 147.325,88.3857 148.325,88.719 149.5,88.5C 149.5,89.8333 149.5,91.1667 149.5,92.5C 147.738,92.3573 146.071,92.6906 144.5,93.5C 143.459,95.5852 141.959,97.2519 140,98.5C 137.761,101.015 136.594,104.015 136.5,107.5C 137.552,107.351 138.552,107.517 139.5,108C 138.491,110.172 136.824,111.338 134.5,111.5C 134.719,110.325 134.386,109.325 133.5,108.5C 131.868,109.297 130.368,110.297 129,111.5C 128.228,111.355 127.561,111.022 127,110.5C 127.215,113.811 127.215,117.144 127,120.5C 126.781,119.062 126.281,117.729 125.5,116.5C 122.157,119.173 121.157,122.506 122.5,126.5C 123.325,127.386 124.325,127.719 125.5,127.5C 127.475,138.038 127.975,148.705 127,159.5C 126.745,150.8 126.245,142.133 125.5,133.5C 123.097,133.607 121.264,132.607 120,130.5C 119.802,132.382 119.302,134.048 118.5,135.5C 118.5,132.833 118.5,130.167 118.5,127.5C 120.948,119.589 124.281,111.922 128.5,104.5C 133.259,98.0947 138.259,92.0947 143.5,86.5C 145.5,85.5 147.5,84.5 149.5,83.5 Z"/></g>
<g><path style="opacity:1" fill="#f9f9f7" d="M 223.5,70.5 C 231.53,72.9168 239.197,76.0834 246.5,80C 249.826,83.1507 252.826,86.3174 255.5,89.5C 258.71,91.3543 261.71,93.6876 264.5,96.5C 271.682,105.863 277.015,116.196 280.5,127.5C 281.859,135.052 282.525,142.718 282.5,150.5C 282.388,155.86 282.055,161.193 281.5,166.5C 279.53,176.079 276.196,185.079 271.5,193.5C 268.114,190.393 266.781,190.893 267.5,195C 266.293,196.3 265.626,197.8 265.5,199.5C 263.071,199.585 261.071,200.585 259.5,202.5C 258.901,205.908 257.568,208.908 255.5,211.5C 250.822,215.702 245.822,219.702 240.5,223.5C 239.264,224.246 237.93,224.579 236.5,224.5C 231.919,226.13 227.586,228.13 223.5,230.5C 222.549,229.081 222.216,227.415 222.5,225.5C 222.335,222.15 222.502,218.817 223,215.5C 228.157,206.188 232.49,196.522 236,186.5C 236.464,179.684 235.631,173.018 233.5,166.5C 234.055,162.988 233.388,159.988 231.5,157.5C 232.992,152.201 234.492,146.868 236,141.5C 242.706,135.126 249.706,129.126 257,123.5C 259.839,118.497 260.839,113.164 260,107.5C 251.246,107.218 242.413,107.051 233.5,107C 231.043,103.942 228.043,101.608 224.5,100C 218.81,99.531 213.143,98.8643 207.5,98C 206.333,96.8333 205.167,95.6667 204,94.5C 203.032,89.2246 200.532,84.8913 196.5,81.5C 195.522,81.9767 194.689,82.6433 194,83.5C 192.654,80.8207 190.654,78.8207 188,77.5C 186.739,77.7591 185.739,78.4258 185,79.5C 182.95,100.243 180.45,120.909 177.5,141.5C 176.51,147.31 176.177,153.31 176.5,159.5C 167.235,161.52 157.902,163.353 148.5,165C 139.833,165.667 131.167,165.667 122.5,165C 121.263,164.768 120.263,164.268 119.5,163.5C 118.791,162.596 117.791,162.263 116.5,162.5C 116.334,154.826 116.5,147.159 117,139.5C 117.41,138.099 117.91,136.766 118.5,135.5C 119.302,134.048 119.802,132.382 120,130.5C 121.264,132.607 123.097,133.607 125.5,133.5C 126.245,142.133 126.745,150.8 127,159.5C 127.975,148.705 127.475,138.038 125.5,127.5C 124.325,127.719 123.325,127.386 122.5,126.5C 121.157,122.506 122.157,119.173 125.5,116.5C 126.281,117.729 126.781,119.062 127,120.5C 127.215,117.144 127.215,113.811 127,110.5C 127.561,111.022 128.228,111.355 129,111.5C 130.368,110.297 131.868,109.297 133.5,108.5C 134.386,109.325 134.719,110.325 134.5,111.5C 136.824,111.338 138.491,110.172 139.5,108C 138.552,107.517 137.552,107.351 136.5,107.5C 136.594,104.015 137.761,101.015 140,98.5C 141.959,97.2519 143.459,95.5852 144.5,93.5C 146.071,92.6906 147.738,92.3573 149.5,92.5C 149.5,91.1667 149.5,89.8333 149.5,88.5C 148.325,88.719 147.325,88.3857 146.5,87.5C 147.524,86.1482 148.524,84.8149 149.5,83.5C 153.207,78.5151 158.207,75.5151 164.5,74.5C 167.789,73.5908 171.122,72.5908 174.5,71.5C 175.468,72.4891 176.635,73.1557 178,73.5C 182.193,72.272 186.36,72.272 190.5,73.5C 191.386,72.675 191.719,71.675 191.5,70.5C 188.15,70.665 184.817,70.4983 181.5,70C 181.833,69.6667 182.167,69.3333 182.5,69C 193.848,68.1675 205.181,68.3342 216.5,69.5C 213.572,70.4841 210.572,70.8174 207.5,70.5C 207.281,71.675 207.614,72.675 208.5,73.5C 213.346,71.7049 218.346,70.7049 223.5,70.5 Z"/></g>
<g><path style="opacity:1" fill="#0c0c0c" d="M 231.5,157.5 C 229.718,158.72 227.718,159.386 225.5,159.5C 225.389,158.883 225.056,158.383 224.5,158C 209.133,154.635 193.8,154.801 178.5,158.5C 177.511,153.025 177.178,147.358 177.5,141.5C 180.45,120.909 182.95,100.243 185,79.5C 185.739,78.4258 186.739,77.7591 188,77.5C 190.654,78.8207 192.654,80.8207 194,83.5C 194.689,82.6433 195.522,81.9767 196.5,81.5C 200.532,84.8913 203.032,89.2246 204,94.5C 205.167,95.6667 206.333,96.8333 207.5,98C 213.143,98.8643 218.81,99.531 224.5,100C 228.043,101.608 231.043,103.942 233.5,107C 242.413,107.051 251.246,107.218 260,107.5C 260.839,113.164 259.839,118.497 257,123.5C 249.706,129.126 242.706,135.126 236,141.5C 234.492,146.868 232.992,152.201 231.5,157.5 Z"/></g>
<g><path style="opacity:1" fill="#fdf2af" d="M 280.5,127.5 C 283.403,139.185 284.237,151.185 283,163.5C 282.768,164.737 282.268,165.737 281.5,166.5C 282.055,161.193 282.388,155.86 282.5,150.5C 282.525,142.718 281.859,135.052 280.5,127.5 Z"/></g>
<g><path style="opacity:1" fill="#fef6c3" d="M 118.5,127.5 C 118.5,130.167 118.5,132.833 118.5,135.5C 117.91,136.766 117.41,138.099 117,139.5C 116.5,147.159 116.334,154.826 116.5,162.5C 117.791,162.263 118.791,162.596 119.5,163.5C 118.167,163.5 116.833,163.5 115.5,163.5C 114.798,151.186 115.798,139.186 118.5,127.5 Z"/></g>
<g><path style="opacity:1" fill="#706d61" d="M 177.5,141.5 C 177.178,147.358 177.511,153.025 178.5,158.5C 178.158,159.338 177.492,159.672 176.5,159.5C 176.177,153.31 176.51,147.31 177.5,141.5 Z"/></g>
<g><path style="opacity:1" fill="#ecc929" d="M 225.5,159.5 C 211.223,157.004 196.89,156.837 182.5,159C 184.301,159.317 184.634,159.984 183.5,161C 179.211,162.252 175.211,164.085 171.5,166.5C 159.088,165.24 146.754,165.907 134.5,168.5C 130.151,168.351 125.818,168.018 121.5,167.5C 118.761,167.481 116.261,168.148 114,169.5C 113.167,169.167 112.333,168.833 111.5,168.5C 113.94,167.664 115.273,165.997 115.5,163.5C 116.833,163.5 118.167,163.5 119.5,163.5C 120.263,164.268 121.263,164.768 122.5,165C 131.167,165.667 139.833,165.667 148.5,165C 157.902,163.353 167.235,161.52 176.5,159.5C 177.492,159.672 178.158,159.338 178.5,158.5C 193.8,154.801 209.133,154.635 224.5,158C 225.056,158.383 225.389,158.883 225.5,159.5 Z"/></g>
<g><path style="opacity:1" fill="#0c0b0b" d="M 224.5,167.5 C 221.522,170.813 218.522,174.147 215.5,177.5C 218.298,178.969 221.298,179.802 224.5,180C 217.839,199.311 212.006,218.811 207,238.5C 212.149,231.865 216.649,224.865 220.5,217.5C 221.167,220.167 221.833,222.833 222.5,225.5C 222.216,227.415 222.549,229.081 223.5,230.5C 223.5,234.167 223.5,237.833 223.5,241.5C 197.27,246.912 172.27,243.578 148.5,231.5C 148.167,231 147.833,230.5 147.5,230C 149.079,227.263 150.412,224.429 151.5,221.5C 159.404,208.7 167.071,195.7 174.5,182.5C 178.393,178.126 183.059,174.626 188.5,172C 200.282,168.96 212.282,167.46 224.5,167.5 Z"/></g>
<g><path style="opacity:1" fill="#fbf9da" d="M 271.5,193.5 C 268.628,195.871 266.794,198.871 266,202.5C 262.608,205.733 259.108,208.733 255.5,211.5C 257.568,208.908 258.901,205.908 259.5,202.5C 261.071,200.585 263.071,199.585 265.5,199.5C 265.626,197.8 266.293,196.3 267.5,195C 266.781,190.893 268.114,190.393 271.5,193.5 Z"/></g>
<g><path style="opacity:1" fill="#343433" d="M 233.5,166.5 C 235.631,173.018 236.464,179.684 236,186.5C 232.49,196.522 228.157,206.188 223,215.5C 222.502,218.817 222.335,222.15 222.5,225.5C 221.833,222.833 221.167,220.167 220.5,217.5C 225.533,208.1 230.033,198.433 234,188.5C 235.071,181.23 234.237,174.23 231.5,167.5C 231.842,166.662 232.508,166.328 233.5,166.5 Z"/></g>
<g><path style="opacity:1" fill="#edeeed" d="M 224.5,167.5 C 226.833,167.5 229.167,167.5 231.5,167.5C 234.237,174.23 235.071,181.23 234,188.5C 230.033,198.433 225.533,208.1 220.5,217.5C 216.649,224.865 212.149,231.865 207,238.5C 212.006,218.811 217.839,199.311 224.5,180C 221.298,179.802 218.298,178.969 215.5,177.5C 218.522,174.147 221.522,170.813 224.5,167.5 Z"/></g>
<g><path style="opacity:1" fill="#f8f7f2" d="M 174.5,182.5 C 167.071,195.7 159.404,208.7 151.5,221.5C 150.508,221.672 149.842,221.338 149.5,220.5C 148.496,217.007 146.163,215.173 142.5,215C 139.887,211.874 136.887,209.374 133.5,207.5C 132.188,205.359 130.355,203.692 128,202.5C 127.51,201.207 127.343,199.873 127.5,198.5C 139.137,197.339 150.47,194.839 161.5,191C 163.5,190.333 164.833,189 165.5,187C 168.391,185.273 171.391,183.773 174.5,182.5 Z"/></g>
<g><path style="opacity:1" fill="#fdf1b9" d="M 133.5,207.5 C 136.887,209.374 139.887,211.874 142.5,215C 146.163,215.173 148.496,217.007 149.5,220.5C 147.5,219.5 145.5,218.5 143.5,217.5C 139.785,214.452 136.452,211.119 133.5,207.5 Z"/></g>
<g><path style="opacity:1" fill="#fae988" d="M 236.5,224.5 C 236.047,225.458 235.381,226.292 234.5,227C 230.785,228.295 227.118,229.462 223.5,230.5C 227.586,228.13 231.919,226.13 236.5,224.5 Z"/></g>
<g><path style="opacity:1" fill="#130d0a" d="M 231.5,255.5 C 237.5,255.5 243.5,255.5 249.5,255.5C 260.297,261.547 262.297,269.881 255.5,280.5C 253.86,281.32 252.193,282.153 250.5,283C 244.175,283.5 237.842,283.666 231.5,283.5C 231.5,274.167 231.5,264.833 231.5,255.5 Z"/></g>
<g><path style="opacity:1" fill="#d5b32b" d="M 177.5,255.5 C 191.5,254.167 205.5,254.167 219.5,255.5C 213.833,255.5 208.167,255.5 202.5,255.5C 202.5,264.833 202.5,274.167 202.5,283.5C 201.5,283.5 200.5,283.5 199.5,283.5C 199.5,281.167 199.5,278.833 199.5,276.5C 195.5,276.5 191.5,276.5 187.5,276.5C 187.5,275.5 187.5,274.5 187.5,273.5C 190.833,273.5 194.167,273.5 197.5,273.5C 198.473,271.052 198.806,268.385 198.5,265.5C 195.102,265.82 191.768,265.487 188.5,264.5C 192.313,263.833 195.979,263.166 199.5,262.5C 199.5,260.167 199.5,257.833 199.5,255.5C 192.167,255.5 184.833,255.5 177.5,255.5 Z"/></g>
<g><path style="opacity:1" fill="#e4c525" d="M 241.5,264.5 C 243.527,264.338 245.527,264.505 247.5,265C 248.954,268.493 248.621,271.826 246.5,275C 244.866,275.494 243.199,275.66 241.5,275.5C 241.5,271.833 241.5,268.167 241.5,264.5 Z"/></g>
<g><path style="opacity:1" fill="#edc61b" d="M 249.5,255.5 C 252.5,256.167 255.5,256.833 258.5,257.5C 258.5,258.833 258.5,260.167 258.5,261.5C 259.5,261.5 260.5,261.5 261.5,261.5C 258.07,278.793 265.07,285.96 282.5,283C 288.507,280.327 291.174,275.66 290.5,269C 290.844,262.17 287.844,257.67 281.5,255.5C 287.498,255.832 293.498,256.165 299.5,256.5C 292.722,261.684 290.888,268.35 294,276.5C 295.5,279.333 297.667,281.5 300.5,283C 306.902,283.818 313.235,283.484 319.5,282C 320.469,277.263 320.803,272.43 320.5,267.5C 320.5,266.833 320.167,266.5 319.5,266.5C 319.5,266.167 319.5,265.833 319.5,265.5C 319.5,262.167 319.5,258.833 319.5,255.5C 320.833,255.5 322.167,255.5 323.5,255.5C 322.737,258.141 322.57,260.808 323,263.5C 324.427,266.1 325.927,268.6 327.5,271C 326.552,271.483 325.552,271.649 324.5,271.5C 324.699,274.941 324.199,278.274 323,281.5C 322.667,281.167 322.333,280.833 322,280.5C 320.553,283.907 319.053,287.24 317.5,290.5C 318.978,290.238 320.311,290.571 321.5,291.5C 319.829,293.51 319.162,295.843 319.5,298.5C 322.385,298.194 325.052,298.527 327.5,299.5C 324.167,299.5 320.833,299.5 317.5,299.5C 317.167,299.5 316.833,299.5 316.5,299.5C 316.317,297.064 316.984,294.897 318.5,293C 315.564,291.955 312.564,291.121 309.5,290.5C 306.554,293.429 305.387,293.095 306,289.5C 304.647,288.315 303.48,286.981 302.5,285.5C 299.885,288.25 297.552,288.084 295.5,285C 295.833,284.667 296.167,284.333 296.5,284C 292.436,281.541 288.936,282.041 286,285.5C 279.272,285.463 272.439,285.296 265.5,285C 262.422,283.474 260.588,280.974 260,277.5C 259.082,279.376 257.582,280.376 255.5,280.5C 262.297,269.881 260.297,261.547 249.5,255.5 Z"/></g>
<g><path style="opacity:1" fill="#120d0b" d="M 281.5,255.5 C 287.844,257.67 290.844,262.17 290.5,269C 291.174,275.66 288.507,280.327 282.5,283C 265.07,285.96 258.07,278.793 261.5,261.5C 263.671,259.5 266.004,257.666 268.5,256C 272.821,255.501 277.154,255.334 281.5,255.5 Z"/></g>
<g><path style="opacity:1" fill="#634d07" d="M 319.5,266.5 C 320.167,266.5 320.5,266.833 320.5,267.5C 316.167,267.5 311.833,267.5 307.5,267.5C 307.5,269.167 307.5,270.833 307.5,272.5C 309.099,272.232 310.432,272.566 311.5,273.5C 309.833,273.5 308.167,273.5 306.5,273.5C 306.5,271.167 306.5,268.833 306.5,266.5C 310.833,266.5 315.167,266.5 319.5,266.5 Z"/></g>
<g><path style="opacity:1" fill="#dbc042" d="M 317.5,264.5 C 317.842,265.338 318.508,265.672 319.5,265.5C 319.5,265.833 319.5,266.167 319.5,266.5C 315.167,266.5 310.833,266.5 306.5,266.5C 306.5,268.833 306.5,271.167 306.5,273.5C 308.167,273.5 309.833,273.5 311.5,273.5C 310.048,275.852 308.048,276.185 305.5,274.5C 302.356,270.186 303.023,266.686 307.5,264C 310.868,263.457 314.201,263.624 317.5,264.5 Z"/></g>
<g><path style="opacity:1" fill="#e5c424" d="M 273.5,263.5 C 275.722,263.178 277.556,263.845 279,265.5C 279.784,268.76 279.617,271.927 278.5,275C 275.975,275.896 273.808,275.396 272,273.5C 271.037,269.851 271.537,266.518 273.5,263.5 Z"/></g>
<g><path style="opacity:1" fill="#7b7028" d="M 318.5,255.5 C 318.833,255.5 319.167,255.5 319.5,255.5C 319.5,258.833 319.5,262.167 319.5,265.5C 318.508,265.672 317.842,265.338 317.5,264.5C 318.477,261.713 318.81,258.713 318.5,255.5 Z"/></g>
<g><path style="opacity:1" fill="#130e0b" d="M 318.5,255.5 C 318.81,258.713 318.477,261.713 317.5,264.5C 314.201,263.624 310.868,263.457 307.5,264C 303.023,266.686 302.356,270.186 305.5,274.5C 308.048,276.185 310.048,275.852 311.5,273.5C 310.432,272.566 309.099,272.232 307.5,272.5C 307.5,270.833 307.5,269.167 307.5,267.5C 311.833,267.5 316.167,267.5 320.5,267.5C 320.803,272.43 320.469,277.263 319.5,282C 313.235,283.484 306.902,283.818 300.5,283C 297.667,281.5 295.5,279.333 294,276.5C 290.888,268.35 292.722,261.684 299.5,256.5C 305.775,255.582 312.108,255.249 318.5,255.5 Z"/></g>
<g><path style="opacity:1" fill="#f6ca13" d="M 143.5,217.5 C 145.5,218.5 147.5,219.5 149.5,220.5C 149.842,221.338 150.508,221.672 151.5,221.5C 150.412,224.429 149.079,227.263 147.5,230C 147.833,230.5 148.167,231 148.5,231.5C 172.27,243.578 197.27,246.912 223.5,241.5C 221.114,242.92 218.447,243.92 215.5,244.5C 216.5,245.333 217.5,246.167 218.5,247C 207.049,247.264 195.382,247.597 183.5,248C 182.338,248.827 181.171,249.66 180,250.5C 176.826,249.29 173.659,249.29 170.5,250.5C 176.238,251.747 181.904,251.414 187.5,249.5C 197.483,250.563 207.483,250.73 217.5,250C 217.167,249.667 216.833,249.333 216.5,249C 218.74,248.023 221.073,247.523 223.5,247.5C 223.5,248.5 223.5,249.5 223.5,250.5C 220.689,250.826 218.022,251.659 215.5,253C 202.13,253.052 188.797,253.219 175.5,253.5C 175.343,254.873 175.51,256.207 176,257.5C 176.278,256.584 176.778,255.918 177.5,255.5C 177.5,264.833 177.5,274.167 177.5,283.5C 184.833,283.5 192.167,283.5 199.5,283.5C 200.5,283.5 201.5,283.5 202.5,283.5C 205.833,283.5 209.167,283.5 212.5,283.5C 212.408,274.717 213.741,274.383 216.5,282.5C 220.107,283.489 223.774,283.823 227.5,283.5C 226.992,280.148 225.658,277.148 223.5,274.5C 227.864,271.243 229.364,266.909 228,261.5C 226.612,259.298 225.112,257.298 223.5,255.5C 225.766,255.141 227.599,255.808 229,257.5C 229.708,256.619 230.542,255.953 231.5,255.5C 231.5,264.833 231.5,274.167 231.5,283.5C 237.842,283.666 244.175,283.5 250.5,283C 252.193,282.153 253.86,281.32 255.5,280.5C 257.582,280.376 259.082,279.376 260,277.5C 260.588,280.974 262.422,283.474 265.5,285C 272.439,285.296 279.272,285.463 286,285.5C 288.936,282.041 292.436,281.541 296.5,284C 296.167,284.333 295.833,284.667 295.5,285C 297.552,288.084 299.885,288.25 302.5,285.5C 303.48,286.981 304.647,288.315 306,289.5C 305.387,293.095 306.554,293.429 309.5,290.5C 312.564,291.121 315.564,291.955 318.5,293C 316.984,294.897 316.317,297.064 316.5,299.5C 316.665,302.518 316.498,305.518 316,308.5C 315.263,306.404 314.097,304.737 312.5,303.5C 306.666,298.832 299.999,297.332 292.5,299C 288.091,301.234 285.425,304.734 284.5,309.5C 283.833,309.5 283.167,309.5 282.5,309.5C 281.312,303.48 277.645,299.98 271.5,299C 264.924,297.38 259.257,298.88 254.5,303.5C 253.069,303.881 252.236,304.881 252,306.5C 251.054,304.212 249.887,302.045 248.5,300C 247.207,299.51 245.873,299.343 244.5,299.5C 243.833,299.5 243.167,299.5 242.5,299.5C 236.355,298.51 230.022,298.177 223.5,298.5C 223.5,307.5 223.5,316.5 223.5,325.5C 222.25,325.577 221.417,326.244 221,327.5C 220.583,326.244 219.75,325.577 218.5,325.5C 222.827,320.302 222.493,315.469 217.5,311C 206.773,307.417 207.106,306.251 218.5,307.5C 219.48,304.914 219.813,302.247 219.5,299.5C 214.537,298.504 209.537,298.337 204.5,299C 202.014,299.656 200.347,301.156 199.5,303.5C 198.022,302.552 197.022,301.219 196.5,299.5C 188.5,299.5 180.5,299.5 172.5,299.5C 163.285,298.288 153.952,298.288 144.5,299.5C 143.694,300.997 143.028,302.664 142.5,304.5C 142.043,305.298 141.376,305.631 140.5,305.5C 134.697,298.69 127.364,296.69 118.5,299.5C 116.5,299.5 114.5,299.5 112.5,299.5C 112.719,300.675 112.386,301.675 111.5,302.5C 109.502,300.666 107.168,299.666 104.5,299.5C 97.8333,299.5 91.1667,299.5 84.5,299.5C 86.4758,297.989 88.8091,297.156 91.5,297C 92.6039,295.869 92.2705,295.035 90.5,294.5C 81.5482,295.639 72.5482,295.805 63.5,295C 61.99,294.15 60.49,293.317 59,292.5C 57.3335,293.767 55.8335,295.267 54.5,297C 52.0982,297.814 49.7649,297.647 47.5,296.5C 49.6922,295.141 51.3589,293.308 52.5,291C 61.3207,288.74 70.3207,287.907 79.5,288.5C 79.2746,286.284 80.1079,284.617 82,283.5C 84.3038,286.025 87.1371,287.691 90.5,288.5C 86.1858,289.04 82.0191,290.04 78,291.5C 73.0025,289.951 68.1692,290.284 63.5,292.5C 73.1651,293.459 82.8318,293.293 92.5,292C 93.3802,290.644 93.7135,289.144 93.5,287.5C 97.1817,287.665 100.848,287.499 104.5,287C 101.462,285.571 98.2952,285.404 95,286.5C 91.2451,285.691 87.5784,284.691 84,283.5C 82.7353,280.539 81.5686,277.539 80.5,274.5C 81,273.5 81.5,272.5 82,271.5C 82.4994,266.177 82.666,260.844 82.5,255.5C 81.5,255.5 80.5,255.5 79.5,255.5C 79.238,254.022 79.5713,252.689 80.5,251.5C 86.0875,251.245 91.7541,251.578 97.5,252.5C 100.118,251.627 102.784,250.961 105.5,250.5C 112.83,251.262 120.163,251.928 127.5,252.5C 121.649,253.769 115.649,253.769 109.5,252.5C 106.724,253.515 104.057,254.515 101.5,255.5C 101.666,261.842 101.5,268.175 101,274.5C 98.7328,275.935 96.7328,275.602 95,273.5C 94.5005,267.509 94.3338,261.509 94.5,255.5C 91.1667,255.5 87.8333,255.5 84.5,255.5C 84.3337,262.508 84.5004,269.508 85,276.5C 86.9218,280.597 90.0885,282.93 94.5,283.5C 98.5224,284.768 102.689,284.768 107,283.5C 108.908,284.454 110.908,285.121 113,285.5C 117.461,284.655 121.961,284.322 126.5,284.5C 126.351,285.552 126.517,286.552 127,287.5C 129.091,285.572 130.924,283.572 132.5,281.5C 133.167,282.167 133.833,282.833 134.5,283.5C 137.695,284.236 141.029,284.903 144.5,285.5C 145.182,284.757 145.849,284.091 146.5,283.5C 152.509,283.666 158.509,283.499 164.5,283C 169.155,282.27 172.321,279.77 174,275.5C 176.985,266.114 174.151,259.448 165.5,255.5C 163.37,254.289 161.37,252.956 159.5,251.5C 160.873,251.657 162.207,251.49 163.5,251C 159.167,250.667 154.833,250.333 150.5,250C 147.881,249.849 145.547,249.015 143.5,247.5C 149.82,245.931 150.154,243.431 144.5,240C 146.714,238.727 149.047,237.727 151.5,237C 149.404,235.046 147.07,233.379 144.5,232C 145.711,230.887 145.711,229.72 144.5,228.5C 145.171,226.493 146.171,224.66 147.5,223C 146.293,220.977 144.96,219.144 143.5,217.5 Z"/></g>
<g><path style="opacity:1" fill="#120d0a" d="M 219.5,255.5 C 220.833,255.5 222.167,255.5 223.5,255.5C 225.112,257.298 226.612,259.298 228,261.5C 229.364,266.909 227.864,271.243 223.5,274.5C 225.658,277.148 226.992,280.148 227.5,283.5C 223.774,283.823 220.107,283.489 216.5,282.5C 213.741,274.383 212.408,274.717 212.5,283.5C 209.167,283.5 205.833,283.5 202.5,283.5C 202.5,274.167 202.5,264.833 202.5,255.5C 208.167,255.5 213.833,255.5 219.5,255.5 Z"/></g>
<g><path style="opacity:1" fill="#130e09" d="M 101.5,255.5 C 105.167,255.5 108.833,255.5 112.5,255.5C 112.666,262.175 112.5,268.842 112,275.5C 108.347,282.572 102.514,285.239 94.5,283.5C 90.0885,282.93 86.9218,280.597 85,276.5C 84.5004,269.508 84.3337,262.508 84.5,255.5C 87.8333,255.5 91.1667,255.5 94.5,255.5C 94.3338,261.509 94.5005,267.509 95,273.5C 96.7328,275.602 98.7328,275.935 101,274.5C 101.5,268.175 101.666,261.842 101.5,255.5 Z"/></g>
<g><path style="opacity:1" fill="#0e0b0d" d="M 177.5,255.5 C 184.833,255.5 192.167,255.5 199.5,255.5C 199.5,257.833 199.5,260.167 199.5,262.5C 195.5,262.5 191.5,262.5 187.5,262.5C 187.5,263.833 187.5,265.167 187.5,266.5C 190.833,266.5 194.167,266.5 197.5,266.5C 197.5,268.833 197.5,271.167 197.5,273.5C 194.167,273.5 190.833,273.5 187.5,273.5C 187.5,274.5 187.5,275.5 187.5,276.5C 191.5,276.5 195.5,276.5 199.5,276.5C 199.5,278.833 199.5,281.167 199.5,283.5C 192.167,283.5 184.833,283.5 177.5,283.5C 177.5,274.167 177.5,264.833 177.5,255.5 Z"/></g>
<g><path style="opacity:1" fill="#c6b036" d="M 212.5,263.5 C 214.167,263.5 215.833,263.5 217.5,263.5C 217.5,265.167 217.5,266.833 217.5,268.5C 215.833,268.5 214.167,268.5 212.5,268.5C 212.5,266.833 212.5,265.167 212.5,263.5 Z"/></g>
<g><path style="opacity:1" fill="#554607" d="M 199.5,262.5 C 195.979,263.166 192.313,263.833 188.5,264.5C 191.768,265.487 195.102,265.82 198.5,265.5C 198.806,268.385 198.473,271.052 197.5,273.5C 197.5,271.167 197.5,268.833 197.5,266.5C 194.167,266.5 190.833,266.5 187.5,266.5C 187.5,265.167 187.5,263.833 187.5,262.5C 191.5,262.5 195.5,262.5 199.5,262.5 Z"/></g>
<g><path style="opacity:1" fill="#140f0b" d="M 165.5,255.5 C 174.151,259.448 176.985,266.114 174,275.5C 172.321,279.77 169.155,282.27 164.5,283C 158.509,283.499 152.509,283.666 146.5,283.5C 146.5,274.167 146.5,264.833 146.5,255.5C 152.833,255.5 159.167,255.5 165.5,255.5 Z"/></g>
<g><path style="opacity:1" fill="#eac520" d="M 157.5,264.5 C 161.841,263.52 164.174,265.187 164.5,269.5C 164.616,274.386 162.282,276.386 157.5,275.5C 157.5,271.833 157.5,268.167 157.5,264.5 Z"/></g>
<g><path style="opacity:1" fill="#f1c720" d="M 159.5,251.5 C 161.37,252.956 163.37,254.289 165.5,255.5C 159.167,255.5 152.833,255.5 146.5,255.5C 146.5,264.833 146.5,274.167 146.5,283.5C 145.849,284.091 145.182,284.757 144.5,285.5C 141.029,284.903 137.695,284.236 134.5,283.5C 137.5,283.5 140.5,283.5 143.5,283.5C 143.5,274.167 143.5,264.833 143.5,255.5C 139.833,255.5 136.167,255.5 132.5,255.5C 132.665,258.85 132.498,262.183 132,265.5C 129.833,262.5 127.667,259.5 125.5,256.5C 122.232,255.513 118.898,255.18 115.5,255.5C 115.5,264.833 115.5,274.167 115.5,283.5C 119.167,283.5 122.833,283.5 126.5,283.5C 126.335,280.15 126.502,276.817 127,273.5C 129.054,276.047 130.887,278.714 132.5,281.5C 130.924,283.572 129.091,285.572 127,287.5C 126.517,286.552 126.351,285.552 126.5,284.5C 121.961,284.322 117.461,284.655 113,285.5C 110.908,285.121 108.908,284.454 107,283.5C 102.689,284.768 98.5224,284.768 94.5,283.5C 102.514,285.239 108.347,282.572 112,275.5C 112.5,268.842 112.666,262.175 112.5,255.5C 108.833,255.5 105.167,255.5 101.5,255.5C 104.057,254.515 106.724,253.515 109.5,252.5C 115.649,253.769 121.649,253.769 127.5,252.5C 138.26,252.093 148.927,251.76 159.5,251.5 Z"/></g>
<g><path style="opacity:1" fill="#16110d" d="M 134.5,283.5 C 133.833,282.833 133.167,282.167 132.5,281.5C 130.887,278.714 129.054,276.047 127,273.5C 126.502,276.817 126.335,280.15 126.5,283.5C 122.833,283.5 119.167,283.5 115.5,283.5C 115.5,274.167 115.5,264.833 115.5,255.5C 118.898,255.18 122.232,255.513 125.5,256.5C 127.667,259.5 129.833,262.5 132,265.5C 132.498,262.183 132.665,258.85 132.5,255.5C 136.167,255.5 139.833,255.5 143.5,255.5C 143.5,264.833 143.5,274.167 143.5,283.5C 140.5,283.5 137.5,283.5 134.5,283.5 Z"/></g>
<g><path style="opacity:1" fill="#c2a72c" d="M 144.5,299.5 C 153.952,298.288 163.285,298.288 172.5,299.5C 172.5,301.833 172.5,304.167 172.5,306.5C 171.833,308.167 171.167,309.833 170.5,311.5C 171.574,306.365 169.907,302.532 165.5,300C 158.508,299.5 151.508,299.334 144.5,299.5 Z"/></g>
<g><path style="opacity:1" fill="#786529" d="M 242.5,299.5 C 236.5,299.5 230.5,299.5 224.5,299.5C 224.5,308.5 224.5,317.5 224.5,326.5C 230.833,326.5 237.167,326.5 243.5,326.5C 237.021,327.491 230.354,327.824 223.5,327.5C 223.5,326.833 223.5,326.167 223.5,325.5C 223.5,316.5 223.5,307.5 223.5,298.5C 230.022,298.177 236.355,298.51 242.5,299.5 Z"/></g>
<g><path style="opacity:1" fill="#140f0a" d="M 312.5,303.5 C 314.064,307.674 314.731,312.007 314.5,316.5C 313.498,321.671 310.498,325.171 305.5,327C 299.574,328.11 293.908,327.444 288.5,325C 287.512,322.833 286.179,321 284.5,319.5C 284.5,316.167 284.5,312.833 284.5,309.5C 285.425,304.734 288.091,301.234 292.5,299C 299.999,297.332 306.666,298.832 312.5,303.5 Z"/></g>
<g><path style="opacity:1" fill="#110d0a" d="M 144.5,299.5 C 151.508,299.334 158.508,299.5 165.5,300C 169.907,302.532 171.574,306.365 170.5,311.5C 169.949,314.267 168.616,316.6 166.5,318.5C 167.833,321.167 169.167,323.833 170.5,326.5C 163.549,329.099 158.883,327.099 156.5,320.5C 156.44,319.957 156.107,319.624 155.5,319.5C 154.526,321.743 154.192,324.076 154.5,326.5C 151.167,326.5 147.833,326.5 144.5,326.5C 144.5,317.5 144.5,308.5 144.5,299.5 Z"/></g>
<g><path style="opacity:1" fill="#cbaa33" d="M 316.5,299.5 C 316.833,299.5 317.167,299.5 317.5,299.5C 317.5,308.833 317.5,318.167 317.5,327.5C 316.673,322.015 316.173,316.348 316,310.5C 315.809,312.708 315.309,314.708 314.5,316.5C 314.731,312.007 314.064,307.674 312.5,303.5C 314.097,304.737 315.263,306.404 316,308.5C 316.498,305.518 316.665,302.518 316.5,299.5 Z"/></g>
<g><path style="opacity:1" fill="#d6b83c" d="M 154.5,307.5 C 156.167,307.5 157.833,307.5 159.5,307.5C 159.5,308.833 159.5,310.167 159.5,311.5C 157.833,311.5 156.167,311.5 154.5,311.5C 154.5,310.167 154.5,308.833 154.5,307.5 Z"/></g>
<g><path style="opacity:1" fill="#b59a29" d="M 172.5,306.5 C 174.833,306.5 177.167,306.5 179.5,306.5C 179.5,313.5 179.5,320.5 179.5,327.5C 178.509,321.021 178.176,314.354 178.5,307.5C 176.265,307.795 174.265,307.461 172.5,306.5 Z"/></g>
<g><path style="opacity:1" fill="#150f0b" d="M 218.5,325.5 C 212.26,327.935 205.927,328.102 199.5,326C 198.223,323.534 198.223,321.034 199.5,318.5C 201.717,319.572 204.05,320.239 206.5,320.5C 208.319,320.658 209.652,319.991 210.5,318.5C 205.918,317.297 202.085,314.964 199,311.5C 198.51,310.207 198.343,308.873 198.5,307.5C 198.433,306.041 198.766,304.708 199.5,303.5C 200.347,301.156 202.014,299.656 204.5,299C 209.537,298.337 214.537,298.504 219.5,299.5C 219.813,302.247 219.48,304.914 218.5,307.5C 207.106,306.251 206.773,307.417 217.5,311C 222.493,315.469 222.827,320.302 218.5,325.5 Z"/></g>
<g><path style="opacity:1" fill="#110d0c" d="M 317.5,299.5 C 320.833,299.5 324.167,299.5 327.5,299.5C 327.337,301.857 327.503,304.19 328,306.5C 328.717,305.956 329.217,305.289 329.5,304.5C 330.596,302.897 331.93,301.397 333.5,300C 337.211,299.175 340.878,299.341 344.5,300.5C 342.011,304.153 339.344,307.653 336.5,311C 339.952,316.065 343.285,321.232 346.5,326.5C 342.833,327.833 339.167,327.833 335.5,326.5C 333.975,323.437 331.975,320.77 329.5,318.5C 328.914,318.709 328.414,319.043 328,319.5C 327.503,322.146 327.336,324.813 327.5,327.5C 324.167,327.5 320.833,327.5 317.5,327.5C 317.5,318.167 317.5,308.833 317.5,299.5 Z"/></g>
<g><path style="opacity:1" fill="#9b8c30" d="M 327.5,299.5 C 328.167,301.167 328.833,302.833 329.5,304.5C 329.217,305.289 328.717,305.956 328,306.5C 327.503,304.19 327.337,301.857 327.5,299.5 Z"/></g>
<g><path style="opacity:1" fill="#110c09" d="M 84.5,299.5 C 91.1667,299.5 97.8333,299.5 104.5,299.5C 110.08,302.97 111.913,307.97 110,314.5C 108.833,317 107,318.833 104.5,320C 101.183,320.498 97.8499,320.665 94.5,320.5C 94.5,322.833 94.5,325.167 94.5,327.5C 91.1667,327.5 87.8333,327.5 84.5,327.5C 84.5,318.167 84.5,308.833 84.5,299.5 Z"/></g>
<g><path style="opacity:1" fill="#eed61d" d="M 99.5,308.5 C 99.5,309.5 99.5,310.5 99.5,311.5C 98.1667,311.5 96.8333,311.5 95.5,311.5C 95.5,310.5 95.5,309.5 95.5,308.5C 96.8333,308.5 98.1667,308.5 99.5,308.5 Z"/></g>
<g><path style="opacity:1" fill="#b7ac54" d="M 99.5,308.5 C 98.1667,308.5 96.8333,308.5 95.5,308.5C 95.5,309.5 95.5,310.5 95.5,311.5C 96.8333,311.5 98.1667,311.5 99.5,311.5C 98.0813,312.451 96.4147,312.784 94.5,312.5C 94.5,310.833 94.5,309.167 94.5,307.5C 96.4147,307.216 98.0813,307.549 99.5,308.5 Z"/></g>
<g><path style="opacity:1" fill="#eac428" d="M 296.5,307.5 C 298.591,307.318 300.591,307.652 302.5,308.5C 303.787,311.709 303.787,314.875 302.5,318C 300.231,318.758 298.064,318.591 296,317.5C 295.253,314.076 295.42,310.743 296.5,307.5 Z"/></g>
<g><path style="opacity:1" fill="#0e0a0a" d="M 172.5,299.5 C 180.5,299.5 188.5,299.5 196.5,299.5C 196.5,301.833 196.5,304.167 196.5,306.5C 194.167,306.5 191.833,306.5 189.5,306.5C 189.5,313.5 189.5,320.5 189.5,327.5C 186.167,327.5 182.833,327.5 179.5,327.5C 179.5,320.5 179.5,313.5 179.5,306.5C 177.167,306.5 174.833,306.5 172.5,306.5C 172.5,304.167 172.5,301.833 172.5,299.5 Z"/></g>
<g><path style="opacity:1" fill="#140e0d" d="M 79.5,299.5 C 79.8134,302.247 79.48,304.914 78.5,307.5C 66.8261,306.553 66.8261,307.886 78.5,311.5C 83.3689,318.238 82.0356,323.405 74.5,327C 69.1294,327.676 63.7961,327.509 58.5,326.5C 58.1866,323.753 58.52,321.086 59.5,318.5C 60.7362,319.246 62.0695,319.579 63.5,319.5C 65.6074,320.468 67.9407,320.802 70.5,320.5C 70.7373,319.209 70.404,318.209 69.5,317.5C 60.8945,316.612 57.3945,311.946 59,303.5C 60.6374,301.19 62.804,299.69 65.5,299C 70.1841,298.539 74.8507,298.705 79.5,299.5 Z"/></g>
<g><path style="opacity:1" fill="#93781c" d="M 196.5,299.5 C 197.022,301.219 198.022,302.552 199.5,303.5C 198.766,304.708 198.433,306.041 198.5,307.5C 195.833,307.5 193.167,307.5 190.5,307.5C 190.824,314.354 190.491,321.021 189.5,327.5C 189.5,320.5 189.5,313.5 189.5,306.5C 191.833,306.5 194.167,306.5 196.5,306.5C 196.5,304.167 196.5,301.833 196.5,299.5 Z"/></g>
<g><path style="opacity:1" fill="#130f0b" d="M 282.5,309.5 C 282.495,313.534 282.162,317.534 281.5,321.5C 279.388,324.063 276.721,325.896 273.5,327C 269.167,327.667 264.833,327.667 260.5,327C 258.416,326.303 256.749,325.136 255.5,323.5C 251.989,317.036 251.656,310.369 254.5,303.5C 259.257,298.88 264.924,297.38 271.5,299C 277.645,299.98 281.312,303.48 282.5,309.5 Z"/></g>
<g><path style="opacity:1" fill="#f7cf14" d="M 271.5,310.5 C 271.5,312.5 271.5,314.5 271.5,316.5C 269.167,316.5 266.833,316.5 264.5,316.5C 264.5,314.167 264.5,311.833 264.5,309.5C 266.95,309.298 269.283,309.631 271.5,310.5 Z"/></g>
<g><path style="opacity:1" fill="#d1b33b" d="M 271.5,310.5 C 269.283,309.631 266.95,309.298 264.5,309.5C 264.5,311.833 264.5,314.167 264.5,316.5C 266.833,316.5 269.167,316.5 271.5,316.5C 271.389,317.117 271.056,317.617 270.5,318C 265.459,319.809 263.125,318.143 263.5,313C 262.77,308.063 264.77,306.396 269.5,308C 270.756,308.417 271.423,309.25 271.5,310.5 Z"/></g>
<g><path style="opacity:1" fill="#d2b156" d="M 282.5,309.5 C 283.167,309.5 283.833,309.5 284.5,309.5C 284.5,312.833 284.5,316.167 284.5,319.5C 283.222,319.782 282.222,320.449 281.5,321.5C 282.162,317.534 282.495,313.534 282.5,309.5 Z"/></g>
<g><path style="opacity:1" fill="#857640" d="M 69.5,317.5 C 70.404,318.209 70.7373,319.209 70.5,320.5C 67.9407,320.802 65.6074,320.468 63.5,319.5C 66.0821,319.975 68.0821,319.308 69.5,317.5 Z"/></g>
<g><path style="opacity:1" fill="#d4b841" d="M 144.5,299.5 C 144.5,308.5 144.5,317.5 144.5,326.5C 144.5,326.833 144.5,327.167 144.5,327.5C 143.671,320.679 143.171,313.679 143,306.5C 142.667,311.5 142.333,316.5 142,321.5C 139.742,325.111 136.575,327.111 132.5,327.5C 141.332,322.676 143.999,315.342 140.5,305.5C 141.376,305.631 142.043,305.298 142.5,304.5C 143.028,302.664 143.694,300.997 144.5,299.5 Z"/></g>
<g><path style="opacity:1" fill="#dcbe33" d="M 104.5,299.5 C 107.168,299.666 109.502,300.666 111.5,302.5C 112.386,301.675 112.719,300.675 112.5,299.5C 114.5,299.5 116.5,299.5 118.5,299.5C 112.04,304.508 109.706,311.174 111.5,319.5C 110.778,319.082 110.278,318.416 110,317.5C 109.547,319.755 108.214,321.089 106,321.5C 102.542,322.286 99.0418,322.62 95.5,322.5C 95.7845,324.415 95.4511,326.081 94.5,327.5C 94.5,325.167 94.5,322.833 94.5,320.5C 97.8499,320.665 101.183,320.498 104.5,320C 107,318.833 108.833,317 110,314.5C 111.913,307.97 110.08,302.97 104.5,299.5 Z"/></g>
<g><path style="opacity:1" fill="#130d0b" d="M 140.5,305.5 C 143.999,315.342 141.332,322.676 132.5,327.5C 123.501,329.508 116.501,326.842 111.5,319.5C 109.706,311.174 112.04,304.508 118.5,299.5C 127.364,296.69 134.697,298.69 140.5,305.5 Z"/></g>
<g><path style="opacity:1" fill="#ecc623" d="M 123.5,307.5 C 125.792,307.244 127.959,307.577 130,308.5C 130.784,311.76 130.617,314.927 129.5,318C 127.231,318.758 125.064,318.591 123,317.5C 122.253,314.076 122.42,310.743 123.5,307.5 Z"/></g>
<g><path style="opacity:1" fill="#0f0a0c" d="M 242.5,299.5 C 243.167,299.5 243.833,299.5 244.5,299.5C 249.111,301.634 250.611,305.301 249,310.5C 246.958,312.51 247.291,314.176 250,315.5C 250.996,319.207 250.33,322.541 248,325.5C 246.644,326.38 245.144,326.714 243.5,326.5C 237.167,326.5 230.833,326.5 224.5,326.5C 224.5,317.5 224.5,308.5 224.5,299.5C 230.5,299.5 236.5,299.5 242.5,299.5 Z"/></g>
<g><path style="opacity:1" fill="#7d743d" d="M 234.5,316.5 C 234.5,317.5 234.5,318.5 234.5,319.5C 236.167,319.5 237.833,319.5 239.5,319.5C 237.735,320.461 235.735,320.795 233.5,320.5C 233.232,318.901 233.566,317.568 234.5,316.5 Z"/></g>
<g><path style="opacity:1" fill="#dcba3f" d="M 234.5,316.5 C 236.199,316.34 237.866,316.506 239.5,317C 240.774,317.977 240.774,318.811 239.5,319.5C 237.833,319.5 236.167,319.5 234.5,319.5C 234.5,318.5 234.5,317.5 234.5,316.5 Z"/></g>
<g><path style="opacity:1" fill="#dfc441" d="M 233.5,306.5 C 235.5,306.5 237.5,306.5 239.5,306.5C 239.5,307.5 239.5,308.5 239.5,309.5C 237.5,309.5 235.5,309.5 233.5,309.5C 233.5,308.5 233.5,307.5 233.5,306.5 Z"/></g>
<g><path style="opacity:1" fill="#dbbf35" d="M 244.5,299.5 C 245.873,299.343 247.207,299.51 248.5,300C 249.887,302.045 251.054,304.212 252,306.5C 252.236,304.881 253.069,303.881 254.5,303.5C 251.656,310.369 251.989,317.036 255.5,323.5C 253.801,323.34 252.134,323.506 250.5,324C 249.833,326 248.5,327.333 246.5,328C 238.655,328.822 230.989,328.656 223.5,327.5C 230.354,327.824 237.021,327.491 243.5,326.5C 245.144,326.714 246.644,326.38 248,325.5C 250.33,322.541 250.996,319.207 250,315.5C 247.291,314.176 246.958,312.51 249,310.5C 250.611,305.301 249.111,301.634 244.5,299.5 Z"/></g>
<g><path style="opacity:1" fill="#d6b629" d="M 79.5,299.5 C 80.1153,304.094 80.9486,308.761 82,313.5C 82.1161,308.566 82.9494,303.9 84.5,299.5C 84.5,308.833 84.5,318.167 84.5,327.5C 83.7354,327.077 82.9021,326.743 82,326.5C 73.8686,328.947 66.0352,328.947 58.5,326.5C 63.7961,327.509 69.1294,327.676 74.5,327C 82.0356,323.405 83.3689,318.238 78.5,311.5C 66.8261,307.886 66.8261,306.553 78.5,307.5C 79.48,304.914 79.8134,302.247 79.5,299.5 Z"/></g>
<g><path style="opacity:1" fill="#563d0b" d="M 156.5,320.5 C 155.532,322.607 155.198,324.941 155.5,327.5C 151.833,327.5 148.167,327.5 144.5,327.5C 144.5,327.167 144.5,326.833 144.5,326.5C 147.833,326.5 151.167,326.5 154.5,326.5C 154.192,324.076 154.526,321.743 155.5,319.5C 156.107,319.624 156.44,319.957 156.5,320.5 Z"/></g>
</svg>
