<?xml version="1.0" encoding="UTF-8"?>
<!DOCTYPE svg PUBLIC "-//W3C//DTD SVG 1.1//EN" "http://www.w3.org/Graphics/SVG/1.1/DTD/svg11.dtd">
<svg xmlns="http://www.w3.org/2000/svg" version="1.1" width="180px" height="180px" style="shape-rendering:geometricPrecision; text-rendering:geometricPrecision; image-rendering:optimizeQuality; fill-rule:evenodd; clip-rule:evenodd" xmlns:xlink="http://www.w3.org/1999/xlink">
<g><path style="opacity:1" fill="#fefefe" d="M -0.5,-0.5 C 59.5,-0.5 119.5,-0.5 179.5,-0.5C 179.5,59.5 179.5,119.5 179.5,179.5C 119.5,179.5 59.5,179.5 -0.5,179.5C -0.5,119.5 -0.5,59.5 -0.5,-0.5 Z"/></g>
<g><path style="opacity:1" fill="#c9c8c6" d="M 100.5,48.5 C 93.5,48.5 86.5,48.5 79.5,48.5C 78.8333,48.5 78.1667,48.5 77.5,48.5C 77.9175,47.7784 78.5842,47.2784 79.5,47C 83,46.8333 86.5,46.6667 90,46.5C 93.9018,46.5123 97.4018,47.179 100.5,48.5 Z"/></g>
<g><path style="opacity:1" fill="#8f918f" d="M 77.5,48.5 C 78.1667,48.5 78.8333,48.5 79.5,48.5C 76.8333,49.1667 74.1667,49.8333 71.5,50.5C 66.7971,50.4372 62.1304,50.7705 57.5,51.5C 63.8539,49.3689 70.5205,48.3689 77.5,48.5 Z"/></g>
<g><path style="opacity:1" fill="#bfc0be" d="M 103.5,48.5 C 108.434,48.2291 113.1,48.8958 117.5,50.5C 112.63,50.3104 107.964,49.6437 103.5,48.5 Z"/></g>
<g><path style="opacity:1" fill="#7d9684" d="M 71.5,50.5 C 82.3464,50.1722 93.0131,50.5056 103.5,51.5C 90.8152,51.3451 78.1486,51.6784 65.5,52.5C 67.5,51.8333 69.5,51.1667 71.5,50.5 Z"/></g>
<g><path style="opacity:1" fill="#839183" d="M 55.5,51.5 C 53.22,53.2227 50.5533,53.8893 47.5,53.5C 49.9608,52.469 52.6275,51.8023 55.5,51.5 Z"/></g>
<g><path style="opacity:1" fill="#3b4a3d" d="M 79.5,48.5 C 86.5,48.5 93.5,48.5 100.5,48.5C 101.5,48.5 102.5,48.5 103.5,48.5C 107.964,49.6437 112.63,50.3104 117.5,50.5C 128.695,52.4558 139.362,55.7891 149.5,60.5C 148.508,60.3284 147.842,60.6618 147.5,61.5C 146.292,60.7659 144.959,60.4326 143.5,60.5C 143.167,60.5 142.833,60.5 142.5,60.5C 142.389,59.8826 142.056,59.3826 141.5,59C 129.215,54.548 116.548,52.048 103.5,51.5C 93.0131,50.5056 82.3464,50.1722 71.5,50.5C 74.1667,49.8333 76.8333,49.1667 79.5,48.5 Z"/></g>
<g><path style="opacity:1" fill="#9bbea0" d="M 103.5,51.5 C 116.548,52.048 129.215,54.548 141.5,59C 142.056,59.3826 142.389,59.8826 142.5,60.5C 132.369,57.906 122.036,55.7394 111.5,54C 93.711,51.5494 76.0444,52.2161 58.5,56C 58.0426,56.414 57.7093,56.914 57.5,57.5C 59.9705,58.8032 61.9705,60.6365 63.5,63C 62.381,64.876 60.7144,65.7093 58.5,65.5C 58.5,67.8333 58.5,70.1667 58.5,72.5C 62.4214,73.07 64.588,71.4033 65,67.5C 67.1469,68.4757 69.3136,68.309 71.5,67C 70.6433,66.3109 69.9767,65.4776 69.5,64.5C 84.3616,64.134 98.8616,63.8007 113,63.5C 117.258,65.1865 121.758,66.1865 126.5,66.5C 128.833,66.3333 131.167,66.1667 133.5,66C 131.423,65.8078 129.423,65.3078 127.5,64.5C 132.792,63.5052 138.125,63.1718 143.5,63.5C 143.5,62.5 143.5,61.5 143.5,60.5C 144.959,60.4326 146.292,60.7659 147.5,61.5C 151.864,63.3437 155.864,65.677 159.5,68.5C 147.352,69.8325 134.852,70.4991 122,70.5C 109.5,70.3333 97,70.1667 84.5,70C 88.211,69.8253 91.8776,69.3253 95.5,68.5C 90.533,67.3377 85.533,67.1711 80.5,68C 79.273,69.5874 79.6063,70.9207 81.5,72C 80.6364,73.6965 79.3031,74.8632 77.5,75.5C 76.2888,74.7261 76.2888,73.8928 77.5,73C 76,72.5 74.5,72 73,71.5C 72.0546,71.9054 71.3879,72.572 71,73.5C 70.3292,72.7476 69.4959,72.4142 68.5,72.5C 67.7494,71.4265 66.7494,71.2599 65.5,72C 60.5447,76.805 55.2113,80.9717 49.5,84.5C 48.6621,81.3136 47.6621,78.1469 46.5,75C 46.5699,74.2352 46.9033,73.7352 47.5,73.5C 49.1033,73.6882 50.4366,73.1882 51.5,72C 41.1667,71.3333 30.8333,71.3333 20.5,72C 21.2438,73.0386 22.2438,73.5386 23.5,73.5C 24.4916,73.3284 25.1583,73.6618 25.5,74.5C 25.741,77.999 24.9076,78.3323 23,75.5C 21.8118,76.5634 21.3118,77.8967 21.5,79.5C 23.1667,79.5 24.8333,79.5 26.5,79.5C 26.3379,81.5273 26.5045,83.5273 27,85.5C 28,85.8333 29,86.1667 30,86.5C 32.7752,94.397 34.7752,102.397 36,110.5C 35.3457,109.304 34.8457,109.304 34.5,110.5C 38.3592,112.852 37.8592,114.518 33,115.5C 30.1052,114.541 27.4385,113.207 25,111.5C 24.2985,108.673 23.2985,106.006 22,103.5C 21.6667,103.833 21.3333,104.167 21,104.5C 17.9486,102.456 14.9486,101.122 12,100.5C 9.03113,94.5711 7.86447,88.2378 8.5,81.5C 12.6507,73.8504 18.6507,68.0171 26.5,64C 38.7924,57.8588 51.7924,54.0255 65.5,52.5C 78.1486,51.6784 90.8152,51.3451 103.5,51.5 Z"/></g>
<g><path style="opacity:1" fill="#97be9d" d="M 142.5,60.5 C 142.833,60.5 143.167,60.5 143.5,60.5C 143.5,61.5 143.5,62.5 143.5,63.5C 138.125,63.1718 132.792,63.5052 127.5,64.5C 129.423,65.3078 131.423,65.8078 133.5,66C 131.167,66.1667 128.833,66.3333 126.5,66.5C 121.758,66.1865 117.258,65.1865 113,63.5C 98.8616,63.8007 84.3616,64.134 69.5,64.5C 69.9767,65.4776 70.6433,66.3109 71.5,67C 69.3136,68.309 67.1469,68.4757 65,67.5C 64.588,71.4033 62.4214,73.07 58.5,72.5C 58.5,70.1667 58.5,67.8333 58.5,65.5C 60.7144,65.7093 62.381,64.876 63.5,63C 61.9705,60.6365 59.9705,58.8032 57.5,57.5C 57.7093,56.914 58.0426,56.414 58.5,56C 76.0444,52.2161 93.711,51.5494 111.5,54C 122.036,55.7394 132.369,57.906 142.5,60.5 Z"/></g>
<g><path style="opacity:1" fill="#2e3c30" d="M 71.5,50.5 C 69.5,51.1667 67.5,51.8333 65.5,52.5C 51.7924,54.0255 38.7924,57.8588 26.5,64C 18.6507,68.0171 12.6507,73.8504 8.5,81.5C 5.52926,88.337 6.02926,95.0037 10,101.5C 16.9877,109.656 25.4877,115.656 35.5,119.5C 35.1583,120.338 34.4916,120.672 33.5,120.5C 20.4078,116.24 10.9078,107.907 5,95.5C 3.3944,84.1947 7.22773,75.028 16.5,68C 26.1609,61.5001 36.4942,56.6667 47.5,53.5C 50.5533,53.8893 53.22,53.2227 55.5,51.5C 56.1667,51.5 56.8333,51.5 57.5,51.5C 62.1304,50.7705 66.7971,50.4372 71.5,50.5 Z"/></g>
<g><path style="opacity:1" fill="#3e5342" d="M 47.5,73.5 C 39.5,72.1667 31.5,72.1667 23.5,73.5C 22.2438,73.5386 21.2438,73.0386 20.5,72C 30.8333,71.3333 41.1667,71.3333 51.5,72C 50.4366,73.1882 49.1033,73.6882 47.5,73.5 Z"/></g>
<g><path style="opacity:1" fill="#060806" d="M 68.5,72.5 C 72.6046,76.102 76.6046,79.9353 80.5,84C 81.448,84.4828 82.448,84.6495 83.5,84.5C 84.0084,81.1485 85.3418,78.1485 87.5,75.5C 87.1373,74.8165 86.8039,74.1499 86.5,73.5C 93.9887,72.3443 101.655,72.1777 109.5,73C 108.944,73.3826 108.611,73.8826 108.5,74.5C 102.037,87.4253 95.5373,100.425 89,113.5C 81.1193,107.198 73.7859,100.198 67,92.5C 60.0081,98.3252 53.5081,104.659 47.5,111.5C 45.9557,111.703 44.6223,112.37 43.5,113.5C 42.5224,113.023 41.6891,112.357 41,111.5C 36.0977,98.933 30.9311,86.5997 25.5,74.5C 25.1583,73.6618 24.4916,73.3284 23.5,73.5C 31.5,72.1667 39.5,72.1667 47.5,73.5C 46.9033,73.7352 46.5699,74.2352 46.5,75C 47.6621,78.1469 48.6621,81.3136 49.5,84.5C 55.2113,80.9717 60.5447,76.805 65.5,72C 66.7494,71.2599 67.7494,71.4265 68.5,72.5 Z"/></g>
<g><path style="opacity:1" fill="#040705" d="M 155.5,78.5 C 154.833,78.5 154.167,78.5 153.5,78.5C 148.695,77.5128 143.695,77.1795 138.5,77.5C 138.5,80.1667 138.5,82.8333 138.5,85.5C 143.651,86.3267 148.984,86.8267 154.5,87C 149.134,89.2833 143.468,90.1167 137.5,89.5C 137.177,95.69 137.51,101.69 138.5,107.5C 138.5,108.167 138.833,108.5 139.5,108.5C 132.5,109.833 125.5,109.833 118.5,108.5C 120.453,102.926 121.12,96.9262 120.5,90.5C 118.585,90.7845 116.919,90.4511 115.5,89.5C 119.052,85.3012 120.385,80.3012 119.5,74.5C 119.389,73.8826 119.056,73.3826 118.5,73C 131.496,72.5001 144.496,72.3334 157.5,72.5C 157.975,75.0821 157.308,77.0821 155.5,78.5 Z"/></g>
<g><path style="opacity:1" fill="#98b79e" d="M 159.5,68.5 C 172.427,76.0299 175.927,86.6965 170,100.5C 167.332,104.334 164.165,107.667 160.5,110.5C 159.957,110.44 159.624,110.107 159.5,109.5C 162.814,105.552 165.981,100.885 169,95.5C 169.124,90.2035 168.957,84.8702 168.5,79.5C 167.5,79.5 166.5,79.5 165.5,79.5C 165.57,75.6282 163.737,73.2949 160,72.5C 159.814,75.0356 159.314,77.369 158.5,79.5C 158.5,76.8333 158.5,74.1667 158.5,71.5C 144.163,71.3334 129.829,71.5001 115.5,72C 116.471,73.4813 117.804,74.3146 119.5,74.5C 120.385,80.3012 119.052,85.3012 115.5,89.5C 114.243,90.6226 114.576,91.2893 116.5,91.5C 114.335,92.9355 112.835,92.2688 112,89.5C 111.734,85.0072 110.901,80.6739 109.5,76.5C 113.806,75.9342 114.139,75.2675 110.5,74.5C 111.091,73.8485 111.757,73.1818 112.5,72.5C 102.851,71.3345 93.1839,71.1679 83.5,72C 84.2438,73.0386 85.2438,73.5386 86.5,73.5C 86.8039,74.1499 87.1373,74.8165 87.5,75.5C 85.3418,78.1485 84.0084,81.1485 83.5,84.5C 82.448,84.6495 81.448,84.4828 80.5,84C 76.6046,79.9353 72.6046,76.102 68.5,72.5C 69.4959,72.4142 70.3292,72.7476 71,73.5C 71.3879,72.572 72.0546,71.9054 73,71.5C 74.5,72 76,72.5 77.5,73C 76.2888,73.8928 76.2888,74.7261 77.5,75.5C 79.3031,74.8632 80.6364,73.6965 81.5,72C 79.6063,70.9207 79.273,69.5874 80.5,68C 85.533,67.1711 90.533,67.3377 95.5,68.5C 91.8776,69.3253 88.211,69.8253 84.5,70C 97,70.1667 109.5,70.3333 122,70.5C 134.852,70.4991 147.352,69.8325 159.5,68.5 Z"/></g>
<g><path style="opacity:1" fill="#485a4b" d="M 158.5,79.5 C 157.209,79.7373 156.209,79.404 155.5,78.5C 157.308,77.0821 157.975,75.0821 157.5,72.5C 144.496,72.3334 131.496,72.5001 118.5,73C 119.056,73.3826 119.389,73.8826 119.5,74.5C 117.804,74.3146 116.471,73.4813 115.5,72C 129.829,71.5001 144.163,71.3334 158.5,71.5C 158.5,74.1667 158.5,76.8333 158.5,79.5 Z"/></g>
<g><path style="opacity:1" fill="#3a4e3c" d="M 110.5,74.5 C 109.833,74.5 109.167,74.5 108.5,74.5C 108.611,73.8826 108.944,73.3826 109.5,73C 101.655,72.1777 93.9887,72.3443 86.5,73.5C 85.2438,73.5386 84.2438,73.0386 83.5,72C 93.1839,71.1679 102.851,71.3345 112.5,72.5C 111.757,73.1818 111.091,73.8485 110.5,74.5 Z"/></g>
<g><path style="opacity:1" fill="#2b372e" d="M 147.5,61.5 C 147.842,60.6618 148.508,60.3284 149.5,60.5C 159.25,64.4123 167.083,70.7457 173,79.5C 177.013,95.3094 171.847,107.143 157.5,115C 154.447,116.527 151.447,118.027 148.5,119.5C 145.843,119.935 143.509,120.935 141.5,122.5C 136.821,123.836 132.155,125.169 127.5,126.5C 127.5,125.833 127.5,125.167 127.5,124.5C 139.439,121.752 150.439,117.085 160.5,110.5C 164.165,107.667 167.332,104.334 170,100.5C 175.927,86.6965 172.427,76.0299 159.5,68.5C 155.864,65.677 151.864,63.3437 147.5,61.5 Z"/></g>
<g><path style="opacity:1" fill="#99bd9e" d="M 160.5,110.5 C 150.439,117.085 139.439,121.752 127.5,124.5C 111.68,127.81 95.6798,129.144 79.5,128.5C 74.1667,128.167 68.8333,127.833 63.5,127.5C 63.5,127.167 63.5,126.833 63.5,126.5C 63.5299,125.503 63.0299,124.836 62,124.5C 56.5517,123.096 51.0517,121.93 45.5,121C 40.1114,119.07 40.2781,117.57 46,116.5C 47,117.167 48,117.833 49,118.5C 53.7812,117.581 58.6145,117.248 63.5,117.5C 63.5,116.5 63.5,115.5 63.5,114.5C 57.6479,114.519 51.8146,114.853 46,115.5C 45.7003,113.934 46.2003,112.601 47.5,111.5C 53.5081,104.659 60.0081,98.3252 67,92.5C 73.7859,100.198 81.1193,107.198 89,113.5C 95.5373,100.425 102.037,87.4253 108.5,74.5C 109.167,74.5 109.833,74.5 110.5,74.5C 114.139,75.2675 113.806,75.9342 109.5,76.5C 110.901,80.6739 111.734,85.0072 112,89.5C 112.835,92.2688 114.335,92.9355 116.5,91.5C 117.5,91.5 118.5,91.5 119.5,91.5C 119.786,97.2586 119.452,102.925 118.5,108.5C 118.167,108.5 117.833,108.5 117.5,108.5C 116.005,108.415 115.005,109.081 114.5,110.5C 124.144,111.498 133.81,111.832 143.5,111.5C 143.715,109.821 143.048,108.821 141.5,108.5C 141.167,108.5 140.833,108.5 140.5,108.5C 139.548,102.925 139.214,97.2586 139.5,91.5C 144.032,91.8182 148.366,91.4849 152.5,90.5C 153.922,89.075 155.589,88.075 157.5,87.5C 158.478,87.189 159.145,86.5223 159.5,85.5C 152.866,84.5033 146.2,84.17 139.5,84.5C 139.5,82.5 139.5,80.5 139.5,78.5C 144.167,78.5 148.833,78.5 153.5,78.5C 154.167,78.5 154.833,78.5 155.5,78.5C 156.209,79.404 157.209,79.7373 158.5,79.5C 159.314,77.369 159.814,75.0356 160,72.5C 163.737,73.2949 165.57,75.6282 165.5,79.5C 166.5,79.5 167.5,79.5 168.5,79.5C 168.957,84.8702 169.124,90.2035 169,95.5C 165.981,100.885 162.814,105.552 159.5,109.5C 159.624,110.107 159.957,110.44 160.5,110.5 Z"/></g>
<g><path style="opacity:1" fill="#667b6b" d="M 152.5,90.5 C 148.366,91.4849 144.032,91.8182 139.5,91.5C 139.214,97.2586 139.548,102.925 140.5,108.5C 140.167,108.5 139.833,108.5 139.5,108.5C 138.833,108.5 138.5,108.167 138.5,107.5C 138.5,101.833 138.5,96.1667 138.5,90.5C 143.167,90.5 147.833,90.5 152.5,90.5 Z"/></g>
<g><path style="opacity:1" fill="#263528" d="M 115.5,89.5 C 116.919,90.4511 118.585,90.7845 120.5,90.5C 121.12,96.9262 120.453,102.926 118.5,108.5C 119.452,102.925 119.786,97.2586 119.5,91.5C 118.5,91.5 117.5,91.5 116.5,91.5C 114.576,91.2893 114.243,90.6226 115.5,89.5 Z"/></g>
<g><path style="opacity:1" fill="#1a251d" d="M 138.5,85.5 C 145.255,84.8771 151.588,85.5437 157.5,87.5C 155.589,88.075 153.922,89.075 152.5,90.5C 147.833,90.5 143.167,90.5 138.5,90.5C 138.5,96.1667 138.5,101.833 138.5,107.5C 137.51,101.69 137.177,95.69 137.5,89.5C 143.468,90.1167 149.134,89.2833 154.5,87C 148.984,86.8267 143.651,86.3267 138.5,85.5 Z"/></g>
<g><path style="opacity:1" fill="#7f9284" d="M 153.5,78.5 C 148.833,78.5 144.167,78.5 139.5,78.5C 139.5,80.5 139.5,82.5 139.5,84.5C 146.2,84.17 152.866,84.5033 159.5,85.5C 159.145,86.5223 158.478,87.189 157.5,87.5C 151.588,85.5437 145.255,84.8771 138.5,85.5C 138.5,82.8333 138.5,80.1667 138.5,77.5C 143.695,77.1795 148.695,77.5128 153.5,78.5 Z"/></g>
<g><path style="opacity:1" fill="#869489" d="M 117.5,108.5 C 117.389,109.117 117.056,109.617 116.5,110C 125.167,110.667 133.833,110.667 142.5,110C 141.944,109.617 141.611,109.117 141.5,108.5C 143.048,108.821 143.715,109.821 143.5,111.5C 133.81,111.832 124.144,111.498 114.5,110.5C 115.005,109.081 116.005,108.415 117.5,108.5 Z"/></g>
<g><path style="opacity:1" fill="#26312a" d="M 117.5,108.5 C 117.833,108.5 118.167,108.5 118.5,108.5C 125.5,109.833 132.5,109.833 139.5,108.5C 139.833,108.5 140.167,108.5 140.5,108.5C 140.833,108.5 141.167,108.5 141.5,108.5C 141.611,109.117 141.944,109.617 142.5,110C 133.833,110.667 125.167,110.667 116.5,110C 117.056,109.617 117.389,109.117 117.5,108.5 Z"/></g>
<g><path style="opacity:1" fill="#9cbaa2" d="M 25.5,74.5 C 30.9311,86.5997 36.0977,98.933 41,111.5C 41.6891,112.357 42.5224,113.023 43.5,113.5C 44.6223,112.37 45.9557,111.703 47.5,111.5C 46.2003,112.601 45.7003,113.934 46,115.5C 51.8146,114.853 57.6479,114.519 63.5,114.5C 63.5,115.5 63.5,116.5 63.5,117.5C 58.6145,117.248 53.7812,117.581 49,118.5C 48,117.833 47,117.167 46,116.5C 40.2781,117.57 40.1114,119.07 45.5,121C 51.0517,121.93 56.5517,123.096 62,124.5C 63.0299,124.836 63.5299,125.503 63.5,126.5C 53.8427,125.33 44.5094,122.997 35.5,119.5C 25.4877,115.656 16.9877,109.656 10,101.5C 6.02926,95.0037 5.52926,88.337 8.5,81.5C 7.86447,88.2378 9.03113,94.5711 12,100.5C 14.9486,101.122 17.9486,102.456 21,104.5C 21.3333,104.167 21.6667,103.833 22,103.5C 23.2985,106.006 24.2985,108.673 25,111.5C 27.4385,113.207 30.1052,114.541 33,115.5C 37.8592,114.518 38.3592,112.852 34.5,110.5C 34.8457,109.304 35.3457,109.304 36,110.5C 34.7752,102.397 32.7752,94.397 30,86.5C 29,86.1667 28,85.8333 27,85.5C 26.5045,83.5273 26.3379,81.5273 26.5,79.5C 24.8333,79.5 23.1667,79.5 21.5,79.5C 21.3118,77.8967 21.8118,76.5634 23,75.5C 24.9076,78.3323 25.741,77.999 25.5,74.5 Z"/></g>
<g><path style="opacity:1" fill="#a9b1ac" d="M 148.5,119.5 C 146.824,121.834 144.491,122.834 141.5,122.5C 143.509,120.935 145.843,119.935 148.5,119.5 Z"/></g>
<g><path style="opacity:1" fill="#465347" d="M 35.5,119.5 C 44.5094,122.997 53.8427,125.33 63.5,126.5C 63.5,126.833 63.5,127.167 63.5,127.5C 63.5,127.833 63.5,128.167 63.5,128.5C 52.7649,127.949 42.7649,125.282 33.5,120.5C 34.4916,120.672 35.1583,120.338 35.5,119.5 Z"/></g>
<g><path style="opacity:1" fill="#455548" d="M 127.5,124.5 C 127.5,125.167 127.5,125.833 127.5,126.5C 119.756,128.616 111.756,129.949 103.5,130.5C 95.5,129.833 87.5,129.167 79.5,128.5C 95.6798,129.144 111.68,127.81 127.5,124.5 Z"/></g>
<g><path style="opacity:1" fill="#343c37" d="M 63.5,127.5 C 68.8333,127.833 74.1667,128.167 79.5,128.5C 87.5,129.167 95.5,129.833 103.5,130.5C 101.5,130.5 99.5,130.5 97.5,130.5C 91.5,130.5 85.5,130.5 79.5,130.5C 73.9494,130.473 68.6161,129.806 63.5,128.5C 63.5,128.167 63.5,127.833 63.5,127.5 Z"/></g>
<g><path style="opacity:1" fill="#b3b5b0" d="M 79.5,130.5 C 85.5,130.5 91.5,130.5 97.5,130.5C 97.0825,131.222 96.4158,131.722 95.5,132C 92.8333,132.167 90.1667,132.333 87.5,132.5C 84.4098,132.478 81.7432,131.812 79.5,130.5 Z"/></g>
</svg>
