<?xml version="1.0" encoding="UTF-8"?>
<svg version="1.1" xmlns="http://www.w3.org/2000/svg" width="512" height="512">
<path d="M0 0 C168.96 0 337.92 0 512 0 C512 168.96 512 337.92 512 512 C343.04 512 174.08 512 0 512 C0 343.04 0 174.08 0 0 Z " fill="#731CEC" transform="translate(0,0)"/>
<path d="M0 0 C1.11375 0.886875 2.2275 1.77375 3.375 2.6875 C10.74359723 8.12774683 18.13894665 11.24538101 26.9375 13.625 C27.64495361 13.81908447 28.35240723 14.01316895 29.08129883 14.21313477 C37.98452855 16.48345353 46.837491 17.55328805 56 19 C56.33 46.72 56.66 74.44 57 103 C68.77784333 93.78780816 68.77784333 93.78780816 80 84 C84.91662702 85.52137138 88.10659796 88.39849276 91.875 91.75 C92.46152344 92.26304687 93.04804688 92.77609375 93.65234375 93.3046875 C94.77079357 94.28302382 95.88687104 95.26408553 96.99951172 96.24902344 C99.97880343 98.85672177 102.99385489 101.4233042 106 104 C106.495 61.925 106.495 61.925 107 19 C109.7875039 18.07083203 111.72914982 17.84439591 114.625 17.6875 C130.90105127 16.27219119 150.35407056 11.9645111 162 0 C162.33 0 162.66 0 163 0 C163 5.61 163 11.22 163 17 C164.44358887 16.98952637 165.88717773 16.97905273 167.37451172 16.96826172 C172.71563246 16.9321407 178.05674234 16.90912835 183.39794922 16.89013672 C185.71242079 16.88006108 188.02687959 16.86640025 190.34130859 16.84912109 C193.66246693 16.82494135 196.9834574 16.8135327 200.3046875 16.8046875 C201.34430634 16.79436493 202.38392517 16.78404236 203.45504761 16.77340698 C204.41589264 16.77325592 205.37673767 16.77310486 206.36669922 16.77294922 C207.63910965 16.76628738 207.63910965 16.76628738 208.93722534 16.75949097 C211 17 211 17 213 19 C213.23061788 21.95909693 213.33220852 24.79029404 213.3125 27.75 C213.30758545 28.60674316 213.3026709 29.46348633 213.29760742 30.34619141 C212.939945 49.99011223 205.6826502 67.11997914 193 82 C182.04816703 92.05959099 165.17972158 104.24687305 149.67578125 105.1328125 C141.92682619 105.70680917 138.65275801 110.08108474 133.81518555 115.61474609 C125.43045587 125.19975641 113.46392405 132.88401899 101 136 C100.67 139.3 100.34 142.6 100 146 C101.051875 145.95875 102.10375 145.9175 103.1875 145.875 C115.27206022 145.9388269 130.04888936 148.21343183 139 157 C139 158.32 139 159.64 139 161 C139.90878906 161.12955078 139.90878906 161.12955078 140.8359375 161.26171875 C149.1183802 162.65062068 157.51462132 165.29070458 163 172 C163.72521946 176.10703233 163.61668941 180.19630241 163.57641602 184.36230469 C163.56259421 186.36137496 163.59851307 188.36058568 163.63476562 190.359375 C163.61839477 201.12048302 163.61839477 201.12048302 160.79296875 204.74609375 C158.13819892 206.88847444 155.88998646 208.37917231 152.75 209.6875 C151.44289063 210.25017578 151.44289063 210.25017578 150.109375 210.82421875 C142.40467242 213.73768041 134.94517301 215.7577046 126.8125 217.125 C125.87341797 217.29386719 124.93433594 217.46273437 123.96679688 217.63671875 C110.21366982 220.0018469 96.41404587 220.20768779 82.5 220.1875 C81.66339844 220.18656342 80.82679688 220.18562683 79.96484375 220.18466187 C20.53452049 220.04076449 20.53452049 220.04076449 3.27734375 204.3671875 C-0.52092524 200.30176198 0.61826809 194.00846926 0.54003906 188.78857422 C0.51347991 187.43632494 0.47260397 186.08427644 0.41699219 184.73291016 C-0.03448908 173.6226632 -0.03448908 173.6226632 2.3762207 169.84130859 C4.17158734 168.23358417 5.86368084 167.10736058 8 166 C9.04542969 165.44570313 10.09085938 164.89140625 11.16796875 164.3203125 C12.16441406 163.92585937 13.16085938 163.53140625 14.1875 163.125 C15.19167969 162.71507812 16.19585937 162.30515625 17.23046875 161.8828125 C20 161 20 161 24 161 C24.226875 160.2575 24.45375 159.515 24.6875 158.75 C26.60796723 154.72616389 28.93828317 152.7830741 33.12890625 151.19140625 C35.73654816 150.38358139 38.35691072 149.68279807 41 149 C41.99 148.71898437 42.98 148.43796875 44 148.1484375 C50.19963812 146.45618934 55.57822858 145.67891143 62 146 C62 142.37 62 138.74 62 135 C60.99195313 134.90332031 59.98390625 134.80664062 58.9453125 134.70703125 C54.88677863 134.11690289 51.46495829 132.62334609 47.875 130.6875 C47.23191895 130.34283691 46.58883789 129.99817383 45.92626953 129.64306641 C36.51341869 124.32537189 28.58799705 116.51854564 22 108 C22 107.34 22 106.68 22 106 C21.01 106.04125 20.02 106.0825 19 106.125 C0.60384098 106.08805992 -17.28137912 94.28542534 -30 82 C-45.01558467 66.60266318 -50.41763984 46.82996455 -50.29296875 25.91015625 C-50.15411377 18.15411377 -50.15411377 18.15411377 -49 17 C-47.4651703 16.90680551 -45.92607918 16.882542 -44.38842773 16.88647461 C-43.40748642 16.88655014 -42.4265451 16.88662567 -41.4158783 16.88670349 C-40.3492244 16.89186478 -39.2825705 16.89702606 -38.18359375 16.90234375 C-37.0974025 16.9037587 -36.01121124 16.90517365 -34.8921051 16.90663147 C-31.40720925 16.91224952 -27.92237658 16.92480508 -24.4375 16.9375 C-22.08138113 16.94251267 -19.72526126 16.94707598 -17.36914062 16.95117188 C-11.57940257 16.96222482 -5.78971201 16.97950154 0 17 C0 11.39 0 5.78 0 0 Z " fill="#FEFDFE" transform="translate(174,92)"/>
<path d="M0 0 C0.33 0 0.66 0 1 0 C1 5.61 1 11.22 1 17 C2.44358887 16.98952637 3.88717773 16.97905273 5.37451172 16.96826172 C10.71563246 16.9321407 16.05674234 16.90912835 21.39794922 16.89013672 C23.71242079 16.88006108 26.02687959 16.86640025 28.34130859 16.84912109 C31.66246693 16.82494135 34.9834574 16.8135327 38.3046875 16.8046875 C39.34430634 16.79436493 40.38392517 16.78404236 41.45504761 16.77340698 C42.41589264 16.77325592 43.37673767 16.77310486 44.36669922 16.77294922 C45.63910965 16.76628738 45.63910965 16.76628738 46.93722534 16.75949097 C49 17 49 17 51 19 C51.23061788 21.95909693 51.33220852 24.79029404 51.3125 27.75 C51.30512817 29.03511475 51.30512817 29.03511475 51.29760742 30.34619141 C50.939945 49.99011223 43.6826502 67.11997914 31 82 C20.04816703 92.05959099 3.17972158 104.24687305 -12.32421875 105.1328125 C-20.07317381 105.70680917 -23.34724199 110.08108474 -28.18481445 115.61474609 C-36.39440321 124.99954393 -49.35153343 134.14900489 -62 136 C-61 133 -61 133 -59.4375 132 C-57.4499046 131.18457624 -55.41660606 130.48130198 -53.375 129.8125 C-35.82345592 123.20638378 -21.12316952 104.40539484 -13.0378418 88.05419922 C-12.31565575 86.3874074 -11.65495433 84.69433836 -11 83 C-10.63777344 82.10796875 -10.27554688 81.2159375 -9.90234375 80.296875 C-7.48636689 73.91947859 -6.05776928 67.72364233 -5 61 C-4.67422355 59.33183976 -4.34308076 57.6646875 -4 56 C-3.34 56 -2.68 56 -2 56 C-2.00444122 55.32792511 -2.00888245 54.65585022 -2.01345825 53.96340942 C-2.05759634 46.98848592 -2.08782667 40.01360187 -2.10986328 33.03857422 C-2.11994064 30.43308909 -2.1336027 27.82761531 -2.15087891 25.22216797 C-2.17505102 21.48402101 -2.1864656 17.74602315 -2.1953125 14.0078125 C-2.20563507 12.83695099 -2.21595764 11.66608948 -2.22659302 10.45974731 C-2.22681961 8.838293 -2.22681961 8.838293 -2.22705078 7.18408203 C-2.231492 6.22921906 -2.23593323 5.27435608 -2.24050903 4.29055786 C-2 2 -2 2 0 0 Z " fill="#FDFCFE" transform="translate(336,92)"/>
<path d="M0 0 C2.71342616 2.71342616 2.94040005 5.61044313 3.625 9.25 C3.82609375 10.23419922 3.82609375 10.23419922 4.03125 11.23828125 C5.00914726 16.25748859 5.37721922 20.83098951 4.5 25.875 C3.17344926 34.16594212 4.33152398 42.68525713 5 51 C5.08378906 52.04671875 5.16757813 53.0934375 5.25390625 54.171875 C5.68931716 59.41398082 5.68931716 59.41398082 6.52734375 64.6015625 C7.08637544 67.4383018 7.06706729 70.11610646 7 73 C7.66 73 8.32 73 9 73 C9.14695313 73.95519531 9.29390625 74.91039062 9.4453125 75.89453125 C10.80482416 83.73125654 12.49872525 89.93820564 16.6953125 96.828125 C18 99 18 99 19 102 C19.66 102 20.32 102 21 102 C20.505 103.98 20.505 103.98 20 106 C-1.51897564 104.27848195 -20.32919674 93.49939774 -34.3125 77.3125 C-47.61419288 59.56753551 -51.84883478 39.87745316 -50 18 C-49 17 -49 17 -47.01951599 16.87974548 C-46.15125687 16.88196609 -45.28299774 16.88418671 -44.38842773 16.88647461 C-43.40748642 16.88655014 -42.4265451 16.88662567 -41.4158783 16.88670349 C-40.3492244 16.89186478 -39.2825705 16.89702606 -38.18359375 16.90234375 C-37.0974025 16.9037587 -36.01121124 16.90517365 -34.8921051 16.90663147 C-31.40720925 16.91224952 -27.92237658 16.92480508 -24.4375 16.9375 C-22.08138113 16.94251267 -19.72526126 16.94707598 -17.36914062 16.95117188 C-11.57940257 16.96222482 -5.78971201 16.97950154 0 17 C0 11.39 0 5.78 0 0 Z " fill="#FCFBFE" transform="translate(174,92)"/>
<path d="M0 0 C16.83 0 33.66 0 51 0 C51 28.38 51 56.76 51 86 C45.08673059 81.56504795 39.50832663 77.06210693 34.02539062 72.1484375 C30.83025943 69.34781082 28.13918229 67.27839152 24 66 C23.39414063 66.556875 22.78828125 67.11375 22.1640625 67.6875 C6.99625468 81.50187266 6.99625468 81.50187266 0 85 C0 56.95 0 28.9 0 0 Z " fill="#BA8FF8" transform="translate(230,111)"/>
<path d="M0 0 C0.66 0.66 1.32 1.32 2 2 C2.33 1.01 2.66 0.02 3 -1 C8.94 -1 14.88 -1 21 -1 C21 15.83 21 32.66 21 50 C15.06 50 9.12 50 3 50 C2.67 49.01 2.34 48.02 2 47 C1.27296875 47.54140625 1.27296875 47.54140625 0.53125 48.09375 C-4.27724071 51.42270511 -8.0709304 53.01609291 -14 52 C-20.90130368 50.45984534 -26.40976785 47.92395602 -30.44140625 41.81640625 C-35.16395319 33.62258549 -35.87100194 26.46830348 -35 17 C-32.78043726 9.07453695 -27.60061449 3.68960177 -21 -1 C-13.8625774 -4.42596285 -6.90270386 -3.45928607 0 0 Z " fill="#FCFBFE" transform="translate(184,386)"/>
<path d="M0 0 C5.94 0 11.88 0 18 0 C18 8.91 18 17.82 18 27 C20.64 25.35 23.28 23.7 26 22 C31.52359796 20.91283708 36.424957 21.24060427 41.5 23.6875 C45.87157466 27.73120656 49.62809271 31.78023191 50.17193604 37.95083618 C50.23111564 40.30973009 50.22475342 42.66007837 50.1953125 45.01953125 C50.1924826 45.87810226 50.18965271 46.73667328 50.18673706 47.6212616 C50.1755807 50.35181875 50.15048459 53.0820427 50.125 55.8125 C50.11496432 57.66861504 50.1058395 59.52473524 50.09765625 61.38085938 C50.07736146 65.92080322 50.03820451 70.46003052 50 75 C43.73 75 37.46 75 31 75 C30.93941406 72.64101563 30.87882812 70.28203125 30.81640625 67.8515625 C30.75462856 65.57125605 30.69123603 63.29099984 30.62768555 61.01074219 C30.58432759 59.42387343 30.54265313 57.83695776 30.50268555 56.25 C30.44500368 53.97121021 30.38130362 51.69265678 30.31640625 49.4140625 C30.29969376 48.70255035 30.28298126 47.99103821 30.26576233 47.25796509 C30.20278063 43.50339183 30.20278063 43.50339183 29 40 C25.62563814 39.66619186 25.62563814 39.66619186 22 40 C19.45569537 42.34791371 19.01983048 43.84865681 18.56762695 47.29980469 C18.54144287 48.57758789 18.51525879 49.85537109 18.48828125 51.171875 C18.47033005 51.8542926 18.45237885 52.53671021 18.43388367 53.23980713 C18.37989617 55.4098094 18.34592417 57.57959325 18.3125 59.75 C18.27931648 61.22529074 18.24482585 62.70055269 18.20898438 64.17578125 C18.12172431 67.7838835 18.06156525 71.39100249 18 75 C12.06 75 6.12 75 0 75 C0 50.25 0 25.5 0 0 Z " fill="#FCFBFE" transform="translate(211,362)"/>
<path d="M0 0 C4.87318174 3.69560055 8.23138168 9.16289504 10.14453125 14.90234375 C10.95149659 25.19445913 10.06460491 32.89786632 3.83203125 41.21484375 C-1.62742071 46.67429571 -8.32999258 49.90109647 -16.10546875 50.21484375 C-24.56521557 49.95891864 -31.0322681 47.610298 -37.16796875 41.734375 C-43.31827047 35.05731132 -45.35009147 28.94266087 -45.1640625 20.03515625 C-44.41319556 12.4124311 -41.43660403 6.52068 -35.7890625 1.37109375 C-24.65015363 -7.08997642 -11.96868092 -7.08041966 0 0 Z " fill="#FCFAFE" transform="translate(367.85546875,388.09765625)"/>
<path d="M0 0 C5.62880238 3.71802164 10.35734627 8.31715407 12 15 C13.04130349 24.43123451 12.93186988 33.11091418 7 41 C2.04737485 46.78225272 -4.81262625 50.22407351 -12.32421875 51.34765625 C-20.36132501 51.67026261 -27.73162442 48.98620785 -34 44 C-39.87469304 38.2651806 -43.08188864 30.60746852 -43.5 22.375 C-43.06886551 14.57285649 -39.13558447 8.34247506 -33.93359375 2.7265625 C-24.05521537 -6.09413092 -11.34141393 -5.67070696 0 0 Z " fill="#FCFAFE" transform="translate(307,387)"/>
<path d="M0 0 C1.17308716 0.28266724 1.17308716 0.28266724 2.36987305 0.57104492 C7.760723 1.9993405 12.78673403 4.01079642 17.0625 7.6875 C18.375 11.1875 18.375 11.1875 18.0625 14.6875 C14.88317892 19.05906649 11.18831204 21.12369294 6.0625 22.6875 C1.92644105 22.49054481 -1.44960722 21.81818557 -5.4375 20.75 C-27.94642208 15.0693802 -53.22069507 16.21270437 -75.80078125 20.71484375 C-89.18702298 23.32781182 -89.18702298 23.32781182 -94.06640625 21.54296875 C-94.86949219 20.99253906 -95.67257813 20.44210938 -96.5 19.875 C-97.32628906 19.33230469 -98.15257812 18.78960937 -99.00390625 18.23046875 C-101.50766301 16.23252143 -101.85253599 15.06134164 -102.5625 11.9375 C-101.82070647 8.08017365 -101.17142296 7.69485582 -98.0625 5.5 C-71.61711818 -10.21985545 -28.38571143 -7.00447875 0 0 Z " fill="#B98DF7" transform="translate(297.9375,74.3125)"/>
<path d="M0 0 C6.6 0 13.2 0 20 0 C22.80931631 6.69278296 25.58979319 13.39653732 28.3125 20.125 C28.57885254 20.77605713 28.84520508 21.42711426 29.11962891 22.09790039 C31 26.76919654 31 26.76919654 31 29 C31.66 29 32.32 29 33 29 C33.09539062 28.34773438 33.19078125 27.69546875 33.2890625 27.0234375 C34.22887955 23.02663311 35.77823121 19.39918077 37.375 15.625 C37.67921875 14.89539063 37.9834375 14.16578125 38.296875 13.4140625 C40.17033425 8.93057028 42.08578709 4.46649678 44 0 C50.27 0 56.54 0 63 0 C59.62469229 10.12592312 59.62469229 10.12592312 58.24169922 13.45214844 C57.93034531 14.20517746 57.61899139 14.95820648 57.29820251 15.73405457 C56.97034256 16.51791031 56.6424826 17.30176605 56.3046875 18.109375 C55.95543716 18.95111771 55.60618683 19.79286041 55.24635315 20.66011047 C54.12578379 23.35809061 53.00057258 26.05410381 51.875 28.75 C51.1054052 30.5994677 50.33595567 32.44899584 49.56665039 34.29858398 C44.4579802 46.56765224 39.28163598 58.80422237 34 71 C27.73 71 21.46 71 15 71 C16.03449278 65.82753611 17.82314226 61.7791844 20.0390625 57.03515625 C21.95935591 50.96983926 19.24271831 45.71750267 16.796875 40.14453125 C16.31737396 39.03110603 16.31737396 39.03110603 15.82818604 37.89518738 C14.80833571 35.53154832 13.77921883 33.17207232 12.75 30.8125 C12.07363083 29.24699867 11.39784426 27.68124549 10.72265625 26.11523438 C7.51421827 18.69104673 4.26721846 11.29336316 0.82128906 3.9753418 C0 2 0 2 0 0 Z " fill="#FCFBFE" transform="translate(89,385)"/>
<path d="M0 0 C11.22 0 22.44 0 34 0 C34.226875 3.5475 34.45375 7.095 34.6875 10.75 C35.55324417 22.24550846 37.76522563 32.95968878 41 44 C41.32742187 45.14210937 41.65484375 46.28421875 41.9921875 47.4609375 C42.63556143 49.64840888 43.31164977 51.82626243 44 54 C29.63089801 52.09259708 19.05176447 42.26400533 10.0625 31.5625 C6.33727942 26.51073746 4.11626991 20.87324347 2 15 C1.43732422 13.61361328 1.43732422 13.61361328 0.86328125 12.19921875 C0 9 0 9 0 0 Z " fill="#7924F3" transform="translate(140,125)"/>
<path d="M0 0 C11.22 0 22.44 0 34 0 C32.75481295 14.94224461 29.55989425 24.55682452 20 36 C19.40574219 36.71929687 18.81148438 37.43859375 18.19921875 38.1796875 C11.05591933 46.0419057 1.23748618 51.41780603 -9 54 C-8.81824219 53.42894531 -8.63648438 52.85789063 -8.44921875 52.26953125 C-4.59197221 39.82743858 -2.42935584 27.64372357 -1.3125 14.6875 C-0.879375 9.840625 -0.44625 4.99375 0 0 Z " fill="#751FED" transform="translate(337,125)"/>
<path d="M0 0 C7.26 0 14.52 0 22 0 C16.2588449 15.91120129 9.5927076 31.42790727 3 47 C-4.26 47 -11.52 47 -19 47 C-12.74387162 31.30090539 -6.41896041 15.63327454 0 0 Z " fill="#FDFCFE" transform="translate(407,362)"/>
<path d="M0 0 C3 1 3 1 4.78515625 2.90234375 C18.00481648 15.42255106 47.72432583 13.51752024 64.24609375 13.21875 C81.98102998 12.72050766 100.53598616 11.50076667 116 2 C116.495 3.98 116.495 3.98 117 6 C111.54067865 10.92670463 106.31990018 13.68617176 99 15 C98.08347656 15.31839844 97.16695313 15.63679688 96.22265625 15.96484375 C90.61821605 17.76505788 84.82894252 18.31921993 79 19 C78.15711426 19.09845215 77.31422852 19.1969043 76.44580078 19.29833984 C62.55936886 20.86451622 48.97847259 22.04010062 35.26171875 18.5390625 C31.41580768 17.62242048 27.50582785 17.07520048 23.6015625 16.46484375 C21 16 21 16 18 15 C18 14.34 18 13.68 18 13 C16.02 13 14.04 13 12 13 C12 12.34 12 11.68 12 11 C11.36191406 10.79503906 10.72382813 10.59007812 10.06640625 10.37890625 C9.24011719 10.10949219 8.41382813 9.84007812 7.5625 9.5625 C6.73878906 9.29566406 5.91507813 9.02882813 5.06640625 8.75390625 C3 8 3 8 2 7 C1.95936168 5.33382885 1.957279 3.66611905 2 2 C1.34 2 0.68 2 0 2 C0 1.34 0 0.68 0 0 Z " fill="#E4DAFB" transform="translate(197,267)"/>
<path d="M0 0 C0.33 0 0.66 0 1 0 C1 10.56 1 21.12 1 32 C12.22 32 23.44 32 35 32 C35 32.33 35 32.66 35 33 C23.78 33 12.56 33 1 33 C1 36.96 1 40.92 1 45 C0.80641514 48.10754643 0.58243575 51.16022421 0.25 54.25 C0.16492188 55.05211914 0.07984375 55.85423828 -0.0078125 56.68066406 C-0.94030841 64.66673546 -2.8019066 72.27232789 -5 80 C-5.31710937 81.21816406 -5.63421875 82.43632812 -5.9609375 83.69140625 C-6.90077115 86.68403445 -7.82224984 88.6646569 -9.625 91.1875 C-11.38950396 93.69428327 -13.11858651 96.18873254 -14.75 98.78515625 C-25.08367643 115.1252821 -40.40014516 131.04447904 -59.91796875 135.6953125 C-60.60503906 135.79585937 -61.29210937 135.89640625 -62 136 C-61 133 -61 133 -59.4375 132 C-57.4499046 131.18457624 -55.41660606 130.48130198 -53.375 129.8125 C-35.82345592 123.20638378 -21.12316952 104.40539484 -13.0378418 88.05419922 C-12.31565575 86.3874074 -11.65495433 84.69433836 -11 83 C-10.63777344 82.10796875 -10.27554688 81.2159375 -9.90234375 80.296875 C-7.48636689 73.91947859 -6.05776928 67.72364233 -5 61 C-4.67422355 59.33183976 -4.34308076 57.6646875 -4 56 C-3.34 56 -2.68 56 -2 56 C-2.00444122 55.32792511 -2.00888245 54.65585022 -2.01345825 53.96340942 C-2.05759634 46.98848592 -2.08782667 40.01360187 -2.10986328 33.03857422 C-2.11994064 30.43308909 -2.1336027 27.82761531 -2.15087891 25.22216797 C-2.17505102 21.48402101 -2.1864656 17.74602315 -2.1953125 14.0078125 C-2.20563507 12.83695099 -2.21595764 11.66608948 -2.22659302 10.45974731 C-2.22681961 8.838293 -2.22681961 8.838293 -2.22705078 7.18408203 C-2.231492 6.22921906 -2.23593323 5.27435608 -2.24050903 4.29055786 C-2 2 -2 2 0 0 Z " fill="#EBE3FC" transform="translate(336,92)"/>
<path d="M0 0 C3.50252011 2.04313673 5.77361702 4.09787233 7 8 C7.480151 12.32135899 7.29173086 14.4668367 5.1875 18.3125 C2.92222769 21.09554884 1.34503374 22.78007194 -2.26953125 23.37109375 C-6.71840499 23.48727018 -9.99151799 23.56508745 -13.5625 20.6875 C-16.42108831 17.53572314 -16.91652834 15.88479957 -17.3125 11.6875 C-16.94227165 7.31880542 -15.74219139 5.36897799 -13 2 C-8.7567553 -0.8288298 -4.98265471 -0.65268001 0 0 Z " fill="#FCFBFE" transform="translate(398,414)"/>
<path d="M0 0 C3.06471302 1.65023009 5.30778907 3.056076 7.375 5.875 C8.69601084 10.36643685 8.48383625 13.10144696 6.25 17.25 C3.29433447 20.86248009 1.70362955 21.69713253 -2.8125 22.5 C-7.41977767 21.77728978 -10.1058716 19.6077491 -13 16 C-14.32819103 11.86785014 -14.29079782 9.84008259 -12.875 5.75 C-9.50675356 0.80990522 -5.94701974 -0.84957425 0 0 Z " fill="#7622EB" transform="translate(180,400)"/>
<path d="M0 0 C3.01333109 1.62256289 5.26132782 3.10074691 7.4375 5.75 C8.32901591 9.31606365 8.03867575 12.5262831 7 16 C4.94124615 19.08813077 3.5283521 20.66221204 -0.15625 21.4765625 C-4.57653582 21.75651394 -6.44542123 21.43904153 -10 18.625 C-13.14673207 14.49491416 -13.26771522 12.31228763 -12.6328125 7.265625 C-10.99314817 1.39522185 -5.85588874 -1.09797914 0 0 Z " fill="#731DE7" transform="translate(295,400)"/>
<path d="M0 0 C2.94685168 1.54724477 5.05957521 3.28894936 7 6 C7.9002828 9.19657373 7.83600809 11.79339362 7 15 C5.2537582 18.05910973 3.20180645 20.39909678 0 22 C-2.94827837 22.40203796 -5.08145963 22.54942715 -7.69140625 20.98828125 C-11.64844625 17.81311422 -12.80817033 15.69449545 -13.375 10.6875 C-12.87765929 5.79698299 -11.42915508 4.42915508 -8 1 C-5.04206277 -0.47896861 -3.29779776 -0.4355582 0 0 Z " fill="#711AE5" transform="translate(354,400)"/>
<path d="M0 0 C2.71342616 2.71342616 2.94040005 5.61044313 3.625 9.25 C3.82609375 10.23419922 3.82609375 10.23419922 4.03125 11.23828125 C5.00914726 16.25748859 5.37721922 20.83098951 4.5 25.875 C3.17344926 34.16594212 4.33152398 42.68525713 5 51 C5.08378906 52.04671875 5.16757813 53.0934375 5.25390625 54.171875 C5.68931716 59.41398082 5.68931716 59.41398082 6.52734375 64.6015625 C7.08637544 67.4383018 7.06706729 70.11610646 7 73 C7.66 73 8.32 73 9 73 C10.26305335 78.07476794 11.27036084 82.72796354 11 88 C9 87 9 87 8.32421875 85.41796875 C6.56772926 79.26486752 4.95671879 73.07504191 3.375 66.875 C3.15674561 66.02832764 2.93849121 65.18165527 2.71362305 64.30932617 C0.01755788 53.55128163 0 44.45062852 0 33 C-11.22 33 -22.44 33 -34 33 C-34 32.67 -34 32.34 -34 32 C-22.78 32 -11.56 32 0 32 C0 21.44 0 10.88 0 0 Z " fill="#ECE5FC" transform="translate(174,92)"/>
<path d="M0 0 C3 1 3 1 4.78515625 2.90234375 C22.34335193 19.53153437 63.14469092 13.29540343 85 13 C84.01 13.33 83.02 13.66 82 14 C82 14.66 82 15.32 82 16 C57.08718722 18.57877544 33.91112047 17.32760143 10 10 C8.73414063 9.65066406 7.46828125 9.30132812 6.1640625 8.94140625 C3 8 3 8 2 7 C1.95936168 5.33382885 1.957279 3.66611905 2 2 C1.34 2 0.68 2 0 2 C0 1.34 0 0.68 0 0 Z " fill="#DACBF9" transform="translate(197,267)"/>
<path d="M0 0 C0.33 0 0.66 0 1 0 C1 10.56 1 21.12 1 32 C12.22 32 23.44 32 35 32 C35 32.33 35 32.66 35 33 C23.78 33 12.56 33 1 33 C1 36.96 1 40.92 1 45 C0.76182428 48.25084525 0.49005819 51.45373825 0.125 54.6875 C0.00705078 55.85249023 0.00705078 55.85249023 -0.11328125 57.04101562 C-0.70005042 62.46186004 -1.71563394 67.70258098 -3 73 C-3.33 73 -3.66 73 -4 73 C-3.85888117 70.24968413 -3.71228835 67.49984582 -3.5625 64.75 C-3.52318359 63.97269531 -3.48386719 63.19539063 -3.44335938 62.39453125 C-3.38051758 61.26337891 -3.38051758 61.26337891 -3.31640625 60.109375 C-3.27974854 59.41811523 -3.24309082 58.72685547 -3.20532227 58.01464844 C-3 56 -3 56 -2.49227905 54.18734741 C-1.93605664 51.71587998 -1.89427557 49.52082573 -1.91821289 46.98779297 C-1.9247438 45.99351288 -1.93127472 44.99923279 -1.93800354 43.974823 C-1.94943893 42.90805328 -1.96087433 41.84128357 -1.97265625 40.7421875 C-1.98529611 38.48567858 -1.99765753 36.22916809 -2.00976562 33.97265625 C-2.03465404 30.4128735 -2.06270385 26.85317194 -2.09594727 23.29345703 C-2.12602643 19.85969503 -2.1438814 16.42603865 -2.16015625 12.9921875 C-2.17361588 11.92136932 -2.1870755 10.85055115 -2.20094299 9.74728394 C-2.20432175 8.75930817 -2.2077005 7.7713324 -2.21118164 6.75341797 C-2.21863907 5.88167938 -2.2260965 5.0099408 -2.23377991 4.11178589 C-2 2 -2 2 0 0 Z " fill="#DAC9F9" transform="translate(336,92)"/>
<path d="M0 0 C2 2 2 2 2.24050903 4.32852173 C2.2338472 5.78746353 2.2338472 5.78746353 2.22705078 7.27587891 C2.22689972 8.3768692 2.22674866 9.4778595 2.22659302 10.61221313 C2.21627045 11.80494843 2.20594788 12.99768372 2.1953125 14.2265625 C2.1924826 15.44451508 2.18965271 16.66246765 2.18673706 17.91732788 C2.17551256 21.81998383 2.15040372 25.72241303 2.125 29.625 C2.11497314 32.26562169 2.10584678 34.90624697 2.09765625 37.546875 C2.07556581 44.0313278 2.04206592 50.5156477 2 57 C1.67 57 1.34 57 1 57 C-0.36481826 48.81109041 0 41.62284794 0 33 C-11.22 33 -22.44 33 -34 33 C-34 32.67 -34 32.34 -34 32 C-22.78 32 -11.56 32 0 32 C0 21.44 0 10.88 0 0 Z " fill="#D1BAFA" transform="translate(174,92)"/>
<path d="M0 0 C6.15701866 0.82516745 12.19701682 2.02417703 18.28125 3.28125 C20.81004335 3.77000838 23.35415044 4.18416446 25.90625 4.53125 C29 5 29 5 30 6 C32.44608998 6.15980437 34.86731058 6.25929447 37.31640625 6.31640625 C38.04746078 6.33718735 38.77851532 6.35796844 39.53172302 6.37937927 C41.87521656 6.44495024 44.21882539 6.50379432 46.5625 6.5625 C48.14779855 6.60567808 49.73308529 6.64929213 51.31835938 6.69335938 C55.21212037 6.8006392 59.10599772 6.9018849 63 7 C63 7.33 63 7.66 63 8 C49.52781192 9.86727922 36.63450628 10.95230732 23.26171875 7.5390625 C19.41580768 6.62242048 15.50582785 6.07520048 11.6015625 5.46484375 C9 5 9 5 6 4 C6 3.34 6 2.68 6 2 C4.02 2 2.04 2 0 2 C0 1.34 0 0.68 0 0 Z " fill="#F0EBFD" transform="translate(209,278)"/>
<path d="M0 0 C0.66 1.32 1.32 2.64 2 4 C-4.90411071 10.10130714 -9.65719081 11.30250786 -18.8125 11.125 C-19.69615234 11.11597656 -20.57980469 11.10695313 -21.49023438 11.09765625 C-23.66027359 11.07419637 -25.83017247 11.03832865 -28 11 C-25.32466194 9.57500206 -22.82098554 8.58525421 -19.8828125 7.8515625 C-19.11066406 7.65046875 -18.33851563 7.449375 -17.54296875 7.2421875 C-15.94018707 6.83307683 -14.33601742 6.42936321 -12.73046875 6.03125 C-7.74980201 4.72185675 -4.11631259 3.11039697 0 0 Z " fill="#DBCEFA" transform="translate(312,269)"/>
<path d="M0 0 C2.56297058 3.84445587 2.28808534 7.00895287 2.265625 11.46484375 C2.26753845 12.29456192 2.2694519 13.12428009 2.27142334 13.97914124 C2.27278389 15.7334117 2.26909653 17.48769226 2.26074219 19.24194336 C2.25005421 21.92389634 2.26063474 24.60517743 2.2734375 27.28710938 C2.27211562 28.99218898 2.26955263 30.69726816 2.265625 32.40234375 C2.26967346 33.20349106 2.27372192 34.00463837 2.27789307 34.83006287 C2.24552452 38.68494421 2.19425413 41.73640107 0 45 C-1.10603488 39.04379737 -0.9317156 33.46802147 -0.5625 27.4375 C-0.45836569 25.60293622 -0.35546809 23.76830175 -0.25390625 21.93359375 C-0.20637207 21.0813623 -0.15883789 20.22913086 -0.10986328 19.35107422 C0.02032103 16.56512989 0.04175759 13.78847906 0 11 C-0.33 11 -0.66 11 -1 11 C-0.67 7.37 -0.34 3.74 0 0 Z " fill="#EEE8FC" transform="translate(333,103)"/>
<path d="M0 0 C3 1 3 1 4.609375 2.859375 C8.0608033 5.94986962 11.87301428 6.90954812 16.25 8.25 C17.09046875 8.518125 17.9309375 8.78625 18.796875 9.0625 C20.86112394 9.71930648 22.93012363 10.36114927 25 11 C25 11.66 25 12.32 25 13 C19.70612045 12.55296128 15.01427061 11.85310001 10 10 C8.741875 9.649375 7.48375 9.29875 6.1875 8.9375 C3 8 3 8 2 7 C1.95936168 5.33382885 1.957279 3.66611905 2 2 C1.34 2 0.68 2 0 2 C0 1.34 0 0.68 0 0 Z " fill="#D9CAF9" transform="translate(197,267)"/>
<path d="M0 0 C2 3 2 3 2 5 C2.99 5.33 3.98 5.66 5 6 C5 9.3 5 12.6 5 16 C5.66 16 6.32 16 7 16 C8.26305335 21.07476794 9.27036084 25.72796354 9 31 C7 30 7 30 6.2890625 28.27734375 C4.71939266 22.74656589 3.24006795 17.19403504 1.8125 11.625 C1.63348145 10.935271 1.45446289 10.24554199 1.27001953 9.53491211 C0.436452 6.21080745 0 3.4555439 0 0 Z " fill="#E3D7FB" transform="translate(176,149)"/>
<path d="M0 0 C3.33333333 1.66666667 6.66666667 3.33333333 10 5 C10 5.66 10 6.32 10 7 C10.99 7 11.98 7 13 7 C13 7.66 13 8.32 13 9 C13.99 9 14.98 9 16 9 C16 9.66 16 10.32 16 11 C16.90492188 11.25523437 16.90492188 11.25523437 17.828125 11.515625 C22.51063372 12.93548248 25.85311149 14.03218406 29 18 C17.71636259 14.67040208 8.23539865 9.5200791 0 1 C0 0.67 0 0.34 0 0 Z " fill="#DECDFA" transform="translate(205,209)"/>
<path d="M0 0 C6.15701866 0.82516745 12.19701682 2.02417703 18.28125 3.28125 C21.85203223 3.97140119 25.39695126 4.51711718 29 5 C29 5.33 29 5.66 29 6 C21.00023956 6.20483028 13.73865554 6.13480153 6 4 C6 3.34 6 2.68 6 2 C4.02 2 2.04 2 0 2 C0 1.34 0 0.68 0 0 Z " fill="#E9E0FC" transform="translate(209,278)"/>
<path d="M0 0 C1.68231485 5.07014888 -0.045196 9.21073019 -2 14 C-6.68049793 22.34024896 -6.68049793 22.34024896 -10 24 C-9.690625 23.29875 -9.38125 22.5975 -9.0625 21.875 C-7.8835798 19.00311527 -7.8835798 19.00311527 -7.5625 15.8125 C-7.376875 14.884375 -7.19125 13.95625 -7 13 C-6.01 12.34 -5.02 11.68 -4 11 C-2.76609844 8.36367029 -2.76609844 8.36367029 -1.8125 5.375 C-1.29623047 3.87066406 -1.29623047 3.87066406 -0.76953125 2.3359375 C-0.51558594 1.56507813 -0.26164062 0.79421875 0 0 Z " fill="#E0D2FA" transform="translate(331,165)"/>
<path d="M0 0 C0.66 0.33 1.32 0.66 2 1 C0.90033225 2.29549899 -0.20491801 3.58626071 -1.3125 4.875 C-1.92738281 5.59429687 -2.54226563 6.31359375 -3.17578125 7.0546875 C-5 9 -5 9 -8 11 C-8.33 10.01 -8.66 9.02 -9 8 C-6.03 5.36 -3.06 2.72 0 0 Z " fill="#E4D8FB" transform="translate(310,202)"/>
<path d="M0 0 C0.66 0.66 1.32 1.32 2 2 C-1.56430755 5.14985318 -4.40693504 7.5140084 -9 9 C-9 8.01 -9 7.02 -9 6 C-3.25 3 -3.25 3 -1 3 C-0.67 2.01 -0.34 1.02 0 0 Z " fill="#EBE3FC" transform="translate(312,271)"/>
<path d="M0 0 C3.49026268 1.16342089 3.97648469 2.04904017 6 5 C6.556875 5.7425 7.11375 6.485 7.6875 7.25 C8.120625 7.8275 8.55375 8.405 9 9 C3.125 8.125 3.125 8.125 2 7 C1.95936168 5.33382885 1.957279 3.66611905 2 2 C1.34 2 0.68 2 0 2 C0 1.34 0 0.68 0 0 Z " fill="#E5DBFB" transform="translate(197,267)"/>
<path d="M0 0 C3.33333333 1.66666667 6.66666667 3.33333333 10 5 C10 5.66 10 6.32 10 7 C10.99 7 11.98 7 13 7 C13 7.66 13 8.32 13 9 C8.85935519 8.47788717 6.74547153 7.31033918 3.6875 4.5 C2.99011719 3.8709375 2.29273438 3.241875 1.57421875 2.59375 C0 1 0 1 0 0 Z " fill="#E5DAFB" transform="translate(205,209)"/>
<path d="M0 0 C0.97582031 0.00902344 1.95164062 0.01804687 2.95703125 0.02734375 C3.69308594 0.03894531 4.42914063 0.05054688 5.1875 0.0625 C2.10800484 2.11549677 0.76233032 2.45076122 -2.8125 2.8125 C-3.67875 2.91046875 -4.545 3.0084375 -5.4375 3.109375 C-7.8125 3.0625 -7.8125 3.0625 -10.8125 1.0625 C-7.13862505 0.20951624 -3.7677607 -0.04539471 0 0 Z " fill="#EEE7FC" transform="translate(283.8125,282.9375)"/>
<path d="M0 0 C-4.34881697 2.41600943 -8.03804557 3 -13 3 C-8.8341563 0.22277086 -4.9360889 -1.89849573 0 0 Z " fill="#EDE6FC" transform="translate(302,280)"/>
<path d="M0 0 C0.33 0 0.66 0 1 0 C1 3.96 1 7.92 1 12 C-1.24497221 9.75502779 -1.37003419 9.03972651 -1.75 6 C-1.84796875 5.29875 -1.9459375 4.5975 -2.046875 3.875 C-2 2 -2 2 0 0 Z " fill="#D0BCF9" transform="translate(336,92)"/>
<path d="M0 0 C0.33 0.99 0.66 1.98 1 3 C-2.21311475 8.73770492 -2.21311475 8.73770492 -6 10 C-4.6302836 6.00499382 -2.74277578 3.19990508 0 0 Z " fill="#F2ECFD" transform="translate(319,187)"/>
<path d="M0 0 C0.33 0 0.66 0 1 0 C1 2.97 1 5.94 1 9 C0.01 9.495 0.01 9.495 -1 10 C-2.31223496 6.06329512 -1.24296256 3.87511856 0 0 Z " fill="#EEE8FD" transform="translate(314,261)"/>
<path d="M0 0 C0.66 0.66 1.32 1.32 2 2 C0.35 3.98 -1.3 5.96 -3 8 C-3.33 7.01 -3.66 6.02 -4 5 C-3.34 4.01 -2.68 3.02 -2 2 C-1.34 2 -0.68 2 0 2 C0 1.34 0 0.68 0 0 Z " fill="#E5DAFB" transform="translate(316,194)"/>
</svg>
